<?xml version="1.0" encoding="UTF-8" standalone="no"?>
<!DOCTYPE svg PUBLIC "-//W3C//DTD SVG 1.1//EN"
 "http://www.w3.org/Graphics/SVG/1.1/DTD/svg11.dtd">
<!-- Generated by graphviz version 2.40.1 (20161225.0304)
 -->
<!-- Title: snakemake_dag Pages: 1 -->
<svg width="11395pt" height="764pt"
 viewBox="0.00 0.00 11394.94 764.00" xmlns="http://www.w3.org/2000/svg" xmlns:xlink="http://www.w3.org/1999/xlink">
<g id="graph0" class="graph" transform="scale(1 1) rotate(0) translate(4 760)">
<title>snakemake_dag</title>
<polygon fill="#ffffff" stroke="transparent" points="-4,4 -4,-760 11390.9396,-760 11390.9396,4 -4,4"/>
<!-- 0 -->
<g id="node1" class="node">
<title>0</title>
<path fill="none" stroke="#d87d56" stroke-width="2" d="M5813.9396,-396C5813.9396,-396 5748.9396,-396 5748.9396,-396 5742.9396,-396 5736.9396,-390 5736.9396,-384 5736.9396,-384 5736.9396,-372 5736.9396,-372 5736.9396,-366 5742.9396,-360 5748.9396,-360 5748.9396,-360 5813.9396,-360 5813.9396,-360 5819.9396,-360 5825.9396,-366 5825.9396,-372 5825.9396,-372 5825.9396,-384 5825.9396,-384 5825.9396,-390 5819.9396,-396 5813.9396,-396"/>
<text text-anchor="middle" x="5781.4396" y="-375.5" font-family="sans" font-size="10.00" fill="#000000">variant_counts</text>
</g>
<!-- 37 -->
<g id="node38" class="node">
<title>37</title>
<path fill="none" stroke="#56d892" stroke-width="2" d="M10552.4396,-108C10552.4396,-108 10498.4396,-108 10498.4396,-108 10492.4396,-108 10486.4396,-102 10486.4396,-96 10486.4396,-96 10486.4396,-84 10486.4396,-84 10486.4396,-78 10492.4396,-72 10498.4396,-72 10498.4396,-72 10552.4396,-72 10552.4396,-72 10558.4396,-72 10564.4396,-78 10564.4396,-84 10564.4396,-84 10564.4396,-96 10564.4396,-96 10564.4396,-102 10558.4396,-108 10552.4396,-108"/>
<text text-anchor="middle" x="10525.4396" y="-87.5" font-family="sans" font-size="10.00" fill="#000000">sphinx_build</text>
</g>
<!-- 0&#45;&gt;37 -->
<g id="edge70" class="edge">
<title>0&#45;&gt;37</title>
<path fill="none" stroke="#c0c0c0" stroke-width="2" d="M5826.2658,-377.7873C6272.5075,-375.6272 9902.3396,-357.0555 10007.4396,-324 10061.7673,-306.9132 10068.8367,-287.4124 10113.4396,-252 10131.914,-237.3323 10133.1885,-229.6322 10152.4396,-216 10208.255,-176.4756 10224.3226,-167.8022 10288.4396,-144 10351.4139,-120.6221 10427.7039,-105.4389 10476.4034,-97.298"/>
<polygon fill="#c0c0c0" stroke="#c0c0c0" stroke-width="2" points="10477.0589,-100.7374 10486.3618,-95.6673 10475.9276,-93.8294 10477.0589,-100.7374"/>
</g>
<!-- 41 -->
<g id="node42" class="node">
<title>41</title>
<path fill="none" stroke="#56d86b" stroke-width="2" d="M10255.9396,-252C10255.9396,-252 10172.9396,-252 10172.9396,-252 10166.9396,-252 10160.9396,-246 10160.9396,-240 10160.9396,-240 10160.9396,-228 10160.9396,-228 10160.9396,-222 10166.9396,-216 10172.9396,-216 10172.9396,-216 10255.9396,-216 10255.9396,-216 10261.9396,-216 10267.9396,-222 10267.9396,-228 10267.9396,-228 10267.9396,-240 10267.9396,-240 10267.9396,-246 10261.9396,-252 10255.9396,-252"/>
<text text-anchor="middle" x="10214.4396" y="-237" font-family="sans" font-size="10.00" fill="#000000">make_nblink</text>
<text text-anchor="middle" x="10214.4396" y="-226" font-family="sans" font-size="10.00" fill="#000000">nb: variant_counts</text>
</g>
<!-- 0&#45;&gt;41 -->
<g id="edge83" class="edge">
<title>0&#45;&gt;41</title>
<path fill="none" stroke="#c0c0c0" stroke-width="2" d="M5826.2322,-377.7173C6283.8974,-374.7967 10095.5807,-349.7106 10146.4396,-324 10172.4731,-310.8394 10191.2331,-282.5233 10202.37,-261.1442"/>
<polygon fill="#c0c0c0" stroke="#c0c0c0" stroke-width="2" points="10205.5078,-262.6947 10206.8122,-252.1804 10199.2358,-259.5864 10205.5078,-262.6947"/>
</g>
<!-- 44 -->
<g id="node45" class="node">
<title>44</title>
<path fill="none" stroke="#d8cb56" stroke-width="2" d="M10589.9396,-180C10589.9396,-180 10542.9396,-180 10542.9396,-180 10536.9396,-180 10530.9396,-174 10530.9396,-168 10530.9396,-168 10530.9396,-156 10530.9396,-156 10530.9396,-150 10536.9396,-144 10542.9396,-144 10542.9396,-144 10589.9396,-144 10589.9396,-144 10595.9396,-144 10601.9396,-150 10601.9396,-156 10601.9396,-156 10601.9396,-168 10601.9396,-168 10601.9396,-174 10595.9396,-180 10589.9396,-180"/>
<text text-anchor="middle" x="10566.4396" y="-159.5" font-family="sans" font-size="10.00" fill="#000000">docs_index</text>
</g>
<!-- 0&#45;&gt;44 -->
<g id="edge88" class="edge">
<title>0&#45;&gt;44</title>
<path fill="none" stroke="#c0c0c0" stroke-width="2" d="M5826.2736,-377.7344C6282.4255,-374.9982 10067.9691,-351.4822 10179.4396,-324 10282.1095,-298.6875 10293.4454,-255.7361 10391.4396,-216 10434.3978,-198.5807 10485.1849,-183.488 10520.9508,-173.7216"/>
<polygon fill="#c0c0c0" stroke="#c0c0c0" stroke-width="2" points="10521.8793,-177.0964 10530.6213,-171.1108 10520.0547,-170.3383 10521.8793,-177.0964"/>
</g>
<!-- 45 -->
<g id="node46" class="node">
<title>45</title>
<path fill="none" stroke="#8fd856" stroke-width="2" d="M9957.4396,-36C9957.4396,-36 9927.4396,-36 9927.4396,-36 9921.4396,-36 9915.4396,-30 9915.4396,-24 9915.4396,-24 9915.4396,-12 9915.4396,-12 9915.4396,-6 9921.4396,0 9927.4396,0 9927.4396,0 9957.4396,0 9957.4396,0 9963.4396,0 9969.4396,-6 9969.4396,-12 9969.4396,-12 9969.4396,-24 9969.4396,-24 9969.4396,-30 9963.4396,-36 9957.4396,-36"/>
<text text-anchor="middle" x="9942.4396" y="-15.5" font-family="sans" font-size="10.00" fill="#000000">all</text>
</g>
<!-- 0&#45;&gt;45 -->
<g id="edge97" class="edge">
<title>0&#45;&gt;45</title>
<path fill="none" stroke="#c0c0c0" stroke-width="2" d="M5826.1634,-377.6484C6271.2476,-374.0084 9888.4396,-341.1303 9888.4396,-234 9888.4396,-234 9888.4396,-234 9888.4396,-162 9888.4396,-119.061 9909.7502,-73.2426 9925.5966,-45.1081"/>
<polygon fill="#c0c0c0" stroke="#c0c0c0" stroke-width="2" points="9928.7308,-46.6804 9930.7224,-36.2744 9922.6762,-43.1672 9928.7308,-46.6804"/>
</g>
<!-- 46 -->
<g id="node47" class="node">
<title>46</title>
<path fill="none" stroke="#68d856" stroke-width="2" d="M9986.4396,-324C9986.4396,-324 9932.4396,-324 9932.4396,-324 9926.4396,-324 9920.4396,-318 9920.4396,-312 9920.4396,-312 9920.4396,-300 9920.4396,-300 9920.4396,-294 9926.4396,-288 9932.4396,-288 9932.4396,-288 9986.4396,-288 9986.4396,-288 9992.4396,-288 9998.4396,-294 9998.4396,-300 9998.4396,-300 9998.4396,-312 9998.4396,-312 9998.4396,-318 9992.4396,-324 9986.4396,-324"/>
<text text-anchor="middle" x="9959.4396" y="-303.5" font-family="sans" font-size="10.00" fill="#000000">prob_escape</text>
</g>
<!-- 0&#45;&gt;46 -->
<g id="edge100" class="edge">
<title>0&#45;&gt;46</title>
<path fill="none" stroke="#c0c0c0" stroke-width="2" d="M5826.2472,-377.7882C6259.3434,-375.6947 9690.6757,-358.0637 9902.4396,-324 9905.0859,-323.5743 9907.7785,-323.0513 9910.481,-322.455"/>
<polygon fill="#c0c0c0" stroke="#c0c0c0" stroke-width="2" points="9911.3911,-325.8352 9920.2456,-320.0173 9909.6956,-319.0437 9911.3911,-325.8352"/>
</g>
<!-- 1 -->
<g id="node2" class="node">
<title>1</title>
<path fill="none" stroke="#56a9d8" stroke-width="2" d="M2914.9396,-468C2914.9396,-468 2567.9396,-468 2567.9396,-468 2561.9396,-468 2555.9396,-462 2555.9396,-456 2555.9396,-456 2555.9396,-444 2555.9396,-444 2555.9396,-438 2561.9396,-432 2567.9396,-432 2567.9396,-432 2914.9396,-432 2914.9396,-432 2920.9396,-432 2926.9396,-438 2926.9396,-444 2926.9396,-444 2926.9396,-456 2926.9396,-456 2926.9396,-462 2920.9396,-468 2914.9396,-468"/>
<text text-anchor="middle" x="2741.4396" y="-453" font-family="sans" font-size="10.00" fill="#000000">count_barcodes</text>
<text text-anchor="middle" x="2741.4396" y="-442" font-family="sans" font-size="10.00" fill="#000000">library_sample: LibA_2022&#45;02&#45;10a_thaw&#45;3_antibody_REGN10933_0.15_1</text>
</g>
<!-- 1&#45;&gt;0 -->
<g id="edge1" class="edge">
<title>1&#45;&gt;0</title>
<path fill="none" stroke="#c0c0c0" stroke-width="2" d="M2927.0195,-432.4917C2929.8452,-432.3196 2932.6534,-432.1555 2935.4396,-432 3508.0406,-400.0472 5381.6878,-381.6466 5726.6067,-378.4888"/>
<polygon fill="#c0c0c0" stroke="#c0c0c0" stroke-width="2" points="5726.8639,-381.9867 5736.8315,-378.3955 5726.8,-374.987 5726.8639,-381.9867"/>
</g>
<!-- 2 -->
<g id="node3" class="node">
<title>2</title>
<path fill="none" stroke="#567bd8" stroke-width="2" d="M5829.4396,-540C5829.4396,-540 5733.4396,-540 5733.4396,-540 5727.4396,-540 5721.4396,-534 5721.4396,-528 5721.4396,-528 5721.4396,-516 5721.4396,-516 5721.4396,-510 5727.4396,-504 5733.4396,-504 5733.4396,-504 5829.4396,-504 5829.4396,-504 5835.4396,-504 5841.4396,-510 5841.4396,-516 5841.4396,-516 5841.4396,-528 5841.4396,-528 5841.4396,-534 5835.4396,-540 5829.4396,-540"/>
<text text-anchor="middle" x="5781.4396" y="-519.5" font-family="sans" font-size="10.00" fill="#000000">build_codon_variants</text>
</g>
<!-- 2&#45;&gt;0 -->
<g id="edge30" class="edge">
<title>2&#45;&gt;0</title>
<path fill="none" stroke="#c0c0c0" stroke-width="2" d="M5721.345,-521.5709C5281.5247,-518.3626 2575.3868,-497.4344 2546.4396,-468 2535.2207,-456.5923 2535.2207,-443.4077 2546.4396,-432 2575.5051,-402.4453 5303.6816,-381.4665 5726.622,-378.3906"/>
<polygon fill="#c0c0c0" stroke="#c0c0c0" stroke-width="2" points="5726.7805,-381.8897 5736.7549,-378.3172 5726.7297,-374.8899 5726.7805,-381.8897"/>
</g>
<!-- 2&#45;&gt;1 -->
<g id="edge31" class="edge">
<title>2&#45;&gt;1</title>
<path fill="none" stroke="#c0c0c0" stroke-width="2" d="M5721.3303,-521.4628C5365.1239,-518.1888 3526.9039,-500.0083 2937.3138,-468.0743"/>
<polygon fill="#c0c0c0" stroke="#c0c0c0" stroke-width="2" points="2937.1966,-464.5627 2927.0195,-467.5083 2936.8122,-471.5521 2937.1966,-464.5627"/>
</g>
<!-- 10 -->
<g id="node11" class="node">
<title>10</title>
<path fill="none" stroke="#56a9d8" stroke-width="2" d="M3303.9396,-468C3303.9396,-468 2956.9396,-468 2956.9396,-468 2950.9396,-468 2944.9396,-462 2944.9396,-456 2944.9396,-456 2944.9396,-444 2944.9396,-444 2944.9396,-438 2950.9396,-432 2956.9396,-432 2956.9396,-432 3303.9396,-432 3303.9396,-432 3309.9396,-432 3315.9396,-438 3315.9396,-444 3315.9396,-444 3315.9396,-456 3315.9396,-456 3315.9396,-462 3309.9396,-468 3303.9396,-468"/>
<text text-anchor="middle" x="3130.4396" y="-453" font-family="sans" font-size="10.00" fill="#000000">count_barcodes</text>
<text text-anchor="middle" x="3130.4396" y="-442" font-family="sans" font-size="10.00" fill="#000000">library_sample: LibA_2022&#45;02&#45;10a_thaw&#45;3_antibody_REGN10933_1.39_1</text>
</g>
<!-- 2&#45;&gt;10 -->
<g id="edge40" class="edge">
<title>2&#45;&gt;10</title>
<path fill="none" stroke="#c0c0c0" stroke-width="2" d="M5721.2194,-521.254C5394.7619,-517.123 3833.5878,-496.2322 3326.3437,-468.0789"/>
<polygon fill="#c0c0c0" stroke="#c0c0c0" stroke-width="2" points="3326.2015,-464.5654 3316.0202,-467.4965 3325.8071,-471.5543 3326.2015,-464.5654"/>
</g>
<!-- 11 -->
<g id="node12" class="node">
<title>11</title>
<path fill="none" stroke="#56a9d8" stroke-width="2" d="M3692.9396,-468C3692.9396,-468 3345.9396,-468 3345.9396,-468 3339.9396,-468 3333.9396,-462 3333.9396,-456 3333.9396,-456 3333.9396,-444 3333.9396,-444 3333.9396,-438 3339.9396,-432 3345.9396,-432 3345.9396,-432 3692.9396,-432 3692.9396,-432 3698.9396,-432 3704.9396,-438 3704.9396,-444 3704.9396,-444 3704.9396,-456 3704.9396,-456 3704.9396,-462 3698.9396,-468 3692.9396,-468"/>
<text text-anchor="middle" x="3519.4396" y="-453" font-family="sans" font-size="10.00" fill="#000000">count_barcodes</text>
<text text-anchor="middle" x="3519.4396" y="-442" font-family="sans" font-size="10.00" fill="#000000">library_sample: LibA_2022&#45;02&#45;10a_thaw&#45;3_antibody_REGN10933_5.58_1</text>
</g>
<!-- 2&#45;&gt;11 -->
<g id="edge41" class="edge">
<title>2&#45;&gt;11</title>
<path fill="none" stroke="#c0c0c0" stroke-width="2" d="M5721.0994,-520.9618C5426.9877,-515.8198 4141.0025,-492.3744 3715.1498,-468.0075"/>
<polygon fill="#c0c0c0" stroke="#c0c0c0" stroke-width="2" points="3715.131,-464.5006 3704.9446,-467.4136 3714.7243,-471.4888 3715.131,-464.5006"/>
</g>
<!-- 12 -->
<g id="node13" class="node">
<title>12</title>
<path fill="none" stroke="#56a9d8" stroke-width="2" d="M4047.4396,-468C4047.4396,-468 3735.4396,-468 3735.4396,-468 3729.4396,-468 3723.4396,-462 3723.4396,-456 3723.4396,-456 3723.4396,-444 3723.4396,-444 3723.4396,-438 3729.4396,-432 3735.4396,-432 3735.4396,-432 4047.4396,-432 4047.4396,-432 4053.4396,-432 4059.4396,-438 4059.4396,-444 4059.4396,-444 4059.4396,-456 4059.4396,-456 4059.4396,-462 4053.4396,-468 4047.4396,-468"/>
<text text-anchor="middle" x="3891.4396" y="-453" font-family="sans" font-size="10.00" fill="#000000">count_barcodes</text>
<text text-anchor="middle" x="3891.4396" y="-442" font-family="sans" font-size="10.00" fill="#000000">library_sample: LibA_2022&#45;02&#45;10a_thaw&#45;3_no&#45;antibody_control_1</text>
</g>
<!-- 2&#45;&gt;12 -->
<g id="edge42" class="edge">
<title>2&#45;&gt;12</title>
<path fill="none" stroke="#c0c0c0" stroke-width="2" d="M5721.4381,-521.6241C5502.1034,-519.9296 4722.957,-511.0995 4069.6725,-468.0539"/>
<polygon fill="#c0c0c0" stroke="#c0c0c0" stroke-width="2" points="4069.7922,-464.5543 4059.5827,-467.3857 4069.3295,-471.539 4069.7922,-464.5543"/>
</g>
<!-- 13 -->
<g id="node14" class="node">
<title>13</title>
<path fill="none" stroke="#56a9d8" stroke-width="2" d="M4436.9396,-468C4436.9396,-468 4089.9396,-468 4089.9396,-468 4083.9396,-468 4077.9396,-462 4077.9396,-456 4077.9396,-456 4077.9396,-444 4077.9396,-444 4077.9396,-438 4083.9396,-432 4089.9396,-432 4089.9396,-432 4436.9396,-432 4436.9396,-432 4442.9396,-432 4448.9396,-438 4448.9396,-444 4448.9396,-444 4448.9396,-456 4448.9396,-456 4448.9396,-462 4442.9396,-468 4436.9396,-468"/>
<text text-anchor="middle" x="4263.4396" y="-453" font-family="sans" font-size="10.00" fill="#000000">count_barcodes</text>
<text text-anchor="middle" x="4263.4396" y="-442" font-family="sans" font-size="10.00" fill="#000000">library_sample: LibA_2022&#45;02&#45;10a_thaw&#45;3_antibody_REGN10933_0.15_2</text>
</g>
<!-- 2&#45;&gt;13 -->
<g id="edge43" class="edge">
<title>2&#45;&gt;13</title>
<path fill="none" stroke="#c0c0c0" stroke-width="2" d="M5721.3373,-520.6566C5535.3738,-516.2641 4952.6817,-500.73 4459.2017,-468.0992"/>
<polygon fill="#c0c0c0" stroke="#c0c0c0" stroke-width="2" points="4459.2348,-464.5938 4449.0247,-467.423 4458.7706,-471.5784 4459.2348,-464.5938"/>
</g>
<!-- 14 -->
<g id="node15" class="node">
<title>14</title>
<path fill="none" stroke="#56a9d8" stroke-width="2" d="M4825.9396,-468C4825.9396,-468 4478.9396,-468 4478.9396,-468 4472.9396,-468 4466.9396,-462 4466.9396,-456 4466.9396,-456 4466.9396,-444 4466.9396,-444 4466.9396,-438 4472.9396,-432 4478.9396,-432 4478.9396,-432 4825.9396,-432 4825.9396,-432 4831.9396,-432 4837.9396,-438 4837.9396,-444 4837.9396,-444 4837.9396,-456 4837.9396,-456 4837.9396,-462 4831.9396,-468 4825.9396,-468"/>
<text text-anchor="middle" x="4652.4396" y="-453" font-family="sans" font-size="10.00" fill="#000000">count_barcodes</text>
<text text-anchor="middle" x="4652.4396" y="-442" font-family="sans" font-size="10.00" fill="#000000">library_sample: LibA_2022&#45;02&#45;10a_thaw&#45;3_antibody_REGN10933_1.39_2</text>
</g>
<!-- 2&#45;&gt;14 -->
<g id="edge44" class="edge">
<title>2&#45;&gt;14</title>
<path fill="none" stroke="#c0c0c0" stroke-width="2" d="M5721.2287,-519.2508C5574.1227,-512.377 5184.4908,-493.2256 4848.4559,-468.1384"/>
<polygon fill="#c0c0c0" stroke="#c0c0c0" stroke-width="2" points="4848.2631,-464.6142 4838.0294,-467.3568 4847.7398,-471.5946 4848.2631,-464.6142"/>
</g>
<!-- 15 -->
<g id="node16" class="node">
<title>15</title>
<path fill="none" stroke="#56a9d8" stroke-width="2" d="M5214.9396,-468C5214.9396,-468 4867.9396,-468 4867.9396,-468 4861.9396,-468 4855.9396,-462 4855.9396,-456 4855.9396,-456 4855.9396,-444 4855.9396,-444 4855.9396,-438 4861.9396,-432 4867.9396,-432 4867.9396,-432 5214.9396,-432 5214.9396,-432 5220.9396,-432 5226.9396,-438 5226.9396,-444 5226.9396,-444 5226.9396,-456 5226.9396,-456 5226.9396,-462 5220.9396,-468 5214.9396,-468"/>
<text text-anchor="middle" x="5041.4396" y="-453" font-family="sans" font-size="10.00" fill="#000000">count_barcodes</text>
<text text-anchor="middle" x="5041.4396" y="-442" font-family="sans" font-size="10.00" fill="#000000">library_sample: LibA_2022&#45;02&#45;10a_thaw&#45;3_antibody_REGN10933_5.58_2</text>
</g>
<!-- 2&#45;&gt;15 -->
<g id="edge45" class="edge">
<title>2&#45;&gt;15</title>
<path fill="none" stroke="#c0c0c0" stroke-width="2" d="M5721.1961,-516.1385C5616.8043,-505.9814 5398.0103,-484.6934 5236.717,-469"/>
<polygon fill="#c0c0c0" stroke="#c0c0c0" stroke-width="2" points="5236.9551,-465.5067 5226.6631,-468.0217 5236.2772,-472.4738 5236.9551,-465.5067"/>
</g>
<!-- 16 -->
<g id="node17" class="node">
<title>16</title>
<path fill="none" stroke="#56a9d8" stroke-width="2" d="M5569.4396,-468C5569.4396,-468 5257.4396,-468 5257.4396,-468 5251.4396,-468 5245.4396,-462 5245.4396,-456 5245.4396,-456 5245.4396,-444 5245.4396,-444 5245.4396,-438 5251.4396,-432 5257.4396,-432 5257.4396,-432 5569.4396,-432 5569.4396,-432 5575.4396,-432 5581.4396,-438 5581.4396,-444 5581.4396,-444 5581.4396,-456 5581.4396,-456 5581.4396,-462 5575.4396,-468 5569.4396,-468"/>
<text text-anchor="middle" x="5413.4396" y="-453" font-family="sans" font-size="10.00" fill="#000000">count_barcodes</text>
<text text-anchor="middle" x="5413.4396" y="-442" font-family="sans" font-size="10.00" fill="#000000">library_sample: LibA_2022&#45;02&#45;10a_thaw&#45;3_no&#45;antibody_control_2</text>
</g>
<!-- 2&#45;&gt;16 -->
<g id="edge46" class="edge">
<title>2&#45;&gt;16</title>
<path fill="none" stroke="#c0c0c0" stroke-width="2" d="M5721.084,-510.1913C5665.42,-499.3005 5581.6573,-482.9121 5515.5829,-469.9846"/>
<polygon fill="#c0c0c0" stroke="#c0c0c0" stroke-width="2" points="5516.0392,-466.5075 5505.5532,-468.0222 5514.6951,-473.3773 5516.0392,-466.5075"/>
</g>
<!-- 17 -->
<g id="node18" class="node">
<title>17</title>
<path fill="none" stroke="#56a9d8" stroke-width="2" d="M5951.9396,-468C5951.9396,-468 5610.9396,-468 5610.9396,-468 5604.9396,-468 5598.9396,-462 5598.9396,-456 5598.9396,-456 5598.9396,-444 5598.9396,-444 5598.9396,-438 5604.9396,-432 5610.9396,-432 5610.9396,-432 5951.9396,-432 5951.9396,-432 5957.9396,-432 5963.9396,-438 5963.9396,-444 5963.9396,-444 5963.9396,-456 5963.9396,-456 5963.9396,-462 5957.9396,-468 5951.9396,-468"/>
<text text-anchor="middle" x="5781.4396" y="-453" font-family="sans" font-size="10.00" fill="#000000">count_barcodes</text>
<text text-anchor="middle" x="5781.4396" y="-442" font-family="sans" font-size="10.00" fill="#000000">library_sample: LibB_2022&#45;03&#45;02_thaw&#45;3_antibody_REGN10933_0.15_1</text>
</g>
<!-- 2&#45;&gt;17 -->
<g id="edge47" class="edge">
<title>2&#45;&gt;17</title>
<path fill="none" stroke="#c0c0c0" stroke-width="2" d="M5781.4396,-503.8314C5781.4396,-496.131 5781.4396,-486.9743 5781.4396,-478.4166"/>
<polygon fill="#c0c0c0" stroke="#c0c0c0" stroke-width="2" points="5784.9397,-478.4132 5781.4396,-468.4133 5777.9397,-478.4133 5784.9397,-478.4132"/>
</g>
<!-- 18 -->
<g id="node19" class="node">
<title>18</title>
<path fill="none" stroke="#56a9d8" stroke-width="2" d="M6334.9396,-468C6334.9396,-468 5993.9396,-468 5993.9396,-468 5987.9396,-468 5981.9396,-462 5981.9396,-456 5981.9396,-456 5981.9396,-444 5981.9396,-444 5981.9396,-438 5987.9396,-432 5993.9396,-432 5993.9396,-432 6334.9396,-432 6334.9396,-432 6340.9396,-432 6346.9396,-438 6346.9396,-444 6346.9396,-444 6346.9396,-456 6346.9396,-456 6346.9396,-462 6340.9396,-468 6334.9396,-468"/>
<text text-anchor="middle" x="6164.4396" y="-453" font-family="sans" font-size="10.00" fill="#000000">count_barcodes</text>
<text text-anchor="middle" x="6164.4396" y="-442" font-family="sans" font-size="10.00" fill="#000000">library_sample: LibB_2022&#45;03&#45;02_thaw&#45;3_antibody_REGN10933_1.39_1</text>
</g>
<!-- 2&#45;&gt;18 -->
<g id="edge48" class="edge">
<title>2&#45;&gt;18</title>
<path fill="none" stroke="#c0c0c0" stroke-width="2" d="M5841.7047,-510.6708C5899.6314,-499.7812 5988.4262,-483.0887 6058.2247,-469.9673"/>
<polygon fill="#c0c0c0" stroke="#c0c0c0" stroke-width="2" points="6059.1979,-473.3457 6068.379,-468.0584 6057.9045,-466.4663 6059.1979,-473.3457"/>
</g>
<!-- 19 -->
<g id="node20" class="node">
<title>19</title>
<path fill="none" stroke="#56a9d8" stroke-width="2" d="M6717.9396,-468C6717.9396,-468 6376.9396,-468 6376.9396,-468 6370.9396,-468 6364.9396,-462 6364.9396,-456 6364.9396,-456 6364.9396,-444 6364.9396,-444 6364.9396,-438 6370.9396,-432 6376.9396,-432 6376.9396,-432 6717.9396,-432 6717.9396,-432 6723.9396,-432 6729.9396,-438 6729.9396,-444 6729.9396,-444 6729.9396,-456 6729.9396,-456 6729.9396,-462 6723.9396,-468 6717.9396,-468"/>
<text text-anchor="middle" x="6547.4396" y="-453" font-family="sans" font-size="10.00" fill="#000000">count_barcodes</text>
<text text-anchor="middle" x="6547.4396" y="-442" font-family="sans" font-size="10.00" fill="#000000">library_sample: LibB_2022&#45;03&#45;02_thaw&#45;3_antibody_REGN10933_5.58_1</text>
</g>
<!-- 2&#45;&gt;19 -->
<g id="edge49" class="edge">
<title>2&#45;&gt;19</title>
<path fill="none" stroke="#c0c0c0" stroke-width="2" d="M5841.5464,-516.3503C5950.7332,-506.0873 6185.9589,-483.9773 6354.8841,-468.0992"/>
<polygon fill="#c0c0c0" stroke="#c0c0c0" stroke-width="2" points="6355.2702,-471.5784 6364.8987,-467.1579 6354.6151,-464.6092 6355.2702,-471.5784"/>
</g>
<!-- 20 -->
<g id="node21" class="node">
<title>20</title>
<path fill="none" stroke="#56a9d8" stroke-width="2" d="M7100.9396,-468C7100.9396,-468 6759.9396,-468 6759.9396,-468 6753.9396,-468 6747.9396,-462 6747.9396,-456 6747.9396,-456 6747.9396,-444 6747.9396,-444 6747.9396,-438 6753.9396,-432 6759.9396,-432 6759.9396,-432 7100.9396,-432 7100.9396,-432 7106.9396,-432 7112.9396,-438 7112.9396,-444 7112.9396,-444 7112.9396,-456 7112.9396,-456 7112.9396,-462 7106.9396,-468 7100.9396,-468"/>
<text text-anchor="middle" x="6930.4396" y="-453" font-family="sans" font-size="10.00" fill="#000000">count_barcodes</text>
<text text-anchor="middle" x="6930.4396" y="-442" font-family="sans" font-size="10.00" fill="#000000">library_sample: LibB_2022&#45;03&#45;02_thaw&#45;3_antibody_REGN10933_0.15_2</text>
</g>
<!-- 2&#45;&gt;20 -->
<g id="edge50" class="edge">
<title>2&#45;&gt;20</title>
<path fill="none" stroke="#c0c0c0" stroke-width="2" d="M5841.6753,-519.3787C5991.2364,-512.7029 6391.7831,-493.8 6737.5666,-468.049"/>
<polygon fill="#c0c0c0" stroke="#c0c0c0" stroke-width="2" points="6738.0695,-471.5212 6747.7806,-467.2851 6737.5474,-464.5407 6738.0695,-471.5212"/>
</g>
<!-- 21 -->
<g id="node22" class="node">
<title>21</title>
<path fill="none" stroke="#56a9d8" stroke-width="2" d="M7483.9396,-468C7483.9396,-468 7142.9396,-468 7142.9396,-468 7136.9396,-468 7130.9396,-462 7130.9396,-456 7130.9396,-456 7130.9396,-444 7130.9396,-444 7130.9396,-438 7136.9396,-432 7142.9396,-432 7142.9396,-432 7483.9396,-432 7483.9396,-432 7489.9396,-432 7495.9396,-438 7495.9396,-444 7495.9396,-444 7495.9396,-456 7495.9396,-456 7495.9396,-462 7489.9396,-468 7483.9396,-468"/>
<text text-anchor="middle" x="7313.4396" y="-453" font-family="sans" font-size="10.00" fill="#000000">count_barcodes</text>
<text text-anchor="middle" x="7313.4396" y="-442" font-family="sans" font-size="10.00" fill="#000000">library_sample: LibB_2022&#45;03&#45;02_thaw&#45;3_antibody_REGN10933_1.39_2</text>
</g>
<!-- 2&#45;&gt;21 -->
<g id="edge51" class="edge">
<title>2&#45;&gt;21</title>
<path fill="none" stroke="#c0c0c0" stroke-width="2" d="M5841.6018,-520.7163C6029.0845,-516.4731 6619.6381,-501.273 7120.4571,-468.0431"/>
<polygon fill="#c0c0c0" stroke="#c0c0c0" stroke-width="2" points="7121.0406,-471.5121 7130.7855,-467.3544 7120.5748,-464.5276 7121.0406,-471.5121"/>
</g>
<!-- 22 -->
<g id="node23" class="node">
<title>22</title>
<path fill="none" stroke="#56a9d8" stroke-width="2" d="M7866.9396,-468C7866.9396,-468 7525.9396,-468 7525.9396,-468 7519.9396,-468 7513.9396,-462 7513.9396,-456 7513.9396,-456 7513.9396,-444 7513.9396,-444 7513.9396,-438 7519.9396,-432 7525.9396,-432 7525.9396,-432 7866.9396,-432 7866.9396,-432 7872.9396,-432 7878.9396,-438 7878.9396,-444 7878.9396,-444 7878.9396,-456 7878.9396,-456 7878.9396,-462 7872.9396,-468 7866.9396,-468"/>
<text text-anchor="middle" x="7696.4396" y="-453" font-family="sans" font-size="10.00" fill="#000000">count_barcodes</text>
<text text-anchor="middle" x="7696.4396" y="-442" font-family="sans" font-size="10.00" fill="#000000">library_sample: LibB_2022&#45;03&#45;02_thaw&#45;3_antibody_REGN10933_5.58_2</text>
</g>
<!-- 2&#45;&gt;22 -->
<g id="edge52" class="edge">
<title>2&#45;&gt;22</title>
<path fill="none" stroke="#c0c0c0" stroke-width="2" d="M5841.7804,-521.4655C6062.3574,-519.225 6845.9374,-508.749 7503.6301,-468.0249"/>
<polygon fill="#c0c0c0" stroke="#c0c0c0" stroke-width="2" points="7504.0247,-471.5072 7513.788,-467.3929 7503.5899,-464.5208 7504.0247,-471.5072"/>
</g>
<!-- 23 -->
<g id="node24" class="node">
<title>23</title>
<path fill="none" stroke="#56a9d8" stroke-width="2" d="M8235.9396,-468C8235.9396,-468 7908.9396,-468 7908.9396,-468 7902.9396,-468 7896.9396,-462 7896.9396,-456 7896.9396,-456 7896.9396,-444 7896.9396,-444 7896.9396,-438 7902.9396,-432 7908.9396,-432 7908.9396,-432 8235.9396,-432 8235.9396,-432 8241.9396,-432 8247.9396,-438 8247.9396,-444 8247.9396,-444 8247.9396,-456 8247.9396,-456 8247.9396,-462 8241.9396,-468 8235.9396,-468"/>
<text text-anchor="middle" x="8072.4396" y="-453" font-family="sans" font-size="10.00" fill="#000000">count_barcodes</text>
<text text-anchor="middle" x="8072.4396" y="-442" font-family="sans" font-size="10.00" fill="#000000">library_sample: LibB_2022&#45;03&#45;02_thaw&#45;3_antibody_S2M11_1.2328_1</text>
</g>
<!-- 2&#45;&gt;23 -->
<g id="edge53" class="edge">
<title>2&#45;&gt;23</title>
<path fill="none" stroke="#c0c0c0" stroke-width="2" d="M5841.9236,-521.0333C6139.7452,-516.1845 7453.0386,-493.749 7886.6185,-468.0135"/>
<polygon fill="#c0c0c0" stroke="#c0c0c0" stroke-width="2" points="7886.9251,-471.5015 7896.6959,-467.405 7886.5031,-464.5142 7886.9251,-471.5015"/>
</g>
<!-- 24 -->
<g id="node25" class="node">
<title>24</title>
<path fill="none" stroke="#56a9d8" stroke-width="2" d="M8604.9396,-468C8604.9396,-468 8277.9396,-468 8277.9396,-468 8271.9396,-468 8265.9396,-462 8265.9396,-456 8265.9396,-456 8265.9396,-444 8265.9396,-444 8265.9396,-438 8271.9396,-432 8277.9396,-432 8277.9396,-432 8604.9396,-432 8604.9396,-432 8610.9396,-432 8616.9396,-438 8616.9396,-444 8616.9396,-444 8616.9396,-456 8616.9396,-456 8616.9396,-462 8610.9396,-468 8604.9396,-468"/>
<text text-anchor="middle" x="8441.4396" y="-453" font-family="sans" font-size="10.00" fill="#000000">count_barcodes</text>
<text text-anchor="middle" x="8441.4396" y="-442" font-family="sans" font-size="10.00" fill="#000000">library_sample: LibB_2022&#45;03&#45;02_thaw&#45;3_antibody_S2M11_4.9314_1</text>
</g>
<!-- 2&#45;&gt;24 -->
<g id="edge54" class="edge">
<title>2&#45;&gt;24</title>
<path fill="none" stroke="#c0c0c0" stroke-width="2" d="M5841.5619,-521.3028C6169.3133,-517.4096 7744.1101,-497.4888 8255.6549,-468.0093"/>
<polygon fill="#c0c0c0" stroke="#c0c0c0" stroke-width="2" points="8255.9187,-471.5 8265.6969,-467.4212 8255.5094,-464.512 8255.9187,-471.5"/>
</g>
<!-- 25 -->
<g id="node26" class="node">
<title>25</title>
<path fill="none" stroke="#56a9d8" stroke-width="2" d="M8973.9396,-468C8973.9396,-468 8646.9396,-468 8646.9396,-468 8640.9396,-468 8634.9396,-462 8634.9396,-456 8634.9396,-456 8634.9396,-444 8634.9396,-444 8634.9396,-438 8640.9396,-432 8646.9396,-432 8646.9396,-432 8973.9396,-432 8973.9396,-432 8979.9396,-432 8985.9396,-438 8985.9396,-444 8985.9396,-444 8985.9396,-456 8985.9396,-456 8985.9396,-462 8979.9396,-468 8973.9396,-468"/>
<text text-anchor="middle" x="8810.4396" y="-453" font-family="sans" font-size="10.00" fill="#000000">count_barcodes</text>
<text text-anchor="middle" x="8810.4396" y="-442" font-family="sans" font-size="10.00" fill="#000000">library_sample: LibB_2022&#45;03&#45;02_thaw&#45;3_antibody_S2M11_1.2328_2</text>
</g>
<!-- 2&#45;&gt;25 -->
<g id="edge55" class="edge">
<title>2&#45;&gt;25</title>
<path fill="none" stroke="#c0c0c0" stroke-width="2" d="M5841.5088,-521.4989C6197.477,-518.4333 8034.4629,-501.2513 8624.3971,-468.0225"/>
<polygon fill="#c0c0c0" stroke="#c0c0c0" stroke-width="2" points="8624.9139,-471.4988 8634.6976,-467.4333 8624.514,-464.5102 8624.9139,-471.4988"/>
</g>
<!-- 26 -->
<g id="node27" class="node">
<title>26</title>
<path fill="none" stroke="#56a9d8" stroke-width="2" d="M9342.9396,-468C9342.9396,-468 9015.9396,-468 9015.9396,-468 9009.9396,-468 9003.9396,-462 9003.9396,-456 9003.9396,-456 9003.9396,-444 9003.9396,-444 9003.9396,-438 9009.9396,-432 9015.9396,-432 9015.9396,-432 9342.9396,-432 9342.9396,-432 9348.9396,-432 9354.9396,-438 9354.9396,-444 9354.9396,-444 9354.9396,-456 9354.9396,-456 9354.9396,-462 9348.9396,-468 9342.9396,-468"/>
<text text-anchor="middle" x="9179.4396" y="-453" font-family="sans" font-size="10.00" fill="#000000">count_barcodes</text>
<text text-anchor="middle" x="9179.4396" y="-442" font-family="sans" font-size="10.00" fill="#000000">library_sample: LibB_2022&#45;03&#45;02_thaw&#45;3_antibody_S2M11_4.9314_2</text>
</g>
<!-- 2&#45;&gt;26 -->
<g id="edge56" class="edge">
<title>2&#45;&gt;26</title>
<path fill="none" stroke="#c0c0c0" stroke-width="2" d="M5841.6348,-521.6489C6224.5419,-519.3165 8325.4158,-505.0193 8993.4843,-468.0164"/>
<polygon fill="#c0c0c0" stroke="#c0c0c0" stroke-width="2" points="8993.9103,-471.4981 9003.6982,-467.4426 8993.5175,-464.5092 8993.9103,-471.4981"/>
</g>
<!-- 27 -->
<g id="node28" class="node">
<title>27</title>
<path fill="none" stroke="#56a9d8" stroke-width="2" d="M9711.9396,-468C9711.9396,-468 9384.9396,-468 9384.9396,-468 9378.9396,-468 9372.9396,-462 9372.9396,-456 9372.9396,-456 9372.9396,-444 9372.9396,-444 9372.9396,-438 9378.9396,-432 9384.9396,-432 9384.9396,-432 9711.9396,-432 9711.9396,-432 9717.9396,-432 9723.9396,-438 9723.9396,-444 9723.9396,-444 9723.9396,-456 9723.9396,-456 9723.9396,-462 9717.9396,-468 9711.9396,-468"/>
<text text-anchor="middle" x="9548.4396" y="-453" font-family="sans" font-size="10.00" fill="#000000">count_barcodes</text>
<text text-anchor="middle" x="9548.4396" y="-442" font-family="sans" font-size="10.00" fill="#000000">library_sample: LibA_2022&#45;03&#45;02_thaw&#45;3_antibody_S2M11_0.3082_1</text>
</g>
<!-- 2&#45;&gt;27 -->
<g id="edge57" class="edge">
<title>2&#45;&gt;27</title>
<path fill="none" stroke="#c0c0c0" stroke-width="2" d="M5841.4647,-521.7697C6249.027,-520.1051 8616.1613,-508.8118 9362.6385,-468.0072"/>
<polygon fill="#c0c0c0" stroke="#c0c0c0" stroke-width="2" points="9362.9075,-471.4977 9372.6986,-467.4499 9362.5203,-464.5084 9362.9075,-471.4977"/>
</g>
<!-- 28 -->
<g id="node29" class="node">
<title>28</title>
<path fill="none" stroke="#56a9d8" stroke-width="2" d="M10080.9396,-468C10080.9396,-468 9753.9396,-468 9753.9396,-468 9747.9396,-468 9741.9396,-462 9741.9396,-456 9741.9396,-456 9741.9396,-444 9741.9396,-444 9741.9396,-438 9747.9396,-432 9753.9396,-432 9753.9396,-432 10080.9396,-432 10080.9396,-432 10086.9396,-432 10092.9396,-438 10092.9396,-444 10092.9396,-444 10092.9396,-456 10092.9396,-456 10092.9396,-462 10086.9396,-468 10080.9396,-468"/>
<text text-anchor="middle" x="9917.4396" y="-453" font-family="sans" font-size="10.00" fill="#000000">count_barcodes</text>
<text text-anchor="middle" x="9917.4396" y="-442" font-family="sans" font-size="10.00" fill="#000000">library_sample: LibA_2022&#45;03&#45;02_thaw&#45;3_antibody_S2M11_1.2328_1</text>
</g>
<!-- 2&#45;&gt;28 -->
<g id="edge58" class="edge">
<title>2&#45;&gt;28</title>
<path fill="none" stroke="#c0c0c0" stroke-width="2" d="M5841.6254,-521.8668C6273.4616,-520.8084 8906.2797,-512.6084 9731.4759,-468.0154"/>
<polygon fill="#c0c0c0" stroke="#c0c0c0" stroke-width="2" points="9731.9051,-471.4972 9741.6989,-467.4559 9731.5226,-464.5077 9731.9051,-471.4972"/>
</g>
<!-- 29 -->
<g id="node30" class="node">
<title>29</title>
<path fill="none" stroke="#56a9d8" stroke-width="2" d="M10449.9396,-468C10449.9396,-468 10122.9396,-468 10122.9396,-468 10116.9396,-468 10110.9396,-462 10110.9396,-456 10110.9396,-456 10110.9396,-444 10110.9396,-444 10110.9396,-438 10116.9396,-432 10122.9396,-432 10122.9396,-432 10449.9396,-432 10449.9396,-432 10455.9396,-432 10461.9396,-438 10461.9396,-444 10461.9396,-444 10461.9396,-456 10461.9396,-456 10461.9396,-462 10455.9396,-468 10449.9396,-468"/>
<text text-anchor="middle" x="10286.4396" y="-453" font-family="sans" font-size="10.00" fill="#000000">count_barcodes</text>
<text text-anchor="middle" x="10286.4396" y="-442" font-family="sans" font-size="10.00" fill="#000000">library_sample: LibA_2022&#45;03&#45;02_thaw&#45;3_antibody_S2M11_4.9314_1</text>
</g>
<!-- 2&#45;&gt;29 -->
<g id="edge59" class="edge">
<title>2&#45;&gt;29</title>
<path fill="none" stroke="#c0c0c0" stroke-width="2" d="M5841.6976,-521.9525C6296.5775,-521.4884 9197.368,-516.6562 10100.4686,-468.0767"/>
<polygon fill="#c0c0c0" stroke="#c0c0c0" stroke-width="2" points="10100.8784,-471.5597 10110.6734,-467.5212 10100.4979,-464.57 10100.8784,-471.5597"/>
</g>
<!-- 30 -->
<g id="node31" class="node">
<title>30</title>
<path fill="none" stroke="#56a9d8" stroke-width="2" d="M356.9396,-468C356.9396,-468 29.9396,-468 29.9396,-468 23.9396,-468 17.9396,-462 17.9396,-456 17.9396,-456 17.9396,-444 17.9396,-444 17.9396,-438 23.9396,-432 29.9396,-432 29.9396,-432 356.9396,-432 356.9396,-432 362.9396,-432 368.9396,-438 368.9396,-444 368.9396,-444 368.9396,-456 368.9396,-456 368.9396,-462 362.9396,-468 356.9396,-468"/>
<text text-anchor="middle" x="193.4396" y="-453" font-family="sans" font-size="10.00" fill="#000000">count_barcodes</text>
<text text-anchor="middle" x="193.4396" y="-442" font-family="sans" font-size="10.00" fill="#000000">library_sample: LibA_2022&#45;03&#45;02_thaw&#45;3_antibody_S2M11_0.3082_2</text>
</g>
<!-- 2&#45;&gt;30 -->
<g id="edge60" class="edge">
<title>2&#45;&gt;30</title>
<path fill="none" stroke="#c0c0c0" stroke-width="2" d="M5721.3922,-521.7199C5169.5709,-519.1039 986.9519,-498.3806 379.5709,-468.0677"/>
<polygon fill="#c0c0c0" stroke="#c0c0c0" stroke-width="2" points="379.3731,-464.5529 369.2054,-467.5308 379.0109,-471.5435 379.3731,-464.5529"/>
</g>
<!-- 31 -->
<g id="node32" class="node">
<title>31</title>
<path fill="none" stroke="#56a9d8" stroke-width="2" d="M725.9396,-468C725.9396,-468 398.9396,-468 398.9396,-468 392.9396,-468 386.9396,-462 386.9396,-456 386.9396,-456 386.9396,-444 386.9396,-444 386.9396,-438 392.9396,-432 398.9396,-432 398.9396,-432 725.9396,-432 725.9396,-432 731.9396,-432 737.9396,-438 737.9396,-444 737.9396,-444 737.9396,-456 737.9396,-456 737.9396,-462 731.9396,-468 725.9396,-468"/>
<text text-anchor="middle" x="562.4396" y="-453" font-family="sans" font-size="10.00" fill="#000000">count_barcodes</text>
<text text-anchor="middle" x="562.4396" y="-442" font-family="sans" font-size="10.00" fill="#000000">library_sample: LibA_2022&#45;03&#45;02_thaw&#45;3_antibody_S2M11_1.2328_2</text>
</g>
<!-- 2&#45;&gt;31 -->
<g id="edge61" class="edge">
<title>2&#45;&gt;31</title>
<path fill="none" stroke="#c0c0c0" stroke-width="2" d="M5721.3671,-521.6727C5191.004,-518.7424 1314.6432,-496.4696 748.2639,-468.0522"/>
<polygon fill="#c0c0c0" stroke="#c0c0c0" stroke-width="2" points="748.3742,-464.5533 738.2055,-467.528 748.0098,-471.5438 748.3742,-464.5533"/>
</g>
<!-- 32 -->
<g id="node33" class="node">
<title>32</title>
<path fill="none" stroke="#56a9d8" stroke-width="2" d="M1094.9396,-468C1094.9396,-468 767.9396,-468 767.9396,-468 761.9396,-468 755.9396,-462 755.9396,-456 755.9396,-456 755.9396,-444 755.9396,-444 755.9396,-438 761.9396,-432 767.9396,-432 767.9396,-432 1094.9396,-432 1094.9396,-432 1100.9396,-432 1106.9396,-438 1106.9396,-444 1106.9396,-444 1106.9396,-456 1106.9396,-456 1106.9396,-462 1100.9396,-468 1094.9396,-468"/>
<text text-anchor="middle" x="931.4396" y="-453" font-family="sans" font-size="10.00" fill="#000000">count_barcodes</text>
<text text-anchor="middle" x="931.4396" y="-442" font-family="sans" font-size="10.00" fill="#000000">library_sample: LibA_2022&#45;03&#45;02_thaw&#45;3_antibody_S2M11_4.9314_2</text>
</g>
<!-- 2&#45;&gt;32 -->
<g id="edge62" class="edge">
<title>2&#45;&gt;32</title>
<path fill="none" stroke="#c0c0c0" stroke-width="2" d="M5721.428,-521.6167C5213.826,-518.3339 1644.771,-494.4448 1117.2769,-467.9918"/>
<polygon fill="#c0c0c0" stroke="#c0c0c0" stroke-width="2" points="1117.3487,-464.4908 1107.1798,-467.4648 1116.9838,-471.4813 1117.3487,-464.4908"/>
</g>
<!-- 33 -->
<g id="node34" class="node">
<title>33</title>
<path fill="none" stroke="#56a9d8" stroke-width="2" d="M1443.4396,-468C1443.4396,-468 1137.4396,-468 1137.4396,-468 1131.4396,-468 1125.4396,-462 1125.4396,-456 1125.4396,-456 1125.4396,-444 1125.4396,-444 1125.4396,-438 1131.4396,-432 1137.4396,-432 1137.4396,-432 1443.4396,-432 1443.4396,-432 1449.4396,-432 1455.4396,-438 1455.4396,-444 1455.4396,-444 1455.4396,-456 1455.4396,-456 1455.4396,-462 1449.4396,-468 1443.4396,-468"/>
<text text-anchor="middle" x="1290.4396" y="-453" font-family="sans" font-size="10.00" fill="#000000">count_barcodes</text>
<text text-anchor="middle" x="1290.4396" y="-442" font-family="sans" font-size="10.00" fill="#000000">library_sample: LibA_2022&#45;03&#45;02_thaw&#45;3_no&#45;antibody_control_2</text>
</g>
<!-- 2&#45;&gt;33 -->
<g id="edge63" class="edge">
<title>2&#45;&gt;33</title>
<path fill="none" stroke="#c0c0c0" stroke-width="2" d="M5721.3441,-521.5785C5235.4433,-518.1271 1954.8433,-494.0043 1465.7616,-468.0201"/>
<polygon fill="#c0c0c0" stroke="#c0c0c0" stroke-width="2" points="1465.9055,-464.5228 1455.7271,-467.4639 1465.5181,-471.512 1465.9055,-464.5228"/>
</g>
<!-- 34 -->
<g id="node35" class="node">
<title>34</title>
<path fill="none" stroke="#56a9d8" stroke-width="2" d="M1791.4396,-468C1791.4396,-468 1485.4396,-468 1485.4396,-468 1479.4396,-468 1473.4396,-462 1473.4396,-456 1473.4396,-456 1473.4396,-444 1473.4396,-444 1473.4396,-438 1479.4396,-432 1485.4396,-432 1485.4396,-432 1791.4396,-432 1791.4396,-432 1797.4396,-432 1803.4396,-438 1803.4396,-444 1803.4396,-444 1803.4396,-456 1803.4396,-456 1803.4396,-462 1797.4396,-468 1791.4396,-468"/>
<text text-anchor="middle" x="1638.4396" y="-453" font-family="sans" font-size="10.00" fill="#000000">count_barcodes</text>
<text text-anchor="middle" x="1638.4396" y="-442" font-family="sans" font-size="10.00" fill="#000000">library_sample: LibA_2022&#45;03&#45;02_thaw&#45;3_no&#45;antibody_control_1</text>
</g>
<!-- 2&#45;&gt;34 -->
<g id="edge64" class="edge">
<title>2&#45;&gt;34</title>
<path fill="none" stroke="#c0c0c0" stroke-width="2" d="M5721.3241,-521.9216C5288.5676,-521.2466 2642.4501,-515.24 1813.9906,-468.0517"/>
<polygon fill="#c0c0c0" stroke="#c0c0c0" stroke-width="2" points="1813.9124,-464.5414 1803.7274,-467.4595 1813.5091,-471.5298 1813.9124,-464.5414"/>
</g>
<!-- 35 -->
<g id="node36" class="node">
<title>35</title>
<path fill="none" stroke="#56a9d8" stroke-width="2" d="M2139.4396,-468C2139.4396,-468 1833.4396,-468 1833.4396,-468 1827.4396,-468 1821.4396,-462 1821.4396,-456 1821.4396,-456 1821.4396,-444 1821.4396,-444 1821.4396,-438 1827.4396,-432 1833.4396,-432 1833.4396,-432 2139.4396,-432 2139.4396,-432 2145.4396,-432 2151.4396,-438 2151.4396,-444 2151.4396,-444 2151.4396,-456 2151.4396,-456 2151.4396,-462 2145.4396,-468 2139.4396,-468"/>
<text text-anchor="middle" x="1986.4396" y="-453" font-family="sans" font-size="10.00" fill="#000000">count_barcodes</text>
<text text-anchor="middle" x="1986.4396" y="-442" font-family="sans" font-size="10.00" fill="#000000">library_sample: LibB_2022&#45;03&#45;02_thaw&#45;3_no&#45;antibody_control_1</text>
</g>
<!-- 2&#45;&gt;35 -->
<g id="edge65" class="edge">
<title>2&#45;&gt;35</title>
<path fill="none" stroke="#c0c0c0" stroke-width="2" d="M5721.4204,-521.8311C5311.3117,-520.5681 2916.1401,-511.4326 2161.8923,-468.047"/>
<polygon fill="#c0c0c0" stroke="#c0c0c0" stroke-width="2" points="2161.9145,-464.5424 2151.7277,-467.4543 2161.507,-471.5305 2161.9145,-464.5424"/>
</g>
<!-- 36 -->
<g id="node37" class="node">
<title>36</title>
<path fill="none" stroke="#56a9d8" stroke-width="2" d="M2487.4396,-468C2487.4396,-468 2181.4396,-468 2181.4396,-468 2175.4396,-468 2169.4396,-462 2169.4396,-456 2169.4396,-456 2169.4396,-444 2169.4396,-444 2169.4396,-438 2175.4396,-432 2181.4396,-432 2181.4396,-432 2487.4396,-432 2487.4396,-432 2493.4396,-432 2499.4396,-438 2499.4396,-444 2499.4396,-444 2499.4396,-456 2499.4396,-456 2499.4396,-462 2493.4396,-468 2487.4396,-468"/>
<text text-anchor="middle" x="2334.4396" y="-453" font-family="sans" font-size="10.00" fill="#000000">count_barcodes</text>
<text text-anchor="middle" x="2334.4396" y="-442" font-family="sans" font-size="10.00" fill="#000000">library_sample: LibB_2022&#45;03&#45;02_thaw&#45;3_no&#45;antibody_control_2</text>
</g>
<!-- 2&#45;&gt;36 -->
<g id="edge66" class="edge">
<title>2&#45;&gt;36</title>
<path fill="none" stroke="#c0c0c0" stroke-width="2" d="M5721.1565,-521.6946C5332.2152,-519.6203 3172.3175,-506.5038 2513.4396,-468 2512.3094,-467.9339 2511.1752,-467.8662 2510.0375,-467.7967"/>
<polygon fill="#c0c0c0" stroke="#c0c0c0" stroke-width="2" points="2509.9169,-464.2816 2499.7116,-467.1279 2509.4644,-471.267 2509.9169,-464.2816"/>
</g>
<!-- 2&#45;&gt;37 -->
<g id="edge69" class="edge">
<title>2&#45;&gt;37</title>
<path fill="none" stroke="#c0c0c0" stroke-width="2" d="M5841.4451,-521.8869C6384.3231,-520.7955 10428.7171,-511.2172 10471.4396,-468 10554.0508,-384.4321 10344.8069,-323.8591 10391.4396,-216 10410.6341,-171.6042 10454.0236,-135.6351 10486.2584,-113.6625"/>
<polygon fill="#c0c0c0" stroke="#c0c0c0" stroke-width="2" points="10488.2181,-116.5626 10494.6076,-108.1112 10484.3424,-110.7334 10488.2181,-116.5626"/>
</g>
<!-- 40 -->
<g id="node41" class="node">
<title>40</title>
<path fill="none" stroke="#56d86b" stroke-width="2" d="M10526.4396,-252C10526.4396,-252 10412.4396,-252 10412.4396,-252 10406.4396,-252 10400.4396,-246 10400.4396,-240 10400.4396,-240 10400.4396,-228 10400.4396,-228 10400.4396,-222 10406.4396,-216 10412.4396,-216 10412.4396,-216 10526.4396,-216 10526.4396,-216 10532.4396,-216 10538.4396,-222 10538.4396,-228 10538.4396,-228 10538.4396,-240 10538.4396,-240 10538.4396,-246 10532.4396,-252 10526.4396,-252"/>
<text text-anchor="middle" x="10469.4396" y="-237" font-family="sans" font-size="10.00" fill="#000000">make_nblink</text>
<text text-anchor="middle" x="10469.4396" y="-226" font-family="sans" font-size="10.00" fill="#000000">nb: build_codon_variants</text>
</g>
<!-- 2&#45;&gt;40 -->
<g id="edge82" class="edge">
<title>2&#45;&gt;40</title>
<path fill="none" stroke="#c0c0c0" stroke-width="2" d="M5841.8673,-521.891C6388.5649,-520.8361 10461.4148,-511.5196 10504.4396,-468 10559.515,-412.2914 10513.1092,-309.723 10485.8557,-261.0279"/>
<polygon fill="#c0c0c0" stroke="#c0c0c0" stroke-width="2" points="10488.868,-259.245 10480.8573,-252.3112 10482.7956,-262.7272 10488.868,-259.245"/>
</g>
<!-- 2&#45;&gt;44 -->
<g id="edge87" class="edge">
<title>2&#45;&gt;44</title>
<path fill="none" stroke="#c0c0c0" stroke-width="2" d="M5841.6387,-521.7678C6388.4605,-519.6057 10477.3622,-502.2975 10528.4396,-468 10564.4864,-443.7953 10566.4396,-421.4193 10566.4396,-378 10566.4396,-378 10566.4396,-378 10566.4396,-306 10566.4396,-265.876 10566.4396,-219.4631 10566.4396,-190.4177"/>
<polygon fill="#c0c0c0" stroke="#c0c0c0" stroke-width="2" points="10569.9397,-190.1853 10566.4396,-180.1854 10562.9397,-190.1854 10569.9397,-190.1853"/>
</g>
<!-- 2&#45;&gt;46 -->
<g id="edge101" class="edge">
<title>2&#45;&gt;46</title>
<path fill="none" stroke="#c0c0c0" stroke-width="2" d="M5721.2816,-521.7266C5109.3752,-518.9116 34.9545,-494.7641 8.4396,-468 -2.821,-456.6335 -2.8022,-443.3851 8.4396,-432 101.5293,-337.7241 9159.3068,-308.4135 9910.0451,-306.1456"/>
<polygon fill="#c0c0c0" stroke="#c0c0c0" stroke-width="2" points="9910.2571,-309.645 9920.2465,-306.1149 9910.236,-302.6451 9910.2571,-309.645"/>
</g>
<!-- 3 -->
<g id="node4" class="node">
<title>3</title>
<path fill="none" stroke="#56d8b9" stroke-width="2" d="M10801.4396,-612C10801.4396,-612 10691.4396,-612 10691.4396,-612 10685.4396,-612 10679.4396,-606 10679.4396,-600 10679.4396,-600 10679.4396,-588 10679.4396,-588 10679.4396,-582 10685.4396,-576 10691.4396,-576 10691.4396,-576 10801.4396,-576 10801.4396,-576 10807.4396,-576 10813.4396,-582 10813.4396,-588 10813.4396,-588 10813.4396,-600 10813.4396,-600 10813.4396,-606 10807.4396,-612 10801.4396,-612"/>
<text text-anchor="middle" x="10746.4396" y="-591.5" font-family="sans" font-size="10.00" fill="#000000">build_pacbio_consensus</text>
</g>
<!-- 3&#45;&gt;2 -->
<g id="edge32" class="edge">
<title>3&#45;&gt;2</title>
<path fill="none" stroke="#c0c0c0" stroke-width="2" d="M10679.0779,-593.0232C10131.2055,-585.0782 6412.1563,-531.1463 5852.0211,-523.0235"/>
<polygon fill="#c0c0c0" stroke="#c0c0c0" stroke-width="2" points="5851.7245,-519.519 5841.6747,-522.8735 5851.6229,-526.5182 5851.7245,-519.519"/>
</g>
<!-- 3&#45;&gt;37 -->
<g id="edge68" class="edge">
<title>3&#45;&gt;37</title>
<path fill="none" stroke="#c0c0c0" stroke-width="2" d="M10813.6274,-588.7213C10897.0371,-578.077 11028.4396,-546.0635 11028.4396,-450 11028.4396,-450 11028.4396,-450 11028.4396,-234 11028.4396,-192.6022 11035.801,-171.023 11004.4396,-144 10972.2848,-116.2933 10690.2647,-98.5871 10574.6043,-92.4316"/>
<polygon fill="#c0c0c0" stroke="#c0c0c0" stroke-width="2" points="10574.7679,-88.9355 10564.5981,-91.9059 10574.4006,-95.9258 10574.7679,-88.9355"/>
</g>
<!-- 39 -->
<g id="node40" class="node">
<title>39</title>
<path fill="none" stroke="#56d86b" stroke-width="2" d="M10950.4396,-252C10950.4396,-252 10822.4396,-252 10822.4396,-252 10816.4396,-252 10810.4396,-246 10810.4396,-240 10810.4396,-240 10810.4396,-228 10810.4396,-228 10810.4396,-222 10816.4396,-216 10822.4396,-216 10822.4396,-216 10950.4396,-216 10950.4396,-216 10956.4396,-216 10962.4396,-222 10962.4396,-228 10962.4396,-228 10962.4396,-240 10962.4396,-240 10962.4396,-246 10956.4396,-252 10950.4396,-252"/>
<text text-anchor="middle" x="10886.4396" y="-237" font-family="sans" font-size="10.00" fill="#000000">make_nblink</text>
<text text-anchor="middle" x="10886.4396" y="-226" font-family="sans" font-size="10.00" fill="#000000">nb: build_pacbio_consensus</text>
</g>
<!-- 3&#45;&gt;39 -->
<g id="edge81" class="edge">
<title>3&#45;&gt;39</title>
<path fill="none" stroke="#c0c0c0" stroke-width="2" d="M10756.4071,-575.9772C10770.2035,-549.2973 10793.4396,-497.3363 10793.4396,-450 10793.4396,-450 10793.4396,-450 10793.4396,-378 10793.4396,-330.1228 10830.1662,-285.5525 10857.46,-259.04"/>
<polygon fill="#c0c0c0" stroke="#c0c0c0" stroke-width="2" points="10859.9952,-261.4601 10864.8698,-252.0532 10855.193,-256.3671 10859.9952,-261.4601"/>
</g>
<!-- 3&#45;&gt;44 -->
<g id="edge86" class="edge">
<title>3&#45;&gt;44</title>
<path fill="none" stroke="#c0c0c0" stroke-width="2" d="M10721.529,-575.8707C10690.7616,-551.171 10642.4396,-503.8129 10642.4396,-450 10642.4396,-450 10642.4396,-450 10642.4396,-306 10642.4396,-264.6022 10638.7779,-252.0574 10618.4396,-216 10612.5051,-205.4787 10604.0387,-195.4885 10595.6563,-187.0273"/>
<polygon fill="#c0c0c0" stroke="#c0c0c0" stroke-width="2" points="10598.006,-184.4309 10588.3774,-180.0103 10593.1477,-189.4705 10598.006,-184.4309"/>
</g>
<!-- 4 -->
<g id="node5" class="node">
<title>4</title>
<path fill="none" stroke="#b6d856" stroke-width="2" d="M11133.9396,-684C11133.9396,-684 11044.9396,-684 11044.9396,-684 11038.9396,-684 11032.9396,-678 11032.9396,-672 11032.9396,-672 11032.9396,-660 11032.9396,-660 11032.9396,-654 11038.9396,-648 11044.9396,-648 11044.9396,-648 11133.9396,-648 11133.9396,-648 11139.9396,-648 11145.9396,-654 11145.9396,-660 11145.9396,-660 11145.9396,-672 11145.9396,-672 11145.9396,-678 11139.9396,-684 11133.9396,-684"/>
<text text-anchor="middle" x="11089.4396" y="-663.5" font-family="sans" font-size="10.00" fill="#000000">analyze_pacbio_ccs</text>
</g>
<!-- 4&#45;&gt;3 -->
<g id="edge34" class="edge">
<title>4&#45;&gt;3</title>
<path fill="none" stroke="#c0c0c0" stroke-width="2" d="M11032.8002,-654.1107C10975.6358,-642.1111 10886.9618,-623.4974 10823.438,-610.1629"/>
<polygon fill="#c0c0c0" stroke="#c0c0c0" stroke-width="2" points="10823.9732,-606.6991 10813.4674,-608.07 10822.5351,-613.5498 10823.9732,-606.6991"/>
</g>
<!-- 4&#45;&gt;37 -->
<g id="edge67" class="edge">
<title>4&#45;&gt;37</title>
<path fill="none" stroke="#c0c0c0" stroke-width="2" d="M11121.8157,-647.9756C11159.4426,-624.366 11216.4396,-579.1674 11216.4396,-522 11216.4396,-522 11216.4396,-522 11216.4396,-234 11216.4396,-199.0771 11284.3457,-212.3295 11077.4396,-144 10984.6905,-113.3702 10692.2699,-97.3739 10574.9023,-92.054"/>
<polygon fill="#c0c0c0" stroke="#c0c0c0" stroke-width="2" points="10574.9103,-88.5509 10564.7641,-91.6014 10574.598,-95.544 10574.9103,-88.5509"/>
</g>
<!-- 38 -->
<g id="node39" class="node">
<title>38</title>
<path fill="none" stroke="#56d86b" stroke-width="2" d="M11175.9396,-252C11175.9396,-252 11068.9396,-252 11068.9396,-252 11062.9396,-252 11056.9396,-246 11056.9396,-240 11056.9396,-240 11056.9396,-228 11056.9396,-228 11056.9396,-222 11062.9396,-216 11068.9396,-216 11068.9396,-216 11175.9396,-216 11175.9396,-216 11181.9396,-216 11187.9396,-222 11187.9396,-228 11187.9396,-228 11187.9396,-240 11187.9396,-240 11187.9396,-246 11181.9396,-252 11175.9396,-252"/>
<text text-anchor="middle" x="11122.4396" y="-237" font-family="sans" font-size="10.00" fill="#000000">make_nblink</text>
<text text-anchor="middle" x="11122.4396" y="-226" font-family="sans" font-size="10.00" fill="#000000">nb: analyze_pacbio_ccs</text>
</g>
<!-- 4&#45;&gt;38 -->
<g id="edge80" class="edge">
<title>4&#45;&gt;38</title>
<path fill="none" stroke="#c0c0c0" stroke-width="2" d="M11094.4124,-647.9753C11101.4422,-620.864 11113.4396,-567.8742 11113.4396,-522 11113.4396,-522 11113.4396,-522 11113.4396,-378 11113.4396,-337.7977 11116.9771,-291.4047 11119.6165,-262.385"/>
<polygon fill="#c0c0c0" stroke="#c0c0c0" stroke-width="2" points="11123.126,-262.4457 11120.5748,-252.1626 11116.1566,-261.7923 11123.126,-262.4457"/>
</g>
<!-- 4&#45;&gt;44 -->
<g id="edge85" class="edge">
<title>4&#45;&gt;44</title>
<path fill="none" stroke="#c0c0c0" stroke-width="2" d="M11084.674,-647.9623C11077.9372,-620.8344 11066.4396,-567.8236 11066.4396,-522 11066.4396,-522 11066.4396,-522 11066.4396,-450 11066.4396,-265.0556 10858.7183,-347.6676 10700.4396,-252 10665.597,-230.9403 10627.1461,-204.7989 10600.4031,-186.1256"/>
<polygon fill="#c0c0c0" stroke="#c0c0c0" stroke-width="2" points="10602.3487,-183.2152 10592.1511,-180.3412 10598.3307,-188.9472 10602.3487,-183.2152"/>
</g>
<!-- 5 -->
<g id="node6" class="node">
<title>5</title>
<path fill="none" stroke="#56d0d8" stroke-width="2" d="M10915.9396,-756C10915.9396,-756 10804.9396,-756 10804.9396,-756 10798.9396,-756 10792.9396,-750 10792.9396,-744 10792.9396,-744 10792.9396,-732 10792.9396,-732 10792.9396,-726 10798.9396,-720 10804.9396,-720 10804.9396,-720 10915.9396,-720 10915.9396,-720 10921.9396,-720 10927.9396,-726 10927.9396,-732 10927.9396,-732 10927.9396,-744 10927.9396,-744 10927.9396,-750 10921.9396,-756 10915.9396,-756"/>
<text text-anchor="middle" x="10860.4396" y="-741" font-family="sans" font-size="10.00" fill="#000000">align_parse_PacBio_ccs</text>
<text text-anchor="middle" x="10860.4396" y="-730" font-family="sans" font-size="10.00" fill="#000000">pacbioRun: LibA_211105</text>
</g>
<!-- 5&#45;&gt;4 -->
<g id="edge36" class="edge">
<title>5&#45;&gt;4</title>
<path fill="none" stroke="#c0c0c0" stroke-width="2" d="M10917.9304,-719.9243C10949.8855,-709.8773 10989.7942,-697.3296 11023.0717,-686.8668"/>
<polygon fill="#c0c0c0" stroke="#c0c0c0" stroke-width="2" points="11024.2288,-690.172 11032.7186,-683.8337 11022.1292,-683.4943 11024.2288,-690.172"/>
</g>
<!-- 6 -->
<g id="node7" class="node">
<title>6</title>
<path fill="none" stroke="#56d0d8" stroke-width="2" d="M11068.9396,-756C11068.9396,-756 10957.9396,-756 10957.9396,-756 10951.9396,-756 10945.9396,-750 10945.9396,-744 10945.9396,-744 10945.9396,-732 10945.9396,-732 10945.9396,-726 10951.9396,-720 10957.9396,-720 10957.9396,-720 11068.9396,-720 11068.9396,-720 11074.9396,-720 11080.9396,-726 11080.9396,-732 11080.9396,-732 11080.9396,-744 11080.9396,-744 11080.9396,-750 11074.9396,-756 11068.9396,-756"/>
<text text-anchor="middle" x="11013.4396" y="-741" font-family="sans" font-size="10.00" fill="#000000">align_parse_PacBio_ccs</text>
<text text-anchor="middle" x="11013.4396" y="-730" font-family="sans" font-size="10.00" fill="#000000">pacbioRun: LibB_211105</text>
</g>
<!-- 6&#45;&gt;4 -->
<g id="edge37" class="edge">
<title>6&#45;&gt;4</title>
<path fill="none" stroke="#c0c0c0" stroke-width="2" d="M11032.6176,-719.8314C11041.7985,-711.1337 11052.9403,-700.5783 11062.9172,-691.1265"/>
<polygon fill="#c0c0c0" stroke="#c0c0c0" stroke-width="2" points="11065.4153,-693.5811 11070.2678,-684.1628 11060.6011,-688.4995 11065.4153,-693.5811"/>
</g>
<!-- 7 -->
<g id="node8" class="node">
<title>7</title>
<path fill="none" stroke="#56d0d8" stroke-width="2" d="M11221.9396,-756C11221.9396,-756 11110.9396,-756 11110.9396,-756 11104.9396,-756 11098.9396,-750 11098.9396,-744 11098.9396,-744 11098.9396,-732 11098.9396,-732 11098.9396,-726 11104.9396,-720 11110.9396,-720 11110.9396,-720 11221.9396,-720 11221.9396,-720 11227.9396,-720 11233.9396,-726 11233.9396,-732 11233.9396,-732 11233.9396,-744 11233.9396,-744 11233.9396,-750 11227.9396,-756 11221.9396,-756"/>
<text text-anchor="middle" x="11166.4396" y="-741" font-family="sans" font-size="10.00" fill="#000000">align_parse_PacBio_ccs</text>
<text text-anchor="middle" x="11166.4396" y="-730" font-family="sans" font-size="10.00" fill="#000000">pacbioRun: LibA_220124</text>
</g>
<!-- 7&#45;&gt;4 -->
<g id="edge38" class="edge">
<title>7&#45;&gt;4</title>
<path fill="none" stroke="#c0c0c0" stroke-width="2" d="M11147.0093,-719.8314C11137.7077,-711.1337 11126.4192,-700.5783 11116.311,-691.1265"/>
<polygon fill="#c0c0c0" stroke="#c0c0c0" stroke-width="2" points="11118.5585,-688.4363 11108.8638,-684.1628 11113.7775,-693.5493 11118.5585,-688.4363"/>
</g>
<!-- 8 -->
<g id="node9" class="node">
<title>8</title>
<path fill="none" stroke="#56d0d8" stroke-width="2" d="M11374.9396,-756C11374.9396,-756 11263.9396,-756 11263.9396,-756 11257.9396,-756 11251.9396,-750 11251.9396,-744 11251.9396,-744 11251.9396,-732 11251.9396,-732 11251.9396,-726 11257.9396,-720 11263.9396,-720 11263.9396,-720 11374.9396,-720 11374.9396,-720 11380.9396,-720 11386.9396,-726 11386.9396,-732 11386.9396,-732 11386.9396,-744 11386.9396,-744 11386.9396,-750 11380.9396,-756 11374.9396,-756"/>
<text text-anchor="middle" x="11319.4396" y="-741" font-family="sans" font-size="10.00" fill="#000000">align_parse_PacBio_ccs</text>
<text text-anchor="middle" x="11319.4396" y="-730" font-family="sans" font-size="10.00" fill="#000000">pacbioRun: LibB_220124</text>
</g>
<!-- 8&#45;&gt;4 -->
<g id="edge39" class="edge">
<title>8&#45;&gt;4</title>
<path fill="none" stroke="#c0c0c0" stroke-width="2" d="M11261.6978,-719.9243C11229.482,-709.8394 11189.2175,-697.2348 11155.7192,-686.7484"/>
<polygon fill="#c0c0c0" stroke="#c0c0c0" stroke-width="2" points="11156.6002,-683.3567 11146.0112,-683.7094 11154.5089,-690.0371 11156.6002,-683.3567"/>
</g>
<!-- 9 -->
<g id="node10" class="node">
<title>9</title>
<path fill="none" stroke="#d8a456" stroke-width="2" d="M10638.4396,-684C10638.4396,-684 10570.4396,-684 10570.4396,-684 10564.4396,-684 10558.4396,-678 10558.4396,-672 10558.4396,-672 10558.4396,-660 10558.4396,-660 10558.4396,-654 10564.4396,-648 10570.4396,-648 10570.4396,-648 10638.4396,-648 10638.4396,-648 10644.4396,-648 10650.4396,-654 10650.4396,-660 10650.4396,-660 10650.4396,-672 10650.4396,-672 10650.4396,-678 10644.4396,-684 10638.4396,-684"/>
<text text-anchor="middle" x="10604.4396" y="-663.5" font-family="sans" font-size="10.00" fill="#000000">gene_sequence</text>
</g>
<!-- 9&#45;&gt;0 -->
<g id="edge29" class="edge">
<title>9&#45;&gt;0</title>
<path fill="none" stroke="#c0c0c0" stroke-width="2" d="M10558.2269,-665.5846C9805.4607,-658.7663 107.5289,-568.9827 8.4396,-468 -2.7665,-456.5797 -2.821,-443.3665 8.4396,-432 35.0324,-405.1574 5139.1979,-380.9467 5726.5526,-378.2492"/>
<polygon fill="#c0c0c0" stroke="#c0c0c0" stroke-width="2" points="5726.8764,-381.7479 5736.8602,-378.202 5726.8442,-374.7479 5726.8764,-381.7479"/>
</g>
<!-- 9&#45;&gt;2 -->
<g id="edge33" class="edge">
<title>9&#45;&gt;2</title>
<path fill="none" stroke="#c0c0c0" stroke-width="2" d="M10558.2513,-664.621C10102.1729,-651.0039 6410.3726,-540.778 5852.0636,-524.1086"/>
<polygon fill="#c0c0c0" stroke="#c0c0c0" stroke-width="2" points="5851.8491,-520.6007 5841.7491,-523.8007 5851.6402,-527.5976 5851.8491,-520.6007"/>
</g>
<!-- 9&#45;&gt;3 -->
<g id="edge35" class="edge">
<title>9&#45;&gt;3</title>
<path fill="none" stroke="#c0c0c0" stroke-width="2" d="M10640.2722,-647.8314C10658.8553,-638.4089 10681.7385,-626.8062 10701.4961,-616.7883"/>
<polygon fill="#c0c0c0" stroke="#c0c0c0" stroke-width="2" points="10703.2823,-619.8069 10710.6185,-612.1628 10700.1166,-613.5635 10703.2823,-619.8069"/>
</g>
<!-- 9&#45;&gt;37 -->
<g id="edge71" class="edge">
<title>9&#45;&gt;37</title>
<path fill="none" stroke="#c0c0c0" stroke-width="2" d="M10650.6168,-658.8053C10753.0736,-641.54 10990.4396,-593.7935 10990.4396,-522 10990.4396,-522 10990.4396,-522 10990.4396,-234 10990.4396,-147.6733 10694.3036,-107.4225 10574.6823,-94.6851"/>
<polygon fill="#c0c0c0" stroke="#c0c0c0" stroke-width="2" points="10574.994,-91.1987 10564.6845,-93.641 10574.2669,-98.1608 10574.994,-91.1987"/>
</g>
<!-- 9&#45;&gt;44 -->
<g id="edge89" class="edge">
<title>9&#45;&gt;44</title>
<path fill="none" stroke="#c0c0c0" stroke-width="2" d="M10604.4396,-647.8146C10604.4396,-620.4983 10604.4396,-567.25 10604.4396,-522 10604.4396,-522 10604.4396,-522 10604.4396,-306 10604.4396,-264.3681 10589.4068,-218.14 10578.2515,-189.567"/>
<polygon fill="#c0c0c0" stroke="#c0c0c0" stroke-width="2" points="10581.4765,-188.2055 10574.4984,-180.2332 10574.9818,-190.817 10581.4765,-188.2055"/>
</g>
<!-- 10&#45;&gt;0 -->
<g id="edge2" class="edge">
<title>10&#45;&gt;0</title>
<path fill="none" stroke="#c0c0c0" stroke-width="2" d="M3316.0202,-432.5035C3318.8457,-432.3277 3321.6536,-432.1597 3324.4396,-432 3814.5911,-403.9098 5409.0941,-382.6842 5726.2789,-378.682"/>
<polygon fill="#c0c0c0" stroke="#c0c0c0" stroke-width="2" points="5726.6337,-382.1779 5736.5889,-378.5523 5726.5456,-375.1785 5726.6337,-382.1779"/>
</g>
<!-- 11&#45;&gt;0 -->
<g id="edge3" class="edge">
<title>11&#45;&gt;0</title>
<path fill="none" stroke="#c0c0c0" stroke-width="2" d="M3704.9446,-432.5864C3708.1332,-432.3815 3711.3003,-432.1857 3714.4396,-432 4122.618,-407.8556 5441.1713,-383.9205 5726.6151,-378.9419"/>
<polygon fill="#c0c0c0" stroke="#c0c0c0" stroke-width="2" points="5726.783,-382.4396 5736.7205,-378.766 5726.6611,-375.4406 5726.783,-382.4396"/>
</g>
<!-- 12&#45;&gt;0 -->
<g id="edge4" class="edge">
<title>12&#45;&gt;0</title>
<path fill="none" stroke="#c0c0c0" stroke-width="2" d="M4059.5827,-432.6143C4062.5575,-432.3999 4065.5118,-432.1948 4068.4396,-432 4719.872,-388.6617 5513.044,-379.9443 5726.4127,-378.338"/>
<polygon fill="#c0c0c0" stroke="#c0c0c0" stroke-width="2" points="5726.7456,-381.8357 5736.7197,-378.2626 5726.6943,-374.8359 5726.7456,-381.8357"/>
</g>
<!-- 13&#45;&gt;0 -->
<g id="edge5" class="edge">
<title>13&#45;&gt;0</title>
<path fill="none" stroke="#c0c0c0" stroke-width="2" d="M4449.0247,-432.577C4451.8488,-432.3784 4454.6552,-432.1858 4457.4396,-432 4949.437,-399.1643 5545.7073,-383.4583 5726.7489,-379.2161"/>
<polygon fill="#c0c0c0" stroke="#c0c0c0" stroke-width="2" points="5726.9033,-382.7135 5736.8192,-378.9819 5726.7405,-375.7154 5726.9033,-382.7135"/>
</g>
<!-- 14&#45;&gt;0 -->
<g id="edge6" class="edge">
<title>14&#45;&gt;0</title>
<path fill="none" stroke="#c0c0c0" stroke-width="2" d="M4838.0294,-432.6432C4840.8521,-432.424 4843.6569,-432.2094 4846.4396,-432 5180.1996,-406.886 5581.7529,-387.2453 5726.2754,-380.5138"/>
<polygon fill="#c0c0c0" stroke="#c0c0c0" stroke-width="2" points="5726.8106,-383.9928 5736.6375,-380.0328 5726.4859,-377.0003 5726.8106,-383.9928"/>
</g>
<!-- 15&#45;&gt;0 -->
<g id="edge7" class="edge">
<title>15&#45;&gt;0</title>
<path fill="none" stroke="#c0c0c0" stroke-width="2" d="M5226.7407,-431.9707C5391.845,-415.9065 5622.9417,-393.4214 5726.94,-383.3027"/>
<polygon fill="#c0c0c0" stroke="#c0c0c0" stroke-width="2" points="5727.2854,-386.7857 5736.8994,-382.3336 5726.6075,-379.8186 5727.2854,-386.7857"/>
</g>
<!-- 16&#45;&gt;0 -->
<g id="edge8" class="edge">
<title>16&#45;&gt;0</title>
<path fill="none" stroke="#c0c0c0" stroke-width="2" d="M5505.8266,-431.9243C5575.3201,-418.3277 5668.2212,-400.1514 5726.442,-388.7604"/>
<polygon fill="#c0c0c0" stroke="#c0c0c0" stroke-width="2" points="5727.3995,-392.1395 5736.5414,-386.7844 5726.0554,-385.2698 5727.3995,-392.1395"/>
</g>
<!-- 17&#45;&gt;0 -->
<g id="edge9" class="edge">
<title>17&#45;&gt;0</title>
<path fill="none" stroke="#c0c0c0" stroke-width="2" d="M5781.4396,-431.8314C5781.4396,-424.131 5781.4396,-414.9743 5781.4396,-406.4166"/>
<polygon fill="#c0c0c0" stroke="#c0c0c0" stroke-width="2" points="5784.9397,-406.4132 5781.4396,-396.4133 5777.9397,-406.4133 5784.9397,-406.4132"/>
</g>
<!-- 18&#45;&gt;0 -->
<g id="edge10" class="edge">
<title>18&#45;&gt;0</title>
<path fill="none" stroke="#c0c0c0" stroke-width="2" d="M6068.2869,-431.9243C5994.9731,-418.1421 5896.6278,-399.6542 5836.2171,-388.2976"/>
<polygon fill="#c0c0c0" stroke="#c0c0c0" stroke-width="2" points="5836.6002,-384.8084 5826.1256,-386.4005 5835.3068,-391.6879 5836.6002,-384.8084"/>
</g>
<!-- 19&#45;&gt;0 -->
<g id="edge11" class="edge">
<title>19&#45;&gt;0</title>
<path fill="none" stroke="#c0c0c0" stroke-width="2" d="M6364.9367,-432.8457C6192.6053,-416.6474 5944.8532,-393.36 5836.1146,-383.1392"/>
<polygon fill="#c0c0c0" stroke="#c0c0c0" stroke-width="2" points="5836.3163,-379.6428 5826.0326,-382.1915 5835.6612,-386.6121 5836.3163,-379.6428"/>
</g>
<!-- 20&#45;&gt;0 -->
<g id="edge12" class="edge">
<title>20&#45;&gt;0</title>
<path fill="none" stroke="#c0c0c0" stroke-width="2" d="M6747.7806,-432.7149C6744.6435,-432.4704 6741.5278,-432.2318 6738.4396,-432 6395.6954,-406.2729 5983.0596,-386.9087 5836.4163,-380.387"/>
<polygon fill="#c0c0c0" stroke="#c0c0c0" stroke-width="2" points="5836.4674,-376.8859 5826.3223,-379.9397 5836.1575,-383.879 5836.4674,-376.8859"/>
</g>
<!-- 21&#45;&gt;0 -->
<g id="edge13" class="edge">
<title>21&#45;&gt;0</title>
<path fill="none" stroke="#c0c0c0" stroke-width="2" d="M7130.7855,-432.6456C7127.6469,-432.4225 7124.5296,-432.207 7121.4396,-432 6622.9446,-398.6125 6018.6453,-383.256 5836.1654,-379.1612"/>
<polygon fill="#c0c0c0" stroke="#c0c0c0" stroke-width="2" points="5836.0943,-375.6588 5826.0189,-378.9354 5835.9385,-382.6571 5836.0943,-375.6588"/>
</g>
<!-- 22&#45;&gt;0 -->
<g id="edge14" class="edge">
<title>22&#45;&gt;0</title>
<path fill="none" stroke="#c0c0c0" stroke-width="2" d="M7513.788,-432.6071C7510.6486,-432.3958 7507.5305,-432.1931 7504.4396,-432 6848.3452,-391.0041 6049.668,-380.6041 5836.0991,-378.4773"/>
<polygon fill="#c0c0c0" stroke="#c0c0c0" stroke-width="2" points="5836.1139,-374.9774 5826.0801,-378.3794 5836.0454,-381.9771 5836.1139,-374.9774"/>
</g>
<!-- 23&#45;&gt;0 -->
<g id="edge15" class="edge">
<title>23&#45;&gt;0</title>
<path fill="none" stroke="#c0c0c0" stroke-width="2" d="M7896.6959,-432.595C7893.587,-432.3865 7890.4995,-432.1878 7887.4396,-432 7471.1701,-406.4449 6125.2277,-383.5663 5836.3587,-378.8763"/>
<polygon fill="#c0c0c0" stroke="#c0c0c0" stroke-width="2" points="5836.1927,-375.3732 5826.1373,-378.7107 5836.0793,-382.3723 5836.1927,-375.3732"/>
</g>
<!-- 24&#45;&gt;0 -->
<g id="edge16" class="edge">
<title>24&#45;&gt;0</title>
<path fill="none" stroke="#c0c0c0" stroke-width="2" d="M8265.6969,-432.5788C8262.5877,-432.3753 8259.4998,-432.182 8256.4396,-432 7762.4961,-402.6235 6154.8003,-382.4058 5836.4927,-378.637"/>
<polygon fill="#c0c0c0" stroke="#c0c0c0" stroke-width="2" points="5836.1898,-375.1333 5826.1492,-378.515 5836.1072,-382.1328 5836.1898,-375.1333"/>
</g>
<!-- 25&#45;&gt;0 -->
<g id="edge17" class="edge">
<title>25&#45;&gt;0</title>
<path fill="none" stroke="#c0c0c0" stroke-width="2" d="M8634.6976,-432.5667C8631.5882,-432.3669 8628.5001,-432.1777 8625.4396,-432 8053.314,-398.786 6180.9241,-381.411 5836.2359,-378.4558"/>
<polygon fill="#c0c0c0" stroke="#c0c0c0" stroke-width="2" points="5836.0475,-374.9541 5826.0179,-378.3686 5835.9877,-381.9539 5836.0475,-374.9541"/>
</g>
<!-- 26&#45;&gt;0 -->
<g id="edge18" class="edge">
<title>26&#45;&gt;0</title>
<path fill="none" stroke="#c0c0c0" stroke-width="2" d="M9003.6982,-432.5574C9000.5886,-432.3605 8997.5003,-432.1743 8994.4396,-432 8343.9684,-394.9491 6205.8669,-380.5558 5836.1463,-378.3178"/>
<polygon fill="#c0c0c0" stroke="#c0c0c0" stroke-width="2" points="5835.9979,-374.8169 5825.977,-378.2566 5835.9558,-381.8168 5835.9979,-374.8169"/>
</g>
<!-- 27&#45;&gt;0 -->
<g id="edge19" class="edge">
<title>27&#45;&gt;0</title>
<path fill="none" stroke="#c0c0c0" stroke-width="2" d="M9372.6986,-432.5501C9369.5888,-432.3554 9366.5004,-432.1717 9363.4396,-432 8634.6224,-391.1193 6230.7258,-379.8069 5836.3933,-378.2097"/>
<polygon fill="#c0c0c0" stroke="#c0c0c0" stroke-width="2" points="5836.1274,-374.7087 5826.1134,-378.1684 5836.0992,-381.7086 5836.1274,-374.7087"/>
</g>
<!-- 28&#45;&gt;0 -->
<g id="edge20" class="edge">
<title>28&#45;&gt;0</title>
<path fill="none" stroke="#c0c0c0" stroke-width="2" d="M9741.6989,-432.5441C9738.5891,-432.3513 9735.5006,-432.1695 9732.4396,-432 8924.9486,-387.2764 6253.3583,-379.1285 5836.3764,-378.1204"/>
<polygon fill="#c0c0c0" stroke="#c0c0c0" stroke-width="2" points="5836.1085,-374.6198 5826.1001,-378.0959 5836.0917,-381.6198 5836.1085,-374.6198"/>
</g>
<!-- 29&#45;&gt;0 -->
<g id="edge21" class="edge">
<title>29&#45;&gt;0</title>
<path fill="none" stroke="#c0c0c0" stroke-width="2" d="M10110.6734,-432.4788C10107.9098,-432.3099 10105.1637,-432.15 10102.4396,-432 9215.8734,-383.1842 6274.668,-378.4747 5836.2842,-378.0421"/>
<polygon fill="#c0c0c0" stroke="#c0c0c0" stroke-width="2" points="5836.1036,-374.542 5826.1002,-378.0324 5836.0968,-381.542 5836.1036,-374.542"/>
</g>
<!-- 30&#45;&gt;0 -->
<g id="edge22" class="edge">
<title>30&#45;&gt;0</title>
<path fill="none" stroke="#c0c0c0" stroke-width="2" d="M369.2054,-432.4692C371.9691,-432.3033 374.7153,-432.1466 377.4396,-432 939.356,-401.7656 5194.0546,-380.7744 5726.727,-378.2549"/>
<polygon fill="#c0c0c0" stroke="#c0c0c0" stroke-width="2" points="5726.8536,-381.7544 5736.8369,-378.2072 5726.8205,-374.7545 5726.8536,-381.7544"/>
</g>
<!-- 31&#45;&gt;0 -->
<g id="edge23" class="edge">
<title>31&#45;&gt;0</title>
<path fill="none" stroke="#c0c0c0" stroke-width="2" d="M738.2055,-432.472C740.9692,-432.3052 743.7154,-432.1476 746.4396,-432 1268.6326,-403.7112 5213.7742,-381.1264 5726.561,-378.2986"/>
<polygon fill="#c0c0c0" stroke="#c0c0c0" stroke-width="2" points="5726.6789,-381.7981 5736.6595,-378.243 5726.6404,-374.7982 5726.6789,-381.7981"/>
</g>
<!-- 32&#45;&gt;0 -->
<g id="edge24" class="edge">
<title>32&#45;&gt;0</title>
<path fill="none" stroke="#c0c0c0" stroke-width="2" d="M1107.1798,-432.5352C1110.2898,-432.3451 1113.3785,-432.1663 1116.4396,-432 1599.0111,-405.7786 5236.6505,-381.5129 5726.8533,-378.3483"/>
<polygon fill="#c0c0c0" stroke="#c0c0c0" stroke-width="2" points="5726.88,-381.8483 5736.8572,-378.2838 5726.8348,-374.8484 5726.88,-381.8483"/>
</g>
<!-- 33&#45;&gt;0 -->
<g id="edge25" class="edge">
<title>33&#45;&gt;0</title>
<path fill="none" stroke="#c0c0c0" stroke-width="2" d="M1455.7271,-432.5361C1458.6532,-432.3457 1461.5593,-432.1667 1464.4396,-432 1909.5493,-406.2463 5256.4994,-381.7175 5726.6348,-378.384"/>
<polygon fill="#c0c0c0" stroke="#c0c0c0" stroke-width="2" points="5726.9113,-381.8822 5736.8862,-378.3114 5726.8617,-374.8824 5726.9113,-381.8822"/>
</g>
<!-- 34&#45;&gt;0 -->
<g id="edge26" class="edge">
<title>34&#45;&gt;0</title>
<path fill="none" stroke="#c0c0c0" stroke-width="2" d="M1803.7274,-432.5405C1806.6534,-432.3488 1809.5594,-432.1682 1812.4396,-432 2623.6829,-384.6158 5308.7598,-378.7071 5726.5797,-378.0703"/>
<polygon fill="#c0c0c0" stroke="#c0c0c0" stroke-width="2" points="5726.8801,-381.57 5736.8749,-378.055 5726.8696,-374.57 5726.8801,-381.57"/>
</g>
<!-- 35&#45;&gt;0 -->
<g id="edge27" class="edge">
<title>35&#45;&gt;0</title>
<path fill="none" stroke="#c0c0c0" stroke-width="2" d="M2151.7277,-432.5457C2154.6536,-432.3524 2157.5595,-432.1701 2160.4396,-432 2897.6349,-388.4573 5331.0044,-379.3562 5726.8072,-378.1525"/>
<polygon fill="#c0c0c0" stroke="#c0c0c0" stroke-width="2" points="5726.8633,-381.6524 5736.8527,-378.1223 5726.8422,-374.6524 5726.8633,-381.6524"/>
</g>
<!-- 36&#45;&gt;0 -->
<g id="edge28" class="edge">
<title>36&#45;&gt;0</title>
<path fill="none" stroke="#c0c0c0" stroke-width="2" d="M2499.7116,-432.8721C2504.3353,-432.5562 2508.9185,-432.2642 2513.4396,-432 3175.5,-393.3102 5353.1158,-380.2535 5726.6681,-378.2761"/>
<polygon fill="#c0c0c0" stroke="#c0c0c0" stroke-width="2" points="5726.7035,-381.776 5736.6849,-378.2234 5726.6666,-374.7761 5726.7035,-381.776"/>
</g>
<!-- 37&#45;&gt;45 -->
<g id="edge98" class="edge">
<title>37&#45;&gt;45</title>
<path fill="none" stroke="#c0c0c0" stroke-width="2" d="M10486.2821,-85.1641C10379.5292,-71.9802 10084.4183,-35.5342 9979.8059,-22.6147"/>
<polygon fill="#c0c0c0" stroke="#c0c0c0" stroke-width="2" points="9980.0707,-19.1209 9969.717,-21.3687 9979.2126,-26.0681 9980.0707,-19.1209"/>
</g>
<!-- 38&#45;&gt;37 -->
<g id="edge72" class="edge">
<title>38&#45;&gt;37</title>
<path fill="none" stroke="#c0c0c0" stroke-width="2" d="M11112.1257,-215.8469C11098.9622,-194.5896 11074.059,-160.2255 11042.4396,-144 10961.5622,-102.4977 10687.8009,-92.8742 10574.8252,-90.6574"/>
<polygon fill="#c0c0c0" stroke="#c0c0c0" stroke-width="2" points="10574.7883,-87.1562 10564.7253,-90.4707 10574.6588,-94.155 10574.7883,-87.1562"/>
</g>
<!-- 38&#45;&gt;44 -->
<g id="edge90" class="edge">
<title>38&#45;&gt;44</title>
<path fill="none" stroke="#c0c0c0" stroke-width="2" d="M11056.7503,-225.4935C10942.6601,-210.7192 10710.6745,-180.6779 10612.2448,-167.9316"/>
<polygon fill="#c0c0c0" stroke="#c0c0c0" stroke-width="2" points="10612.3961,-164.4221 10602.0294,-166.6087 10611.4971,-171.3641 10612.3961,-164.4221"/>
</g>
<!-- 39&#45;&gt;37 -->
<g id="edge73" class="edge">
<title>39&#45;&gt;37</title>
<path fill="none" stroke="#c0c0c0" stroke-width="2" d="M10841.0843,-215.9081C10772.8086,-188.6735 10644.17,-137.3606 10574.0378,-109.3854"/>
<polygon fill="#c0c0c0" stroke="#c0c0c0" stroke-width="2" points="10575.1276,-106.052 10564.5425,-105.5978 10572.5341,-112.5538 10575.1276,-106.052"/>
</g>
<!-- 39&#45;&gt;44 -->
<g id="edge91" class="edge">
<title>39&#45;&gt;44</title>
<path fill="none" stroke="#c0c0c0" stroke-width="2" d="M10810.1982,-216.8457C10748.5005,-202.9637 10663.6619,-183.875 10612.0678,-172.2663"/>
<polygon fill="#c0c0c0" stroke="#c0c0c0" stroke-width="2" points="10612.7334,-168.8287 10602.209,-170.0481 10611.1968,-175.6579 10612.7334,-168.8287"/>
</g>
<!-- 40&#45;&gt;37 -->
<g id="edge74" class="edge">
<title>40&#45;&gt;37</title>
<path fill="none" stroke="#c0c0c0" stroke-width="2" d="M10476.5321,-215.7623C10486.1678,-190.9846 10503.4785,-146.4714 10514.7087,-117.5939"/>
<polygon fill="#c0c0c0" stroke="#c0c0c0" stroke-width="2" points="10518.0423,-118.6783 10518.4048,-108.0896 10511.5182,-116.1411 10518.0423,-118.6783"/>
</g>
<!-- 40&#45;&gt;44 -->
<g id="edge92" class="edge">
<title>40&#45;&gt;44</title>
<path fill="none" stroke="#c0c0c0" stroke-width="2" d="M10493.9168,-215.8314C10505.9791,-206.8779 10520.6936,-195.9558 10533.7082,-186.2955"/>
<polygon fill="#c0c0c0" stroke="#c0c0c0" stroke-width="2" points="10536.0266,-188.9335 10541.9703,-180.1628 10531.8545,-183.3127 10536.0266,-188.9335"/>
</g>
<!-- 41&#45;&gt;37 -->
<g id="edge75" class="edge">
<title>41&#45;&gt;37</title>
<path fill="none" stroke="#c0c0c0" stroke-width="2" d="M10239.1202,-215.9295C10266.9814,-196.1732 10314.206,-164.5909 10358.4396,-144 10396.7824,-126.1514 10442.6393,-111.7832 10476.5909,-102.3682"/>
<polygon fill="#c0c0c0" stroke="#c0c0c0" stroke-width="2" points="10477.5517,-105.7341 10486.2786,-99.7263 10475.71,-98.9807 10477.5517,-105.7341"/>
</g>
<!-- 41&#45;&gt;44 -->
<g id="edge93" class="edge">
<title>41&#45;&gt;44</title>
<path fill="none" stroke="#c0c0c0" stroke-width="2" d="M10268.1745,-219.3998C10272.9876,-218.2061 10277.7952,-217.0549 10282.4396,-216 10366.0653,-197.0067 10464.5764,-179.3114 10520.8492,-169.6425"/>
<polygon fill="#c0c0c0" stroke="#c0c0c0" stroke-width="2" points="10521.5849,-173.0676 10530.8519,-167.932 10520.405,-166.1677 10521.5849,-173.0676"/>
</g>
<!-- 42 -->
<g id="node43" class="node">
<title>42</title>
<path fill="none" stroke="#56d86b" stroke-width="2" d="M10092.4396,-252C10092.4396,-252 10020.4396,-252 10020.4396,-252 10014.4396,-252 10008.4396,-246 10008.4396,-240 10008.4396,-240 10008.4396,-228 10008.4396,-228 10008.4396,-222 10014.4396,-216 10020.4396,-216 10020.4396,-216 10092.4396,-216 10092.4396,-216 10098.4396,-216 10104.4396,-222 10104.4396,-228 10104.4396,-228 10104.4396,-240 10104.4396,-240 10104.4396,-246 10098.4396,-252 10092.4396,-252"/>
<text text-anchor="middle" x="10056.4396" y="-237" font-family="sans" font-size="10.00" fill="#000000">make_nblink</text>
<text text-anchor="middle" x="10056.4396" y="-226" font-family="sans" font-size="10.00" fill="#000000">nb: prob_escape</text>
</g>
<!-- 42&#45;&gt;37 -->
<g id="edge76" class="edge">
<title>42&#45;&gt;37</title>
<path fill="none" stroke="#c0c0c0" stroke-width="2" d="M10063.5813,-215.6863C10072.8362,-194.6094 10091.0985,-160.7531 10118.4396,-144 10177.4598,-107.8358 10381.1869,-95.4637 10476.0809,-91.5983"/>
<polygon fill="#c0c0c0" stroke="#c0c0c0" stroke-width="2" points="10476.4254,-95.0876 10486.2806,-91.1987 10476.1512,-88.093 10476.4254,-95.0876"/>
</g>
<!-- 42&#45;&gt;44 -->
<g id="edge94" class="edge">
<title>42&#45;&gt;44</title>
<path fill="none" stroke="#c0c0c0" stroke-width="2" d="M10104.6938,-224.4095C10119.9366,-221.5259 10136.8648,-218.4739 10152.4396,-216 10285.7623,-194.8229 10444.2129,-175.8786 10520.6682,-167.1265"/>
<polygon fill="#c0c0c0" stroke="#c0c0c0" stroke-width="2" points="10521.3618,-170.5702 10530.901,-165.96 10520.5689,-163.6152 10521.3618,-170.5702"/>
</g>
<!-- 43 -->
<g id="node44" class="node">
<title>43</title>
<path fill="none" stroke="#d85656" stroke-width="2" d="M10779.9396,-252C10779.9396,-252 10720.9396,-252 10720.9396,-252 10714.9396,-252 10708.9396,-246 10708.9396,-240 10708.9396,-240 10708.9396,-228 10708.9396,-228 10708.9396,-222 10714.9396,-216 10720.9396,-216 10720.9396,-216 10779.9396,-216 10779.9396,-216 10785.9396,-216 10791.9396,-222 10791.9396,-228 10791.9396,-228 10791.9396,-240 10791.9396,-240 10791.9396,-246 10785.9396,-252 10779.9396,-252"/>
<text text-anchor="middle" x="10750.4396" y="-231.5" font-family="sans" font-size="10.00" fill="#000000">make_graphs</text>
</g>
<!-- 43&#45;&gt;37 -->
<g id="edge77" class="edge">
<title>43&#45;&gt;37</title>
<path fill="none" stroke="#c0c0c0" stroke-width="2" d="M10722.8212,-215.9567C10694.8246,-197.7043 10650.2238,-168.7307 10611.4396,-144 10595.6584,-133.9371 10578.176,-122.9335 10563.1175,-113.5002"/>
<polygon fill="#c0c0c0" stroke="#c0c0c0" stroke-width="2" points="10564.8962,-110.4844 10554.5625,-108.1464 10561.1827,-116.4183 10564.8962,-110.4844"/>
</g>
<!-- 43&#45;&gt;44 -->
<g id="edge95" class="edge">
<title>43&#45;&gt;44</title>
<path fill="none" stroke="#c0c0c0" stroke-width="2" d="M10708.6872,-217.6621C10679.8228,-206.3673 10641.4394,-191.3477 10611.8193,-179.7573"/>
<polygon fill="#c0c0c0" stroke="#c0c0c0" stroke-width="2" points="10612.7244,-176.3531 10602.1366,-175.9684 10610.1736,-182.8718 10612.7244,-176.3531"/>
</g>
<!-- 44&#45;&gt;37 -->
<g id="edge78" class="edge">
<title>44&#45;&gt;37</title>
<path fill="none" stroke="#c0c0c0" stroke-width="2" d="M10556.0936,-143.8314C10551.5159,-135.7925 10546.0345,-126.1666 10540.9808,-117.2918"/>
<polygon fill="#c0c0c0" stroke="#c0c0c0" stroke-width="2" points="10543.9148,-115.3712 10535.925,-108.4133 10537.8319,-118.8351 10543.9148,-115.3712"/>
</g>
<!-- 46&#45;&gt;37 -->
<g id="edge79" class="edge">
<title>46&#45;&gt;37</title>
<path fill="none" stroke="#c0c0c0" stroke-width="2" d="M9964.9848,-287.9459C9971.3754,-268.9092 9983.133,-238.6027 9999.4396,-216 10027.2341,-177.4739 10035.2516,-163.7885 10078.4396,-144 10148.3614,-111.9622 10374.9148,-97.2708 10475.9798,-92.1885"/>
<polygon fill="#c0c0c0" stroke="#c0c0c0" stroke-width="2" points="10476.4096,-95.6717 10486.2256,-91.6847 10476.0658,-88.6802 10476.4096,-95.6717"/>
</g>
<!-- 46&#45;&gt;42 -->
<g id="edge84" class="edge">
<title>46&#45;&gt;42</title>
<path fill="none" stroke="#c0c0c0" stroke-width="2" d="M9983.9168,-287.8314C9995.9791,-278.8779 10010.6936,-267.9558 10023.7082,-258.2955"/>
<polygon fill="#c0c0c0" stroke="#c0c0c0" stroke-width="2" points="10026.0266,-260.9335 10031.9703,-252.1628 10021.8545,-255.3127 10026.0266,-260.9335"/>
</g>
<!-- 46&#45;&gt;44 -->
<g id="edge96" class="edge">
<title>46&#45;&gt;44</title>
<path fill="none" stroke="#c0c0c0" stroke-width="2" d="M9998.5373,-301.9461C10072.1457,-293.8927 10228.3158,-274.6848 10277.4396,-252 10300.068,-241.5505 10298.0679,-226.9882 10320.4396,-216 10385.6126,-183.9894 10469.7442,-170.7857 10520.8156,-165.4592"/>
<polygon fill="#c0c0c0" stroke="#c0c0c0" stroke-width="2" points="10521.2749,-168.9309 10530.8833,-164.4669 10520.5882,-161.9647 10521.2749,-168.9309"/>
</g>
<!-- 46&#45;&gt;45 -->
<g id="edge99" class="edge">
<title>46&#45;&gt;45</title>
<path fill="none" stroke="#c0c0c0" stroke-width="2" d="M9958.3762,-287.9843C9955.5021,-239.2939 9947.563,-104.7961 9944.0958,-46.0573"/>
<polygon fill="#c0c0c0" stroke="#c0c0c0" stroke-width="2" points="9947.5859,-45.7852 9943.5026,-36.0089 9940.5981,-46.1978 9947.5859,-45.7852"/>
</g>
</g>
</svg>
