<?xml version="1.0" encoding="UTF-8" standalone="no"?>
<!DOCTYPE svg PUBLIC "-//W3C//DTD SVG 1.1//EN"
 "http://www.w3.org/Graphics/SVG/1.1/DTD/svg11.dtd">
<!-- Generated by graphviz version 3.0.0 (20220315.2325)
 -->
<!-- Title: snakemake_dag Pages: 1 -->
<svg width="1306pt" height="1124pt"
 viewBox="0.00 0.00 1306.00 1124.00" xmlns="http://www.w3.org/2000/svg" xmlns:xlink="http://www.w3.org/1999/xlink">
<g id="graph0" class="graph" transform="scale(1 1) rotate(0) translate(4 1120)">
<title>snakemake_dag</title>
<polygon fill="white" stroke="transparent" points="-4,4 -4,-1120 1302,-1120 1302,4 -4,4"/>
<!-- 0 -->
<g id="node1" class="node">
<title>0</title>
<path fill="none" stroke="#56d86b" stroke-width="2" d="M1043,-36C1043,-36 1013,-36 1013,-36 1007,-36 1001,-30 1001,-24 1001,-24 1001,-12 1001,-12 1001,-6 1007,0 1013,0 1013,0 1043,0 1043,0 1049,0 1055,-6 1055,-12 1055,-12 1055,-24 1055,-24 1055,-30 1049,-36 1043,-36"/>
<text text-anchor="middle" x="1028" y="-15.5" font-family="sans" font-size="10.00">all</text>
</g>
<!-- 1 -->
<g id="node2" class="node">
<title>1</title>
<path fill="none" stroke="#56b1d8" stroke-width="2" d="M1010,-756C1010,-756 950,-756 950,-756 944,-756 938,-750 938,-744 938,-744 938,-732 938,-732 938,-726 944,-720 950,-720 950,-720 1010,-720 1010,-720 1016,-720 1022,-726 1022,-732 1022,-732 1022,-744 1022,-744 1022,-750 1016,-756 1010,-756"/>
<text text-anchor="middle" x="980" y="-735.5" font-family="sans" font-size="10.00">variant_counts</text>
</g>
<!-- 1&#45;&gt;0 -->
<g id="edge3" class="edge">
<title>1&#45;&gt;0</title>
<path fill="none" stroke="grey" stroke-width="2" d="M1022.22,-726.04C1100.44,-702.91 1260,-641.24 1260,-523 1260,-523 1260,-523 1260,-449 1260,-353.88 1262,-330.12 1262,-235 1262,-235 1262,-235 1262,-161 1262,-70.11 1131.38,-35.77 1065.32,-24.21"/>
<polygon fill="grey" stroke="grey" stroke-width="2" points="1065.74,-20.73 1055.3,-22.55 1064.59,-27.64 1065.74,-20.73"/>
</g>
<!-- 9 -->
<g id="node10" class="node">
<title>9</title>
<path fill="none" stroke="#569ad8" stroke-width="2" d="M843.5,-684C843.5,-684 744.5,-684 744.5,-684 738.5,-684 732.5,-678 732.5,-672 732.5,-672 732.5,-660 732.5,-660 732.5,-654 738.5,-648 744.5,-648 744.5,-648 843.5,-648 843.5,-648 849.5,-648 855.5,-654 855.5,-660 855.5,-660 855.5,-672 855.5,-672 855.5,-678 849.5,-684 843.5,-684"/>
<text text-anchor="middle" x="794" y="-663.5" font-family="sans" font-size="10.00">analyze_variant_counts</text>
</g>
<!-- 1&#45;&gt;9 -->
<g id="edge18" class="edge">
<title>1&#45;&gt;9</title>
<path fill="none" stroke="grey" stroke-width="2" d="M937.79,-721.12C911.41,-711.19 877.15,-698.29 848.7,-687.59"/>
<polygon fill="grey" stroke="grey" stroke-width="2" points="849.88,-684.29 839.29,-684.04 847.42,-690.84 849.88,-684.29"/>
</g>
<!-- 11 -->
<g id="node12" class="node">
<title>11</title>
<path fill="none" stroke="#56d882" stroke-width="2" d="M1067.5,-540C1067.5,-540 1016.5,-540 1016.5,-540 1010.5,-540 1004.5,-534 1004.5,-528 1004.5,-528 1004.5,-516 1004.5,-516 1004.5,-510 1010.5,-504 1016.5,-504 1016.5,-504 1067.5,-504 1067.5,-504 1073.5,-504 1079.5,-510 1079.5,-516 1079.5,-516 1079.5,-528 1079.5,-528 1079.5,-534 1073.5,-540 1067.5,-540"/>
<text text-anchor="middle" x="1042" y="-519.5" font-family="sans" font-size="10.00">prob_escape</text>
</g>
<!-- 1&#45;&gt;11 -->
<g id="edge22" class="edge">
<title>1&#45;&gt;11</title>
<path fill="none" stroke="grey" stroke-width="2" d="M984.97,-719.85C995.72,-682.75 1021.2,-594.81 1034.15,-550.1"/>
<polygon fill="grey" stroke="grey" stroke-width="2" points="1037.59,-550.81 1037.01,-540.23 1030.86,-548.86 1037.59,-550.81"/>
</g>
<!-- 13 -->
<g id="node14" class="node">
<title>13</title>
<path fill="none" stroke="#d89c56" stroke-width="2" d="M642.5,-540C642.5,-540 595.5,-540 595.5,-540 589.5,-540 583.5,-534 583.5,-528 583.5,-528 583.5,-516 583.5,-516 583.5,-510 589.5,-504 595.5,-504 595.5,-504 642.5,-504 642.5,-504 648.5,-504 654.5,-510 654.5,-516 654.5,-516 654.5,-528 654.5,-528 654.5,-534 648.5,-540 642.5,-540"/>
<text text-anchor="middle" x="619" y="-519.5" font-family="sans" font-size="10.00">func_scores</text>
</g>
<!-- 1&#45;&gt;13 -->
<g id="edge27" class="edge">
<title>1&#45;&gt;13</title>
<path fill="none" stroke="grey" stroke-width="2" d="M937.88,-732.3C874.26,-724.56 757.44,-707.58 723,-684 674.18,-650.58 643.01,-585.93 628.52,-549.54"/>
<polygon fill="grey" stroke="grey" stroke-width="2" points="631.74,-548.15 624.88,-540.08 625.2,-550.67 631.74,-548.15"/>
</g>
<!-- 15 -->
<g id="node16" class="node">
<title>15</title>
<path fill="none" stroke="#b6d856" stroke-width="2" d="M925,-108C925,-108 875,-108 875,-108 869,-108 863,-102 863,-96 863,-96 863,-84 863,-84 863,-78 869,-72 875,-72 875,-72 925,-72 925,-72 931,-72 937,-78 937,-84 937,-84 937,-96 937,-96 937,-102 931,-108 925,-108"/>
<text text-anchor="middle" x="900" y="-87.5" font-family="sans" font-size="10.00">sphinx_build</text>
</g>
<!-- 1&#45;&gt;15 -->
<g id="edge36" class="edge">
<title>1&#45;&gt;15</title>
<path fill="none" stroke="grey" stroke-width="2" d="M992.16,-719.64C999.12,-709.43 1007.87,-696.18 1015,-684 1051.32,-621.89 1072.08,-609.94 1089,-540 1092.76,-524.45 1089.99,-519.97 1089,-504 1078.87,-341.32 1135.53,-257.97 1019,-144 999.11,-124.54 970.84,-111.54 946.85,-103.29"/>
<polygon fill="grey" stroke="grey" stroke-width="2" points="947.81,-99.92 937.21,-100.15 945.64,-106.58 947.81,-99.92"/>
</g>
<!-- 21 -->
<g id="node22" class="node">
<title>21</title>
<path fill="none" stroke="#d88556" stroke-width="2" d="M617.5,-180C617.5,-180 574.5,-180 574.5,-180 568.5,-180 562.5,-174 562.5,-168 562.5,-168 562.5,-156 562.5,-156 562.5,-150 568.5,-144 574.5,-144 574.5,-144 617.5,-144 617.5,-144 623.5,-144 629.5,-150 629.5,-156 629.5,-156 629.5,-168 629.5,-168 629.5,-174 623.5,-180 617.5,-180"/>
<text text-anchor="middle" x="596" y="-159.5" font-family="sans" font-size="10.00">docs_index</text>
</g>
<!-- 1&#45;&gt;21 -->
<g id="edge63" class="edge">
<title>1&#45;&gt;21</title>
<path fill="none" stroke="grey" stroke-width="2" d="M980.6,-719.82C981.24,-690.09 980.88,-627.31 969,-576 945.62,-475.01 947.24,-439.74 881,-360 862.09,-337.24 849.5,-340.59 825,-324 779.36,-293.09 767,-286.49 724,-252 705.34,-237.03 703.22,-230.23 684,-216 669.02,-204.91 651.61,-194.04 636.25,-185.06"/>
<polygon fill="grey" stroke="grey" stroke-width="2" points="637.89,-181.97 627.47,-180.01 634.39,-188.03 637.89,-181.97"/>
</g>
<!-- 2 -->
<g id="node3" class="node">
<title>2</title>
<path fill="none" stroke="#566bd8" stroke-width="2" d="M869.5,-828C869.5,-828 804.5,-828 804.5,-828 798.5,-828 792.5,-822 792.5,-816 792.5,-816 792.5,-804 792.5,-804 792.5,-798 798.5,-792 804.5,-792 804.5,-792 869.5,-792 869.5,-792 875.5,-792 881.5,-798 881.5,-804 881.5,-804 881.5,-816 881.5,-816 881.5,-822 875.5,-828 869.5,-828"/>
<text text-anchor="middle" x="837" y="-807.5" font-family="sans" font-size="10.00">count_barcodes</text>
</g>
<!-- 2&#45;&gt;1 -->
<g id="edge7" class="edge">
<title>2&#45;&gt;1</title>
<path fill="none" stroke="grey" stroke-width="2" d="M871.98,-791.88C891.2,-782.47 915.23,-770.71 935.74,-760.67"/>
<polygon fill="grey" stroke="grey" stroke-width="2" points="937.44,-763.73 944.88,-756.19 934.36,-757.44 937.44,-763.73"/>
</g>
<!-- 2&#45;&gt;9 -->
<g id="edge17" class="edge">
<title>2&#45;&gt;9</title>
<path fill="none" stroke="grey" stroke-width="2" d="M831.81,-791.87C824.45,-767.56 810.9,-722.82 802.18,-694.01"/>
<polygon fill="grey" stroke="grey" stroke-width="2" points="805.45,-692.75 799.21,-684.19 798.75,-694.77 805.45,-692.75"/>
</g>
<!-- 3 -->
<g id="node4" class="node">
<title>3</title>
<path fill="none" stroke="#d8cb56" stroke-width="2" d="M869.5,-900C869.5,-900 780.5,-900 780.5,-900 774.5,-900 768.5,-894 768.5,-888 768.5,-888 768.5,-876 768.5,-876 768.5,-870 774.5,-864 780.5,-864 780.5,-864 869.5,-864 869.5,-864 875.5,-864 881.5,-870 881.5,-876 881.5,-876 881.5,-888 881.5,-888 881.5,-894 875.5,-900 869.5,-900"/>
<text text-anchor="middle" x="825" y="-879.5" font-family="sans" font-size="10.00">build_codon_variants</text>
</g>
<!-- 3&#45;&gt;1 -->
<g id="edge8" class="edge">
<title>3&#45;&gt;1</title>
<path fill="none" stroke="grey" stroke-width="2" d="M847.1,-863.84C859.89,-853.71 876.14,-840.46 890,-828 913.31,-807.05 938.59,-781.82 956.4,-763.58"/>
<polygon fill="grey" stroke="grey" stroke-width="2" points="959.09,-765.84 963.55,-756.23 954.07,-760.96 959.09,-765.84"/>
</g>
<!-- 3&#45;&gt;2 -->
<g id="edge10" class="edge">
<title>3&#45;&gt;2</title>
<path fill="none" stroke="grey" stroke-width="2" d="M827.97,-863.7C829.29,-855.98 830.88,-846.71 832.35,-838.11"/>
<polygon fill="grey" stroke="grey" stroke-width="2" points="835.83,-838.55 834.07,-828.1 828.93,-837.37 835.83,-838.55"/>
</g>
<!-- 3&#45;&gt;9 -->
<g id="edge20" class="edge">
<title>3&#45;&gt;9</title>
<path fill="none" stroke="grey" stroke-width="2" d="M806.4,-863.76C797.47,-854.2 787.71,-841.53 783,-828 767.29,-782.88 777.39,-726.42 785.89,-693.76"/>
<polygon fill="grey" stroke="grey" stroke-width="2" points="789.29,-694.61 788.56,-684.04 782.54,-692.75 789.29,-694.61"/>
</g>
<!-- 3&#45;&gt;11 -->
<g id="edge24" class="edge">
<title>3&#45;&gt;11</title>
<path fill="none" stroke="grey" stroke-width="2" d="M881.94,-863.98C931.17,-845.91 999.27,-812.07 1031,-756 1068.3,-690.09 1056.97,-596.14 1048.16,-550.29"/>
<polygon fill="grey" stroke="grey" stroke-width="2" points="1051.54,-549.33 1046.12,-540.22 1044.68,-550.72 1051.54,-549.33"/>
</g>
<!-- 3&#45;&gt;13 -->
<g id="edge29" class="edge">
<title>3&#45;&gt;13</title>
<path fill="none" stroke="grey" stroke-width="2" d="M768.44,-868.48C706.55,-851.05 616,-812.92 616,-739 616,-739 616,-739 616,-665 616,-624.99 617.21,-578.65 618.09,-550.08"/>
<polygon fill="grey" stroke="grey" stroke-width="2" points="621.59,-550.15 618.41,-540.05 614.59,-549.93 621.59,-550.15"/>
</g>
<!-- 3&#45;&gt;15 -->
<g id="edge45" class="edge">
<title>3&#45;&gt;15</title>
<path fill="none" stroke="grey" stroke-width="2" d="M881.65,-875.6C925.34,-869.37 985.91,-856.09 1032,-828 1096.44,-788.72 1108.99,-758.34 1122,-684 1157.92,-478.75 1170.05,-410 1094,-216 1080.14,-180.65 1077.69,-167.67 1048,-144 1018.63,-120.59 978.08,-107.03 946.84,-99.5"/>
<polygon fill="grey" stroke="grey" stroke-width="2" points="947.58,-96.08 937.06,-97.26 946.02,-102.9 947.58,-96.08"/>
</g>
<!-- 19 -->
<g id="node20" class="node">
<title>19</title>
<path fill="none" stroke="#ced856" stroke-width="2" d="M416,-324C416,-324 366,-324 366,-324 360,-324 354,-318 354,-312 354,-312 354,-300 354,-300 354,-294 360,-288 366,-288 366,-288 416,-288 416,-288 422,-288 428,-294 428,-300 428,-300 428,-312 428,-312 428,-318 422,-324 416,-324"/>
<text text-anchor="middle" x="391" y="-303.5" font-family="sans" font-size="10.00">make_nblink</text>
</g>
<!-- 3&#45;&gt;19 -->
<g id="edge58" class="edge">
<title>3&#45;&gt;19</title>
<path fill="none" stroke="grey" stroke-width="2" d="M768.16,-877.72C726.75,-872.61 671.56,-859.8 634,-828 471.47,-690.4 411.06,-420.23 395.45,-334.08"/>
<polygon fill="grey" stroke="grey" stroke-width="2" points="398.87,-333.3 393.69,-324.06 391.97,-334.51 398.87,-333.3"/>
</g>
<!-- 3&#45;&gt;21 -->
<g id="edge71" class="edge">
<title>3&#45;&gt;21</title>
<path fill="none" stroke="grey" stroke-width="2" d="M881.55,-872.17C916.54,-864.67 961.1,-851.27 995,-828 1118.61,-743.13 1132.65,-647.44 1089,-504 1067.99,-434.97 1065.11,-410.94 1014,-360 939.95,-286.19 892.06,-309.91 805,-252 784.25,-238.2 783.84,-228.02 762,-216 723.04,-194.56 674.09,-180.27 639.47,-171.98"/>
<polygon fill="grey" stroke="grey" stroke-width="2" points="640.19,-168.56 629.66,-169.71 638.61,-175.38 640.19,-168.56"/>
</g>
<!-- 4 -->
<g id="node5" class="node">
<title>4</title>
<path fill="none" stroke="#59d856" stroke-width="2" d="M462,-972C462,-972 360,-972 360,-972 354,-972 348,-966 348,-960 348,-960 348,-948 348,-948 348,-942 354,-936 360,-936 360,-936 462,-936 462,-936 468,-936 474,-942 474,-948 474,-948 474,-960 474,-960 474,-966 468,-972 462,-972"/>
<text text-anchor="middle" x="411" y="-951.5" font-family="sans" font-size="10.00">build_pacbio_consensus</text>
</g>
<!-- 4&#45;&gt;3 -->
<g id="edge11" class="edge">
<title>4&#45;&gt;3</title>
<path fill="none" stroke="grey" stroke-width="2" d="M474.33,-942.29C551.07,-929.32 679.79,-907.55 758.1,-894.31"/>
<polygon fill="grey" stroke="grey" stroke-width="2" points="759.06,-897.7 768.34,-892.58 757.89,-890.8 759.06,-897.7"/>
</g>
<!-- 4&#45;&gt;15 -->
<g id="edge34" class="edge">
<title>4&#45;&gt;15</title>
<path fill="none" stroke="grey" stroke-width="2" d="M398.24,-935.97C350.17,-870.59 179.88,-627.65 125,-396 106.3,-317.08 124.53,-291.16 155,-216 169,-181.46 166.3,-163.61 198,-144 253.45,-109.71 704.17,-95.76 852.72,-92.07"/>
<polygon fill="grey" stroke="grey" stroke-width="2" points="852.97,-95.56 862.88,-91.82 852.8,-88.56 852.97,-95.56"/>
</g>
<!-- 4&#45;&gt;19 -->
<g id="edge52" class="edge">
<title>4&#45;&gt;19</title>
<path fill="none" stroke="grey" stroke-width="2" d="M403.51,-935.89C392.7,-909.58 374,-857.37 374,-811 374,-811 374,-811 374,-449 374,-408.93 380.76,-362.95 385.75,-334.43"/>
<polygon fill="grey" stroke="grey" stroke-width="2" points="389.23,-334.87 387.56,-324.41 382.34,-333.63 389.23,-334.87"/>
</g>
<!-- 4&#45;&gt;21 -->
<g id="edge61" class="edge">
<title>4&#45;&gt;21</title>
<path fill="none" stroke="grey" stroke-width="2" d="M418.89,-935.93C430.29,-909.67 450,-857.53 450,-811 450,-811 450,-811 450,-593 450,-550.44 494.81,-251.69 518,-216 526.78,-202.49 540.34,-191.53 553.71,-183.16"/>
<polygon fill="grey" stroke="grey" stroke-width="2" points="555.57,-186.12 562.41,-178.03 552.02,-180.09 555.57,-186.12"/>
</g>
<!-- 5 -->
<g id="node6" class="node">
<title>5</title>
<path fill="none" stroke="#56d89a" stroke-width="2" d="M330,-1044C330,-1044 250,-1044 250,-1044 244,-1044 238,-1038 238,-1032 238,-1032 238,-1020 238,-1020 238,-1014 244,-1008 250,-1008 250,-1008 330,-1008 330,-1008 336,-1008 342,-1014 342,-1020 342,-1020 342,-1032 342,-1032 342,-1038 336,-1044 330,-1044"/>
<text text-anchor="middle" x="290" y="-1023.5" font-family="sans" font-size="10.00">analyze_pacbio_ccs</text>
</g>
<!-- 5&#45;&gt;4 -->
<g id="edge14" class="edge">
<title>5&#45;&gt;4</title>
<path fill="none" stroke="grey" stroke-width="2" d="M319.6,-1007.88C335.57,-998.64 355.46,-987.13 372.61,-977.21"/>
<polygon fill="grey" stroke="grey" stroke-width="2" points="374.38,-980.23 381.29,-972.19 370.88,-974.17 374.38,-980.23"/>
</g>
<!-- 5&#45;&gt;15 -->
<g id="edge42" class="edge">
<title>5&#45;&gt;15</title>
<path fill="none" stroke="grey" stroke-width="2" d="M237.82,-1022.43C154.33,-1015.21 0,-987.69 0,-883 0,-883 0,-883 0,-305 0,-202.86 70.9,-186.02 164,-144 226.56,-115.76 700.25,-97.66 852.81,-92.51"/>
<polygon fill="grey" stroke="grey" stroke-width="2" points="852.93,-96.01 862.81,-92.18 852.7,-89.01 852.93,-96.01"/>
</g>
<!-- 5&#45;&gt;19 -->
<g id="edge56" class="edge">
<title>5&#45;&gt;19</title>
<path fill="none" stroke="grey" stroke-width="2" d="M283.93,-1007.76C275.16,-981.28 260,-928.86 260,-883 260,-883 260,-883 260,-809 260,-621.9 346.26,-407.9 378.78,-333.86"/>
<polygon fill="grey" stroke="grey" stroke-width="2" points="382.14,-334.91 383,-324.35 375.75,-332.07 382.14,-334.91"/>
</g>
<!-- 5&#45;&gt;21 -->
<g id="edge69" class="edge">
<title>5&#45;&gt;21</title>
<path fill="none" stroke="grey" stroke-width="2" d="M293.65,-1007.85C317.39,-896.88 450.41,-282.91 502,-216 514.96,-199.2 534.85,-186.89 553,-178.39"/>
<polygon fill="grey" stroke="grey" stroke-width="2" points="554.56,-181.52 562.29,-174.28 551.73,-175.12 554.56,-181.52"/>
</g>
<!-- 6 -->
<g id="node7" class="node">
<title>6</title>
<path fill="none" stroke="#56d8c9" stroke-width="2" d="M339,-1116C339,-1116 241,-1116 241,-1116 235,-1116 229,-1110 229,-1104 229,-1104 229,-1092 229,-1092 229,-1086 235,-1080 241,-1080 241,-1080 339,-1080 339,-1080 345,-1080 351,-1086 351,-1092 351,-1092 351,-1104 351,-1104 351,-1110 345,-1116 339,-1116"/>
<text text-anchor="middle" x="290" y="-1095.5" font-family="sans" font-size="10.00">align_parse_PacBio_ccs</text>
</g>
<!-- 6&#45;&gt;5 -->
<g id="edge15" class="edge">
<title>6&#45;&gt;5</title>
<path fill="none" stroke="grey" stroke-width="2" d="M290,-1079.7C290,-1071.98 290,-1062.71 290,-1054.11"/>
<polygon fill="grey" stroke="grey" stroke-width="2" points="293.5,-1054.1 290,-1044.1 286.5,-1054.1 293.5,-1054.1"/>
</g>
<!-- 7 -->
<g id="node8" class="node">
<title>7</title>
<path fill="none" stroke="#9fd856" stroke-width="2" d="M921,-1044C921,-1044 855,-1044 855,-1044 849,-1044 843,-1038 843,-1032 843,-1032 843,-1020 843,-1020 843,-1014 849,-1008 855,-1008 855,-1008 921,-1008 921,-1008 927,-1008 933,-1014 933,-1020 933,-1020 933,-1032 933,-1032 933,-1038 927,-1044 921,-1044"/>
<text text-anchor="middle" x="888" y="-1023.5" font-family="sans" font-size="10.00">gene_sequence</text>
</g>
<!-- 7&#45;&gt;1 -->
<g id="edge9" class="edge">
<title>7&#45;&gt;1</title>
<path fill="none" stroke="grey" stroke-width="2" d="M902.04,-1007.8C909.52,-997.86 918.33,-984.82 924,-972 955.24,-901.34 970.62,-810.6 976.72,-766.08"/>
<polygon fill="grey" stroke="grey" stroke-width="2" points="980.2,-766.42 978.04,-756.05 973.26,-765.51 980.2,-766.42"/>
</g>
<!-- 7&#45;&gt;3 -->
<g id="edge12" class="edge">
<title>7&#45;&gt;3</title>
<path fill="none" stroke="grey" stroke-width="2" d="M880.4,-1007.87C869.57,-983.46 849.59,-938.43 836.82,-909.64"/>
<polygon fill="grey" stroke="grey" stroke-width="2" points="839.88,-907.91 832.63,-900.19 833.48,-910.75 839.88,-907.91"/>
</g>
<!-- 7&#45;&gt;4 -->
<g id="edge13" class="edge">
<title>7&#45;&gt;4</title>
<path fill="none" stroke="grey" stroke-width="2" d="M842.82,-1020.29C768.51,-1012.25 615.97,-994.56 488,-972 486.75,-971.78 485.49,-971.55 484.22,-971.32"/>
<polygon fill="grey" stroke="grey" stroke-width="2" points="484.84,-967.88 474.36,-969.44 483.53,-974.75 484.84,-967.88"/>
</g>
<!-- 7&#45;&gt;9 -->
<g id="edge19" class="edge">
<title>7&#45;&gt;9</title>
<path fill="none" stroke="grey" stroke-width="2" d="M892.45,-1007.65C898.88,-981.02 910,-928.4 910,-883 910,-883 910,-883 910,-809 910,-757.79 864.19,-714.87 830.15,-690.04"/>
<polygon fill="grey" stroke="grey" stroke-width="2" points="831.97,-687.04 821.78,-684.12 827.93,-692.75 831.97,-687.04"/>
</g>
<!-- 7&#45;&gt;11 -->
<g id="edge25" class="edge">
<title>7&#45;&gt;11</title>
<path fill="none" stroke="grey" stroke-width="2" d="M933.22,-1018.55C1001.75,-1005.94 1124,-971.1 1124,-883 1124,-883 1124,-883 1124,-737 1124,-664.99 1083.01,-587.84 1058.99,-548.8"/>
<polygon fill="grey" stroke="grey" stroke-width="2" points="1061.86,-546.78 1053.57,-540.17 1055.93,-550.5 1061.86,-546.78"/>
</g>
<!-- 7&#45;&gt;13 -->
<g id="edge30" class="edge">
<title>7&#45;&gt;13</title>
<path fill="none" stroke="grey" stroke-width="2" d="M854.19,-1007.8C799.74,-978.37 692.78,-913.21 634,-828 574.49,-741.72 597.95,-606.81 611.72,-549.83"/>
<polygon fill="grey" stroke="grey" stroke-width="2" points="615.11,-550.68 614.16,-540.13 608.33,-548.97 615.11,-550.68"/>
</g>
<!-- 7&#45;&gt;15 -->
<g id="edge46" class="edge">
<title>7&#45;&gt;15</title>
<path fill="none" stroke="grey" stroke-width="2" d="M933.05,-1019.15C1039.56,-1004.06 1298,-959.55 1298,-883 1298,-883 1298,-883 1298,-449 1298,-281.6 1213.5,-240.9 1077,-144 1038.39,-116.59 985.45,-103.17 947.55,-96.72"/>
<polygon fill="grey" stroke="grey" stroke-width="2" points="947.71,-93.2 937.28,-95.08 946.6,-100.11 947.71,-93.2"/>
</g>
<!-- 7&#45;&gt;21 -->
<g id="edge72" class="edge">
<title>7&#45;&gt;21</title>
<path fill="none" stroke="grey" stroke-width="2" d="M842.97,-1018.21C741.14,-1001.61 502,-954.94 502,-883 502,-883 502,-883 502,-665 502,-480.77 563.92,-264.9 587.25,-190.11"/>
<polygon fill="grey" stroke="grey" stroke-width="2" points="590.73,-190.71 590.4,-180.12 584.06,-188.61 590.73,-190.71"/>
</g>
<!-- 8 -->
<g id="node9" class="node">
<title>8</title>
<path fill="none" stroke="#d85656" stroke-width="2" d="M948,-612C948,-612 808,-612 808,-612 802,-612 796,-606 796,-600 796,-600 796,-588 796,-588 796,-582 802,-576 808,-576 808,-576 948,-576 948,-576 954,-576 960,-582 960,-588 960,-588 960,-600 960,-600 960,-606 954,-612 948,-612"/>
<text text-anchor="middle" x="878" y="-591.5" font-family="sans" font-size="10.00">check_adequate_variant_counts</text>
</g>
<!-- 8&#45;&gt;0 -->
<g id="edge4" class="edge">
<title>8&#45;&gt;0</title>
<path fill="none" stroke="grey" stroke-width="2" d="M903.18,-575.82C956.29,-537.85 1078.64,-440.81 1124,-324 1163.5,-222.29 1085.75,-96.96 1047.51,-44.24"/>
<polygon fill="grey" stroke="grey" stroke-width="2" points="1050.28,-42.1 1041.52,-36.13 1044.65,-46.25 1050.28,-42.1"/>
</g>
<!-- 8&#45;&gt;11 -->
<g id="edge23" class="edge">
<title>8&#45;&gt;11</title>
<path fill="none" stroke="grey" stroke-width="2" d="M918.12,-575.88C941.31,-565.98 970.61,-553.47 994.89,-543.11"/>
<polygon fill="grey" stroke="grey" stroke-width="2" points="996.44,-546.25 1004.26,-539.11 993.69,-539.81 996.44,-546.25"/>
</g>
<!-- 8&#45;&gt;13 -->
<g id="edge28" class="edge">
<title>8&#45;&gt;13</title>
<path fill="none" stroke="grey" stroke-width="2" d="M814.97,-575.97C768.49,-563.4 706.34,-546.61 664.6,-535.33"/>
<polygon fill="grey" stroke="grey" stroke-width="2" points="665.28,-531.88 654.72,-532.65 663.46,-538.64 665.28,-531.88"/>
</g>
<!-- 9&#45;&gt;8 -->
<g id="edge16" class="edge">
<title>9&#45;&gt;8</title>
<path fill="none" stroke="grey" stroke-width="2" d="M814.76,-647.7C825.24,-638.97 838.11,-628.24 849.5,-618.75"/>
<polygon fill="grey" stroke="grey" stroke-width="2" points="852.03,-621.19 857.47,-612.1 847.55,-615.82 852.03,-621.19"/>
</g>
<!-- 9&#45;&gt;15 -->
<g id="edge38" class="edge">
<title>9&#45;&gt;15</title>
<path fill="none" stroke="grey" stroke-width="2" d="M787.76,-647.99C782,-629.34 775.87,-599.03 787,-576 843.03,-460.07 957.97,-511.93 1014,-396 1062.9,-294.81 1057.91,-235.75 993,-144 981.59,-127.87 963.62,-116 946.5,-107.63"/>
<polygon fill="grey" stroke="grey" stroke-width="2" points="947.68,-104.32 937.13,-103.33 944.76,-110.68 947.68,-104.32"/>
</g>
<!-- 9&#45;&gt;19 -->
<g id="edge54" class="edge">
<title>9&#45;&gt;19</title>
<path fill="none" stroke="grey" stroke-width="2" d="M761.09,-647.88C745.93,-638.78 728.56,-626.46 716,-612 680.94,-571.63 697.45,-544.89 663,-504 596.32,-424.85 491.34,-360.75 433.23,-328.88"/>
<polygon fill="grey" stroke="grey" stroke-width="2" points="434.78,-325.74 424.32,-324.05 431.44,-331.89 434.78,-325.74"/>
</g>
<!-- 9&#45;&gt;21 -->
<g id="edge65" class="edge">
<title>9&#45;&gt;21</title>
<path fill="none" stroke="grey" stroke-width="2" d="M778.47,-647.97C770.17,-638.09 760.38,-625.05 754,-612 736,-575.2 730,-563.97 730,-523 730,-523 730,-523 730,-449 730,-408.55 725.6,-397.72 711,-360 710.78,-359.43 642.36,-242.33 611.17,-188.96"/>
<polygon fill="grey" stroke="grey" stroke-width="2" points="614.05,-186.95 605.98,-180.08 608,-190.48 614.05,-186.95"/>
</g>
<!-- 10 -->
<g id="node11" class="node">
<title>10</title>
<path fill="none" stroke="#d86e56" stroke-width="2" d="M993.5,-396C993.5,-396 940.5,-396 940.5,-396 934.5,-396 928.5,-390 928.5,-384 928.5,-384 928.5,-372 928.5,-372 928.5,-366 934.5,-360 940.5,-360 940.5,-360 993.5,-360 993.5,-360 999.5,-360 1005.5,-366 1005.5,-372 1005.5,-372 1005.5,-384 1005.5,-384 1005.5,-390 999.5,-396 993.5,-396"/>
<text text-anchor="middle" x="967" y="-375.5" font-family="sans" font-size="10.00">fit_polyclonal</text>
</g>
<!-- 10&#45;&gt;0 -->
<g id="edge5" class="edge">
<title>10&#45;&gt;0</title>
<path fill="none" stroke="grey" stroke-width="2" d="M980.52,-359.89C987.59,-349.99 995.65,-336.95 1000,-324 1032.96,-225.92 1031.99,-100.72 1029.63,-46.3"/>
<polygon fill="grey" stroke="grey" stroke-width="2" points="1033.11,-45.91 1029.13,-36.09 1026.12,-46.25 1033.11,-45.91"/>
</g>
<!-- 10&#45;&gt;15 -->
<g id="edge41" class="edge">
<title>10&#45;&gt;15</title>
<path fill="none" stroke="grey" stroke-width="2" d="M972.59,-359.71C984.57,-319.33 1008.79,-216.76 972,-144 965.86,-131.86 955.48,-121.82 944.49,-113.86"/>
<polygon fill="grey" stroke="grey" stroke-width="2" points="946.28,-110.85 936.03,-108.19 942.38,-116.66 946.28,-110.85"/>
</g>
<!-- 10&#45;&gt;19 -->
<g id="edge55" class="edge">
<title>10&#45;&gt;19</title>
<path fill="none" stroke="grey" stroke-width="2" d="M928.17,-368.58C913.45,-365.58 896.5,-362.37 881,-360 719.25,-335.31 525.74,-317.93 438.17,-310.72"/>
<polygon fill="grey" stroke="grey" stroke-width="2" points="438.28,-307.22 428.02,-309.89 437.71,-314.19 438.28,-307.22"/>
</g>
<!-- 10&#45;&gt;21 -->
<g id="edge68" class="edge">
<title>10&#45;&gt;21</title>
<path fill="none" stroke="grey" stroke-width="2" d="M938.81,-359.83C900.51,-336.3 830.14,-292.36 772,-252 750.09,-236.79 747.17,-229.2 724,-216 697.07,-200.65 664.81,-187.32 639.41,-177.87"/>
<polygon fill="grey" stroke="grey" stroke-width="2" points="640.28,-174.46 629.69,-174.32 637.88,-181.04 640.28,-174.46"/>
</g>
<!-- 11&#45;&gt;10 -->
<g id="edge21" class="edge">
<title>11&#45;&gt;10</title>
<path fill="none" stroke="grey" stroke-width="2" d="M1037.98,-503.83C1033.21,-485.32 1024.19,-455.37 1011,-432 1005.47,-422.21 998.08,-412.47 990.93,-404.06"/>
<polygon fill="grey" stroke="grey" stroke-width="2" points="993.45,-401.63 984.22,-396.44 988.2,-406.26 993.45,-401.63"/>
</g>
<!-- 17 -->
<g id="node18" class="node">
<title>17</title>
<path fill="none" stroke="#d8b456" stroke-width="2" d="M860,-396C860,-396 770,-396 770,-396 764,-396 758,-390 758,-384 758,-384 758,-372 758,-372 758,-366 764,-360 770,-360 770,-360 860,-360 860,-360 866,-360 872,-366 872,-372 872,-372 872,-384 872,-384 872,-390 866,-396 860,-396"/>
<text text-anchor="middle" x="815" y="-375.5" font-family="sans" font-size="10.00">analyze_prob_escape</text>
</g>
<!-- 11&#45;&gt;17 -->
<g id="edge48" class="edge">
<title>11&#45;&gt;17</title>
<path fill="none" stroke="grey" stroke-width="2" d="M1014.62,-503.87C973.71,-478.28 896.61,-430.05 851.13,-401.6"/>
<polygon fill="grey" stroke="grey" stroke-width="2" points="852.81,-398.53 842.48,-396.19 849.1,-404.46 852.81,-398.53"/>
</g>
<!-- 12 -->
<g id="node13" class="node">
<title>12</title>
<path fill="none" stroke="#88d856" stroke-width="2" d="M260,-468C260,-468 186,-468 186,-468 180,-468 174,-462 174,-456 174,-456 174,-444 174,-444 174,-438 180,-432 186,-432 186,-432 260,-432 260,-432 266,-432 272,-438 272,-444 272,-444 272,-456 272,-456 272,-462 266,-468 260,-468"/>
<text text-anchor="middle" x="223" y="-447.5" font-family="sans" font-size="10.00">fit_globalepistasis</text>
</g>
<!-- 12&#45;&gt;0 -->
<g id="edge1" class="edge">
<title>12&#45;&gt;0</title>
<path fill="none" stroke="grey" stroke-width="2" d="M173.85,-434.56C155.16,-426.41 135.79,-414.11 125,-396 46.14,-263.69 107.14,-134.3 248,-72 316.35,-41.77 844.39,-24.33 990.59,-20.04"/>
<polygon fill="grey" stroke="grey" stroke-width="2" points="990.94,-23.54 1000.84,-19.75 990.74,-16.54 990.94,-23.54"/>
</g>
<!-- 14 -->
<g id="node15" class="node">
<title>14</title>
<path fill="none" stroke="#70d856" stroke-width="2" d="M219.5,-396C219.5,-396 154.5,-396 154.5,-396 148.5,-396 142.5,-390 142.5,-384 142.5,-384 142.5,-372 142.5,-372 142.5,-366 148.5,-360 154.5,-360 154.5,-360 219.5,-360 219.5,-360 225.5,-360 231.5,-366 231.5,-372 231.5,-372 231.5,-384 231.5,-384 231.5,-390 225.5,-396 219.5,-396"/>
<text text-anchor="middle" x="187" y="-375.5" font-family="sans" font-size="10.00">avg_muteffects</text>
</g>
<!-- 12&#45;&gt;14 -->
<g id="edge31" class="edge">
<title>12&#45;&gt;14</title>
<path fill="none" stroke="grey" stroke-width="2" d="M214.1,-431.7C210,-423.73 205.05,-414.1 200.51,-405.26"/>
<polygon fill="grey" stroke="grey" stroke-width="2" points="203.48,-403.4 195.8,-396.1 197.26,-406.6 203.48,-403.4"/>
</g>
<!-- 12&#45;&gt;15 -->
<g id="edge32" class="edge">
<title>12&#45;&gt;15</title>
<path fill="none" stroke="grey" stroke-width="2" d="M174.44,-431.97C158.33,-423.73 142.18,-412.06 133,-396 125.06,-382.11 129.24,-375.55 133,-360 158.47,-254.69 155.23,-203.16 246,-144 296.51,-111.08 710.73,-96.36 852.57,-92.25"/>
<polygon fill="grey" stroke="grey" stroke-width="2" points="852.8,-95.75 862.69,-91.97 852.6,-88.75 852.8,-95.75"/>
</g>
<!-- 12&#45;&gt;19 -->
<g id="edge50" class="edge">
<title>12&#45;&gt;19</title>
<path fill="none" stroke="grey" stroke-width="2" d="M241.23,-431.83C260.82,-413.58 293.03,-384.08 322,-360 333.96,-350.05 347.47,-339.53 359.34,-330.51"/>
<polygon fill="grey" stroke="grey" stroke-width="2" points="361.78,-333.05 367.65,-324.23 357.56,-327.46 361.78,-333.05"/>
</g>
<!-- 12&#45;&gt;21 -->
<g id="edge59" class="edge">
<title>12&#45;&gt;21</title>
<path fill="none" stroke="grey" stroke-width="2" d="M231.43,-431.9C253.93,-388.17 319.95,-271.85 411,-216 434.68,-201.48 505.66,-183.46 552.5,-172.61"/>
<polygon fill="grey" stroke="grey" stroke-width="2" points="553.42,-175.99 562.39,-170.34 551.86,-169.17 553.42,-175.99"/>
</g>
<!-- 13&#45;&gt;12 -->
<g id="edge26" class="edge">
<title>13&#45;&gt;12</title>
<path fill="none" stroke="grey" stroke-width="2" d="M583.16,-514.66C514.9,-502.6 365.62,-476.21 282.27,-461.48"/>
<polygon fill="grey" stroke="grey" stroke-width="2" points="282.65,-457.99 272.19,-459.7 281.43,-464.88 282.65,-457.99"/>
</g>
<!-- 16 -->
<g id="node17" class="node">
<title>16</title>
<path fill="none" stroke="#56c9d8" stroke-width="2" d="M690,-396C690,-396 604,-396 604,-396 598,-396 592,-390 592,-384 592,-384 592,-372 592,-372 592,-366 598,-360 604,-360 604,-360 690,-360 690,-360 696,-360 702,-366 702,-372 702,-372 702,-384 702,-384 702,-390 696,-396 690,-396"/>
<text text-anchor="middle" x="647" y="-375.5" font-family="sans" font-size="10.00">analyze_func_scores</text>
</g>
<!-- 13&#45;&gt;16 -->
<g id="edge47" class="edge">
<title>13&#45;&gt;16</title>
<path fill="none" stroke="grey" stroke-width="2" d="M622.38,-503.87C627.17,-479.56 635.99,-434.82 641.67,-406.01"/>
<polygon fill="grey" stroke="grey" stroke-width="2" points="645.11,-406.68 643.61,-396.19 638.24,-405.32 645.11,-406.68"/>
</g>
<!-- 14&#45;&gt;0 -->
<g id="edge2" class="edge">
<title>14&#45;&gt;0</title>
<path fill="none" stroke="grey" stroke-width="2" d="M181.36,-359.92C168.47,-317.25 142.04,-205.05 198,-144 306.42,-25.7 842.6,-18.43 990.28,-18.71"/>
<polygon fill="grey" stroke="grey" stroke-width="2" points="990.62,-22.21 1000.63,-18.74 990.64,-15.21 990.62,-22.21"/>
</g>
<!-- 14&#45;&gt;15 -->
<g id="edge33" class="edge">
<title>14&#45;&gt;15</title>
<path fill="none" stroke="grey" stroke-width="2" d="M188.01,-359.95C191.79,-314.21 209.3,-189.2 289,-144 337.63,-116.42 717.73,-98.42 852.67,-92.85"/>
<polygon fill="grey" stroke="grey" stroke-width="2" points="852.86,-96.34 862.71,-92.43 852.57,-89.35 852.86,-96.34"/>
</g>
<!-- 14&#45;&gt;19 -->
<g id="edge51" class="edge">
<title>14&#45;&gt;19</title>
<path fill="none" stroke="grey" stroke-width="2" d="M231.52,-361.72C264.81,-350.3 310.23,-334.72 344.09,-323.1"/>
<polygon fill="grey" stroke="grey" stroke-width="2" points="345.43,-326.34 353.75,-319.78 343.16,-319.72 345.43,-326.34"/>
</g>
<!-- 14&#45;&gt;21 -->
<g id="edge60" class="edge">
<title>14&#45;&gt;21</title>
<path fill="none" stroke="grey" stroke-width="2" d="M205.63,-359.78C249.55,-319.26 356.59,-220.89 366,-216 382.44,-207.45 490.53,-184.51 552.51,-171.79"/>
<polygon fill="grey" stroke="grey" stroke-width="2" points="553.31,-175.2 562.4,-169.77 551.91,-168.34 553.31,-175.2"/>
</g>
<!-- 15&#45;&gt;0 -->
<g id="edge6" class="edge">
<title>15&#45;&gt;0</title>
<path fill="none" stroke="grey" stroke-width="2" d="M931.31,-71.88C949.63,-61.86 972.83,-49.17 991.92,-38.73"/>
<polygon fill="grey" stroke="grey" stroke-width="2" points="993.82,-41.68 1000.91,-33.81 990.46,-35.54 993.82,-41.68"/>
</g>
<!-- 16&#45;&gt;15 -->
<g id="edge35" class="edge">
<title>16&#45;&gt;15</title>
<path fill="none" stroke="grey" stroke-width="2" d="M702.03,-367.45C762.75,-353.64 857.63,-321.68 901,-252 926.57,-210.92 917.1,-151.79 908.29,-117.8"/>
<polygon fill="grey" stroke="grey" stroke-width="2" points="911.65,-116.81 905.62,-108.1 904.9,-118.67 911.65,-116.81"/>
</g>
<!-- 16&#45;&gt;19 -->
<g id="edge53" class="edge">
<title>16&#45;&gt;19</title>
<path fill="none" stroke="grey" stroke-width="2" d="M591.77,-361.9C545.95,-349.37 481.5,-331.75 438.1,-319.88"/>
<polygon fill="grey" stroke="grey" stroke-width="2" points="438.92,-316.48 428.35,-317.21 437.08,-323.23 438.92,-316.48"/>
</g>
<!-- 16&#45;&gt;21 -->
<g id="edge62" class="edge">
<title>16&#45;&gt;21</title>
<path fill="none" stroke="grey" stroke-width="2" d="M636.52,-359.94C630.78,-349.84 624.03,-336.59 620,-324 605.46,-278.54 599.66,-222.98 597.39,-190.44"/>
<polygon fill="grey" stroke="grey" stroke-width="2" points="600.88,-190.09 596.75,-180.33 593.89,-190.53 600.88,-190.09"/>
</g>
<!-- 17&#45;&gt;15 -->
<g id="edge44" class="edge">
<title>17&#45;&gt;15</title>
<path fill="none" stroke="grey" stroke-width="2" d="M840.12,-359.98C869.09,-338.67 915.14,-299.16 934,-252 951.82,-207.43 947.5,-190.06 934,-144 931.2,-134.45 926.09,-124.98 920.67,-116.76"/>
<polygon fill="grey" stroke="grey" stroke-width="2" points="923.38,-114.52 914.75,-108.37 917.65,-118.56 923.38,-114.52"/>
</g>
<!-- 17&#45;&gt;19 -->
<g id="edge57" class="edge">
<title>17&#45;&gt;19</title>
<path fill="none" stroke="grey" stroke-width="2" d="M757.82,-367.56C673.34,-353.61 516.75,-327.76 438.33,-314.81"/>
<polygon fill="grey" stroke="grey" stroke-width="2" points="438.69,-311.33 428.25,-313.15 437.55,-318.23 438.69,-311.33"/>
</g>
<!-- 17&#45;&gt;21 -->
<g id="edge70" class="edge">
<title>17&#45;&gt;21</title>
<path fill="none" stroke="grey" stroke-width="2" d="M797.45,-359.85C758.69,-321.97 665.67,-231.08 620.9,-187.33"/>
<polygon fill="grey" stroke="grey" stroke-width="2" points="623.23,-184.72 613.64,-180.23 618.34,-189.72 623.23,-184.72"/>
</g>
<!-- 18 -->
<g id="node19" class="node">
<title>18</title>
<path fill="none" stroke="#56d8b1" stroke-width="2" d="M302,-252C302,-252 268,-252 268,-252 262,-252 256,-246 256,-240 256,-240 256,-228 256,-228 256,-222 262,-216 268,-216 268,-216 302,-216 302,-216 308,-216 314,-222 314,-228 314,-228 314,-240 314,-240 314,-246 308,-252 302,-252"/>
<text text-anchor="middle" x="285" y="-231.5" font-family="sans" font-size="10.00">subindex</text>
</g>
<!-- 18&#45;&gt;15 -->
<g id="edge37" class="edge">
<title>18&#45;&gt;15</title>
<path fill="none" stroke="grey" stroke-width="2" d="M314.04,-221.21C318.69,-219.41 323.46,-217.62 328,-216 426.88,-180.68 450.78,-168 553,-144 658.73,-119.17 785.42,-103.23 852.65,-95.83"/>
<polygon fill="grey" stroke="grey" stroke-width="2" points="853.35,-99.27 862.91,-94.72 852.59,-92.31 853.35,-99.27"/>
</g>
<!-- 18&#45;&gt;21 -->
<g id="edge64" class="edge">
<title>18&#45;&gt;21</title>
<path fill="none" stroke="grey" stroke-width="2" d="M314.36,-220.58C318.88,-218.9 323.53,-217.31 328,-216 405.43,-193.24 498.33,-177.32 551.92,-169.21"/>
<polygon fill="grey" stroke="grey" stroke-width="2" points="552.73,-172.62 562.1,-167.69 551.7,-165.7 552.73,-172.62"/>
</g>
<!-- 19&#45;&gt;15 -->
<g id="edge39" class="edge">
<title>19&#45;&gt;15</title>
<path fill="none" stroke="grey" stroke-width="2" d="M353.79,-302.74C319.67,-298.47 270.93,-286.3 247,-252 237.85,-238.88 238.06,-229.27 247,-216 315,-115.15 713.63,-95.63 852.4,-91.88"/>
<polygon fill="grey" stroke="grey" stroke-width="2" points="852.8,-95.37 862.7,-91.62 852.62,-88.38 852.8,-95.37"/>
</g>
<!-- 19&#45;&gt;18 -->
<g id="edge49" class="edge">
<title>19&#45;&gt;18</title>
<path fill="none" stroke="grey" stroke-width="2" d="M365.07,-287.88C351.34,-278.81 334.29,-267.55 319.46,-257.76"/>
<polygon fill="grey" stroke="grey" stroke-width="2" points="321.3,-254.78 311.03,-252.19 317.45,-260.62 321.3,-254.78"/>
</g>
<!-- 19&#45;&gt;21 -->
<g id="edge66" class="edge">
<title>19&#45;&gt;21</title>
<path fill="none" stroke="grey" stroke-width="2" d="M396.63,-287.79C404.01,-267.82 418.81,-235.18 442,-216 473.69,-189.79 519.09,-176.25 552.38,-169.45"/>
<polygon fill="grey" stroke="grey" stroke-width="2" points="553.14,-172.87 562.3,-167.55 551.82,-166 553.14,-172.87"/>
</g>
<!-- 20 -->
<g id="node21" class="node">
<title>20</title>
<path fill="none" stroke="#5682d8" stroke-width="2" d="M880,-252C880,-252 826,-252 826,-252 820,-252 814,-246 814,-240 814,-240 814,-228 814,-228 814,-222 820,-216 826,-216 826,-216 880,-216 880,-216 886,-216 892,-222 892,-228 892,-228 892,-240 892,-240 892,-246 886,-252 880,-252"/>
<text text-anchor="middle" x="853" y="-231.5" font-family="sans" font-size="10.00">make_graphs</text>
</g>
<!-- 20&#45;&gt;15 -->
<g id="edge40" class="edge">
<title>20&#45;&gt;15</title>
<path fill="none" stroke="grey" stroke-width="2" d="M858.67,-215.87C866.71,-191.56 881.52,-146.82 891.06,-118.01"/>
<polygon fill="grey" stroke="grey" stroke-width="2" points="894.49,-118.78 894.31,-108.19 887.85,-116.58 894.49,-118.78"/>
</g>
<!-- 20&#45;&gt;21 -->
<g id="edge67" class="edge">
<title>20&#45;&gt;21</title>
<path fill="none" stroke="grey" stroke-width="2" d="M813.71,-220.13C809.1,-218.7 804.45,-217.29 800,-216 744.97,-200.04 680.93,-183.77 639.5,-173.55"/>
<polygon fill="grey" stroke="grey" stroke-width="2" points="640.28,-170.14 629.73,-171.15 638.6,-176.93 640.28,-170.14"/>
</g>
<!-- 21&#45;&gt;15 -->
<g id="edge43" class="edge">
<title>21&#45;&gt;15</title>
<path fill="none" stroke="grey" stroke-width="2" d="M629.69,-153.24C684.02,-140.73 791.12,-116.07 852.95,-101.83"/>
<polygon fill="grey" stroke="grey" stroke-width="2" points="853.88,-105.21 862.84,-99.56 852.31,-98.39 853.88,-105.21"/>
</g>
</g>
</svg>
