<?xml version="1.0" encoding="UTF-8" standalone="no"?>
<!DOCTYPE svg PUBLIC "-//W3C//DTD SVG 1.1//EN"
 "http://www.w3.org/Graphics/SVG/1.1/DTD/svg11.dtd">
<!-- Generated by graphviz version 8.0.5 (20230506.1012)
 -->
<!-- Title: snakemake_dag Pages: 1 -->
<svg width="1635pt" height="1124pt"
 viewBox="0.00 0.00 1634.81 1124.00" xmlns="http://www.w3.org/2000/svg" xmlns:xlink="http://www.w3.org/1999/xlink">
<g id="graph0" class="graph" transform="scale(1 1) rotate(0) translate(4 1120)">
<title>snakemake_dag</title>
<polygon fill="white" stroke="none" points="-4,4 -4,-1120 1630.81,-1120 1630.81,4 -4,4"/>
<!-- 0 -->
<g id="node1" class="node">
<title>0</title>
<path fill="none" stroke="#d87d56" stroke-width="2" d="M129,-36C129,-36 99,-36 99,-36 93,-36 87,-30 87,-24 87,-24 87,-12 87,-12 87,-6 93,0 99,0 99,0 129,0 129,0 135,0 141,-6 141,-12 141,-12 141,-24 141,-24 141,-30 135,-36 129,-36"/>
<text text-anchor="middle" x="114" y="-15.62" font-family="sans" font-size="10.00">all</text>
</g>
<!-- 1 -->
<g id="node2" class="node">
<title>1</title>
<path fill="none" stroke="#5692d8" stroke-width="2" d="M587.75,-756C587.75,-756 528.25,-756 528.25,-756 522.25,-756 516.25,-750 516.25,-744 516.25,-744 516.25,-732 516.25,-732 516.25,-726 522.25,-720 528.25,-720 528.25,-720 587.75,-720 587.75,-720 593.75,-720 599.75,-726 599.75,-732 599.75,-732 599.75,-744 599.75,-744 599.75,-750 593.75,-756 587.75,-756"/>
<text text-anchor="middle" x="558" y="-735.62" font-family="sans" font-size="10.00">variant_counts</text>
</g>
<!-- 1&#45;&gt;0 -->
<g id="edge1" class="edge">
<title>1&#45;&gt;0</title>
<path fill="none" stroke="grey" stroke-width="2" d="M515.6,-735.1C385.38,-726.78 0,-682.6 0,-451 0,-451 0,-451 0,-161 0,-111.51 42.64,-69.44 75.76,-44.23"/>
<polygon fill="grey" stroke="grey" stroke-width="2" points="78.11,-46.38 84.11,-37.65 73.98,-40.73 78.11,-46.38"/>
</g>
<!-- 9 -->
<g id="node10" class="node">
<title>9</title>
<path fill="none" stroke="#68d856" stroke-width="2" d="M495.25,-684C495.25,-684 396.75,-684 396.75,-684 390.75,-684 384.75,-678 384.75,-672 384.75,-672 384.75,-660 384.75,-660 384.75,-654 390.75,-648 396.75,-648 396.75,-648 495.25,-648 495.25,-648 501.25,-648 507.25,-654 507.25,-660 507.25,-660 507.25,-672 507.25,-672 507.25,-678 501.25,-684 495.25,-684"/>
<text text-anchor="middle" x="446" y="-663.62" font-family="sans" font-size="10.00">analyze_variant_counts</text>
</g>
<!-- 1&#45;&gt;9 -->
<g id="edge16" class="edge">
<title>1&#45;&gt;9</title>
<path fill="none" stroke="grey" stroke-width="2" d="M529.45,-719.15C516.02,-710.76 499.79,-700.62 485.24,-691.52"/>
<polygon fill="grey" stroke="grey" stroke-width="2" points="486.83,-688.14 476.5,-685.81 483.12,-694.08 486.83,-688.14"/>
</g>
<!-- 13 -->
<g id="node14" class="node">
<title>13</title>
<path fill="none" stroke="#56d87b" stroke-width="2" d="M841,-684C841,-684 795,-684 795,-684 789,-684 783,-678 783,-672 783,-672 783,-660 783,-660 783,-654 789,-648 795,-648 795,-648 841,-648 841,-648 847,-648 853,-654 853,-660 853,-660 853,-672 853,-672 853,-678 847,-684 841,-684"/>
<text text-anchor="middle" x="818" y="-663.62" font-family="sans" font-size="10.00">func_scores</text>
</g>
<!-- 1&#45;&gt;13 -->
<g id="edge25" class="edge">
<title>1&#45;&gt;13</title>
<path fill="none" stroke="grey" stroke-width="2" d="M600.64,-725.52C647.06,-713.02 721.14,-693.08 769.68,-680.01"/>
<polygon fill="grey" stroke="grey" stroke-width="2" points="771.29,-682.66 780.04,-676.68 769.47,-675.9 771.29,-682.66"/>
</g>
<!-- 16 -->
<g id="node17" class="node">
<title>16</title>
<path fill="none" stroke="#d8bc56" stroke-width="2" d="M632.25,-540C632.25,-540 581.75,-540 581.75,-540 575.75,-540 569.75,-534 569.75,-528 569.75,-528 569.75,-516 569.75,-516 569.75,-510 575.75,-504 581.75,-504 581.75,-504 632.25,-504 632.25,-504 638.25,-504 644.25,-510 644.25,-516 644.25,-516 644.25,-528 644.25,-528 644.25,-534 638.25,-540 632.25,-540"/>
<text text-anchor="middle" x="607" y="-519.62" font-family="sans" font-size="10.00">prob_escape</text>
</g>
<!-- 1&#45;&gt;16 -->
<g id="edge30" class="edge">
<title>1&#45;&gt;16</title>
<path fill="none" stroke="grey" stroke-width="2" d="M562.09,-719.12C570.47,-682.54 589.65,-598.77 600.03,-553.45"/>
<polygon fill="grey" stroke="grey" stroke-width="2" points="604.06,-553.51 602.88,-542.98 597.24,-551.94 604.06,-553.51"/>
</g>
<!-- 17 -->
<g id="node18" class="node">
<title>17</title>
<path fill="none" stroke="#56b9d8" stroke-width="2" d="M1135.5,-108C1135.5,-108 1086.5,-108 1086.5,-108 1080.5,-108 1074.5,-102 1074.5,-96 1074.5,-96 1074.5,-84 1074.5,-84 1074.5,-78 1080.5,-72 1086.5,-72 1086.5,-72 1135.5,-72 1135.5,-72 1141.5,-72 1147.5,-78 1147.5,-84 1147.5,-84 1147.5,-96 1147.5,-96 1147.5,-102 1141.5,-108 1135.5,-108"/>
<text text-anchor="middle" x="1111" y="-87.62" font-family="sans" font-size="10.00">sphinx_build</text>
</g>
<!-- 1&#45;&gt;17 -->
<g id="edge37" class="edge">
<title>1&#45;&gt;17</title>
<path fill="none" stroke="grey" stroke-width="2" d="M560.76,-719.19C564.76,-686.46 568.13,-616.43 532,-576 492.33,-531.62 453.37,-571.72 403,-540 295.06,-472.02 258.87,-443.41 214,-324 182.27,-239.55 309.48,-148.72 318,-144 382.81,-108.08 897.19,-95.13 1061.05,-91.89"/>
<polygon fill="grey" stroke="grey" stroke-width="2" points="1060.64,-95.34 1070.57,-91.64 1060.51,-88.34 1060.64,-95.34"/>
</g>
<!-- 25 -->
<g id="node26" class="node">
<title>25</title>
<path fill="none" stroke="#a7d856" stroke-width="2" d="M818.12,-180C818.12,-180 775.88,-180 775.88,-180 769.88,-180 763.88,-174 763.88,-168 763.88,-168 763.88,-156 763.88,-156 763.88,-150 769.88,-144 775.88,-144 775.88,-144 818.12,-144 818.12,-144 824.12,-144 830.12,-150 830.12,-156 830.12,-156 830.12,-168 830.12,-168 830.12,-174 824.12,-180 818.12,-180"/>
<text text-anchor="middle" x="797" y="-159.62" font-family="sans" font-size="10.00">docs_index</text>
</g>
<!-- 1&#45;&gt;25 -->
<g id="edge70" class="edge">
<title>1&#45;&gt;25</title>
<path fill="none" stroke="grey" stroke-width="2" d="M579.95,-719.14C628.36,-677.6 740,-569 740,-451 740,-451 740,-451 740,-305 740,-264.03 747.66,-253.57 764,-216 767.56,-207.81 772.24,-199.41 776.96,-191.78"/>
<polygon fill="grey" stroke="grey" stroke-width="2" points="780.5,-193.21 783,-182.91 774.63,-189.4 780.5,-193.21"/>
</g>
<!-- 2 -->
<g id="node3" class="node">
<title>2</title>
<path fill="none" stroke="#d85656" stroke-width="2" d="M588.38,-828C588.38,-828 523.62,-828 523.62,-828 517.62,-828 511.62,-822 511.62,-816 511.62,-816 511.62,-804 511.62,-804 511.62,-798 517.62,-792 523.62,-792 523.62,-792 588.38,-792 588.38,-792 594.38,-792 600.38,-798 600.38,-804 600.38,-804 600.38,-816 600.38,-816 600.38,-822 594.38,-828 588.38,-828"/>
<text text-anchor="middle" x="556" y="-807.62" font-family="sans" font-size="10.00">count_barcodes</text>
</g>
<!-- 2&#45;&gt;1 -->
<g id="edge7" class="edge">
<title>2&#45;&gt;1</title>
<path fill="none" stroke="grey" stroke-width="2" d="M556.5,-791.34C556.69,-784.75 556.91,-777.08 557.12,-769.67"/>
<polygon fill="grey" stroke="grey" stroke-width="2" points="560.7,-770 557.49,-759.9 553.7,-769.8 560.7,-770"/>
</g>
<!-- 2&#45;&gt;9 -->
<g id="edge17" class="edge">
<title>2&#45;&gt;9</title>
<path fill="none" stroke="grey" stroke-width="2" d="M538.54,-791.43C528.87,-781.37 516.85,-768.34 507,-756 491.57,-736.66 475.82,-713.59 464.2,-695.78"/>
<polygon fill="grey" stroke="grey" stroke-width="2" points="466.56,-693.44 458.19,-686.93 460.68,-697.23 466.56,-693.44"/>
</g>
<!-- 3 -->
<g id="node4" class="node">
<title>3</title>
<path fill="none" stroke="#56a9d8" stroke-width="2" d="M756.38,-900C756.38,-900 667.62,-900 667.62,-900 661.62,-900 655.62,-894 655.62,-888 655.62,-888 655.62,-876 655.62,-876 655.62,-870 661.62,-864 667.62,-864 667.62,-864 756.38,-864 756.38,-864 762.38,-864 768.38,-870 768.38,-876 768.38,-876 768.38,-888 768.38,-888 768.38,-894 762.38,-900 756.38,-900"/>
<text text-anchor="middle" x="712" y="-879.62" font-family="sans" font-size="10.00">build_codon_variants</text>
</g>
<!-- 3&#45;&gt;1 -->
<g id="edge6" class="edge">
<title>3&#45;&gt;1</title>
<path fill="none" stroke="grey" stroke-width="2" d="M692.5,-863.02C665.77,-838.37 617.56,-793.92 586.7,-765.47"/>
<polygon fill="grey" stroke="grey" stroke-width="2" points="589.07,-763.04 579.35,-758.84 584.32,-768.19 589.07,-763.04"/>
</g>
<!-- 3&#45;&gt;2 -->
<g id="edge9" class="edge">
<title>3&#45;&gt;2</title>
<path fill="none" stroke="grey" stroke-width="2" d="M672.23,-863.15C652.6,-854.34 628.66,-843.61 607.63,-834.17"/>
<polygon fill="grey" stroke="grey" stroke-width="2" points="608.52,-830.83 597.97,-829.93 605.66,-837.22 608.52,-830.83"/>
</g>
<!-- 3&#45;&gt;9 -->
<g id="edge18" class="edge">
<title>3&#45;&gt;9</title>
<path fill="none" stroke="grey" stroke-width="2" d="M654.65,-880.59C608.35,-877.27 544.33,-865.46 503,-828 465.6,-794.1 452.73,-734.08 448.31,-697.68"/>
<polygon fill="grey" stroke="grey" stroke-width="2" points="451.51,-697.57 447,-687.99 444.55,-698.3 451.51,-697.57"/>
</g>
<!-- 3&#45;&gt;13 -->
<g id="edge24" class="edge">
<title>3&#45;&gt;13</title>
<path fill="none" stroke="grey" stroke-width="2" d="M729.05,-863.46C737.94,-853.63 748.5,-840.79 756,-828 781.14,-785.11 799.74,-730.17 809.72,-696.82"/>
<polygon fill="grey" stroke="grey" stroke-width="2" points="813.79,-697.34 813.23,-686.76 807.07,-695.38 813.79,-697.34"/>
</g>
<!-- 3&#45;&gt;16 -->
<g id="edge31" class="edge">
<title>3&#45;&gt;16</title>
<path fill="none" stroke="grey" stroke-width="2" d="M710.15,-863.12C704.72,-814.99 686.27,-679.38 642,-576 638.38,-567.56 633.41,-558.99 628.36,-551.29"/>
<polygon fill="grey" stroke="grey" stroke-width="2" points="630.6,-548.94 622.03,-542.72 624.85,-552.93 630.6,-548.94"/>
</g>
<!-- 3&#45;&gt;17 -->
<g id="edge33" class="edge">
<title>3&#45;&gt;17</title>
<path fill="none" stroke="grey" stroke-width="2" d="M734.73,-863.04C816.91,-798.12 1094.11,-579.17 1099,-576 1177.97,-524.76 1474,-473.13 1474,-379 1474,-379 1474,-379 1474,-233 1474,-186.03 1456.13,-169.99 1417,-144 1375.9,-116.7 1237.18,-101.35 1161.42,-94.81"/>
<polygon fill="grey" stroke="grey" stroke-width="2" points="1161.74,-91.08 1151.49,-93.73 1161.16,-98.05 1161.74,-91.08"/>
</g>
<!-- 21 -->
<g id="node22" class="node">
<title>21</title>
<path fill="none" stroke="#56d86b" stroke-width="2" d="M954.88,-324C954.88,-324 905.12,-324 905.12,-324 899.12,-324 893.12,-318 893.12,-312 893.12,-312 893.12,-300 893.12,-300 893.12,-294 899.12,-288 905.12,-288 905.12,-288 954.88,-288 954.88,-288 960.88,-288 966.88,-294 966.88,-300 966.88,-300 966.88,-312 966.88,-312 966.88,-318 960.88,-324 954.88,-324"/>
<text text-anchor="middle" x="930" y="-303.62" font-family="sans" font-size="10.00">make_nblink</text>
</g>
<!-- 3&#45;&gt;21 -->
<g id="edge54" class="edge">
<title>3&#45;&gt;21</title>
<path fill="none" stroke="grey" stroke-width="2" d="M715.67,-863.15C724.01,-823.71 745.86,-726.4 774,-648 816.72,-528.97 884.42,-394.25 914.6,-336.18"/>
<polygon fill="grey" stroke="grey" stroke-width="2" points="918.09,-337.15 919.62,-326.67 911.88,-333.91 918.09,-337.15"/>
</g>
<!-- 3&#45;&gt;25 -->
<g id="edge66" class="edge">
<title>3&#45;&gt;25</title>
<path fill="none" stroke="grey" stroke-width="2" d="M655.06,-881.19C527.11,-878.34 228,-851.9 228,-667 228,-667 228,-667 228,-377 228,-231.32 411.6,-335.46 531,-252 548.79,-239.56 545.23,-226.9 564,-216 580.02,-206.69 687.2,-184.56 750.47,-172.03"/>
<polygon fill="grey" stroke="grey" stroke-width="2" points="751.74,-174.96 760.88,-169.59 750.39,-168.09 751.74,-174.96"/>
</g>
<!-- 4 -->
<g id="node5" class="node">
<title>4</title>
<path fill="none" stroke="#567bd8" stroke-width="2" d="M971.75,-972C971.75,-972 870.25,-972 870.25,-972 864.25,-972 858.25,-966 858.25,-960 858.25,-960 858.25,-948 858.25,-948 858.25,-942 864.25,-936 870.25,-936 870.25,-936 971.75,-936 971.75,-936 977.75,-936 983.75,-942 983.75,-948 983.75,-948 983.75,-960 983.75,-960 983.75,-966 977.75,-972 971.75,-972"/>
<text text-anchor="middle" x="921" y="-951.62" font-family="sans" font-size="10.00">build_pacbio_consensus</text>
</g>
<!-- 4&#45;&gt;3 -->
<g id="edge10" class="edge">
<title>4&#45;&gt;3</title>
<path fill="none" stroke="grey" stroke-width="2" d="M867.45,-935.06C840.04,-925.88 806.44,-914.63 777.5,-904.94"/>
<polygon fill="grey" stroke="grey" stroke-width="2" points="778.01,-900.75 767.41,-900.89 775.78,-907.38 778.01,-900.75"/>
</g>
<!-- 4&#45;&gt;17 -->
<g id="edge42" class="edge">
<title>4&#45;&gt;17</title>
<path fill="none" stroke="grey" stroke-width="2" d="M928.16,-935.06C949.12,-884.45 1014.74,-738.3 1108,-648 1262.97,-497.94 1512,-594.72 1512,-379 1512,-379 1512,-379 1512,-233 1512,-185.3 1492.27,-169.58 1452,-144 1404.64,-113.92 1244.08,-99.49 1161.29,-93.9"/>
<polygon fill="grey" stroke="grey" stroke-width="2" points="1161.67,-90.23 1151.46,-93.07 1161.21,-97.21 1161.67,-90.23"/>
</g>
<!-- 4&#45;&gt;21 -->
<g id="edge58" class="edge">
<title>4&#45;&gt;21</title>
<path fill="none" stroke="grey" stroke-width="2" d="M923.28,-935.1C926.5,-908.21 932,-855.76 932,-811 932,-811 932,-811 932,-665 932,-543.91 930.84,-399.78 930.29,-337.82"/>
<polygon fill="grey" stroke="grey" stroke-width="2" points="933.76,-337.85 930.17,-327.88 926.76,-337.91 933.76,-337.85"/>
</g>
<!-- 4&#45;&gt;25 -->
<g id="edge75" class="edge">
<title>4&#45;&gt;25</title>
<path fill="none" stroke="grey" stroke-width="2" d="M915.41,-935.27C907.5,-908.6 894,-856.42 894,-811 894,-811 894,-811 894,-665 894,-508.37 828.79,-478.82 805,-324 798.08,-278.98 796.73,-226.13 796.66,-193.6"/>
<polygon fill="grey" stroke="grey" stroke-width="2" points="800.16,-194 796.69,-183.99 793.16,-193.98 800.16,-194"/>
</g>
<!-- 5 -->
<g id="node6" class="node">
<title>5</title>
<path fill="none" stroke="#566bd8" stroke-width="2" d="M1180.5,-1044C1180.5,-1044 1101.5,-1044 1101.5,-1044 1095.5,-1044 1089.5,-1038 1089.5,-1032 1089.5,-1032 1089.5,-1020 1089.5,-1020 1089.5,-1014 1095.5,-1008 1101.5,-1008 1101.5,-1008 1180.5,-1008 1180.5,-1008 1186.5,-1008 1192.5,-1014 1192.5,-1020 1192.5,-1020 1192.5,-1032 1192.5,-1032 1192.5,-1038 1186.5,-1044 1180.5,-1044"/>
<text text-anchor="middle" x="1141" y="-1023.62" font-family="sans" font-size="10.00">analyze_pacbio_ccs</text>
</g>
<!-- 5&#45;&gt;4 -->
<g id="edge12" class="edge">
<title>5&#45;&gt;4</title>
<path fill="none" stroke="grey" stroke-width="2" d="M1088.58,-1008.32C1058.83,-998.86 1021.25,-986.9 989.23,-976.71"/>
<polygon fill="grey" stroke="grey" stroke-width="2" points="989.84,-972.59 979.25,-972.9 987.72,-979.26 989.84,-972.59"/>
</g>
<!-- 5&#45;&gt;17 -->
<g id="edge44" class="edge">
<title>5&#45;&gt;17</title>
<path fill="none" stroke="grey" stroke-width="2" d="M1193.36,-1020.84C1318.77,-1009.44 1626,-972.38 1626,-883 1626,-883 1626,-883 1626,-233 1626,-192.03 1633.14,-170.63 1602,-144 1568.94,-115.73 1279.77,-98.98 1161.29,-93.24"/>
<polygon fill="grey" stroke="grey" stroke-width="2" points="1161.54,-89.61 1151.38,-92.63 1161.2,-96.6 1161.54,-89.61"/>
</g>
<!-- 5&#45;&gt;21 -->
<g id="edge59" class="edge">
<title>5&#45;&gt;21</title>
<path fill="none" stroke="grey" stroke-width="2" d="M1144.94,-1007.17C1150.5,-980.36 1160,-928.02 1160,-883 1160,-883 1160,-883 1160,-593 1160,-563.02 1045.35,-381.04 1024,-360 1011.11,-347.3 994.57,-336.64 978.97,-328.29"/>
<polygon fill="grey" stroke="grey" stroke-width="2" points="980.34,-325.04 969.84,-323.62 977.16,-331.28 980.34,-325.04"/>
</g>
<!-- 5&#45;&gt;25 -->
<g id="edge77" class="edge">
<title>5&#45;&gt;25</title>
<path fill="none" stroke="grey" stroke-width="2" d="M1133.58,-1007.1C1098.66,-922.65 947.33,-555.59 830,-252 822.43,-232.4 814.21,-210.25 807.87,-192.95"/>
<polygon fill="grey" stroke="grey" stroke-width="2" points="811.15,-190.98 804.43,-182.78 804.57,-193.38 811.15,-190.98"/>
</g>
<!-- 6 -->
<g id="node7" class="node">
<title>6</title>
<path fill="none" stroke="#b6d856" stroke-width="2" d="M1189.88,-1116C1189.88,-1116 1092.12,-1116 1092.12,-1116 1086.12,-1116 1080.12,-1110 1080.12,-1104 1080.12,-1104 1080.12,-1092 1080.12,-1092 1080.12,-1086 1086.12,-1080 1092.12,-1080 1092.12,-1080 1189.88,-1080 1189.88,-1080 1195.88,-1080 1201.88,-1086 1201.88,-1092 1201.88,-1092 1201.88,-1104 1201.88,-1104 1201.88,-1110 1195.88,-1116 1189.88,-1116"/>
<text text-anchor="middle" x="1141" y="-1095.62" font-family="sans" font-size="10.00">align_parse_PacBio_ccs</text>
</g>
<!-- 6&#45;&gt;5 -->
<g id="edge14" class="edge">
<title>6&#45;&gt;5</title>
<path fill="none" stroke="grey" stroke-width="2" d="M1141,-1079.34C1141,-1072.75 1141,-1065.08 1141,-1057.67"/>
<polygon fill="grey" stroke="grey" stroke-width="2" points="1144.5,-1057.9 1141,-1047.9 1137.5,-1057.9 1144.5,-1057.9"/>
</g>
<!-- 7 -->
<g id="node8" class="node">
<title>7</title>
<path fill="none" stroke="#59d856" stroke-width="2" d="M702.75,-1044C702.75,-1044 637.25,-1044 637.25,-1044 631.25,-1044 625.25,-1038 625.25,-1032 625.25,-1032 625.25,-1020 625.25,-1020 625.25,-1014 631.25,-1008 637.25,-1008 637.25,-1008 702.75,-1008 702.75,-1008 708.75,-1008 714.75,-1014 714.75,-1020 714.75,-1020 714.75,-1032 714.75,-1032 714.75,-1038 708.75,-1044 702.75,-1044"/>
<text text-anchor="middle" x="670" y="-1023.62" font-family="sans" font-size="10.00">gene_sequence</text>
</g>
<!-- 7&#45;&gt;1 -->
<g id="edge8" class="edge">
<title>7&#45;&gt;1</title>
<path fill="none" stroke="grey" stroke-width="2" d="M646.04,-1007.08C606.68,-975.9 530.04,-907.37 503,-828 497.84,-812.85 496.74,-806.72 503,-792 507.2,-782.11 514.26,-773.17 521.94,-765.57"/>
<polygon fill="grey" stroke="grey" stroke-width="2" points="524.38,-768.28 529.47,-758.99 519.69,-763.08 524.38,-768.28"/>
</g>
<!-- 7&#45;&gt;3 -->
<g id="edge11" class="edge">
<title>7&#45;&gt;3</title>
<path fill="none" stroke="grey" stroke-width="2" d="M675.32,-1007.02C682.29,-983.44 694.63,-941.73 703.05,-913.25"/>
<polygon fill="grey" stroke="grey" stroke-width="2" points="707.24,-913.42 706.72,-902.84 700.53,-911.43 707.24,-913.42"/>
</g>
<!-- 7&#45;&gt;4 -->
<g id="edge13" class="edge">
<title>7&#45;&gt;4</title>
<path fill="none" stroke="grey" stroke-width="2" d="M715.75,-1012.24C751.83,-1002.18 802.94,-987.93 845.13,-976.16"/>
<polygon fill="grey" stroke="grey" stroke-width="2" points="846.93,-978.73 855.62,-972.68 845.05,-971.99 846.93,-978.73"/>
</g>
<!-- 7&#45;&gt;9 -->
<g id="edge19" class="edge">
<title>7&#45;&gt;9</title>
<path fill="none" stroke="grey" stroke-width="2" d="M624.44,-1018.85C518.79,-1003.31 266,-958.27 266,-883 266,-883 266,-883 266,-809 266,-749.86 326.64,-711.53 377.53,-689.78"/>
<polygon fill="grey" stroke="grey" stroke-width="2" points="379.61,-692.89 387.54,-685.87 376.96,-686.41 379.61,-692.89"/>
</g>
<!-- 7&#45;&gt;13 -->
<g id="edge26" class="edge">
<title>7&#45;&gt;13</title>
<path fill="none" stroke="grey" stroke-width="2" d="M711.23,-1007.01C755.02,-984.78 818,-942.47 818,-883 818,-883 818,-883 818,-809 818,-770.65 818,-726.48 818,-697.72"/>
<polygon fill="grey" stroke="grey" stroke-width="2" points="821.5,-697.93 818,-687.93 814.5,-697.93 821.5,-697.93"/>
</g>
<!-- 7&#45;&gt;16 -->
<g id="edge32" class="edge">
<title>7&#45;&gt;16</title>
<path fill="none" stroke="grey" stroke-width="2" d="M661.09,-1007.12C648.76,-980.68 628,-929.28 628,-883 628,-883 628,-883 628,-665 628,-626.06 620.18,-581.75 614.08,-553.14"/>
<polygon fill="grey" stroke="grey" stroke-width="2" points="616.93,-551.82 611.35,-542.81 610.09,-553.33 616.93,-551.82"/>
</g>
<!-- 7&#45;&gt;17 -->
<g id="edge36" class="edge">
<title>7&#45;&gt;17</title>
<path fill="none" stroke="grey" stroke-width="2" d="M715.57,-1021.55C793.09,-1015.03 946.7,-999.06 993,-972 1072.16,-925.73 1122,-902.69 1122,-811 1122,-811 1122,-811 1122,-737 1122,-577.86 1292.03,-633.24 1421,-540 1462.79,-509.78 1474.86,-503.78 1512,-468 1549.46,-431.91 1588,-431.02 1588,-379 1588,-379 1588,-379 1588,-233 1588,-173.17 1541.35,-169.01 1487,-144 1429.96,-117.76 1249.65,-101.23 1161.08,-94.48"/>
<polygon fill="grey" stroke="grey" stroke-width="2" points="1161.43,-90.77 1151.2,-93.52 1160.91,-97.76 1161.43,-90.77"/>
</g>
<!-- 7&#45;&gt;25 -->
<g id="edge69" class="edge">
<title>7&#45;&gt;25</title>
<path fill="none" stroke="grey" stroke-width="2" d="M624.29,-1024.5C479.12,-1021.69 38,-1003.26 38,-883 38,-883 38,-883 38,-377 38,-228.21 585.19,-177.81 750.35,-165.98"/>
<polygon fill="grey" stroke="grey" stroke-width="2" points="750.18,-169.3 759.91,-165.11 749.69,-162.31 750.18,-169.3"/>
</g>
<!-- 8 -->
<g id="node9" class="node">
<title>8</title>
<path fill="none" stroke="#56d892" stroke-width="2" d="M511.5,-612C511.5,-612 372.5,-612 372.5,-612 366.5,-612 360.5,-606 360.5,-600 360.5,-600 360.5,-588 360.5,-588 360.5,-582 366.5,-576 372.5,-576 372.5,-576 511.5,-576 511.5,-576 517.5,-576 523.5,-582 523.5,-588 523.5,-588 523.5,-600 523.5,-600 523.5,-606 517.5,-612 511.5,-612"/>
<text text-anchor="middle" x="442" y="-591.62" font-family="sans" font-size="10.00">check_adequate_variant_counts</text>
</g>
<!-- 8&#45;&gt;0 -->
<g id="edge3" class="edge">
<title>8&#45;&gt;0</title>
<path fill="none" stroke="grey" stroke-width="2" d="M377.41,-575C272.34,-541.34 76,-458.2 76,-307 76,-307 76,-307 76,-161 76,-121.16 90.13,-77.11 101.15,-48.8"/>
<polygon fill="grey" stroke="grey" stroke-width="2" points="104.44,-49.55 104.94,-38.97 97.95,-46.93 104.44,-49.55"/>
</g>
<!-- 8&#45;&gt;16 -->
<g id="edge29" class="edge">
<title>8&#45;&gt;16</title>
<path fill="none" stroke="grey" stroke-width="2" d="M484.06,-575.15C506.34,-565.7 533.85,-554.04 557.19,-544.13"/>
<polygon fill="grey" stroke="grey" stroke-width="2" points="559.12,-547.26 566.96,-540.14 556.39,-540.82 559.12,-547.26"/>
</g>
<!-- 9&#45;&gt;8 -->
<g id="edge15" class="edge">
<title>9&#45;&gt;8</title>
<path fill="none" stroke="grey" stroke-width="2" d="M444.99,-647.34C444.61,-640.75 444.18,-633.08 443.75,-625.67"/>
<polygon fill="grey" stroke="grey" stroke-width="2" points="447.09,-625.69 443.02,-615.9 440.1,-626.09 447.09,-625.69"/>
</g>
<!-- 9&#45;&gt;17 -->
<g id="edge35" class="edge">
<title>9&#45;&gt;17</title>
<path fill="none" stroke="grey" stroke-width="2" d="M383.94,-651.76C287.85,-629.45 114,-581.07 114,-523 114,-523 114,-523 114,-305 114,-228.32 111.48,-185.44 176,-144 250.61,-96.08 877.11,-91.34 1060.66,-90.99"/>
<polygon fill="grey" stroke="grey" stroke-width="2" points="1060.6,-94.49 1070.59,-90.97 1060.59,-87.49 1060.6,-94.49"/>
</g>
<!-- 9&#45;&gt;21 -->
<g id="edge55" class="edge">
<title>9&#45;&gt;21</title>
<path fill="none" stroke="grey" stroke-width="2" d="M479.27,-647.03C521.03,-624.01 594.29,-582.03 653,-540 748.85,-471.39 852.95,-378.23 901.75,-333.33"/>
<polygon fill="grey" stroke="grey" stroke-width="2" points="904.06,-336.12 909.03,-326.76 899.31,-330.98 904.06,-336.12"/>
</g>
<!-- 9&#45;&gt;25 -->
<g id="edge68" class="edge">
<title>9&#45;&gt;25</title>
<path fill="none" stroke="grey" stroke-width="2" d="M391.82,-647.09C375.84,-639 360.18,-627.63 351,-612 342.9,-598.2 340.99,-588.48 351,-576 397.15,-518.47 461.12,-592.43 513,-540 570.51,-481.88 511.19,-431.41 551,-360 597.36,-276.84 694.36,-215.71 751.73,-185.09"/>
<polygon fill="grey" stroke="grey" stroke-width="2" points="753.76,-187.93 761,-180.19 750.51,-181.73 753.76,-187.93"/>
</g>
<!-- 10 -->
<g id="node11" class="node">
<title>10</title>
<path fill="none" stroke="#d86e56" stroke-width="2" d="M454.12,-396C454.12,-396 363.88,-396 363.88,-396 357.88,-396 351.88,-390 351.88,-384 351.88,-384 351.88,-372 351.88,-372 351.88,-366 357.88,-360 363.88,-360 363.88,-360 454.12,-360 454.12,-360 460.12,-360 466.12,-366 466.12,-372 466.12,-372 466.12,-384 466.12,-384 466.12,-390 460.12,-396 454.12,-396"/>
<text text-anchor="middle" x="409" y="-375.62" font-family="sans" font-size="10.00">avg_antibody_escape</text>
</g>
<!-- 10&#45;&gt;0 -->
<g id="edge2" class="edge">
<title>10&#45;&gt;0</title>
<path fill="none" stroke="grey" stroke-width="2" d="M387.74,-359.08C376.06,-349.02 361.47,-336.1 349,-324 286.06,-262.89 267.4,-249.6 214,-180 180.46,-136.29 148.02,-80.88 129.58,-47.78"/>
<polygon fill="grey" stroke="grey" stroke-width="2" points="132.34,-45.72 124.45,-38.66 126.21,-49.1 132.34,-45.72"/>
</g>
<!-- 10&#45;&gt;17 -->
<g id="edge40" class="edge">
<title>10&#45;&gt;17</title>
<path fill="none" stroke="grey" stroke-width="2" d="M392.89,-359.44C384.54,-349.6 374.71,-336.77 368,-324 352.37,-294.26 350.17,-285.19 345,-252 336.61,-198.17 354.77,-169.34 403,-144 460.86,-113.6 908.84,-97.19 1060.78,-92.46"/>
<polygon fill="grey" stroke="grey" stroke-width="2" points="1060.82,-95.87 1070.71,-92.06 1060.61,-88.87 1060.82,-95.87"/>
</g>
<!-- 10&#45;&gt;21 -->
<g id="edge56" class="edge">
<title>10&#45;&gt;21</title>
<path fill="none" stroke="grey" stroke-width="2" d="M467,-369.21C569.82,-355.39 782.39,-326.83 879.55,-313.78"/>
<polygon fill="grey" stroke="grey" stroke-width="2" points="879.75,-316.88 889.2,-312.08 878.82,-309.94 879.75,-316.88"/>
</g>
<!-- 24 -->
<g id="node25" class="node">
<title>24</title>
<path fill="none" stroke="#80d856" stroke-width="2" d="M510.25,-252C510.25,-252 381.75,-252 381.75,-252 375.75,-252 369.75,-246 369.75,-240 369.75,-240 369.75,-228 369.75,-228 369.75,-222 375.75,-216 381.75,-216 381.75,-216 510.25,-216 510.25,-216 516.25,-216 522.25,-222 522.25,-228 522.25,-228 522.25,-240 522.25,-240 522.25,-246 516.25,-252 510.25,-252"/>
<text text-anchor="middle" x="446" y="-231.62" font-family="sans" font-size="10.00">format_antibody_escape_plot</text>
</g>
<!-- 10&#45;&gt;24 -->
<g id="edge65" class="edge">
<title>10&#45;&gt;24</title>
<path fill="none" stroke="grey" stroke-width="2" d="M413.69,-359.02C419.83,-335.44 430.7,-293.73 438.12,-265.25"/>
<polygon fill="grey" stroke="grey" stroke-width="2" points="442.22,-265.4 441.35,-254.84 435.44,-263.63 442.22,-265.4"/>
</g>
<!-- 10&#45;&gt;25 -->
<g id="edge73" class="edge">
<title>10&#45;&gt;25</title>
<path fill="none" stroke="grey" stroke-width="2" d="M430.94,-359.22C481.35,-318.43 601.9,-221.19 612,-216 656.35,-193.2 711.88,-178.97 750.47,-171.07"/>
<polygon fill="grey" stroke="grey" stroke-width="2" points="751.98,-173.94 761.12,-168.58 750.63,-167.08 751.98,-173.94"/>
</g>
<!-- 11 -->
<g id="node12" class="node">
<title>11</title>
<path fill="none" stroke="#56d8a9" stroke-width="2" d="M1190,-468C1190,-468 1126,-468 1126,-468 1120,-468 1114,-462 1114,-456 1114,-456 1114,-444 1114,-444 1114,-438 1120,-432 1126,-432 1126,-432 1190,-432 1190,-432 1196,-432 1202,-438 1202,-444 1202,-444 1202,-456 1202,-456 1202,-462 1196,-468 1190,-468"/>
<text text-anchor="middle" x="1158" y="-447.62" font-family="sans" font-size="10.00">avg_muteffects</text>
</g>
<!-- 11&#45;&gt;0 -->
<g id="edge4" class="edge">
<title>11&#45;&gt;0</title>
<path fill="none" stroke="grey" stroke-width="2" d="M1202.97,-442.47C1305.93,-426.25 1550,-380.11 1550,-307 1550,-307 1550,-307 1550,-161 1550,-16.77 387.97,-17.12 154.55,-18.64"/>
<polygon fill="grey" stroke="grey" stroke-width="2" points="154.7,-15.16 144.72,-18.74 154.75,-22.16 154.7,-15.16"/>
</g>
<!-- 11&#45;&gt;10 -->
<g id="edge21" class="edge">
<title>11&#45;&gt;10</title>
<path fill="none" stroke="grey" stroke-width="2" d="M1113.03,-445.57C1012.29,-437.78 760.92,-417.72 551,-396 527.77,-393.6 502.44,-390.66 479.69,-387.92"/>
<polygon fill="grey" stroke="grey" stroke-width="2" points="480.34,-384.1 469.99,-386.37 479.49,-391.05 480.34,-384.1"/>
</g>
<!-- 11&#45;&gt;17 -->
<g id="edge47" class="edge">
<title>11&#45;&gt;17</title>
<path fill="none" stroke="grey" stroke-width="2" d="M1202.86,-443.01C1272.33,-430.93 1398,-396.69 1398,-307 1398,-307 1398,-307 1398,-233 1398,-128.49 1243.24,-100.9 1161.01,-93.61"/>
<polygon fill="grey" stroke="grey" stroke-width="2" points="1161.47,-89.9 1151.23,-92.59 1160.92,-96.88 1161.47,-89.9"/>
</g>
<!-- 11&#45;&gt;21 -->
<g id="edge61" class="edge">
<title>11&#45;&gt;21</title>
<path fill="none" stroke="grey" stroke-width="2" d="M1150.08,-431.34C1140.2,-411.24 1121.46,-378.78 1096,-360 1086.38,-352.9 1025.3,-334.35 980.01,-321.2"/>
<polygon fill="grey" stroke="grey" stroke-width="2" points="980.29,-317.06 969.71,-317.65 978.35,-323.79 980.29,-317.06"/>
</g>
<!-- 22 -->
<g id="node23" class="node">
<title>22</title>
<path fill="none" stroke="#d8a456" stroke-width="2" d="M1320.12,-252C1320.12,-252 1217.88,-252 1217.88,-252 1211.88,-252 1205.88,-246 1205.88,-240 1205.88,-240 1205.88,-228 1205.88,-228 1205.88,-222 1211.88,-216 1217.88,-216 1217.88,-216 1320.12,-216 1320.12,-216 1326.12,-216 1332.12,-222 1332.12,-228 1332.12,-228 1332.12,-240 1332.12,-240 1332.12,-246 1326.12,-252 1320.12,-252"/>
<text text-anchor="middle" x="1269" y="-231.62" font-family="sans" font-size="10.00">format_muteffects_plot</text>
</g>
<!-- 11&#45;&gt;22 -->
<g id="edge64" class="edge">
<title>11&#45;&gt;22</title>
<path fill="none" stroke="grey" stroke-width="2" d="M1202.79,-446.1C1237.01,-441.26 1282.08,-428.63 1305,-396 1333.03,-356.1 1307.85,-298.06 1287.84,-263.66"/>
<polygon fill="grey" stroke="grey" stroke-width="2" points="1290.53,-261.68 1282.34,-254.96 1284.54,-265.32 1290.53,-261.68"/>
</g>
<!-- 11&#45;&gt;25 -->
<g id="edge80" class="edge">
<title>11&#45;&gt;25</title>
<path fill="none" stroke="grey" stroke-width="2" d="M1154.03,-431.27C1149.31,-412.55 1140.23,-382.67 1126,-360 1090.24,-303.04 1066.29,-300.8 1020,-252 1005.06,-236.25 1005.5,-227.35 987,-216 942.59,-188.74 883.84,-175.16 843.5,-168.63"/>
<polygon fill="grey" stroke="grey" stroke-width="2" points="843.24,-164.75 832.83,-166.71 842.19,-171.67 843.24,-164.75"/>
</g>
<!-- 12 -->
<g id="node13" class="node">
<title>12</title>
<path fill="none" stroke="#ced856" stroke-width="2" d="M1081.5,-540C1081.5,-540 1008.5,-540 1008.5,-540 1002.5,-540 996.5,-534 996.5,-528 996.5,-528 996.5,-516 996.5,-516 996.5,-510 1002.5,-504 1008.5,-504 1008.5,-504 1081.5,-504 1081.5,-504 1087.5,-504 1093.5,-510 1093.5,-516 1093.5,-516 1093.5,-528 1093.5,-528 1093.5,-534 1087.5,-540 1081.5,-540"/>
<text text-anchor="middle" x="1045" y="-519.62" font-family="sans" font-size="10.00">fit_globalepistasis</text>
</g>
<!-- 12&#45;&gt;11 -->
<g id="edge22" class="edge">
<title>12&#45;&gt;11</title>
<path fill="none" stroke="grey" stroke-width="2" d="M1073.81,-503.15C1087.35,-494.76 1103.72,-484.62 1118.41,-475.52"/>
<polygon fill="grey" stroke="grey" stroke-width="2" points="1120.59,-478.05 1127.25,-469.81 1116.9,-472.1 1120.59,-478.05"/>
</g>
<!-- 12&#45;&gt;17 -->
<g id="edge41" class="edge">
<title>12&#45;&gt;17</title>
<path fill="none" stroke="grey" stroke-width="2" d="M1094.12,-505.81C1199.14,-473 1436,-396.99 1436,-379 1436,-379 1436,-379 1436,-233 1436,-114.45 1252.17,-93.9 1161.02,-91"/>
<polygon fill="grey" stroke="grey" stroke-width="2" points="1161.36,-87.43 1151.28,-90.69 1161.19,-94.43 1161.36,-87.43"/>
</g>
<!-- 12&#45;&gt;21 -->
<g id="edge57" class="edge">
<title>12&#45;&gt;21</title>
<path fill="none" stroke="grey" stroke-width="2" d="M1043.92,-503.49C1041.22,-472.14 1032,-405.5 1001,-360 993.72,-349.32 983.58,-339.95 973.23,-332.17"/>
<polygon fill="grey" stroke="grey" stroke-width="2" points="975.11,-328.81 964.91,-325.93 971.09,-334.54 975.11,-328.81"/>
</g>
<!-- 12&#45;&gt;25 -->
<g id="edge74" class="edge">
<title>12&#45;&gt;25</title>
<path fill="none" stroke="grey" stroke-width="2" d="M1033.29,-503.15C1021.08,-484.84 1001.08,-455.77 982,-432 941.42,-381.46 920.61,-377.48 884,-324 853.69,-279.72 856.21,-262.83 830,-216 825.52,-207.99 820.39,-199.49 815.54,-191.68"/>
<polygon fill="grey" stroke="grey" stroke-width="2" points="818.03,-189.49 809.73,-182.9 812.11,-193.23 818.03,-189.49"/>
</g>
<!-- 13&#45;&gt;12 -->
<g id="edge23" class="edge">
<title>13&#45;&gt;12</title>
<path fill="none" stroke="grey" stroke-width="2" d="M846.75,-647.02C887,-621.84 960.3,-575.99 1005.61,-547.64"/>
<polygon fill="grey" stroke="grey" stroke-width="2" points="1007.86,-550.11 1014.48,-541.84 1004.15,-544.17 1007.86,-550.11"/>
</g>
<!-- 18 -->
<g id="node19" class="node">
<title>18</title>
<path fill="none" stroke="#8fd856" stroke-width="2" d="M1283.5,-396C1283.5,-396 1198.5,-396 1198.5,-396 1192.5,-396 1186.5,-390 1186.5,-384 1186.5,-384 1186.5,-372 1186.5,-372 1186.5,-366 1192.5,-360 1198.5,-360 1198.5,-360 1283.5,-360 1283.5,-360 1289.5,-360 1295.5,-366 1295.5,-372 1295.5,-372 1295.5,-384 1295.5,-384 1295.5,-390 1289.5,-396 1283.5,-396"/>
<text text-anchor="middle" x="1241" y="-375.62" font-family="sans" font-size="10.00">analyze_func_scores</text>
</g>
<!-- 13&#45;&gt;18 -->
<g id="edge51" class="edge">
<title>13&#45;&gt;18</title>
<path fill="none" stroke="grey" stroke-width="2" d="M834.32,-647.3C863.45,-616.25 927.07,-550.8 988,-504 1036.42,-466.81 1050.33,-459.2 1105,-432 1127.69,-420.71 1153.42,-410.15 1176.33,-401.48"/>
<polygon fill="grey" stroke="grey" stroke-width="2" points="1178.24,-404.76 1186.39,-397.99 1175.79,-398.2 1178.24,-404.76"/>
</g>
<!-- 14 -->
<g id="node15" class="node">
<title>14</title>
<path fill="none" stroke="#56d8d0" stroke-width="2" d="M488,-468C488,-468 436,-468 436,-468 430,-468 424,-462 424,-456 424,-456 424,-444 424,-444 424,-438 430,-432 436,-432 436,-432 488,-432 488,-432 494,-432 500,-438 500,-444 500,-444 500,-456 500,-456 500,-462 494,-468 488,-468"/>
<text text-anchor="middle" x="462" y="-447.62" font-family="sans" font-size="10.00">fit_polyclonal</text>
</g>
<!-- 14&#45;&gt;10 -->
<g id="edge20" class="edge">
<title>14&#45;&gt;10</title>
<path fill="none" stroke="grey" stroke-width="2" d="M448.63,-431.34C443.08,-424.01 436.51,-415.34 430.33,-407.18"/>
<polygon fill="grey" stroke="grey" stroke-width="2" points="432.38,-404.76 423.55,-398.9 426.8,-408.99 432.38,-404.76"/>
</g>
<!-- 14&#45;&gt;17 -->
<g id="edge46" class="edge">
<title>14&#45;&gt;17</title>
<path fill="none" stroke="grey" stroke-width="2" d="M423.08,-442.81C395.68,-436.23 360.83,-422.85 343,-396 280.97,-302.62 270.04,-218.29 354,-144 406.78,-97.3 900.23,-91.64 1060.79,-91.04"/>
<polygon fill="grey" stroke="grey" stroke-width="2" points="1060.53,-94.53 1070.52,-91 1060.51,-87.53 1060.53,-94.53"/>
</g>
<!-- 14&#45;&gt;21 -->
<g id="edge63" class="edge">
<title>14&#45;&gt;21</title>
<path fill="none" stroke="grey" stroke-width="2" d="M500.93,-441.91C545.56,-433.26 620.6,-417.15 683,-396 720.31,-383.35 727.18,-374.01 764,-360 802.48,-345.35 846.97,-331.3 880.2,-321.35"/>
<polygon fill="grey" stroke="grey" stroke-width="2" points="881.76,-323.94 890.35,-317.74 879.77,-317.23 881.76,-323.94"/>
</g>
<!-- 14&#45;&gt;25 -->
<g id="edge79" class="edge">
<title>14&#45;&gt;25</title>
<path fill="none" stroke="grey" stroke-width="2" d="M471.37,-431.02C495.09,-387.28 561.96,-274.62 650,-216 680.72,-195.54 720.31,-181.86 750.67,-173.53"/>
<polygon fill="grey" stroke="grey" stroke-width="2" points="752.27,-176.2 761.06,-170.28 750.5,-169.43 752.27,-176.2"/>
</g>
<!-- 15 -->
<g id="node16" class="node">
<title>15</title>
<path fill="none" stroke="#d89556" stroke-width="2" d="M492.25,-540C492.25,-540 423.75,-540 423.75,-540 417.75,-540 411.75,-534 411.75,-528 411.75,-528 411.75,-516 411.75,-516 411.75,-510 417.75,-504 423.75,-504 423.75,-504 492.25,-504 492.25,-504 498.25,-504 504.25,-510 504.25,-516 504.25,-516 504.25,-528 504.25,-528 504.25,-534 498.25,-540 492.25,-540"/>
<text text-anchor="middle" x="458" y="-519.62" font-family="sans" font-size="10.00">spatial_distances</text>
</g>
<!-- 15&#45;&gt;14 -->
<g id="edge28" class="edge">
<title>15&#45;&gt;14</title>
<path fill="none" stroke="grey" stroke-width="2" d="M459.01,-503.34C459.39,-496.75 459.82,-489.08 460.25,-481.67"/>
<polygon fill="grey" stroke="grey" stroke-width="2" points="463.9,-482.09 460.98,-471.9 456.91,-481.69 463.9,-482.09"/>
</g>
<!-- 16&#45;&gt;14 -->
<g id="edge27" class="edge">
<title>16&#45;&gt;14</title>
<path fill="none" stroke="grey" stroke-width="2" d="M570.04,-503.15C552.04,-494.47 530.16,-483.91 510.81,-474.56"/>
<polygon fill="grey" stroke="grey" stroke-width="2" points="511.68,-471.13 501.15,-469.93 508.63,-477.43 511.68,-471.13"/>
</g>
<!-- 19 -->
<g id="node20" class="node">
<title>19</title>
<path fill="none" stroke="#56d0d8" stroke-width="2" d="M661.75,-396C661.75,-396 572.25,-396 572.25,-396 566.25,-396 560.25,-390 560.25,-384 560.25,-384 560.25,-372 560.25,-372 560.25,-366 566.25,-360 572.25,-360 572.25,-360 661.75,-360 661.75,-360 667.75,-360 673.75,-366 673.75,-372 673.75,-372 673.75,-384 673.75,-384 673.75,-390 667.75,-396 661.75,-396"/>
<text text-anchor="middle" x="617" y="-375.62" font-family="sans" font-size="10.00">analyze_prob_escape</text>
</g>
<!-- 16&#45;&gt;19 -->
<g id="edge52" class="edge">
<title>16&#45;&gt;19</title>
<path fill="none" stroke="grey" stroke-width="2" d="M608.27,-503.02C609.92,-479.54 612.84,-438.11 614.84,-409.64"/>
<polygon fill="grey" stroke="grey" stroke-width="2" points="618.53,-410.06 615.74,-399.84 611.55,-409.57 618.53,-410.06"/>
</g>
<!-- 17&#45;&gt;0 -->
<g id="edge5" class="edge">
<title>17&#45;&gt;0</title>
<path fill="none" stroke="grey" stroke-width="2" d="M1073.74,-86.38C917.63,-75.42 316.89,-33.25 154.61,-21.85"/>
<polygon fill="grey" stroke="grey" stroke-width="2" points="155.2,-18.17 144.98,-20.96 154.71,-25.16 155.2,-18.17"/>
</g>
<!-- 18&#45;&gt;17 -->
<g id="edge50" class="edge">
<title>18&#45;&gt;17</title>
<path fill="none" stroke="grey" stroke-width="2" d="M1266.39,-359.19C1305,-329.82 1370.97,-269.17 1341,-216 1303.52,-149.52 1216.25,-116.47 1160.64,-101.6"/>
<polygon fill="grey" stroke="grey" stroke-width="2" points="1160.81,-97.52 1150.25,-98.45 1159.08,-104.31 1160.81,-97.52"/>
</g>
<!-- 18&#45;&gt;21 -->
<g id="edge60" class="edge">
<title>18&#45;&gt;21</title>
<path fill="none" stroke="grey" stroke-width="2" d="M1185.76,-364.57C1127.46,-351.44 1036.39,-330.95 980.11,-318.28"/>
<polygon fill="grey" stroke="grey" stroke-width="2" points="980.15,-314.25 969.63,-315.47 978.61,-321.08 980.15,-314.25"/>
</g>
<!-- 18&#45;&gt;25 -->
<g id="edge82" class="edge">
<title>18&#45;&gt;25</title>
<path fill="none" stroke="grey" stroke-width="2" d="M1213.95,-359.05C1178.62,-335.38 1115.12,-292.01 1063,-252 1043.23,-236.82 1042.28,-227.18 1020,-216 963.07,-187.43 890.14,-173.86 843.49,-167.71"/>
<polygon fill="grey" stroke="grey" stroke-width="2" points="844.12,-163.89 833.77,-166.13 843.26,-170.84 844.12,-163.89"/>
</g>
<!-- 19&#45;&gt;17 -->
<g id="edge48" class="edge">
<title>19&#45;&gt;17</title>
<path fill="none" stroke="grey" stroke-width="2" d="M559.44,-365.54C467,-344.53 301.56,-294.64 361,-216 445.6,-104.09 906.75,-91.84 1060.84,-90.91"/>
<polygon fill="grey" stroke="grey" stroke-width="2" points="1060.53,-94.4 1070.51,-90.85 1060.5,-87.4 1060.53,-94.4"/>
</g>
<!-- 19&#45;&gt;21 -->
<g id="edge62" class="edge">
<title>19&#45;&gt;21</title>
<path fill="none" stroke="grey" stroke-width="2" d="M674.71,-363.08C679.21,-362.03 683.68,-360.99 688,-360 754.19,-344.83 830.79,-328.21 879.78,-317.7"/>
<polygon fill="grey" stroke="grey" stroke-width="2" points="881.18,-320.55 890.22,-315.04 879.71,-313.71 881.18,-320.55"/>
</g>
<!-- 19&#45;&gt;25 -->
<g id="edge81" class="edge">
<title>19&#45;&gt;25</title>
<path fill="none" stroke="grey" stroke-width="2" d="M642.49,-359C654.43,-349.61 668.16,-337.31 678,-324 709.24,-281.77 693.22,-257.04 726,-216 734.28,-205.63 745.04,-196.24 755.67,-188.33"/>
<polygon fill="grey" stroke="grey" stroke-width="2" points="758,-190.56 764.16,-181.94 753.97,-184.84 758,-190.56"/>
</g>
<!-- 20 -->
<g id="node21" class="node">
<title>20</title>
<path fill="none" stroke="#d8cb56" stroke-width="2" d="M965.62,-252C965.62,-252 932.38,-252 932.38,-252 926.38,-252 920.38,-246 920.38,-240 920.38,-240 920.38,-228 920.38,-228 920.38,-222 926.38,-216 932.38,-216 932.38,-216 965.62,-216 965.62,-216 971.62,-216 977.62,-222 977.62,-228 977.62,-228 977.62,-240 977.62,-240 977.62,-246 971.62,-252 965.62,-252"/>
<text text-anchor="middle" x="949" y="-231.62" font-family="sans" font-size="10.00">subindex</text>
</g>
<!-- 20&#45;&gt;17 -->
<g id="edge43" class="edge">
<title>20&#45;&gt;17</title>
<path fill="none" stroke="grey" stroke-width="2" d="M969.52,-215.02C997.76,-190.26 1048.79,-145.53 1081.22,-117.1"/>
<polygon fill="grey" stroke="grey" stroke-width="2" points="1083.44,-119.06 1088.65,-109.84 1078.82,-113.8 1083.44,-119.06"/>
</g>
<!-- 20&#45;&gt;25 -->
<g id="edge76" class="edge">
<title>20&#45;&gt;25</title>
<path fill="none" stroke="grey" stroke-width="2" d="M919.69,-219.5C897.9,-209.47 867.73,-195.58 842.77,-184.08"/>
<polygon fill="grey" stroke="grey" stroke-width="2" points="843.54,-180.66 832.99,-179.65 840.61,-187.02 843.54,-180.66"/>
</g>
<!-- 21&#45;&gt;17 -->
<g id="edge38" class="edge">
<title>21&#45;&gt;17</title>
<path fill="none" stroke="grey" stroke-width="2" d="M967.65,-301.85C1026.38,-296.07 1135.51,-281.55 1159,-252 1190.12,-212.86 1158.03,-153.93 1133.43,-119.28"/>
<polygon fill="grey" stroke="grey" stroke-width="2" points="1135.56,-116.9 1126.8,-110.94 1129.92,-121.06 1135.56,-116.9"/>
</g>
<!-- 21&#45;&gt;20 -->
<g id="edge53" class="edge">
<title>21&#45;&gt;20</title>
<path fill="none" stroke="grey" stroke-width="2" d="M934.79,-287.34C936.6,-280.67 938.72,-272.89 940.75,-265.39"/>
<polygon fill="grey" stroke="grey" stroke-width="2" points="944.9,-265.47 944.14,-254.9 938.14,-263.64 944.9,-265.47"/>
</g>
<!-- 21&#45;&gt;25 -->
<g id="edge71" class="edge">
<title>21&#45;&gt;25</title>
<path fill="none" stroke="grey" stroke-width="2" d="M919.85,-287.03C908.64,-268.11 889.35,-238.06 868,-216 858.35,-206.03 846.69,-196.51 835.63,-188.36"/>
<polygon fill="grey" stroke="grey" stroke-width="2" points="837.48,-184.94 827.3,-181.99 833.41,-190.64 837.48,-184.94"/>
</g>
<!-- 22&#45;&gt;17 -->
<g id="edge39" class="edge">
<title>22&#45;&gt;17</title>
<path fill="none" stroke="grey" stroke-width="2" d="M1256.09,-215.32C1241.73,-196.38 1217.22,-166.06 1192,-144 1180.36,-133.82 1166.61,-124.11 1153.79,-115.84"/>
<polygon fill="grey" stroke="grey" stroke-width="2" points="1155.16,-112.32 1144.83,-109.98 1151.45,-118.25 1155.16,-112.32"/>
</g>
<!-- 22&#45;&gt;25 -->
<g id="edge72" class="edge">
<title>22&#45;&gt;25</title>
<path fill="none" stroke="grey" stroke-width="2" d="M1205.03,-223.03C1189.94,-220.7 1173.9,-218.24 1159,-216 1045.71,-198.95 912.35,-179.62 843.45,-169.68"/>
<polygon fill="grey" stroke="grey" stroke-width="2" points="843.35,-165.84 832.95,-167.88 842.35,-172.77 843.35,-165.84"/>
</g>
<!-- 23 -->
<g id="node24" class="node">
<title>23</title>
<path fill="none" stroke="#56d8b9" stroke-width="2" d="M1137.75,-252C1137.75,-252 1084.25,-252 1084.25,-252 1078.25,-252 1072.25,-246 1072.25,-240 1072.25,-240 1072.25,-228 1072.25,-228 1072.25,-222 1078.25,-216 1084.25,-216 1084.25,-216 1137.75,-216 1137.75,-216 1143.75,-216 1149.75,-222 1149.75,-228 1149.75,-228 1149.75,-240 1149.75,-240 1149.75,-246 1143.75,-252 1137.75,-252"/>
<text text-anchor="middle" x="1111" y="-231.62" font-family="sans" font-size="10.00">make_graphs</text>
</g>
<!-- 23&#45;&gt;17 -->
<g id="edge45" class="edge">
<title>23&#45;&gt;17</title>
<path fill="none" stroke="grey" stroke-width="2" d="M1111,-215.02C1111,-191.54 1111,-150.11 1111,-121.64"/>
<polygon fill="grey" stroke="grey" stroke-width="2" points="1114.5,-121.84 1111,-111.84 1107.5,-121.84 1114.5,-121.84"/>
</g>
<!-- 23&#45;&gt;25 -->
<g id="edge78" class="edge">
<title>23&#45;&gt;25</title>
<path fill="none" stroke="grey" stroke-width="2" d="M1071.49,-219.8C1066.96,-218.45 1062.39,-217.15 1058,-216 983.76,-196.62 896.11,-180.1 843.62,-170.87"/>
<polygon fill="grey" stroke="grey" stroke-width="2" points="843.51,-166.95 833.06,-168.68 842.31,-173.84 843.51,-166.95"/>
</g>
<!-- 24&#45;&gt;17 -->
<g id="edge34" class="edge">
<title>24&#45;&gt;17</title>
<path fill="none" stroke="grey" stroke-width="2" d="M500.14,-215.04C561.4,-195.27 664.44,-163.69 755,-144 862.99,-120.52 991.67,-104.19 1060.92,-96.33"/>
<polygon fill="grey" stroke="grey" stroke-width="2" points="1061,-99.51 1070.55,-94.92 1060.22,-92.55 1061,-99.51"/>
</g>
<!-- 24&#45;&gt;25 -->
<g id="edge67" class="edge">
<title>24&#45;&gt;25</title>
<path fill="none" stroke="grey" stroke-width="2" d="M523.03,-217.64C592.63,-203.76 692.79,-183.78 750.75,-172.22"/>
<polygon fill="grey" stroke="grey" stroke-width="2" points="752.02,-175.14 761.14,-169.75 750.65,-168.28 752.02,-175.14"/>
</g>
<!-- 25&#45;&gt;17 -->
<g id="edge49" class="edge">
<title>25&#45;&gt;17</title>
<path fill="none" stroke="grey" stroke-width="2" d="M830.9,-153.44C886.39,-141.07 996.85,-116.45 1061.23,-102.09"/>
<polygon fill="grey" stroke="grey" stroke-width="2" points="1062.85,-104.87 1071.85,-99.28 1061.33,-98.04 1062.85,-104.87"/>
</g>
</g>
</svg>
