<?xml version="1.0" encoding="UTF-8" standalone="no"?>
<!DOCTYPE svg PUBLIC "-//W3C//DTD SVG 1.1//EN"
 "http://www.w3.org/Graphics/SVG/1.1/DTD/svg11.dtd">
<!-- Generated by graphviz version 3.0.0 (20220315.2325)
 -->
<!-- Title: snakemake_dag Pages: 1 -->
<svg width="1498pt" height="1124pt"
 viewBox="0.00 0.00 1498.41 1124.00" xmlns="http://www.w3.org/2000/svg" xmlns:xlink="http://www.w3.org/1999/xlink">
<g id="graph0" class="graph" transform="scale(1 1) rotate(0) translate(4 1120)">
<title>snakemake_dag</title>
<polygon fill="white" stroke="transparent" points="-4,4 -4,-1120 1494.41,-1120 1494.41,4 -4,4"/>
<!-- 0 -->
<g id="node1" class="node">
<title>0</title>
<path fill="none" stroke="#59d856" stroke-width="2" d="M1182,-36C1182,-36 1152,-36 1152,-36 1146,-36 1140,-30 1140,-24 1140,-24 1140,-12 1140,-12 1140,-6 1146,0 1152,0 1152,0 1182,0 1182,0 1188,0 1194,-6 1194,-12 1194,-12 1194,-24 1194,-24 1194,-30 1188,-36 1182,-36"/>
<text text-anchor="middle" x="1167" y="-15.5" font-family="sans" font-size="10.00">all</text>
</g>
<!-- 1 -->
<g id="node2" class="node">
<title>1</title>
<path fill="none" stroke="#d88556" stroke-width="2" d="M998,-756C998,-756 938,-756 938,-756 932,-756 926,-750 926,-744 926,-744 926,-732 926,-732 926,-726 932,-720 938,-720 938,-720 998,-720 998,-720 1004,-720 1010,-726 1010,-732 1010,-732 1010,-744 1010,-744 1010,-750 1004,-756 998,-756"/>
<text text-anchor="middle" x="968" y="-735.5" font-family="sans" font-size="10.00">variant_counts</text>
</g>
<!-- 1&#45;&gt;0 -->
<g id="edge3" class="edge">
<title>1&#45;&gt;0</title>
<path fill="none" stroke="grey" stroke-width="2" d="M1010.16,-732.07C1058.79,-725.38 1140.45,-711.04 1206,-684 1296.6,-646.63 1332.45,-629.22 1373,-540 1433.44,-407.03 1486.15,-349.99 1428,-216 1385.52,-118.12 1264.74,-57.78 1203.52,-32.61"/>
<polygon fill="grey" stroke="grey" stroke-width="2" points="1204.81,-29.36 1194.23,-28.88 1202.2,-35.85 1204.81,-29.36"/>
</g>
<!-- 9 -->
<g id="node10" class="node">
<title>9</title>
<path fill="none" stroke="#56d89a" stroke-width="2" d="M883.5,-684C883.5,-684 784.5,-684 784.5,-684 778.5,-684 772.5,-678 772.5,-672 772.5,-672 772.5,-660 772.5,-660 772.5,-654 778.5,-648 784.5,-648 784.5,-648 883.5,-648 883.5,-648 889.5,-648 895.5,-654 895.5,-660 895.5,-660 895.5,-672 895.5,-672 895.5,-678 889.5,-684 883.5,-684"/>
<text text-anchor="middle" x="834" y="-663.5" font-family="sans" font-size="10.00">analyze_variant_counts</text>
</g>
<!-- 1&#45;&gt;9 -->
<g id="edge21" class="edge">
<title>1&#45;&gt;9</title>
<path fill="none" stroke="grey" stroke-width="2" d="M935.22,-719.88C917.37,-710.55 895.1,-698.92 876,-688.94"/>
<polygon fill="grey" stroke="grey" stroke-width="2" points="877.39,-685.72 866.91,-684.19 874.15,-691.92 877.39,-685.72"/>
</g>
<!-- 10 -->
<g id="node11" class="node">
<title>10</title>
<path fill="none" stroke="#56d8b1" stroke-width="2" d="M311.5,-468C311.5,-468 260.5,-468 260.5,-468 254.5,-468 248.5,-462 248.5,-456 248.5,-456 248.5,-444 248.5,-444 248.5,-438 254.5,-432 260.5,-432 260.5,-432 311.5,-432 311.5,-432 317.5,-432 323.5,-438 323.5,-444 323.5,-444 323.5,-456 323.5,-456 323.5,-462 317.5,-468 311.5,-468"/>
<text text-anchor="middle" x="286" y="-447.5" font-family="sans" font-size="10.00">prob_escape</text>
</g>
<!-- 1&#45;&gt;10 -->
<g id="edge25" class="edge">
<title>1&#45;&gt;10</title>
<path fill="none" stroke="grey" stroke-width="2" d="M925.84,-728.62C884.05,-719.72 818.58,-704.16 764,-684 752.78,-679.85 446.05,-529.52 329.95,-472.57"/>
<polygon fill="grey" stroke="grey" stroke-width="2" points="331.47,-469.41 320.95,-468.15 328.39,-475.7 331.47,-469.41"/>
</g>
<!-- 12 -->
<g id="node13" class="node">
<title>12</title>
<path fill="none" stroke="#56d882" stroke-width="2" d="M1095.5,-540C1095.5,-540 1048.5,-540 1048.5,-540 1042.5,-540 1036.5,-534 1036.5,-528 1036.5,-528 1036.5,-516 1036.5,-516 1036.5,-510 1042.5,-504 1048.5,-504 1048.5,-504 1095.5,-504 1095.5,-504 1101.5,-504 1107.5,-510 1107.5,-516 1107.5,-516 1107.5,-528 1107.5,-528 1107.5,-534 1101.5,-540 1095.5,-540"/>
<text text-anchor="middle" x="1072" y="-519.5" font-family="sans" font-size="10.00">func_scores</text>
</g>
<!-- 1&#45;&gt;12 -->
<g id="edge30" class="edge">
<title>1&#45;&gt;12</title>
<path fill="none" stroke="grey" stroke-width="2" d="M976.33,-719.85C994.48,-682.52 1037.64,-593.69 1059.24,-549.26"/>
<polygon fill="grey" stroke="grey" stroke-width="2" points="1062.4,-550.76 1063.63,-540.23 1056.11,-547.7 1062.4,-550.76"/>
</g>
<!-- 15 -->
<g id="node16" class="node">
<title>15</title>
<path fill="none" stroke="#569ad8" stroke-width="2" d="M977,-108C977,-108 927,-108 927,-108 921,-108 915,-102 915,-96 915,-96 915,-84 915,-84 915,-78 921,-72 927,-72 927,-72 977,-72 977,-72 983,-72 989,-78 989,-84 989,-84 989,-96 989,-96 989,-102 983,-108 977,-108"/>
<text text-anchor="middle" x="952" y="-87.5" font-family="sans" font-size="10.00">sphinx_build</text>
</g>
<!-- 1&#45;&gt;15 -->
<g id="edge43" class="edge">
<title>1&#45;&gt;15</title>
<path fill="none" stroke="grey" stroke-width="2" d="M1010.13,-728.58C1114.37,-705.05 1376,-628.33 1376,-451 1376,-451 1376,-451 1376,-233 1376,-169.77 1322.69,-169.89 1265,-144 1176.88,-104.46 1062.73,-94.22 999.48,-91.69"/>
<polygon fill="grey" stroke="grey" stroke-width="2" points="999.52,-88.19 989.41,-91.34 999.28,-95.19 999.52,-88.19"/>
</g>
<!-- 21 -->
<g id="node22" class="node">
<title>21</title>
<path fill="none" stroke="#b6d856" stroke-width="2" d="M667.5,-180C667.5,-180 624.5,-180 624.5,-180 618.5,-180 612.5,-174 612.5,-168 612.5,-168 612.5,-156 612.5,-156 612.5,-150 618.5,-144 624.5,-144 624.5,-144 667.5,-144 667.5,-144 673.5,-144 679.5,-150 679.5,-156 679.5,-156 679.5,-168 679.5,-168 679.5,-174 673.5,-180 667.5,-180"/>
<text text-anchor="middle" x="646" y="-159.5" font-family="sans" font-size="10.00">docs_index</text>
</g>
<!-- 1&#45;&gt;21 -->
<g id="edge72" class="edge">
<title>1&#45;&gt;21</title>
<path fill="none" stroke="grey" stroke-width="2" d="M966.32,-719.95C962.92,-689.89 953.72,-625.94 933,-576 896.53,-488.09 854.37,-483.53 817,-396 784.71,-320.35 827.39,-278.57 774,-216 752.66,-190.99 717.61,-177.57 689.57,-170.51"/>
<polygon fill="grey" stroke="grey" stroke-width="2" points="690.14,-167.04 679.6,-168.18 688.55,-173.86 690.14,-167.04"/>
</g>
<!-- 2 -->
<g id="node3" class="node">
<title>2</title>
<path fill="none" stroke="#5682d8" stroke-width="2" d="M857.5,-828C857.5,-828 792.5,-828 792.5,-828 786.5,-828 780.5,-822 780.5,-816 780.5,-816 780.5,-804 780.5,-804 780.5,-798 786.5,-792 792.5,-792 792.5,-792 857.5,-792 857.5,-792 863.5,-792 869.5,-798 869.5,-804 869.5,-804 869.5,-816 869.5,-816 869.5,-822 863.5,-828 857.5,-828"/>
<text text-anchor="middle" x="825" y="-807.5" font-family="sans" font-size="10.00">count_barcodes</text>
</g>
<!-- 2&#45;&gt;1 -->
<g id="edge11" class="edge">
<title>2&#45;&gt;1</title>
<path fill="none" stroke="grey" stroke-width="2" d="M859.98,-791.88C879.2,-782.47 903.23,-770.71 923.74,-760.67"/>
<polygon fill="grey" stroke="grey" stroke-width="2" points="925.44,-763.73 932.88,-756.19 922.36,-757.44 925.44,-763.73"/>
</g>
<!-- 2&#45;&gt;9 -->
<g id="edge22" class="edge">
<title>2&#45;&gt;9</title>
<path fill="none" stroke="grey" stroke-width="2" d="M826.09,-791.87C827.62,-767.67 830.44,-723.21 832.26,-694.39"/>
<polygon fill="grey" stroke="grey" stroke-width="2" points="835.77,-694.39 832.91,-684.19 828.78,-693.95 835.77,-694.39"/>
</g>
<!-- 3 -->
<g id="node4" class="node">
<title>3</title>
<path fill="none" stroke="#566bd8" stroke-width="2" d="M826.5,-900C826.5,-900 737.5,-900 737.5,-900 731.5,-900 725.5,-894 725.5,-888 725.5,-888 725.5,-876 725.5,-876 725.5,-870 731.5,-864 737.5,-864 737.5,-864 826.5,-864 826.5,-864 832.5,-864 838.5,-870 838.5,-876 838.5,-876 838.5,-888 838.5,-888 838.5,-894 832.5,-900 826.5,-900"/>
<text text-anchor="middle" x="782" y="-879.5" font-family="sans" font-size="10.00">build_codon_variants</text>
</g>
<!-- 3&#45;&gt;1 -->
<g id="edge9" class="edge">
<title>3&#45;&gt;1</title>
<path fill="none" stroke="grey" stroke-width="2" d="M818.97,-863.94C837.73,-854.52 860.41,-841.92 879,-828 904.41,-808.98 929.63,-782.89 946.71,-763.88"/>
<polygon fill="grey" stroke="grey" stroke-width="2" points="949.49,-766.01 953.5,-756.2 944.25,-761.37 949.49,-766.01"/>
</g>
<!-- 3&#45;&gt;2 -->
<g id="edge12" class="edge">
<title>3&#45;&gt;2</title>
<path fill="none" stroke="grey" stroke-width="2" d="M792.63,-863.7C797.63,-855.56 803.69,-845.69 809.21,-836.7"/>
<polygon fill="grey" stroke="grey" stroke-width="2" points="812.24,-838.46 814.49,-828.1 806.28,-834.79 812.24,-838.46"/>
</g>
<!-- 3&#45;&gt;9 -->
<g id="edge19" class="edge">
<title>3&#45;&gt;9</title>
<path fill="none" stroke="grey" stroke-width="2" d="M776.62,-863.73C771.78,-845.65 766.25,-816.52 772,-792 780.58,-755.4 801.54,-717.24 816.72,-692.86"/>
<polygon fill="grey" stroke="grey" stroke-width="2" points="819.8,-694.54 822.21,-684.23 813.89,-690.78 819.8,-694.54"/>
</g>
<!-- 3&#45;&gt;10 -->
<g id="edge23" class="edge">
<title>3&#45;&gt;10</title>
<path fill="none" stroke="grey" stroke-width="2" d="M725.11,-872.73C688.28,-865.38 640.55,-851.93 604,-828 456.22,-731.23 340.11,-545.6 300.59,-477.17"/>
<polygon fill="grey" stroke="grey" stroke-width="2" points="303.53,-475.26 295.53,-468.32 297.46,-478.73 303.53,-475.26"/>
</g>
<!-- 3&#45;&gt;12 -->
<g id="edge28" class="edge">
<title>3&#45;&gt;12</title>
<path fill="none" stroke="grey" stroke-width="2" d="M838.6,-878.04C923,-870.22 1072,-841.87 1072,-739 1072,-739 1072,-739 1072,-665 1072,-625 1072,-578.65 1072,-550.08"/>
<polygon fill="grey" stroke="grey" stroke-width="2" points="1075.5,-550.05 1072,-540.05 1068.5,-550.05 1075.5,-550.05"/>
</g>
<!-- 3&#45;&gt;15 -->
<g id="edge47" class="edge">
<title>3&#45;&gt;15</title>
<path fill="none" stroke="grey" stroke-width="2" d="M838.62,-875.37C894.11,-868.59 980.4,-854.61 1051,-828 1243.88,-755.3 1452,-801.12 1452,-595 1452,-595 1452,-595 1452,-521 1452,-424.4 1414,-403.6 1414,-307 1414,-307 1414,-307 1414,-233 1414,-175.79 1372.44,-169.04 1321,-144 1265.15,-116.81 1085.6,-100.6 999.25,-94.19"/>
<polygon fill="grey" stroke="grey" stroke-width="2" points="999.43,-90.69 989.2,-93.45 998.92,-97.67 999.43,-90.69"/>
</g>
<!-- 19 -->
<g id="node20" class="node">
<title>19</title>
<path fill="none" stroke="#56c9d8" stroke-width="2" d="M642,-324C642,-324 592,-324 592,-324 586,-324 580,-318 580,-312 580,-312 580,-300 580,-300 580,-294 586,-288 592,-288 592,-288 642,-288 642,-288 648,-288 654,-294 654,-300 654,-300 654,-312 654,-312 654,-318 648,-324 642,-324"/>
<text text-anchor="middle" x="617" y="-303.5" font-family="sans" font-size="10.00">make_nblink</text>
</g>
<!-- 3&#45;&gt;19 -->
<g id="edge60" class="edge">
<title>3&#45;&gt;19</title>
<path fill="none" stroke="grey" stroke-width="2" d="M735.44,-863.87C686.96,-842.67 618,-801.52 618,-739 618,-739 618,-739 618,-593 618,-497.94 617.44,-385.1 617.16,-334.25"/>
<polygon fill="grey" stroke="grey" stroke-width="2" points="620.66,-334.07 617.1,-324.09 613.66,-334.1 620.66,-334.07"/>
</g>
<!-- 3&#45;&gt;21 -->
<g id="edge75" class="edge">
<title>3&#45;&gt;21</title>
<path fill="none" stroke="grey" stroke-width="2" d="M762.47,-863.86C736.54,-839.11 694,-790.63 694,-739 694,-739 694,-739 694,-665 694,-464.35 842.6,-389.02 741,-216 729.66,-196.69 708.44,-183.89 688.92,-175.72"/>
<polygon fill="grey" stroke="grey" stroke-width="2" points="690.12,-172.43 679.53,-172.08 687.59,-178.96 690.12,-172.43"/>
</g>
<!-- 4 -->
<g id="node5" class="node">
<title>4</title>
<path fill="none" stroke="#d85656" stroke-width="2" d="M490,-972C490,-972 388,-972 388,-972 382,-972 376,-966 376,-960 376,-960 376,-948 376,-948 376,-942 382,-936 388,-936 388,-936 490,-936 490,-936 496,-936 502,-942 502,-948 502,-948 502,-960 502,-960 502,-966 496,-972 490,-972"/>
<text text-anchor="middle" x="439" y="-951.5" font-family="sans" font-size="10.00">build_pacbio_consensus</text>
</g>
<!-- 4&#45;&gt;3 -->
<g id="edge13" class="edge">
<title>4&#45;&gt;3</title>
<path fill="none" stroke="grey" stroke-width="2" d="M502.31,-940.08C562.82,-927.73 653.7,-909.18 715.31,-896.61"/>
<polygon fill="grey" stroke="grey" stroke-width="2" points="716.22,-900 725.32,-894.57 714.82,-893.14 716.22,-900"/>
</g>
<!-- 4&#45;&gt;15 -->
<g id="edge35" class="edge">
<title>4&#45;&gt;15</title>
<path fill="none" stroke="grey" stroke-width="2" d="M417.33,-935.72C361.22,-889.69 210.49,-757.63 138,-612 76.36,-488.17 76,-445.33 76,-307 76,-307 76,-307 76,-233 76,-186.03 92.54,-167.86 133,-144 199.46,-104.8 739.85,-93.99 904.54,-91.59"/>
<polygon fill="grey" stroke="grey" stroke-width="2" points="904.88,-95.09 914.83,-91.45 904.78,-88.09 904.88,-95.09"/>
</g>
<!-- 4&#45;&gt;19 -->
<g id="edge55" class="edge">
<title>4&#45;&gt;19</title>
<path fill="none" stroke="grey" stroke-width="2" d="M452.78,-935.79C471.86,-910.18 504,-859.8 504,-811 504,-811 504,-811 504,-593 504,-490.68 567.33,-381.27 599.17,-332.73"/>
<polygon fill="grey" stroke="grey" stroke-width="2" points="602.27,-334.39 604.91,-324.13 596.45,-330.51 602.27,-334.39"/>
</g>
<!-- 4&#45;&gt;21 -->
<g id="edge64" class="edge">
<title>4&#45;&gt;21</title>
<path fill="none" stroke="grey" stroke-width="2" d="M438.24,-935.73C435.5,-863.98 428.79,-582.77 480,-360 495.46,-292.76 491.03,-266.54 538,-216 555.46,-197.21 581.03,-184.25 602.9,-175.85"/>
<polygon fill="grey" stroke="grey" stroke-width="2" points="604.13,-179.13 612.33,-172.42 601.74,-172.55 604.13,-179.13"/>
</g>
<!-- 5 -->
<g id="node6" class="node">
<title>5</title>
<path fill="none" stroke="#56d86b" stroke-width="2" d="M277,-1044C277,-1044 197,-1044 197,-1044 191,-1044 185,-1038 185,-1032 185,-1032 185,-1020 185,-1020 185,-1014 191,-1008 197,-1008 197,-1008 277,-1008 277,-1008 283,-1008 289,-1014 289,-1020 289,-1020 289,-1032 289,-1032 289,-1038 283,-1044 277,-1044"/>
<text text-anchor="middle" x="237" y="-1023.5" font-family="sans" font-size="10.00">analyze_pacbio_ccs</text>
</g>
<!-- 5&#45;&gt;4 -->
<g id="edge16" class="edge">
<title>5&#45;&gt;4</title>
<path fill="none" stroke="grey" stroke-width="2" d="M286.16,-1007.97C314.5,-998.14 350.32,-985.73 380.16,-975.39"/>
<polygon fill="grey" stroke="grey" stroke-width="2" points="381.32,-978.69 389.62,-972.11 379.03,-972.08 381.32,-978.69"/>
</g>
<!-- 5&#45;&gt;15 -->
<g id="edge38" class="edge">
<title>5&#45;&gt;15</title>
<path fill="none" stroke="grey" stroke-width="2" d="M184.99,-1017.38C115.22,-1003.88 0,-968.62 0,-883 0,-883 0,-883 0,-233 0,-177.99 36.04,-167.02 86,-144 160.45,-109.69 734.5,-95.41 904.63,-91.9"/>
<polygon fill="grey" stroke="grey" stroke-width="2" points="904.85,-95.4 914.78,-91.69 904.71,-88.4 904.85,-95.4"/>
</g>
<!-- 5&#45;&gt;19 -->
<g id="edge56" class="edge">
<title>5&#45;&gt;19</title>
<path fill="none" stroke="grey" stroke-width="2" d="M248.24,-1007.75C275.32,-964.45 342,-846.9 342,-739 342,-739 342,-739 342,-593 342,-462.6 492.37,-368.67 570.73,-328.57"/>
<polygon fill="grey" stroke="grey" stroke-width="2" points="572.55,-331.57 579.91,-323.95 569.41,-325.32 572.55,-331.57"/>
</g>
<!-- 5&#45;&gt;21 -->
<g id="edge67" class="edge">
<title>5&#45;&gt;21</title>
<path fill="none" stroke="grey" stroke-width="2" d="M218.14,-1007.73C193.09,-982.82 152,-934.14 152,-883 152,-883 152,-883 152,-449 152,-408.55 149.66,-394.36 171,-360 198.21,-316.19 217.87,-314.68 262,-288 295.71,-267.62 311.02,-275 343,-252 360.62,-239.33 357.07,-226.62 376,-216 385.85,-210.47 528.48,-184.19 602.34,-170.83"/>
<polygon fill="grey" stroke="grey" stroke-width="2" points="603.07,-174.26 612.29,-169.04 601.83,-167.37 603.07,-174.26"/>
</g>
<!-- 6 -->
<g id="node7" class="node">
<title>6</title>
<path fill="none" stroke="#d86e56" stroke-width="2" d="M286,-1116C286,-1116 188,-1116 188,-1116 182,-1116 176,-1110 176,-1104 176,-1104 176,-1092 176,-1092 176,-1086 182,-1080 188,-1080 188,-1080 286,-1080 286,-1080 292,-1080 298,-1086 298,-1092 298,-1092 298,-1104 298,-1104 298,-1110 292,-1116 286,-1116"/>
<text text-anchor="middle" x="237" y="-1095.5" font-family="sans" font-size="10.00">align_parse_PacBio_ccs</text>
</g>
<!-- 6&#45;&gt;5 -->
<g id="edge17" class="edge">
<title>6&#45;&gt;5</title>
<path fill="none" stroke="grey" stroke-width="2" d="M237,-1079.7C237,-1071.98 237,-1062.71 237,-1054.11"/>
<polygon fill="grey" stroke="grey" stroke-width="2" points="240.5,-1054.1 237,-1044.1 233.5,-1054.1 240.5,-1054.1"/>
</g>
<!-- 7 -->
<g id="node8" class="node">
<title>7</title>
<path fill="none" stroke="#ced856" stroke-width="2" d="M902,-1044C902,-1044 836,-1044 836,-1044 830,-1044 824,-1038 824,-1032 824,-1032 824,-1020 824,-1020 824,-1014 830,-1008 836,-1008 836,-1008 902,-1008 902,-1008 908,-1008 914,-1014 914,-1020 914,-1020 914,-1032 914,-1032 914,-1038 908,-1044 902,-1044"/>
<text text-anchor="middle" x="869" y="-1023.5" font-family="sans" font-size="10.00">gene_sequence</text>
</g>
<!-- 7&#45;&gt;1 -->
<g id="edge10" class="edge">
<title>7&#45;&gt;1</title>
<path fill="none" stroke="grey" stroke-width="2" d="M886.32,-1007.77C895.2,-998.02 905.49,-985.17 912,-972 946.21,-902.73 960.25,-811.36 965.39,-766.4"/>
<polygon fill="grey" stroke="grey" stroke-width="2" points="968.89,-766.58 966.48,-756.26 961.93,-765.83 968.89,-766.58"/>
</g>
<!-- 7&#45;&gt;3 -->
<g id="edge14" class="edge">
<title>7&#45;&gt;3</title>
<path fill="none" stroke="grey" stroke-width="2" d="M858.51,-1007.87C843.42,-983.24 815.48,-937.64 797.86,-908.88"/>
<polygon fill="grey" stroke="grey" stroke-width="2" points="800.74,-906.89 792.53,-900.19 794.77,-910.54 800.74,-906.89"/>
</g>
<!-- 7&#45;&gt;4 -->
<g id="edge15" class="edge">
<title>7&#45;&gt;4</title>
<path fill="none" stroke="grey" stroke-width="2" d="M823.96,-1018.51C758.63,-1008.97 633.82,-990.32 528,-972 522.9,-971.12 517.64,-970.18 512.35,-969.22"/>
<polygon fill="grey" stroke="grey" stroke-width="2" points="512.62,-965.71 502.16,-967.34 511.36,-972.59 512.62,-965.71"/>
</g>
<!-- 7&#45;&gt;9 -->
<g id="edge20" class="edge">
<title>7&#45;&gt;9</title>
<path fill="none" stroke="grey" stroke-width="2" d="M874.87,-1007.74C883.34,-981.25 898,-928.79 898,-883 898,-883 898,-883 898,-809 898,-765.08 872.24,-719.73 853.4,-692.44"/>
<polygon fill="grey" stroke="grey" stroke-width="2" points="856.22,-690.37 847.57,-684.24 850.52,-694.42 856.22,-690.37"/>
</g>
<!-- 7&#45;&gt;10 -->
<g id="edge24" class="edge">
<title>7&#45;&gt;10</title>
<path fill="none" stroke="grey" stroke-width="2" d="M823.83,-1023.72C716.38,-1020.13 448.45,-1007.76 367,-972 312.22,-947.95 266,-942.83 266,-883 266,-883 266,-883 266,-593 266,-552.82 273.95,-506.87 279.82,-478.39"/>
<polygon fill="grey" stroke="grey" stroke-width="2" points="283.3,-478.89 281.95,-468.38 276.45,-477.43 283.3,-478.89"/>
</g>
<!-- 7&#45;&gt;12 -->
<g id="edge29" class="edge">
<title>7&#45;&gt;12</title>
<path fill="none" stroke="grey" stroke-width="2" d="M914.06,-1022.92C1044.64,-1015.66 1414,-986.03 1414,-883 1414,-883 1414,-883 1414,-665 1414,-601.56 1210.75,-551.54 1117.62,-531.95"/>
<polygon fill="grey" stroke="grey" stroke-width="2" points="1118.13,-528.49 1107.63,-529.88 1116.71,-535.34 1118.13,-528.49"/>
</g>
<!-- 7&#45;&gt;15 -->
<g id="edge42" class="edge">
<title>7&#45;&gt;15</title>
<path fill="none" stroke="grey" stroke-width="2" d="M914.16,-1024.33C1057.06,-1021.01 1490,-1001.2 1490,-883 1490,-883 1490,-883 1490,-449 1490,-303.17 1496.6,-214.6 1369,-144 1306.37,-109.35 1094.91,-96.68 999.45,-92.65"/>
<polygon fill="grey" stroke="grey" stroke-width="2" points="999.36,-89.15 989.22,-92.24 999.07,-96.14 999.36,-89.15"/>
</g>
<!-- 7&#45;&gt;21 -->
<g id="edge71" class="edge">
<title>7&#45;&gt;21</title>
<path fill="none" stroke="grey" stroke-width="2" d="M823.88,-1025.25C734.17,-1023.15 542,-1004.46 542,-883 542,-883 542,-883 542,-593 542,-456.83 528.48,-417.36 571,-288 583.25,-250.74 608.15,-212.79 625.9,-188.63"/>
<polygon fill="grey" stroke="grey" stroke-width="2" points="628.88,-190.48 632.08,-180.38 623.28,-186.29 628.88,-190.48"/>
</g>
<!-- 8 -->
<g id="node9" class="node">
<title>8</title>
<path fill="none" stroke="#d8b456" stroke-width="2" d="M912,-612C912,-612 772,-612 772,-612 766,-612 760,-606 760,-600 760,-600 760,-588 760,-588 760,-582 766,-576 772,-576 772,-576 912,-576 912,-576 918,-576 924,-582 924,-588 924,-588 924,-600 924,-600 924,-606 918,-612 912,-612"/>
<text text-anchor="middle" x="842" y="-591.5" font-family="sans" font-size="10.00">check_adequate_variant_counts</text>
</g>
<!-- 8&#45;&gt;0 -->
<g id="edge6" class="edge">
<title>8&#45;&gt;0</title>
<path fill="none" stroke="grey" stroke-width="2" d="M924.15,-584.55C1055.94,-568.67 1300,-528.78 1300,-451 1300,-451 1300,-451 1300,-305 1300,-198.99 1315.48,-154.57 1249,-72 1236.83,-56.88 1219.13,-44.68 1203.3,-35.82"/>
<polygon fill="grey" stroke="grey" stroke-width="2" points="1204.71,-32.6 1194.24,-30.98 1201.42,-38.78 1204.71,-32.6"/>
</g>
<!-- 8&#45;&gt;10 -->
<g id="edge26" class="edge">
<title>8&#45;&gt;10</title>
<path fill="none" stroke="grey" stroke-width="2" d="M775.21,-575.94C661.4,-546.87 432.58,-488.44 333.52,-463.14"/>
<polygon fill="grey" stroke="grey" stroke-width="2" points="334.34,-459.73 323.78,-460.65 332.61,-466.52 334.34,-459.73"/>
</g>
<!-- 8&#45;&gt;12 -->
<g id="edge31" class="edge">
<title>8&#45;&gt;12</title>
<path fill="none" stroke="grey" stroke-width="2" d="M897.97,-575.97C937.35,-563.98 989.4,-548.14 1026.29,-536.91"/>
<polygon fill="grey" stroke="grey" stroke-width="2" points="1027.72,-540.14 1036.27,-533.88 1025.68,-533.44 1027.72,-540.14"/>
</g>
<!-- 9&#45;&gt;8 -->
<g id="edge18" class="edge">
<title>9&#45;&gt;8</title>
<path fill="none" stroke="grey" stroke-width="2" d="M835.98,-647.7C836.86,-639.98 837.92,-630.71 838.9,-622.11"/>
<polygon fill="grey" stroke="grey" stroke-width="2" points="842.39,-622.44 840.05,-612.1 835.43,-621.64 842.39,-622.44"/>
</g>
<!-- 9&#45;&gt;15 -->
<g id="edge49" class="edge">
<title>9&#45;&gt;15</title>
<path fill="none" stroke="grey" stroke-width="2" d="M895.73,-656.71C1011.51,-639.95 1254.91,-598.58 1314,-540 1343.09,-511.16 1338,-491.97 1338,-451 1338,-451 1338,-451 1338,-233 1338,-161.55 1102.11,-115.03 999.14,-98.13"/>
<polygon fill="grey" stroke="grey" stroke-width="2" points="999.44,-94.63 989.01,-96.49 998.32,-101.54 999.44,-94.63"/>
</g>
<!-- 9&#45;&gt;19 -->
<g id="edge62" class="edge">
<title>9&#45;&gt;19</title>
<path fill="none" stroke="grey" stroke-width="2" d="M772.84,-647.94C753.09,-639.83 732.56,-628.24 718,-612 679.99,-569.61 638.38,-400.89 623.08,-334.26"/>
<polygon fill="grey" stroke="grey" stroke-width="2" points="626.4,-333.1 620.77,-324.13 619.58,-334.65 626.4,-333.1"/>
</g>
<!-- 9&#45;&gt;21 -->
<g id="edge77" class="edge">
<title>9&#45;&gt;21</title>
<path fill="none" stroke="grey" stroke-width="2" d="M794.44,-647.9C778.76,-639.26 761.9,-627.32 751,-612 701.48,-542.41 661.56,-276.9 649.65,-190.41"/>
<polygon fill="grey" stroke="grey" stroke-width="2" points="653.09,-189.76 648.27,-180.33 646.15,-190.71 653.09,-189.76"/>
</g>
<!-- 10&#45;&gt;0 -->
<g id="edge1" class="edge">
<title>10&#45;&gt;0</title>
<path fill="none" stroke="grey" stroke-width="2" d="M248.22,-445.63C213.45,-440.55 162.74,-427.83 132,-396 108.76,-371.93 114.94,-357.09 110,-324 90.26,-191.84 149.4,-120.29 274,-72 354.6,-40.76 970.4,-23.77 1129.55,-19.87"/>
<polygon fill="grey" stroke="grey" stroke-width="2" points="1129.88,-23.37 1139.79,-19.63 1129.71,-16.37 1129.88,-23.37"/>
</g>
<!-- 11 -->
<g id="node12" class="node">
<title>11</title>
<path fill="none" stroke="#56b1d8" stroke-width="2" d="M245.5,-396C245.5,-396 192.5,-396 192.5,-396 186.5,-396 180.5,-390 180.5,-384 180.5,-384 180.5,-372 180.5,-372 180.5,-366 186.5,-360 192.5,-360 192.5,-360 245.5,-360 245.5,-360 251.5,-360 257.5,-366 257.5,-372 257.5,-372 257.5,-384 257.5,-384 257.5,-390 251.5,-396 245.5,-396"/>
<text text-anchor="middle" x="219" y="-375.5" font-family="sans" font-size="10.00">fit_polyclonal</text>
</g>
<!-- 10&#45;&gt;11 -->
<g id="edge27" class="edge">
<title>10&#45;&gt;11</title>
<path fill="none" stroke="grey" stroke-width="2" d="M269.44,-431.7C261.32,-423.22 251.41,-412.86 242.53,-403.58"/>
<polygon fill="grey" stroke="grey" stroke-width="2" points="244.81,-400.91 235.37,-396.1 239.76,-405.75 244.81,-400.91"/>
</g>
<!-- 10&#45;&gt;15 -->
<g id="edge36" class="edge">
<title>10&#45;&gt;15</title>
<path fill="none" stroke="grey" stroke-width="2" d="M248.25,-436.84C197.62,-417.89 114,-376.12 114,-307 114,-307 114,-307 114,-233 114,-174.16 157.91,-167.15 212,-144 337.34,-90.36 761.44,-89.19 904.46,-90.39"/>
<polygon fill="grey" stroke="grey" stroke-width="2" points="904.62,-93.89 914.65,-90.49 904.69,-86.89 904.62,-93.89"/>
</g>
<!-- 17 -->
<g id="node18" class="node">
<title>17</title>
<path fill="none" stroke="#70d856" stroke-width="2" d="M416,-396C416,-396 326,-396 326,-396 320,-396 314,-390 314,-384 314,-384 314,-372 314,-372 314,-366 320,-360 326,-360 326,-360 416,-360 416,-360 422,-360 428,-366 428,-372 428,-372 428,-384 428,-384 428,-390 422,-396 416,-396"/>
<text text-anchor="middle" x="371" y="-375.5" font-family="sans" font-size="10.00">analyze_prob_escape</text>
</g>
<!-- 10&#45;&gt;17 -->
<g id="edge52" class="edge">
<title>10&#45;&gt;17</title>
<path fill="none" stroke="grey" stroke-width="2" d="M307.01,-431.7C317.72,-422.88 330.89,-412.03 342.5,-402.47"/>
<polygon fill="grey" stroke="grey" stroke-width="2" points="344.74,-405.16 350.23,-396.1 340.29,-399.76 344.74,-405.16"/>
</g>
<!-- 10&#45;&gt;21 -->
<g id="edge65" class="edge">
<title>10&#45;&gt;21</title>
<path fill="none" stroke="grey" stroke-width="2" d="M286.67,-431.88C288.06,-413.15 292.28,-382.76 305,-360 310.66,-349.88 445.92,-221.73 456,-216 502.15,-189.77 562.07,-175.87 602.17,-168.99"/>
<polygon fill="grey" stroke="grey" stroke-width="2" points="602.86,-172.42 612.17,-167.35 601.73,-165.52 602.86,-172.42"/>
</g>
<!-- 11&#45;&gt;0 -->
<g id="edge2" class="edge">
<title>11&#45;&gt;0</title>
<path fill="none" stroke="grey" stroke-width="2" d="M211.13,-359.93C192.31,-316.29 150.65,-200.15 212,-144 349.31,-18.33 970.08,-16.7 1129.56,-18.41"/>
<polygon fill="grey" stroke="grey" stroke-width="2" points="1129.77,-21.92 1139.81,-18.53 1129.85,-14.92 1129.77,-21.92"/>
</g>
<!-- 11&#45;&gt;15 -->
<g id="edge41" class="edge">
<title>11&#45;&gt;15</title>
<path fill="none" stroke="grey" stroke-width="2" d="M213.92,-359.71C202.12,-315.54 178.47,-198.24 242,-144 292.2,-101.13 753.02,-92.9 904.2,-91.35"/>
<polygon fill="grey" stroke="grey" stroke-width="2" points="904.58,-94.85 914.54,-91.25 904.51,-87.85 904.58,-94.85"/>
</g>
<!-- 11&#45;&gt;19 -->
<g id="edge58" class="edge">
<title>11&#45;&gt;19</title>
<path fill="none" stroke="grey" stroke-width="2" d="M257.92,-369.08C272.65,-366.14 289.58,-362.83 305,-360 398.74,-342.78 508.69,-324.56 569.85,-314.6"/>
<polygon fill="grey" stroke="grey" stroke-width="2" points="570.65,-318.02 579.96,-312.96 569.53,-311.11 570.65,-318.02"/>
</g>
<!-- 11&#45;&gt;21 -->
<g id="edge70" class="edge">
<title>11&#45;&gt;21</title>
<path fill="none" stroke="grey" stroke-width="2" d="M232.49,-359.94C248.33,-340.69 276.13,-309.31 305,-288 333.46,-266.99 345.96,-270.68 376,-252 398.64,-237.92 399.86,-227.33 424,-216 455.32,-201.3 547.21,-181.99 602.47,-171.2"/>
<polygon fill="grey" stroke="grey" stroke-width="2" points="603.18,-174.63 612.33,-169.29 601.85,-167.76 603.18,-174.63"/>
</g>
<!-- 12&#45;&gt;0 -->
<g id="edge8" class="edge">
<title>12&#45;&gt;0</title>
<path fill="none" stroke="grey" stroke-width="2" d="M1107.74,-511.87C1162.78,-495.42 1262,-455.18 1262,-379 1262,-379 1262,-379 1262,-161 1262,-113.01 1224.06,-68.96 1196.13,-43.04"/>
<polygon fill="grey" stroke="grey" stroke-width="2" points="1198.33,-40.31 1188.56,-36.22 1193.65,-45.52 1198.33,-40.31"/>
</g>
<!-- 13 -->
<g id="node14" class="node">
<title>13</title>
<path fill="none" stroke="#d8cb56" stroke-width="2" d="M1110,-468C1110,-468 1036,-468 1036,-468 1030,-468 1024,-462 1024,-456 1024,-456 1024,-444 1024,-444 1024,-438 1030,-432 1036,-432 1036,-432 1110,-432 1110,-432 1116,-432 1122,-438 1122,-444 1122,-444 1122,-456 1122,-456 1122,-462 1116,-468 1110,-468"/>
<text text-anchor="middle" x="1073" y="-447.5" font-family="sans" font-size="10.00">fit_globalepistasis</text>
</g>
<!-- 12&#45;&gt;13 -->
<g id="edge32" class="edge">
<title>12&#45;&gt;13</title>
<path fill="none" stroke="grey" stroke-width="2" d="M1072.25,-503.7C1072.36,-495.98 1072.49,-486.71 1072.61,-478.11"/>
<polygon fill="grey" stroke="grey" stroke-width="2" points="1076.11,-478.15 1072.76,-468.1 1069.11,-478.05 1076.11,-478.15"/>
</g>
<!-- 12&#45;&gt;15 -->
<g id="edge50" class="edge">
<title>12&#45;&gt;15</title>
<path fill="none" stroke="grey" stroke-width="2" d="M1107.64,-506.51C1152.56,-485.6 1224,-442.38 1224,-379 1224,-379 1224,-379 1224,-305 1224,-221 1191.44,-195.4 1125,-144 1088.43,-115.72 1036.74,-102.44 999.39,-96.26"/>
<polygon fill="grey" stroke="grey" stroke-width="2" points="999.68,-92.76 989.26,-94.7 998.61,-99.68 999.68,-92.76"/>
</g>
<!-- 16 -->
<g id="node17" class="node">
<title>16</title>
<path fill="none" stroke="#56d8c9" stroke-width="2" d="M924,-396C924,-396 838,-396 838,-396 832,-396 826,-390 826,-384 826,-384 826,-372 826,-372 826,-366 832,-360 838,-360 838,-360 924,-360 924,-360 930,-360 936,-366 936,-372 936,-372 936,-384 936,-384 936,-390 930,-396 924,-396"/>
<text text-anchor="middle" x="881" y="-375.5" font-family="sans" font-size="10.00">analyze_func_scores</text>
</g>
<!-- 12&#45;&gt;16 -->
<g id="edge51" class="edge">
<title>12&#45;&gt;16</title>
<path fill="none" stroke="grey" stroke-width="2" d="M1036.37,-510.8C1010.6,-502.23 975.89,-488.12 950,-468 927.61,-450.6 908.44,-424.35 896.03,-404.86"/>
<polygon fill="grey" stroke="grey" stroke-width="2" points="898.9,-402.84 890.66,-396.18 892.94,-406.52 898.9,-402.84"/>
</g>
<!-- 12&#45;&gt;21 -->
<g id="edge78" class="edge">
<title>12&#45;&gt;21</title>
<path fill="none" stroke="grey" stroke-width="2" d="M1051.3,-503.97C1039.93,-494.08 1025.95,-481.04 1015,-468 927.16,-363.37 951.59,-293.38 839,-216 793.86,-184.98 731.13,-172.06 689.59,-166.72"/>
<polygon fill="grey" stroke="grey" stroke-width="2" points="689.85,-163.23 679.51,-165.52 689.02,-170.18 689.85,-163.23"/>
</g>
<!-- 13&#45;&gt;0 -->
<g id="edge7" class="edge">
<title>13&#45;&gt;0</title>
<path fill="none" stroke="grey" stroke-width="2" d="M1109.92,-431.94C1124.69,-423.26 1140.43,-411.26 1150,-396 1220.69,-283.19 1189.88,-111.96 1174.15,-46.11"/>
<polygon fill="grey" stroke="grey" stroke-width="2" points="1177.48,-44.99 1171.69,-36.12 1170.69,-46.67 1177.48,-44.99"/>
</g>
<!-- 14 -->
<g id="node15" class="node">
<title>14</title>
<path fill="none" stroke="#88d856" stroke-width="2" d="M1107.5,-396C1107.5,-396 1042.5,-396 1042.5,-396 1036.5,-396 1030.5,-390 1030.5,-384 1030.5,-384 1030.5,-372 1030.5,-372 1030.5,-366 1036.5,-360 1042.5,-360 1042.5,-360 1107.5,-360 1107.5,-360 1113.5,-360 1119.5,-366 1119.5,-372 1119.5,-372 1119.5,-384 1119.5,-384 1119.5,-390 1113.5,-396 1107.5,-396"/>
<text text-anchor="middle" x="1075" y="-375.5" font-family="sans" font-size="10.00">avg_muteffects</text>
</g>
<!-- 13&#45;&gt;14 -->
<g id="edge33" class="edge">
<title>13&#45;&gt;14</title>
<path fill="none" stroke="grey" stroke-width="2" d="M1073.49,-431.7C1073.71,-423.98 1073.98,-414.71 1074.23,-406.11"/>
<polygon fill="grey" stroke="grey" stroke-width="2" points="1077.72,-406.2 1074.51,-396.1 1070.73,-406 1077.72,-406.2"/>
</g>
<!-- 13&#45;&gt;15 -->
<g id="edge48" class="edge">
<title>13&#45;&gt;15</title>
<path fill="none" stroke="grey" stroke-width="2" d="M1096.96,-431.88C1108.34,-422.53 1121.14,-410.01 1129,-396 1148.8,-360.73 1148,-347.45 1148,-307 1148,-307 1148,-307 1148,-233 1148,-159.71 1057.03,-120.38 999.04,-102.74"/>
<polygon fill="grey" stroke="grey" stroke-width="2" points="999.91,-99.35 989.33,-99.9 997.94,-106.07 999.91,-99.35"/>
</g>
<!-- 13&#45;&gt;19 -->
<g id="edge61" class="edge">
<title>13&#45;&gt;19</title>
<path fill="none" stroke="grey" stroke-width="2" d="M1023.59,-442C971.43,-433.86 887.21,-418.6 817,-396 760.4,-377.78 698.28,-348.59 658.53,-328.64"/>
<polygon fill="grey" stroke="grey" stroke-width="2" points="659.92,-325.42 649.41,-324.03 656.76,-331.67 659.92,-325.42"/>
</g>
<!-- 13&#45;&gt;21 -->
<g id="edge76" class="edge">
<title>13&#45;&gt;21</title>
<path fill="none" stroke="grey" stroke-width="2" d="M1053.54,-431.61C1043.33,-421.81 1031.08,-408.97 1022,-396 970.95,-323.03 1004.94,-269.82 934,-216 896.25,-187.36 760.74,-172.32 689.88,-166.27"/>
<polygon fill="grey" stroke="grey" stroke-width="2" points="689.76,-162.75 679.5,-165.41 689.18,-169.72 689.76,-162.75"/>
</g>
<!-- 14&#45;&gt;0 -->
<g id="edge5" class="edge">
<title>14&#45;&gt;0</title>
<path fill="none" stroke="grey" stroke-width="2" d="M1082.08,-359.85C1092.31,-333.49 1110,-281.21 1110,-235 1110,-235 1110,-235 1110,-161 1110,-117.8 1133,-72.19 1149.78,-44.66"/>
<polygon fill="grey" stroke="grey" stroke-width="2" points="1152.83,-46.37 1155.19,-36.04 1146.91,-42.65 1152.83,-46.37"/>
</g>
<!-- 14&#45;&gt;15 -->
<g id="edge45" class="edge">
<title>14&#45;&gt;15</title>
<path fill="none" stroke="grey" stroke-width="2" d="M1067.67,-359.97C1047.04,-311.99 988.34,-175.5 963.42,-117.54"/>
<polygon fill="grey" stroke="grey" stroke-width="2" points="966.61,-116.11 959.44,-108.31 960.18,-118.88 966.61,-116.11"/>
</g>
<!-- 14&#45;&gt;19 -->
<g id="edge59" class="edge">
<title>14&#45;&gt;19</title>
<path fill="none" stroke="grey" stroke-width="2" d="M1030.25,-370.16C943.43,-356.89 752.88,-327.77 664.17,-314.21"/>
<polygon fill="grey" stroke="grey" stroke-width="2" points="664.53,-310.72 654.12,-312.67 663.48,-317.64 664.53,-310.72"/>
</g>
<!-- 14&#45;&gt;21 -->
<g id="edge73" class="edge">
<title>14&#45;&gt;21</title>
<path fill="none" stroke="grey" stroke-width="2" d="M1069.45,-359.99C1057.53,-326.35 1026.07,-251.54 972,-216 926.35,-186 768.06,-171.3 690.09,-165.74"/>
<polygon fill="grey" stroke="grey" stroke-width="2" points="689.86,-162.21 679.64,-165.01 689.38,-169.2 689.86,-162.21"/>
</g>
<!-- 15&#45;&gt;0 -->
<g id="edge4" class="edge">
<title>15&#45;&gt;0</title>
<path fill="none" stroke="grey" stroke-width="2" d="M989.45,-76.81C1028.96,-63.94 1090.84,-43.8 1130.13,-31.01"/>
<polygon fill="grey" stroke="grey" stroke-width="2" points="1131.42,-34.27 1139.85,-27.84 1129.25,-27.61 1131.42,-34.27"/>
</g>
<!-- 16&#45;&gt;15 -->
<g id="edge39" class="edge">
<title>16&#45;&gt;15</title>
<path fill="none" stroke="grey" stroke-width="2" d="M885.23,-359.97C897.09,-312.19 930.74,-176.62 945.23,-118.27"/>
<polygon fill="grey" stroke="grey" stroke-width="2" points="948.69,-118.86 947.7,-108.31 941.9,-117.17 948.69,-118.86"/>
</g>
<!-- 16&#45;&gt;19 -->
<g id="edge57" class="edge">
<title>16&#45;&gt;19</title>
<path fill="none" stroke="grey" stroke-width="2" d="M825.98,-362.41C778.07,-349.71 709.37,-331.49 663.99,-319.46"/>
<polygon fill="grey" stroke="grey" stroke-width="2" points="664.68,-316.02 654.12,-316.84 662.89,-322.79 664.68,-316.02"/>
</g>
<!-- 16&#45;&gt;21 -->
<g id="edge68" class="edge">
<title>16&#45;&gt;21</title>
<path fill="none" stroke="grey" stroke-width="2" d="M878.46,-359.97C872.69,-327.3 855.55,-255.57 812,-216 778.13,-185.23 726.32,-172.32 689.6,-166.9"/>
<polygon fill="grey" stroke="grey" stroke-width="2" points="690.05,-163.43 679.67,-165.57 689.12,-170.37 690.05,-163.43"/>
</g>
<!-- 17&#45;&gt;15 -->
<g id="edge34" class="edge">
<title>17&#45;&gt;15</title>
<path fill="none" stroke="grey" stroke-width="2" d="M341.14,-359.9C308.3,-339.18 257.36,-300.88 236,-252 214.19,-202.07 245.84,-169.47 294,-144 347.62,-115.64 762.54,-97.94 904.53,-92.66"/>
<polygon fill="grey" stroke="grey" stroke-width="2" points="904.8,-96.16 914.67,-92.29 904.54,-89.16 904.8,-96.16"/>
</g>
<!-- 17&#45;&gt;19 -->
<g id="edge54" class="edge">
<title>17&#45;&gt;19</title>
<path fill="none" stroke="grey" stroke-width="2" d="M428.06,-360.76C471.1,-348.52 529.45,-331.91 569.87,-320.41"/>
<polygon fill="grey" stroke="grey" stroke-width="2" points="571.08,-323.71 579.74,-317.6 569.16,-316.97 571.08,-323.71"/>
</g>
<!-- 17&#45;&gt;21 -->
<g id="edge63" class="edge">
<title>17&#45;&gt;21</title>
<path fill="none" stroke="grey" stroke-width="2" d="M380.38,-359.86C399.02,-327.33 443.81,-256.26 500,-216 530.72,-193.99 571.57,-180.19 602.24,-172.21"/>
<polygon fill="grey" stroke="grey" stroke-width="2" points="603.37,-175.54 612.22,-169.73 601.67,-168.75 603.37,-175.54"/>
</g>
<!-- 18 -->
<g id="node19" class="node">
<title>18</title>
<path fill="none" stroke="#9fd856" stroke-width="2" d="M720,-252C720,-252 686,-252 686,-252 680,-252 674,-246 674,-240 674,-240 674,-228 674,-228 674,-222 680,-216 686,-216 686,-216 720,-216 720,-216 726,-216 732,-222 732,-228 732,-228 732,-240 732,-240 732,-246 726,-252 720,-252"/>
<text text-anchor="middle" x="703" y="-231.5" font-family="sans" font-size="10.00">subindex</text>
</g>
<!-- 18&#45;&gt;15 -->
<g id="edge37" class="edge">
<title>18&#45;&gt;15</title>
<path fill="none" stroke="grey" stroke-width="2" d="M732.05,-216.43C776.86,-190.88 862.88,-141.82 913.04,-113.22"/>
<polygon fill="grey" stroke="grey" stroke-width="2" points="915.02,-116.12 921.97,-108.12 911.55,-110.04 915.02,-116.12"/>
</g>
<!-- 18&#45;&gt;21 -->
<g id="edge66" class="edge">
<title>18&#45;&gt;21</title>
<path fill="none" stroke="grey" stroke-width="2" d="M688.91,-215.7C682.08,-207.3 673.74,-197.07 666.24,-187.86"/>
<polygon fill="grey" stroke="grey" stroke-width="2" points="668.96,-185.65 659.93,-180.1 663.53,-190.07 668.96,-185.65"/>
</g>
<!-- 19&#45;&gt;15 -->
<g id="edge40" class="edge">
<title>19&#45;&gt;15</title>
<path fill="none" stroke="grey" stroke-width="2" d="M579.76,-302.4C490.22,-295.77 268.65,-276.98 247,-252 236.52,-239.91 237.65,-228.99 247,-216 324.13,-108.84 758.71,-93.45 904.4,-91.32"/>
<polygon fill="grey" stroke="grey" stroke-width="2" points="904.83,-94.81 914.78,-91.18 904.74,-87.81 904.83,-94.81"/>
</g>
<!-- 19&#45;&gt;18 -->
<g id="edge53" class="edge">
<title>19&#45;&gt;18</title>
<path fill="none" stroke="grey" stroke-width="2" d="M638.26,-287.7C649.09,-278.88 662.42,-268.03 674.16,-258.47"/>
<polygon fill="grey" stroke="grey" stroke-width="2" points="676.44,-261.13 681.99,-252.1 672.02,-255.7 676.44,-261.13"/>
</g>
<!-- 19&#45;&gt;21 -->
<g id="edge69" class="edge">
<title>19&#45;&gt;21</title>
<path fill="none" stroke="grey" stroke-width="2" d="M619.42,-287.85C622.06,-269.86 626.64,-240.81 632,-216 633.84,-207.5 636.15,-198.31 638.36,-190.01"/>
<polygon fill="grey" stroke="grey" stroke-width="2" points="641.81,-190.66 641.06,-180.09 635.05,-188.82 641.81,-190.66"/>
</g>
<!-- 20 -->
<g id="node21" class="node">
<title>20</title>
<path fill="none" stroke="#d89c56" stroke-width="2" d="M322,-252C322,-252 268,-252 268,-252 262,-252 256,-246 256,-240 256,-240 256,-228 256,-228 256,-222 262,-216 268,-216 268,-216 322,-216 322,-216 328,-216 334,-222 334,-228 334,-228 334,-240 334,-240 334,-246 328,-252 322,-252"/>
<text text-anchor="middle" x="295" y="-231.5" font-family="sans" font-size="10.00">make_graphs</text>
</g>
<!-- 20&#45;&gt;15 -->
<g id="edge46" class="edge">
<title>20&#45;&gt;15</title>
<path fill="none" stroke="grey" stroke-width="2" d="M334.02,-220.31C338.73,-218.83 343.47,-217.36 348,-216 461.18,-181.94 488.47,-168.94 604,-144 710.46,-121.01 837.35,-104.35 904.63,-96.34"/>
<polygon fill="grey" stroke="grey" stroke-width="2" points="905.38,-99.77 914.9,-95.13 904.56,-92.82 905.38,-99.77"/>
</g>
<!-- 20&#45;&gt;21 -->
<g id="edge74" class="edge">
<title>20&#45;&gt;21</title>
<path fill="none" stroke="grey" stroke-width="2" d="M334.19,-219.78C338.82,-218.41 343.5,-217.12 348,-216 437.25,-193.86 543.73,-177.22 602.18,-168.91"/>
<polygon fill="grey" stroke="grey" stroke-width="2" points="602.76,-172.36 612.17,-167.5 601.78,-165.43 602.76,-172.36"/>
</g>
<!-- 21&#45;&gt;15 -->
<g id="edge44" class="edge">
<title>21&#45;&gt;15</title>
<path fill="none" stroke="grey" stroke-width="2" d="M679.62,-153.31C734.33,-140.79 842.76,-115.99 905.04,-101.74"/>
<polygon fill="grey" stroke="grey" stroke-width="2" points="906.03,-105.11 915,-99.46 904.47,-98.28 906.03,-105.11"/>
</g>
</g>
</svg>
