<?xml version="1.0" encoding="UTF-8" standalone="no"?>
<!DOCTYPE svg PUBLIC "-//W3C//DTD SVG 1.1//EN"
 "http://www.w3.org/Graphics/SVG/1.1/DTD/svg11.dtd">
<!-- Generated by graphviz version 3.0.0 (20220315.2325)
 -->
<!-- Title: snakemake_dag Pages: 1 -->
<svg width="1422pt" height="1124pt"
 viewBox="0.00 0.00 1422.00 1124.00" xmlns="http://www.w3.org/2000/svg" xmlns:xlink="http://www.w3.org/1999/xlink">
<g id="graph0" class="graph" transform="scale(1 1) rotate(0) translate(4 1120)">
<title>snakemake_dag</title>
<polygon fill="white" stroke="transparent" points="-4,4 -4,-1120 1418,-1120 1418,4 -4,4"/>
<!-- 0 -->
<g id="node1" class="node">
<title>0</title>
<path fill="none" stroke="#56d8a2" stroke-width="2" d="M1138,-36C1138,-36 1108,-36 1108,-36 1102,-36 1096,-30 1096,-24 1096,-24 1096,-12 1096,-12 1096,-6 1102,0 1108,0 1108,0 1138,0 1138,0 1144,0 1150,-6 1150,-12 1150,-12 1150,-24 1150,-24 1150,-30 1144,-36 1138,-36"/>
<text text-anchor="middle" x="1123" y="-15.5" font-family="sans" font-size="10.00">all</text>
</g>
<!-- 1 -->
<g id="node2" class="node">
<title>1</title>
<path fill="none" stroke="#569ad8" stroke-width="2" d="M1044,-756C1044,-756 984,-756 984,-756 978,-756 972,-750 972,-744 972,-744 972,-732 972,-732 972,-726 978,-720 984,-720 984,-720 1044,-720 1044,-720 1050,-720 1056,-726 1056,-732 1056,-732 1056,-744 1056,-744 1056,-750 1050,-756 1044,-756"/>
<text text-anchor="middle" x="1014" y="-735.5" font-family="sans" font-size="10.00">variant_counts</text>
</g>
<!-- 1&#45;&gt;0 -->
<g id="edge5" class="edge">
<title>1&#45;&gt;0</title>
<path fill="none" stroke="grey" stroke-width="2" d="M1056.23,-732.03C1151.73,-718.22 1376,-670.11 1376,-523 1376,-523 1376,-523 1376,-305 1376,-175.57 1228.85,-77.22 1159,-37.82"/>
<polygon fill="grey" stroke="grey" stroke-width="2" points="1160.52,-34.66 1150.08,-32.87 1157.12,-40.78 1160.52,-34.66"/>
</g>
<!-- 9 -->
<g id="node10" class="node">
<title>9</title>
<path fill="none" stroke="#d8b456" stroke-width="2" d="M869.5,-684C869.5,-684 770.5,-684 770.5,-684 764.5,-684 758.5,-678 758.5,-672 758.5,-672 758.5,-660 758.5,-660 758.5,-654 764.5,-648 770.5,-648 770.5,-648 869.5,-648 869.5,-648 875.5,-648 881.5,-654 881.5,-660 881.5,-660 881.5,-672 881.5,-672 881.5,-678 875.5,-684 869.5,-684"/>
<text text-anchor="middle" x="820" y="-663.5" font-family="sans" font-size="10.00">analyze_variant_counts</text>
</g>
<!-- 1&#45;&gt;9 -->
<g id="edge17" class="edge">
<title>1&#45;&gt;9</title>
<path fill="none" stroke="grey" stroke-width="2" d="M971.9,-721.81C944.05,-711.76 907.19,-698.46 876.75,-687.48"/>
<polygon fill="grey" stroke="grey" stroke-width="2" points="877.71,-684.1 867.12,-684 875.34,-690.69 877.71,-684.1"/>
</g>
<!-- 12 -->
<g id="node13" class="node">
<title>12</title>
<path fill="none" stroke="#78d856" stroke-width="2" d="M1221.5,-540C1221.5,-540 1170.5,-540 1170.5,-540 1164.5,-540 1158.5,-534 1158.5,-528 1158.5,-528 1158.5,-516 1158.5,-516 1158.5,-510 1164.5,-504 1170.5,-504 1170.5,-504 1221.5,-504 1221.5,-504 1227.5,-504 1233.5,-510 1233.5,-516 1233.5,-516 1233.5,-528 1233.5,-528 1233.5,-534 1227.5,-540 1221.5,-540"/>
<text text-anchor="middle" x="1196" y="-519.5" font-family="sans" font-size="10.00">prob_escape</text>
</g>
<!-- 1&#45;&gt;12 -->
<g id="edge24" class="edge">
<title>1&#45;&gt;12</title>
<path fill="none" stroke="grey" stroke-width="2" d="M1035.33,-719.99C1062.87,-697.33 1111.27,-655.06 1145,-612 1160.34,-592.42 1174.12,-567.72 1183.48,-549.31"/>
<polygon fill="grey" stroke="grey" stroke-width="2" points="1186.63,-550.83 1187.95,-540.31 1180.36,-547.71 1186.63,-550.83"/>
</g>
<!-- 14 -->
<g id="node15" class="node">
<title>14</title>
<path fill="none" stroke="#bed856" stroke-width="2" d="M461.5,-540C461.5,-540 414.5,-540 414.5,-540 408.5,-540 402.5,-534 402.5,-528 402.5,-528 402.5,-516 402.5,-516 402.5,-510 408.5,-504 414.5,-504 414.5,-504 461.5,-504 461.5,-504 467.5,-504 473.5,-510 473.5,-516 473.5,-516 473.5,-528 473.5,-528 473.5,-534 467.5,-540 461.5,-540"/>
<text text-anchor="middle" x="438" y="-519.5" font-family="sans" font-size="10.00">func_scores</text>
</g>
<!-- 1&#45;&gt;14 -->
<g id="edge29" class="edge">
<title>1&#45;&gt;14</title>
<path fill="none" stroke="grey" stroke-width="2" d="M971.72,-732.26C918.6,-725.46 825.15,-710.73 749,-684 643.63,-647.02 529.37,-580.22 473.21,-545.44"/>
<polygon fill="grey" stroke="grey" stroke-width="2" points="475.05,-542.46 464.71,-540.14 471.35,-548.4 475.05,-542.46"/>
</g>
<!-- 16 -->
<g id="node17" class="node">
<title>16</title>
<path fill="none" stroke="#56b1d8" stroke-width="2" d="M1020,-108C1020,-108 970,-108 970,-108 964,-108 958,-102 958,-96 958,-96 958,-84 958,-84 958,-78 964,-72 970,-72 970,-72 1020,-72 1020,-72 1026,-72 1032,-78 1032,-84 1032,-84 1032,-96 1032,-96 1032,-102 1026,-108 1020,-108"/>
<text text-anchor="middle" x="995" y="-87.5" font-family="sans" font-size="10.00">sphinx_build</text>
</g>
<!-- 1&#45;&gt;16 -->
<g id="edge45" class="edge">
<title>1&#45;&gt;16</title>
<path fill="none" stroke="grey" stroke-width="2" d="M1050.85,-719.86C1069.18,-710.51 1091.17,-697.99 1109,-684 1206.48,-607.54 1262,-574.89 1262,-451 1262,-451 1262,-451 1262,-305 1262,-222.14 1236.22,-191.03 1168,-144 1130.17,-117.93 1079.11,-104.35 1042.27,-97.49"/>
<polygon fill="grey" stroke="grey" stroke-width="2" points="1042.74,-94.02 1032.28,-95.74 1041.52,-100.92 1042.74,-94.02"/>
</g>
<!-- 22 -->
<g id="node23" class="node">
<title>22</title>
<path fill="none" stroke="#56d892" stroke-width="2" d="M736.5,-180C736.5,-180 693.5,-180 693.5,-180 687.5,-180 681.5,-174 681.5,-168 681.5,-168 681.5,-156 681.5,-156 681.5,-150 687.5,-144 693.5,-144 693.5,-144 736.5,-144 736.5,-144 742.5,-144 748.5,-150 748.5,-156 748.5,-156 748.5,-168 748.5,-168 748.5,-174 742.5,-180 736.5,-180"/>
<text text-anchor="middle" x="715" y="-159.5" font-family="sans" font-size="10.00">docs_index</text>
</g>
<!-- 1&#45;&gt;22 -->
<g id="edge73" class="edge">
<title>1&#45;&gt;22</title>
<path fill="none" stroke="grey" stroke-width="2" d="M1006.36,-719.91C967.28,-632.53 790.81,-238.79 774,-216 766.07,-205.24 755.67,-195.03 745.82,-186.48"/>
<polygon fill="grey" stroke="grey" stroke-width="2" points="748,-183.75 738.09,-180.01 743.51,-189.12 748,-183.75"/>
</g>
<!-- 2 -->
<g id="node3" class="node">
<title>2</title>
<path fill="none" stroke="#d89c56" stroke-width="2" d="M873.5,-828C873.5,-828 808.5,-828 808.5,-828 802.5,-828 796.5,-822 796.5,-816 796.5,-816 796.5,-804 796.5,-804 796.5,-798 802.5,-792 808.5,-792 808.5,-792 873.5,-792 873.5,-792 879.5,-792 885.5,-798 885.5,-804 885.5,-804 885.5,-816 885.5,-816 885.5,-822 879.5,-828 873.5,-828"/>
<text text-anchor="middle" x="841" y="-807.5" font-family="sans" font-size="10.00">count_barcodes</text>
</g>
<!-- 2&#45;&gt;1 -->
<g id="edge8" class="edge">
<title>2&#45;&gt;1</title>
<path fill="none" stroke="grey" stroke-width="2" d="M883.32,-791.88C907.18,-782.22 937.17,-770.09 962.4,-759.88"/>
<polygon fill="grey" stroke="grey" stroke-width="2" points="963.86,-763.06 971.82,-756.07 961.23,-756.57 963.86,-763.06"/>
</g>
<!-- 2&#45;&gt;9 -->
<g id="edge19" class="edge">
<title>2&#45;&gt;9</title>
<path fill="none" stroke="grey" stroke-width="2" d="M838.47,-791.87C834.89,-767.67 828.31,-723.21 824.05,-694.39"/>
<polygon fill="grey" stroke="grey" stroke-width="2" points="827.47,-693.57 822.54,-684.19 820.54,-694.59 827.47,-693.57"/>
</g>
<!-- 3 -->
<g id="node4" class="node">
<title>3</title>
<path fill="none" stroke="#56d863" stroke-width="2" d="M848.5,-900C848.5,-900 759.5,-900 759.5,-900 753.5,-900 747.5,-894 747.5,-888 747.5,-888 747.5,-876 747.5,-876 747.5,-870 753.5,-864 759.5,-864 759.5,-864 848.5,-864 848.5,-864 854.5,-864 860.5,-870 860.5,-876 860.5,-876 860.5,-888 860.5,-888 860.5,-894 854.5,-900 848.5,-900"/>
<text text-anchor="middle" x="804" y="-879.5" font-family="sans" font-size="10.00">build_codon_variants</text>
</g>
<!-- 3&#45;&gt;1 -->
<g id="edge9" class="edge">
<title>3&#45;&gt;1</title>
<path fill="none" stroke="grey" stroke-width="2" d="M834.9,-863.88C852.5,-853.86 874.8,-840.72 894,-828 925.72,-806.98 960.49,-780.83 984.4,-762.32"/>
<polygon fill="grey" stroke="grey" stroke-width="2" points="986.64,-765.02 992.38,-756.12 982.34,-759.49 986.64,-765.02"/>
</g>
<!-- 3&#45;&gt;2 -->
<g id="edge10" class="edge">
<title>3&#45;&gt;2</title>
<path fill="none" stroke="grey" stroke-width="2" d="M813.15,-863.7C817.4,-855.64 822.56,-845.89 827.27,-836.98"/>
<polygon fill="grey" stroke="grey" stroke-width="2" points="830.38,-838.58 831.96,-828.1 824.19,-835.31 830.38,-838.58"/>
</g>
<!-- 3&#45;&gt;9 -->
<g id="edge18" class="edge">
<title>3&#45;&gt;9</title>
<path fill="none" stroke="grey" stroke-width="2" d="M796.93,-863.67C793.16,-853.47 788.91,-840.22 787,-828 779.56,-780.43 796.26,-725.62 808.52,-693.79"/>
<polygon fill="grey" stroke="grey" stroke-width="2" points="811.85,-694.88 812.3,-684.29 805.35,-692.29 811.85,-694.88"/>
</g>
<!-- 3&#45;&gt;12 -->
<g id="edge23" class="edge">
<title>3&#45;&gt;12</title>
<path fill="none" stroke="grey" stroke-width="2" d="M860.6,-872.91C970.48,-855.59 1202,-810.62 1202,-739 1202,-739 1202,-739 1202,-665 1202,-624.96 1199.59,-578.63 1197.82,-550.07"/>
<polygon fill="grey" stroke="grey" stroke-width="2" points="1201.31,-549.8 1197.19,-540.04 1194.33,-550.24 1201.31,-549.8"/>
</g>
<!-- 3&#45;&gt;14 -->
<g id="edge28" class="edge">
<title>3&#45;&gt;14</title>
<path fill="none" stroke="grey" stroke-width="2" d="M747.43,-864.15C724.47,-855.61 698.57,-843.68 678,-828 571.14,-746.57 485.14,-606.95 452.34,-549.19"/>
<polygon fill="grey" stroke="grey" stroke-width="2" points="455.31,-547.34 447.36,-540.33 449.21,-550.77 455.31,-547.34"/>
</g>
<!-- 3&#45;&gt;16 -->
<g id="edge39" class="edge">
<title>3&#45;&gt;16</title>
<path fill="none" stroke="grey" stroke-width="2" d="M860.61,-880.65C927.23,-878.27 1039.83,-867.96 1127,-828 1276.84,-759.31 1338,-687.83 1338,-523 1338,-523 1338,-523 1338,-305 1338,-211.9 1282.77,-193.63 1204,-144 1154.2,-112.62 1086.72,-99.79 1042.07,-94.57"/>
<polygon fill="grey" stroke="grey" stroke-width="2" points="1042.39,-91.08 1032.07,-93.48 1041.63,-98.04 1042.39,-91.08"/>
</g>
<!-- 20 -->
<g id="node21" class="node">
<title>20</title>
<path fill="none" stroke="#d85656" stroke-width="2" d="M538,-324C538,-324 488,-324 488,-324 482,-324 476,-318 476,-312 476,-312 476,-300 476,-300 476,-294 482,-288 488,-288 488,-288 538,-288 538,-288 544,-288 550,-294 550,-300 550,-300 550,-312 550,-312 550,-318 544,-324 538,-324"/>
<text text-anchor="middle" x="513" y="-303.5" font-family="sans" font-size="10.00">make_nblink</text>
</g>
<!-- 3&#45;&gt;20 -->
<g id="edge56" class="edge">
<title>3&#45;&gt;20</title>
<path fill="none" stroke="grey" stroke-width="2" d="M761.85,-864C745.39,-855.43 727.7,-843.52 716,-828 691.34,-795.29 692,-779.97 692,-739 692,-739 692,-739 692,-665 692,-628.43 570.98,-409.96 527.96,-333.44"/>
<polygon fill="grey" stroke="grey" stroke-width="2" points="530.84,-331.43 522.88,-324.43 524.74,-334.86 530.84,-331.43"/>
</g>
<!-- 3&#45;&gt;22 -->
<g id="edge68" class="edge">
<title>3&#45;&gt;22</title>
<path fill="none" stroke="grey" stroke-width="2" d="M787.94,-863.69C766.18,-838.36 730,-788.76 730,-739 730,-739 730,-739 730,-593 730,-440.87 720.51,-258.64 716.62,-190.49"/>
<polygon fill="grey" stroke="grey" stroke-width="2" points="720.1,-189.98 716.03,-180.2 713.11,-190.38 720.1,-189.98"/>
</g>
<!-- 4 -->
<g id="node5" class="node">
<title>4</title>
<path fill="none" stroke="#a7d856" stroke-width="2" d="M629,-972C629,-972 527,-972 527,-972 521,-972 515,-966 515,-960 515,-960 515,-948 515,-948 515,-942 521,-936 527,-936 527,-936 629,-936 629,-936 635,-936 641,-942 641,-948 641,-948 641,-960 641,-960 641,-966 635,-972 629,-972"/>
<text text-anchor="middle" x="578" y="-951.5" font-family="sans" font-size="10.00">build_pacbio_consensus</text>
</g>
<!-- 4&#45;&gt;3 -->
<g id="edge11" class="edge">
<title>4&#45;&gt;3</title>
<path fill="none" stroke="grey" stroke-width="2" d="M633,-935.97C664.99,-926.06 705.48,-913.51 739.04,-903.12"/>
<polygon fill="grey" stroke="grey" stroke-width="2" points="740.24,-906.41 748.76,-900.11 738.17,-899.73 740.24,-906.41"/>
</g>
<!-- 4&#45;&gt;16 -->
<g id="edge37" class="edge">
<title>4&#45;&gt;16</title>
<path fill="none" stroke="grey" stroke-width="2" d="M530.15,-935.88C511.68,-927.38 491.54,-915.55 477,-900 399.67,-817.3 374,-780.22 374,-667 374,-667 374,-667 374,-593 374,-485.15 241.76,-544.76 166,-468 139.98,-441.63 133.67,-431.76 124,-396 91.37,-275.31 135.45,-196.31 249,-144 312.26,-114.86 793.55,-97.33 947.68,-92.43"/>
<polygon fill="grey" stroke="grey" stroke-width="2" points="947.89,-95.92 957.78,-92.11 947.67,-88.92 947.89,-95.92"/>
</g>
<!-- 4&#45;&gt;20 -->
<g id="edge54" class="edge">
<title>4&#45;&gt;20</title>
<path fill="none" stroke="grey" stroke-width="2" d="M550.98,-935.96C517.27,-912.37 464,-866.33 464,-811 464,-811 464,-811 464,-737 464,-640.4 502,-619.6 502,-523 502,-523 502,-523 502,-449 502,-408.88 506.42,-362.57 509.66,-334.03"/>
<polygon fill="grey" stroke="grey" stroke-width="2" points="513.14,-334.36 510.83,-324.02 506.19,-333.54 513.14,-334.36"/>
</g>
<!-- 4&#45;&gt;22 -->
<g id="edge66" class="edge">
<title>4&#45;&gt;22</title>
<path fill="none" stroke="grey" stroke-width="2" d="M585.69,-935.91C596.79,-909.62 616,-857.45 616,-811 616,-811 616,-811 616,-305 616,-256.38 655.54,-212.5 684.65,-186.78"/>
<polygon fill="grey" stroke="grey" stroke-width="2" points="687.22,-189.19 692.54,-180.03 682.66,-183.87 687.22,-189.19"/>
</g>
<!-- 5 -->
<g id="node6" class="node">
<title>5</title>
<path fill="none" stroke="#d8c356" stroke-width="2" d="M452,-1044C452,-1044 372,-1044 372,-1044 366,-1044 360,-1038 360,-1032 360,-1032 360,-1020 360,-1020 360,-1014 366,-1008 372,-1008 372,-1008 452,-1008 452,-1008 458,-1008 464,-1014 464,-1020 464,-1020 464,-1032 464,-1032 464,-1038 458,-1044 452,-1044"/>
<text text-anchor="middle" x="412" y="-1023.5" font-family="sans" font-size="10.00">analyze_pacbio_ccs</text>
</g>
<!-- 5&#45;&gt;4 -->
<g id="edge13" class="edge">
<title>5&#45;&gt;4</title>
<path fill="none" stroke="grey" stroke-width="2" d="M452.61,-1007.88C475.4,-998.26 504.03,-986.19 528.17,-976.01"/>
<polygon fill="grey" stroke="grey" stroke-width="2" points="529.67,-979.18 537.52,-972.07 526.95,-972.73 529.67,-979.18"/>
</g>
<!-- 5&#45;&gt;16 -->
<g id="edge47" class="edge">
<title>5&#45;&gt;16</title>
<path fill="none" stroke="grey" stroke-width="2" d="M359.82,-1018.21C248.96,-1002.33 0,-958.28 0,-883 0,-883 0,-883 0,-377 0,-245.05 66.64,-204.32 184,-144 251.88,-109.11 784.38,-95.34 947.6,-91.91"/>
<polygon fill="grey" stroke="grey" stroke-width="2" points="947.88,-95.4 957.81,-91.7 947.74,-88.4 947.88,-95.4"/>
</g>
<!-- 5&#45;&gt;20 -->
<g id="edge61" class="edge">
<title>5&#45;&gt;20</title>
<path fill="none" stroke="grey" stroke-width="2" d="M395.51,-1007.77C373.16,-982.53 336,-933.05 336,-883 336,-883 336,-883 336,-593 336,-534.14 445.75,-390.64 492.41,-332.29"/>
<polygon fill="grey" stroke="grey" stroke-width="2" points="495.28,-334.31 498.81,-324.32 489.82,-329.93 495.28,-334.31"/>
</g>
<!-- 5&#45;&gt;22 -->
<g id="edge75" class="edge">
<title>5&#45;&gt;22</title>
<path fill="none" stroke="grey" stroke-width="2" d="M420.92,-1007.68C455.4,-939.1 578,-679.22 578,-451 578,-451 578,-451 578,-305 578,-249.74 632.39,-207.75 672.63,-184.23"/>
<polygon fill="grey" stroke="grey" stroke-width="2" points="674.51,-187.19 681.49,-179.22 671.06,-181.1 674.51,-187.19"/>
</g>
<!-- 6 -->
<g id="node7" class="node">
<title>6</title>
<path fill="none" stroke="#5682d8" stroke-width="2" d="M461,-1116C461,-1116 363,-1116 363,-1116 357,-1116 351,-1110 351,-1104 351,-1104 351,-1092 351,-1092 351,-1086 357,-1080 363,-1080 363,-1080 461,-1080 461,-1080 467,-1080 473,-1086 473,-1092 473,-1092 473,-1104 473,-1104 473,-1110 467,-1116 461,-1116"/>
<text text-anchor="middle" x="412" y="-1095.5" font-family="sans" font-size="10.00">align_parse_PacBio_ccs</text>
</g>
<!-- 6&#45;&gt;5 -->
<g id="edge15" class="edge">
<title>6&#45;&gt;5</title>
<path fill="none" stroke="grey" stroke-width="2" d="M412,-1079.7C412,-1071.98 412,-1062.71 412,-1054.11"/>
<polygon fill="grey" stroke="grey" stroke-width="2" points="415.5,-1054.1 412,-1044.1 408.5,-1054.1 415.5,-1054.1"/>
</g>
<!-- 7 -->
<g id="node8" class="node">
<title>7</title>
<path fill="none" stroke="#566bd8" stroke-width="2" d="M948,-1044C948,-1044 882,-1044 882,-1044 876,-1044 870,-1038 870,-1032 870,-1032 870,-1020 870,-1020 870,-1014 876,-1008 882,-1008 882,-1008 948,-1008 948,-1008 954,-1008 960,-1014 960,-1020 960,-1020 960,-1032 960,-1032 960,-1038 954,-1044 948,-1044"/>
<text text-anchor="middle" x="915" y="-1023.5" font-family="sans" font-size="10.00">gene_sequence</text>
</g>
<!-- 7&#45;&gt;1 -->
<g id="edge7" class="edge">
<title>7&#45;&gt;1</title>
<path fill="none" stroke="grey" stroke-width="2" d="M936.33,-1007.97C946.82,-998.47 958.74,-985.78 966,-972 1001.82,-903.97 1010.93,-811.68 1013.23,-766.38"/>
<polygon fill="grey" stroke="grey" stroke-width="2" points="1016.74,-766.31 1013.67,-756.17 1009.74,-766.01 1016.74,-766.31"/>
</g>
<!-- 7&#45;&gt;3 -->
<g id="edge12" class="edge">
<title>7&#45;&gt;3</title>
<path fill="none" stroke="grey" stroke-width="2" d="M901.61,-1007.87C882.19,-983.03 846.09,-936.85 823.65,-908.14"/>
<polygon fill="grey" stroke="grey" stroke-width="2" points="826.35,-905.91 817.44,-900.19 820.84,-910.22 826.35,-905.91"/>
</g>
<!-- 7&#45;&gt;4 -->
<g id="edge14" class="edge">
<title>7&#45;&gt;4</title>
<path fill="none" stroke="grey" stroke-width="2" d="M869.86,-1016.03C817.97,-1005.66 730.25,-987.98 655,-972 653.72,-971.73 652.43,-971.45 651.13,-971.17"/>
<polygon fill="grey" stroke="grey" stroke-width="2" points="651.53,-967.68 641.01,-969 650.05,-974.52 651.53,-967.68"/>
</g>
<!-- 7&#45;&gt;9 -->
<g id="edge20" class="edge">
<title>7&#45;&gt;9</title>
<path fill="none" stroke="grey" stroke-width="2" d="M915.99,-1007.82C917.73,-968.53 919.01,-869.5 894,-792 881.93,-754.59 857.13,-716.4 839.57,-692.25"/>
<polygon fill="grey" stroke="grey" stroke-width="2" points="842.23,-689.96 833.47,-684.01 836.61,-694.13 842.23,-689.96"/>
</g>
<!-- 7&#45;&gt;12 -->
<g id="edge25" class="edge">
<title>7&#45;&gt;12</title>
<path fill="none" stroke="grey" stroke-width="2" d="M960.24,-1017.17C1057.55,-999.03 1278,-950.5 1278,-883 1278,-883 1278,-883 1278,-665 1278,-618.88 1245.16,-574.26 1221.04,-547.72"/>
<polygon fill="grey" stroke="grey" stroke-width="2" points="1223.59,-545.31 1214.2,-540.4 1218.48,-550.1 1223.59,-545.31"/>
</g>
<!-- 7&#45;&gt;14 -->
<g id="edge30" class="edge">
<title>7&#45;&gt;14</title>
<path fill="none" stroke="grey" stroke-width="2" d="M869.95,-1023.44C776.95,-1019.55 567.31,-1007.05 506,-972 360.28,-888.7 409.9,-633.42 430.74,-549.82"/>
<polygon fill="grey" stroke="grey" stroke-width="2" points="434.15,-550.62 433.24,-540.06 427.37,-548.88 434.15,-550.62"/>
</g>
<!-- 7&#45;&gt;16 -->
<g id="edge48" class="edge">
<title>7&#45;&gt;16</title>
<path fill="none" stroke="grey" stroke-width="2" d="M960.16,-1021.85C1083,-1012.04 1414,-976.9 1414,-883 1414,-883 1414,-883 1414,-305 1414,-139.62 1151.91,-101.98 1042.3,-93.46"/>
<polygon fill="grey" stroke="grey" stroke-width="2" points="1042.41,-89.96 1032.18,-92.73 1041.9,-96.94 1042.41,-89.96"/>
</g>
<!-- 7&#45;&gt;22 -->
<g id="edge76" class="edge">
<title>7&#45;&gt;22</title>
<path fill="none" stroke="grey" stroke-width="2" d="M880.61,-1007.96C809.74,-970.15 654,-871.93 654,-739 654,-739 654,-739 654,-665 654,-482.58 694.18,-265.58 709.32,-190.3"/>
<polygon fill="grey" stroke="grey" stroke-width="2" points="712.8,-190.74 711.37,-180.25 705.95,-189.35 712.8,-190.74"/>
</g>
<!-- 8 -->
<g id="node9" class="node">
<title>8</title>
<path fill="none" stroke="#d6d856" stroke-width="2" d="M1124,-612C1124,-612 984,-612 984,-612 978,-612 972,-606 972,-600 972,-600 972,-588 972,-588 972,-582 978,-576 984,-576 984,-576 1124,-576 1124,-576 1130,-576 1136,-582 1136,-588 1136,-588 1136,-600 1136,-600 1136,-606 1130,-612 1124,-612"/>
<text text-anchor="middle" x="1054" y="-591.5" font-family="sans" font-size="10.00">check_adequate_variant_counts</text>
</g>
<!-- 8&#45;&gt;0 -->
<g id="edge6" class="edge">
<title>8&#45;&gt;0</title>
<path fill="none" stroke="grey" stroke-width="2" d="M1071.79,-575.98C1090.87,-557.85 1122.18,-528.46 1150,-504 1215.18,-446.7 1300,-465.78 1300,-379 1300,-379 1300,-379 1300,-305 1300,-189.12 1258.56,-159.85 1183,-72 1174.06,-61.61 1163.1,-51.36 1153.01,-42.68"/>
<polygon fill="grey" stroke="grey" stroke-width="2" points="1155.06,-39.83 1145.15,-36.08 1150.56,-45.19 1155.06,-39.83"/>
</g>
<!-- 8&#45;&gt;12 -->
<g id="edge26" class="edge">
<title>8&#45;&gt;12</title>
<path fill="none" stroke="grey" stroke-width="2" d="M1088.74,-575.88C1107.82,-566.47 1131.68,-554.71 1152.05,-544.67"/>
<polygon fill="grey" stroke="grey" stroke-width="2" points="1153.71,-547.75 1161.13,-540.19 1150.61,-541.47 1153.71,-547.75"/>
</g>
<!-- 8&#45;&gt;14 -->
<g id="edge31" class="edge">
<title>8&#45;&gt;14</title>
<path fill="none" stroke="grey" stroke-width="2" d="M971.88,-583.67C840.46,-568.73 587.16,-539.95 483.71,-528.19"/>
<polygon fill="grey" stroke="grey" stroke-width="2" points="483.92,-524.7 473.59,-527.04 483.13,-531.65 483.92,-524.7"/>
</g>
<!-- 9&#45;&gt;8 -->
<g id="edge16" class="edge">
<title>9&#45;&gt;8</title>
<path fill="none" stroke="grey" stroke-width="2" d="M876.94,-647.97C910.21,-638.01 952.36,-625.41 987.19,-614.99"/>
<polygon fill="grey" stroke="grey" stroke-width="2" points="988.22,-618.33 996.8,-612.11 986.22,-611.62 988.22,-618.33"/>
</g>
<!-- 9&#45;&gt;16 -->
<g id="edge46" class="edge">
<title>9&#45;&gt;16</title>
<path fill="none" stroke="grey" stroke-width="2" d="M835.55,-647.82C882.69,-594.31 1023.01,-423.87 1060,-252 1070.14,-204.87 1071.87,-186.96 1050,-144 1044.46,-133.12 1035.8,-123.22 1026.97,-114.99"/>
<polygon fill="grey" stroke="grey" stroke-width="2" points="1029.07,-112.17 1019.24,-108.21 1024.45,-117.44 1029.07,-112.17"/>
</g>
<!-- 9&#45;&gt;20 -->
<g id="edge60" class="edge">
<title>9&#45;&gt;20</title>
<path fill="none" stroke="grey" stroke-width="2" d="M805.19,-647.73C755.24,-589.48 592.8,-400.06 534.27,-331.8"/>
<polygon fill="grey" stroke="grey" stroke-width="2" points="536.83,-329.41 527.66,-324.09 531.51,-333.96 536.83,-329.41"/>
</g>
<!-- 9&#45;&gt;22 -->
<g id="edge74" class="edge">
<title>9&#45;&gt;22</title>
<path fill="none" stroke="grey" stroke-width="2" d="M817.17,-647.57C813.08,-620.84 806,-568.09 806,-523 806,-523 806,-523 806,-449 806,-342.7 795.21,-313.12 752,-216 747.73,-206.41 741.65,-196.76 735.64,-188.36"/>
<polygon fill="grey" stroke="grey" stroke-width="2" points="738.28,-186.04 729.49,-180.13 732.67,-190.23 738.28,-186.04"/>
</g>
<!-- 10 -->
<g id="node11" class="node">
<title>10</title>
<path fill="none" stroke="#56c9d8" stroke-width="2" d="M1183.5,-396C1183.5,-396 1092.5,-396 1092.5,-396 1086.5,-396 1080.5,-390 1080.5,-384 1080.5,-384 1080.5,-372 1080.5,-372 1080.5,-366 1086.5,-360 1092.5,-360 1092.5,-360 1183.5,-360 1183.5,-360 1189.5,-360 1195.5,-366 1195.5,-372 1195.5,-372 1195.5,-384 1195.5,-384 1195.5,-390 1189.5,-396 1183.5,-396"/>
<text text-anchor="middle" x="1138" y="-375.5" font-family="sans" font-size="10.00">avg_antibody_escape</text>
</g>
<!-- 10&#45;&gt;0 -->
<g id="edge1" class="edge">
<title>10&#45;&gt;0</title>
<path fill="none" stroke="grey" stroke-width="2" d="M1147.27,-359.97C1167.09,-321.39 1210.19,-224.4 1190,-144 1180.65,-106.78 1157.85,-68.55 1141.45,-44.33"/>
<polygon fill="grey" stroke="grey" stroke-width="2" points="1144.3,-42.3 1135.73,-36.07 1138.54,-46.29 1144.3,-42.3"/>
</g>
<!-- 10&#45;&gt;16 -->
<g id="edge43" class="edge">
<title>10&#45;&gt;16</title>
<path fill="none" stroke="grey" stroke-width="2" d="M1141.57,-359.77C1149.15,-318.19 1162.45,-210.84 1114,-144 1097.07,-120.64 1067.46,-107.4 1042.02,-100"/>
<polygon fill="grey" stroke="grey" stroke-width="2" points="1042.71,-96.56 1032.14,-97.35 1040.89,-103.32 1042.71,-96.56"/>
</g>
<!-- 10&#45;&gt;20 -->
<g id="edge55" class="edge">
<title>10&#45;&gt;20</title>
<path fill="none" stroke="grey" stroke-width="2" d="M1080.26,-370.02C1054.22,-366.9 1023.07,-363.21 995,-360 835.66,-341.77 646.55,-321.32 560.21,-312.05"/>
<polygon fill="grey" stroke="grey" stroke-width="2" points="560.52,-308.56 550.2,-310.98 559.77,-315.53 560.52,-308.56"/>
</g>
<!-- 10&#45;&gt;22 -->
<g id="edge72" class="edge">
<title>10&#45;&gt;22</title>
<path fill="none" stroke="grey" stroke-width="2" d="M1109.79,-359.99C1071.89,-336.81 1002.86,-293.44 947,-252 926.98,-237.15 926.05,-227.62 904,-216 857.41,-191.44 798.19,-177.21 758.57,-169.8"/>
<polygon fill="grey" stroke="grey" stroke-width="2" points="759.16,-166.35 748.69,-168.02 757.91,-173.24 759.16,-166.35"/>
</g>
<!-- 11 -->
<g id="node12" class="node">
<title>11</title>
<path fill="none" stroke="#8fd856" stroke-width="2" d="M1164.5,-468C1164.5,-468 1111.5,-468 1111.5,-468 1105.5,-468 1099.5,-462 1099.5,-456 1099.5,-456 1099.5,-444 1099.5,-444 1099.5,-438 1105.5,-432 1111.5,-432 1111.5,-432 1164.5,-432 1164.5,-432 1170.5,-432 1176.5,-438 1176.5,-444 1176.5,-444 1176.5,-456 1176.5,-456 1176.5,-462 1170.5,-468 1164.5,-468"/>
<text text-anchor="middle" x="1138" y="-447.5" font-family="sans" font-size="10.00">fit_polyclonal</text>
</g>
<!-- 11&#45;&gt;10 -->
<g id="edge21" class="edge">
<title>11&#45;&gt;10</title>
<path fill="none" stroke="grey" stroke-width="2" d="M1138,-431.7C1138,-423.98 1138,-414.71 1138,-406.11"/>
<polygon fill="grey" stroke="grey" stroke-width="2" points="1141.5,-406.1 1138,-396.1 1134.5,-406.1 1141.5,-406.1"/>
</g>
<!-- 11&#45;&gt;16 -->
<g id="edge41" class="edge">
<title>11&#45;&gt;16</title>
<path fill="none" stroke="grey" stroke-width="2" d="M1170.05,-431.88C1183.12,-423.05 1196.82,-410.97 1204,-396 1240.78,-319.29 1276.07,-290.38 1138,-144 1112.95,-117.44 1073.39,-104.11 1042.22,-97.47"/>
<polygon fill="grey" stroke="grey" stroke-width="2" points="1042.49,-93.96 1032,-95.47 1041.14,-100.83 1042.49,-93.96"/>
</g>
<!-- 11&#45;&gt;20 -->
<g id="edge53" class="edge">
<title>11&#45;&gt;20</title>
<path fill="none" stroke="grey" stroke-width="2" d="M1099.14,-442.25C1045.74,-432.81 946.75,-414.7 863,-396 753.87,-371.63 626.93,-338.02 559.95,-319.87"/>
<polygon fill="grey" stroke="grey" stroke-width="2" points="560.69,-316.45 550.12,-317.2 558.86,-323.2 560.69,-316.45"/>
</g>
<!-- 11&#45;&gt;22 -->
<g id="edge70" class="edge">
<title>11&#45;&gt;22</title>
<path fill="none" stroke="grey" stroke-width="2" d="M1115.82,-431.77C1102.69,-421.49 1085.8,-408.13 1071,-396 1059.05,-386.21 872.34,-223.79 859,-216 827.27,-197.48 787.94,-183.53 758.4,-174.61"/>
<polygon fill="grey" stroke="grey" stroke-width="2" points="759.37,-171.24 748.78,-171.77 757.39,-177.96 759.37,-171.24"/>
</g>
<!-- 12&#45;&gt;11 -->
<g id="edge22" class="edge">
<title>12&#45;&gt;11</title>
<path fill="none" stroke="grey" stroke-width="2" d="M1181.66,-503.7C1174.71,-495.3 1166.23,-485.07 1158.6,-475.86"/>
<polygon fill="grey" stroke="grey" stroke-width="2" points="1161.25,-473.57 1152.17,-468.1 1155.86,-478.04 1161.25,-473.57"/>
</g>
<!-- 18 -->
<g id="node19" class="node">
<title>18</title>
<path fill="none" stroke="#56d8d0" stroke-width="2" d="M974,-396C974,-396 884,-396 884,-396 878,-396 872,-390 872,-384 872,-384 872,-372 872,-372 872,-366 878,-360 884,-360 884,-360 974,-360 974,-360 980,-360 986,-366 986,-372 986,-372 986,-384 986,-384 986,-390 980,-396 974,-396"/>
<text text-anchor="middle" x="929" y="-375.5" font-family="sans" font-size="10.00">analyze_prob_escape</text>
</g>
<!-- 12&#45;&gt;18 -->
<g id="edge50" class="edge">
<title>12&#45;&gt;18</title>
<path fill="none" stroke="grey" stroke-width="2" d="M1160.96,-503.93C1140.22,-493.72 1113.49,-480.36 1090,-468 1047.89,-445.84 1000.26,-419.33 967.8,-401.04"/>
<polygon fill="grey" stroke="grey" stroke-width="2" points="969.49,-397.97 959.06,-396.11 966.05,-404.07 969.49,-397.97"/>
</g>
<!-- 13 -->
<g id="node14" class="node">
<title>13</title>
<path fill="none" stroke="#d88556" stroke-width="2" d="M261,-468C261,-468 187,-468 187,-468 181,-468 175,-462 175,-456 175,-456 175,-444 175,-444 175,-438 181,-432 187,-432 187,-432 261,-432 261,-432 267,-432 273,-438 273,-444 273,-444 273,-456 273,-456 273,-462 267,-468 261,-468"/>
<text text-anchor="middle" x="224" y="-447.5" font-family="sans" font-size="10.00">fit_globalepistasis</text>
</g>
<!-- 13&#45;&gt;0 -->
<g id="edge4" class="edge">
<title>13&#45;&gt;0</title>
<path fill="none" stroke="grey" stroke-width="2" d="M178.71,-431.95C160.11,-423.3 139.38,-411.33 124,-396 66.54,-338.73 38,-316.12 38,-235 38,-235 38,-235 38,-161 38,-52.92 895.41,-24.78 1085.83,-19.87"/>
<polygon fill="grey" stroke="grey" stroke-width="2" points="1086,-23.36 1095.91,-19.61 1085.82,-16.37 1086,-23.36"/>
</g>
<!-- 15 -->
<g id="node16" class="node">
<title>15</title>
<path fill="none" stroke="#61d856" stroke-width="2" d="M219.5,-396C219.5,-396 154.5,-396 154.5,-396 148.5,-396 142.5,-390 142.5,-384 142.5,-384 142.5,-372 142.5,-372 142.5,-366 148.5,-360 154.5,-360 154.5,-360 219.5,-360 219.5,-360 225.5,-360 231.5,-366 231.5,-372 231.5,-372 231.5,-384 231.5,-384 231.5,-390 225.5,-396 219.5,-396"/>
<text text-anchor="middle" x="187" y="-375.5" font-family="sans" font-size="10.00">avg_muteffects</text>
</g>
<!-- 13&#45;&gt;15 -->
<g id="edge32" class="edge">
<title>13&#45;&gt;15</title>
<path fill="none" stroke="grey" stroke-width="2" d="M214.85,-431.7C210.6,-423.64 205.44,-413.89 200.73,-404.98"/>
<polygon fill="grey" stroke="grey" stroke-width="2" points="203.81,-403.31 196.04,-396.1 197.62,-406.58 203.81,-403.31"/>
</g>
<!-- 13&#45;&gt;16 -->
<g id="edge42" class="edge">
<title>13&#45;&gt;16</title>
<path fill="none" stroke="grey" stroke-width="2" d="M174.92,-432.09C158.63,-423.87 142.29,-412.17 133,-396 125.03,-382.13 127.62,-375.07 133,-360 175.25,-241.79 202.57,-199.84 315,-144 371.32,-116.03 802.42,-97.98 947.52,-92.65"/>
<polygon fill="grey" stroke="grey" stroke-width="2" points="947.99,-96.14 957.86,-92.28 947.74,-89.14 947.99,-96.14"/>
</g>
<!-- 13&#45;&gt;20 -->
<g id="edge58" class="edge">
<title>13&#45;&gt;20</title>
<path fill="none" stroke="grey" stroke-width="2" d="M273.12,-440.56C311.23,-432.68 364.54,-418.66 407,-396 407.56,-395.7 453.52,-357.05 484.74,-330.79"/>
<polygon fill="grey" stroke="grey" stroke-width="2" points="487.31,-333.2 492.71,-324.08 482.8,-327.84 487.31,-333.2"/>
</g>
<!-- 13&#45;&gt;22 -->
<g id="edge71" class="edge">
<title>13&#45;&gt;22</title>
<path fill="none" stroke="grey" stroke-width="2" d="M231.8,-431.73C241.06,-412.59 257.93,-381.57 279,-360 340.51,-297.04 376.62,-307.42 445,-252 462.58,-237.75 461.19,-226.93 481,-216 497.54,-206.88 608.13,-184.07 671.18,-171.55"/>
<polygon fill="grey" stroke="grey" stroke-width="2" points="672.12,-174.94 681.25,-169.56 670.76,-168.07 672.12,-174.94"/>
</g>
<!-- 14&#45;&gt;13 -->
<g id="edge27" class="edge">
<title>14&#45;&gt;13</title>
<path fill="none" stroke="grey" stroke-width="2" d="M402.24,-508.77C397.46,-507.15 392.61,-505.53 388,-504 353.27,-492.49 314.31,-479.88 283.08,-469.85"/>
<polygon fill="grey" stroke="grey" stroke-width="2" points="283.81,-466.41 273.22,-466.69 281.67,-473.08 283.81,-466.41"/>
</g>
<!-- 17 -->
<g id="node18" class="node">
<title>17</title>
<path fill="none" stroke="#56d87b" stroke-width="2" d="M386,-396C386,-396 300,-396 300,-396 294,-396 288,-390 288,-384 288,-384 288,-372 288,-372 288,-366 294,-360 300,-360 300,-360 386,-360 386,-360 392,-360 398,-366 398,-372 398,-372 398,-384 398,-384 398,-390 392,-396 386,-396"/>
<text text-anchor="middle" x="343" y="-375.5" font-family="sans" font-size="10.00">analyze_func_scores</text>
</g>
<!-- 14&#45;&gt;17 -->
<g id="edge49" class="edge">
<title>14&#45;&gt;17</title>
<path fill="none" stroke="grey" stroke-width="2" d="M426.54,-503.87C409.99,-479.14 379.29,-433.24 360.07,-404.51"/>
<polygon fill="grey" stroke="grey" stroke-width="2" points="362.97,-402.55 354.5,-396.19 357.15,-406.45 362.97,-402.55"/>
</g>
<!-- 15&#45;&gt;0 -->
<g id="edge2" class="edge">
<title>15&#45;&gt;0</title>
<path fill="none" stroke="grey" stroke-width="2" d="M185.73,-359.69C183.56,-315.98 184.54,-200.64 249,-144 376.2,-32.22 934.88,-20.28 1085.48,-19.1"/>
<polygon fill="grey" stroke="grey" stroke-width="2" points="1085.63,-22.6 1095.61,-19.03 1085.59,-15.6 1085.63,-22.6"/>
</g>
<!-- 15&#45;&gt;16 -->
<g id="edge38" class="edge">
<title>15&#45;&gt;16</title>
<path fill="none" stroke="grey" stroke-width="2" d="M194.09,-359.92C213.94,-314.67 274.9,-191.87 370,-144 471,-93.16 819.4,-89.93 947.37,-90.52"/>
<polygon fill="grey" stroke="grey" stroke-width="2" points="947.61,-94.02 957.63,-90.58 947.65,-87.02 947.61,-94.02"/>
</g>
<!-- 15&#45;&gt;20 -->
<g id="edge59" class="edge">
<title>15&#45;&gt;20</title>
<path fill="none" stroke="grey" stroke-width="2" d="M231.65,-367.41C293.09,-354.22 403.23,-330.57 465.93,-317.11"/>
<polygon fill="grey" stroke="grey" stroke-width="2" points="466.9,-320.48 475.95,-314.96 465.43,-313.63 466.9,-320.48"/>
</g>
<!-- 15&#45;&gt;22 -->
<g id="edge67" class="edge">
<title>15&#45;&gt;22</title>
<path fill="none" stroke="grey" stroke-width="2" d="M205.3,-359.74C247.54,-320.05 349.71,-225.04 369,-216 421.86,-191.23 590.26,-173.79 671,-166.63"/>
<polygon fill="grey" stroke="grey" stroke-width="2" points="671.67,-170.08 681.33,-165.72 671.06,-163.11 671.67,-170.08"/>
</g>
<!-- 16&#45;&gt;0 -->
<g id="edge3" class="edge">
<title>16&#45;&gt;0</title>
<path fill="none" stroke="grey" stroke-width="2" d="M1026.31,-71.88C1044.63,-61.86 1067.83,-49.17 1086.92,-38.73"/>
<polygon fill="grey" stroke="grey" stroke-width="2" points="1088.82,-41.68 1095.91,-33.81 1085.46,-35.54 1088.82,-41.68"/>
</g>
<!-- 17&#45;&gt;16 -->
<g id="edge40" class="edge">
<title>17&#45;&gt;16</title>
<path fill="none" stroke="grey" stroke-width="2" d="M341.09,-359.8C337.07,-313.7 333.6,-187.88 409,-144 500.05,-91.02 824.72,-89.01 947.5,-90.22"/>
<polygon fill="grey" stroke="grey" stroke-width="2" points="947.68,-93.73 957.71,-90.34 947.75,-86.73 947.68,-93.73"/>
</g>
<!-- 17&#45;&gt;20 -->
<g id="edge57" class="edge">
<title>17&#45;&gt;20</title>
<path fill="none" stroke="grey" stroke-width="2" d="M384.59,-359.88C409.34,-349.68 440.81,-336.73 466.4,-326.19"/>
<polygon fill="grey" stroke="grey" stroke-width="2" points="467.98,-329.32 475.89,-322.28 465.31,-322.85 467.98,-329.32"/>
</g>
<!-- 17&#45;&gt;22 -->
<g id="edge69" class="edge">
<title>17&#45;&gt;22</title>
<path fill="none" stroke="grey" stroke-width="2" d="M361.13,-359.92C400.84,-322.79 495.01,-236.42 533,-216 576.98,-192.36 632.77,-178.12 670.91,-170.45"/>
<polygon fill="grey" stroke="grey" stroke-width="2" points="672.03,-173.8 681.18,-168.46 670.69,-166.93 672.03,-173.8"/>
</g>
<!-- 18&#45;&gt;16 -->
<g id="edge36" class="edge">
<title>18&#45;&gt;16</title>
<path fill="none" stroke="grey" stroke-width="2" d="M952.84,-359.92C980.61,-338.4 1024.96,-298.56 1043,-252 1061.11,-205.26 1033.28,-148.73 1013.02,-116.61"/>
<polygon fill="grey" stroke="grey" stroke-width="2" points="1015.95,-114.69 1007.55,-108.22 1010.09,-118.51 1015.95,-114.69"/>
</g>
<!-- 18&#45;&gt;20 -->
<g id="edge52" class="edge">
<title>18&#45;&gt;20</title>
<path fill="none" stroke="grey" stroke-width="2" d="M871.59,-367.34C788.62,-353.38 636.72,-327.82 560,-314.91"/>
<polygon fill="grey" stroke="grey" stroke-width="2" points="560.57,-311.46 550.13,-313.25 559.41,-318.36 560.57,-311.46"/>
</g>
<!-- 18&#45;&gt;22 -->
<g id="edge65" class="edge">
<title>18&#45;&gt;22</title>
<path fill="none" stroke="grey" stroke-width="2" d="M922.11,-359.72C908.53,-327.56 875.44,-257.99 828,-216 807.84,-198.16 780.63,-185.15 757.96,-176.49"/>
<polygon fill="grey" stroke="grey" stroke-width="2" points="759.15,-173.19 748.56,-173.04 756.74,-179.77 759.15,-173.19"/>
</g>
<!-- 19 -->
<g id="node20" class="node">
<title>19</title>
<path fill="none" stroke="#56d8b9" stroke-width="2" d="M424,-252C424,-252 390,-252 390,-252 384,-252 378,-246 378,-240 378,-240 378,-228 378,-228 378,-222 384,-216 390,-216 390,-216 424,-216 424,-216 430,-216 436,-222 436,-228 436,-228 436,-240 436,-240 436,-246 430,-252 424,-252"/>
<text text-anchor="middle" x="407" y="-231.5" font-family="sans" font-size="10.00">subindex</text>
</g>
<!-- 19&#45;&gt;16 -->
<g id="edge33" class="edge">
<title>19&#45;&gt;16</title>
<path fill="none" stroke="grey" stroke-width="2" d="M436.05,-221.23C440.7,-219.43 445.47,-217.63 450,-216 547.61,-180.91 571.2,-168.47 672,-144 768.77,-120.51 884.42,-104.34 947.74,-96.48"/>
<polygon fill="grey" stroke="grey" stroke-width="2" points="948.32,-99.94 957.82,-95.25 947.47,-92.99 948.32,-99.94"/>
</g>
<!-- 19&#45;&gt;22 -->
<g id="edge62" class="edge">
<title>19&#45;&gt;22</title>
<path fill="none" stroke="grey" stroke-width="2" d="M436.36,-220.59C440.89,-218.91 445.53,-217.32 450,-216 526.57,-193.41 618.43,-177.43 671.42,-169.26"/>
<polygon fill="grey" stroke="grey" stroke-width="2" points="672.12,-172.69 681.48,-167.73 671.07,-165.77 672.12,-172.69"/>
</g>
<!-- 20&#45;&gt;16 -->
<g id="edge34" class="edge">
<title>20&#45;&gt;16</title>
<path fill="none" stroke="grey" stroke-width="2" d="M475.79,-302.74C441.67,-298.47 392.93,-286.3 369,-252 359.85,-238.88 360.08,-229.28 369,-216 433.81,-119.47 812.89,-97.2 947.56,-92.31"/>
<polygon fill="grey" stroke="grey" stroke-width="2" points="948.08,-95.8 957.95,-91.95 947.84,-88.8 948.08,-95.8"/>
</g>
<!-- 20&#45;&gt;19 -->
<g id="edge51" class="edge">
<title>20&#45;&gt;19</title>
<path fill="none" stroke="grey" stroke-width="2" d="M487.07,-287.88C473.34,-278.81 456.29,-267.55 441.46,-257.76"/>
<polygon fill="grey" stroke="grey" stroke-width="2" points="443.3,-254.78 433.03,-252.19 439.45,-260.62 443.3,-254.78"/>
</g>
<!-- 20&#45;&gt;22 -->
<g id="edge63" class="edge">
<title>20&#45;&gt;22</title>
<path fill="none" stroke="grey" stroke-width="2" d="M518.65,-287.82C526.05,-267.87 540.87,-235.25 564,-216 594.74,-190.42 638.64,-176.85 671.19,-169.87"/>
<polygon fill="grey" stroke="grey" stroke-width="2" points="672.22,-173.24 681.33,-167.83 670.83,-166.38 672.22,-173.24"/>
</g>
<!-- 21 -->
<g id="node22" class="node">
<title>21</title>
<path fill="none" stroke="#d86e56" stroke-width="2" d="M1022,-252C1022,-252 968,-252 968,-252 962,-252 956,-246 956,-240 956,-240 956,-228 956,-228 956,-222 962,-216 968,-216 968,-216 1022,-216 1022,-216 1028,-216 1034,-222 1034,-228 1034,-228 1034,-240 1034,-240 1034,-246 1028,-252 1022,-252"/>
<text text-anchor="middle" x="995" y="-231.5" font-family="sans" font-size="10.00">make_graphs</text>
</g>
<!-- 21&#45;&gt;16 -->
<g id="edge35" class="edge">
<title>21&#45;&gt;16</title>
<path fill="none" stroke="grey" stroke-width="2" d="M995,-215.87C995,-191.67 995,-147.21 995,-118.39"/>
<polygon fill="grey" stroke="grey" stroke-width="2" points="998.5,-118.19 995,-108.19 991.5,-118.19 998.5,-118.19"/>
</g>
<!-- 21&#45;&gt;22 -->
<g id="edge64" class="edge">
<title>21&#45;&gt;22</title>
<path fill="none" stroke="grey" stroke-width="2" d="M955.74,-220.02C951.13,-218.61 946.47,-217.24 942,-216 878.72,-198.5 804.48,-181.89 758.59,-172.08"/>
<polygon fill="grey" stroke="grey" stroke-width="2" points="759.19,-168.63 748.68,-169.97 757.73,-175.47 759.19,-168.63"/>
</g>
<!-- 22&#45;&gt;16 -->
<g id="edge44" class="edge">
<title>22&#45;&gt;16</title>
<path fill="none" stroke="grey" stroke-width="2" d="M748.77,-152.56C798.58,-140.1 891.91,-116.77 948.26,-102.68"/>
<polygon fill="grey" stroke="grey" stroke-width="2" points="949.14,-106.07 957.99,-100.25 947.44,-99.28 949.14,-106.07"/>
</g>
</g>
</svg>
