<?xml version="1.0" encoding="UTF-8" standalone="no"?>
<!DOCTYPE svg PUBLIC "-//W3C//DTD SVG 1.1//EN"
 "http://www.w3.org/Graphics/SVG/1.1/DTD/svg11.dtd">
<!-- Generated by graphviz version 3.0.0 (20220315.2325)
 -->
<!-- Title: snakemake_dag Pages: 1 -->
<svg width="1207pt" height="1052pt"
 viewBox="0.00 0.00 1206.63 1052.00" xmlns="http://www.w3.org/2000/svg" xmlns:xlink="http://www.w3.org/1999/xlink">
<g id="graph0" class="graph" transform="scale(1 1) rotate(0) translate(4 1048)">
<title>snakemake_dag</title>
<polygon fill="white" stroke="transparent" points="-4,4 -4,-1048 1202.63,-1048 1202.63,4 -4,4"/>
<!-- 0 -->
<g id="node1" class="node">
<title>0</title>
<path fill="none" stroke="#56d863" stroke-width="2" d="M129,-36C129,-36 99,-36 99,-36 93,-36 87,-30 87,-24 87,-24 87,-12 87,-12 87,-6 93,0 99,0 99,0 129,0 129,0 135,0 141,-6 141,-12 141,-12 141,-24 141,-24 141,-30 135,-36 129,-36"/>
<text text-anchor="middle" x="114" y="-15.5" font-family="sans" font-size="10.00">all</text>
</g>
<!-- 1 -->
<g id="node2" class="node">
<title>1</title>
<path fill="none" stroke="#5673d8" stroke-width="2" d="M524,-684C524,-684 464,-684 464,-684 458,-684 452,-678 452,-672 452,-672 452,-660 452,-660 452,-654 458,-648 464,-648 464,-648 524,-648 524,-648 530,-648 536,-654 536,-660 536,-660 536,-672 536,-672 536,-678 530,-684 524,-684"/>
<text text-anchor="middle" x="494" y="-663.5" font-family="sans" font-size="10.00">variant_counts</text>
</g>
<!-- 1&#45;&gt;0 -->
<g id="edge5" class="edge">
<title>1&#45;&gt;0</title>
<path fill="none" stroke="grey" stroke-width="2" d="M451.88,-665.77C332.42,-665.54 0,-647.28 0,-451 0,-451 0,-451 0,-161 0,-110 45.27,-66.88 78.76,-41.97"/>
<polygon fill="grey" stroke="grey" stroke-width="2" points="80.92,-44.73 86.98,-36.04 76.83,-39.05 80.92,-44.73"/>
</g>
<!-- 9 -->
<g id="node10" class="node">
<title>9</title>
<path fill="none" stroke="#56d8d0" stroke-width="2" d="M797.5,-612C797.5,-612 698.5,-612 698.5,-612 692.5,-612 686.5,-606 686.5,-600 686.5,-600 686.5,-588 686.5,-588 686.5,-582 692.5,-576 698.5,-576 698.5,-576 797.5,-576 797.5,-576 803.5,-576 809.5,-582 809.5,-588 809.5,-588 809.5,-600 809.5,-600 809.5,-606 803.5,-612 797.5,-612"/>
<text text-anchor="middle" x="748" y="-591.5" font-family="sans" font-size="10.00">analyze_variant_counts</text>
</g>
<!-- 1&#45;&gt;9 -->
<g id="edge18" class="edge">
<title>1&#45;&gt;9</title>
<path fill="none" stroke="grey" stroke-width="2" d="M536.23,-653.36C574.34,-642.86 631.2,-627.19 676.41,-614.73"/>
<polygon fill="grey" stroke="grey" stroke-width="2" points="677.45,-618.07 686.16,-612.04 675.59,-611.33 677.45,-618.07"/>
</g>
<!-- 10 -->
<g id="node11" class="node">
<title>10</title>
<path fill="none" stroke="#d8ac56" stroke-width="2" d="M261.5,-468C261.5,-468 210.5,-468 210.5,-468 204.5,-468 198.5,-462 198.5,-456 198.5,-456 198.5,-444 198.5,-444 198.5,-438 204.5,-432 210.5,-432 210.5,-432 261.5,-432 261.5,-432 267.5,-432 273.5,-438 273.5,-444 273.5,-444 273.5,-456 273.5,-456 273.5,-462 267.5,-468 261.5,-468"/>
<text text-anchor="middle" x="236" y="-447.5" font-family="sans" font-size="10.00">prob_escape</text>
</g>
<!-- 1&#45;&gt;10 -->
<g id="edge23" class="edge">
<title>1&#45;&gt;10</title>
<path fill="none" stroke="grey" stroke-width="2" d="M451.78,-654.84C397.52,-639.51 304.43,-605.07 255,-540 241.6,-522.35 237.18,-497.33 235.92,-478.31"/>
<polygon fill="grey" stroke="grey" stroke-width="2" points="239.41,-478.02 235.51,-468.17 232.42,-478.31 239.41,-478.02"/>
</g>
<!-- 12 -->
<g id="node13" class="node">
<title>12</title>
<path fill="none" stroke="#56a9d8" stroke-width="2" d="M479.5,-468C479.5,-468 432.5,-468 432.5,-468 426.5,-468 420.5,-462 420.5,-456 420.5,-456 420.5,-444 420.5,-444 420.5,-438 426.5,-432 432.5,-432 432.5,-432 479.5,-432 479.5,-432 485.5,-432 491.5,-438 491.5,-444 491.5,-444 491.5,-456 491.5,-456 491.5,-462 485.5,-468 479.5,-468"/>
<text text-anchor="middle" x="456" y="-447.5" font-family="sans" font-size="10.00">func_scores</text>
</g>
<!-- 1&#45;&gt;12 -->
<g id="edge28" class="edge">
<title>1&#45;&gt;12</title>
<path fill="none" stroke="grey" stroke-width="2" d="M492.09,-647.97C488.64,-618.47 480.72,-556.04 470,-504 468.25,-495.48 465.96,-486.29 463.74,-477.99"/>
<polygon fill="grey" stroke="grey" stroke-width="2" points="467.04,-476.79 461.02,-468.07 460.29,-478.64 467.04,-476.79"/>
</g>
<!-- 13 -->
<g id="node14" class="node">
<title>13</title>
<path fill="none" stroke="#61d856" stroke-width="2" d="M890,-108C890,-108 840,-108 840,-108 834,-108 828,-102 828,-96 828,-96 828,-84 828,-84 828,-78 834,-72 840,-72 840,-72 890,-72 890,-72 896,-72 902,-78 902,-84 902,-84 902,-96 902,-96 902,-102 896,-108 890,-108"/>
<text text-anchor="middle" x="865" y="-87.5" font-family="sans" font-size="10.00">sphinx_build</text>
</g>
<!-- 1&#45;&gt;13 -->
<g id="edge43" class="edge">
<title>1&#45;&gt;13</title>
<path fill="none" stroke="grey" stroke-width="2" d="M451.88,-658.45C352.94,-641.89 114,-594.48 114,-523 114,-523 114,-523 114,-233 114,-160.39 182.33,-167.6 251,-144 355.81,-107.97 693.11,-95.54 817.96,-92.12"/>
<polygon fill="grey" stroke="grey" stroke-width="2" points="818.07,-95.61 827.97,-91.85 817.88,-88.62 818.07,-95.61"/>
</g>
<!-- 18 -->
<g id="node19" class="node">
<title>18</title>
<path fill="none" stroke="#d87556" stroke-width="2" d="M686.5,-180C686.5,-180 643.5,-180 643.5,-180 637.5,-180 631.5,-174 631.5,-168 631.5,-168 631.5,-156 631.5,-156 631.5,-150 637.5,-144 643.5,-144 643.5,-144 686.5,-144 686.5,-144 692.5,-144 698.5,-150 698.5,-156 698.5,-156 698.5,-168 698.5,-168 698.5,-174 692.5,-180 686.5,-180"/>
<text text-anchor="middle" x="665" y="-159.5" font-family="sans" font-size="10.00">docs_index</text>
</g>
<!-- 1&#45;&gt;18 -->
<g id="edge64" class="edge">
<title>1&#45;&gt;18</title>
<path fill="none" stroke="grey" stroke-width="2" d="M496.21,-647.78C505.83,-574.7 545.73,-290.59 594,-216 601.66,-204.17 612.93,-194.01 624.25,-185.85"/>
<polygon fill="grey" stroke="grey" stroke-width="2" points="626.55,-188.52 632.86,-180.01 622.62,-182.73 626.55,-188.52"/>
</g>
<!-- 2 -->
<g id="node3" class="node">
<title>2</title>
<path fill="none" stroke="#d88d56" stroke-width="2" d="M751.5,-756C751.5,-756 686.5,-756 686.5,-756 680.5,-756 674.5,-750 674.5,-744 674.5,-744 674.5,-732 674.5,-732 674.5,-726 680.5,-720 686.5,-720 686.5,-720 751.5,-720 751.5,-720 757.5,-720 763.5,-726 763.5,-732 763.5,-732 763.5,-744 763.5,-744 763.5,-750 757.5,-756 751.5,-756"/>
<text text-anchor="middle" x="719" y="-735.5" font-family="sans" font-size="10.00">count_barcodes</text>
</g>
<!-- 2&#45;&gt;1 -->
<g id="edge9" class="edge">
<title>2&#45;&gt;1</title>
<path fill="none" stroke="grey" stroke-width="2" d="M674.28,-723.09C637.3,-711.58 584.74,-695.23 545.91,-683.15"/>
<polygon fill="grey" stroke="grey" stroke-width="2" points="546.94,-679.8 536.35,-680.18 544.86,-686.49 546.94,-679.8"/>
</g>
<!-- 2&#45;&gt;9 -->
<g id="edge20" class="edge">
<title>2&#45;&gt;9</title>
<path fill="none" stroke="grey" stroke-width="2" d="M722.5,-719.87C727.46,-695.56 736.6,-650.82 742.48,-622.01"/>
<polygon fill="grey" stroke="grey" stroke-width="2" points="745.92,-622.69 744.49,-612.19 739.06,-621.29 745.92,-622.69"/>
</g>
<!-- 3 -->
<g id="node4" class="node">
<title>3</title>
<path fill="none" stroke="#568ad8" stroke-width="2" d="M726.5,-828C726.5,-828 637.5,-828 637.5,-828 631.5,-828 625.5,-822 625.5,-816 625.5,-816 625.5,-804 625.5,-804 625.5,-798 631.5,-792 637.5,-792 637.5,-792 726.5,-792 726.5,-792 732.5,-792 738.5,-798 738.5,-804 738.5,-804 738.5,-816 738.5,-816 738.5,-822 732.5,-828 726.5,-828"/>
<text text-anchor="middle" x="682" y="-807.5" font-family="sans" font-size="10.00">build_codon_variants</text>
</g>
<!-- 3&#45;&gt;1 -->
<g id="edge7" class="edge">
<title>3&#45;&gt;1</title>
<path fill="none" stroke="grey" stroke-width="2" d="M650.56,-791.95C633.35,-782.16 611.95,-769.22 594,-756 566.74,-735.93 538.12,-709.88 518.52,-691.16"/>
<polygon fill="grey" stroke="grey" stroke-width="2" points="520.85,-688.54 511.22,-684.12 515.99,-693.58 520.85,-688.54"/>
</g>
<!-- 3&#45;&gt;2 -->
<g id="edge10" class="edge">
<title>3&#45;&gt;2</title>
<path fill="none" stroke="grey" stroke-width="2" d="M691.15,-791.7C695.4,-783.64 700.56,-773.89 705.27,-764.98"/>
<polygon fill="grey" stroke="grey" stroke-width="2" points="708.38,-766.58 709.96,-756.1 702.19,-763.31 708.38,-766.58"/>
</g>
<!-- 3&#45;&gt;9 -->
<g id="edge17" class="edge">
<title>3&#45;&gt;9</title>
<path fill="none" stroke="grey" stroke-width="2" d="M731.56,-791.85C747.69,-783.64 763.8,-772.01 773,-756 797.38,-713.59 777.41,-655.01 761.89,-621.46"/>
<polygon fill="grey" stroke="grey" stroke-width="2" points="764.97,-619.78 757.47,-612.29 758.66,-622.82 764.97,-619.78"/>
</g>
<!-- 3&#45;&gt;10 -->
<g id="edge21" class="edge">
<title>3&#45;&gt;10</title>
<path fill="none" stroke="grey" stroke-width="2" d="M627.21,-791.99C545.69,-764.57 390.91,-704.16 287,-612 257.47,-585.81 247.14,-577.56 235,-540 228.55,-520.06 229.22,-496.27 231.27,-478.3"/>
<polygon fill="grey" stroke="grey" stroke-width="2" points="234.76,-478.59 232.63,-468.21 227.82,-477.66 234.76,-478.59"/>
</g>
<!-- 3&#45;&gt;12 -->
<g id="edge26" class="edge">
<title>3&#45;&gt;12</title>
<path fill="none" stroke="grey" stroke-width="2" d="M661.68,-791.94C651.43,-782.35 639.59,-769.58 632,-756 612.01,-720.24 608,-707.97 608,-667 608,-667 608,-667 608,-593 608,-533.83 545.74,-492.23 500.91,-469.95"/>
<polygon fill="grey" stroke="grey" stroke-width="2" points="502.17,-466.67 491.64,-465.49 499.13,-472.98 502.17,-466.67"/>
</g>
<!-- 3&#45;&gt;13 -->
<g id="edge40" class="edge">
<title>3&#45;&gt;13</title>
<path fill="none" stroke="grey" stroke-width="2" d="M738.67,-801.5C772.46,-794.55 814.39,-781.25 844,-756 936.44,-677.16 943.1,-745.08 1021,-252 1028.7,-203.23 1029.2,-179.61 995,-144 972.9,-120.98 939.4,-107.65 911.95,-100.11"/>
<polygon fill="grey" stroke="grey" stroke-width="2" points="912.69,-96.69 902.14,-97.59 910.95,-103.47 912.69,-96.69"/>
</g>
<!-- 16 -->
<g id="node17" class="node">
<title>16</title>
<path fill="none" stroke="#d85656" stroke-width="2" d="M893,-324C893,-324 843,-324 843,-324 837,-324 831,-318 831,-312 831,-312 831,-300 831,-300 831,-294 837,-288 843,-288 843,-288 893,-288 893,-288 899,-288 905,-294 905,-300 905,-300 905,-312 905,-312 905,-318 899,-324 893,-324"/>
<text text-anchor="middle" x="868" y="-303.5" font-family="sans" font-size="10.00">make_nblink</text>
</g>
<!-- 3&#45;&gt;16 -->
<g id="edge51" class="edge">
<title>3&#45;&gt;16</title>
<path fill="none" stroke="grey" stroke-width="2" d="M738.56,-792.34C793.29,-772.32 868,-732.92 868,-667 868,-667 868,-667 868,-449 868,-409 868,-362.65 868,-334.08"/>
<polygon fill="grey" stroke="grey" stroke-width="2" points="871.5,-334.05 868,-324.05 864.5,-334.05 871.5,-334.05"/>
</g>
<!-- 3&#45;&gt;18 -->
<g id="edge61" class="edge">
<title>3&#45;&gt;18</title>
<path fill="none" stroke="grey" stroke-width="2" d="M674.71,-791.87C664.2,-765.53 646,-713.29 646,-667 646,-667 646,-667 646,-305 646,-264.86 653.55,-218.9 659.13,-190.4"/>
<polygon fill="grey" stroke="grey" stroke-width="2" points="662.61,-190.88 661.16,-180.39 655.74,-189.5 662.61,-190.88"/>
</g>
<!-- 4 -->
<g id="node5" class="node">
<title>4</title>
<path fill="none" stroke="#56d8b9" stroke-width="2" d="M1007,-900C1007,-900 905,-900 905,-900 899,-900 893,-894 893,-888 893,-888 893,-876 893,-876 893,-870 899,-864 905,-864 905,-864 1007,-864 1007,-864 1013,-864 1019,-870 1019,-876 1019,-876 1019,-888 1019,-888 1019,-894 1013,-900 1007,-900"/>
<text text-anchor="middle" x="956" y="-879.5" font-family="sans" font-size="10.00">build_pacbio_consensus</text>
</g>
<!-- 4&#45;&gt;3 -->
<g id="edge11" class="edge">
<title>4&#45;&gt;3</title>
<path fill="none" stroke="grey" stroke-width="2" d="M892.79,-864.85C849.6,-853.82 792.45,-839.22 748.55,-828"/>
<polygon fill="grey" stroke="grey" stroke-width="2" points="749.39,-824.6 738.83,-825.52 747.65,-831.39 749.39,-824.6"/>
</g>
<!-- 4&#45;&gt;13 -->
<g id="edge32" class="edge">
<title>4&#45;&gt;13</title>
<path fill="none" stroke="grey" stroke-width="2" d="M969.57,-863.76C988.36,-838.1 1020,-787.67 1020,-739 1020,-739 1020,-739 1020,-593 1020,-458.05 1122,-441.95 1122,-307 1122,-307 1122,-307 1122,-233 1122,-138.18 986.33,-106.19 912.14,-95.78"/>
<polygon fill="grey" stroke="grey" stroke-width="2" points="912.47,-92.29 902.1,-94.45 911.55,-99.23 912.47,-92.29"/>
</g>
<!-- 4&#45;&gt;16 -->
<g id="edge47" class="edge">
<title>4&#45;&gt;16</title>
<path fill="none" stroke="grey" stroke-width="2" d="M961.26,-863.7C968.86,-837.14 982,-784.61 982,-739 982,-739 982,-739 982,-593 982,-490.35 917.84,-380.76 885.79,-332.41"/>
<polygon fill="grey" stroke="grey" stroke-width="2" points="888.69,-330.45 880.2,-324.11 882.88,-334.36 888.69,-330.45"/>
</g>
<!-- 4&#45;&gt;18 -->
<g id="edge54" class="edge">
<title>4&#45;&gt;18</title>
<path fill="none" stroke="grey" stroke-width="2" d="M953.63,-863.99C950.13,-837.38 944,-784.28 944,-739 944,-739 944,-739 944,-665 944,-504.09 722,-539.91 722,-379 722,-379 722,-379 722,-305 722,-261.8 699,-216.19 682.22,-188.66"/>
<polygon fill="grey" stroke="grey" stroke-width="2" points="685.09,-186.65 676.81,-180.04 679.17,-190.37 685.09,-186.65"/>
</g>
<!-- 5 -->
<g id="node6" class="node">
<title>5</title>
<path fill="none" stroke="#ced856" stroke-width="2" d="M1155,-972C1155,-972 1075,-972 1075,-972 1069,-972 1063,-966 1063,-960 1063,-960 1063,-948 1063,-948 1063,-942 1069,-936 1075,-936 1075,-936 1155,-936 1155,-936 1161,-936 1167,-942 1167,-948 1167,-948 1167,-960 1167,-960 1167,-966 1161,-972 1155,-972"/>
<text text-anchor="middle" x="1115" y="-951.5" font-family="sans" font-size="10.00">analyze_pacbio_ccs</text>
</g>
<!-- 5&#45;&gt;4 -->
<g id="edge13" class="edge">
<title>5&#45;&gt;4</title>
<path fill="none" stroke="grey" stroke-width="2" d="M1076.1,-935.88C1054.37,-926.31 1027.1,-914.3 1004.04,-904.15"/>
<polygon fill="grey" stroke="grey" stroke-width="2" points="1005.33,-900.89 994.77,-900.07 1002.51,-907.3 1005.33,-900.89"/>
</g>
<!-- 5&#45;&gt;13 -->
<g id="edge31" class="edge">
<title>5&#45;&gt;13</title>
<path fill="none" stroke="grey" stroke-width="2" d="M1133.42,-935.64C1157.87,-910.62 1198,-861.83 1198,-811 1198,-811 1198,-811 1198,-233 1198,-192.03 1204.29,-171.58 1174,-144 1136.43,-109.79 989.28,-97.29 912.39,-93.03"/>
<polygon fill="grey" stroke="grey" stroke-width="2" points="912.2,-89.51 902.03,-92.48 911.83,-96.5 912.2,-89.51"/>
</g>
<!-- 5&#45;&gt;16 -->
<g id="edge46" class="edge">
<title>5&#45;&gt;16</title>
<path fill="none" stroke="grey" stroke-width="2" d="M1118.84,-935.61C1124.4,-908.94 1134,-856.27 1134,-811 1134,-811 1134,-811 1134,-737 1134,-558.17 965.55,-391.66 896.75,-331.1"/>
<polygon fill="grey" stroke="grey" stroke-width="2" points="898.71,-328.17 888.87,-324.25 894.12,-333.45 898.71,-328.17"/>
</g>
<!-- 5&#45;&gt;18 -->
<g id="edge53" class="edge">
<title>5&#45;&gt;18</title>
<path fill="none" stroke="grey" stroke-width="2" d="M1111.16,-935.61C1105.6,-908.94 1096,-856.27 1096,-811 1096,-811 1096,-811 1096,-737 1096,-521.67 1087.11,-416.06 914,-288 877.03,-260.65 856.76,-275.1 817,-252 795.45,-239.48 794.92,-229.55 774,-216 753.17,-202.51 728.4,-190.2 707.74,-180.85"/>
<polygon fill="grey" stroke="grey" stroke-width="2" points="709.12,-177.63 698.56,-176.76 706.28,-184.03 709.12,-177.63"/>
</g>
<!-- 6 -->
<g id="node7" class="node">
<title>6</title>
<path fill="none" stroke="#d8c356" stroke-width="2" d="M1164,-1044C1164,-1044 1066,-1044 1066,-1044 1060,-1044 1054,-1038 1054,-1032 1054,-1032 1054,-1020 1054,-1020 1054,-1014 1060,-1008 1066,-1008 1066,-1008 1164,-1008 1164,-1008 1170,-1008 1176,-1014 1176,-1020 1176,-1020 1176,-1032 1176,-1032 1176,-1038 1170,-1044 1164,-1044"/>
<text text-anchor="middle" x="1115" y="-1023.5" font-family="sans" font-size="10.00">align_parse_PacBio_ccs</text>
</g>
<!-- 6&#45;&gt;5 -->
<g id="edge15" class="edge">
<title>6&#45;&gt;5</title>
<path fill="none" stroke="grey" stroke-width="2" d="M1115,-1007.7C1115,-999.98 1115,-990.71 1115,-982.11"/>
<polygon fill="grey" stroke="grey" stroke-width="2" points="1118.5,-982.1 1115,-972.1 1111.5,-982.1 1118.5,-982.1"/>
</g>
<!-- 7 -->
<g id="node8" class="node">
<title>7</title>
<path fill="none" stroke="#56d89a" stroke-width="2" d="M630,-972C630,-972 564,-972 564,-972 558,-972 552,-966 552,-960 552,-960 552,-948 552,-948 552,-942 558,-936 564,-936 564,-936 630,-936 630,-936 636,-936 642,-942 642,-948 642,-948 642,-960 642,-960 642,-966 636,-972 630,-972"/>
<text text-anchor="middle" x="597" y="-951.5" font-family="sans" font-size="10.00">gene_sequence</text>
</g>
<!-- 7&#45;&gt;1 -->
<g id="edge8" class="edge">
<title>7&#45;&gt;1</title>
<path fill="none" stroke="grey" stroke-width="2" d="M557.94,-935.91C542.97,-927.33 527.28,-915.43 518,-900 478.72,-834.66 484.1,-740.07 489.79,-694.1"/>
<polygon fill="grey" stroke="grey" stroke-width="2" points="493.29,-694.4 491.15,-684.03 486.35,-693.47 493.29,-694.4"/>
</g>
<!-- 7&#45;&gt;3 -->
<g id="edge12" class="edge">
<title>7&#45;&gt;3</title>
<path fill="none" stroke="grey" stroke-width="2" d="M607.25,-935.87C621.99,-911.24 649.29,-865.64 666.51,-836.88"/>
<polygon fill="grey" stroke="grey" stroke-width="2" points="669.58,-838.57 671.71,-828.19 663.57,-834.97 669.58,-838.57"/>
</g>
<!-- 7&#45;&gt;4 -->
<g id="edge14" class="edge">
<title>7&#45;&gt;4</title>
<path fill="none" stroke="grey" stroke-width="2" d="M642.1,-944.21C702.63,-932.4 810.85,-911.3 883.04,-897.23"/>
<polygon fill="grey" stroke="grey" stroke-width="2" points="883.83,-900.64 892.98,-895.29 882.49,-893.77 883.83,-900.64"/>
</g>
<!-- 7&#45;&gt;9 -->
<g id="edge19" class="edge">
<title>7&#45;&gt;9</title>
<path fill="none" stroke="grey" stroke-width="2" d="M642.2,-946.25C709.96,-933.29 830,-898.05 830,-811 830,-811 830,-811 830,-737 830,-690.88 797.16,-646.26 773.04,-619.72"/>
<polygon fill="grey" stroke="grey" stroke-width="2" points="775.59,-617.31 766.2,-612.4 770.48,-622.1 775.59,-617.31"/>
</g>
<!-- 7&#45;&gt;10 -->
<g id="edge22" class="edge">
<title>7&#45;&gt;10</title>
<path fill="none" stroke="grey" stroke-width="2" d="M551.73,-951.2C418.65,-944.67 38,-916.76 38,-811 38,-811 38,-811 38,-593 38,-519.22 129.9,-480.06 188.48,-462.6"/>
<polygon fill="grey" stroke="grey" stroke-width="2" points="189.65,-465.9 198.29,-459.78 187.71,-459.17 189.65,-465.9"/>
</g>
<!-- 7&#45;&gt;12 -->
<g id="edge27" class="edge">
<title>7&#45;&gt;12</title>
<path fill="none" stroke="grey" stroke-width="2" d="M551.64,-945.05C454.69,-926.77 236,-878.1 236,-811 236,-811 236,-811 236,-665 236,-559.8 376.53,-626.08 437,-540 449.66,-521.98 454.17,-497.19 455.65,-478.35"/>
<polygon fill="grey" stroke="grey" stroke-width="2" points="459.14,-478.48 456.2,-468.31 452.15,-478.1 459.14,-478.48"/>
</g>
<!-- 7&#45;&gt;13 -->
<g id="edge30" class="edge">
<title>7&#45;&gt;13</title>
<path fill="none" stroke="grey" stroke-width="2" d="M642.2,-953.34C740.53,-953.16 969.72,-947.52 1028,-900 1060.35,-873.62 1058,-852.74 1058,-811 1058,-811 1058,-811 1058,-665 1058,-530.05 1160,-513.95 1160,-379 1160,-379 1160,-379 1160,-233 1160,-124.39 995.65,-98.8 912.3,-92.81"/>
<polygon fill="grey" stroke="grey" stroke-width="2" points="912.27,-89.3 902.06,-92.14 911.81,-96.29 912.27,-89.3"/>
</g>
<!-- 7&#45;&gt;18 -->
<g id="edge52" class="edge">
<title>7&#45;&gt;18</title>
<path fill="none" stroke="grey" stroke-width="2" d="M596.95,-935.96C596.94,-859.94 598.98,-544.27 632,-288 636.15,-255.75 636.33,-247.34 645,-216 647.38,-207.37 650.6,-198.18 653.76,-189.92"/>
<polygon fill="grey" stroke="grey" stroke-width="2" points="657.1,-190.99 657.52,-180.4 650.59,-188.42 657.1,-190.99"/>
</g>
<!-- 8 -->
<g id="node9" class="node">
<title>8</title>
<path fill="none" stroke="#80d856" stroke-width="2" d="M416,-540C416,-540 276,-540 276,-540 270,-540 264,-534 264,-528 264,-528 264,-516 264,-516 264,-510 270,-504 276,-504 276,-504 416,-504 416,-504 422,-504 428,-510 428,-516 428,-516 428,-528 428,-528 428,-534 422,-540 416,-540"/>
<text text-anchor="middle" x="346" y="-519.5" font-family="sans" font-size="10.00">check_adequate_variant_counts</text>
</g>
<!-- 8&#45;&gt;0 -->
<g id="edge6" class="edge">
<title>8&#45;&gt;0</title>
<path fill="none" stroke="grey" stroke-width="2" d="M271.05,-503.96C179.88,-478.28 38,-420.13 38,-307 38,-307 38,-307 38,-161 38,-115.64 68.52,-70.75 90.88,-43.95"/>
<polygon fill="grey" stroke="grey" stroke-width="2" points="93.64,-46.09 97.51,-36.23 88.34,-41.53 93.64,-46.09"/>
</g>
<!-- 8&#45;&gt;10 -->
<g id="edge24" class="edge">
<title>8&#45;&gt;10</title>
<path fill="none" stroke="grey" stroke-width="2" d="M319.09,-503.88C304.84,-494.81 287.15,-483.55 271.76,-473.76"/>
<polygon fill="grey" stroke="grey" stroke-width="2" points="273.33,-470.61 263.01,-468.19 269.57,-476.51 273.33,-470.61"/>
</g>
<!-- 8&#45;&gt;12 -->
<g id="edge29" class="edge">
<title>8&#45;&gt;12</title>
<path fill="none" stroke="grey" stroke-width="2" d="M372.91,-503.88C387.16,-494.81 404.85,-483.55 420.24,-473.76"/>
<polygon fill="grey" stroke="grey" stroke-width="2" points="422.43,-476.51 428.99,-468.19 418.67,-470.61 422.43,-476.51"/>
</g>
<!-- 9&#45;&gt;8 -->
<g id="edge16" class="edge">
<title>9&#45;&gt;8</title>
<path fill="none" stroke="grey" stroke-width="2" d="M686.07,-582.22C619.88,-570.69 514.24,-552.3 438.26,-539.07"/>
<polygon fill="grey" stroke="grey" stroke-width="2" points="438.66,-535.58 428.21,-537.32 437.46,-542.48 438.66,-535.58"/>
</g>
<!-- 9&#45;&gt;13 -->
<g id="edge35" class="edge">
<title>9&#45;&gt;13</title>
<path fill="none" stroke="grey" stroke-width="2" d="M767.66,-575.97C818.99,-530.02 956.42,-397.17 1005,-252 1021.19,-203.6 1002.32,-179.85 966,-144 950.69,-128.89 930.18,-117.06 911.65,-108.44"/>
<polygon fill="grey" stroke="grey" stroke-width="2" points="913.02,-105.22 902.46,-104.35 910.17,-111.62 913.02,-105.22"/>
</g>
<!-- 9&#45;&gt;16 -->
<g id="edge49" class="edge">
<title>9&#45;&gt;16</title>
<path fill="none" stroke="grey" stroke-width="2" d="M750.1,-575.78C755.6,-535.55 773.08,-433.26 816,-360 822.15,-349.5 830.83,-339.55 839.34,-331.15"/>
<polygon fill="grey" stroke="grey" stroke-width="2" points="841.83,-333.61 846.71,-324.21 837.03,-328.52 841.83,-333.61"/>
</g>
<!-- 9&#45;&gt;18 -->
<g id="edge57" class="edge">
<title>9&#45;&gt;18</title>
<path fill="none" stroke="grey" stroke-width="2" d="M734.43,-575.76C715.64,-550.1 684,-499.67 684,-451 684,-451 684,-451 684,-305 684,-264.86 676.45,-218.9 670.87,-190.4"/>
<polygon fill="grey" stroke="grey" stroke-width="2" points="674.26,-189.5 668.84,-180.39 667.39,-190.88 674.26,-189.5"/>
</g>
<!-- 10&#45;&gt;0 -->
<g id="edge4" class="edge">
<title>10&#45;&gt;0</title>
<path fill="none" stroke="grey" stroke-width="2" d="M198.49,-435.04C151.2,-414.73 76,-372.18 76,-307 76,-307 76,-307 76,-161 76,-119.63 91.23,-73.72 102.41,-45.61"/>
<polygon fill="grey" stroke="grey" stroke-width="2" points="105.76,-46.67 106.31,-36.09 99.28,-44.02 105.76,-46.67"/>
</g>
<!-- 11 -->
<g id="node12" class="node">
<title>11</title>
<path fill="none" stroke="#b6d856" stroke-width="2" d="M283.5,-396C283.5,-396 230.5,-396 230.5,-396 224.5,-396 218.5,-390 218.5,-384 218.5,-384 218.5,-372 218.5,-372 218.5,-366 224.5,-360 230.5,-360 230.5,-360 283.5,-360 283.5,-360 289.5,-360 295.5,-366 295.5,-372 295.5,-372 295.5,-384 295.5,-384 295.5,-390 289.5,-396 283.5,-396"/>
<text text-anchor="middle" x="257" y="-375.5" font-family="sans" font-size="10.00">fit_polyclonal</text>
</g>
<!-- 10&#45;&gt;11 -->
<g id="edge25" class="edge">
<title>10&#45;&gt;11</title>
<path fill="none" stroke="grey" stroke-width="2" d="M241.19,-431.7C243.53,-423.9 246.35,-414.51 248.95,-405.83"/>
<polygon fill="grey" stroke="grey" stroke-width="2" points="252.35,-406.69 251.87,-396.1 245.64,-404.68 252.35,-406.69"/>
</g>
<!-- 10&#45;&gt;13 -->
<g id="edge42" class="edge">
<title>10&#45;&gt;13</title>
<path fill="none" stroke="grey" stroke-width="2" d="M224.53,-431.67C218.63,-421.69 212.04,-408.65 209,-396 205.27,-380.44 206.1,-375.73 209,-360 227.69,-258.71 210.39,-205.53 293,-144 334.71,-112.93 688.24,-97.31 817.72,-92.58"/>
<polygon fill="grey" stroke="grey" stroke-width="2" points="817.87,-96.08 827.74,-92.22 817.62,-89.08 817.87,-96.08"/>
</g>
<!-- 14 -->
<g id="node15" class="node">
<title>14</title>
<path fill="none" stroke="#56c1d8" stroke-width="2" d="M454,-396C454,-396 364,-396 364,-396 358,-396 352,-390 352,-384 352,-384 352,-372 352,-372 352,-366 358,-360 364,-360 364,-360 454,-360 454,-360 460,-360 466,-366 466,-372 466,-372 466,-384 466,-384 466,-390 460,-396 454,-396"/>
<text text-anchor="middle" x="409" y="-375.5" font-family="sans" font-size="10.00">analyze_prob_escape</text>
</g>
<!-- 10&#45;&gt;14 -->
<g id="edge44" class="edge">
<title>10&#45;&gt;14</title>
<path fill="none" stroke="grey" stroke-width="2" d="M273.54,-433.81C298.16,-423.85 330.68,-410.69 357.68,-399.76"/>
<polygon fill="grey" stroke="grey" stroke-width="2" points="359.02,-403 366.98,-396 356.4,-396.51 359.02,-403"/>
</g>
<!-- 10&#45;&gt;18 -->
<g id="edge63" class="edge">
<title>10&#45;&gt;18</title>
<path fill="none" stroke="grey" stroke-width="2" d="M273.79,-445.23C333.53,-438.53 445.99,-422.69 475,-396 536.66,-339.28 474.02,-277.42 531,-216 554.67,-190.49 592.18,-177.05 621.5,-170.1"/>
<polygon fill="grey" stroke="grey" stroke-width="2" points="622.48,-173.47 631.49,-167.9 620.97,-166.63 622.48,-173.47"/>
</g>
<!-- 11&#45;&gt;0 -->
<g id="edge1" class="edge">
<title>11&#45;&gt;0</title>
<path fill="none" stroke="grey" stroke-width="2" d="M254.86,-359.99C248.2,-311.81 224.67,-171.47 166,-72 159.82,-61.52 151.13,-51.57 142.62,-43.18"/>
<polygon fill="grey" stroke="grey" stroke-width="2" points="144.93,-40.55 135.26,-36.23 140.13,-45.64 144.93,-40.55"/>
</g>
<!-- 11&#45;&gt;13 -->
<g id="edge33" class="edge">
<title>11&#45;&gt;13</title>
<path fill="none" stroke="grey" stroke-width="2" d="M256.35,-359.81C255.73,-315.88 260.8,-199.09 328,-144 365.49,-113.27 693.35,-97.59 817.57,-92.71"/>
<polygon fill="grey" stroke="grey" stroke-width="2" points="818.05,-96.19 827.9,-92.31 817.78,-89.2 818.05,-96.19"/>
</g>
<!-- 11&#45;&gt;16 -->
<g id="edge48" class="edge">
<title>11&#45;&gt;16</title>
<path fill="none" stroke="grey" stroke-width="2" d="M295.82,-368.52C310.55,-365.51 327.5,-362.31 343,-360 518.37,-333.88 728.64,-316.96 820.81,-310.26"/>
<polygon fill="grey" stroke="grey" stroke-width="2" points="821.21,-313.74 830.93,-309.53 820.71,-306.76 821.21,-313.74"/>
</g>
<!-- 11&#45;&gt;18 -->
<g id="edge55" class="edge">
<title>11&#45;&gt;18</title>
<path fill="none" stroke="grey" stroke-width="2" d="M271.88,-359.94C301.68,-326.89 372.24,-254.04 447,-216 503.2,-187.4 575.5,-173.78 621.06,-167.63"/>
<polygon fill="grey" stroke="grey" stroke-width="2" points="621.73,-171.07 631.2,-166.32 620.84,-164.13 621.73,-171.07"/>
</g>
<!-- 12&#45;&gt;0 -->
<g id="edge3" class="edge">
<title>12&#45;&gt;0</title>
<path fill="none" stroke="grey" stroke-width="2" d="M420.23,-448.38C339.87,-444.9 152,-424.23 152,-307 152,-307 152,-307 152,-161 152,-119.63 136.77,-73.72 125.59,-45.61"/>
<polygon fill="grey" stroke="grey" stroke-width="2" points="128.72,-44.02 121.69,-36.09 122.24,-46.67 128.72,-44.02"/>
</g>
<!-- 12&#45;&gt;13 -->
<g id="edge39" class="edge">
<title>12&#45;&gt;13</title>
<path fill="none" stroke="grey" stroke-width="2" d="M420.47,-442.77C394.1,-436.09 359.91,-422.61 343,-396 334.42,-382.5 339.15,-375.53 343,-360 370.8,-247.77 385.08,-196.69 488,-144 544.68,-114.98 729.58,-99.62 817.6,-93.8"/>
<polygon fill="grey" stroke="grey" stroke-width="2" points="818.09,-97.27 827.84,-93.14 817.64,-90.29 818.09,-97.27"/>
</g>
<!-- 12&#45;&gt;18 -->
<g id="edge60" class="edge">
<title>12&#45;&gt;18</title>
<path fill="none" stroke="grey" stroke-width="2" d="M477.42,-431.87C488.03,-422.34 500.21,-409.66 508,-396 549.01,-324.08 503.34,-279.89 556,-216 572.73,-195.7 599.11,-182.59 621.73,-174.49"/>
<polygon fill="grey" stroke="grey" stroke-width="2" points="623.11,-177.71 631.48,-171.21 620.88,-171.08 623.11,-177.71"/>
</g>
<!-- 13&#45;&gt;0 -->
<g id="edge2" class="edge">
<title>13&#45;&gt;0</title>
<path fill="none" stroke="grey" stroke-width="2" d="M827.76,-85.53C699.8,-73.6 278.99,-34.38 151.16,-22.46"/>
<polygon fill="grey" stroke="grey" stroke-width="2" points="151.37,-18.97 141.09,-21.52 150.72,-25.94 151.37,-18.97"/>
</g>
<!-- 14&#45;&gt;13 -->
<g id="edge36" class="edge">
<title>14&#45;&gt;13</title>
<path fill="none" stroke="grey" stroke-width="2" d="M407.6,-359.86C405.93,-326.99 407.35,-254.94 447,-216 550.12,-114.75 731.71,-94.99 817.53,-91.49"/>
<polygon fill="grey" stroke="grey" stroke-width="2" points="817.88,-94.98 827.75,-91.13 817.64,-87.99 817.88,-94.98"/>
</g>
<!-- 14&#45;&gt;16 -->
<g id="edge50" class="edge">
<title>14&#45;&gt;16</title>
<path fill="none" stroke="grey" stroke-width="2" d="M466.2,-368.28C557.79,-354.31 735.65,-327.18 820.6,-314.23"/>
<polygon fill="grey" stroke="grey" stroke-width="2" points="821.38,-317.65 830.73,-312.68 820.32,-310.73 821.38,-317.65"/>
</g>
<!-- 14&#45;&gt;18 -->
<g id="edge58" class="edge">
<title>14&#45;&gt;18</title>
<path fill="none" stroke="grey" stroke-width="2" d="M411.66,-359.84C417.68,-326.95 435.45,-254.85 480,-216 519.58,-181.48 580.29,-169.37 621.27,-165.17"/>
<polygon fill="grey" stroke="grey" stroke-width="2" points="621.6,-168.65 631.24,-164.26 620.97,-161.68 621.6,-168.65"/>
</g>
<!-- 15 -->
<g id="node16" class="node">
<title>15</title>
<path fill="none" stroke="#97d856" stroke-width="2" d="M968,-252C968,-252 934,-252 934,-252 928,-252 922,-246 922,-240 922,-240 922,-228 922,-228 922,-222 928,-216 934,-216 934,-216 968,-216 968,-216 974,-216 980,-222 980,-228 980,-228 980,-240 980,-240 980,-246 974,-252 968,-252"/>
<text text-anchor="middle" x="951" y="-231.5" font-family="sans" font-size="10.00">subindex</text>
</g>
<!-- 15&#45;&gt;13 -->
<g id="edge34" class="edge">
<title>15&#45;&gt;13</title>
<path fill="none" stroke="grey" stroke-width="2" d="M940.63,-215.87C925.71,-191.24 898.09,-145.64 880.68,-116.88"/>
<polygon fill="grey" stroke="grey" stroke-width="2" points="883.58,-114.93 875.41,-108.19 877.6,-118.56 883.58,-114.93"/>
</g>
<!-- 15&#45;&gt;18 -->
<g id="edge56" class="edge">
<title>15&#45;&gt;18</title>
<path fill="none" stroke="grey" stroke-width="2" d="M921.78,-219.2C918.85,-218.03 915.89,-216.94 913,-216 843.25,-193.23 759.22,-177.64 709.06,-169.54"/>
<polygon fill="grey" stroke="grey" stroke-width="2" points="709.31,-166.04 698.88,-167.92 708.21,-172.95 709.31,-166.04"/>
</g>
<!-- 16&#45;&gt;13 -->
<g id="edge37" class="edge">
<title>16&#45;&gt;13</title>
<path fill="none" stroke="grey" stroke-width="2" d="M905.1,-293.71C936.97,-283.17 979.27,-266.88 989,-252 997.75,-238.61 994.86,-230.89 989,-216 971.77,-172.19 930.39,-135.85 900.15,-113.85"/>
<polygon fill="grey" stroke="grey" stroke-width="2" points="902.13,-110.96 891.95,-108.03 898.08,-116.67 902.13,-110.96"/>
</g>
<!-- 16&#45;&gt;15 -->
<g id="edge45" class="edge">
<title>16&#45;&gt;15</title>
<path fill="none" stroke="grey" stroke-width="2" d="M888.52,-287.7C898.87,-278.97 911.59,-268.24 922.84,-258.75"/>
<polygon fill="grey" stroke="grey" stroke-width="2" points="925.33,-261.23 930.72,-252.1 920.82,-255.88 925.33,-261.23"/>
</g>
<!-- 16&#45;&gt;18 -->
<g id="edge59" class="edge">
<title>16&#45;&gt;18</title>
<path fill="none" stroke="grey" stroke-width="2" d="M839.63,-287.89C823.18,-277.77 802.18,-264.52 784,-252 762.04,-236.87 757.35,-231.98 736,-216 722.99,-206.27 708.63,-195.54 696.25,-186.3"/>
<polygon fill="grey" stroke="grey" stroke-width="2" points="698.14,-183.35 688.03,-180.17 693.95,-188.96 698.14,-183.35"/>
</g>
<!-- 17 -->
<g id="node18" class="node">
<title>17</title>
<path fill="none" stroke="#56d882" stroke-width="2" d="M892,-252C892,-252 838,-252 838,-252 832,-252 826,-246 826,-240 826,-240 826,-228 826,-228 826,-222 832,-216 838,-216 838,-216 892,-216 892,-216 898,-216 904,-222 904,-228 904,-228 904,-240 904,-240 904,-246 898,-252 892,-252"/>
<text text-anchor="middle" x="865" y="-231.5" font-family="sans" font-size="10.00">make_graphs</text>
</g>
<!-- 17&#45;&gt;13 -->
<g id="edge41" class="edge">
<title>17&#45;&gt;13</title>
<path fill="none" stroke="grey" stroke-width="2" d="M865,-215.87C865,-191.67 865,-147.21 865,-118.39"/>
<polygon fill="grey" stroke="grey" stroke-width="2" points="868.5,-118.19 865,-108.19 861.5,-118.19 868.5,-118.19"/>
</g>
<!-- 17&#45;&gt;18 -->
<g id="edge62" class="edge">
<title>17&#45;&gt;18</title>
<path fill="none" stroke="grey" stroke-width="2" d="M825.96,-219.34C792.09,-207.48 743.12,-190.34 708.1,-178.09"/>
<polygon fill="grey" stroke="grey" stroke-width="2" points="709.22,-174.77 698.62,-174.77 706.9,-181.37 709.22,-174.77"/>
</g>
<!-- 18&#45;&gt;13 -->
<g id="edge38" class="edge">
<title>18&#45;&gt;13</title>
<path fill="none" stroke="grey" stroke-width="2" d="M698.93,-149.13C731.77,-137.63 781.81,-120.11 818.39,-107.32"/>
<polygon fill="grey" stroke="grey" stroke-width="2" points="819.56,-110.61 827.84,-104 817.25,-104 819.56,-110.61"/>
</g>
</g>
</svg>
