<?xml version="1.0" encoding="UTF-8" standalone="no"?>
<!DOCTYPE svg PUBLIC "-//W3C//DTD SVG 1.1//EN"
 "http://www.w3.org/Graphics/SVG/1.1/DTD/svg11.dtd">
<!-- Generated by graphviz version 3.0.0 (20220315.2325)
 -->
<!-- Title: snakemake_dag Pages: 1 -->
<svg width="1452pt" height="1196pt"
 viewBox="0.00 0.00 1452.00 1196.00" xmlns="http://www.w3.org/2000/svg" xmlns:xlink="http://www.w3.org/1999/xlink">
<g id="graph0" class="graph" transform="scale(1 1) rotate(0) translate(4 1192)">
<title>snakemake_dag</title>
<polygon fill="white" stroke="transparent" points="-4,4 -4,-1192 1448,-1192 1448,4 -4,4"/>
<!-- 0 -->
<g id="node1" class="node">
<title>0</title>
<path fill="none" stroke="#d6d856" stroke-width="2" d="M1345,-36C1345,-36 1315,-36 1315,-36 1309,-36 1303,-30 1303,-24 1303,-24 1303,-12 1303,-12 1303,-6 1309,0 1315,0 1315,0 1345,0 1345,0 1351,0 1357,-6 1357,-12 1357,-12 1357,-24 1357,-24 1357,-30 1351,-36 1345,-36"/>
<text text-anchor="middle" x="1330" y="-15.5" font-family="sans" font-size="10.00">all</text>
</g>
<!-- 1 -->
<g id="node2" class="node">
<title>1</title>
<path fill="none" stroke="#56d863" stroke-width="2" d="M1137,-828C1137,-828 1077,-828 1077,-828 1071,-828 1065,-822 1065,-816 1065,-816 1065,-804 1065,-804 1065,-798 1071,-792 1077,-792 1077,-792 1137,-792 1137,-792 1143,-792 1149,-798 1149,-804 1149,-804 1149,-816 1149,-816 1149,-822 1143,-828 1137,-828"/>
<text text-anchor="middle" x="1107" y="-807.5" font-family="sans" font-size="10.00">variant_counts</text>
</g>
<!-- 1&#45;&gt;0 -->
<g id="edge1" class="edge">
<title>1&#45;&gt;0</title>
<path fill="none" stroke="grey" stroke-width="2" d="M1126.58,-791.91C1198.5,-727.13 1444,-487.5 1444,-235 1444,-235 1444,-235 1444,-161 1444,-110 1398.73,-66.88 1365.24,-41.97"/>
<polygon fill="grey" stroke="grey" stroke-width="2" points="1367.17,-39.05 1357.02,-36.04 1363.08,-44.73 1367.17,-39.05"/>
</g>
<!-- 9 -->
<g id="node10" class="node">
<title>9</title>
<path fill="none" stroke="#d85656" stroke-width="2" d="M909.5,-756C909.5,-756 810.5,-756 810.5,-756 804.5,-756 798.5,-750 798.5,-744 798.5,-744 798.5,-732 798.5,-732 798.5,-726 804.5,-720 810.5,-720 810.5,-720 909.5,-720 909.5,-720 915.5,-720 921.5,-726 921.5,-732 921.5,-732 921.5,-744 921.5,-744 921.5,-750 915.5,-756 909.5,-756"/>
<text text-anchor="middle" x="860" y="-735.5" font-family="sans" font-size="10.00">analyze_variant_counts</text>
</g>
<!-- 1&#45;&gt;9 -->
<g id="edge16" class="edge">
<title>1&#45;&gt;9</title>
<path fill="none" stroke="grey" stroke-width="2" d="M1064.84,-796.08C1060.17,-794.69 1055.49,-793.3 1051,-792 1011.58,-780.55 967.43,-768.26 931.51,-758.4"/>
<polygon fill="grey" stroke="grey" stroke-width="2" points="932.18,-754.96 921.61,-755.69 930.33,-761.71 932.18,-754.96"/>
</g>
<!-- 13 -->
<g id="node14" class="node">
<title>13</title>
<path fill="none" stroke="#61d856" stroke-width="2" d="M629.5,-612C629.5,-612 582.5,-612 582.5,-612 576.5,-612 570.5,-606 570.5,-600 570.5,-600 570.5,-588 570.5,-588 570.5,-582 576.5,-576 582.5,-576 582.5,-576 629.5,-576 629.5,-576 635.5,-576 641.5,-582 641.5,-588 641.5,-588 641.5,-600 641.5,-600 641.5,-606 635.5,-612 629.5,-612"/>
<text text-anchor="middle" x="606" y="-591.5" font-family="sans" font-size="10.00">func_scores</text>
</g>
<!-- 1&#45;&gt;13 -->
<g id="edge24" class="edge">
<title>1&#45;&gt;13</title>
<path fill="none" stroke="grey" stroke-width="2" d="M1075.67,-791.94C1040.83,-773.27 982.64,-742.92 931,-720 832.92,-676.47 714.6,-633.21 651.27,-610.77"/>
<polygon fill="grey" stroke="grey" stroke-width="2" points="652.18,-607.38 641.58,-607.35 649.85,-613.98 652.18,-607.38"/>
</g>
<!-- 15 -->
<g id="node16" class="node">
<title>15</title>
<path fill="none" stroke="#bed856" stroke-width="2" d="M1109.5,-612C1109.5,-612 1058.5,-612 1058.5,-612 1052.5,-612 1046.5,-606 1046.5,-600 1046.5,-600 1046.5,-588 1046.5,-588 1046.5,-582 1052.5,-576 1058.5,-576 1058.5,-576 1109.5,-576 1109.5,-576 1115.5,-576 1121.5,-582 1121.5,-588 1121.5,-588 1121.5,-600 1121.5,-600 1121.5,-606 1115.5,-612 1109.5,-612"/>
<text text-anchor="middle" x="1084" y="-591.5" font-family="sans" font-size="10.00">prob_escape</text>
</g>
<!-- 1&#45;&gt;15 -->
<g id="edge29" class="edge">
<title>1&#45;&gt;15</title>
<path fill="none" stroke="grey" stroke-width="2" d="M1105.16,-791.85C1101.18,-754.83 1091.76,-667.18 1086.94,-622.39"/>
<polygon fill="grey" stroke="grey" stroke-width="2" points="1090.4,-621.8 1085.85,-612.23 1083.44,-622.55 1090.4,-621.8"/>
</g>
<!-- 16 -->
<g id="node17" class="node">
<title>16</title>
<path fill="none" stroke="#56d8b9" stroke-width="2" d="M1060,-108C1060,-108 1010,-108 1010,-108 1004,-108 998,-102 998,-96 998,-96 998,-84 998,-84 998,-78 1004,-72 1010,-72 1010,-72 1060,-72 1060,-72 1066,-72 1072,-78 1072,-84 1072,-84 1072,-96 1072,-96 1072,-102 1066,-108 1060,-108"/>
<text text-anchor="middle" x="1035" y="-87.5" font-family="sans" font-size="10.00">sphinx_build</text>
</g>
<!-- 1&#45;&gt;16 -->
<g id="edge37" class="edge">
<title>1&#45;&gt;16</title>
<path fill="none" stroke="grey" stroke-width="2" d="M1119.11,-791.94C1125.9,-781.83 1134.15,-768.58 1140,-756 1216.9,-590.57 1272.05,-540.84 1248,-360 1234.81,-260.87 1255.08,-215.34 1185,-144 1157.73,-116.23 1115.03,-102.98 1082.15,-96.67"/>
<polygon fill="grey" stroke="grey" stroke-width="2" points="1082.74,-93.22 1072.29,-94.93 1081.53,-100.11 1082.74,-93.22"/>
</g>
<!-- 22 -->
<g id="node23" class="node">
<title>22</title>
<path fill="none" stroke="#d89c56" stroke-width="2" d="M780.5,-180C780.5,-180 737.5,-180 737.5,-180 731.5,-180 725.5,-174 725.5,-168 725.5,-168 725.5,-156 725.5,-156 725.5,-150 731.5,-144 737.5,-144 737.5,-144 780.5,-144 780.5,-144 786.5,-144 792.5,-150 792.5,-156 792.5,-156 792.5,-168 792.5,-168 792.5,-174 786.5,-180 780.5,-180"/>
<text text-anchor="middle" x="759" y="-159.5" font-family="sans" font-size="10.00">docs_index</text>
</g>
<!-- 1&#45;&gt;22 -->
<g id="edge66" class="edge">
<title>1&#45;&gt;22</title>
<path fill="none" stroke="grey" stroke-width="2" d="M1112.4,-791.91C1131.19,-728.93 1188.02,-505.98 1101,-360 1059.49,-290.36 1019.1,-300.32 954,-252 932.59,-236.11 929.47,-228.66 906,-216 872.86,-198.12 832.44,-184.05 802.38,-174.91"/>
<polygon fill="grey" stroke="grey" stroke-width="2" points="803.19,-171.5 792.6,-172 801.19,-178.21 803.19,-171.5"/>
</g>
<!-- 2 -->
<g id="node3" class="node">
<title>2</title>
<path fill="none" stroke="#56b1d8" stroke-width="2" d="M920.5,-900C920.5,-900 855.5,-900 855.5,-900 849.5,-900 843.5,-894 843.5,-888 843.5,-888 843.5,-876 843.5,-876 843.5,-870 849.5,-864 855.5,-864 855.5,-864 920.5,-864 920.5,-864 926.5,-864 932.5,-870 932.5,-876 932.5,-876 932.5,-888 932.5,-888 932.5,-894 926.5,-900 920.5,-900"/>
<text text-anchor="middle" x="888" y="-879.5" font-family="sans" font-size="10.00">count_barcodes</text>
</g>
<!-- 2&#45;&gt;1 -->
<g id="edge7" class="edge">
<title>2&#45;&gt;1</title>
<path fill="none" stroke="grey" stroke-width="2" d="M932.58,-866.75C968.06,-855.41 1017.76,-839.52 1055.03,-827.61"/>
<polygon fill="grey" stroke="grey" stroke-width="2" points="1056.25,-830.9 1064.71,-824.52 1054.12,-824.23 1056.25,-830.9"/>
</g>
<!-- 2&#45;&gt;9 -->
<g id="edge18" class="edge">
<title>2&#45;&gt;9</title>
<path fill="none" stroke="grey" stroke-width="2" d="M884.62,-863.87C879.83,-839.56 871.01,-794.82 865.33,-766.01"/>
<polygon fill="grey" stroke="grey" stroke-width="2" points="868.76,-765.32 863.39,-756.19 861.89,-766.68 868.76,-765.32"/>
</g>
<!-- 3 -->
<g id="node4" class="node">
<title>3</title>
<path fill="none" stroke="#d86e56" stroke-width="2" d="M964.5,-972C964.5,-972 875.5,-972 875.5,-972 869.5,-972 863.5,-966 863.5,-960 863.5,-960 863.5,-948 863.5,-948 863.5,-942 869.5,-936 875.5,-936 875.5,-936 964.5,-936 964.5,-936 970.5,-936 976.5,-942 976.5,-948 976.5,-948 976.5,-960 976.5,-960 976.5,-966 970.5,-972 964.5,-972"/>
<text text-anchor="middle" x="920" y="-951.5" font-family="sans" font-size="10.00">build_codon_variants</text>
</g>
<!-- 3&#45;&gt;1 -->
<g id="edge6" class="edge">
<title>3&#45;&gt;1</title>
<path fill="none" stroke="grey" stroke-width="2" d="M942.56,-935.87C975.97,-910.5 1038.71,-862.85 1076.29,-834.32"/>
<polygon fill="grey" stroke="grey" stroke-width="2" points="1078.52,-837.02 1084.36,-828.19 1074.28,-831.45 1078.52,-837.02"/>
</g>
<!-- 3&#45;&gt;2 -->
<g id="edge9" class="edge">
<title>3&#45;&gt;2</title>
<path fill="none" stroke="grey" stroke-width="2" d="M912.09,-935.7C908.45,-927.73 904.05,-918.1 900.01,-909.26"/>
<polygon fill="grey" stroke="grey" stroke-width="2" points="903.16,-907.74 895.82,-900.1 896.79,-910.65 903.16,-907.74"/>
</g>
<!-- 3&#45;&gt;9 -->
<g id="edge17" class="edge">
<title>3&#45;&gt;9</title>
<path fill="none" stroke="grey" stroke-width="2" d="M874.97,-935.86C859.45,-927.53 843.78,-915.81 835,-900 811.26,-857.23 831,-798.78 846.31,-765.35"/>
<polygon fill="grey" stroke="grey" stroke-width="2" points="849.52,-766.75 850.67,-756.22 843.21,-763.73 849.52,-766.75"/>
</g>
<!-- 3&#45;&gt;13 -->
<g id="edge25" class="edge">
<title>3&#45;&gt;13</title>
<path fill="none" stroke="grey" stroke-width="2" d="M863.13,-947.54C740.06,-934.14 460,-894.48 460,-811 460,-811 460,-811 460,-737 460,-679.73 518.45,-638.08 561.38,-615.22"/>
<polygon fill="grey" stroke="grey" stroke-width="2" points="563,-618.32 570.28,-610.62 559.79,-612.1 563,-618.32"/>
</g>
<!-- 3&#45;&gt;15 -->
<g id="edge30" class="edge">
<title>3&#45;&gt;15</title>
<path fill="none" stroke="grey" stroke-width="2" d="M929.78,-935.8C953.41,-893.77 1014.67,-782.11 1055,-684 1063.42,-663.52 1071.09,-639.63 1076.43,-621.76"/>
<polygon fill="grey" stroke="grey" stroke-width="2" points="1079.83,-622.58 1079.29,-612 1073.12,-620.61 1079.83,-622.58"/>
</g>
<!-- 3&#45;&gt;16 -->
<g id="edge34" class="edge">
<title>3&#45;&gt;16</title>
<path fill="none" stroke="grey" stroke-width="2" d="M976.8,-945.63C1017.02,-938.51 1071.06,-924.99 1113,-900 1212.97,-840.43 1230.55,-796.32 1261,-684 1315.45,-483.18 1307.93,-415.55 1249,-216 1238.87,-181.69 1240.4,-167 1213,-144 1175.93,-112.89 1121.15,-100.04 1082.16,-94.73"/>
<polygon fill="grey" stroke="grey" stroke-width="2" points="1082.46,-91.24 1072.11,-93.48 1081.6,-98.19 1082.46,-91.24"/>
</g>
<!-- 20 -->
<g id="node21" class="node">
<title>20</title>
<path fill="none" stroke="#56d8d0" stroke-width="2" d="M485,-324C485,-324 435,-324 435,-324 429,-324 423,-318 423,-312 423,-312 423,-300 423,-300 423,-294 429,-288 435,-288 435,-288 485,-288 485,-288 491,-288 497,-294 497,-300 497,-300 497,-312 497,-312 497,-318 491,-324 485,-324"/>
<text text-anchor="middle" x="460" y="-303.5" font-family="sans" font-size="10.00">make_nblink</text>
</g>
<!-- 3&#45;&gt;20 -->
<g id="edge53" class="edge">
<title>3&#45;&gt;20</title>
<path fill="none" stroke="grey" stroke-width="2" d="M863.27,-950.36C764.57,-945.01 565.87,-930.71 504,-900 414.2,-855.42 346,-839.26 346,-739 346,-739 346,-739 346,-521 346,-444.76 403.06,-369.28 436.44,-331.65"/>
<polygon fill="grey" stroke="grey" stroke-width="2" points="439.06,-333.97 443.18,-324.21 433.87,-329.27 439.06,-333.97"/>
</g>
<!-- 3&#45;&gt;22 -->
<g id="edge63" class="edge">
<title>3&#45;&gt;22</title>
<path fill="none" stroke="grey" stroke-width="2" d="M976.61,-939.34C1032.21,-922.78 1114.78,-889.18 1158,-828 1218.53,-742.3 1196,-699.92 1196,-595 1196,-595 1196,-595 1196,-521 1196,-400.64 1153.6,-361.11 1058,-288 1029.9,-266.51 1016.53,-271.48 987,-252 966.19,-238.28 966.01,-227.69 944,-216 898.76,-191.99 841.36,-177.73 802.59,-170.15"/>
<polygon fill="grey" stroke="grey" stroke-width="2" points="803.14,-166.69 792.66,-168.28 801.84,-173.57 803.14,-166.69"/>
</g>
<!-- 4 -->
<g id="node5" class="node">
<title>4</title>
<path fill="none" stroke="#a7d856" stroke-width="2" d="M234,-1044C234,-1044 132,-1044 132,-1044 126,-1044 120,-1038 120,-1032 120,-1032 120,-1020 120,-1020 120,-1014 126,-1008 132,-1008 132,-1008 234,-1008 234,-1008 240,-1008 246,-1014 246,-1020 246,-1020 246,-1032 246,-1032 246,-1038 240,-1044 234,-1044"/>
<text text-anchor="middle" x="183" y="-1023.5" font-family="sans" font-size="10.00">build_pacbio_consensus</text>
</g>
<!-- 4&#45;&gt;3 -->
<g id="edge10" class="edge">
<title>4&#45;&gt;3</title>
<path fill="none" stroke="grey" stroke-width="2" d="M246.15,-1019C384.16,-1005.89 711.55,-974.8 853,-961.36"/>
<polygon fill="grey" stroke="grey" stroke-width="2" points="853.64,-964.82 863.26,-960.39 852.98,-957.85 853.64,-964.82"/>
</g>
<!-- 4&#45;&gt;16 -->
<g id="edge39" class="edge">
<title>4&#45;&gt;16</title>
<path fill="none" stroke="grey" stroke-width="2" d="M169.22,-1007.79C150.14,-982.18 118,-931.8 118,-883 118,-883 118,-883 118,-449 118,-291.37 157.48,-213.43 299,-144 360.63,-113.77 834.94,-97.01 987.74,-92.35"/>
<polygon fill="grey" stroke="grey" stroke-width="2" points="987.86,-95.85 997.75,-92.05 987.65,-88.85 987.86,-95.85"/>
</g>
<!-- 4&#45;&gt;20 -->
<g id="edge55" class="edge">
<title>4&#45;&gt;20</title>
<path fill="none" stroke="grey" stroke-width="2" d="M199.49,-1007.77C221.84,-982.53 259,-933.05 259,-883 259,-883 259,-883 259,-737 259,-641.76 270,-618.24 270,-523 270,-523 270,-523 270,-449 270,-377.71 356.88,-337.91 413.14,-319.6"/>
<polygon fill="grey" stroke="grey" stroke-width="2" points="414.42,-322.87 422.92,-316.53 412.33,-316.19 414.42,-322.87"/>
</g>
<!-- 4&#45;&gt;22 -->
<g id="edge68" class="edge">
<title>4&#45;&gt;22</title>
<path fill="none" stroke="grey" stroke-width="2" d="M177.54,-1007.71C169.65,-981.18 156,-928.67 156,-883 156,-883 156,-883 156,-377 156,-334.88 220.32,-238.37 256,-216 332.05,-168.32 607.43,-162.99 715.27,-162.78"/>
<polygon fill="grey" stroke="grey" stroke-width="2" points="715.47,-166.28 725.47,-162.78 715.47,-159.28 715.47,-166.28"/>
</g>
<!-- 5 -->
<g id="node6" class="node">
<title>5</title>
<path fill="none" stroke="#56d892" stroke-width="2" d="M101,-1116C101,-1116 21,-1116 21,-1116 15,-1116 9,-1110 9,-1104 9,-1104 9,-1092 9,-1092 9,-1086 15,-1080 21,-1080 21,-1080 101,-1080 101,-1080 107,-1080 113,-1086 113,-1092 113,-1092 113,-1104 113,-1104 113,-1110 107,-1116 101,-1116"/>
<text text-anchor="middle" x="61" y="-1095.5" font-family="sans" font-size="10.00">analyze_pacbio_ccs</text>
</g>
<!-- 5&#45;&gt;4 -->
<g id="edge12" class="edge">
<title>5&#45;&gt;4</title>
<path fill="none" stroke="grey" stroke-width="2" d="M90.84,-1079.88C106.94,-1070.64 127,-1059.13 144.29,-1049.21"/>
<polygon fill="grey" stroke="grey" stroke-width="2" points="146.11,-1052.2 153.04,-1044.19 142.63,-1046.13 146.11,-1052.2"/>
</g>
<!-- 5&#45;&gt;16 -->
<g id="edge42" class="edge">
<title>5&#45;&gt;16</title>
<path fill="none" stroke="grey" stroke-width="2" d="M49.19,-1079.96C32.49,-1054.16 4,-1003.08 4,-955 4,-955 4,-955 4,-377 4,-231.49 97.88,-195.41 234,-144 373.1,-91.46 836.8,-89.68 987.35,-90.55"/>
<polygon fill="grey" stroke="grey" stroke-width="2" points="987.62,-94.05 997.64,-90.62 987.66,-87.05 987.62,-94.05"/>
</g>
<!-- 5&#45;&gt;20 -->
<g id="edge56" class="edge">
<title>5&#45;&gt;20</title>
<path fill="none" stroke="grey" stroke-width="2" d="M64.84,-1079.61C70.4,-1052.94 80,-1000.27 80,-955 80,-955 80,-955 80,-449 80,-378.7 311.11,-331.69 412.86,-314.39"/>
<polygon fill="grey" stroke="grey" stroke-width="2" points="413.59,-317.82 422.87,-312.72 412.43,-310.92 413.59,-317.82"/>
</g>
<!-- 5&#45;&gt;22 -->
<g id="edge71" class="edge">
<title>5&#45;&gt;22</title>
<path fill="none" stroke="grey" stroke-width="2" d="M57.16,-1079.61C51.6,-1052.94 42,-1000.27 42,-955 42,-955 42,-955 42,-377 42,-271.31 120.53,-259.15 217,-216 305.83,-176.26 602.28,-166.16 714.99,-163.73"/>
<polygon fill="grey" stroke="grey" stroke-width="2" points="715.39,-167.22 725.31,-163.52 715.24,-160.22 715.39,-167.22"/>
</g>
<!-- 6 -->
<g id="node7" class="node">
<title>6</title>
<path fill="none" stroke="#d8c356" stroke-width="2" d="M110,-1188C110,-1188 12,-1188 12,-1188 6,-1188 0,-1182 0,-1176 0,-1176 0,-1164 0,-1164 0,-1158 6,-1152 12,-1152 12,-1152 110,-1152 110,-1152 116,-1152 122,-1158 122,-1164 122,-1164 122,-1176 122,-1176 122,-1182 116,-1188 110,-1188"/>
<text text-anchor="middle" x="61" y="-1167.5" font-family="sans" font-size="10.00">align_parse_PacBio_ccs</text>
</g>
<!-- 6&#45;&gt;5 -->
<g id="edge14" class="edge">
<title>6&#45;&gt;5</title>
<path fill="none" stroke="grey" stroke-width="2" d="M61,-1151.7C61,-1143.98 61,-1134.71 61,-1126.11"/>
<polygon fill="grey" stroke="grey" stroke-width="2" points="64.5,-1126.1 61,-1116.1 57.5,-1126.1 64.5,-1126.1"/>
</g>
<!-- 7 -->
<g id="node8" class="node">
<title>7</title>
<path fill="none" stroke="#5682d8" stroke-width="2" d="M1040,-1116C1040,-1116 974,-1116 974,-1116 968,-1116 962,-1110 962,-1104 962,-1104 962,-1092 962,-1092 962,-1086 968,-1080 974,-1080 974,-1080 1040,-1080 1040,-1080 1046,-1080 1052,-1086 1052,-1092 1052,-1092 1052,-1104 1052,-1104 1052,-1110 1046,-1116 1040,-1116"/>
<text text-anchor="middle" x="1007" y="-1095.5" font-family="sans" font-size="10.00">gene_sequence</text>
</g>
<!-- 7&#45;&gt;1 -->
<g id="edge8" class="edge">
<title>7&#45;&gt;1</title>
<path fill="none" stroke="grey" stroke-width="2" d="M1024.73,-1079.83C1033.83,-1070.11 1044.36,-1057.26 1051,-1044 1085.6,-974.93 1099.47,-883.47 1104.48,-838.44"/>
<polygon fill="grey" stroke="grey" stroke-width="2" points="1107.98,-838.6 1105.54,-828.29 1101.02,-837.87 1107.98,-838.6"/>
</g>
<!-- 7&#45;&gt;3 -->
<g id="edge11" class="edge">
<title>7&#45;&gt;3</title>
<path fill="none" stroke="grey" stroke-width="2" d="M996.51,-1079.87C981.42,-1055.24 953.48,-1009.64 935.86,-980.88"/>
<polygon fill="grey" stroke="grey" stroke-width="2" points="938.74,-978.89 930.53,-972.19 932.77,-982.54 938.74,-978.89"/>
</g>
<!-- 7&#45;&gt;4 -->
<g id="edge13" class="edge">
<title>7&#45;&gt;4</title>
<path fill="none" stroke="grey" stroke-width="2" d="M961.95,-1095.2C847.95,-1090.31 538.86,-1075.04 283,-1044 274.3,-1042.94 265.2,-1041.66 256.19,-1040.27"/>
<polygon fill="grey" stroke="grey" stroke-width="2" points="256.51,-1036.77 246.08,-1038.66 255.41,-1043.69 256.51,-1036.77"/>
</g>
<!-- 7&#45;&gt;9 -->
<g id="edge19" class="edge">
<title>7&#45;&gt;9</title>
<path fill="none" stroke="grey" stroke-width="2" d="M1013.07,-1079.76C1021.84,-1053.28 1037,-1000.86 1037,-955 1037,-955 1037,-955 1037,-881 1037,-820.55 973.41,-781.55 922.45,-760"/>
<polygon fill="grey" stroke="grey" stroke-width="2" points="923.69,-756.72 913.11,-756.18 921.04,-763.2 923.69,-756.72"/>
</g>
<!-- 7&#45;&gt;13 -->
<g id="edge27" class="edge">
<title>7&#45;&gt;13</title>
<path fill="none" stroke="grey" stroke-width="2" d="M961.94,-1096.37C818.84,-1093.15 384,-1073.63 384,-955 384,-955 384,-955 384,-737 384,-654.05 495.35,-617.37 560.33,-603.03"/>
<polygon fill="grey" stroke="grey" stroke-width="2" points="561.27,-606.41 570.33,-600.91 559.82,-599.56 561.27,-606.41"/>
</g>
<!-- 7&#45;&gt;15 -->
<g id="edge32" class="edge">
<title>7&#45;&gt;15</title>
<path fill="none" stroke="grey" stroke-width="2" d="M1052.26,-1097.57C1143.3,-1096.12 1340,-1078.66 1340,-955 1340,-955 1340,-955 1340,-881 1340,-754.47 1199.16,-658.3 1126.41,-617.06"/>
<polygon fill="grey" stroke="grey" stroke-width="2" points="1127.91,-613.88 1117.47,-612.07 1124.5,-620 1127.91,-613.88"/>
</g>
<!-- 7&#45;&gt;16 -->
<g id="edge43" class="edge">
<title>7&#45;&gt;16</title>
<path fill="none" stroke="grey" stroke-width="2" d="M1052.17,-1093.5C1127.74,-1086.97 1275.84,-1071.09 1320,-1044 1361.98,-1018.25 1386,-1004.25 1386,-955 1386,-955 1386,-955 1386,-449 1386,-298.71 1356.03,-239.51 1240,-144 1195.1,-107.05 1127.42,-95.52 1082.26,-92.11"/>
<polygon fill="grey" stroke="grey" stroke-width="2" points="1082.34,-88.61 1072.13,-91.46 1081.88,-95.6 1082.34,-88.61"/>
</g>
<!-- 7&#45;&gt;22 -->
<g id="edge72" class="edge">
<title>7&#45;&gt;22</title>
<path fill="none" stroke="grey" stroke-width="2" d="M961.78,-1097.62C805.39,-1098.56 297,-1091.15 297,-955 297,-955 297,-955 297,-737 297,-637.6 232,-622.4 232,-523 232,-523 232,-523 232,-449 232,-366.65 427.24,-219.4 434,-216 482.52,-191.56 638.13,-174.19 715.08,-166.87"/>
<polygon fill="grey" stroke="grey" stroke-width="2" points="715.76,-170.32 725.39,-165.91 715.11,-163.35 715.76,-170.32"/>
</g>
<!-- 8 -->
<g id="node9" class="node">
<title>8</title>
<path fill="none" stroke="#566bd8" stroke-width="2" d="M1034,-684C1034,-684 894,-684 894,-684 888,-684 882,-678 882,-672 882,-672 882,-660 882,-660 882,-654 888,-648 894,-648 894,-648 1034,-648 1034,-648 1040,-648 1046,-654 1046,-660 1046,-660 1046,-672 1046,-672 1046,-678 1040,-684 1034,-684"/>
<text text-anchor="middle" x="964" y="-663.5" font-family="sans" font-size="10.00">check_adequate_variant_counts</text>
</g>
<!-- 8&#45;&gt;0 -->
<g id="edge5" class="edge">
<title>8&#45;&gt;0</title>
<path fill="none" stroke="grey" stroke-width="2" d="M977.28,-647.71C991.63,-629.36 1015.47,-599.77 1038,-576 1191.38,-414.15 1406,-457.98 1406,-235 1406,-235 1406,-235 1406,-161 1406,-115.64 1375.48,-70.75 1353.12,-43.95"/>
<polygon fill="grey" stroke="grey" stroke-width="2" points="1355.66,-41.53 1346.49,-36.23 1350.36,-46.09 1355.66,-41.53"/>
</g>
<!-- 8&#45;&gt;13 -->
<g id="edge26" class="edge">
<title>8&#45;&gt;13</title>
<path fill="none" stroke="grey" stroke-width="2" d="M881.87,-648.94C810.4,-634.97 709.44,-615.23 651.56,-603.91"/>
<polygon fill="grey" stroke="grey" stroke-width="2" points="652.1,-600.45 641.62,-601.96 650.76,-607.32 652.1,-600.45"/>
</g>
<!-- 8&#45;&gt;15 -->
<g id="edge31" class="edge">
<title>8&#45;&gt;15</title>
<path fill="none" stroke="grey" stroke-width="2" d="M993.36,-647.88C1009.05,-638.72 1028.56,-627.34 1045.45,-617.48"/>
<polygon fill="grey" stroke="grey" stroke-width="2" points="1047.66,-620.25 1054.53,-612.19 1044.13,-614.21 1047.66,-620.25"/>
</g>
<!-- 9&#45;&gt;8 -->
<g id="edge15" class="edge">
<title>9&#45;&gt;8</title>
<path fill="none" stroke="grey" stroke-width="2" d="M885.44,-719.88C898.79,-710.89 915.32,-699.76 929.78,-690.03"/>
<polygon fill="grey" stroke="grey" stroke-width="2" points="932.12,-692.68 938.46,-684.19 928.21,-686.87 932.12,-692.68"/>
</g>
<!-- 9&#45;&gt;16 -->
<g id="edge33" class="edge">
<title>9&#45;&gt;16</title>
<path fill="none" stroke="grey" stroke-width="2" d="M859.34,-719.97C859.32,-701.31 861.35,-670.98 873,-648 961.73,-472.96 1108.21,-509.25 1173,-324 1199.49,-248.26 1212.99,-203.36 1159,-144 1138.82,-121.81 1107.77,-108.55 1081.8,-100.85"/>
<polygon fill="grey" stroke="grey" stroke-width="2" points="1082.7,-97.47 1072.12,-98.16 1080.82,-104.21 1082.7,-97.47"/>
</g>
<!-- 9&#45;&gt;20 -->
<g id="edge52" class="edge">
<title>9&#45;&gt;20</title>
<path fill="none" stroke="grey" stroke-width="2" d="M798.46,-728.65C702.61,-711.97 520.37,-664.74 440,-540 423.9,-515.01 431.8,-360.79 432,-360 434.29,-350.75 438.53,-341.34 443.02,-333.07"/>
<polygon fill="grey" stroke="grey" stroke-width="2" points="446.13,-334.68 448.11,-324.28 440.07,-331.17 446.13,-334.68"/>
</g>
<!-- 9&#45;&gt;22 -->
<g id="edge62" class="edge">
<title>9&#45;&gt;22</title>
<path fill="none" stroke="grey" stroke-width="2" d="M841.8,-719.6C817.64,-694.53 778,-645.67 778,-595 778,-595 778,-595 778,-305 778,-264.86 770.45,-218.9 764.87,-190.4"/>
<polygon fill="grey" stroke="grey" stroke-width="2" points="768.26,-189.5 762.84,-180.39 761.39,-190.88 768.26,-189.5"/>
</g>
<!-- 10 -->
<g id="node11" class="node">
<title>10</title>
<path fill="none" stroke="#8fd856" stroke-width="2" d="M909.5,-396C909.5,-396 818.5,-396 818.5,-396 812.5,-396 806.5,-390 806.5,-384 806.5,-384 806.5,-372 806.5,-372 806.5,-366 812.5,-360 818.5,-360 818.5,-360 909.5,-360 909.5,-360 915.5,-360 921.5,-366 921.5,-372 921.5,-372 921.5,-384 921.5,-384 921.5,-390 915.5,-396 909.5,-396"/>
<text text-anchor="middle" x="864" y="-375.5" font-family="sans" font-size="10.00">avg_antibody_escape</text>
</g>
<!-- 10&#45;&gt;0 -->
<g id="edge3" class="edge">
<title>10&#45;&gt;0</title>
<path fill="none" stroke="grey" stroke-width="2" d="M905.86,-359.82C955.28,-338.49 1038.73,-299.1 1102,-252 1188.76,-187.41 1273.04,-89.41 1310.2,-43.88"/>
<polygon fill="grey" stroke="grey" stroke-width="2" points="1313,-45.98 1316.58,-36 1307.56,-41.57 1313,-45.98"/>
</g>
<!-- 10&#45;&gt;16 -->
<g id="edge41" class="edge">
<title>10&#45;&gt;16</title>
<path fill="none" stroke="grey" stroke-width="2" d="M881.22,-359.69C901.72,-339.92 937.78,-307.77 974,-288 1018.78,-263.56 1053.11,-293.35 1083,-252 1112.96,-210.55 1079.37,-150.36 1055.22,-116.54"/>
<polygon fill="grey" stroke="grey" stroke-width="2" points="1057.78,-114.11 1049.02,-108.14 1052.14,-118.26 1057.78,-114.11"/>
</g>
<!-- 10&#45;&gt;20 -->
<g id="edge58" class="edge">
<title>10&#45;&gt;20</title>
<path fill="none" stroke="grey" stroke-width="2" d="M806.12,-366.97C725.68,-353.03 581.63,-328.07 507.28,-315.19"/>
<polygon fill="grey" stroke="grey" stroke-width="2" points="507.72,-311.72 497.27,-313.46 506.52,-318.61 507.72,-311.72"/>
</g>
<!-- 10&#45;&gt;22 -->
<g id="edge70" class="edge">
<title>10&#45;&gt;22</title>
<path fill="none" stroke="grey" stroke-width="2" d="M857.18,-359.71C845.19,-329.83 819.03,-266.83 792,-216 787.22,-207 781.5,-197.47 776.17,-189"/>
<polygon fill="grey" stroke="grey" stroke-width="2" points="778.95,-186.85 770.61,-180.31 773.05,-190.62 778.95,-186.85"/>
</g>
<!-- 11 -->
<g id="node12" class="node">
<title>11</title>
<path fill="none" stroke="#56c9d8" stroke-width="2" d="M530.5,-468C530.5,-468 465.5,-468 465.5,-468 459.5,-468 453.5,-462 453.5,-456 453.5,-456 453.5,-444 453.5,-444 453.5,-438 459.5,-432 465.5,-432 465.5,-432 530.5,-432 530.5,-432 536.5,-432 542.5,-438 542.5,-444 542.5,-444 542.5,-456 542.5,-456 542.5,-462 536.5,-468 530.5,-468"/>
<text text-anchor="middle" x="498" y="-447.5" font-family="sans" font-size="10.00">avg_muteffects</text>
</g>
<!-- 11&#45;&gt;0 -->
<g id="edge2" class="edge">
<title>11&#45;&gt;0</title>
<path fill="none" stroke="grey" stroke-width="2" d="M471.48,-431.93C399.46,-383.6 211.37,-242.9 299,-144 366.45,-67.88 1115.96,-28.83 1292.79,-20.65"/>
<polygon fill="grey" stroke="grey" stroke-width="2" points="1293.06,-24.14 1302.89,-20.18 1292.74,-17.14 1293.06,-24.14"/>
</g>
<!-- 11&#45;&gt;10 -->
<g id="edge20" class="edge">
<title>11&#45;&gt;10</title>
<path fill="none" stroke="grey" stroke-width="2" d="M542.51,-440.49C605.74,-428.39 722.08,-406.14 796.11,-391.98"/>
<polygon fill="grey" stroke="grey" stroke-width="2" points="797.1,-395.36 806.27,-390.04 795.79,-388.48 797.1,-395.36"/>
</g>
<!-- 11&#45;&gt;16 -->
<g id="edge40" class="edge">
<title>11&#45;&gt;16</title>
<path fill="none" stroke="grey" stroke-width="2" d="M502.27,-431.9C516.44,-378.96 567.3,-216.98 675,-144 725.08,-110.06 901.7,-97.24 987.51,-92.93"/>
<polygon fill="grey" stroke="grey" stroke-width="2" points="987.94,-96.42 997.76,-92.44 987.6,-89.43 987.94,-96.42"/>
</g>
<!-- 11&#45;&gt;20 -->
<g id="edge59" class="edge">
<title>11&#45;&gt;20</title>
<path fill="none" stroke="grey" stroke-width="2" d="M493.42,-431.87C486.91,-407.56 474.94,-362.82 467.23,-334.01"/>
<polygon fill="grey" stroke="grey" stroke-width="2" points="470.57,-332.94 464.6,-324.19 463.8,-334.75 470.57,-332.94"/>
</g>
<!-- 11&#45;&gt;22 -->
<g id="edge69" class="edge">
<title>11&#45;&gt;22</title>
<path fill="none" stroke="grey" stroke-width="2" d="M542.54,-448.42C584.59,-445.4 646.51,-434.15 683,-396 739.85,-336.56 694.3,-291.9 726,-216 729.87,-206.75 735.25,-197.26 740.55,-188.91"/>
<polygon fill="grey" stroke="grey" stroke-width="2" points="743.6,-190.65 746.19,-180.37 737.75,-186.79 743.6,-190.65"/>
</g>
<!-- 12 -->
<g id="node13" class="node">
<title>12</title>
<path fill="none" stroke="#78d856" stroke-width="2" d="M535,-540C535,-540 461,-540 461,-540 455,-540 449,-534 449,-528 449,-528 449,-516 449,-516 449,-510 455,-504 461,-504 461,-504 535,-504 535,-504 541,-504 547,-510 547,-516 547,-516 547,-528 547,-528 547,-534 541,-540 535,-540"/>
<text text-anchor="middle" x="498" y="-519.5" font-family="sans" font-size="10.00">fit_globalepistasis</text>
</g>
<!-- 12&#45;&gt;11 -->
<g id="edge22" class="edge">
<title>12&#45;&gt;11</title>
<path fill="none" stroke="grey" stroke-width="2" d="M498,-503.7C498,-495.98 498,-486.71 498,-478.11"/>
<polygon fill="grey" stroke="grey" stroke-width="2" points="501.5,-478.1 498,-468.1 494.5,-478.1 501.5,-478.1"/>
</g>
<!-- 12&#45;&gt;16 -->
<g id="edge46" class="edge">
<title>12&#45;&gt;16</title>
<path fill="none" stroke="grey" stroke-width="2" d="M465.1,-503.88C382.1,-458.43 176.3,-330.39 256,-216 340.1,-95.29 831.57,-89.15 987.53,-90.29"/>
<polygon fill="grey" stroke="grey" stroke-width="2" points="987.71,-93.79 997.74,-90.38 987.77,-86.79 987.71,-93.79"/>
</g>
<!-- 12&#45;&gt;20 -->
<g id="edge61" class="edge">
<title>12&#45;&gt;20</title>
<path fill="none" stroke="grey" stroke-width="2" d="M473.07,-503.86C461.94,-494.67 450,-482.29 444,-468 425.46,-423.83 438.72,-367.06 449.64,-334.08"/>
<polygon fill="grey" stroke="grey" stroke-width="2" points="453.08,-334.85 453.06,-324.25 446.47,-332.55 453.08,-334.85"/>
</g>
<!-- 12&#45;&gt;22 -->
<g id="edge75" class="edge">
<title>12&#45;&gt;22</title>
<path fill="none" stroke="grey" stroke-width="2" d="M547.28,-504.78C595.86,-486.21 668.52,-451.06 709,-396 755.05,-333.35 760.44,-237.12 760.04,-190.37"/>
<polygon fill="grey" stroke="grey" stroke-width="2" points="763.54,-190.06 759.85,-180.12 756.54,-190.19 763.54,-190.06"/>
</g>
<!-- 13&#45;&gt;12 -->
<g id="edge23" class="edge">
<title>13&#45;&gt;12</title>
<path fill="none" stroke="grey" stroke-width="2" d="M579.58,-575.88C565.59,-566.81 548.22,-555.55 533.11,-545.76"/>
<polygon fill="grey" stroke="grey" stroke-width="2" points="534.82,-542.69 524.52,-540.19 531.01,-548.57 534.82,-542.69"/>
</g>
<!-- 17 -->
<g id="node18" class="node">
<title>17</title>
<path fill="none" stroke="#56d87b" stroke-width="2" d="M662,-396C662,-396 576,-396 576,-396 570,-396 564,-390 564,-384 564,-384 564,-372 564,-372 564,-366 570,-360 576,-360 576,-360 662,-360 662,-360 668,-360 674,-366 674,-372 674,-372 674,-384 674,-384 674,-390 668,-396 662,-396"/>
<text text-anchor="middle" x="619" y="-375.5" font-family="sans" font-size="10.00">analyze_func_scores</text>
</g>
<!-- 13&#45;&gt;17 -->
<g id="edge49" class="edge">
<title>13&#45;&gt;17</title>
<path fill="none" stroke="grey" stroke-width="2" d="M607.04,-575.85C609.29,-538.83 614.62,-451.18 617.34,-406.39"/>
<polygon fill="grey" stroke="grey" stroke-width="2" points="620.84,-406.43 617.95,-396.23 613.85,-406 620.84,-406.43"/>
</g>
<!-- 14 -->
<g id="node15" class="node">
<title>14</title>
<path fill="none" stroke="#569ad8" stroke-width="2" d="M976.5,-468C976.5,-468 923.5,-468 923.5,-468 917.5,-468 911.5,-462 911.5,-456 911.5,-456 911.5,-444 911.5,-444 911.5,-438 917.5,-432 923.5,-432 923.5,-432 976.5,-432 976.5,-432 982.5,-432 988.5,-438 988.5,-444 988.5,-444 988.5,-456 988.5,-456 988.5,-462 982.5,-468 976.5,-468"/>
<text text-anchor="middle" x="950" y="-447.5" font-family="sans" font-size="10.00">fit_polyclonal</text>
</g>
<!-- 14&#45;&gt;10 -->
<g id="edge21" class="edge">
<title>14&#45;&gt;10</title>
<path fill="none" stroke="grey" stroke-width="2" d="M928.74,-431.7C917.91,-422.88 904.58,-412.03 892.84,-402.47"/>
<polygon fill="grey" stroke="grey" stroke-width="2" points="894.98,-399.7 885.01,-396.1 890.56,-405.13 894.98,-399.7"/>
</g>
<!-- 14&#45;&gt;16 -->
<g id="edge45" class="edge">
<title>14&#45;&gt;16</title>
<path fill="none" stroke="grey" stroke-width="2" d="M988.52,-445.71C1022.92,-440.69 1072.2,-428.02 1101,-396 1176.62,-311.93 1194.5,-240.77 1136,-144 1124.06,-124.25 1102.06,-111.5 1081.63,-103.47"/>
<polygon fill="grey" stroke="grey" stroke-width="2" points="1082.69,-100.12 1072.09,-100 1080.29,-106.7 1082.69,-100.12"/>
</g>
<!-- 14&#45;&gt;20 -->
<g id="edge57" class="edge">
<title>14&#45;&gt;20</title>
<path fill="none" stroke="grey" stroke-width="2" d="M911.19,-446.8C824.47,-441.41 617.67,-425.74 555,-396 524,-381.29 496.35,-352.72 478.98,-331.9"/>
<polygon fill="grey" stroke="grey" stroke-width="2" points="481.65,-329.63 472.63,-324.08 476.22,-334.04 481.65,-329.63"/>
</g>
<!-- 14&#45;&gt;22 -->
<g id="edge74" class="edge">
<title>14&#45;&gt;22</title>
<path fill="none" stroke="grey" stroke-width="2" d="M948.74,-431.83C946.84,-413.33 942.18,-383.37 931,-360 896.24,-287.35 827.07,-220.8 787.86,-186.77"/>
<polygon fill="grey" stroke="grey" stroke-width="2" points="789.85,-183.86 779.98,-180.01 785.29,-189.18 789.85,-183.86"/>
</g>
<!-- 15&#45;&gt;14 -->
<g id="edge28" class="edge">
<title>15&#45;&gt;14</title>
<path fill="none" stroke="grey" stroke-width="2" d="M1062.6,-575.92C1050.53,-565.92 1035.42,-552.78 1023,-540 1003.37,-519.8 983.23,-494.87 969.09,-476.54"/>
<polygon fill="grey" stroke="grey" stroke-width="2" points="971.51,-473.94 962.66,-468.12 965.94,-478.19 971.51,-473.94"/>
</g>
<!-- 18 -->
<g id="node19" class="node">
<title>18</title>
<path fill="none" stroke="#56d8a2" stroke-width="2" d="M1080,-396C1080,-396 990,-396 990,-396 984,-396 978,-390 978,-384 978,-384 978,-372 978,-372 978,-366 984,-360 990,-360 990,-360 1080,-360 1080,-360 1086,-360 1092,-366 1092,-372 1092,-372 1092,-384 1092,-384 1092,-390 1086,-396 1080,-396"/>
<text text-anchor="middle" x="1035" y="-375.5" font-family="sans" font-size="10.00">analyze_prob_escape</text>
</g>
<!-- 15&#45;&gt;18 -->
<g id="edge50" class="edge">
<title>15&#45;&gt;18</title>
<path fill="none" stroke="grey" stroke-width="2" d="M1080.07,-575.85C1071.58,-538.75 1051.44,-450.81 1041.21,-406.1"/>
<polygon fill="grey" stroke="grey" stroke-width="2" points="1044.59,-405.2 1038.95,-396.23 1037.77,-406.76 1044.59,-405.2"/>
</g>
<!-- 16&#45;&gt;0 -->
<g id="edge4" class="edge">
<title>16&#45;&gt;0</title>
<path fill="none" stroke="grey" stroke-width="2" d="M1072.06,-80.21C1128.73,-66.76 1236.29,-41.24 1292.95,-27.79"/>
<polygon fill="grey" stroke="grey" stroke-width="2" points="1293.99,-31.14 1302.92,-25.43 1292.38,-24.33 1293.99,-31.14"/>
</g>
<!-- 17&#45;&gt;16 -->
<g id="edge38" class="edge">
<title>17&#45;&gt;16</title>
<path fill="none" stroke="grey" stroke-width="2" d="M619.88,-359.99C623.24,-314.91 639.36,-192.5 716,-144 760.38,-115.91 910.28,-100.57 987.76,-94.35"/>
<polygon fill="grey" stroke="grey" stroke-width="2" points="988.05,-97.84 997.74,-93.56 987.5,-90.86 988.05,-97.84"/>
</g>
<!-- 17&#45;&gt;20 -->
<g id="edge54" class="edge">
<title>17&#45;&gt;20</title>
<path fill="none" stroke="grey" stroke-width="2" d="M580.1,-359.88C557.88,-350.09 529.88,-337.76 506.5,-327.47"/>
<polygon fill="grey" stroke="grey" stroke-width="2" points="507.69,-324.17 497.13,-323.35 504.87,-330.58 507.69,-324.17"/>
</g>
<!-- 17&#45;&gt;22 -->
<g id="edge67" class="edge">
<title>17&#45;&gt;22</title>
<path fill="none" stroke="grey" stroke-width="2" d="M625.05,-359.87C638.13,-323.45 669.32,-239.71 688,-216 697.04,-204.53 709.14,-194.27 720.79,-185.91"/>
<polygon fill="grey" stroke="grey" stroke-width="2" points="722.88,-188.72 729.14,-180.17 718.92,-182.95 722.88,-188.72"/>
</g>
<!-- 18&#45;&gt;16 -->
<g id="edge44" class="edge">
<title>18&#45;&gt;16</title>
<path fill="none" stroke="grey" stroke-width="2" d="M1051.02,-359.63C1070.78,-336.9 1103.32,-294.9 1116,-252 1129.61,-205.97 1138.83,-186.22 1116,-144 1108.26,-129.69 1094.8,-118.63 1081.04,-110.4"/>
<polygon fill="grey" stroke="grey" stroke-width="2" points="1082.46,-107.18 1072.01,-105.39 1079.06,-113.3 1082.46,-107.18"/>
</g>
<!-- 18&#45;&gt;20 -->
<g id="edge60" class="edge">
<title>18&#45;&gt;20</title>
<path fill="none" stroke="grey" stroke-width="2" d="M977.86,-367.13C962.65,-364.65 946.22,-362.1 931,-360 776.26,-338.66 592.02,-319.83 507.12,-311.51"/>
<polygon fill="grey" stroke="grey" stroke-width="2" points="507.31,-308.02 497.02,-310.53 506.64,-314.98 507.31,-308.02"/>
</g>
<!-- 18&#45;&gt;22 -->
<g id="edge73" class="edge">
<title>18&#45;&gt;22</title>
<path fill="none" stroke="grey" stroke-width="2" d="M1023.34,-359.87C1010.13,-341.12 987.4,-310.71 964,-288 963.85,-287.85 868.18,-216.11 868,-216 847.07,-203.22 822.6,-191.1 802.16,-181.67"/>
<polygon fill="grey" stroke="grey" stroke-width="2" points="803.34,-178.36 792.78,-177.41 800.44,-184.73 803.34,-178.36"/>
</g>
<!-- 19 -->
<g id="node20" class="node">
<title>19</title>
<path fill="none" stroke="#d8b456" stroke-width="2" d="M489,-252C489,-252 455,-252 455,-252 449,-252 443,-246 443,-240 443,-240 443,-228 443,-228 443,-222 449,-216 455,-216 455,-216 489,-216 489,-216 495,-216 501,-222 501,-228 501,-228 501,-240 501,-240 501,-246 495,-252 489,-252"/>
<text text-anchor="middle" x="472" y="-231.5" font-family="sans" font-size="10.00">subindex</text>
</g>
<!-- 19&#45;&gt;16 -->
<g id="edge47" class="edge">
<title>19&#45;&gt;16</title>
<path fill="none" stroke="grey" stroke-width="2" d="M482.1,-215.81C495.42,-194.88 520.98,-160.31 553,-144 628.23,-105.69 881.45,-94.88 987.58,-91.99"/>
<polygon fill="grey" stroke="grey" stroke-width="2" points="987.77,-95.49 997.68,-91.73 987.59,-88.49 987.77,-95.49"/>
</g>
<!-- 19&#45;&gt;22 -->
<g id="edge76" class="edge">
<title>19&#45;&gt;22</title>
<path fill="none" stroke="grey" stroke-width="2" d="M501.38,-220.65C505.9,-218.97 510.55,-217.35 515,-216 583.92,-195.04 666.18,-178.96 715.42,-170.26"/>
<polygon fill="grey" stroke="grey" stroke-width="2" points="716.16,-173.68 725.41,-168.51 714.96,-166.78 716.16,-173.68"/>
</g>
<!-- 20&#45;&gt;16 -->
<g id="edge35" class="edge">
<title>20&#45;&gt;16</title>
<path fill="none" stroke="grey" stroke-width="2" d="M448.19,-287.88C437.18,-269.67 423.88,-240.21 434,-216 451.58,-173.96 465.76,-163.38 507,-144 591.7,-104.2 874.49,-94.19 987.62,-91.76"/>
<polygon fill="grey" stroke="grey" stroke-width="2" points="987.79,-95.25 997.71,-91.55 987.64,-88.25 987.79,-95.25"/>
</g>
<!-- 20&#45;&gt;19 -->
<g id="edge51" class="edge">
<title>20&#45;&gt;19</title>
<path fill="none" stroke="grey" stroke-width="2" d="M462.97,-287.7C464.29,-279.98 465.88,-270.71 467.35,-262.11"/>
<polygon fill="grey" stroke="grey" stroke-width="2" points="470.83,-262.55 469.07,-252.1 463.93,-261.37 470.83,-262.55"/>
</g>
<!-- 20&#45;&gt;22 -->
<g id="edge64" class="edge">
<title>20&#45;&gt;22</title>
<path fill="none" stroke="grey" stroke-width="2" d="M496.07,-287.87C551.35,-261.61 656.85,-211.51 716.02,-183.41"/>
<polygon fill="grey" stroke="grey" stroke-width="2" points="717.58,-186.55 725.11,-179.1 714.57,-180.22 717.58,-186.55"/>
</g>
<!-- 21 -->
<g id="node22" class="node">
<title>21</title>
<path fill="none" stroke="#d88556" stroke-width="2" d="M1062,-252C1062,-252 1008,-252 1008,-252 1002,-252 996,-246 996,-240 996,-240 996,-228 996,-228 996,-222 1002,-216 1008,-216 1008,-216 1062,-216 1062,-216 1068,-216 1074,-222 1074,-228 1074,-228 1074,-240 1074,-240 1074,-246 1068,-252 1062,-252"/>
<text text-anchor="middle" x="1035" y="-231.5" font-family="sans" font-size="10.00">make_graphs</text>
</g>
<!-- 21&#45;&gt;16 -->
<g id="edge36" class="edge">
<title>21&#45;&gt;16</title>
<path fill="none" stroke="grey" stroke-width="2" d="M1035,-215.87C1035,-191.67 1035,-147.21 1035,-118.39"/>
<polygon fill="grey" stroke="grey" stroke-width="2" points="1038.5,-118.19 1035,-108.19 1031.5,-118.19 1038.5,-118.19"/>
</g>
<!-- 21&#45;&gt;22 -->
<g id="edge65" class="edge">
<title>21&#45;&gt;22</title>
<path fill="none" stroke="grey" stroke-width="2" d="M995.74,-220.04C991.12,-218.62 986.47,-217.25 982,-216 920.3,-198.8 848.03,-182.28 802.87,-172.38"/>
<polygon fill="grey" stroke="grey" stroke-width="2" points="803.35,-168.9 792.83,-170.19 801.86,-175.74 803.35,-168.9"/>
</g>
<!-- 22&#45;&gt;16 -->
<g id="edge48" class="edge">
<title>22&#45;&gt;16</title>
<path fill="none" stroke="grey" stroke-width="2" d="M792.57,-152.49C841.39,-140.1 932.21,-117.07 987.77,-102.98"/>
<polygon fill="grey" stroke="grey" stroke-width="2" points="988.88,-106.31 997.71,-100.46 987.16,-99.52 988.88,-106.31"/>
</g>
</g>
</svg>
