<?xml version="1.0" encoding="UTF-8" standalone="no"?>
<!DOCTYPE svg PUBLIC "-//W3C//DTD SVG 1.1//EN"
 "http://www.w3.org/Graphics/SVG/1.1/DTD/svg11.dtd">
<!-- Generated by graphviz version 3.0.0 (20220315.2325)
 -->
<!-- Title: snakemake_dag Pages: 1 -->
<svg width="1096pt" height="1052pt"
 viewBox="0.00 0.00 1096.00 1052.00" xmlns="http://www.w3.org/2000/svg" xmlns:xlink="http://www.w3.org/1999/xlink">
<g id="graph0" class="graph" transform="scale(1 1) rotate(0) translate(4 1048)">
<title>snakemake_dag</title>
<polygon fill="white" stroke="transparent" points="-4,4 -4,-1048 1092,-1048 1092,4 -4,4"/>
<!-- 0 -->
<g id="node1" class="node">
<title>0</title>
<path fill="none" stroke="#56d8c9" stroke-width="2" d="M72,-36C72,-36 42,-36 42,-36 36,-36 30,-30 30,-24 30,-24 30,-12 30,-12 30,-6 36,0 42,0 42,0 72,0 72,0 78,0 84,-6 84,-12 84,-12 84,-24 84,-24 84,-30 78,-36 72,-36"/>
<text text-anchor="middle" x="57" y="-15.5" font-family="sans" font-size="10.00">all</text>
</g>
<!-- 1 -->
<g id="node2" class="node">
<title>1</title>
<path fill="none" stroke="#8fd856" stroke-width="2" d="M384,-684C384,-684 324,-684 324,-684 318,-684 312,-678 312,-672 312,-672 312,-660 312,-660 312,-654 318,-648 324,-648 324,-648 384,-648 384,-648 390,-648 396,-654 396,-660 396,-660 396,-672 396,-672 396,-678 390,-684 384,-684"/>
<text text-anchor="middle" x="354" y="-663.5" font-family="sans" font-size="10.00">variant_counts</text>
</g>
<!-- 1&#45;&gt;0 -->
<g id="edge4" class="edge">
<title>1&#45;&gt;0</title>
<path fill="none" stroke="grey" stroke-width="2" d="M311.65,-657.3C217.69,-639.01 0,-589.47 0,-523 0,-523 0,-523 0,-161 0,-117.8 23,-72.19 39.78,-44.66"/>
<polygon fill="grey" stroke="grey" stroke-width="2" points="42.83,-46.37 45.19,-36.04 36.91,-42.65 42.83,-46.37"/>
</g>
<!-- 8 -->
<g id="node9" class="node">
<title>8</title>
<path fill="none" stroke="#56d873" stroke-width="2" d="M253.5,-468C253.5,-468 202.5,-468 202.5,-468 196.5,-468 190.5,-462 190.5,-456 190.5,-456 190.5,-444 190.5,-444 190.5,-438 196.5,-432 202.5,-432 202.5,-432 253.5,-432 253.5,-432 259.5,-432 265.5,-438 265.5,-444 265.5,-444 265.5,-456 265.5,-456 265.5,-462 259.5,-468 253.5,-468"/>
<text text-anchor="middle" x="228" y="-447.5" font-family="sans" font-size="10.00">prob_escape</text>
</g>
<!-- 1&#45;&gt;8 -->
<g id="edge17" class="edge">
<title>1&#45;&gt;8</title>
<path fill="none" stroke="grey" stroke-width="2" d="M327.56,-647.92C314.8,-638.58 300.11,-626.06 290,-612 274.04,-589.8 249.3,-517.35 236.43,-477.64"/>
<polygon fill="grey" stroke="grey" stroke-width="2" points="239.75,-476.51 233.35,-468.07 233.08,-478.66 239.75,-476.51"/>
</g>
<!-- 10 -->
<g id="node11" class="node">
<title>10</title>
<path fill="none" stroke="#56c9d8" stroke-width="2" d="M647.5,-612C647.5,-612 548.5,-612 548.5,-612 542.5,-612 536.5,-606 536.5,-600 536.5,-600 536.5,-588 536.5,-588 536.5,-582 542.5,-576 548.5,-576 548.5,-576 647.5,-576 647.5,-576 653.5,-576 659.5,-582 659.5,-588 659.5,-588 659.5,-600 659.5,-600 659.5,-606 653.5,-612 647.5,-612"/>
<text text-anchor="middle" x="598" y="-591.5" font-family="sans" font-size="10.00">analyze_variant_counts</text>
</g>
<!-- 1&#45;&gt;10 -->
<g id="edge22" class="edge">
<title>1&#45;&gt;10</title>
<path fill="none" stroke="grey" stroke-width="2" d="M396.22,-652.89C432.67,-642.43 486.02,-627.12 528.72,-614.88"/>
<polygon fill="grey" stroke="grey" stroke-width="2" points="529.84,-618.2 538.49,-612.07 527.91,-611.47 529.84,-618.2"/>
</g>
<!-- 12 -->
<g id="node13" class="node">
<title>12</title>
<path fill="none" stroke="#56d892" stroke-width="2" d="M635,-108C635,-108 585,-108 585,-108 579,-108 573,-102 573,-96 573,-96 573,-84 573,-84 573,-78 579,-72 585,-72 585,-72 635,-72 635,-72 641,-72 647,-78 647,-84 647,-84 647,-96 647,-96 647,-102 641,-108 635,-108"/>
<text text-anchor="middle" x="610" y="-87.5" font-family="sans" font-size="10.00">sphinx_build</text>
</g>
<!-- 1&#45;&gt;12 -->
<g id="edge30" class="edge">
<title>1&#45;&gt;12</title>
<path fill="none" stroke="grey" stroke-width="2" d="M348.52,-647.69C332.76,-597.72 286.26,-448.84 252,-324 239.12,-277.07 221.55,-263.04 234,-216 243.43,-180.4 244.71,-164.95 275,-144 320.71,-112.39 481.17,-98.58 562.29,-93.51"/>
<polygon fill="grey" stroke="grey" stroke-width="2" points="562.94,-96.97 572.71,-92.87 562.52,-89.98 562.94,-96.97"/>
</g>
<!-- 17 -->
<g id="node18" class="node">
<title>17</title>
<path fill="none" stroke="#d8ac56" stroke-width="2" d="M573.5,-180C573.5,-180 530.5,-180 530.5,-180 524.5,-180 518.5,-174 518.5,-168 518.5,-168 518.5,-156 518.5,-156 518.5,-150 524.5,-144 530.5,-144 530.5,-144 573.5,-144 573.5,-144 579.5,-144 585.5,-150 585.5,-156 585.5,-156 585.5,-168 585.5,-168 585.5,-174 579.5,-180 573.5,-180"/>
<text text-anchor="middle" x="552" y="-159.5" font-family="sans" font-size="10.00">docs_index</text>
</g>
<!-- 1&#45;&gt;17 -->
<g id="edge50" class="edge">
<title>1&#45;&gt;17</title>
<path fill="none" stroke="grey" stroke-width="2" d="M356.65,-647.57C361.6,-617.48 373.63,-554.17 394,-504 414.91,-452.51 436.32,-447.58 457,-396 487.61,-319.66 460.19,-287.98 500,-216 505.89,-205.36 514.5,-195.36 523.03,-186.98"/>
<polygon fill="grey" stroke="grey" stroke-width="2" points="525.52,-189.44 530.43,-180.05 520.74,-184.33 525.52,-189.44"/>
</g>
<!-- 2 -->
<g id="node3" class="node">
<title>2</title>
<path fill="none" stroke="#56d8a9" stroke-width="2" d="M478.5,-756C478.5,-756 413.5,-756 413.5,-756 407.5,-756 401.5,-750 401.5,-744 401.5,-744 401.5,-732 401.5,-732 401.5,-726 407.5,-720 413.5,-720 413.5,-720 478.5,-720 478.5,-720 484.5,-720 490.5,-726 490.5,-732 490.5,-732 490.5,-744 490.5,-744 490.5,-750 484.5,-756 478.5,-756"/>
<text text-anchor="middle" x="446" y="-735.5" font-family="sans" font-size="10.00">count_barcodes</text>
</g>
<!-- 2&#45;&gt;1 -->
<g id="edge6" class="edge">
<title>2&#45;&gt;1</title>
<path fill="none" stroke="grey" stroke-width="2" d="M423.26,-719.7C411.56,-710.8 397.14,-699.82 384.49,-690.2"/>
<polygon fill="grey" stroke="grey" stroke-width="2" points="386.56,-687.37 376.48,-684.1 382.32,-692.94 386.56,-687.37"/>
</g>
<!-- 2&#45;&gt;10 -->
<g id="edge21" class="edge">
<title>2&#45;&gt;10</title>
<path fill="none" stroke="grey" stroke-width="2" d="M464.33,-719.87C491.27,-694.71 541.64,-647.65 572.27,-619.04"/>
<polygon fill="grey" stroke="grey" stroke-width="2" points="574.68,-621.57 579.6,-612.19 569.9,-616.46 574.68,-621.57"/>
</g>
<!-- 3 -->
<g id="node4" class="node">
<title>3</title>
<path fill="none" stroke="#5692d8" stroke-width="2" d="M630.5,-828C630.5,-828 541.5,-828 541.5,-828 535.5,-828 529.5,-822 529.5,-816 529.5,-816 529.5,-804 529.5,-804 529.5,-798 535.5,-792 541.5,-792 541.5,-792 630.5,-792 630.5,-792 636.5,-792 642.5,-798 642.5,-804 642.5,-804 642.5,-816 642.5,-816 642.5,-822 636.5,-828 630.5,-828"/>
<text text-anchor="middle" x="586" y="-807.5" font-family="sans" font-size="10.00">build_codon_variants</text>
</g>
<!-- 3&#45;&gt;1 -->
<g id="edge7" class="edge">
<title>3&#45;&gt;1</title>
<path fill="none" stroke="grey" stroke-width="2" d="M529.23,-806.23C487.19,-801.4 430.85,-788.73 393,-756 374.53,-740.03 364.47,-713.66 359.23,-693.76"/>
<polygon fill="grey" stroke="grey" stroke-width="2" points="362.63,-692.95 356.9,-684.03 355.82,-694.57 362.63,-692.95"/>
</g>
<!-- 3&#45;&gt;2 -->
<g id="edge8" class="edge">
<title>3&#45;&gt;2</title>
<path fill="none" stroke="grey" stroke-width="2" d="M551.75,-791.88C532.94,-782.47 509.42,-770.71 489.33,-760.67"/>
<polygon fill="grey" stroke="grey" stroke-width="2" points="490.89,-757.53 480.38,-756.19 487.76,-763.79 490.89,-757.53"/>
</g>
<!-- 3&#45;&gt;8 -->
<g id="edge15" class="edge">
<title>3&#45;&gt;8</title>
<path fill="none" stroke="grey" stroke-width="2" d="M529.27,-798.69C428.33,-778.72 228,-731.02 228,-667 228,-667 228,-667 228,-593 228,-553 228,-506.65 228,-478.08"/>
<polygon fill="grey" stroke="grey" stroke-width="2" points="231.5,-478.05 228,-468.05 224.5,-478.05 231.5,-478.05"/>
</g>
<!-- 3&#45;&gt;10 -->
<g id="edge19" class="edge">
<title>3&#45;&gt;10</title>
<path fill="none" stroke="grey" stroke-width="2" d="M586.96,-791.85C589.04,-754.83 593.95,-667.18 596.46,-622.39"/>
<polygon fill="grey" stroke="grey" stroke-width="2" points="599.97,-622.41 597.03,-612.23 592.98,-622.02 599.97,-622.41"/>
</g>
<!-- 3&#45;&gt;12 -->
<g id="edge35" class="edge">
<title>3&#45;&gt;12</title>
<path fill="none" stroke="grey" stroke-width="2" d="M642.75,-799.79C711.44,-785.03 818,-748.93 818,-667 818,-667 818,-667 818,-521 818,-424.4 856,-403.6 856,-307 856,-307 856,-307 856,-233 856,-142.17 728.65,-108.53 657.21,-96.81"/>
<polygon fill="grey" stroke="grey" stroke-width="2" points="657.51,-93.32 647.1,-95.24 656.44,-100.23 657.51,-93.32"/>
</g>
<!-- 15 -->
<g id="node16" class="node">
<title>15</title>
<path fill="none" stroke="#5673d8" stroke-width="2" d="M729,-324C729,-324 679,-324 679,-324 673,-324 667,-318 667,-312 667,-312 667,-300 667,-300 667,-294 673,-288 679,-288 679,-288 729,-288 729,-288 735,-288 741,-294 741,-300 741,-300 741,-312 741,-312 741,-318 735,-324 729,-324"/>
<text text-anchor="middle" x="704" y="-303.5" font-family="sans" font-size="10.00">make_nblink</text>
</g>
<!-- 3&#45;&gt;15 -->
<g id="edge44" class="edge">
<title>3&#45;&gt;15</title>
<path fill="none" stroke="grey" stroke-width="2" d="M603.41,-791.91C636.23,-757.76 704,-677.31 704,-595 704,-595 704,-595 704,-449 704,-409 704,-362.65 704,-334.08"/>
<polygon fill="grey" stroke="grey" stroke-width="2" points="707.5,-334.05 704,-324.05 700.5,-334.05 707.5,-334.05"/>
</g>
<!-- 3&#45;&gt;17 -->
<g id="edge55" class="edge">
<title>3&#45;&gt;17</title>
<path fill="none" stroke="grey" stroke-width="2" d="M571.37,-791.95C537.78,-751.55 455.83,-645.44 427,-540 405.55,-461.55 514,-460.33 514,-379 514,-379 514,-379 514,-305 514,-263.63 529.23,-217.72 540.41,-189.61"/>
<polygon fill="grey" stroke="grey" stroke-width="2" points="543.76,-190.67 544.31,-180.09 537.28,-188.02 543.76,-190.67"/>
</g>
<!-- 4 -->
<g id="node5" class="node">
<title>4</title>
<path fill="none" stroke="#d87556" stroke-width="2" d="M919,-900C919,-900 817,-900 817,-900 811,-900 805,-894 805,-888 805,-888 805,-876 805,-876 805,-870 811,-864 817,-864 817,-864 919,-864 919,-864 925,-864 931,-870 931,-876 931,-876 931,-888 931,-888 931,-894 925,-900 919,-900"/>
<text text-anchor="middle" x="868" y="-879.5" font-family="sans" font-size="10.00">build_pacbio_consensus</text>
</g>
<!-- 4&#45;&gt;3 -->
<g id="edge9" class="edge">
<title>4&#45;&gt;3</title>
<path fill="none" stroke="grey" stroke-width="2" d="M804.71,-865.29C759.48,-854.06 698.72,-838.98 652.73,-827.56"/>
<polygon fill="grey" stroke="grey" stroke-width="2" points="653.4,-824.12 642.85,-825.11 651.72,-830.92 653.4,-824.12"/>
</g>
<!-- 4&#45;&gt;12 -->
<g id="edge25" class="edge">
<title>4&#45;&gt;12</title>
<path fill="none" stroke="grey" stroke-width="2" d="M881.57,-863.76C900.36,-838.1 932,-787.67 932,-739 932,-739 932,-739 932,-233 932,-114.43 746.96,-94.03 657.42,-91.09"/>
<polygon fill="grey" stroke="grey" stroke-width="2" points="657.34,-87.59 647.25,-90.82 657.16,-94.59 657.34,-87.59"/>
</g>
<!-- 4&#45;&gt;15 -->
<g id="edge39" class="edge">
<title>4&#45;&gt;15</title>
<path fill="none" stroke="grey" stroke-width="2" d="M873.26,-863.7C880.86,-837.14 894,-784.61 894,-739 894,-739 894,-739 894,-521 894,-480.03 892.94,-465.94 870,-432 838.95,-386.07 785.36,-350.24 747.48,-328.93"/>
<polygon fill="grey" stroke="grey" stroke-width="2" points="749.14,-325.85 738.69,-324.09 745.76,-331.98 749.14,-325.85"/>
</g>
<!-- 4&#45;&gt;17 -->
<g id="edge46" class="edge">
<title>4&#45;&gt;17</title>
<path fill="none" stroke="grey" stroke-width="2" d="M865.63,-863.99C862.13,-837.38 856,-784.28 856,-739 856,-739 856,-739 856,-521 856,-396.86 730.71,-424.61 658,-324 626.57,-280.5 635.17,-259.68 604,-216 596.76,-205.86 587.57,-195.81 578.94,-187.24"/>
<polygon fill="grey" stroke="grey" stroke-width="2" points="581.19,-184.55 571.56,-180.13 576.33,-189.59 581.19,-184.55"/>
</g>
<!-- 5 -->
<g id="node6" class="node">
<title>5</title>
<path fill="none" stroke="#56a9d8" stroke-width="2" d="M1067,-972C1067,-972 987,-972 987,-972 981,-972 975,-966 975,-960 975,-960 975,-948 975,-948 975,-942 981,-936 987,-936 987,-936 1067,-936 1067,-936 1073,-936 1079,-942 1079,-948 1079,-948 1079,-960 1079,-960 1079,-966 1073,-972 1067,-972"/>
<text text-anchor="middle" x="1027" y="-951.5" font-family="sans" font-size="10.00">analyze_pacbio_ccs</text>
</g>
<!-- 5&#45;&gt;4 -->
<g id="edge11" class="edge">
<title>5&#45;&gt;4</title>
<path fill="none" stroke="grey" stroke-width="2" d="M988.1,-935.88C966.37,-926.31 939.1,-914.3 916.04,-904.15"/>
<polygon fill="grey" stroke="grey" stroke-width="2" points="917.33,-900.89 906.77,-900.07 914.51,-907.3 917.33,-900.89"/>
</g>
<!-- 5&#45;&gt;12 -->
<g id="edge34" class="edge">
<title>5&#45;&gt;12</title>
<path fill="none" stroke="grey" stroke-width="2" d="M1038.81,-935.96C1055.51,-910.16 1084,-859.08 1084,-811 1084,-811 1084,-811 1084,-233 1084,-166.24 1024.7,-169.48 963,-144 859.75,-101.37 726.9,-92.49 657.31,-90.98"/>
<polygon fill="grey" stroke="grey" stroke-width="2" points="657.17,-87.47 647.11,-90.8 657.05,-94.47 657.17,-87.47"/>
</g>
<!-- 5&#45;&gt;15 -->
<g id="edge43" class="edge">
<title>5&#45;&gt;15</title>
<path fill="none" stroke="grey" stroke-width="2" d="M1030.84,-935.61C1036.4,-908.94 1046,-856.27 1046,-811 1046,-811 1046,-811 1046,-665 1046,-499.41 965.78,-457.59 832,-360 807.64,-342.23 776.45,-329.16 750.95,-320.44"/>
<polygon fill="grey" stroke="grey" stroke-width="2" points="751.72,-317.01 741.13,-317.2 749.53,-323.65 751.72,-317.01"/>
</g>
<!-- 5&#45;&gt;17 -->
<g id="edge54" class="edge">
<title>5&#45;&gt;17</title>
<path fill="none" stroke="grey" stroke-width="2" d="M1023.16,-935.61C1017.6,-908.94 1008,-856.27 1008,-811 1008,-811 1008,-811 1008,-665 1008,-437.24 950.81,-341.88 761,-216 710.5,-182.51 640.29,-170.18 595.49,-165.64"/>
<polygon fill="grey" stroke="grey" stroke-width="2" points="595.79,-162.15 585.51,-164.72 595.14,-169.12 595.79,-162.15"/>
</g>
<!-- 6 -->
<g id="node7" class="node">
<title>6</title>
<path fill="none" stroke="#d88d56" stroke-width="2" d="M1076,-1044C1076,-1044 978,-1044 978,-1044 972,-1044 966,-1038 966,-1032 966,-1032 966,-1020 966,-1020 966,-1014 972,-1008 978,-1008 978,-1008 1076,-1008 1076,-1008 1082,-1008 1088,-1014 1088,-1020 1088,-1020 1088,-1032 1088,-1032 1088,-1038 1082,-1044 1076,-1044"/>
<text text-anchor="middle" x="1027" y="-1023.5" font-family="sans" font-size="10.00">align_parse_PacBio_ccs</text>
</g>
<!-- 6&#45;&gt;5 -->
<g id="edge13" class="edge">
<title>6&#45;&gt;5</title>
<path fill="none" stroke="grey" stroke-width="2" d="M1027,-1007.7C1027,-999.98 1027,-990.71 1027,-982.11"/>
<polygon fill="grey" stroke="grey" stroke-width="2" points="1030.5,-982.1 1027,-972.1 1023.5,-982.1 1030.5,-982.1"/>
</g>
<!-- 7 -->
<g id="node8" class="node">
<title>7</title>
<path fill="none" stroke="#d85656" stroke-width="2" d="M704,-972C704,-972 638,-972 638,-972 632,-972 626,-966 626,-960 626,-960 626,-948 626,-948 626,-942 632,-936 638,-936 638,-936 704,-936 704,-936 710,-936 716,-942 716,-948 716,-948 716,-960 716,-960 716,-966 710,-972 704,-972"/>
<text text-anchor="middle" x="671" y="-951.5" font-family="sans" font-size="10.00">gene_sequence</text>
</g>
<!-- 7&#45;&gt;1 -->
<g id="edge5" class="edge">
<title>7&#45;&gt;1</title>
<path fill="none" stroke="grey" stroke-width="2" d="M625.83,-938.07C556.8,-912.67 426.59,-854.04 365,-756 353.51,-737.71 351.24,-713.09 351.58,-694.39"/>
<polygon fill="grey" stroke="grey" stroke-width="2" points="355.08,-694.29 352.03,-684.15 348.09,-693.99 355.08,-694.29"/>
</g>
<!-- 7&#45;&gt;3 -->
<g id="edge10" class="edge">
<title>7&#45;&gt;3</title>
<path fill="none" stroke="grey" stroke-width="2" d="M660.75,-935.87C646.01,-911.24 618.71,-865.64 601.49,-836.88"/>
<polygon fill="grey" stroke="grey" stroke-width="2" points="604.43,-834.97 596.29,-828.19 598.42,-838.57 604.43,-834.97"/>
</g>
<!-- 7&#45;&gt;4 -->
<g id="edge12" class="edge">
<title>7&#45;&gt;4</title>
<path fill="none" stroke="grey" stroke-width="2" d="M716.2,-936.94C744.18,-927 780.38,-914.14 810.4,-903.47"/>
<polygon fill="grey" stroke="grey" stroke-width="2" points="811.67,-906.73 819.92,-900.08 809.32,-900.13 811.67,-906.73"/>
</g>
<!-- 7&#45;&gt;8 -->
<g id="edge14" class="edge">
<title>7&#45;&gt;8</title>
<path fill="none" stroke="grey" stroke-width="2" d="M625.75,-949.37C506.01,-938.52 190,-901.34 190,-811 190,-811 190,-811 190,-593 190,-551.63 205.23,-505.72 216.41,-477.61"/>
<polygon fill="grey" stroke="grey" stroke-width="2" points="219.76,-478.67 220.31,-468.09 213.28,-476.02 219.76,-478.67"/>
</g>
<!-- 7&#45;&gt;10 -->
<g id="edge20" class="edge">
<title>7&#45;&gt;10</title>
<path fill="none" stroke="grey" stroke-width="2" d="M669.83,-935.95C667.62,-906.42 662.12,-843.94 652,-792 639.97,-730.28 618.7,-659.54 606.76,-621.89"/>
<polygon fill="grey" stroke="grey" stroke-width="2" points="610.03,-620.64 603.65,-612.19 603.36,-622.78 610.03,-620.64"/>
</g>
<!-- 7&#45;&gt;12 -->
<g id="edge24" class="edge">
<title>7&#45;&gt;12</title>
<path fill="none" stroke="grey" stroke-width="2" d="M716.16,-949.54C783.87,-943.46 907.26,-928.72 940,-900 971.38,-872.47 970,-852.74 970,-811 970,-811 970,-811 970,-593 970,-496.4 1008,-475.6 1008,-379 1008,-379 1008,-379 1008,-233 1008,-175.47 965.42,-169.82 914,-144 830.5,-102.07 719.67,-92.67 657.51,-90.94"/>
<polygon fill="grey" stroke="grey" stroke-width="2" points="657.3,-87.44 647.22,-90.71 657.14,-94.44 657.3,-87.44"/>
</g>
<!-- 7&#45;&gt;17 -->
<g id="edge45" class="edge">
<title>7&#45;&gt;17</title>
<path fill="none" stroke="grey" stroke-width="2" d="M678.33,-935.96C696.47,-892.18 742,-771.88 742,-667 742,-667 742,-667 742,-521 742,-420.94 679.72,-412.49 633,-324 608.11,-276.86 580.47,-221.15 564.77,-189.16"/>
<polygon fill="grey" stroke="grey" stroke-width="2" points="567.84,-187.47 560.3,-180.03 561.55,-190.55 567.84,-187.47"/>
</g>
<!-- 8&#45;&gt;0 -->
<g id="edge1" class="edge">
<title>8&#45;&gt;0</title>
<path fill="none" stroke="grey" stroke-width="2" d="M190.46,-439.33C135.09,-422.54 38,-382.36 38,-307 38,-307 38,-307 38,-161 38,-120.86 45.55,-74.9 51.13,-46.4"/>
<polygon fill="grey" stroke="grey" stroke-width="2" points="54.61,-46.88 53.16,-36.39 47.74,-45.5 54.61,-46.88"/>
</g>
<!-- 11 -->
<g id="node12" class="node">
<title>11</title>
<path fill="none" stroke="#d8cb56" stroke-width="2" d="M227.5,-396C227.5,-396 174.5,-396 174.5,-396 168.5,-396 162.5,-390 162.5,-384 162.5,-384 162.5,-372 162.5,-372 162.5,-366 168.5,-360 174.5,-360 174.5,-360 227.5,-360 227.5,-360 233.5,-360 239.5,-366 239.5,-372 239.5,-372 239.5,-384 239.5,-384 239.5,-390 233.5,-396 227.5,-396"/>
<text text-anchor="middle" x="201" y="-375.5" font-family="sans" font-size="10.00">fit_polyclonal</text>
</g>
<!-- 8&#45;&gt;11 -->
<g id="edge23" class="edge">
<title>8&#45;&gt;11</title>
<path fill="none" stroke="grey" stroke-width="2" d="M221.33,-431.7C218.29,-423.81 214.62,-414.3 211.24,-405.55"/>
<polygon fill="grey" stroke="grey" stroke-width="2" points="214.46,-404.17 207.6,-396.1 207.93,-406.69 214.46,-404.17"/>
</g>
<!-- 8&#45;&gt;12 -->
<g id="edge32" class="edge">
<title>8&#45;&gt;12</title>
<path fill="none" stroke="grey" stroke-width="2" d="M196.97,-431.98C182.45,-422.82 165.81,-410.43 154,-396 126.54,-362.44 114,-350.37 114,-307 114,-307 114,-307 114,-233 114,-189.99 117.53,-169.73 152,-144 216.03,-96.2 458.74,-90.72 562.49,-90.63"/>
<polygon fill="grey" stroke="grey" stroke-width="2" points="562.68,-94.13 572.68,-90.63 562.68,-87.13 562.68,-94.13"/>
</g>
<!-- 13 -->
<g id="node14" class="node">
<title>13</title>
<path fill="none" stroke="#70d856" stroke-width="2" d="M436,-396C436,-396 346,-396 346,-396 340,-396 334,-390 334,-384 334,-384 334,-372 334,-372 334,-366 340,-360 346,-360 346,-360 436,-360 436,-360 442,-360 448,-366 448,-372 448,-372 448,-384 448,-384 448,-390 442,-396 436,-396"/>
<text text-anchor="middle" x="391" y="-375.5" font-family="sans" font-size="10.00">analyze_prob_escape</text>
</g>
<!-- 8&#45;&gt;13 -->
<g id="edge37" class="edge">
<title>8&#45;&gt;13</title>
<path fill="none" stroke="grey" stroke-width="2" d="M265.81,-432.76C288.47,-423.03 317.54,-410.55 341.96,-400.06"/>
<polygon fill="grey" stroke="grey" stroke-width="2" points="343.6,-403.16 351.41,-396 340.84,-396.73 343.6,-403.16"/>
</g>
<!-- 8&#45;&gt;17 -->
<g id="edge52" class="edge">
<title>8&#45;&gt;17</title>
<path fill="none" stroke="grey" stroke-width="2" d="M239.27,-431.84C267.53,-389.95 345.51,-281.13 434,-216 456.63,-199.34 485.33,-186.31 508.76,-177.33"/>
<polygon fill="grey" stroke="grey" stroke-width="2" points="510.29,-180.5 518.44,-173.74 507.85,-173.94 510.29,-180.5"/>
</g>
<!-- 9 -->
<g id="node10" class="node">
<title>9</title>
<path fill="none" stroke="#afd856" stroke-width="2" d="M588,-540C588,-540 448,-540 448,-540 442,-540 436,-534 436,-528 436,-528 436,-516 436,-516 436,-510 442,-504 448,-504 448,-504 588,-504 588,-504 594,-504 600,-510 600,-516 600,-516 600,-528 600,-528 600,-534 594,-540 588,-540"/>
<text text-anchor="middle" x="518" y="-519.5" font-family="sans" font-size="10.00">check_adequate_variant_counts</text>
</g>
<!-- 9&#45;&gt;8 -->
<g id="edge16" class="edge">
<title>9&#45;&gt;8</title>
<path fill="none" stroke="grey" stroke-width="2" d="M447.43,-503.97C394.01,-491.07 322.1,-473.71 275.4,-462.44"/>
<polygon fill="grey" stroke="grey" stroke-width="2" points="276.09,-459.01 265.54,-460.06 274.44,-465.81 276.09,-459.01"/>
</g>
<!-- 10&#45;&gt;9 -->
<g id="edge18" class="edge">
<title>10&#45;&gt;9</title>
<path fill="none" stroke="grey" stroke-width="2" d="M578.22,-575.7C568.25,-566.97 555.99,-556.24 545.14,-546.75"/>
<polygon fill="grey" stroke="grey" stroke-width="2" points="547.38,-544.06 537.55,-540.1 542.77,-549.32 547.38,-544.06"/>
</g>
<!-- 10&#45;&gt;12 -->
<g id="edge33" class="edge">
<title>10&#45;&gt;12</title>
<path fill="none" stroke="grey" stroke-width="2" d="M623.13,-575.89C635.51,-566.45 649.92,-553.85 660,-540 741.3,-428.29 752.35,-387.94 777,-252 786.28,-200.83 771.4,-177.94 732,-144 710.39,-125.39 681.24,-112.4 656.86,-103.94"/>
<polygon fill="grey" stroke="grey" stroke-width="2" points="657.67,-100.53 647.08,-100.7 655.47,-107.17 657.67,-100.53"/>
</g>
<!-- 10&#45;&gt;15 -->
<g id="edge42" class="edge">
<title>10&#45;&gt;15</title>
<path fill="none" stroke="grey" stroke-width="2" d="M615.61,-575.77C624.66,-566.02 635.2,-553.18 642,-540 642.61,-538.83 680.79,-394.69 696.93,-333.73"/>
<polygon fill="grey" stroke="grey" stroke-width="2" points="700.32,-334.59 699.49,-324.03 693.55,-332.8 700.32,-334.59"/>
</g>
<!-- 10&#45;&gt;17 -->
<g id="edge53" class="edge">
<title>10&#45;&gt;17</title>
<path fill="none" stroke="grey" stroke-width="2" d="M602.87,-575.9C607.33,-557.96 612.73,-528.94 609,-504 601.59,-454.36 585.95,-445.19 576,-396 561.13,-322.51 555.23,-234.02 553.09,-190.25"/>
<polygon fill="grey" stroke="grey" stroke-width="2" points="556.58,-189.96 552.63,-180.13 549.59,-190.28 556.58,-189.96"/>
</g>
<!-- 11&#45;&gt;0 -->
<g id="edge2" class="edge">
<title>11&#45;&gt;0</title>
<path fill="none" stroke="grey" stroke-width="2" d="M170.1,-359.82C133.09,-336.69 76,-291.82 76,-235 76,-235 76,-235 76,-161 76,-120.86 68.45,-74.9 62.87,-46.4"/>
<polygon fill="grey" stroke="grey" stroke-width="2" points="66.26,-45.5 60.84,-36.39 59.39,-46.88 66.26,-45.5"/>
</g>
<!-- 11&#45;&gt;12 -->
<g id="edge27" class="edge">
<title>11&#45;&gt;12</title>
<path fill="none" stroke="grey" stroke-width="2" d="M191.51,-359.76C169.53,-317.2 120.99,-206.14 176,-144 201.32,-115.4 455.16,-99.01 562.49,-93.31"/>
<polygon fill="grey" stroke="grey" stroke-width="2" points="562.9,-96.79 572.71,-92.77 562.54,-89.8 562.9,-96.79"/>
</g>
<!-- 11&#45;&gt;15 -->
<g id="edge40" class="edge">
<title>11&#45;&gt;15</title>
<path fill="none" stroke="grey" stroke-width="2" d="M239.63,-371.62C330.62,-358.96 558.13,-327.3 656.95,-313.55"/>
<polygon fill="grey" stroke="grey" stroke-width="2" points="657.52,-317 666.95,-312.16 656.56,-310.07 657.52,-317"/>
</g>
<!-- 11&#45;&gt;17 -->
<g id="edge47" class="edge">
<title>11&#45;&gt;17</title>
<path fill="none" stroke="grey" stroke-width="2" d="M220.55,-359.8C267.16,-318.83 381.28,-218.66 386,-216 424.75,-194.19 473.73,-179.95 508.42,-171.78"/>
<polygon fill="grey" stroke="grey" stroke-width="2" points="509.28,-175.18 518.25,-169.54 507.72,-168.35 509.28,-175.18"/>
</g>
<!-- 12&#45;&gt;0 -->
<g id="edge3" class="edge">
<title>12&#45;&gt;0</title>
<path fill="none" stroke="grey" stroke-width="2" d="M572.86,-84.3C472.17,-71.55 194.82,-36.45 94.14,-23.7"/>
<polygon fill="grey" stroke="grey" stroke-width="2" points="94.49,-20.22 84.13,-22.43 93.61,-27.16 94.49,-20.22"/>
</g>
<!-- 13&#45;&gt;12 -->
<g id="edge31" class="edge">
<title>13&#45;&gt;12</title>
<path fill="none" stroke="grey" stroke-width="2" d="M354.72,-359.89C300.66,-331.98 209.17,-273.93 247,-216 315.8,-110.65 480.52,-92.7 562.28,-90.54"/>
<polygon fill="grey" stroke="grey" stroke-width="2" points="562.85,-94.03 572.78,-90.34 562.71,-87.03 562.85,-94.03"/>
</g>
<!-- 13&#45;&gt;15 -->
<g id="edge41" class="edge">
<title>13&#45;&gt;15</title>
<path fill="none" stroke="grey" stroke-width="2" d="M448.05,-364.24C507.97,-350.84 601.11,-330.01 656.97,-317.52"/>
<polygon fill="grey" stroke="grey" stroke-width="2" points="657.96,-320.88 666.95,-315.29 656.43,-314.05 657.96,-320.88"/>
</g>
<!-- 13&#45;&gt;17 -->
<g id="edge51" class="edge">
<title>13&#45;&gt;17</title>
<path fill="none" stroke="grey" stroke-width="2" d="M394.85,-359.81C402.68,-328.12 423.12,-259.71 462,-216 474.79,-201.62 492.45,-190.05 508.75,-181.43"/>
<polygon fill="grey" stroke="grey" stroke-width="2" points="510.78,-184.33 518.13,-176.7 507.63,-178.08 510.78,-184.33"/>
</g>
<!-- 14 -->
<g id="node15" class="node">
<title>14</title>
<path fill="none" stroke="#59d856" stroke-width="2" d="M740,-252C740,-252 706,-252 706,-252 700,-252 694,-246 694,-240 694,-240 694,-228 694,-228 694,-222 700,-216 706,-216 706,-216 740,-216 740,-216 746,-216 752,-222 752,-228 752,-228 752,-240 752,-240 752,-246 746,-252 740,-252"/>
<text text-anchor="middle" x="723" y="-231.5" font-family="sans" font-size="10.00">subindex</text>
</g>
<!-- 14&#45;&gt;12 -->
<g id="edge28" class="edge">
<title>14&#45;&gt;12</title>
<path fill="none" stroke="grey" stroke-width="2" d="M709.37,-215.87C689.6,-191.03 652.85,-144.85 630.01,-116.14"/>
<polygon fill="grey" stroke="grey" stroke-width="2" points="632.64,-113.83 623.68,-108.19 627.17,-118.19 632.64,-113.83"/>
</g>
<!-- 14&#45;&gt;17 -->
<g id="edge48" class="edge">
<title>14&#45;&gt;17</title>
<path fill="none" stroke="grey" stroke-width="2" d="M693.99,-221.13C666.79,-209.99 625.78,-193.2 594.82,-180.53"/>
<polygon fill="grey" stroke="grey" stroke-width="2" points="596.14,-177.29 585.56,-176.74 593.48,-183.76 596.14,-177.29"/>
</g>
<!-- 15&#45;&gt;12 -->
<g id="edge36" class="edge">
<title>15&#45;&gt;12</title>
<path fill="none" stroke="grey" stroke-width="2" d="M730.58,-287.91C742.24,-278.81 754.69,-266.49 761,-252 767.39,-237.33 767.55,-230.6 761,-216 739.92,-169.06 691.07,-133.97 654.61,-113.1"/>
<polygon fill="grey" stroke="grey" stroke-width="2" points="656.07,-109.91 645.63,-108.1 652.67,-116.02 656.07,-109.91"/>
</g>
<!-- 15&#45;&gt;14 -->
<g id="edge38" class="edge">
<title>15&#45;&gt;14</title>
<path fill="none" stroke="grey" stroke-width="2" d="M708.7,-287.7C710.81,-279.9 713.36,-270.51 715.72,-261.83"/>
<polygon fill="grey" stroke="grey" stroke-width="2" points="719.12,-262.67 718.36,-252.1 712.36,-260.84 719.12,-262.67"/>
</g>
<!-- 15&#45;&gt;17 -->
<g id="edge56" class="edge">
<title>15&#45;&gt;17</title>
<path fill="none" stroke="grey" stroke-width="2" d="M695.09,-287.96C684.42,-268.74 665.07,-237.37 642,-216 628.1,-203.12 610.55,-191.93 594.65,-183.19"/>
<polygon fill="grey" stroke="grey" stroke-width="2" points="595.99,-179.94 585.52,-178.33 592.71,-186.12 595.99,-179.94"/>
</g>
<!-- 16 -->
<g id="node17" class="node">
<title>16</title>
<path fill="none" stroke="#c6d856" stroke-width="2" d="M322,-252C322,-252 268,-252 268,-252 262,-252 256,-246 256,-240 256,-240 256,-228 256,-228 256,-222 262,-216 268,-216 268,-216 322,-216 322,-216 328,-216 334,-222 334,-228 334,-228 334,-240 334,-240 334,-246 328,-252 322,-252"/>
<text text-anchor="middle" x="295" y="-231.5" font-family="sans" font-size="10.00">make_graphs</text>
</g>
<!-- 16&#45;&gt;12 -->
<g id="edge29" class="edge">
<title>16&#45;&gt;12</title>
<path fill="none" stroke="grey" stroke-width="2" d="M333,-215.87C390.9,-189.77 501.07,-140.11 563.61,-111.91"/>
<polygon fill="grey" stroke="grey" stroke-width="2" points="565.17,-115.05 572.85,-107.75 562.29,-108.67 565.17,-115.05"/>
</g>
<!-- 16&#45;&gt;17 -->
<g id="edge49" class="edge">
<title>16&#45;&gt;17</title>
<path fill="none" stroke="grey" stroke-width="2" d="M334.29,-220.13C338.9,-218.7 343.55,-217.29 348,-216 403.03,-200.04 467.07,-183.77 508.5,-173.55"/>
<polygon fill="grey" stroke="grey" stroke-width="2" points="509.4,-176.93 518.27,-171.15 507.72,-170.14 509.4,-176.93"/>
</g>
<!-- 17&#45;&gt;12 -->
<g id="edge26" class="edge">
<title>17&#45;&gt;12</title>
<path fill="none" stroke="grey" stroke-width="2" d="M566.34,-143.7C573.29,-135.3 581.77,-125.07 589.4,-115.86"/>
<polygon fill="grey" stroke="grey" stroke-width="2" points="592.14,-118.04 595.83,-108.1 586.75,-113.57 592.14,-118.04"/>
</g>
</g>
</svg>
