<?xml version="1.0" encoding="UTF-8" standalone="no"?>
<!DOCTYPE svg PUBLIC "-//W3C//DTD SVG 1.1//EN"
 "http://www.w3.org/Graphics/SVG/1.1/DTD/svg11.dtd">
<!-- Generated by graphviz version 6.0.1 (20220911.2005)
 -->
<!-- Title: snakemake_dag Pages: 1 -->
<svg width="1618pt" height="1196pt"
 viewBox="0.00 0.00 1618.00 1196.00" xmlns="http://www.w3.org/2000/svg" xmlns:xlink="http://www.w3.org/1999/xlink">
<g id="graph0" class="graph" transform="scale(1 1) rotate(0) translate(4 1192)">
<title>snakemake_dag</title>
<polygon fill="white" stroke="none" points="-4,4 -4,-1192 1614,-1192 1614,4 -4,4"/>
<!-- 0 -->
<g id="node1" class="node">
<title>0</title>
<path fill="none" stroke="#88d856" stroke-width="2" d="M1511,-36C1511,-36 1481,-36 1481,-36 1475,-36 1469,-30 1469,-24 1469,-24 1469,-12 1469,-12 1469,-6 1475,0 1481,0 1481,0 1511,0 1511,0 1517,0 1523,-6 1523,-12 1523,-12 1523,-24 1523,-24 1523,-30 1517,-36 1511,-36"/>
<text text-anchor="middle" x="1496" y="-15.5" font-family="sans" font-size="10.00">all</text>
</g>
<!-- 1 -->
<g id="node2" class="node">
<title>1</title>
<path fill="none" stroke="#78d856" stroke-width="2" d="M920,-828C920,-828 860,-828 860,-828 854,-828 848,-822 848,-816 848,-816 848,-804 848,-804 848,-798 854,-792 860,-792 860,-792 920,-792 920,-792 926,-792 932,-798 932,-804 932,-804 932,-816 932,-816 932,-822 926,-828 920,-828"/>
<text text-anchor="middle" x="890" y="-807.5" font-family="sans" font-size="10.00">variant_counts</text>
</g>
<!-- 1&#45;&gt;0 -->
<g id="edge5" class="edge">
<title>1&#45;&gt;0</title>
<path fill="none" stroke="grey" stroke-width="2" d="M932.09,-809.71C1086.09,-811.22 1610,-806.11 1610,-667 1610,-667 1610,-667 1610,-161 1610,-110 1564.73,-66.88 1531.24,-41.97"/>
<polygon fill="grey" stroke="grey" stroke-width="2" points="1533.17,-39.05 1523.02,-36.04 1529.08,-44.73 1533.17,-39.05"/>
</g>
<!-- 9 -->
<g id="node10" class="node">
<title>9</title>
<path fill="none" stroke="#d8d356" stroke-width="2" d="M1159.5,-756C1159.5,-756 1060.5,-756 1060.5,-756 1054.5,-756 1048.5,-750 1048.5,-744 1048.5,-744 1048.5,-732 1048.5,-732 1048.5,-726 1054.5,-720 1060.5,-720 1060.5,-720 1159.5,-720 1159.5,-720 1165.5,-720 1171.5,-726 1171.5,-732 1171.5,-732 1171.5,-744 1171.5,-744 1171.5,-750 1165.5,-756 1159.5,-756"/>
<text text-anchor="middle" x="1110" y="-735.5" font-family="sans" font-size="10.00">analyze_variant_counts</text>
</g>
<!-- 1&#45;&gt;9 -->
<g id="edge19" class="edge">
<title>1&#45;&gt;9</title>
<path fill="none" stroke="grey" stroke-width="2" d="M932.16,-795.59C964.57,-785.27 1009.88,-770.86 1046.65,-759.16"/>
<polygon fill="grey" stroke="grey" stroke-width="2" points="1047.82,-762.46 1056.28,-756.09 1045.69,-755.79 1047.82,-762.46"/>
</g>
<!-- 13 -->
<g id="node14" class="node">
<title>13</title>
<path fill="none" stroke="#c6d856" stroke-width="2" d="M931.5,-612C931.5,-612 884.5,-612 884.5,-612 878.5,-612 872.5,-606 872.5,-600 872.5,-600 872.5,-588 872.5,-588 872.5,-582 878.5,-576 884.5,-576 884.5,-576 931.5,-576 931.5,-576 937.5,-576 943.5,-582 943.5,-588 943.5,-588 943.5,-600 943.5,-600 943.5,-606 937.5,-612 931.5,-612"/>
<text text-anchor="middle" x="908" y="-591.5" font-family="sans" font-size="10.00">func_scores</text>
</g>
<!-- 1&#45;&gt;13 -->
<g id="edge26" class="edge">
<title>1&#45;&gt;13</title>
<path fill="none" stroke="grey" stroke-width="2" d="M891.44,-791.85C894.56,-754.83 901.93,-667.18 905.7,-622.39"/>
<polygon fill="grey" stroke="grey" stroke-width="2" points="909.2,-622.49 906.55,-612.23 902.22,-621.9 909.2,-622.49"/>
</g>
<!-- 15 -->
<g id="node16" class="node">
<title>15</title>
<path fill="none" stroke="#56c1d8" stroke-width="2" d="M615.5,-612C615.5,-612 564.5,-612 564.5,-612 558.5,-612 552.5,-606 552.5,-600 552.5,-600 552.5,-588 552.5,-588 552.5,-582 558.5,-576 564.5,-576 564.5,-576 615.5,-576 615.5,-576 621.5,-576 627.5,-582 627.5,-588 627.5,-588 627.5,-600 627.5,-600 627.5,-606 621.5,-612 615.5,-612"/>
<text text-anchor="middle" x="590" y="-591.5" font-family="sans" font-size="10.00">prob_escape</text>
</g>
<!-- 1&#45;&gt;15 -->
<g id="edge31" class="edge">
<title>1&#45;&gt;15</title>
<path fill="none" stroke="grey" stroke-width="2" d="M865.96,-791.85C812.42,-753.66 683.32,-661.57 622.6,-618.26"/>
<polygon fill="grey" stroke="grey" stroke-width="2" points="624.33,-615.19 614.16,-612.23 620.27,-620.89 624.33,-615.19"/>
</g>
<!-- 16 -->
<g id="node17" class="node">
<title>16</title>
<path fill="none" stroke="#56d873" stroke-width="2" d="M823,-108C823,-108 773,-108 773,-108 767,-108 761,-102 761,-96 761,-96 761,-84 761,-84 761,-78 767,-72 773,-72 773,-72 823,-72 823,-72 829,-72 835,-78 835,-84 835,-84 835,-96 835,-96 835,-102 829,-108 823,-108"/>
<text text-anchor="middle" x="798" y="-87.5" font-family="sans" font-size="10.00">sphinx_build</text>
</g>
<!-- 1&#45;&gt;16 -->
<g id="edge49" class="edge">
<title>1&#45;&gt;16</title>
<path fill="none" stroke="grey" stroke-width="2" d="M918.41,-791.99C948.53,-774 997.52,-744.84 1040,-720 1191.43,-631.47 1382,-698.41 1382,-523 1382,-523 1382,-523 1382,-377 1382,-265.5 1384.61,-201.36 1289,-144 1215,-99.6 953.79,-92.26 845.54,-91.14"/>
<polygon fill="grey" stroke="grey" stroke-width="2" points="845.28,-87.64 835.25,-91.05 845.22,-94.64 845.28,-87.64"/>
</g>
<!-- 24 -->
<g id="node25" class="node">
<title>24</title>
<path fill="none" stroke="#9fd856" stroke-width="2" d="M819.5,-180C819.5,-180 776.5,-180 776.5,-180 770.5,-180 764.5,-174 764.5,-168 764.5,-168 764.5,-156 764.5,-156 764.5,-150 770.5,-144 776.5,-144 776.5,-144 819.5,-144 819.5,-144 825.5,-144 831.5,-150 831.5,-156 831.5,-156 831.5,-168 831.5,-168 831.5,-174 825.5,-180 819.5,-180"/>
<text text-anchor="middle" x="798" y="-159.5" font-family="sans" font-size="10.00">docs_index</text>
</g>
<!-- 1&#45;&gt;24 -->
<g id="edge81" class="edge">
<title>1&#45;&gt;24</title>
<path fill="none" stroke="grey" stroke-width="2" d="M887.74,-791.87C883.22,-757.68 872.76,-678.52 864,-612 840.83,-436.01 846.29,-390.17 812,-216 810.32,-207.46 808.05,-198.27 805.84,-189.97"/>
<polygon fill="grey" stroke="grey" stroke-width="2" points="809.13,-188.76 803.1,-180.06 802.39,-190.63 809.13,-188.76"/>
</g>
<!-- 2 -->
<g id="node3" class="node">
<title>2</title>
<path fill="none" stroke="#5682d8" stroke-width="2" d="M957.5,-900C957.5,-900 892.5,-900 892.5,-900 886.5,-900 880.5,-894 880.5,-888 880.5,-888 880.5,-876 880.5,-876 880.5,-870 886.5,-864 892.5,-864 892.5,-864 957.5,-864 957.5,-864 963.5,-864 969.5,-870 969.5,-876 969.5,-876 969.5,-888 969.5,-888 969.5,-894 963.5,-900 957.5,-900"/>
<text text-anchor="middle" x="925" y="-879.5" font-family="sans" font-size="10.00">count_barcodes</text>
</g>
<!-- 2&#45;&gt;1 -->
<g id="edge8" class="edge">
<title>2&#45;&gt;1</title>
<path fill="none" stroke="grey" stroke-width="2" d="M916.35,-863.7C912.36,-855.73 907.55,-846.1 903.13,-837.26"/>
<polygon fill="grey" stroke="grey" stroke-width="2" points="906.15,-835.48 898.55,-828.1 899.89,-838.61 906.15,-835.48"/>
</g>
<!-- 2&#45;&gt;9 -->
<g id="edge18" class="edge">
<title>2&#45;&gt;9</title>
<path fill="none" stroke="grey" stroke-width="2" d="M932.62,-863.72C942.1,-843.99 960.02,-811.87 984,-792 1000.41,-778.4 1020.82,-767.83 1040.39,-759.82"/>
<polygon fill="grey" stroke="grey" stroke-width="2" points="1041.87,-763 1049.91,-756.09 1039.32,-756.48 1041.87,-763"/>
</g>
<!-- 3 -->
<g id="node4" class="node">
<title>3</title>
<path fill="none" stroke="#56d863" stroke-width="2" d="M759.5,-972C759.5,-972 670.5,-972 670.5,-972 664.5,-972 658.5,-966 658.5,-960 658.5,-960 658.5,-948 658.5,-948 658.5,-942 664.5,-936 670.5,-936 670.5,-936 759.5,-936 759.5,-936 765.5,-936 771.5,-942 771.5,-948 771.5,-948 771.5,-960 771.5,-960 771.5,-966 765.5,-972 759.5,-972"/>
<text text-anchor="middle" x="715" y="-951.5" font-family="sans" font-size="10.00">build_codon_variants</text>
</g>
<!-- 3&#45;&gt;1 -->
<g id="edge7" class="edge">
<title>3&#45;&gt;1</title>
<path fill="none" stroke="grey" stroke-width="2" d="M736.11,-935.87C767.25,-910.6 825.6,-863.25 860.82,-834.68"/>
<polygon fill="grey" stroke="grey" stroke-width="2" points="863.26,-837.21 868.82,-828.19 858.85,-831.77 863.26,-837.21"/>
</g>
<!-- 3&#45;&gt;2 -->
<g id="edge9" class="edge">
<title>3&#45;&gt;2</title>
<path fill="none" stroke="grey" stroke-width="2" d="M766.1,-935.97C797.79,-925.4 838.46,-911.85 870.73,-901.09"/>
<polygon fill="grey" stroke="grey" stroke-width="2" points="872.07,-904.33 880.45,-897.85 869.85,-897.69 872.07,-904.33"/>
</g>
<!-- 3&#45;&gt;9 -->
<g id="edge17" class="edge">
<title>3&#45;&gt;9</title>
<path fill="none" stroke="grey" stroke-width="2" d="M771.51,-952.53C827.85,-949.69 914.96,-938.64 979,-900 1007.74,-882.65 1064.04,-805.27 1092.56,-764.43"/>
<polygon fill="grey" stroke="grey" stroke-width="2" points="1095.54,-766.28 1098.37,-756.07 1089.79,-762.29 1095.54,-766.28"/>
</g>
<!-- 3&#45;&gt;13 -->
<g id="edge25" class="edge">
<title>3&#45;&gt;13</title>
<path fill="none" stroke="grey" stroke-width="2" d="M715.09,-935.96C716.25,-885.86 726.06,-737.01 800,-648 816.1,-628.62 841.01,-615.73 862.86,-607.53"/>
<polygon fill="grey" stroke="grey" stroke-width="2" points="864.05,-610.82 872.31,-604.18 861.72,-604.22 864.05,-610.82"/>
</g>
<!-- 3&#45;&gt;15 -->
<g id="edge30" class="edge">
<title>3&#45;&gt;15</title>
<path fill="none" stroke="grey" stroke-width="2" d="M691.83,-935.87C662.01,-911.66 614,-864.4 614,-811 614,-811 614,-811 614,-737 614,-696.65 604.46,-650.74 597.41,-622.32"/>
<polygon fill="grey" stroke="grey" stroke-width="2" points="600.73,-621.15 594.86,-612.33 593.94,-622.88 600.73,-621.15"/>
</g>
<!-- 3&#45;&gt;16 -->
<g id="edge34" class="edge">
<title>3&#45;&gt;16</title>
<path fill="none" stroke="grey" stroke-width="2" d="M658.29,-948.1C501.91,-931.2 76,-860.77 76,-595 76,-595 76,-595 76,-233 76,-94.95 590.62,-88.79 750.92,-90.21"/>
<polygon fill="grey" stroke="grey" stroke-width="2" points="750.92,-93.71 760.95,-90.32 750.99,-86.71 750.92,-93.71"/>
</g>
<!-- 20 -->
<g id="node21" class="node">
<title>20</title>
<path fill="none" stroke="#d85656" stroke-width="2" d="M396,-324C396,-324 346,-324 346,-324 340,-324 334,-318 334,-312 334,-312 334,-300 334,-300 334,-294 340,-288 346,-288 346,-288 396,-288 396,-288 402,-288 408,-294 408,-300 408,-300 408,-312 408,-312 408,-318 402,-324 396,-324"/>
<text text-anchor="middle" x="371" y="-303.5" font-family="sans" font-size="10.00">make_nblink</text>
</g>
<!-- 3&#45;&gt;20 -->
<g id="edge54" class="edge">
<title>3&#45;&gt;20</title>
<path fill="none" stroke="grey" stroke-width="2" d="M667.96,-935.94C597.83,-907.11 474,-841.68 474,-739 474,-739 474,-739 474,-593 474,-527.28 420.85,-528.42 395,-468 382.02,-437.67 382.13,-428.58 377,-396 373.77,-375.48 372.28,-352.02 371.59,-334.34"/>
<polygon fill="grey" stroke="grey" stroke-width="2" points="375.08,-334.04 371.25,-324.16 368.08,-334.27 375.08,-334.04"/>
</g>
<!-- 3&#45;&gt;24 -->
<g id="edge67" class="edge">
<title>3&#45;&gt;24</title>
<path fill="none" stroke="grey" stroke-width="2" d="M714.59,-935.82C714.37,-925.44 714.11,-911.96 714,-900 713.85,-884 713.01,-879.97 714,-864 716,-831.81 718.12,-823.88 723,-792 751.25,-607.59 798,-565.56 798,-379 798,-379 798,-379 798,-305 798,-265 798,-218.65 798,-190.08"/>
<polygon fill="grey" stroke="grey" stroke-width="2" points="801.5,-190.05 798,-180.05 794.5,-190.05 801.5,-190.05"/>
</g>
<!-- 4 -->
<g id="node5" class="node">
<title>4</title>
<path fill="none" stroke="#d87d56" stroke-width="2" d="M411,-1044C411,-1044 309,-1044 309,-1044 303,-1044 297,-1038 297,-1032 297,-1032 297,-1020 297,-1020 297,-1014 303,-1008 309,-1008 309,-1008 411,-1008 411,-1008 417,-1008 423,-1014 423,-1020 423,-1020 423,-1032 423,-1032 423,-1038 417,-1044 411,-1044"/>
<text text-anchor="middle" x="360" y="-1023.5" font-family="sans" font-size="10.00">build_pacbio_consensus</text>
</g>
<!-- 4&#45;&gt;3 -->
<g id="edge11" class="edge">
<title>4&#45;&gt;3</title>
<path fill="none" stroke="grey" stroke-width="2" d="M423.06,-1012.57C486.42,-1000.07 583.68,-980.89 648.3,-968.15"/>
<polygon fill="grey" stroke="grey" stroke-width="2" points="649.25,-971.53 658.38,-966.16 647.9,-964.66 649.25,-971.53"/>
</g>
<!-- 4&#45;&gt;16 -->
<g id="edge39" class="edge">
<title>4&#45;&gt;16</title>
<path fill="none" stroke="grey" stroke-width="2" d="M333.38,-1007.87C256.23,-955.91 38,-791.55 38,-595 38,-595 38,-595 38,-233 38,-181.84 65.63,-167.64 111,-144 167.4,-114.61 604.25,-97.47 750.48,-92.51"/>
<polygon fill="grey" stroke="grey" stroke-width="2" points="751.03,-96 760.9,-92.17 750.79,-89 751.03,-96"/>
</g>
<!-- 4&#45;&gt;20 -->
<g id="edge56" class="edge">
<title>4&#45;&gt;20</title>
<path fill="none" stroke="grey" stroke-width="2" d="M352.31,-1007.91C341.21,-981.62 322,-929.45 322,-883 322,-883 322,-883 322,-449 322,-406.78 341.6,-361.16 356.01,-333.33"/>
<polygon fill="grey" stroke="grey" stroke-width="2" points="359.23,-334.74 360.85,-324.27 353.05,-331.44 359.23,-334.74"/>
</g>
<!-- 4&#45;&gt;24 -->
<g id="edge72" class="edge">
<title>4&#45;&gt;24</title>
<path fill="none" stroke="grey" stroke-width="2" d="M367.69,-1007.91C378.79,-981.62 398,-929.45 398,-883 398,-883 398,-883 398,-593 398,-419.12 630.55,-534.25 736,-396 760.87,-363.39 783.99,-244.21 793.47,-190.07"/>
<polygon fill="grey" stroke="grey" stroke-width="2" points="796.93,-190.61 795.18,-180.16 790.03,-189.42 796.93,-190.61"/>
</g>
<!-- 5 -->
<g id="node6" class="node">
<title>5</title>
<path fill="none" stroke="#56d88a" stroke-width="2" d="M197,-1116C197,-1116 117,-1116 117,-1116 111,-1116 105,-1110 105,-1104 105,-1104 105,-1092 105,-1092 105,-1086 111,-1080 117,-1080 117,-1080 197,-1080 197,-1080 203,-1080 209,-1086 209,-1092 209,-1092 209,-1104 209,-1104 209,-1110 203,-1116 197,-1116"/>
<text text-anchor="middle" x="157" y="-1095.5" font-family="sans" font-size="10.00">analyze_pacbio_ccs</text>
</g>
<!-- 5&#45;&gt;4 -->
<g id="edge13" class="edge">
<title>5&#45;&gt;4</title>
<path fill="none" stroke="grey" stroke-width="2" d="M206.4,-1079.97C234.89,-1070.14 270.89,-1057.73 300.87,-1047.39"/>
<polygon fill="grey" stroke="grey" stroke-width="2" points="302.07,-1050.68 310.38,-1044.11 299.78,-1044.06 302.07,-1050.68"/>
</g>
<!-- 5&#45;&gt;16 -->
<g id="edge42" class="edge">
<title>5&#45;&gt;16</title>
<path fill="none" stroke="grey" stroke-width="2" d="M113.68,-1079.89C67.21,-1058.35 0,-1016.56 0,-955 0,-955 0,-955 0,-233 0,-186.96 13.81,-168.16 53,-144 112.21,-107.5 595.54,-94.95 750.43,-91.85"/>
<polygon fill="grey" stroke="grey" stroke-width="2" points="750.65,-95.34 760.58,-91.65 750.51,-88.35 750.65,-95.34"/>
</g>
<!-- 5&#45;&gt;20 -->
<g id="edge59" class="edge">
<title>5&#45;&gt;20</title>
<path fill="none" stroke="grey" stroke-width="2" d="M148.09,-1079.58C135.5,-1053.3 114,-1001.62 114,-955 114,-955 114,-955 114,-449 114,-354.18 249.67,-322.19 323.86,-311.78"/>
<polygon fill="grey" stroke="grey" stroke-width="2" points="324.45,-315.23 333.9,-310.45 323.53,-308.29 324.45,-315.23"/>
</g>
<!-- 5&#45;&gt;24 -->
<g id="edge75" class="edge">
<title>5&#45;&gt;24</title>
<path fill="none" stroke="grey" stroke-width="2" d="M159.09,-1079.78C169.5,-1001.38 222.84,-674.74 406,-504 442.39,-470.07 465.17,-484.82 512,-468 517.31,-466.09 697.95,-399.93 702,-396 709.88,-388.34 764.5,-249.24 787.66,-189.69"/>
<polygon fill="grey" stroke="grey" stroke-width="2" points="790.99,-190.78 791.35,-180.19 784.47,-188.25 790.99,-190.78"/>
</g>
<!-- 6 -->
<g id="node7" class="node">
<title>6</title>
<path fill="none" stroke="#56d0d8" stroke-width="2" d="M206,-1188C206,-1188 108,-1188 108,-1188 102,-1188 96,-1182 96,-1176 96,-1176 96,-1164 96,-1164 96,-1158 102,-1152 108,-1152 108,-1152 206,-1152 206,-1152 212,-1152 218,-1158 218,-1164 218,-1164 218,-1176 218,-1176 218,-1182 212,-1188 206,-1188"/>
<text text-anchor="middle" x="157" y="-1167.5" font-family="sans" font-size="10.00">align_parse_PacBio_ccs</text>
</g>
<!-- 6&#45;&gt;5 -->
<g id="edge14" class="edge">
<title>6&#45;&gt;5</title>
<path fill="none" stroke="grey" stroke-width="2" d="M157,-1151.7C157,-1143.98 157,-1134.71 157,-1126.11"/>
<polygon fill="grey" stroke="grey" stroke-width="2" points="160.5,-1126.1 157,-1116.1 153.5,-1126.1 160.5,-1126.1"/>
</g>
<!-- 7 -->
<g id="node8" class="node">
<title>7</title>
<path fill="none" stroke="#56d8c9" stroke-width="2" d="M958,-1116C958,-1116 892,-1116 892,-1116 886,-1116 880,-1110 880,-1104 880,-1104 880,-1092 880,-1092 880,-1086 886,-1080 892,-1080 892,-1080 958,-1080 958,-1080 964,-1080 970,-1086 970,-1092 970,-1092 970,-1104 970,-1104 970,-1110 964,-1116 958,-1116"/>
<text text-anchor="middle" x="925" y="-1095.5" font-family="sans" font-size="10.00">gene_sequence</text>
</g>
<!-- 7&#45;&gt;1 -->
<g id="edge6" class="edge">
<title>7&#45;&gt;1</title>
<path fill="none" stroke="grey" stroke-width="2" d="M936.92,-1079.71C963.15,-1039.32 1020.34,-936.74 979,-864 970.61,-849.24 956.31,-838.16 941.59,-830.05"/>
<polygon fill="grey" stroke="grey" stroke-width="2" points="942.92,-826.8 932.42,-825.38 939.74,-833.04 942.92,-826.8"/>
</g>
<!-- 7&#45;&gt;3 -->
<g id="edge10" class="edge">
<title>7&#45;&gt;3</title>
<path fill="none" stroke="grey" stroke-width="2" d="M879.94,-1082.94C855.1,-1073.99 824.43,-1060.89 800,-1044 774.16,-1026.14 749.97,-999.45 734.05,-979.95"/>
<polygon fill="grey" stroke="grey" stroke-width="2" points="736.74,-977.71 727.76,-972.09 731.27,-982.08 736.74,-977.71"/>
</g>
<!-- 7&#45;&gt;4 -->
<g id="edge12" class="edge">
<title>7&#45;&gt;4</title>
<path fill="none" stroke="grey" stroke-width="2" d="M879.72,-1091.39C782.27,-1079.32 551.9,-1050.78 433.33,-1036.08"/>
<polygon fill="grey" stroke="grey" stroke-width="2" points="433.61,-1032.59 423.25,-1034.84 432.74,-1039.54 433.61,-1032.59"/>
</g>
<!-- 7&#45;&gt;9 -->
<g id="edge16" class="edge">
<title>7&#45;&gt;9</title>
<path fill="none" stroke="grey" stroke-width="2" d="M970.19,-1081.05C1019.65,-1060.36 1092,-1019.13 1092,-955 1092,-955 1092,-955 1092,-881 1092,-840.9 1099.15,-794.92 1104.44,-766.42"/>
<polygon fill="grey" stroke="grey" stroke-width="2" points="1107.92,-766.88 1106.36,-756.4 1101.04,-765.56 1107.92,-766.88"/>
</g>
<!-- 7&#45;&gt;13 -->
<g id="edge24" class="edge">
<title>7&#45;&gt;13</title>
<path fill="none" stroke="grey" stroke-width="2" d="M898.98,-1080C866.17,-1056.27 814,-1009.92 814,-955 814,-955 814,-955 814,-737 814,-689.17 851.54,-645.08 879.18,-619.11"/>
<polygon fill="grey" stroke="grey" stroke-width="2" points="881.64,-621.6 886.67,-612.27 876.92,-616.42 881.64,-621.6"/>
</g>
<!-- 7&#45;&gt;15 -->
<g id="edge29" class="edge">
<title>7&#45;&gt;15</title>
<path fill="none" stroke="grey" stroke-width="2" d="M879.62,-1091.21C772.33,-1076.26 512,-1032.05 512,-955 512,-955 512,-955 512,-737 512,-691.37 543.32,-646.55 566.27,-619.84"/>
<polygon fill="grey" stroke="grey" stroke-width="2" points="569.07,-621.95 573.08,-612.15 563.83,-617.31 569.07,-621.95"/>
</g>
<!-- 7&#45;&gt;16 -->
<g id="edge33" class="edge">
<title>7&#45;&gt;16</title>
<path fill="none" stroke="grey" stroke-width="2" d="M970.28,-1096.13C1111.41,-1092.2 1534,-1070.76 1534,-955 1534,-955 1534,-955 1534,-233 1534,-181.27 1504.99,-167.67 1459,-144 1404.76,-116.09 987.26,-98.06 845.17,-92.69"/>
<polygon fill="grey" stroke="grey" stroke-width="2" points="845.15,-89.19 835.03,-92.31 844.89,-96.18 845.15,-89.19"/>
</g>
<!-- 7&#45;&gt;24 -->
<g id="edge66" class="edge">
<title>7&#45;&gt;24</title>
<path fill="none" stroke="grey" stroke-width="2" d="M970.07,-1092.7C1085.36,-1080.47 1382,-1040.68 1382,-955 1382,-955 1382,-955 1382,-737 1382,-640.4 1344,-619.6 1344,-523 1344,-523 1344,-523 1344,-377 1344,-233.38 1171.31,-322.19 1046,-252 1022.11,-238.62 1020.74,-227.73 996,-216 945.61,-192.11 882.71,-177.6 841.5,-169.95"/>
<polygon fill="grey" stroke="grey" stroke-width="2" points="841.98,-166.48 831.52,-168.15 840.74,-173.37 841.98,-166.48"/>
</g>
<!-- 8 -->
<g id="node9" class="node">
<title>8</title>
<path fill="none" stroke="#566bd8" stroke-width="2" d="M1070,-684C1070,-684 930,-684 930,-684 924,-684 918,-678 918,-672 918,-672 918,-660 918,-660 918,-654 924,-648 930,-648 930,-648 1070,-648 1070,-648 1076,-648 1082,-654 1082,-660 1082,-660 1082,-672 1082,-672 1082,-678 1076,-684 1070,-684"/>
<text text-anchor="middle" x="1000" y="-663.5" font-family="sans" font-size="10.00">check_adequate_variant_counts</text>
</g>
<!-- 8&#45;&gt;0 -->
<g id="edge4" class="edge">
<title>8&#45;&gt;0</title>
<path fill="none" stroke="grey" stroke-width="2" d="M1082.26,-652.56C1240.54,-623.47 1572,-535.3 1572,-307 1572,-307 1572,-307 1572,-161 1572,-115.64 1541.48,-70.75 1519.12,-43.95"/>
<polygon fill="grey" stroke="grey" stroke-width="2" points="1521.66,-41.53 1512.49,-36.23 1516.36,-46.09 1521.66,-41.53"/>
</g>
<!-- 8&#45;&gt;13 -->
<g id="edge27" class="edge">
<title>8&#45;&gt;13</title>
<path fill="none" stroke="grey" stroke-width="2" d="M977.26,-647.7C965.56,-638.8 951.14,-627.82 938.49,-618.2"/>
<polygon fill="grey" stroke="grey" stroke-width="2" points="940.56,-615.37 930.48,-612.1 936.32,-620.94 940.56,-615.37"/>
</g>
<!-- 8&#45;&gt;15 -->
<g id="edge32" class="edge">
<title>8&#45;&gt;15</title>
<path fill="none" stroke="grey" stroke-width="2" d="M917.52,-650.92C833.56,-636.58 706.28,-614.85 637.73,-603.15"/>
<polygon fill="grey" stroke="grey" stroke-width="2" points="638.1,-599.66 627.66,-601.43 636.92,-606.56 638.1,-599.66"/>
</g>
<!-- 9&#45;&gt;8 -->
<g id="edge15" class="edge">
<title>9&#45;&gt;8</title>
<path fill="none" stroke="grey" stroke-width="2" d="M1083.09,-719.88C1068.84,-710.81 1051.15,-699.55 1035.76,-689.76"/>
<polygon fill="grey" stroke="grey" stroke-width="2" points="1037.33,-686.61 1027.01,-684.19 1033.57,-692.51 1037.33,-686.61"/>
</g>
<!-- 9&#45;&gt;16 -->
<g id="edge47" class="edge">
<title>9&#45;&gt;16</title>
<path fill="none" stroke="grey" stroke-width="2" d="M1171.86,-729.84C1215.39,-722.84 1273.87,-709.37 1320,-684 1425.46,-626 1458,-571.36 1458,-451 1458,-451 1458,-451 1458,-233 1458,-192.03 1465.46,-170.24 1434,-144 1389.07,-106.52 985.22,-94.81 845.4,-91.86"/>
<polygon fill="grey" stroke="grey" stroke-width="2" points="845.09,-88.35 835.02,-91.64 844.94,-95.35 845.09,-88.35"/>
</g>
<!-- 9&#45;&gt;20 -->
<g id="edge61" class="edge">
<title>9&#45;&gt;20</title>
<path fill="none" stroke="grey" stroke-width="2" d="M1110.5,-719.82C1110.19,-700.48 1106.97,-669 1091,-648 1049.13,-592.93 1018.22,-599.06 953,-576 895.72,-555.75 461.63,-509.22 417,-468 397.45,-449.94 382.33,-375.33 375.31,-334.32"/>
<polygon fill="grey" stroke="grey" stroke-width="2" points="378.71,-333.48 373.62,-324.19 371.81,-334.63 378.71,-333.48"/>
</g>
<!-- 9&#45;&gt;24 -->
<g id="edge79" class="edge">
<title>9&#45;&gt;24</title>
<path fill="none" stroke="grey" stroke-width="2" d="M1153.59,-719.97C1200.36,-698.5 1268,-656.78 1268,-595 1268,-595 1268,-595 1268,-449 1268,-427.41 976.13,-226.01 957,-216 919.86,-196.55 874.15,-182.2 841.29,-173.38"/>
<polygon fill="grey" stroke="grey" stroke-width="2" points="842.09,-169.97 831.53,-170.82 840.32,-176.74 842.09,-169.97"/>
</g>
<!-- 10 -->
<g id="node11" class="node">
<title>10</title>
<path fill="none" stroke="#56d8b1" stroke-width="2" d="M681.5,-396C681.5,-396 590.5,-396 590.5,-396 584.5,-396 578.5,-390 578.5,-384 578.5,-384 578.5,-372 578.5,-372 578.5,-366 584.5,-360 590.5,-360 590.5,-360 681.5,-360 681.5,-360 687.5,-360 693.5,-366 693.5,-372 693.5,-372 693.5,-384 693.5,-384 693.5,-390 687.5,-396 681.5,-396"/>
<text text-anchor="middle" x="636" y="-375.5" font-family="sans" font-size="10.00">avg_antibody_escape</text>
</g>
<!-- 10&#45;&gt;0 -->
<g id="edge3" class="edge">
<title>10&#45;&gt;0</title>
<path fill="none" stroke="grey" stroke-width="2" d="M590.44,-359.96C563.69,-349.81 529.29,-336.5 499,-324 462.21,-308.82 454.25,-302.01 417,-288 367.27,-269.29 334.41,-294.86 303,-252 293.54,-239.09 295.88,-230.33 303,-216 326.57,-168.56 349.73,-165.82 398,-144 593.97,-55.4 1288.8,-26.12 1458.44,-20.21"/>
<polygon fill="grey" stroke="grey" stroke-width="2" points="1458.74,-23.7 1468.61,-19.86 1458.5,-16.7 1458.74,-23.7"/>
</g>
<!-- 10&#45;&gt;16 -->
<g id="edge48" class="edge">
<title>10&#45;&gt;16</title>
<path fill="none" stroke="grey" stroke-width="2" d="M599.91,-359.83C546.14,-331.84 455.16,-273.67 493,-216 550.12,-128.97 680.07,-102.51 750.5,-94.48"/>
<polygon fill="grey" stroke="grey" stroke-width="2" points="751.28,-97.92 760.86,-93.38 750.55,-90.96 751.28,-97.92"/>
</g>
<!-- 10&#45;&gt;20 -->
<g id="edge62" class="edge">
<title>10&#45;&gt;20</title>
<path fill="none" stroke="grey" stroke-width="2" d="M578.5,-361.81C530.52,-349.14 462.99,-331.3 418.15,-319.46"/>
<polygon fill="grey" stroke="grey" stroke-width="2" points="418.95,-316.05 408.39,-316.88 417.16,-322.81 418.95,-316.05"/>
</g>
<!-- 23 -->
<g id="node24" class="node">
<title>23</title>
<path fill="none" stroke="#b6d856" stroke-width="2" d="M643.5,-252C643.5,-252 514.5,-252 514.5,-252 508.5,-252 502.5,-246 502.5,-240 502.5,-240 502.5,-228 502.5,-228 502.5,-222 508.5,-216 514.5,-216 514.5,-216 643.5,-216 643.5,-216 649.5,-216 655.5,-222 655.5,-228 655.5,-228 655.5,-240 655.5,-240 655.5,-246 649.5,-252 643.5,-252"/>
<text text-anchor="middle" x="579" y="-231.5" font-family="sans" font-size="10.00">format_antibody_escape_plot</text>
</g>
<!-- 10&#45;&gt;23 -->
<g id="edge65" class="edge">
<title>10&#45;&gt;23</title>
<path fill="none" stroke="grey" stroke-width="2" d="M629.12,-359.87C619.32,-335.46 601.25,-290.43 589.69,-261.64"/>
<polygon fill="grey" stroke="grey" stroke-width="2" points="592.87,-260.17 585.9,-252.19 586.38,-262.77 592.87,-260.17"/>
</g>
<!-- 10&#45;&gt;24 -->
<g id="edge80" class="edge">
<title>10&#45;&gt;24</title>
<path fill="none" stroke="grey" stroke-width="2" d="M639.97,-359.81C648.02,-328.12 668.92,-259.71 708,-216 720.83,-201.65 738.5,-190.09 754.78,-181.47"/>
<polygon fill="grey" stroke="grey" stroke-width="2" points="756.81,-184.36 764.17,-176.73 753.66,-178.11 756.81,-184.36"/>
</g>
<!-- 11 -->
<g id="node12" class="node">
<title>11</title>
<path fill="none" stroke="#5692d8" stroke-width="2" d="M1107.5,-468C1107.5,-468 1042.5,-468 1042.5,-468 1036.5,-468 1030.5,-462 1030.5,-456 1030.5,-456 1030.5,-444 1030.5,-444 1030.5,-438 1036.5,-432 1042.5,-432 1042.5,-432 1107.5,-432 1107.5,-432 1113.5,-432 1119.5,-438 1119.5,-444 1119.5,-444 1119.5,-456 1119.5,-456 1119.5,-462 1113.5,-468 1107.5,-468"/>
<text text-anchor="middle" x="1075" y="-447.5" font-family="sans" font-size="10.00">avg_muteffects</text>
</g>
<!-- 11&#45;&gt;0 -->
<g id="edge2" class="edge">
<title>11&#45;&gt;0</title>
<path fill="none" stroke="grey" stroke-width="2" d="M1117.21,-431.92C1138.53,-422.54 1164.39,-409.98 1186,-396 1234.41,-364.69 1417.66,-203.52 1434,-180 1463.31,-137.83 1481.17,-79.94 1489.77,-46.29"/>
<polygon fill="grey" stroke="grey" stroke-width="2" points="1493.24,-46.81 1492.24,-36.27 1486.45,-45.14 1493.24,-46.81"/>
</g>
<!-- 11&#45;&gt;10 -->
<g id="edge21" class="edge">
<title>11&#45;&gt;10</title>
<path fill="none" stroke="grey" stroke-width="2" d="M1030.49,-441.9C953.38,-429.61 794.52,-404.28 703.67,-389.79"/>
<polygon fill="grey" stroke="grey" stroke-width="2" points="704.18,-386.33 693.75,-388.21 703.07,-393.24 704.18,-386.33"/>
</g>
<!-- 11&#45;&gt;16 -->
<g id="edge44" class="edge">
<title>11&#45;&gt;16</title>
<path fill="none" stroke="grey" stroke-width="2" d="M1099.53,-431.97C1154.02,-393.56 1282.07,-299.78 1304,-252 1310.67,-237.46 1311.46,-230.16 1304,-216 1277.63,-165.94 1251.83,-164.26 1199,-144 1077.67,-97.47 922.22,-90.51 845.38,-90.23"/>
<polygon fill="grey" stroke="grey" stroke-width="2" points="845.07,-86.73 835.07,-90.23 845.07,-93.73 845.07,-86.73"/>
</g>
<!-- 11&#45;&gt;20 -->
<g id="edge60" class="edge">
<title>11&#45;&gt;20</title>
<path fill="none" stroke="grey" stroke-width="2" d="M1030.49,-449.04C941.31,-448.1 735.09,-440.79 569,-396 567.01,-395.46 475.46,-354.18 417.55,-328.03"/>
<polygon fill="grey" stroke="grey" stroke-width="2" points="418.77,-324.74 408.22,-323.82 415.89,-331.12 418.77,-324.74"/>
</g>
<!-- 21 -->
<g id="node22" class="node">
<title>21</title>
<path fill="none" stroke="#d8bc56" stroke-width="2" d="M1169.5,-252C1169.5,-252 1066.5,-252 1066.5,-252 1060.5,-252 1054.5,-246 1054.5,-240 1054.5,-240 1054.5,-228 1054.5,-228 1054.5,-222 1060.5,-216 1066.5,-216 1066.5,-216 1169.5,-216 1169.5,-216 1175.5,-216 1181.5,-222 1181.5,-228 1181.5,-228 1181.5,-240 1181.5,-240 1181.5,-246 1175.5,-252 1169.5,-252"/>
<text text-anchor="middle" x="1118" y="-231.5" font-family="sans" font-size="10.00">format_muteffects_plot</text>
</g>
<!-- 11&#45;&gt;21 -->
<g id="edge64" class="edge">
<title>11&#45;&gt;21</title>
<path fill="none" stroke="grey" stroke-width="2" d="M1078.45,-431.85C1085.9,-394.75 1103.57,-306.81 1112.55,-262.1"/>
<polygon fill="grey" stroke="grey" stroke-width="2" points="1116,-262.73 1114.54,-252.23 1109.14,-261.35 1116,-262.73"/>
</g>
<!-- 11&#45;&gt;24 -->
<g id="edge77" class="edge">
<title>11&#45;&gt;24</title>
<path fill="none" stroke="grey" stroke-width="2" d="M1068.35,-431.85C1051.12,-389.51 1001.09,-278.89 926,-216 901.56,-195.53 868.11,-182.05 841.53,-173.8"/>
<polygon fill="grey" stroke="grey" stroke-width="2" points="842.3,-170.38 831.71,-170.9 840.31,-177.09 842.3,-170.38"/>
</g>
<!-- 12 -->
<g id="node13" class="node">
<title>12</title>
<path fill="none" stroke="#d89556" stroke-width="2" d="M1039,-540C1039,-540 965,-540 965,-540 959,-540 953,-534 953,-528 953,-528 953,-516 953,-516 953,-510 959,-504 965,-504 965,-504 1039,-504 1039,-504 1045,-504 1051,-510 1051,-516 1051,-516 1051,-528 1051,-528 1051,-534 1045,-540 1039,-540"/>
<text text-anchor="middle" x="1002" y="-519.5" font-family="sans" font-size="10.00">fit_globalepistasis</text>
</g>
<!-- 12&#45;&gt;11 -->
<g id="edge22" class="edge">
<title>12&#45;&gt;11</title>
<path fill="none" stroke="grey" stroke-width="2" d="M1020.04,-503.7C1029.06,-495.05 1040.12,-484.45 1049.94,-475.03"/>
<polygon fill="grey" stroke="grey" stroke-width="2" points="1052.37,-477.55 1057.16,-468.1 1047.52,-472.5 1052.37,-477.55"/>
</g>
<!-- 12&#45;&gt;16 -->
<g id="edge40" class="edge">
<title>12&#45;&gt;16</title>
<path fill="none" stroke="grey" stroke-width="2" d="M1049.18,-503.98C1150.86,-464.27 1377.04,-357.96 1320,-216 1303.48,-174.87 1290.68,-163.74 1251,-144 1180.56,-108.96 946.52,-96.38 845.31,-92.51"/>
<polygon fill="grey" stroke="grey" stroke-width="2" points="845.2,-89 835.08,-92.13 844.94,-96 845.2,-89"/>
</g>
<!-- 12&#45;&gt;20 -->
<g id="edge57" class="edge">
<title>12&#45;&gt;20</title>
<path fill="none" stroke="grey" stroke-width="2" d="M952.77,-515.74C858.72,-504.26 648.66,-471.68 489,-396 479.37,-391.43 432.53,-355.3 400.84,-330.51"/>
<polygon fill="grey" stroke="grey" stroke-width="2" points="402.78,-327.58 392.75,-324.16 398.46,-333.08 402.78,-327.58"/>
</g>
<!-- 12&#45;&gt;24 -->
<g id="edge73" class="edge">
<title>12&#45;&gt;24</title>
<path fill="none" stroke="grey" stroke-width="2" d="M1002.86,-503.83C1003.75,-473.58 1002.86,-409.35 983,-360 953.03,-285.54 931.85,-271.64 874,-216 862.51,-204.95 848.52,-194.51 835.69,-185.86"/>
<polygon fill="grey" stroke="grey" stroke-width="2" points="837.32,-182.75 827.04,-180.18 833.48,-188.6 837.32,-182.75"/>
</g>
<!-- 13&#45;&gt;12 -->
<g id="edge23" class="edge">
<title>13&#45;&gt;12</title>
<path fill="none" stroke="grey" stroke-width="2" d="M931.24,-575.7C943.19,-566.8 957.92,-555.82 970.85,-546.2"/>
<polygon fill="grey" stroke="grey" stroke-width="2" points="973.1,-548.88 979.03,-540.1 968.92,-543.27 973.1,-548.88"/>
</g>
<!-- 17 -->
<g id="node18" class="node">
<title>17</title>
<path fill="none" stroke="#61d856" stroke-width="2" d="M962,-396C962,-396 876,-396 876,-396 870,-396 864,-390 864,-384 864,-384 864,-372 864,-372 864,-366 870,-360 876,-360 876,-360 962,-360 962,-360 968,-360 974,-366 974,-372 974,-372 974,-384 974,-384 974,-390 968,-396 962,-396"/>
<text text-anchor="middle" x="919" y="-375.5" font-family="sans" font-size="10.00">analyze_func_scores</text>
</g>
<!-- 13&#45;&gt;17 -->
<g id="edge51" class="edge">
<title>13&#45;&gt;17</title>
<path fill="none" stroke="grey" stroke-width="2" d="M908.88,-575.85C910.78,-538.83 915.29,-451.18 917.59,-406.39"/>
<polygon fill="grey" stroke="grey" stroke-width="2" points="921.1,-406.4 918.11,-396.23 914.11,-406.04 921.1,-406.4"/>
</g>
<!-- 14 -->
<g id="node15" class="node">
<title>14</title>
<path fill="none" stroke="#56a9d8" stroke-width="2" d="M491.5,-468C491.5,-468 438.5,-468 438.5,-468 432.5,-468 426.5,-462 426.5,-456 426.5,-456 426.5,-444 426.5,-444 426.5,-438 432.5,-432 438.5,-432 438.5,-432 491.5,-432 491.5,-432 497.5,-432 503.5,-438 503.5,-444 503.5,-444 503.5,-456 503.5,-456 503.5,-462 497.5,-468 491.5,-468"/>
<text text-anchor="middle" x="465" y="-447.5" font-family="sans" font-size="10.00">fit_polyclonal</text>
</g>
<!-- 14&#45;&gt;10 -->
<g id="edge20" class="edge">
<title>14&#45;&gt;10</title>
<path fill="none" stroke="grey" stroke-width="2" d="M503.8,-433.12C527.85,-423.27 559,-410.52 585.03,-399.86"/>
<polygon fill="grey" stroke="grey" stroke-width="2" points="586.43,-403.07 594.36,-396.04 583.78,-396.59 586.43,-403.07"/>
</g>
<!-- 14&#45;&gt;16 -->
<g id="edge37" class="edge">
<title>14&#45;&gt;16</title>
<path fill="none" stroke="grey" stroke-width="2" d="M426.46,-447.94C354.29,-445.05 203.14,-434.45 171,-396 137.39,-355.79 131.64,-246.39 281,-144 356.59,-92.18 637.8,-89.23 750.67,-90.22"/>
<polygon fill="grey" stroke="grey" stroke-width="2" points="750.7,-93.72 760.74,-90.32 750.78,-86.72 750.7,-93.72"/>
</g>
<!-- 14&#45;&gt;20 -->
<g id="edge55" class="edge">
<title>14&#45;&gt;20</title>
<path fill="none" stroke="grey" stroke-width="2" d="M455.63,-431.89C445.47,-413.69 428.5,-384.23 412,-360 405.65,-350.67 398.22,-340.8 391.45,-332.14"/>
<polygon fill="grey" stroke="grey" stroke-width="2" points="394.17,-329.93 385.21,-324.27 388.68,-334.28 394.17,-329.93"/>
</g>
<!-- 14&#45;&gt;24 -->
<g id="edge70" class="edge">
<title>14&#45;&gt;24</title>
<path fill="none" stroke="grey" stroke-width="2" d="M460.98,-431.84C452.06,-389 435.65,-276.44 493,-216 528.07,-179.04 678.47,-167.76 754.14,-164.39"/>
<polygon fill="grey" stroke="grey" stroke-width="2" points="754.46,-167.88 764.31,-163.96 754.17,-160.88 754.46,-167.88"/>
</g>
<!-- 15&#45;&gt;14 -->
<g id="edge28" class="edge">
<title>15&#45;&gt;14</title>
<path fill="none" stroke="grey" stroke-width="2" d="M574.92,-575.87C552.96,-550.92 512.05,-504.45 486.81,-475.77"/>
<polygon fill="grey" stroke="grey" stroke-width="2" points="489.37,-473.38 480.13,-468.19 484.11,-478.01 489.37,-473.38"/>
</g>
<!-- 18 -->
<g id="node19" class="node">
<title>18</title>
<path fill="none" stroke="#d8ac56" stroke-width="2" d="M282,-396C282,-396 192,-396 192,-396 186,-396 180,-390 180,-384 180,-384 180,-372 180,-372 180,-366 186,-360 192,-360 192,-360 282,-360 282,-360 288,-360 294,-366 294,-372 294,-372 294,-384 294,-384 294,-390 288,-396 282,-396"/>
<text text-anchor="middle" x="237" y="-375.5" font-family="sans" font-size="10.00">analyze_prob_escape</text>
</g>
<!-- 15&#45;&gt;18 -->
<g id="edge52" class="edge">
<title>15&#45;&gt;18</title>
<path fill="none" stroke="grey" stroke-width="2" d="M561.71,-575.85C498.32,-537.42 344.94,-444.44 274.05,-401.46"/>
<polygon fill="grey" stroke="grey" stroke-width="2" points="275.79,-398.42 265.43,-396.23 272.16,-404.41 275.79,-398.42"/>
</g>
<!-- 16&#45;&gt;0 -->
<g id="edge1" class="edge">
<title>16&#45;&gt;0</title>
<path fill="none" stroke="grey" stroke-width="2" d="M835.03,-85.29C955.82,-73.17 1337.5,-34.9 1458.69,-22.74"/>
<polygon fill="grey" stroke="grey" stroke-width="2" points="1459.33,-26.19 1468.93,-21.71 1458.63,-19.23 1459.33,-26.19"/>
</g>
<!-- 17&#45;&gt;16 -->
<g id="edge50" class="edge">
<title>17&#45;&gt;16</title>
<path fill="none" stroke="grey" stroke-width="2" d="M974.11,-362.09C1072.11,-335.03 1268.21,-278.23 1287,-252 1296.32,-238.99 1296.6,-228.8 1287,-216 1233.59,-144.8 956.99,-107.88 845.08,-95.68"/>
<polygon fill="grey" stroke="grey" stroke-width="2" points="845.4,-92.19 835.09,-94.61 844.66,-99.15 845.4,-92.19"/>
</g>
<!-- 17&#45;&gt;20 -->
<g id="edge63" class="edge">
<title>17&#45;&gt;20</title>
<path fill="none" stroke="grey" stroke-width="2" d="M863.95,-369.97C756.23,-356.21 519.32,-325.95 418.23,-313.03"/>
<polygon fill="grey" stroke="grey" stroke-width="2" points="418.66,-309.56 408.3,-311.76 417.78,-316.5 418.66,-309.56"/>
</g>
<!-- 17&#45;&gt;24 -->
<g id="edge82" class="edge">
<title>17&#45;&gt;24</title>
<path fill="none" stroke="grey" stroke-width="2" d="M914.02,-359.99C904.59,-329.44 882.16,-264 850,-216 843.12,-205.73 834.09,-195.72 825.5,-187.21"/>
<polygon fill="grey" stroke="grey" stroke-width="2" points="827.77,-184.53 818.12,-180.15 822.93,-189.59 827.77,-184.53"/>
</g>
<!-- 18&#45;&gt;16 -->
<g id="edge41" class="edge">
<title>18&#45;&gt;16</title>
<path fill="none" stroke="grey" stroke-width="2" d="M235.35,-359.86C234.16,-341.64 233.81,-312.17 241,-288 262.19,-216.77 263.62,-184.4 326,-144 395.41,-99.05 645.79,-92 750.96,-91.06"/>
<polygon fill="grey" stroke="grey" stroke-width="2" points="751,-94.56 760.97,-90.98 750.95,-87.56 751,-94.56"/>
</g>
<!-- 18&#45;&gt;20 -->
<g id="edge58" class="edge">
<title>18&#45;&gt;20</title>
<path fill="none" stroke="grey" stroke-width="2" d="M269.78,-359.88C287.63,-350.55 309.9,-338.92 329,-328.94"/>
<polygon fill="grey" stroke="grey" stroke-width="2" points="330.85,-331.92 338.09,-324.19 327.61,-325.72 330.85,-331.92"/>
</g>
<!-- 18&#45;&gt;24 -->
<g id="edge74" class="edge">
<title>18&#45;&gt;24</title>
<path fill="none" stroke="grey" stroke-width="2" d="M238.43,-359.96C242.26,-326.27 255.9,-251.38 303,-216 338.73,-189.17 639.73,-171.1 754.13,-165.15"/>
<polygon fill="grey" stroke="grey" stroke-width="2" points="754.47,-168.63 764.28,-164.63 754.11,-161.64 754.47,-168.63"/>
</g>
<!-- 19 -->
<g id="node20" class="node">
<title>19</title>
<path fill="none" stroke="#56d8a2" stroke-width="2" d="M358,-252C358,-252 324,-252 324,-252 318,-252 312,-246 312,-240 312,-240 312,-228 312,-228 312,-222 318,-216 324,-216 324,-216 358,-216 358,-216 364,-216 370,-222 370,-228 370,-228 370,-240 370,-240 370,-246 364,-252 358,-252"/>
<text text-anchor="middle" x="341" y="-231.5" font-family="sans" font-size="10.00">subindex</text>
</g>
<!-- 19&#45;&gt;16 -->
<g id="edge43" class="edge">
<title>19&#45;&gt;16</title>
<path fill="none" stroke="grey" stroke-width="2" d="M358.2,-215.75C379.91,-195.09 419.35,-161.13 460,-144 557.68,-102.84 683.42,-93.31 750.63,-91.31"/>
<polygon fill="grey" stroke="grey" stroke-width="2" points="751,-94.8 760.91,-91.05 750.82,-87.81 751,-94.8"/>
</g>
<!-- 19&#45;&gt;24 -->
<g id="edge76" class="edge">
<title>19&#45;&gt;24</title>
<path fill="none" stroke="grey" stroke-width="2" d="M370.29,-220.31C374.82,-218.67 379.49,-217.16 384,-216 516.2,-181.97 678.03,-169.33 754.29,-165.02"/>
<polygon fill="grey" stroke="grey" stroke-width="2" points="754.67,-168.5 764.47,-164.46 754.29,-161.51 754.67,-168.5"/>
</g>
<!-- 20&#45;&gt;16 -->
<g id="edge36" class="edge">
<title>20&#45;&gt;16</title>
<path fill="none" stroke="grey" stroke-width="2" d="M337.64,-287.86C324.29,-279.09 310.36,-267.06 303,-252 295.98,-237.62 295.88,-230.33 303,-216 326.57,-168.56 349,-164.15 398,-144 461.01,-118.09 659.18,-100.96 750.75,-94.22"/>
<polygon fill="grey" stroke="grey" stroke-width="2" points="751.13,-97.7 760.85,-93.49 750.62,-90.72 751.13,-97.7"/>
</g>
<!-- 20&#45;&gt;19 -->
<g id="edge53" class="edge">
<title>20&#45;&gt;19</title>
<path fill="none" stroke="grey" stroke-width="2" d="M363.58,-287.7C360.21,-279.81 356.13,-270.3 352.38,-261.55"/>
<polygon fill="grey" stroke="grey" stroke-width="2" points="355.49,-259.92 348.33,-252.1 349.05,-262.67 355.49,-259.92"/>
</g>
<!-- 20&#45;&gt;24 -->
<g id="edge69" class="edge">
<title>20&#45;&gt;24</title>
<path fill="none" stroke="grey" stroke-width="2" d="M375.79,-287.73C382.5,-267.05 396.78,-233.07 422,-216 475.44,-179.81 667.07,-167.98 754.26,-164.41"/>
<polygon fill="grey" stroke="grey" stroke-width="2" points="754.5,-167.9 764.35,-164.02 754.22,-160.91 754.5,-167.9"/>
</g>
<!-- 21&#45;&gt;16 -->
<g id="edge46" class="edge">
<title>21&#45;&gt;16</title>
<path fill="none" stroke="grey" stroke-width="2" d="M1079.4,-215.87C1020.42,-189.7 908.06,-139.84 844.62,-111.69"/>
<polygon fill="grey" stroke="grey" stroke-width="2" points="845.81,-108.39 835.25,-107.53 842.97,-114.78 845.81,-108.39"/>
</g>
<!-- 21&#45;&gt;24 -->
<g id="edge78" class="edge">
<title>21&#45;&gt;24</title>
<path fill="none" stroke="grey" stroke-width="2" d="M1054.4,-219.09C991.38,-205.3 896.57,-184.56 841.62,-172.54"/>
<polygon fill="grey" stroke="grey" stroke-width="2" points="842.04,-169.05 831.52,-170.33 840.54,-175.89 842.04,-169.05"/>
</g>
<!-- 22 -->
<g id="node23" class="node">
<title>22</title>
<path fill="none" stroke="#d86e56" stroke-width="2" d="M1266,-252C1266,-252 1212,-252 1212,-252 1206,-252 1200,-246 1200,-240 1200,-240 1200,-228 1200,-228 1200,-222 1206,-216 1212,-216 1212,-216 1266,-216 1266,-216 1272,-216 1278,-222 1278,-228 1278,-228 1278,-240 1278,-240 1278,-246 1272,-252 1266,-252"/>
<text text-anchor="middle" x="1239" y="-231.5" font-family="sans" font-size="10.00">make_graphs</text>
</g>
<!-- 22&#45;&gt;16 -->
<g id="edge38" class="edge">
<title>22&#45;&gt;16</title>
<path fill="none" stroke="grey" stroke-width="2" d="M1199.99,-219.1C1196.95,-218.04 1193.93,-217 1191,-216 1094.04,-182.9 1069.68,-174.93 972,-144 929.12,-130.42 880.09,-115.55 845.03,-105.02"/>
<polygon fill="grey" stroke="grey" stroke-width="2" points="845.66,-101.55 835.07,-102.03 843.64,-108.26 845.66,-101.55"/>
</g>
<!-- 22&#45;&gt;24 -->
<g id="edge71" class="edge">
<title>22&#45;&gt;24</title>
<path fill="none" stroke="grey" stroke-width="2" d="M1199.91,-218.41C1196.91,-217.52 1193.92,-216.71 1191,-216 1066.31,-185.85 914.92,-171.51 841.77,-165.94"/>
<polygon fill="grey" stroke="grey" stroke-width="2" points="841.79,-162.43 831.55,-165.18 841.27,-169.41 841.79,-162.43"/>
</g>
<!-- 23&#45;&gt;16 -->
<g id="edge35" class="edge">
<title>23&#45;&gt;16</title>
<path fill="none" stroke="grey" stroke-width="2" d="M605.42,-215.87C644.8,-190.34 718.95,-142.25 762.87,-113.78"/>
<polygon fill="grey" stroke="grey" stroke-width="2" points="765,-116.57 771.49,-108.19 761.2,-110.69 765,-116.57"/>
</g>
<!-- 23&#45;&gt;24 -->
<g id="edge68" class="edge">
<title>23&#45;&gt;24</title>
<path fill="none" stroke="grey" stroke-width="2" d="M632.29,-215.97C669.74,-203.99 719.23,-188.18 754.35,-176.95"/>
<polygon fill="grey" stroke="grey" stroke-width="2" points="755.84,-180.15 764.3,-173.77 753.71,-173.48 755.84,-180.15"/>
</g>
<!-- 24&#45;&gt;16 -->
<g id="edge45" class="edge">
<title>24&#45;&gt;16</title>
<path fill="none" stroke="grey" stroke-width="2" d="M798,-143.7C798,-135.98 798,-126.71 798,-118.11"/>
<polygon fill="grey" stroke="grey" stroke-width="2" points="801.5,-118.1 798,-108.1 794.5,-118.1 801.5,-118.1"/>
</g>
</g>
</svg>
