<?xml version="1.0" encoding="UTF-8" standalone="no"?>
<!DOCTYPE svg PUBLIC "-//W3C//DTD SVG 1.1//EN"
 "http://www.w3.org/Graphics/SVG/1.1/DTD/svg11.dtd">
<!-- Generated by graphviz version 3.0.0 (20220315.2325)
 -->
<!-- Title: snakemake_dag Pages: 1 -->
<svg width="864pt" height="836pt"
 viewBox="0.00 0.00 864.00 836.00" xmlns="http://www.w3.org/2000/svg" xmlns:xlink="http://www.w3.org/1999/xlink">
<g id="graph0" class="graph" transform="scale(1 1) rotate(0) translate(4 832)">
<title>snakemake_dag</title>
<polygon fill="white" stroke="transparent" points="-4,4 -4,-832 860,-832 860,4 -4,4"/>
<!-- 0 -->
<g id="node1" class="node">
<title>0</title>
<path fill="none" stroke="#ced856" stroke-width="2" d="M694,-468C694,-468 634,-468 634,-468 628,-468 622,-462 622,-456 622,-456 622,-444 622,-444 622,-438 628,-432 634,-432 634,-432 694,-432 694,-432 700,-432 706,-438 706,-444 706,-444 706,-456 706,-456 706,-462 700,-468 694,-468"/>
<text text-anchor="middle" x="664" y="-447.5" font-family="sans" font-size="10.00">variant_counts</text>
</g>
<!-- 8 -->
<g id="node9" class="node">
<title>8</title>
<path fill="none" stroke="#56d86b" stroke-width="2" d="M504,-108C504,-108 454,-108 454,-108 448,-108 442,-102 442,-96 442,-96 442,-84 442,-84 442,-78 448,-72 454,-72 454,-72 504,-72 504,-72 510,-72 516,-78 516,-84 516,-84 516,-96 516,-96 516,-102 510,-108 504,-108"/>
<text text-anchor="middle" x="479" y="-87.5" font-family="sans" font-size="10.00">sphinx_build</text>
</g>
<!-- 0&#45;&gt;8 -->
<g id="edge13" class="edge">
<title>0&#45;&gt;8</title>
<path fill="none" stroke="grey" stroke-width="2" d="M680.92,-431.85C703.87,-406.71 742,-357.35 742,-307 742,-307 742,-307 742,-233 742,-136.11 602.09,-105.02 526.36,-95.28"/>
<polygon fill="grey" stroke="grey" stroke-width="2" points="526.47,-91.77 516.12,-94.05 525.63,-98.72 526.47,-91.77"/>
</g>
<!-- 10 -->
<g id="node11" class="node">
<title>10</title>
<path fill="none" stroke="#56d8d0" stroke-width="2" d="M289,-324C289,-324 239,-324 239,-324 233,-324 227,-318 227,-312 227,-312 227,-300 227,-300 227,-294 233,-288 239,-288 239,-288 289,-288 289,-288 295,-288 301,-294 301,-300 301,-300 301,-312 301,-312 301,-318 295,-324 289,-324"/>
<text text-anchor="middle" x="264" y="-303.5" font-family="sans" font-size="10.00">make_nblink</text>
</g>
<!-- 0&#45;&gt;10 -->
<g id="edge24" class="edge">
<title>0&#45;&gt;10</title>
<path fill="none" stroke="grey" stroke-width="2" d="M621.95,-434.07C546.64,-407.34 389.31,-351.48 310.74,-323.59"/>
<polygon fill="grey" stroke="grey" stroke-width="2" points="311.69,-320.22 301.1,-320.17 309.35,-326.81 311.69,-320.22"/>
</g>
<!-- 12 -->
<g id="node13" class="node">
<title>12</title>
<path fill="none" stroke="#56d8a9" stroke-width="2" d="M439.5,-180C439.5,-180 396.5,-180 396.5,-180 390.5,-180 384.5,-174 384.5,-168 384.5,-168 384.5,-156 384.5,-156 384.5,-150 390.5,-144 396.5,-144 396.5,-144 439.5,-144 439.5,-144 445.5,-144 451.5,-150 451.5,-156 451.5,-156 451.5,-168 451.5,-168 451.5,-174 445.5,-180 439.5,-180"/>
<text text-anchor="middle" x="418" y="-159.5" font-family="sans" font-size="10.00">docs_index</text>
</g>
<!-- 0&#45;&gt;12 -->
<g id="edge31" class="edge">
<title>0&#45;&gt;12</title>
<path fill="none" stroke="grey" stroke-width="2" d="M656.18,-431.67C647.57,-413.27 632.85,-383.66 617,-360 570.63,-290.79 558.89,-271.77 497,-216 484.62,-204.84 469.73,-194.25 456.23,-185.51"/>
<polygon fill="grey" stroke="grey" stroke-width="2" points="457.92,-182.43 447.59,-180.04 454.17,-188.35 457.92,-182.43"/>
</g>
<!-- 13 -->
<g id="node14" class="node">
<title>13</title>
<path fill="none" stroke="#afd856" stroke-width="2" d="M637,-36C637,-36 607,-36 607,-36 601,-36 595,-30 595,-24 595,-24 595,-12 595,-12 595,-6 601,0 607,0 607,0 637,0 637,0 643,0 649,-6 649,-12 649,-12 649,-24 649,-24 649,-30 643,-36 637,-36"/>
<text text-anchor="middle" x="622" y="-15.5" font-family="sans" font-size="10.00">all</text>
</g>
<!-- 0&#45;&gt;13 -->
<g id="edge41" class="edge">
<title>0&#45;&gt;13</title>
<path fill="none" stroke="grey" stroke-width="2" d="M694.03,-431.94C707.65,-422.84 722.93,-410.52 733,-396 778.95,-329.72 772.28,-294.99 756,-216 741.93,-147.75 737.35,-126.56 694,-72 684.04,-59.46 670.41,-48.42 657.69,-39.7"/>
<polygon fill="grey" stroke="grey" stroke-width="2" points="659.36,-36.62 649.08,-34.05 655.52,-42.47 659.36,-36.62"/>
</g>
<!-- 14 -->
<g id="node15" class="node">
<title>14</title>
<path fill="none" stroke="#d89c56" stroke-width="2" d="M595.5,-396C595.5,-396 544.5,-396 544.5,-396 538.5,-396 532.5,-390 532.5,-384 532.5,-384 532.5,-372 532.5,-372 532.5,-366 538.5,-360 544.5,-360 544.5,-360 595.5,-360 595.5,-360 601.5,-360 607.5,-366 607.5,-372 607.5,-372 607.5,-384 607.5,-384 607.5,-390 601.5,-396 595.5,-396"/>
<text text-anchor="middle" x="570" y="-375.5" font-family="sans" font-size="10.00">prob_escape</text>
</g>
<!-- 0&#45;&gt;14 -->
<g id="edge43" class="edge">
<title>0&#45;&gt;14</title>
<path fill="none" stroke="grey" stroke-width="2" d="M640.76,-431.7C628.81,-422.8 614.08,-411.82 601.15,-402.2"/>
<polygon fill="grey" stroke="grey" stroke-width="2" points="603.08,-399.27 592.97,-396.1 598.9,-404.88 603.08,-399.27"/>
</g>
<!-- 1 -->
<g id="node2" class="node">
<title>1</title>
<path fill="none" stroke="#567bd8" stroke-width="2" d="M640.5,-540C640.5,-540 575.5,-540 575.5,-540 569.5,-540 563.5,-534 563.5,-528 563.5,-528 563.5,-516 563.5,-516 563.5,-510 569.5,-504 575.5,-504 575.5,-504 640.5,-504 640.5,-504 646.5,-504 652.5,-510 652.5,-516 652.5,-516 652.5,-528 652.5,-528 652.5,-534 646.5,-540 640.5,-540"/>
<text text-anchor="middle" x="608" y="-519.5" font-family="sans" font-size="10.00">count_barcodes</text>
</g>
<!-- 1&#45;&gt;0 -->
<g id="edge3" class="edge">
<title>1&#45;&gt;0</title>
<path fill="none" stroke="grey" stroke-width="2" d="M621.84,-503.7C628.49,-495.39 636.58,-485.28 643.89,-476.14"/>
<polygon fill="grey" stroke="grey" stroke-width="2" points="646.8,-478.1 650.32,-468.1 641.34,-473.73 646.8,-478.1"/>
</g>
<!-- 2 -->
<g id="node3" class="node">
<title>2</title>
<path fill="none" stroke="#56d88a" stroke-width="2" d="M583.5,-612C583.5,-612 494.5,-612 494.5,-612 488.5,-612 482.5,-606 482.5,-600 482.5,-600 482.5,-588 482.5,-588 482.5,-582 488.5,-576 494.5,-576 494.5,-576 583.5,-576 583.5,-576 589.5,-576 595.5,-582 595.5,-588 595.5,-588 595.5,-600 595.5,-600 595.5,-606 589.5,-612 583.5,-612"/>
<text text-anchor="middle" x="539" y="-591.5" font-family="sans" font-size="10.00">build_codon_variants</text>
</g>
<!-- 2&#45;&gt;0 -->
<g id="edge2" class="edge">
<title>2&#45;&gt;0</title>
<path fill="none" stroke="grey" stroke-width="2" d="M595.59,-582.85C620.25,-575.34 646.92,-562.36 662,-540 674.12,-522.03 673.56,-497.03 670.57,-478.11"/>
<polygon fill="grey" stroke="grey" stroke-width="2" points="673.97,-477.21 668.67,-468.03 667.09,-478.51 673.97,-477.21"/>
</g>
<!-- 2&#45;&gt;1 -->
<g id="edge4" class="edge">
<title>2&#45;&gt;1</title>
<path fill="none" stroke="grey" stroke-width="2" d="M556.06,-575.7C564.5,-567.14 574.82,-556.66 584.04,-547.3"/>
<polygon fill="grey" stroke="grey" stroke-width="2" points="586.61,-549.68 591.14,-540.1 581.63,-544.77 586.61,-549.68"/>
</g>
<!-- 2&#45;&gt;8 -->
<g id="edge16" class="edge">
<title>2&#45;&gt;8</title>
<path fill="none" stroke="grey" stroke-width="2" d="M595.82,-581.31C623.83,-573.32 656.71,-560.38 681,-540 773.02,-462.77 818,-427.13 818,-307 818,-307 818,-307 818,-233 818,-107.99 619.47,-91.15 526.27,-90.14"/>
<polygon fill="grey" stroke="grey" stroke-width="2" points="526.27,-86.64 516.25,-90.08 526.23,-93.64 526.27,-86.64"/>
</g>
<!-- 2&#45;&gt;10 -->
<g id="edge25" class="edge">
<title>2&#45;&gt;10</title>
<path fill="none" stroke="grey" stroke-width="2" d="M518.15,-575.89C506.12,-565.77 490.87,-552.52 478,-540 403.84,-467.86 322.96,-375.74 285.39,-332.09"/>
<polygon fill="grey" stroke="grey" stroke-width="2" points="287.85,-329.59 278.68,-324.28 282.54,-334.15 287.85,-329.59"/>
</g>
<!-- 2&#45;&gt;12 -->
<g id="edge34" class="edge">
<title>2&#45;&gt;12</title>
<path fill="none" stroke="grey" stroke-width="2" d="M534.18,-575.88C515.59,-509.8 448.41,-271.08 425.62,-190.1"/>
<polygon fill="grey" stroke="grey" stroke-width="2" points="428.91,-188.85 422.83,-180.17 422.17,-190.75 428.91,-188.85"/>
</g>
<!-- 2&#45;&gt;14 -->
<g id="edge42" class="edge">
<title>2&#45;&gt;14</title>
<path fill="none" stroke="grey" stroke-width="2" d="M541.48,-575.85C546.85,-538.83 559.54,-451.18 566.03,-406.39"/>
<polygon fill="grey" stroke="grey" stroke-width="2" points="569.53,-406.63 567.5,-396.23 562.61,-405.63 569.53,-406.63"/>
</g>
<!-- 3 -->
<g id="node4" class="node">
<title>3</title>
<path fill="none" stroke="#d85656" stroke-width="2" d="M410,-684C410,-684 308,-684 308,-684 302,-684 296,-678 296,-672 296,-672 296,-660 296,-660 296,-654 302,-648 308,-648 308,-648 410,-648 410,-648 416,-648 422,-654 422,-660 422,-660 422,-672 422,-672 422,-678 416,-684 410,-684"/>
<text text-anchor="middle" x="359" y="-663.5" font-family="sans" font-size="10.00">build_pacbio_consensus</text>
</g>
<!-- 3&#45;&gt;2 -->
<g id="edge6" class="edge">
<title>3&#45;&gt;2</title>
<path fill="none" stroke="grey" stroke-width="2" d="M403.03,-647.88C427.97,-638.18 459.34,-625.98 485.66,-615.74"/>
<polygon fill="grey" stroke="grey" stroke-width="2" points="487.06,-618.95 495.11,-612.07 484.52,-612.43 487.06,-618.95"/>
</g>
<!-- 3&#45;&gt;8 -->
<g id="edge10" class="edge">
<title>3&#45;&gt;8</title>
<path fill="none" stroke="grey" stroke-width="2" d="M317.96,-647.98C229.75,-608.46 32.7,-502.84 66,-360 90.69,-254.08 91.18,-205.33 181,-144 221.02,-116.67 358.04,-101.21 431.53,-94.7"/>
<polygon fill="grey" stroke="grey" stroke-width="2" points="432.23,-98.16 441.89,-93.81 431.63,-91.18 432.23,-98.16"/>
</g>
<!-- 3&#45;&gt;10 -->
<g id="edge22" class="edge">
<title>3&#45;&gt;10</title>
<path fill="none" stroke="grey" stroke-width="2" d="M354.42,-647.73C339.12,-590.08 289.71,-403.89 271.14,-333.92"/>
<polygon fill="grey" stroke="grey" stroke-width="2" points="274.48,-332.86 268.54,-324.09 267.72,-334.66 274.48,-332.86"/>
</g>
<!-- 3&#45;&gt;12 -->
<g id="edge28" class="edge">
<title>3&#45;&gt;12</title>
<path fill="none" stroke="grey" stroke-width="2" d="M359.75,-647.74C362.54,-587.68 373.86,-382.51 404,-216 405.55,-207.44 407.78,-198.24 410,-189.94"/>
<polygon fill="grey" stroke="grey" stroke-width="2" points="413.45,-190.6 412.77,-180.03 406.71,-188.72 413.45,-190.6"/>
</g>
<!-- 4 -->
<g id="node5" class="node">
<title>4</title>
<path fill="none" stroke="#569ad8" stroke-width="2" d="M261,-756C261,-756 181,-756 181,-756 175,-756 169,-750 169,-744 169,-744 169,-732 169,-732 169,-726 175,-720 181,-720 181,-720 261,-720 261,-720 267,-720 273,-726 273,-732 273,-732 273,-744 273,-744 273,-750 267,-756 261,-756"/>
<text text-anchor="middle" x="221" y="-735.5" font-family="sans" font-size="10.00">analyze_pacbio_ccs</text>
</g>
<!-- 4&#45;&gt;3 -->
<g id="edge7" class="edge">
<title>4&#45;&gt;3</title>
<path fill="none" stroke="grey" stroke-width="2" d="M254.76,-719.88C273.22,-710.51 296.28,-698.81 316.02,-688.8"/>
<polygon fill="grey" stroke="grey" stroke-width="2" points="317.78,-691.83 325.11,-684.19 314.61,-685.59 317.78,-691.83"/>
</g>
<!-- 4&#45;&gt;8 -->
<g id="edge20" class="edge">
<title>4&#45;&gt;8</title>
<path fill="none" stroke="grey" stroke-width="2" d="M168.91,-727.38C103.57,-711.97 0,-674.92 0,-595 0,-595 0,-595 0,-305 0,-117.15 310.88,-93.08 431.74,-90.82"/>
<polygon fill="grey" stroke="grey" stroke-width="2" points="431.86,-94.32 441.81,-90.68 431.76,-87.32 431.86,-94.32"/>
</g>
<!-- 4&#45;&gt;10 -->
<g id="edge26" class="edge">
<title>4&#45;&gt;10</title>
<path fill="none" stroke="grey" stroke-width="2" d="M212.91,-719.95C201.22,-693.72 181,-641.61 181,-595 181,-595 181,-595 181,-449 181,-402.74 214.24,-358.16 238.65,-331.66"/>
<polygon fill="grey" stroke="grey" stroke-width="2" points="241.24,-334.02 245.58,-324.36 236.16,-329.2 241.24,-334.02"/>
</g>
<!-- 4&#45;&gt;12 -->
<g id="edge37" class="edge">
<title>4&#45;&gt;12</title>
<path fill="none" stroke="grey" stroke-width="2" d="M226.03,-719.68C245.41,-653.47 317.96,-410.38 394,-216 397.39,-207.35 401.44,-198.07 405.24,-189.73"/>
<polygon fill="grey" stroke="grey" stroke-width="2" points="408.5,-191.01 409.53,-180.47 402.15,-188.07 408.5,-191.01"/>
</g>
<!-- 5 -->
<g id="node6" class="node">
<title>5</title>
<path fill="none" stroke="#d87556" stroke-width="2" d="M270,-828C270,-828 172,-828 172,-828 166,-828 160,-822 160,-816 160,-816 160,-804 160,-804 160,-798 166,-792 172,-792 172,-792 270,-792 270,-792 276,-792 282,-798 282,-804 282,-804 282,-816 282,-816 282,-822 276,-828 270,-828"/>
<text text-anchor="middle" x="221" y="-807.5" font-family="sans" font-size="10.00">align_parse_PacBio_ccs</text>
</g>
<!-- 5&#45;&gt;4 -->
<g id="edge9" class="edge">
<title>5&#45;&gt;4</title>
<path fill="none" stroke="grey" stroke-width="2" d="M221,-791.7C221,-783.98 221,-774.71 221,-766.11"/>
<polygon fill="grey" stroke="grey" stroke-width="2" points="224.5,-766.1 221,-756.1 217.5,-766.1 224.5,-766.1"/>
</g>
<!-- 6 -->
<g id="node7" class="node">
<title>6</title>
<path fill="none" stroke="#56c1d8" stroke-width="2" d="M572,-756C572,-756 506,-756 506,-756 500,-756 494,-750 494,-744 494,-744 494,-732 494,-732 494,-726 500,-720 506,-720 506,-720 572,-720 572,-720 578,-720 584,-726 584,-732 584,-732 584,-744 584,-744 584,-750 578,-756 572,-756"/>
<text text-anchor="middle" x="539" y="-735.5" font-family="sans" font-size="10.00">gene_sequence</text>
</g>
<!-- 6&#45;&gt;0 -->
<g id="edge1" class="edge">
<title>6&#45;&gt;0</title>
<path fill="none" stroke="grey" stroke-width="2" d="M557.28,-719.92C589.74,-688.2 656.32,-616.43 681,-540 687.62,-519.51 682.3,-495.48 675.91,-477.56"/>
<polygon fill="grey" stroke="grey" stroke-width="2" points="679.1,-476.1 672.22,-468.04 672.57,-478.63 679.1,-476.1"/>
</g>
<!-- 6&#45;&gt;2 -->
<g id="edge5" class="edge">
<title>6&#45;&gt;2</title>
<path fill="none" stroke="grey" stroke-width="2" d="M539,-719.87C539,-695.67 539,-651.21 539,-622.39"/>
<polygon fill="grey" stroke="grey" stroke-width="2" points="542.5,-622.19 539,-612.19 535.5,-622.19 542.5,-622.19"/>
</g>
<!-- 6&#45;&gt;3 -->
<g id="edge8" class="edge">
<title>6&#45;&gt;3</title>
<path fill="none" stroke="grey" stroke-width="2" d="M494.97,-719.88C470.03,-710.18 438.66,-697.98 412.34,-687.74"/>
<polygon fill="grey" stroke="grey" stroke-width="2" points="413.48,-684.43 402.89,-684.07 410.94,-690.95 413.48,-684.43"/>
</g>
<!-- 6&#45;&gt;8 -->
<g id="edge19" class="edge">
<title>6&#45;&gt;8</title>
<path fill="none" stroke="grey" stroke-width="2" d="M584.08,-736.7C671.6,-733.48 856,-712.74 856,-595 856,-595 856,-595 856,-233 856,-185.79 837.52,-169.83 798,-144 753.98,-115.23 603.56,-100.18 526.03,-94.18"/>
<polygon fill="grey" stroke="grey" stroke-width="2" points="526.28,-90.69 516.05,-93.43 525.76,-97.67 526.28,-90.69"/>
</g>
<!-- 6&#45;&gt;12 -->
<g id="edge36" class="edge">
<title>6&#45;&gt;12</title>
<path fill="none" stroke="grey" stroke-width="2" d="M520.14,-719.73C495.09,-694.82 454,-646.14 454,-595 454,-595 454,-595 454,-449 454,-398.84 431.93,-251.87 422.35,-190.46"/>
<polygon fill="grey" stroke="grey" stroke-width="2" points="425.77,-189.7 420.77,-180.36 418.86,-190.78 425.77,-189.7"/>
</g>
<!-- 7 -->
<g id="node8" class="node">
<title>7</title>
<path fill="none" stroke="#d8bc56" stroke-width="2" d="M140.5,-396C140.5,-396 87.5,-396 87.5,-396 81.5,-396 75.5,-390 75.5,-384 75.5,-384 75.5,-372 75.5,-372 75.5,-366 81.5,-360 87.5,-360 87.5,-360 140.5,-360 140.5,-360 146.5,-360 152.5,-366 152.5,-372 152.5,-372 152.5,-384 152.5,-384 152.5,-390 146.5,-396 140.5,-396"/>
<text text-anchor="middle" x="114" y="-375.5" font-family="sans" font-size="10.00">fit_polyclonal</text>
</g>
<!-- 7&#45;&gt;8 -->
<g id="edge12" class="edge">
<title>7&#45;&gt;8</title>
<path fill="none" stroke="grey" stroke-width="2" d="M114.86,-359.82C116.2,-341.56 119.57,-312.06 128,-288 154.35,-212.75 165.86,-183.71 235,-144 296.89,-108.45 380.11,-96.7 431.61,-92.85"/>
<polygon fill="grey" stroke="grey" stroke-width="2" points="432.05,-96.33 441.79,-92.16 431.58,-89.34 432.05,-96.33"/>
</g>
<!-- 7&#45;&gt;10 -->
<g id="edge27" class="edge">
<title>7&#45;&gt;10</title>
<path fill="none" stroke="grey" stroke-width="2" d="M150.69,-359.88C171.02,-350.39 196.47,-338.51 218.1,-328.42"/>
<polygon fill="grey" stroke="grey" stroke-width="2" points="219.84,-331.47 227.43,-324.07 216.88,-325.13 219.84,-331.47"/>
</g>
<!-- 7&#45;&gt;12 -->
<g id="edge30" class="edge">
<title>7&#45;&gt;12</title>
<path fill="none" stroke="grey" stroke-width="2" d="M119.15,-359.89C130.04,-326.75 158.61,-253.75 209,-216 257.64,-179.56 328.64,-168.02 374.08,-164.46"/>
<polygon fill="grey" stroke="grey" stroke-width="2" points="374.48,-167.94 384.22,-163.76 374,-160.96 374.48,-167.94"/>
</g>
<!-- 7&#45;&gt;13 -->
<g id="edge40" class="edge">
<title>7&#45;&gt;13</title>
<path fill="none" stroke="grey" stroke-width="2" d="M112.77,-359.81C110.66,-315.38 111.99,-196.49 181,-144 306.93,-48.21 503.26,-25.81 584.68,-20.59"/>
<polygon fill="grey" stroke="grey" stroke-width="2" points="585.15,-24.06 594.93,-19.98 584.74,-17.08 585.15,-24.06"/>
</g>
<!-- 8&#45;&gt;13 -->
<g id="edge38" class="edge">
<title>8&#45;&gt;13</title>
<path fill="none" stroke="grey" stroke-width="2" d="M513.98,-71.88C535.83,-61.18 563.9,-47.44 585.95,-36.65"/>
<polygon fill="grey" stroke="grey" stroke-width="2" points="587.55,-39.76 594.99,-32.22 584.47,-33.47 587.55,-39.76"/>
</g>
<!-- 9 -->
<g id="node10" class="node">
<title>9</title>
<path fill="none" stroke="#68d856" stroke-width="2" d="M264,-252C264,-252 230,-252 230,-252 224,-252 218,-246 218,-240 218,-240 218,-228 218,-228 218,-222 224,-216 230,-216 230,-216 264,-216 264,-216 270,-216 276,-222 276,-228 276,-228 276,-240 276,-240 276,-246 270,-252 264,-252"/>
<text text-anchor="middle" x="247" y="-231.5" font-family="sans" font-size="10.00">subindex</text>
</g>
<!-- 9&#45;&gt;8 -->
<g id="edge14" class="edge">
<title>9&#45;&gt;8</title>
<path fill="none" stroke="grey" stroke-width="2" d="M270.17,-215.66C295.54,-197 337.72,-166.93 376,-144 394.6,-132.86 415.79,-121.71 434.1,-112.53"/>
<polygon fill="grey" stroke="grey" stroke-width="2" points="435.71,-115.63 443.11,-108.05 432.6,-109.37 435.71,-115.63"/>
</g>
<!-- 9&#45;&gt;12 -->
<g id="edge32" class="edge">
<title>9&#45;&gt;12</title>
<path fill="none" stroke="grey" stroke-width="2" d="M276.01,-221.13C303.21,-209.99 344.22,-193.2 375.18,-180.53"/>
<polygon fill="grey" stroke="grey" stroke-width="2" points="376.52,-183.76 384.44,-176.74 373.86,-177.29 376.52,-183.76"/>
</g>
<!-- 10&#45;&gt;8 -->
<g id="edge18" class="edge">
<title>10&#45;&gt;8</title>
<path fill="none" stroke="grey" stroke-width="2" d="M238.62,-287.95C227.29,-278.79 215.12,-266.4 209,-252 202.74,-237.28 201.45,-230.11 209,-216 252.5,-134.73 366.55,-106.02 431.66,-96.09"/>
<polygon fill="grey" stroke="grey" stroke-width="2" points="432.27,-99.54 441.67,-94.65 431.27,-92.61 432.27,-99.54"/>
</g>
<!-- 10&#45;&gt;9 -->
<g id="edge21" class="edge">
<title>10&#45;&gt;9</title>
<path fill="none" stroke="grey" stroke-width="2" d="M259.8,-287.7C257.9,-279.9 255.62,-270.51 253.52,-261.83"/>
<polygon fill="grey" stroke="grey" stroke-width="2" points="256.92,-261 251.15,-252.1 250.11,-262.65 256.92,-261"/>
</g>
<!-- 10&#45;&gt;12 -->
<g id="edge35" class="edge">
<title>10&#45;&gt;12</title>
<path fill="none" stroke="grey" stroke-width="2" d="M273.32,-287.98C284.44,-268.77 304.52,-237.43 328,-216 341.88,-203.33 359.28,-192.23 375.07,-183.51"/>
<polygon fill="grey" stroke="grey" stroke-width="2" points="376.97,-186.46 384.14,-178.65 373.67,-180.29 376.97,-186.46"/>
</g>
<!-- 11 -->
<g id="node12" class="node">
<title>11</title>
<path fill="none" stroke="#88d856" stroke-width="2" d="M626,-252C626,-252 572,-252 572,-252 566,-252 560,-246 560,-240 560,-240 560,-228 560,-228 560,-222 566,-216 572,-216 572,-216 626,-216 626,-216 632,-216 638,-222 638,-228 638,-228 638,-240 638,-240 638,-246 632,-252 626,-252"/>
<text text-anchor="middle" x="599" y="-231.5" font-family="sans" font-size="10.00">make_graphs</text>
</g>
<!-- 11&#45;&gt;8 -->
<g id="edge15" class="edge">
<title>11&#45;&gt;8</title>
<path fill="none" stroke="grey" stroke-width="2" d="M584.53,-215.87C563.53,-191.03 524.5,-144.85 500.25,-116.14"/>
<polygon fill="grey" stroke="grey" stroke-width="2" points="502.65,-113.57 493.53,-108.19 497.31,-118.09 502.65,-113.57"/>
</g>
<!-- 11&#45;&gt;12 -->
<g id="edge33" class="edge">
<title>11&#45;&gt;12</title>
<path fill="none" stroke="grey" stroke-width="2" d="M559.73,-217.81C530.64,-206.56 491.03,-191.25 461.08,-179.66"/>
<polygon fill="grey" stroke="grey" stroke-width="2" points="462.31,-176.38 451.72,-176.04 459.79,-182.91 462.31,-176.38"/>
</g>
<!-- 12&#45;&gt;8 -->
<g id="edge17" class="edge">
<title>12&#45;&gt;8</title>
<path fill="none" stroke="grey" stroke-width="2" d="M433.08,-143.7C440.39,-135.3 449.31,-125.07 457.34,-115.86"/>
<polygon fill="grey" stroke="grey" stroke-width="2" points="460.16,-117.94 464.09,-108.1 454.89,-113.34 460.16,-117.94"/>
</g>
<!-- 14&#45;&gt;8 -->
<g id="edge11" class="edge">
<title>14&#45;&gt;8</title>
<path fill="none" stroke="grey" stroke-width="2" d="M589.36,-359.54C619.74,-329.91 672.65,-267.95 647,-216 622.07,-165.49 565.78,-130.34 525.22,-110.45"/>
<polygon fill="grey" stroke="grey" stroke-width="2" points="526.59,-107.22 516.05,-106.08 523.57,-113.54 526.59,-107.22"/>
</g>
<!-- 14&#45;&gt;10 -->
<g id="edge23" class="edge">
<title>14&#45;&gt;10</title>
<path fill="none" stroke="grey" stroke-width="2" d="M532.48,-368.42C476.81,-355.68 372.38,-331.79 311.47,-317.86"/>
<polygon fill="grey" stroke="grey" stroke-width="2" points="311.88,-314.36 301.35,-315.54 310.32,-321.19 311.88,-314.36"/>
</g>
<!-- 14&#45;&gt;12 -->
<g id="edge29" class="edge">
<title>14&#45;&gt;12</title>
<path fill="none" stroke="grey" stroke-width="2" d="M560.93,-359.74C544.61,-329.35 508.42,-264.91 470,-216 462.24,-206.12 452.85,-196.08 444.2,-187.44"/>
<polygon fill="grey" stroke="grey" stroke-width="2" points="446.44,-184.73 436.85,-180.24 441.55,-189.74 446.44,-184.73"/>
</g>
<!-- 14&#45;&gt;13 -->
<g id="edge39" class="edge">
<title>14&#45;&gt;13</title>
<path fill="none" stroke="grey" stroke-width="2" d="M603.81,-360C643.51,-337.36 704,-293.3 704,-235 704,-235 704,-235 704,-161 704,-114.88 671.16,-70.26 647.04,-43.72"/>
<polygon fill="grey" stroke="grey" stroke-width="2" points="649.59,-41.31 640.2,-36.4 644.48,-46.1 649.59,-41.31"/>
</g>
</g>
</svg>
