<?xml version="1.0" encoding="UTF-8" standalone="no"?>
<!DOCTYPE svg PUBLIC "-//W3C//DTD SVG 1.1//EN"
 "http://www.w3.org/Graphics/SVG/1.1/DTD/svg11.dtd">
<!-- Generated by graphviz version 3.0.0 (20220315.2325)
 -->
<!-- Title: snakemake_dag Pages: 1 -->
<svg width="1422pt" height="1124pt"
 viewBox="0.00 0.00 1422.00 1124.00" xmlns="http://www.w3.org/2000/svg" xmlns:xlink="http://www.w3.org/1999/xlink">
<g id="graph0" class="graph" transform="scale(1 1) rotate(0) translate(4 1120)">
<title>snakemake_dag</title>
<polygon fill="white" stroke="transparent" points="-4,4 -4,-1120 1418,-1120 1418,4 -4,4"/>
<!-- 0 -->
<g id="node1" class="node">
<title>0</title>
<path fill="none" stroke="#bed856" stroke-width="2" d="M1315,-36C1315,-36 1285,-36 1285,-36 1279,-36 1273,-30 1273,-24 1273,-24 1273,-12 1273,-12 1273,-6 1279,0 1285,0 1285,0 1315,0 1315,0 1321,0 1327,-6 1327,-12 1327,-12 1327,-24 1327,-24 1327,-30 1321,-36 1315,-36"/>
<text text-anchor="middle" x="1300" y="-15.5" font-family="sans" font-size="10.00">all</text>
</g>
<!-- 1 -->
<g id="node2" class="node">
<title>1</title>
<path fill="none" stroke="#56d8a2" stroke-width="2" d="M1036,-756C1036,-756 976,-756 976,-756 970,-756 964,-750 964,-744 964,-744 964,-732 964,-732 964,-726 970,-720 976,-720 976,-720 1036,-720 1036,-720 1042,-720 1048,-726 1048,-732 1048,-732 1048,-744 1048,-744 1048,-750 1042,-756 1036,-756"/>
<text text-anchor="middle" x="1006" y="-735.5" font-family="sans" font-size="10.00">variant_counts</text>
</g>
<!-- 1&#45;&gt;0 -->
<g id="edge2" class="edge">
<title>1&#45;&gt;0</title>
<path fill="none" stroke="grey" stroke-width="2" d="M1043.65,-719.89C1144.66,-671.14 1414,-521.05 1414,-307 1414,-307 1414,-307 1414,-161 1414,-110 1368.73,-66.88 1335.24,-41.97"/>
<polygon fill="grey" stroke="grey" stroke-width="2" points="1337.17,-39.05 1327.02,-36.04 1333.08,-44.73 1337.17,-39.05"/>
</g>
<!-- 9 -->
<g id="node10" class="node">
<title>9</title>
<path fill="none" stroke="#566bd8" stroke-width="2" d="M861.5,-684C861.5,-684 762.5,-684 762.5,-684 756.5,-684 750.5,-678 750.5,-672 750.5,-672 750.5,-660 750.5,-660 750.5,-654 756.5,-648 762.5,-648 762.5,-648 861.5,-648 861.5,-648 867.5,-648 873.5,-654 873.5,-660 873.5,-660 873.5,-672 873.5,-672 873.5,-678 867.5,-684 861.5,-684"/>
<text text-anchor="middle" x="812" y="-663.5" font-family="sans" font-size="10.00">analyze_variant_counts</text>
</g>
<!-- 1&#45;&gt;9 -->
<g id="edge16" class="edge">
<title>1&#45;&gt;9</title>
<path fill="none" stroke="grey" stroke-width="2" d="M963.9,-721.81C936.05,-711.76 899.19,-698.46 868.75,-687.48"/>
<polygon fill="grey" stroke="grey" stroke-width="2" points="869.71,-684.1 859.12,-684 867.34,-690.69 869.71,-684.1"/>
</g>
<!-- 12 -->
<g id="node13" class="node">
<title>12</title>
<path fill="none" stroke="#d89c56" stroke-width="2" d="M595.5,-540C595.5,-540 544.5,-540 544.5,-540 538.5,-540 532.5,-534 532.5,-528 532.5,-528 532.5,-516 532.5,-516 532.5,-510 538.5,-504 544.5,-504 544.5,-504 595.5,-504 595.5,-504 601.5,-504 607.5,-510 607.5,-516 607.5,-516 607.5,-528 607.5,-528 607.5,-534 601.5,-540 595.5,-540"/>
<text text-anchor="middle" x="570" y="-519.5" font-family="sans" font-size="10.00">prob_escape</text>
</g>
<!-- 1&#45;&gt;12 -->
<g id="edge22" class="edge">
<title>1&#45;&gt;12</title>
<path fill="none" stroke="grey" stroke-width="2" d="M963.89,-735.6C909.74,-732.26 814.12,-721.11 742,-684 676.51,-650.3 618.05,-584.36 589.14,-548.2"/>
<polygon fill="grey" stroke="grey" stroke-width="2" points="591.7,-545.8 582.76,-540.11 586.2,-550.13 591.7,-545.8"/>
</g>
<!-- 15 -->
<g id="node16" class="node">
<title>15</title>
<path fill="none" stroke="#d8c356" stroke-width="2" d="M1193.5,-540C1193.5,-540 1146.5,-540 1146.5,-540 1140.5,-540 1134.5,-534 1134.5,-528 1134.5,-528 1134.5,-516 1134.5,-516 1134.5,-510 1140.5,-504 1146.5,-504 1146.5,-504 1193.5,-504 1193.5,-504 1199.5,-504 1205.5,-510 1205.5,-516 1205.5,-516 1205.5,-528 1205.5,-528 1205.5,-534 1199.5,-540 1193.5,-540"/>
<text text-anchor="middle" x="1170" y="-519.5" font-family="sans" font-size="10.00">func_scores</text>
</g>
<!-- 1&#45;&gt;15 -->
<g id="edge28" class="edge">
<title>1&#45;&gt;15</title>
<path fill="none" stroke="grey" stroke-width="2" d="M1022.03,-719.83C1043.69,-696.31 1083.02,-652.36 1113,-612 1128.19,-591.55 1143.66,-567.11 1154.65,-549.02"/>
<polygon fill="grey" stroke="grey" stroke-width="2" points="1157.8,-550.57 1159.96,-540.2 1151.8,-546.96 1157.8,-550.57"/>
</g>
<!-- 16 -->
<g id="node17" class="node">
<title>16</title>
<path fill="none" stroke="#56d8b9" stroke-width="2" d="M1030,-108C1030,-108 980,-108 980,-108 974,-108 968,-102 968,-96 968,-96 968,-84 968,-84 968,-78 974,-72 980,-72 980,-72 1030,-72 1030,-72 1036,-72 1042,-78 1042,-84 1042,-84 1042,-96 1042,-96 1042,-102 1036,-108 1030,-108"/>
<text text-anchor="middle" x="1005" y="-87.5" font-family="sans" font-size="10.00">sphinx_build</text>
</g>
<!-- 1&#45;&gt;16 -->
<g id="edge44" class="edge">
<title>1&#45;&gt;16</title>
<path fill="none" stroke="grey" stroke-width="2" d="M993.1,-719.75C976.32,-696.49 947.24,-653.21 931,-612 916.17,-574.37 912,-563.45 912,-523 912,-523 912,-523 912,-449 912,-408.55 909.33,-394.15 931,-360 973.48,-293.05 1037.78,-323.04 1073,-252 1082.25,-233.33 1071.19,-155.92 1065,-144 1059.15,-132.73 1049.82,-122.75 1040.25,-114.57"/>
<polygon fill="grey" stroke="grey" stroke-width="2" points="1042.22,-111.66 1032.23,-108.14 1037.85,-117.13 1042.22,-111.66"/>
</g>
<!-- 22 -->
<g id="node23" class="node">
<title>22</title>
<path fill="none" stroke="#a7d856" stroke-width="2" d="M750.5,-180C750.5,-180 707.5,-180 707.5,-180 701.5,-180 695.5,-174 695.5,-168 695.5,-168 695.5,-156 695.5,-156 695.5,-150 701.5,-144 707.5,-144 707.5,-144 750.5,-144 750.5,-144 756.5,-144 762.5,-150 762.5,-156 762.5,-156 762.5,-168 762.5,-168 762.5,-174 756.5,-180 750.5,-180"/>
<text text-anchor="middle" x="729" y="-159.5" font-family="sans" font-size="10.00">docs_index</text>
</g>
<!-- 1&#45;&gt;22 -->
<g id="edge72" class="edge">
<title>1&#45;&gt;22</title>
<path fill="none" stroke="grey" stroke-width="2" d="M970.46,-719.82C955.08,-710.92 937.92,-698.79 926,-684 786.95,-511.45 839.23,-420.56 754,-216 750.3,-207.13 745.93,-197.59 741.89,-189.08"/>
<polygon fill="grey" stroke="grey" stroke-width="2" points="745.01,-187.49 737.51,-180.01 738.7,-190.53 745.01,-187.49"/>
</g>
<!-- 2 -->
<g id="node3" class="node">
<title>2</title>
<path fill="none" stroke="#56b1d8" stroke-width="2" d="M917.5,-828C917.5,-828 852.5,-828 852.5,-828 846.5,-828 840.5,-822 840.5,-816 840.5,-816 840.5,-804 840.5,-804 840.5,-798 846.5,-792 852.5,-792 852.5,-792 917.5,-792 917.5,-792 923.5,-792 929.5,-798 929.5,-804 929.5,-804 929.5,-816 929.5,-816 929.5,-822 923.5,-828 917.5,-828"/>
<text text-anchor="middle" x="885" y="-807.5" font-family="sans" font-size="10.00">count_barcodes</text>
</g>
<!-- 2&#45;&gt;1 -->
<g id="edge8" class="edge">
<title>2&#45;&gt;1</title>
<path fill="none" stroke="grey" stroke-width="2" d="M914.6,-791.88C930.57,-782.64 950.46,-771.13 967.61,-761.21"/>
<polygon fill="grey" stroke="grey" stroke-width="2" points="969.38,-764.23 976.29,-756.19 965.88,-758.17 969.38,-764.23"/>
</g>
<!-- 2&#45;&gt;9 -->
<g id="edge19" class="edge">
<title>2&#45;&gt;9</title>
<path fill="none" stroke="grey" stroke-width="2" d="M876.19,-791.87C863.59,-767.35 840.29,-722.03 825.5,-693.26"/>
<polygon fill="grey" stroke="grey" stroke-width="2" points="828.52,-691.48 820.84,-684.19 822.3,-694.68 828.52,-691.48"/>
</g>
<!-- 3 -->
<g id="node4" class="node">
<title>3</title>
<path fill="none" stroke="#d86e56" stroke-width="2" d="M893.5,-900C893.5,-900 804.5,-900 804.5,-900 798.5,-900 792.5,-894 792.5,-888 792.5,-888 792.5,-876 792.5,-876 792.5,-870 798.5,-864 804.5,-864 804.5,-864 893.5,-864 893.5,-864 899.5,-864 905.5,-870 905.5,-876 905.5,-876 905.5,-888 905.5,-888 905.5,-894 899.5,-900 893.5,-900"/>
<text text-anchor="middle" x="849" y="-879.5" font-family="sans" font-size="10.00">build_codon_variants</text>
</g>
<!-- 3&#45;&gt;1 -->
<g id="edge6" class="edge">
<title>3&#45;&gt;1</title>
<path fill="none" stroke="grey" stroke-width="2" d="M885.35,-863.82C902.67,-854.62 923.04,-842.25 939,-828 959.67,-809.54 978.2,-783.86 990.5,-764.83"/>
<polygon fill="grey" stroke="grey" stroke-width="2" points="993.48,-766.66 995.86,-756.34 987.56,-762.92 993.48,-766.66"/>
</g>
<!-- 3&#45;&gt;2 -->
<g id="edge9" class="edge">
<title>3&#45;&gt;2</title>
<path fill="none" stroke="grey" stroke-width="2" d="M857.9,-863.7C862,-855.73 866.95,-846.1 871.49,-837.26"/>
<polygon fill="grey" stroke="grey" stroke-width="2" points="874.74,-838.6 876.2,-828.1 868.52,-835.4 874.74,-838.6"/>
</g>
<!-- 3&#45;&gt;9 -->
<g id="edge18" class="edge">
<title>3&#45;&gt;9</title>
<path fill="none" stroke="grey" stroke-width="2" d="M842.5,-863.56C838.91,-853.33 834.66,-840.08 832,-828 821.76,-781.54 816.32,-726.3 813.81,-694.09"/>
<polygon fill="grey" stroke="grey" stroke-width="2" points="817.3,-693.81 813.07,-684.1 810.32,-694.33 817.3,-693.81"/>
</g>
<!-- 3&#45;&gt;12 -->
<g id="edge25" class="edge">
<title>3&#45;&gt;12</title>
<path fill="none" stroke="grey" stroke-width="2" d="M792.34,-876.09C726.15,-869.22 622.08,-854.49 594,-828 564.2,-799.89 570,-779.97 570,-739 570,-739 570,-739 570,-665 570,-625 570,-578.65 570,-550.08"/>
<polygon fill="grey" stroke="grey" stroke-width="2" points="573.5,-550.05 570,-540.05 566.5,-550.05 573.5,-550.05"/>
</g>
<!-- 3&#45;&gt;15 -->
<g id="edge31" class="edge">
<title>3&#45;&gt;15</title>
<path fill="none" stroke="grey" stroke-width="2" d="M894.76,-863.9C917.49,-854.6 944.95,-842.12 968,-828 1011.39,-801.42 1024.06,-794.78 1057,-756 1111.79,-691.49 1147.11,-595.85 1161.96,-549.76"/>
<polygon fill="grey" stroke="grey" stroke-width="2" points="1165.31,-550.77 1164.98,-540.18 1158.63,-548.67 1165.31,-550.77"/>
</g>
<!-- 3&#45;&gt;16 -->
<g id="edge37" class="edge">
<title>3&#45;&gt;16</title>
<path fill="none" stroke="grey" stroke-width="2" d="M905.88,-870.72C1007.11,-850.8 1208,-803.18 1208,-739 1208,-739 1208,-739 1208,-665 1208,-465 1300.47,-406 1238,-216 1226.36,-180.59 1224.62,-166.62 1195,-144 1153.35,-112.19 1093.6,-99.47 1052.27,-94.39"/>
<polygon fill="grey" stroke="grey" stroke-width="2" points="1052.52,-90.89 1042.19,-93.25 1051.73,-97.85 1052.52,-90.89"/>
</g>
<!-- 20 -->
<g id="node21" class="node">
<title>20</title>
<path fill="none" stroke="#569ad8" stroke-width="2" d="M602,-324C602,-324 552,-324 552,-324 546,-324 540,-318 540,-312 540,-312 540,-300 540,-300 540,-294 546,-288 552,-288 552,-288 602,-288 602,-288 608,-288 614,-294 614,-300 614,-300 614,-312 614,-312 614,-318 608,-324 602,-324"/>
<text text-anchor="middle" x="577" y="-303.5" font-family="sans" font-size="10.00">make_nblink</text>
</g>
<!-- 3&#45;&gt;20 -->
<g id="edge55" class="edge">
<title>3&#45;&gt;20</title>
<path fill="none" stroke="grey" stroke-width="2" d="M792.5,-872.99C721.26,-859.34 608,-824.23 608,-739 608,-739 608,-739 608,-665 608,-561.35 634.36,-534.35 618,-432 612.42,-397.11 598.62,-358.75 588.56,-333.85"/>
<polygon fill="grey" stroke="grey" stroke-width="2" points="591.7,-332.27 584.65,-324.36 585.23,-334.94 591.7,-332.27"/>
</g>
<!-- 3&#45;&gt;22 -->
<g id="edge66" class="edge">
<title>3&#45;&gt;22</title>
<path fill="none" stroke="grey" stroke-width="2" d="M817.61,-863.94C780,-840.95 722,-796.22 722,-739 722,-739 722,-739 722,-449 722,-353.91 725.92,-241.09 727.89,-190.24"/>
<polygon fill="grey" stroke="grey" stroke-width="2" points="731.39,-190.21 728.29,-180.08 724.4,-189.94 731.39,-190.21"/>
</g>
<!-- 4 -->
<g id="node5" class="node">
<title>4</title>
<path fill="none" stroke="#56d892" stroke-width="2" d="M374,-972C374,-972 272,-972 272,-972 266,-972 260,-966 260,-960 260,-960 260,-948 260,-948 260,-942 266,-936 272,-936 272,-936 374,-936 374,-936 380,-936 386,-942 386,-948 386,-948 386,-960 386,-960 386,-966 380,-972 374,-972"/>
<text text-anchor="middle" x="323" y="-951.5" font-family="sans" font-size="10.00">build_pacbio_consensus</text>
</g>
<!-- 4&#45;&gt;3 -->
<g id="edge10" class="edge">
<title>4&#45;&gt;3</title>
<path fill="none" stroke="grey" stroke-width="2" d="M386.19,-944.59C486.21,-931.28 680.1,-905.48 782.28,-891.88"/>
<polygon fill="grey" stroke="grey" stroke-width="2" points="783.03,-895.31 792.48,-890.52 782.1,-888.37 783.03,-895.31"/>
</g>
<!-- 4&#45;&gt;16 -->
<g id="edge41" class="edge">
<title>4&#45;&gt;16</title>
<path fill="none" stroke="grey" stroke-width="2" d="M267.78,-935.89C246.79,-927.46 223.69,-915.68 206,-900 171.38,-869.31 152,-857.27 152,-811 152,-811 152,-811 152,-665 152,-568.4 114,-547.6 114,-451 114,-451 114,-451 114,-233 114,-187.41 126.29,-168.09 165,-144 232.37,-102.07 790.17,-93.14 957.64,-91.39"/>
<polygon fill="grey" stroke="grey" stroke-width="2" points="957.91,-94.89 967.87,-91.29 957.83,-87.89 957.91,-94.89"/>
</g>
<!-- 4&#45;&gt;20 -->
<g id="edge57" class="edge">
<title>4&#45;&gt;20</title>
<path fill="none" stroke="grey" stroke-width="2" d="M372.92,-935.87C423.39,-915.01 494,-874.48 494,-811 494,-811 494,-811 494,-665 494,-560.7 494.48,-532.6 522,-432 531.72,-396.47 549.9,-358.02 562.69,-333.29"/>
<polygon fill="grey" stroke="grey" stroke-width="2" points="565.91,-334.68 567.47,-324.2 559.72,-331.42 565.91,-334.68"/>
</g>
<!-- 4&#45;&gt;22 -->
<g id="edge69" class="edge">
<title>4&#45;&gt;22</title>
<path fill="none" stroke="grey" stroke-width="2" d="M289.44,-935.93C250.04,-913.23 190,-869.1 190,-811 190,-811 190,-811 190,-449 190,-300.01 292.41,-270.67 431,-216 517,-182.08 625.54,-169.75 685.02,-165.35"/>
<polygon fill="grey" stroke="grey" stroke-width="2" points="685.46,-168.83 695.19,-164.65 684.97,-161.85 685.46,-168.83"/>
</g>
<!-- 5 -->
<g id="node6" class="node">
<title>5</title>
<path fill="none" stroke="#d6d856" stroke-width="2" d="M135,-1044C135,-1044 55,-1044 55,-1044 49,-1044 43,-1038 43,-1032 43,-1032 43,-1020 43,-1020 43,-1014 49,-1008 55,-1008 55,-1008 135,-1008 135,-1008 141,-1008 147,-1014 147,-1020 147,-1020 147,-1032 147,-1032 147,-1038 141,-1044 135,-1044"/>
<text text-anchor="middle" x="95" y="-1023.5" font-family="sans" font-size="10.00">analyze_pacbio_ccs</text>
</g>
<!-- 5&#45;&gt;4 -->
<g id="edge13" class="edge">
<title>5&#45;&gt;4</title>
<path fill="none" stroke="grey" stroke-width="2" d="M147.02,-1009.03C179.94,-998.92 222.76,-985.78 257.92,-974.98"/>
<polygon fill="grey" stroke="grey" stroke-width="2" points="259.09,-978.28 267.62,-972 257.03,-971.59 259.09,-978.28"/>
</g>
<!-- 5&#45;&gt;16 -->
<g id="edge38" class="edge">
<title>5&#45;&gt;16</title>
<path fill="none" stroke="grey" stroke-width="2" d="M73.44,-1007.78C45.41,-983.28 0,-935.5 0,-883 0,-883 0,-883 0,-377 0,-260.11 23.85,-207.49 122,-144 192.37,-98.48 784.75,-92.05 957.75,-91.15"/>
<polygon fill="grey" stroke="grey" stroke-width="2" points="957.83,-94.65 967.82,-91.1 957.8,-87.65 957.83,-94.65"/>
</g>
<!-- 5&#45;&gt;20 -->
<g id="edge54" class="edge">
<title>5&#45;&gt;20</title>
<path fill="none" stroke="grey" stroke-width="2" d="M98.84,-1007.61C104.4,-980.94 114,-928.27 114,-883 114,-883 114,-883 114,-665 114,-526.58 363.7,-477.09 475,-396 502.67,-375.84 531.87,-349.81 551.91,-331.11"/>
<polygon fill="grey" stroke="grey" stroke-width="2" points="554.49,-333.49 559.38,-324.09 549.7,-328.39 554.49,-333.49"/>
</g>
<!-- 5&#45;&gt;22 -->
<g id="edge67" class="edge">
<title>5&#45;&gt;22</title>
<path fill="none" stroke="grey" stroke-width="2" d="M91.16,-1007.61C85.6,-980.94 76,-928.27 76,-883 76,-883 76,-883 76,-377 76,-240.71 208.67,-261.91 337,-216 457.8,-172.79 611.04,-164.42 685.05,-163.05"/>
<polygon fill="grey" stroke="grey" stroke-width="2" points="685.43,-166.55 695.38,-162.9 685.33,-159.55 685.43,-166.55"/>
</g>
<!-- 6 -->
<g id="node7" class="node">
<title>6</title>
<path fill="none" stroke="#78d856" stroke-width="2" d="M144,-1116C144,-1116 46,-1116 46,-1116 40,-1116 34,-1110 34,-1104 34,-1104 34,-1092 34,-1092 34,-1086 40,-1080 46,-1080 46,-1080 144,-1080 144,-1080 150,-1080 156,-1086 156,-1092 156,-1092 156,-1104 156,-1104 156,-1110 150,-1116 144,-1116"/>
<text text-anchor="middle" x="95" y="-1095.5" font-family="sans" font-size="10.00">align_parse_PacBio_ccs</text>
</g>
<!-- 6&#45;&gt;5 -->
<g id="edge14" class="edge">
<title>6&#45;&gt;5</title>
<path fill="none" stroke="grey" stroke-width="2" d="M95,-1079.7C95,-1071.98 95,-1062.71 95,-1054.11"/>
<polygon fill="grey" stroke="grey" stroke-width="2" points="98.5,-1054.1 95,-1044.1 91.5,-1054.1 98.5,-1054.1"/>
</g>
<!-- 7 -->
<g id="node8" class="node">
<title>7</title>
<path fill="none" stroke="#56d8d0" stroke-width="2" d="M1226,-1044C1226,-1044 1160,-1044 1160,-1044 1154,-1044 1148,-1038 1148,-1032 1148,-1032 1148,-1020 1148,-1020 1148,-1014 1154,-1008 1160,-1008 1160,-1008 1226,-1008 1226,-1008 1232,-1008 1238,-1014 1238,-1020 1238,-1020 1238,-1032 1238,-1032 1238,-1038 1232,-1044 1226,-1044"/>
<text text-anchor="middle" x="1193" y="-1023.5" font-family="sans" font-size="10.00">gene_sequence</text>
</g>
<!-- 7&#45;&gt;1 -->
<g id="edge7" class="edge">
<title>7&#45;&gt;1</title>
<path fill="none" stroke="grey" stroke-width="2" d="M1195.51,-1007.7C1200.6,-965.5 1207.54,-856.03 1154,-792 1130.46,-763.85 1090.83,-750.65 1058.49,-744.46"/>
<polygon fill="grey" stroke="grey" stroke-width="2" points="1058.73,-740.95 1048.28,-742.69 1057.54,-747.85 1058.73,-740.95"/>
</g>
<!-- 7&#45;&gt;3 -->
<g id="edge11" class="edge">
<title>7&#45;&gt;3</title>
<path fill="none" stroke="grey" stroke-width="2" d="M1151.51,-1007.87C1088.27,-981.77 967.95,-932.1 899.65,-903.91"/>
<polygon fill="grey" stroke="grey" stroke-width="2" points="900.95,-900.66 890.37,-900.08 898.28,-907.13 900.95,-900.66"/>
</g>
<!-- 7&#45;&gt;4 -->
<g id="edge12" class="edge">
<title>7&#45;&gt;4</title>
<path fill="none" stroke="grey" stroke-width="2" d="M1147.96,-1021.6C1039.5,-1013.38 755.22,-991.65 518,-972 477.76,-968.67 432.86,-964.76 396.3,-961.54"/>
<polygon fill="grey" stroke="grey" stroke-width="2" points="396.49,-958.04 386.22,-960.65 395.87,-965.02 396.49,-958.04"/>
</g>
<!-- 7&#45;&gt;9 -->
<g id="edge17" class="edge">
<title>7&#45;&gt;9</title>
<path fill="none" stroke="grey" stroke-width="2" d="M1174.88,-1007.97C1112.95,-949.79 909.6,-758.7 837.57,-691.02"/>
<polygon fill="grey" stroke="grey" stroke-width="2" points="839.92,-688.43 830.23,-684.13 835.12,-693.53 839.92,-688.43"/>
</g>
<!-- 7&#45;&gt;12 -->
<g id="edge24" class="edge">
<title>7&#45;&gt;12</title>
<path fill="none" stroke="grey" stroke-width="2" d="M1147.83,-1024.95C998.77,-1023.59 532,-1009.25 532,-883 532,-883 532,-883 532,-665 532,-623.63 547.23,-577.72 558.41,-549.61"/>
<polygon fill="grey" stroke="grey" stroke-width="2" points="561.76,-550.67 562.31,-540.09 555.28,-548.02 561.76,-550.67"/>
</g>
<!-- 7&#45;&gt;15 -->
<g id="edge30" class="edge">
<title>7&#45;&gt;15</title>
<path fill="none" stroke="grey" stroke-width="2" d="M1213.65,-1007.58C1240.5,-982.87 1284,-934.83 1284,-883 1284,-883 1284,-883 1284,-665 1284,-614 1238.73,-570.88 1205.24,-545.97"/>
<polygon fill="grey" stroke="grey" stroke-width="2" points="1207.17,-543.05 1197.02,-540.04 1203.08,-548.73 1207.17,-543.05"/>
</g>
<!-- 7&#45;&gt;16 -->
<g id="edge46" class="edge">
<title>7&#45;&gt;16</title>
<path fill="none" stroke="grey" stroke-width="2" d="M1238.24,-1011.84C1292.43,-992.96 1376,-952.57 1376,-883 1376,-883 1376,-883 1376,-377 1376,-253.36 1324.98,-215.35 1224,-144 1172.66,-107.72 1099.47,-96.11 1052.1,-92.48"/>
<polygon fill="grey" stroke="grey" stroke-width="2" points="1052.32,-88.99 1042.11,-91.81 1051.85,-95.98 1052.32,-88.99"/>
</g>
<!-- 7&#45;&gt;22 -->
<g id="edge74" class="edge">
<title>7&#45;&gt;22</title>
<path fill="none" stroke="grey" stroke-width="2" d="M1225.22,-1007.87C1263.43,-984.95 1322,-940.45 1322,-883 1322,-883 1322,-883 1322,-665 1322,-519.81 1305.36,-464.92 1205,-360 1121.9,-273.12 1059.25,-315.23 957,-252 935.8,-238.89 936.01,-227.69 914,-216 868.76,-191.99 811.36,-177.73 772.59,-170.15"/>
<polygon fill="grey" stroke="grey" stroke-width="2" points="773.14,-166.69 762.66,-168.28 771.84,-173.57 773.14,-166.69"/>
</g>
<!-- 8 -->
<g id="node9" class="node">
<title>8</title>
<path fill="none" stroke="#d8b456" stroke-width="2" d="M1092,-612C1092,-612 952,-612 952,-612 946,-612 940,-606 940,-600 940,-600 940,-588 940,-588 940,-582 946,-576 952,-576 952,-576 1092,-576 1092,-576 1098,-576 1104,-582 1104,-588 1104,-588 1104,-600 1104,-600 1104,-606 1098,-612 1092,-612"/>
<text text-anchor="middle" x="1022" y="-591.5" font-family="sans" font-size="10.00">check_adequate_variant_counts</text>
</g>
<!-- 8&#45;&gt;0 -->
<g id="edge4" class="edge">
<title>8&#45;&gt;0</title>
<path fill="none" stroke="grey" stroke-width="2" d="M1038.84,-575.95C1058.48,-556.71 1092.54,-525.34 1126,-504 1158.53,-483.25 1177.18,-494.74 1205,-468 1282.53,-393.49 1289.1,-356.61 1314,-252 1331.34,-179.16 1316.36,-90.09 1306.68,-46.16"/>
<polygon fill="grey" stroke="grey" stroke-width="2" points="1310.05,-45.22 1304.41,-36.25 1303.23,-46.78 1310.05,-45.22"/>
</g>
<!-- 8&#45;&gt;12 -->
<g id="edge23" class="edge">
<title>8&#45;&gt;12</title>
<path fill="none" stroke="grey" stroke-width="2" d="M939.88,-580.28C845.81,-565.71 694.8,-542.33 618.08,-530.45"/>
<polygon fill="grey" stroke="grey" stroke-width="2" points="618.18,-526.92 607.76,-528.85 617.11,-533.84 618.18,-526.92"/>
</g>
<!-- 8&#45;&gt;15 -->
<g id="edge29" class="edge">
<title>8&#45;&gt;15</title>
<path fill="none" stroke="grey" stroke-width="2" d="M1058.2,-575.88C1078.41,-566.32 1103.75,-554.34 1125.19,-544.19"/>
<polygon fill="grey" stroke="grey" stroke-width="2" points="1126.88,-547.27 1134.42,-539.83 1123.89,-540.94 1126.88,-547.27"/>
</g>
<!-- 9&#45;&gt;8 -->
<g id="edge15" class="edge">
<title>9&#45;&gt;8</title>
<path fill="none" stroke="grey" stroke-width="2" d="M863.1,-647.97C892.57,-638.14 929.81,-625.73 960.83,-615.39"/>
<polygon fill="grey" stroke="grey" stroke-width="2" points="962.29,-618.59 970.67,-612.11 960.07,-611.95 962.29,-618.59"/>
</g>
<!-- 9&#45;&gt;16 -->
<g id="edge45" class="edge">
<title>9&#45;&gt;16</title>
<path fill="none" stroke="grey" stroke-width="2" d="M811.43,-647.61C810.49,-587.75 815.91,-388.34 924,-288 967.63,-247.5 1017.01,-299.41 1053,-252 1084.05,-211.09 1049.68,-150.29 1025.19,-116.32"/>
<polygon fill="grey" stroke="grey" stroke-width="2" points="1028,-114.23 1019.23,-108.29 1022.38,-118.4 1028,-114.23"/>
</g>
<!-- 9&#45;&gt;20 -->
<g id="edge59" class="edge">
<title>9&#45;&gt;20</title>
<path fill="none" stroke="grey" stroke-width="2" d="M780.03,-647.81C742.12,-624.82 684,-580.25 684,-523 684,-523 684,-523 684,-449 684,-408.03 684.23,-393.03 660,-360 650.46,-347 636.68,-336.38 623.08,-328.16"/>
<polygon fill="grey" stroke="grey" stroke-width="2" points="624.64,-325.01 614.22,-323.1 621.17,-331.09 624.64,-325.01"/>
</g>
<!-- 9&#45;&gt;22 -->
<g id="edge73" class="edge">
<title>9&#45;&gt;22</title>
<path fill="none" stroke="grey" stroke-width="2" d="M801.23,-647.81C785.99,-621.83 760,-570.52 760,-523 760,-523 760,-523 760,-449 760,-353.38 742.66,-240.82 733.92,-190.14"/>
<polygon fill="grey" stroke="grey" stroke-width="2" points="737.32,-189.26 732.14,-180.02 730.42,-190.47 737.32,-189.26"/>
</g>
<!-- 10 -->
<g id="node11" class="node">
<title>10</title>
<path fill="none" stroke="#56d863" stroke-width="2" d="M321.5,-396C321.5,-396 230.5,-396 230.5,-396 224.5,-396 218.5,-390 218.5,-384 218.5,-384 218.5,-372 218.5,-372 218.5,-366 224.5,-360 230.5,-360 230.5,-360 321.5,-360 321.5,-360 327.5,-360 333.5,-366 333.5,-372 333.5,-372 333.5,-384 333.5,-384 333.5,-390 327.5,-396 321.5,-396"/>
<text text-anchor="middle" x="276" y="-375.5" font-family="sans" font-size="10.00">avg_antibody_escape</text>
</g>
<!-- 10&#45;&gt;0 -->
<g id="edge1" class="edge">
<title>10&#45;&gt;0</title>
<path fill="none" stroke="grey" stroke-width="2" d="M218.39,-368.39C147.95,-354.23 38,-318.72 38,-235 38,-235 38,-235 38,-161 38,-34.43 1053.42,-20.67 1262.59,-19.18"/>
<polygon fill="grey" stroke="grey" stroke-width="2" points="1262.79,-22.68 1272.76,-19.11 1262.74,-15.68 1262.79,-22.68"/>
</g>
<!-- 10&#45;&gt;16 -->
<g id="edge32" class="edge">
<title>10&#45;&gt;16</title>
<path fill="none" stroke="grey" stroke-width="2" d="M284.47,-359.85C294.2,-341.08 311.38,-310.66 331,-288 396.26,-212.63 411.21,-182.93 503,-144 584.38,-109.49 849.26,-96.45 957.88,-92.48"/>
<polygon fill="grey" stroke="grey" stroke-width="2" points="958.02,-95.98 967.89,-92.13 957.77,-88.98 958.02,-95.98"/>
</g>
<!-- 10&#45;&gt;20 -->
<g id="edge51" class="edge">
<title>10&#45;&gt;20</title>
<path fill="none" stroke="grey" stroke-width="2" d="M333.72,-362.25C336.86,-361.48 339.97,-360.73 343,-360 407.53,-344.51 482.36,-327.77 529.69,-317.34"/>
<polygon fill="grey" stroke="grey" stroke-width="2" points="530.63,-320.72 539.65,-315.15 529.13,-313.88 530.63,-320.72"/>
</g>
<!-- 10&#45;&gt;22 -->
<g id="edge61" class="edge">
<title>10&#45;&gt;22</title>
<path fill="none" stroke="grey" stroke-width="2" d="M293.66,-359.93C328.9,-326.88 411.72,-254.03 495,-216 557.66,-187.39 637.01,-173.63 685.34,-167.47"/>
<polygon fill="grey" stroke="grey" stroke-width="2" points="685.96,-170.92 695.46,-166.23 685.11,-163.97 685.96,-170.92"/>
</g>
<!-- 11 -->
<g id="node12" class="node">
<title>11</title>
<path fill="none" stroke="#8fd856" stroke-width="2" d="M596.5,-468C596.5,-468 543.5,-468 543.5,-468 537.5,-468 531.5,-462 531.5,-456 531.5,-456 531.5,-444 531.5,-444 531.5,-438 537.5,-432 543.5,-432 543.5,-432 596.5,-432 596.5,-432 602.5,-432 608.5,-438 608.5,-444 608.5,-444 608.5,-456 608.5,-456 608.5,-462 602.5,-468 596.5,-468"/>
<text text-anchor="middle" x="570" y="-447.5" font-family="sans" font-size="10.00">fit_polyclonal</text>
</g>
<!-- 11&#45;&gt;10 -->
<g id="edge20" class="edge">
<title>11&#45;&gt;10</title>
<path fill="none" stroke="grey" stroke-width="2" d="M531.39,-440.22C488.12,-430.33 415.63,-413.61 343.44,-396.09"/>
<polygon fill="grey" stroke="grey" stroke-width="2" points="344.27,-392.68 333.73,-393.72 342.62,-399.49 344.27,-392.68"/>
</g>
<!-- 11&#45;&gt;16 -->
<g id="edge42" class="edge">
<title>11&#45;&gt;16</title>
<path fill="none" stroke="grey" stroke-width="2" d="M531.23,-447.33C449.3,-443.16 261.75,-430.07 209,-396 169.54,-370.52 152,-353.97 152,-307 152,-307 152,-307 152,-233 152,-102.42 304.02,-169.94 432,-144 624.25,-105.03 858.66,-94.66 957.48,-91.94"/>
<polygon fill="grey" stroke="grey" stroke-width="2" points="957.82,-95.44 967.73,-91.68 957.64,-88.44 957.82,-95.44"/>
</g>
<!-- 11&#45;&gt;20 -->
<g id="edge58" class="edge">
<title>11&#45;&gt;20</title>
<path fill="none" stroke="grey" stroke-width="2" d="M570.84,-431.87C572.04,-407.67 574.23,-363.21 575.65,-334.39"/>
<polygon fill="grey" stroke="grey" stroke-width="2" points="579.16,-334.35 576.15,-324.19 572.16,-334 579.16,-334.35"/>
</g>
<!-- 11&#45;&gt;22 -->
<g id="edge70" class="edge">
<title>11&#45;&gt;22</title>
<path fill="none" stroke="grey" stroke-width="2" d="M578.82,-431.85C598.88,-393 649.8,-295.53 696,-216 701.25,-206.96 707.23,-197.2 712.65,-188.56"/>
<polygon fill="grey" stroke="grey" stroke-width="2" points="715.66,-190.35 718.03,-180.02 709.74,-186.61 715.66,-190.35"/>
</g>
<!-- 12&#45;&gt;11 -->
<g id="edge21" class="edge">
<title>12&#45;&gt;11</title>
<path fill="none" stroke="grey" stroke-width="2" d="M570,-503.7C570,-495.98 570,-486.71 570,-478.11"/>
<polygon fill="grey" stroke="grey" stroke-width="2" points="573.5,-478.1 570,-468.1 566.5,-478.1 573.5,-478.1"/>
</g>
<!-- 18 -->
<g id="node19" class="node">
<title>18</title>
<path fill="none" stroke="#5682d8" stroke-width="2" d="M454,-396C454,-396 364,-396 364,-396 358,-396 352,-390 352,-384 352,-384 352,-372 352,-372 352,-366 358,-360 364,-360 364,-360 454,-360 454,-360 460,-360 466,-366 466,-372 466,-372 466,-384 466,-384 466,-390 460,-396 454,-396"/>
<text text-anchor="middle" x="409" y="-375.5" font-family="sans" font-size="10.00">analyze_prob_escape</text>
</g>
<!-- 12&#45;&gt;18 -->
<g id="edge49" class="edge">
<title>12&#45;&gt;18</title>
<path fill="none" stroke="grey" stroke-width="2" d="M550.58,-503.87C522.05,-478.71 468.7,-431.65 436.26,-403.04"/>
<polygon fill="grey" stroke="grey" stroke-width="2" points="438.3,-400.18 428.49,-396.19 433.67,-405.43 438.3,-400.18"/>
</g>
<!-- 13 -->
<g id="node14" class="node">
<title>13</title>
<path fill="none" stroke="#61d856" stroke-width="2" d="M1183.5,-396C1183.5,-396 1118.5,-396 1118.5,-396 1112.5,-396 1106.5,-390 1106.5,-384 1106.5,-384 1106.5,-372 1106.5,-372 1106.5,-366 1112.5,-360 1118.5,-360 1118.5,-360 1183.5,-360 1183.5,-360 1189.5,-360 1195.5,-366 1195.5,-372 1195.5,-372 1195.5,-384 1195.5,-384 1195.5,-390 1189.5,-396 1183.5,-396"/>
<text text-anchor="middle" x="1151" y="-375.5" font-family="sans" font-size="10.00">avg_muteffects</text>
</g>
<!-- 13&#45;&gt;0 -->
<g id="edge5" class="edge">
<title>13&#45;&gt;0</title>
<path fill="none" stroke="grey" stroke-width="2" d="M1162.06,-359.72C1168.32,-349.54 1176.07,-336.29 1182,-324 1230.06,-224.3 1273.35,-99.59 1291.27,-45.76"/>
<polygon fill="grey" stroke="grey" stroke-width="2" points="1294.59,-46.86 1294.41,-36.27 1287.94,-44.66 1294.59,-46.86"/>
</g>
<!-- 13&#45;&gt;16 -->
<g id="edge47" class="edge">
<title>13&#45;&gt;16</title>
<path fill="none" stroke="grey" stroke-width="2" d="M1156.45,-359.79C1168.46,-318.25 1192.55,-210.98 1145,-144 1123.96,-114.36 1084.12,-101.29 1052.31,-95.53"/>
<polygon fill="grey" stroke="grey" stroke-width="2" points="1052.72,-92.05 1042.29,-93.9 1051.6,-98.96 1052.72,-92.05"/>
</g>
<!-- 13&#45;&gt;20 -->
<g id="edge60" class="edge">
<title>13&#45;&gt;20</title>
<path fill="none" stroke="grey" stroke-width="2" d="M1106.19,-368.04C1091.22,-365.23 1074.43,-362.27 1059,-360 900.13,-336.62 710.41,-318.66 624.02,-311.02"/>
<polygon fill="grey" stroke="grey" stroke-width="2" points="624.27,-307.53 614,-310.14 623.66,-314.5 624.27,-307.53"/>
</g>
<!-- 13&#45;&gt;22 -->
<g id="edge75" class="edge">
<title>13&#45;&gt;22</title>
<path fill="none" stroke="grey" stroke-width="2" d="M1116.29,-359.81C1071,-336.95 989.76,-294.47 924,-252 901.6,-237.53 899.47,-228.66 876,-216 842.86,-198.12 802.44,-184.05 772.38,-174.91"/>
<polygon fill="grey" stroke="grey" stroke-width="2" points="773.19,-171.5 762.6,-172 771.19,-178.21 773.19,-171.5"/>
</g>
<!-- 14 -->
<g id="node15" class="node">
<title>14</title>
<path fill="none" stroke="#56d87b" stroke-width="2" d="M1184,-468C1184,-468 1110,-468 1110,-468 1104,-468 1098,-462 1098,-456 1098,-456 1098,-444 1098,-444 1098,-438 1104,-432 1110,-432 1110,-432 1184,-432 1184,-432 1190,-432 1196,-438 1196,-444 1196,-444 1196,-456 1196,-456 1196,-462 1190,-468 1184,-468"/>
<text text-anchor="middle" x="1147" y="-447.5" font-family="sans" font-size="10.00">fit_globalepistasis</text>
</g>
<!-- 14&#45;&gt;13 -->
<g id="edge26" class="edge">
<title>14&#45;&gt;13</title>
<path fill="none" stroke="grey" stroke-width="2" d="M1147.99,-431.7C1148.43,-423.98 1148.96,-414.71 1149.45,-406.11"/>
<polygon fill="grey" stroke="grey" stroke-width="2" points="1152.95,-406.29 1150.02,-396.1 1145.96,-405.89 1152.95,-406.29"/>
</g>
<!-- 14&#45;&gt;16 -->
<g id="edge33" class="edge">
<title>14&#45;&gt;16</title>
<path fill="none" stroke="grey" stroke-width="2" d="M1174.34,-431.77C1186.11,-422.72 1198.62,-410.48 1205,-396 1250.69,-292.36 1244.73,-226.39 1167,-144 1137.34,-112.56 1088.78,-99.74 1052.54,-94.53"/>
<polygon fill="grey" stroke="grey" stroke-width="2" points="1052.57,-91.01 1042.21,-93.2 1051.68,-97.95 1052.57,-91.01"/>
</g>
<!-- 14&#45;&gt;20 -->
<g id="edge52" class="edge">
<title>14&#45;&gt;20</title>
<path fill="none" stroke="grey" stroke-width="2" d="M1097.65,-436.98C1053.86,-426.29 988.15,-410.19 931,-396 821.02,-368.68 691.96,-336.1 624.14,-318.94"/>
<polygon fill="grey" stroke="grey" stroke-width="2" points="624.74,-315.48 614.19,-316.42 623.02,-322.27 624.74,-315.48"/>
</g>
<!-- 14&#45;&gt;22 -->
<g id="edge62" class="edge">
<title>14&#45;&gt;22</title>
<path fill="none" stroke="grey" stroke-width="2" d="M1131.54,-431.95C1110.8,-409.34 1074.77,-371.01 1059,-360 1027.36,-337.92 1013.61,-342.96 980,-324 905.91,-282.21 894.12,-261.1 822,-216 804.98,-205.36 785.77,-194.26 769.25,-184.99"/>
<polygon fill="grey" stroke="grey" stroke-width="2" points="770.81,-181.86 760.37,-180.04 767.4,-187.97 770.81,-181.86"/>
</g>
<!-- 15&#45;&gt;14 -->
<g id="edge27" class="edge">
<title>15&#45;&gt;14</title>
<path fill="none" stroke="grey" stroke-width="2" d="M1164.31,-503.7C1161.75,-495.9 1158.67,-486.51 1155.82,-477.83"/>
<polygon fill="grey" stroke="grey" stroke-width="2" points="1159.07,-476.51 1152.62,-468.1 1152.42,-478.7 1159.07,-476.51"/>
</g>
<!-- 17 -->
<g id="node18" class="node">
<title>17</title>
<path fill="none" stroke="#d85656" stroke-width="2" d="M1038,-396C1038,-396 952,-396 952,-396 946,-396 940,-390 940,-384 940,-384 940,-372 940,-372 940,-366 946,-360 952,-360 952,-360 1038,-360 1038,-360 1044,-360 1050,-366 1050,-372 1050,-372 1050,-384 1050,-384 1050,-390 1044,-396 1038,-396"/>
<text text-anchor="middle" x="995" y="-375.5" font-family="sans" font-size="10.00">analyze_func_scores</text>
</g>
<!-- 15&#45;&gt;17 -->
<g id="edge48" class="edge">
<title>15&#45;&gt;17</title>
<path fill="none" stroke="grey" stroke-width="2" d="M1141.02,-503.8C1125.18,-493.97 1105.48,-481.02 1089,-468 1063.54,-447.88 1036.9,-422.15 1018.51,-403.53"/>
<polygon fill="grey" stroke="grey" stroke-width="2" points="1020.66,-400.72 1011.16,-396.03 1015.66,-405.62 1020.66,-400.72"/>
</g>
<!-- 16&#45;&gt;0 -->
<g id="edge3" class="edge">
<title>16&#45;&gt;0</title>
<path fill="none" stroke="grey" stroke-width="2" d="M1042.06,-80.21C1098.73,-66.76 1206.29,-41.24 1262.95,-27.79"/>
<polygon fill="grey" stroke="grey" stroke-width="2" points="1263.99,-31.14 1272.92,-25.43 1262.38,-24.33 1263.99,-31.14"/>
</g>
<!-- 17&#45;&gt;16 -->
<g id="edge34" class="edge">
<title>17&#45;&gt;16</title>
<path fill="none" stroke="grey" stroke-width="2" d="M1023.01,-359.95C1054.4,-339 1103.57,-300.24 1124,-252 1142.72,-207.8 1150.14,-184.26 1124,-144 1108.06,-119.44 1077.8,-106.17 1051.79,-99.05"/>
<polygon fill="grey" stroke="grey" stroke-width="2" points="1052.62,-95.65 1042.07,-96.61 1050.92,-102.44 1052.62,-95.65"/>
</g>
<!-- 17&#45;&gt;20 -->
<g id="edge53" class="edge">
<title>17&#45;&gt;20</title>
<path fill="none" stroke="grey" stroke-width="2" d="M939.92,-367.78C857.18,-353.92 702.21,-327.97 624.29,-314.92"/>
<polygon fill="grey" stroke="grey" stroke-width="2" points="624.71,-311.44 614.27,-313.24 623.56,-318.35 624.71,-311.44"/>
</g>
<!-- 17&#45;&gt;22 -->
<g id="edge63" class="edge">
<title>17&#45;&gt;22</title>
<path fill="none" stroke="grey" stroke-width="2" d="M939.85,-368.07C909.6,-360.69 873.23,-347.47 848,-324 809.54,-288.22 832.78,-257.04 800,-216 790.81,-204.49 778.56,-194.18 766.83,-185.77"/>
<polygon fill="grey" stroke="grey" stroke-width="2" points="768.65,-182.78 758.42,-180 764.69,-188.55 768.65,-182.78"/>
</g>
<!-- 18&#45;&gt;16 -->
<g id="edge39" class="edge">
<title>18&#45;&gt;16</title>
<path fill="none" stroke="grey" stroke-width="2" d="M412.66,-359.88C417.04,-341.41 425.4,-311.49 438,-288 477.51,-214.33 484.9,-182.69 559,-144 627.51,-108.23 857.35,-96.08 957.59,-92.41"/>
<polygon fill="grey" stroke="grey" stroke-width="2" points="957.86,-95.91 967.73,-92.06 957.61,-88.91 957.86,-95.91"/>
</g>
<!-- 18&#45;&gt;20 -->
<g id="edge56" class="edge">
<title>18&#45;&gt;20</title>
<path fill="none" stroke="grey" stroke-width="2" d="M450.1,-359.88C474.39,-349.76 505.22,-336.91 530.41,-326.41"/>
<polygon fill="grey" stroke="grey" stroke-width="2" points="531.88,-329.59 539.77,-322.51 529.19,-323.13 531.88,-329.59"/>
</g>
<!-- 18&#45;&gt;22 -->
<g id="edge68" class="edge">
<title>18&#45;&gt;22</title>
<path fill="none" stroke="grey" stroke-width="2" d="M417.94,-359.98C436.14,-327.01 480.77,-254.3 539,-216 583.61,-186.66 644.37,-173.4 685.05,-167.51"/>
<polygon fill="grey" stroke="grey" stroke-width="2" points="685.75,-170.95 695.19,-166.14 684.81,-164.01 685.75,-170.95"/>
</g>
<!-- 19 -->
<g id="node20" class="node">
<title>19</title>
<path fill="none" stroke="#56c9d8" stroke-width="2" d="M594,-252C594,-252 560,-252 560,-252 554,-252 548,-246 548,-240 548,-240 548,-228 548,-228 548,-222 554,-216 560,-216 560,-216 594,-216 594,-216 600,-216 606,-222 606,-228 606,-228 606,-240 606,-240 606,-246 600,-252 594,-252"/>
<text text-anchor="middle" x="577" y="-231.5" font-family="sans" font-size="10.00">subindex</text>
</g>
<!-- 19&#45;&gt;16 -->
<g id="edge36" class="edge">
<title>19&#45;&gt;16</title>
<path fill="none" stroke="grey" stroke-width="2" d="M592.66,-215.78C612.48,-195.15 648.69,-161.23 687,-144 776.93,-103.55 893.71,-93.67 957.77,-91.45"/>
<polygon fill="grey" stroke="grey" stroke-width="2" points="958.08,-94.94 967.97,-91.14 957.87,-87.94 958.08,-94.94"/>
</g>
<!-- 19&#45;&gt;22 -->
<g id="edge65" class="edge">
<title>19&#45;&gt;22</title>
<path fill="none" stroke="grey" stroke-width="2" d="M606.31,-219.5C628.97,-209.07 660.68,-194.46 686.19,-182.71"/>
<polygon fill="grey" stroke="grey" stroke-width="2" points="687.66,-185.89 695.28,-178.53 684.73,-179.53 687.66,-185.89"/>
</g>
<!-- 20&#45;&gt;16 -->
<g id="edge35" class="edge">
<title>20&#45;&gt;16</title>
<path fill="none" stroke="grey" stroke-width="2" d="M560.65,-287.75C545.61,-269.68 527.28,-240.56 539,-216 560.91,-170.08 581.34,-164.28 628,-144 686.32,-118.66 869.98,-101.47 957.59,-94.49"/>
<polygon fill="grey" stroke="grey" stroke-width="2" points="958.09,-97.96 967.78,-93.69 957.54,-90.99 958.09,-97.96"/>
</g>
<!-- 20&#45;&gt;19 -->
<g id="edge50" class="edge">
<title>20&#45;&gt;19</title>
<path fill="none" stroke="grey" stroke-width="2" d="M577,-287.7C577,-279.98 577,-270.71 577,-262.11"/>
<polygon fill="grey" stroke="grey" stroke-width="2" points="580.5,-262.1 577,-252.1 573.5,-262.1 580.5,-262.1"/>
</g>
<!-- 20&#45;&gt;22 -->
<g id="edge64" class="edge">
<title>20&#45;&gt;22</title>
<path fill="none" stroke="grey" stroke-width="2" d="M591.03,-287.7C606.52,-269.07 632.62,-239.02 658,-216 669.66,-205.42 683.35,-194.82 695.58,-185.92"/>
<polygon fill="grey" stroke="grey" stroke-width="2" points="697.69,-188.72 703.77,-180.05 693.61,-183.03 697.69,-188.72"/>
</g>
<!-- 21 -->
<g id="node22" class="node">
<title>21</title>
<path fill="none" stroke="#d88556" stroke-width="2" d="M1032,-252C1032,-252 978,-252 978,-252 972,-252 966,-246 966,-240 966,-240 966,-228 966,-228 966,-222 972,-216 978,-216 978,-216 1032,-216 1032,-216 1038,-216 1044,-222 1044,-228 1044,-228 1044,-240 1044,-240 1044,-246 1038,-252 1032,-252"/>
<text text-anchor="middle" x="1005" y="-231.5" font-family="sans" font-size="10.00">make_graphs</text>
</g>
<!-- 21&#45;&gt;16 -->
<g id="edge43" class="edge">
<title>21&#45;&gt;16</title>
<path fill="none" stroke="grey" stroke-width="2" d="M1005,-215.87C1005,-191.67 1005,-147.21 1005,-118.39"/>
<polygon fill="grey" stroke="grey" stroke-width="2" points="1008.5,-118.19 1005,-108.19 1001.5,-118.19 1008.5,-118.19"/>
</g>
<!-- 21&#45;&gt;22 -->
<g id="edge71" class="edge">
<title>21&#45;&gt;22</title>
<path fill="none" stroke="grey" stroke-width="2" d="M965.74,-220.04C961.12,-218.62 956.47,-217.25 952,-216 890.3,-198.8 818.03,-182.28 772.87,-172.38"/>
<polygon fill="grey" stroke="grey" stroke-width="2" points="773.35,-168.9 762.83,-170.19 771.86,-175.74 773.35,-168.9"/>
</g>
<!-- 22&#45;&gt;16 -->
<g id="edge40" class="edge">
<title>22&#45;&gt;16</title>
<path fill="none" stroke="grey" stroke-width="2" d="M762.57,-152.49C811.39,-140.1 902.21,-117.07 957.77,-102.98"/>
<polygon fill="grey" stroke="grey" stroke-width="2" points="958.88,-106.31 967.71,-100.46 957.16,-99.52 958.88,-106.31"/>
</g>
</g>
</svg>
