<?xml version="1.0" encoding="UTF-8" standalone="no"?>
<!DOCTYPE svg PUBLIC "-//W3C//DTD SVG 1.1//EN"
 "http://www.w3.org/Graphics/SVG/1.1/DTD/svg11.dtd">
<!-- Generated by graphviz version 2.40.1 (20161225.0304)
 -->
<!-- Title: snakemake_dag Pages: 1 -->
<svg width="634pt" height="764pt"
 viewBox="0.00 0.00 634.00 764.00" xmlns="http://www.w3.org/2000/svg" xmlns:xlink="http://www.w3.org/1999/xlink">
<g id="graph0" class="graph" transform="scale(1 1) rotate(0) translate(4 760)">
<title>snakemake_dag</title>
<polygon fill="#ffffff" stroke="transparent" points="-4,4 -4,-760 630,-760 630,4 -4,4"/>
<!-- 0 -->
<g id="node1" class="node">
<title>0</title>
<path fill="none" stroke="#56a9d8" stroke-width="2" d="M108.5,-396C108.5,-396 43.5,-396 43.5,-396 37.5,-396 31.5,-390 31.5,-384 31.5,-384 31.5,-372 31.5,-372 31.5,-366 37.5,-360 43.5,-360 43.5,-360 108.5,-360 108.5,-360 114.5,-360 120.5,-366 120.5,-372 120.5,-372 120.5,-384 120.5,-384 120.5,-390 114.5,-396 108.5,-396"/>
<text text-anchor="middle" x="76" y="-375.5" font-family="sans" font-size="10.00" fill="#000000">variant_counts</text>
</g>
<!-- 7 -->
<g id="node8" class="node">
<title>7</title>
<path fill="none" stroke="#56d0d8" stroke-width="2" d="M299,-108C299,-108 245,-108 245,-108 239,-108 233,-102 233,-96 233,-96 233,-84 233,-84 233,-78 239,-72 245,-72 245,-72 299,-72 299,-72 305,-72 311,-78 311,-84 311,-84 311,-96 311,-96 311,-102 305,-108 299,-108"/>
<text text-anchor="middle" x="272" y="-87.5" font-family="sans" font-size="10.00" fill="#000000">sphinx_build</text>
</g>
<!-- 0&#45;&gt;7 -->
<g id="edge17" class="edge">
<title>0&#45;&gt;7</title>
<path fill="none" stroke="#c0c0c0" stroke-width="2" d="M75.1941,-359.9172C74.9195,-341.3832 76.0286,-311.9644 84,-288 107.7473,-216.6088 118.3761,-195.7385 173,-144 187.5117,-130.2548 206.1942,-118.8845 223.4128,-110.1809"/>
<polygon fill="#c0c0c0" stroke="#c0c0c0" stroke-width="2" points="225.3285,-113.1414 232.7922,-105.6218 222.2683,-106.8457 225.3285,-113.1414"/>
</g>
<!-- 8 -->
<g id="node9" class="node">
<title>8</title>
<path fill="none" stroke="#8fd856" stroke-width="2" d="M332,-252C332,-252 276,-252 276,-252 270,-252 264,-246 264,-240 264,-240 264,-228 264,-228 264,-222 270,-216 276,-216 276,-216 332,-216 332,-216 338,-216 344,-222 344,-228 344,-228 344,-240 344,-240 344,-246 338,-252 332,-252"/>
<text text-anchor="middle" x="304" y="-231.5" font-family="sans" font-size="10.00" fill="#000000">make_nblink</text>
</g>
<!-- 0&#45;&gt;8 -->
<g id="edge22" class="edge">
<title>0&#45;&gt;8</title>
<path fill="none" stroke="#c0c0c0" stroke-width="2" d="M120.563,-362.124C144.6541,-352.6459 174.4176,-339.4516 199,-324 228.7404,-305.3063 258.7829,-278.5832 279.068,-259.1146"/>
<polygon fill="#c0c0c0" stroke="#c0c0c0" stroke-width="2" points="281.6141,-261.5207 286.3437,-252.0401 276.7342,-256.502 281.6141,-261.5207"/>
</g>
<!-- 10 -->
<g id="node11" class="node">
<title>10</title>
<path fill="none" stroke="#d8a456" stroke-width="2" d="M263.5,-180C263.5,-180 216.5,-180 216.5,-180 210.5,-180 204.5,-174 204.5,-168 204.5,-168 204.5,-156 204.5,-156 204.5,-150 210.5,-144 216.5,-144 216.5,-144 263.5,-144 263.5,-144 269.5,-144 275.5,-150 275.5,-156 275.5,-156 275.5,-168 275.5,-168 275.5,-174 269.5,-180 263.5,-180"/>
<text text-anchor="middle" x="240" y="-159.5" font-family="sans" font-size="10.00" fill="#000000">docs_index</text>
</g>
<!-- 0&#45;&gt;10 -->
<g id="edge30" class="edge">
<title>0&#45;&gt;10</title>
<path fill="none" stroke="#c0c0c0" stroke-width="2" d="M78.5517,-359.9433C81.8704,-340.9045 88.984,-310.5962 103,-288 110.5536,-275.8223 173.4148,-220.0263 211.3116,-186.9051"/>
<polygon fill="#c0c0c0" stroke="#c0c0c0" stroke-width="2" points="213.7564,-189.417 218.9906,-180.2054 209.1544,-184.1423 213.7564,-189.417"/>
</g>
<!-- 11 -->
<g id="node12" class="node">
<title>11</title>
<path fill="none" stroke="#d85656" stroke-width="2" d="M42,-36C42,-36 12,-36 12,-36 6,-36 0,-30 0,-24 0,-24 0,-12 0,-12 0,-6 6,0 12,0 12,0 42,0 42,0 48,0 54,-6 54,-12 54,-12 54,-24 54,-24 54,-30 48,-36 42,-36"/>
<text text-anchor="middle" x="27" y="-15.5" font-family="sans" font-size="10.00" fill="#000000">all</text>
</g>
<!-- 0&#45;&gt;11 -->
<g id="edge34" class="edge">
<title>0&#45;&gt;11</title>
<path fill="none" stroke="#c0c0c0" stroke-width="2" d="M73.5027,-359.6526C65.5076,-300.9129 40.5024,-117.2013 30.8526,-46.3047"/>
<polygon fill="#c0c0c0" stroke="#c0c0c0" stroke-width="2" points="34.309,-45.747 29.4923,-36.3104 27.373,-46.6911 34.309,-45.747"/>
</g>
<!-- 12 -->
<g id="node13" class="node">
<title>12</title>
<path fill="none" stroke="#567bd8" stroke-width="2" d="M178,-324C178,-324 124,-324 124,-324 118,-324 112,-318 112,-312 112,-312 112,-300 112,-300 112,-294 118,-288 124,-288 124,-288 178,-288 178,-288 184,-288 190,-294 190,-300 190,-300 190,-312 190,-312 190,-318 184,-324 178,-324"/>
<text text-anchor="middle" x="151" y="-303.5" font-family="sans" font-size="10.00" fill="#000000">prob_escape</text>
</g>
<!-- 0&#45;&gt;12 -->
<g id="edge36" class="edge">
<title>0&#45;&gt;12</title>
<path fill="none" stroke="#c0c0c0" stroke-width="2" d="M94.9257,-359.8314C103.9857,-351.1337 114.9809,-340.5783 124.8265,-331.1265"/>
<polygon fill="#c0c0c0" stroke="#c0c0c0" stroke-width="2" points="127.2904,-333.613 132.0804,-324.1628 122.4426,-328.5633 127.2904,-333.613"/>
</g>
<!-- 1 -->
<g id="node2" class="node">
<title>1</title>
<path fill="none" stroke="#56d86b" stroke-width="2" d="M177.5,-468C177.5,-468 108.5,-468 108.5,-468 102.5,-468 96.5,-462 96.5,-456 96.5,-456 96.5,-444 96.5,-444 96.5,-438 102.5,-432 108.5,-432 108.5,-432 177.5,-432 177.5,-432 183.5,-432 189.5,-438 189.5,-444 189.5,-444 189.5,-456 189.5,-456 189.5,-462 183.5,-468 177.5,-468"/>
<text text-anchor="middle" x="143" y="-447.5" font-family="sans" font-size="10.00" fill="#000000">count_barcodes</text>
</g>
<!-- 1&#45;&gt;0 -->
<g id="edge1" class="edge">
<title>1&#45;&gt;0</title>
<path fill="none" stroke="#c0c0c0" stroke-width="2" d="M126.0931,-431.8314C118.2187,-423.3694 108.708,-413.1489 100.0987,-403.8971"/>
<polygon fill="#c0c0c0" stroke="#c0c0c0" stroke-width="2" points="102.5092,-401.3497 93.1346,-396.4133 97.3847,-406.1183 102.5092,-401.3497"/>
</g>
<!-- 2 -->
<g id="node3" class="node">
<title>2</title>
<path fill="none" stroke="#b6d856" stroke-width="2" d="M256,-540C256,-540 160,-540 160,-540 154,-540 148,-534 148,-528 148,-528 148,-516 148,-516 148,-510 154,-504 160,-504 160,-504 256,-504 256,-504 262,-504 268,-510 268,-516 268,-516 268,-528 268,-528 268,-534 262,-540 256,-540"/>
<text text-anchor="middle" x="208" y="-519.5" font-family="sans" font-size="10.00" fill="#000000">build_codon_variants</text>
</g>
<!-- 2&#45;&gt;0 -->
<g id="edge3" class="edge">
<title>2&#45;&gt;0</title>
<path fill="none" stroke="#c0c0c0" stroke-width="2" d="M147.8958,-508.224C125.7446,-500.1349 102.5349,-487.5118 88,-468 74.8899,-450.4009 72.4901,-425.3265 73.0287,-406.112"/>
<polygon fill="#c0c0c0" stroke="#c0c0c0" stroke-width="2" points="76.5234,-406.3029 73.5809,-396.1249 69.5341,-405.9164 76.5234,-406.3029"/>
</g>
<!-- 2&#45;&gt;1 -->
<g id="edge4" class="edge">
<title>2&#45;&gt;1</title>
<path fill="none" stroke="#c0c0c0" stroke-width="2" d="M191.5978,-503.8314C183.9585,-495.3694 174.7317,-485.1489 166.3793,-475.8971"/>
<polygon fill="#c0c0c0" stroke="#c0c0c0" stroke-width="2" points="168.9221,-473.4906 159.6231,-468.4133 163.7262,-478.1813 168.9221,-473.4906"/>
</g>
<!-- 2&#45;&gt;7 -->
<g id="edge12" class="edge">
<title>2&#45;&gt;7</title>
<path fill="none" stroke="#c0c0c0" stroke-width="2" d="M147.9534,-506.9345C122.3844,-498.4493 93.366,-485.8785 71,-468 29.8281,-435.0888 9.8899,-411.2993 22,-360 46.845,-254.7548 52.5832,-215.1697 134,-144 159.2109,-121.9622 194.4576,-108.3748 223.0188,-100.3417"/>
<polygon fill="#c0c0c0" stroke="#c0c0c0" stroke-width="2" points="224.0558,-103.6876 232.815,-97.7272 222.2507,-96.9243 224.0558,-103.6876"/>
</g>
<!-- 2&#45;&gt;8 -->
<g id="edge20" class="edge">
<title>2&#45;&gt;8</title>
<path fill="none" stroke="#c0c0c0" stroke-width="2" d="M236.8742,-503.7746C249.062,-494.5571 262.2089,-482.2862 270,-468 306.4834,-401.102 307.9353,-308.1945 305.9761,-262.1656"/>
<polygon fill="#c0c0c0" stroke="#c0c0c0" stroke-width="2" points="309.4643,-261.844 305.4555,-252.0369 302.4735,-262.2034 309.4643,-261.844"/>
</g>
<!-- 2&#45;&gt;10 -->
<g id="edge25" class="edge">
<title>2&#45;&gt;10</title>
<path fill="none" stroke="#c0c0c0" stroke-width="2" d="M210.6143,-503.5311C212.0338,-493.112 213.7491,-479.8455 215,-468 225.7621,-366.091 234.4595,-244.6661 238.1236,-190.5142"/>
<polygon fill="#c0c0c0" stroke="#c0c0c0" stroke-width="2" points="241.6309,-190.5202 238.8082,-180.3083 234.6466,-190.0515 241.6309,-190.5202"/>
</g>
<!-- 2&#45;&gt;12 -->
<g id="edge35" class="edge">
<title>2&#45;&gt;12</title>
<path fill="none" stroke="#c0c0c0" stroke-width="2" d="M207.5876,-503.8394C206.845,-485.4957 204.7725,-456.4526 199,-432 190.7386,-397.0042 175.1094,-358.6404 163.9287,-333.5504"/>
<polygon fill="#c0c0c0" stroke="#c0c0c0" stroke-width="2" points="167.0529,-331.9649 159.7391,-324.2995 160.6764,-334.8528 167.0529,-331.9649"/>
</g>
<!-- 3 -->
<g id="node4" class="node">
<title>3</title>
<path fill="none" stroke="#d87d56" stroke-width="2" d="M349,-612C349,-612 239,-612 239,-612 233,-612 227,-606 227,-600 227,-600 227,-588 227,-588 227,-582 233,-576 239,-576 239,-576 349,-576 349,-576 355,-576 361,-582 361,-588 361,-588 361,-600 361,-600 361,-606 355,-612 349,-612"/>
<text text-anchor="middle" x="294" y="-591.5" font-family="sans" font-size="10.00" fill="#000000">build_pacbio_consensus</text>
</g>
<!-- 3&#45;&gt;2 -->
<g id="edge6" class="edge">
<title>3&#45;&gt;2</title>
<path fill="none" stroke="#c0c0c0" stroke-width="2" d="M272.2986,-575.8314C261.8079,-567.0485 249.0545,-556.3712 237.6806,-546.8489"/>
<polygon fill="#c0c0c0" stroke="#c0c0c0" stroke-width="2" points="239.6089,-543.8986 229.6945,-540.1628 235.1153,-549.2659 239.6089,-543.8986"/>
</g>
<!-- 3&#45;&gt;7 -->
<g id="edge10" class="edge">
<title>3&#45;&gt;7</title>
<path fill="none" stroke="#c0c0c0" stroke-width="2" d="M336.3405,-575.8995C381.316,-553.489 446,-510.7057 446,-450 446,-450 446,-450 446,-378 446,-296.691 573.4532,-285.3461 531,-216 485.618,-141.8698 382.4559,-110.3173 320.9015,-97.699"/>
<polygon fill="#c0c0c0" stroke="#c0c0c0" stroke-width="2" points="321.5118,-94.2521 311.0253,-95.7636 320.1655,-101.1215 321.5118,-94.2521"/>
</g>
<!-- 3&#45;&gt;8 -->
<g id="edge19" class="edge">
<title>3&#45;&gt;8</title>
<path fill="none" stroke="#c0c0c0" stroke-width="2" d="M302.0588,-575.7668C313.2134,-548.8248 332,-496.5405 332,-450 332,-450 332,-450 332,-378 332,-337.1713 321.0197,-291.0082 312.8113,-262.2028"/>
<polygon fill="#c0c0c0" stroke="#c0c0c0" stroke-width="2" points="316.1138,-261.0265 309.9381,-252.4177 309.3973,-262.9987 316.1138,-261.0265"/>
</g>
<!-- 3&#45;&gt;10 -->
<g id="edge24" class="edge">
<title>3&#45;&gt;10</title>
<path fill="none" stroke="#c0c0c0" stroke-width="2" d="M322.1798,-575.8002C355.9384,-551.5315 408,-505.1626 408,-450 408,-450 408,-450 408,-378 408,-301.9636 405.7011,-270.8099 353,-216 334.5391,-196.8003 307.8714,-183.6106 285.0782,-175.0753"/>
<polygon fill="#c0c0c0" stroke="#c0c0c0" stroke-width="2" points="286.1769,-171.7514 275.5822,-171.6984 283.8314,-178.3468 286.1769,-171.7514"/>
</g>
<!-- 4 -->
<g id="node5" class="node">
<title>4</title>
<path fill="none" stroke="#d8cb56" stroke-width="2" d="M480.5,-684C480.5,-684 391.5,-684 391.5,-684 385.5,-684 379.5,-678 379.5,-672 379.5,-672 379.5,-660 379.5,-660 379.5,-654 385.5,-648 391.5,-648 391.5,-648 480.5,-648 480.5,-648 486.5,-648 492.5,-654 492.5,-660 492.5,-660 492.5,-672 492.5,-672 492.5,-678 486.5,-684 480.5,-684"/>
<text text-anchor="middle" x="436" y="-663.5" font-family="sans" font-size="10.00" fill="#000000">analyze_pacbio_ccs</text>
</g>
<!-- 4&#45;&gt;3 -->
<g id="edge8" class="edge">
<title>4&#45;&gt;3</title>
<path fill="none" stroke="#c0c0c0" stroke-width="2" d="M400.1674,-647.8314C381.5843,-638.4089 358.7011,-626.8062 338.9435,-616.7883"/>
<polygon fill="#c0c0c0" stroke="#c0c0c0" stroke-width="2" points="340.323,-613.5635 329.8211,-612.1628 337.1573,-619.8069 340.323,-613.5635"/>
</g>
<!-- 4&#45;&gt;7 -->
<g id="edge13" class="edge">
<title>4&#45;&gt;7</title>
<path fill="none" stroke="#c0c0c0" stroke-width="2" d="M492.7489,-649.5983C548.7355,-629.5189 626,-589.5682 626,-522 626,-522 626,-522 626,-234 626,-178.6743 588.4604,-170.6932 540,-144 503.0536,-123.649 388.2204,-105.5265 321.4645,-96.3483"/>
<polygon fill="#c0c0c0" stroke="#c0c0c0" stroke-width="2" points="321.5625,-92.8296 311.1827,-94.9531 320.6212,-99.766 321.5625,-92.8296"/>
</g>
<!-- 4&#45;&gt;8 -->
<g id="edge21" class="edge">
<title>4&#45;&gt;8</title>
<path fill="none" stroke="#c0c0c0" stroke-width="2" d="M426.403,-647.7963C408.0981,-611.3283 370,-526.2664 370,-450 370,-450 370,-450 370,-378 370,-333.829 344.0195,-288.3999 324.6593,-260.6791"/>
<polygon fill="#c0c0c0" stroke="#c0c0c0" stroke-width="2" points="327.3295,-258.3975 318.6475,-252.3251 321.6478,-262.4863 327.3295,-258.3975"/>
</g>
<!-- 4&#45;&gt;10 -->
<g id="edge26" class="edge">
<title>4&#45;&gt;10</title>
<path fill="none" stroke="#c0c0c0" stroke-width="2" d="M446.4153,-647.5566C460.5325,-620.7787 484,-569.1706 484,-522 484,-522 484,-522 484,-378 484,-292.6794 447.0681,-269.9871 381,-216 353.2805,-193.3492 315.0109,-179.4978 285.3352,-171.5035"/>
<polygon fill="#c0c0c0" stroke="#c0c0c0" stroke-width="2" points="286.1845,-168.1081 275.6284,-169.0127 284.4446,-174.8884 286.1845,-168.1081"/>
</g>
<!-- 5 -->
<g id="node6" class="node">
<title>5</title>
<path fill="none" stroke="#68d856" stroke-width="2" d="M489.5,-756C489.5,-756 382.5,-756 382.5,-756 376.5,-756 370.5,-750 370.5,-744 370.5,-744 370.5,-732 370.5,-732 370.5,-726 376.5,-720 382.5,-720 382.5,-720 489.5,-720 489.5,-720 495.5,-720 501.5,-726 501.5,-732 501.5,-732 501.5,-744 501.5,-744 501.5,-750 495.5,-756 489.5,-756"/>
<text text-anchor="middle" x="436" y="-735.5" font-family="sans" font-size="10.00" fill="#000000">align_parse_PacBio_ccs</text>
</g>
<!-- 5&#45;&gt;4 -->
<g id="edge9" class="edge">
<title>5&#45;&gt;4</title>
<path fill="none" stroke="#c0c0c0" stroke-width="2" d="M436,-719.8314C436,-712.131 436,-702.9743 436,-694.4166"/>
<polygon fill="#c0c0c0" stroke="#c0c0c0" stroke-width="2" points="439.5001,-694.4132 436,-684.4133 432.5001,-694.4133 439.5001,-694.4132"/>
</g>
<!-- 6 -->
<g id="node7" class="node">
<title>6</title>
<path fill="none" stroke="#56d8b9" stroke-width="2" d="M233,-684C233,-684 165,-684 165,-684 159,-684 153,-678 153,-672 153,-672 153,-660 153,-660 153,-654 159,-648 165,-648 165,-648 233,-648 233,-648 239,-648 245,-654 245,-660 245,-660 245,-672 245,-672 245,-678 239,-684 233,-684"/>
<text text-anchor="middle" x="199" y="-663.5" font-family="sans" font-size="10.00" fill="#000000">gene_sequence</text>
</g>
<!-- 6&#45;&gt;0 -->
<g id="edge2" class="edge">
<title>6&#45;&gt;0</title>
<path fill="none" stroke="#c0c0c0" stroke-width="2" d="M182.0198,-647.9195C152.5425,-615.1443 92.9531,-542.3956 71,-468 65.0762,-447.9251 66.7071,-424.26 69.6157,-406.236"/>
<polygon fill="#c0c0c0" stroke="#c0c0c0" stroke-width="2" points="73.0682,-406.8125 71.4284,-396.3453 66.1829,-405.5505 73.0682,-406.8125"/>
</g>
<!-- 6&#45;&gt;2 -->
<g id="edge5" class="edge">
<title>6&#45;&gt;2</title>
<path fill="none" stroke="#c0c0c0" stroke-width="2" d="M200.1399,-647.7623C201.6749,-623.201 204.422,-579.2474 206.2279,-550.3541"/>
<polygon fill="#c0c0c0" stroke="#c0c0c0" stroke-width="2" points="209.7387,-550.2885 206.8694,-540.0896 202.7523,-549.8518 209.7387,-550.2885"/>
</g>
<!-- 6&#45;&gt;3 -->
<g id="edge7" class="edge">
<title>6&#45;&gt;3</title>
<path fill="none" stroke="#c0c0c0" stroke-width="2" d="M222.9725,-647.8314C234.7861,-638.8779 249.1972,-627.9558 261.9435,-618.2955"/>
<polygon fill="#c0c0c0" stroke="#c0c0c0" stroke-width="2" points="264.1795,-620.9925 270.0352,-612.1628 259.9514,-615.4137 264.1795,-620.9925"/>
</g>
<!-- 6&#45;&gt;7 -->
<g id="edge15" class="edge">
<title>6&#45;&gt;7</title>
<path fill="none" stroke="#c0c0c0" stroke-width="2" d="M245.151,-658.9376C348.193,-641.8697 588,-594.3735 588,-522 588,-522 588,-522 588,-234 588,-175.1904 542.7543,-171.9296 491,-144 437.1752,-114.953 367.5096,-101.2491 321.3677,-94.9786"/>
<polygon fill="#c0c0c0" stroke="#c0c0c0" stroke-width="2" points="321.6853,-91.4907 311.3192,-93.6801 320.7881,-98.4329 321.6853,-91.4907"/>
</g>
<!-- 6&#45;&gt;10 -->
<g id="edge28" class="edge">
<title>6&#45;&gt;10</title>
<path fill="none" stroke="#c0c0c0" stroke-width="2" d="M166.5405,-647.7814C151.7541,-638.4074 134.7491,-626.0068 122,-612 40.8913,-522.8895 -17.5949,-473.8049 22,-360 48.8228,-282.9049 73.0467,-267.9614 136,-216 153.5287,-201.5319 175.5647,-189.4075 194.8358,-180.3366"/>
<polygon fill="#c0c0c0" stroke="#c0c0c0" stroke-width="2" points="196.3999,-183.47 204.0421,-176.132 193.4919,-177.1027 196.3999,-183.47"/>
</g>
<!-- 7&#45;&gt;11 -->
<g id="edge32" class="edge">
<title>7&#45;&gt;11</title>
<path fill="none" stroke="#c0c0c0" stroke-width="2" d="M232.9081,-78.5118C186.4365,-64.8548 109.4665,-42.2351 63.9546,-28.8601"/>
<polygon fill="#c0c0c0" stroke="#c0c0c0" stroke-width="2" points="64.7761,-25.4536 54.195,-25.992 62.8024,-32.1696 64.7761,-25.4536"/>
</g>
<!-- 8&#45;&gt;7 -->
<g id="edge14" class="edge">
<title>8&#45;&gt;7</title>
<path fill="none" stroke="#c0c0c0" stroke-width="2" d="M300.2933,-215.6956C296.5689,-197.4872 290.5944,-168.7674 285,-144 283.1177,-135.667 280.9813,-126.6343 278.9921,-118.3842"/>
<polygon fill="#c0c0c0" stroke="#c0c0c0" stroke-width="2" points="282.3439,-117.3549 276.5814,-108.4643 275.5419,-119.008 282.3439,-117.3549"/>
</g>
<!-- 8&#45;&gt;10 -->
<g id="edge27" class="edge">
<title>8&#45;&gt;10</title>
<path fill="none" stroke="#c0c0c0" stroke-width="2" d="M287.8501,-215.8314C280.3283,-207.3694 271.2435,-197.1489 263.0196,-187.8971"/>
<polygon fill="#c0c0c0" stroke="#c0c0c0" stroke-width="2" points="265.627,-185.5621 256.3673,-180.4133 260.3951,-190.2127 265.627,-185.5621"/>
</g>
<!-- 9 -->
<g id="node10" class="node">
<title>9</title>
<path fill="none" stroke="#56d892" stroke-width="2" d="M509.5,-252C509.5,-252 450.5,-252 450.5,-252 444.5,-252 438.5,-246 438.5,-240 438.5,-240 438.5,-228 438.5,-228 438.5,-222 444.5,-216 450.5,-216 450.5,-216 509.5,-216 509.5,-216 515.5,-216 521.5,-222 521.5,-228 521.5,-228 521.5,-240 521.5,-240 521.5,-246 515.5,-252 509.5,-252"/>
<text text-anchor="middle" x="480" y="-231.5" font-family="sans" font-size="10.00" fill="#000000">make_graphs</text>
</g>
<!-- 9&#45;&gt;7 -->
<g id="edge18" class="edge">
<title>9&#45;&gt;7</title>
<path fill="none" stroke="#c0c0c0" stroke-width="2" d="M453.6567,-215.7623C416.3038,-189.9026 347.9,-142.5461 306.5268,-113.9032"/>
<polygon fill="#c0c0c0" stroke="#c0c0c0" stroke-width="2" points="308.3436,-110.9041 298.1294,-108.0896 304.3591,-116.6594 308.3436,-110.9041"/>
</g>
<!-- 9&#45;&gt;10 -->
<g id="edge31" class="edge">
<title>9&#45;&gt;10</title>
<path fill="none" stroke="#c0c0c0" stroke-width="2" d="M438.4473,-220.5136C433.5826,-218.9733 428.6854,-217.4403 424,-216 377.0238,-201.5596 323.0412,-185.8171 285.7531,-175.0759"/>
<polygon fill="#c0c0c0" stroke="#c0c0c0" stroke-width="2" points="286.2762,-171.5846 275.6984,-172.1842 284.3414,-178.3119 286.2762,-171.5846"/>
</g>
<!-- 10&#45;&gt;7 -->
<g id="edge11" class="edge">
<title>10&#45;&gt;7</title>
<path fill="none" stroke="#c0c0c0" stroke-width="2" d="M248.075,-143.8314C251.6102,-135.8771 255.836,-126.369 259.7456,-117.5723"/>
<polygon fill="#c0c0c0" stroke="#c0c0c0" stroke-width="2" points="262.9532,-118.9729 263.8163,-108.4133 256.5565,-116.1299 262.9532,-118.9729"/>
</g>
<!-- 12&#45;&gt;7 -->
<g id="edge16" class="edge">
<title>12&#45;&gt;7</title>
<path fill="none" stroke="#c0c0c0" stroke-width="2" d="M152.1207,-287.798C154.8822,-255.9359 164.3054,-189.156 196,-144 204.3057,-132.1666 216.0676,-122.017 227.8627,-113.8167"/>
<polygon fill="#c0c0c0" stroke="#c0c0c0" stroke-width="2" points="229.9782,-116.6145 236.4083,-108.194 226.1306,-110.7667 229.9782,-116.6145"/>
</g>
<!-- 12&#45;&gt;8 -->
<g id="edge23" class="edge">
<title>12&#45;&gt;8</title>
<path fill="none" stroke="#c0c0c0" stroke-width="2" d="M189.6084,-287.8314C209.8893,-278.2874 234.9238,-266.5065 256.3971,-256.4013"/>
<polygon fill="#c0c0c0" stroke="#c0c0c0" stroke-width="2" points="258.1114,-259.4629 265.6693,-252.038 255.1308,-253.1291 258.1114,-259.4629"/>
</g>
<!-- 12&#45;&gt;10 -->
<g id="edge29" class="edge">
<title>12&#45;&gt;10</title>
<path fill="none" stroke="#c0c0c0" stroke-width="2" d="M162.2719,-287.7623C177.7196,-262.7682 205.579,-217.6924 223.4109,-188.8409"/>
<polygon fill="#c0c0c0" stroke="#c0c0c0" stroke-width="2" points="226.5394,-190.4362 228.8196,-180.0896 220.5849,-186.7559 226.5394,-190.4362"/>
</g>
<!-- 12&#45;&gt;11 -->
<g id="edge33" class="edge">
<title>12&#45;&gt;11</title>
<path fill="none" stroke="#c0c0c0" stroke-width="2" d="M143.2432,-287.9843C122.1923,-239.0919 63.8894,-103.6785 38.7671,-45.33"/>
<polygon fill="#c0c0c0" stroke="#c0c0c0" stroke-width="2" points="41.9232,-43.8096 34.7538,-36.0089 35.4938,-46.5779 41.9232,-43.8096"/>
</g>
</g>
</svg>
