<?xml version="1.0" encoding="UTF-8" standalone="no"?>
<!DOCTYPE svg PUBLIC "-//W3C//DTD SVG 1.1//EN"
 "http://www.w3.org/Graphics/SVG/1.1/DTD/svg11.dtd">
<!-- Generated by graphviz version 3.0.0 (20220315.2325)
 -->
<!-- Title: snakemake_dag Pages: 1 -->
<svg width="1475pt" height="1052pt"
 viewBox="0.00 0.00 1474.98 1052.00" xmlns="http://www.w3.org/2000/svg" xmlns:xlink="http://www.w3.org/1999/xlink">
<g id="graph0" class="graph" transform="scale(1 1) rotate(0) translate(4 1048)">
<title>snakemake_dag</title>
<polygon fill="white" stroke="transparent" points="-4,4 -4,-1048 1470.98,-1048 1470.98,4 -4,4"/>
<!-- 0 -->
<g id="node1" class="node">
<title>0</title>
<path fill="none" stroke="#5673d8" stroke-width="2" d="M167,-36C167,-36 137,-36 137,-36 131,-36 125,-30 125,-24 125,-24 125,-12 125,-12 125,-6 131,0 137,0 137,0 167,0 167,0 173,0 179,-6 179,-12 179,-12 179,-24 179,-24 179,-30 173,-36 167,-36"/>
<text text-anchor="middle" x="152" y="-15.5" font-family="sans" font-size="10.00">all</text>
</g>
<!-- 1 -->
<g id="node2" class="node">
<title>1</title>
<path fill="none" stroke="#56d8c9" stroke-width="2" d="M399.5,-684C399.5,-684 334.5,-684 334.5,-684 328.5,-684 322.5,-678 322.5,-672 322.5,-672 322.5,-660 322.5,-660 322.5,-654 328.5,-648 334.5,-648 334.5,-648 399.5,-648 399.5,-648 405.5,-648 411.5,-654 411.5,-660 411.5,-660 411.5,-672 411.5,-672 411.5,-678 405.5,-684 399.5,-684"/>
<text text-anchor="middle" x="367" y="-663.5" font-family="sans" font-size="10.00">variant_counts</text>
</g>
<!-- 1&#45;&gt;0 -->
<g id="edge6" class="edge">
<title>1&#45;&gt;0</title>
<path fill="none" stroke="grey" stroke-width="2" d="M322.4,-662.22C275.86,-657.57 202.24,-645.15 148,-612 19.44,-533.42 0,-457.67 0,-307 0,-307 0,-307 0,-161 0,-115.41 18.17,-103.63 51,-72 69.34,-54.33 94.75,-41.03 115.49,-32.18"/>
<polygon fill="grey" stroke="grey" stroke-width="2" points="117.02,-35.34 124.95,-28.31 114.37,-28.86 117.02,-35.34"/>
</g>
<!-- 9 -->
<g id="node10" class="node">
<title>9</title>
<path fill="none" stroke="#56d863" stroke-width="2" d="M588,-612C588,-612 480,-612 480,-612 474,-612 468,-606 468,-600 468,-600 468,-588 468,-588 468,-582 474,-576 480,-576 480,-576 588,-576 588,-576 594,-576 600,-582 600,-588 600,-588 600,-600 600,-600 600,-606 594,-612 588,-612"/>
<text text-anchor="middle" x="534" y="-591.5" font-family="sans" font-size="10.00">analyze_variant_counts</text>
</g>
<!-- 1&#45;&gt;9 -->
<g id="edge18" class="edge">
<title>1&#45;&gt;9</title>
<path fill="none" stroke="grey" stroke-width="2" d="M407.85,-647.88C430.78,-638.26 459.58,-626.19 483.87,-616.01"/>
<polygon fill="grey" stroke="grey" stroke-width="2" points="485.41,-619.16 493.28,-612.07 482.7,-612.71 485.41,-619.16"/>
</g>
<!-- 10 -->
<g id="node11" class="node">
<title>10</title>
<path fill="none" stroke="#56d0d8" stroke-width="2" d="M942,-468C942,-468 888,-468 888,-468 882,-468 876,-462 876,-456 876,-456 876,-444 876,-444 876,-438 882,-432 888,-432 888,-432 942,-432 942,-432 948,-432 954,-438 954,-444 954,-444 954,-456 954,-456 954,-462 948,-468 942,-468"/>
<text text-anchor="middle" x="915" y="-447.5" font-family="sans" font-size="10.00">prob_escape</text>
</g>
<!-- 1&#45;&gt;10 -->
<g id="edge25" class="edge">
<title>1&#45;&gt;10</title>
<path fill="none" stroke="grey" stroke-width="2" d="M411.73,-658.89C461.07,-651.32 542.34,-636.33 609,-612 712.09,-574.37 824,-508.38 879.56,-473.72"/>
<polygon fill="grey" stroke="grey" stroke-width="2" points="881.69,-476.51 888.3,-468.24 877.97,-470.59 881.69,-476.51"/>
</g>
<!-- 12 -->
<g id="node13" class="node">
<title>12</title>
<path fill="none" stroke="#568ad8" stroke-width="2" d="M235,-468C235,-468 185,-468 185,-468 179,-468 173,-462 173,-456 173,-456 173,-444 173,-444 173,-438 179,-432 185,-432 185,-432 235,-432 235,-432 241,-432 247,-438 247,-444 247,-444 247,-456 247,-456 247,-462 241,-468 235,-468"/>
<text text-anchor="middle" x="210" y="-447.5" font-family="sans" font-size="10.00">func_scores</text>
</g>
<!-- 1&#45;&gt;12 -->
<g id="edge30" class="edge">
<title>1&#45;&gt;12</title>
<path fill="none" stroke="grey" stroke-width="2" d="M339.47,-647.9C307.67,-626.65 256.27,-587.34 229,-540 218.12,-521.12 213.45,-496.74 211.46,-478.28"/>
<polygon fill="grey" stroke="grey" stroke-width="2" points="214.93,-477.83 210.56,-468.18 207.96,-478.45 214.93,-477.83"/>
</g>
<!-- 14 -->
<g id="node15" class="node">
<title>14</title>
<path fill="none" stroke="#56b9d8" stroke-width="2" d="M1054,-108C1054,-108 1000,-108 1000,-108 994,-108 988,-102 988,-96 988,-96 988,-84 988,-84 988,-78 994,-72 1000,-72 1000,-72 1054,-72 1054,-72 1060,-72 1066,-78 1066,-84 1066,-84 1066,-96 1066,-96 1066,-102 1060,-108 1054,-108"/>
<text text-anchor="middle" x="1027" y="-87.5" font-family="sans" font-size="10.00">sphinx_build</text>
</g>
<!-- 1&#45;&gt;14 -->
<g id="edge45" class="edge">
<title>1&#45;&gt;14</title>
<path fill="none" stroke="grey" stroke-width="2" d="M322.49,-654.4C240.97,-632.05 76,-571.88 76,-451 76,-451 76,-451 76,-377 76,-245.05 143.31,-205.6 260,-144 323.21,-110.63 817.63,-96 977.39,-92.11"/>
<polygon fill="grey" stroke="grey" stroke-width="2" points="977.95,-95.6 987.87,-91.86 977.79,-88.6 977.95,-95.6"/>
</g>
<!-- 20 -->
<g id="node21" class="node">
<title>20</title>
<path fill="none" stroke="#56d8a9" stroke-width="2" d="M720.5,-180C720.5,-180 673.5,-180 673.5,-180 667.5,-180 661.5,-174 661.5,-168 661.5,-168 661.5,-156 661.5,-156 661.5,-150 667.5,-144 673.5,-144 673.5,-144 720.5,-144 720.5,-144 726.5,-144 732.5,-150 732.5,-156 732.5,-156 732.5,-168 732.5,-168 732.5,-174 726.5,-180 720.5,-180"/>
<text text-anchor="middle" x="697" y="-159.5" font-family="sans" font-size="10.00">docs_index</text>
</g>
<!-- 1&#45;&gt;20 -->
<g id="edge71" class="edge">
<title>1&#45;&gt;20</title>
<path fill="none" stroke="grey" stroke-width="2" d="M377.25,-647.88C402.01,-606.02 466.04,-494.72 507,-396 539.16,-318.49 506.85,-277.45 564,-216 586.94,-191.33 622.86,-177.93 651.6,-170.78"/>
<polygon fill="grey" stroke="grey" stroke-width="2" points="652.48,-174.17 661.43,-168.5 650.9,-167.35 652.48,-174.17"/>
</g>
<!-- 2 -->
<g id="node3" class="node">
<title>2</title>
<path fill="none" stroke="#97d856" stroke-width="2" d="M587.5,-756C587.5,-756 518.5,-756 518.5,-756 512.5,-756 506.5,-750 506.5,-744 506.5,-744 506.5,-732 506.5,-732 506.5,-726 512.5,-720 518.5,-720 518.5,-720 587.5,-720 587.5,-720 593.5,-720 599.5,-726 599.5,-732 599.5,-732 599.5,-744 599.5,-744 599.5,-750 593.5,-756 587.5,-756"/>
<text text-anchor="middle" x="553" y="-735.5" font-family="sans" font-size="10.00">count_barcodes</text>
</g>
<!-- 2&#45;&gt;1 -->
<g id="edge9" class="edge">
<title>2&#45;&gt;1</title>
<path fill="none" stroke="grey" stroke-width="2" d="M507.5,-719.88C481.43,-710.06 448.55,-697.69 421.15,-687.38"/>
<polygon fill="grey" stroke="grey" stroke-width="2" points="422.3,-684.07 411.71,-683.83 419.84,-690.62 422.3,-684.07"/>
</g>
<!-- 2&#45;&gt;9 -->
<g id="edge19" class="edge">
<title>2&#45;&gt;9</title>
<path fill="none" stroke="grey" stroke-width="2" d="M550.71,-719.87C547.47,-695.67 541.52,-651.21 537.67,-622.39"/>
<polygon fill="grey" stroke="grey" stroke-width="2" points="541.1,-621.64 536.3,-612.19 534.16,-622.57 541.1,-621.64"/>
</g>
<!-- 3 -->
<g id="node4" class="node">
<title>3</title>
<path fill="none" stroke="#61d856" stroke-width="2" d="M764,-828C764,-828 668,-828 668,-828 662,-828 656,-822 656,-816 656,-816 656,-804 656,-804 656,-798 662,-792 668,-792 668,-792 764,-792 764,-792 770,-792 776,-798 776,-804 776,-804 776,-816 776,-816 776,-822 770,-828 764,-828"/>
<text text-anchor="middle" x="716" y="-807.5" font-family="sans" font-size="10.00">build_codon_variants</text>
</g>
<!-- 3&#45;&gt;1 -->
<g id="edge8" class="edge">
<title>3&#45;&gt;1</title>
<path fill="none" stroke="grey" stroke-width="2" d="M655.53,-800.44C610.45,-792.62 548.1,-778.75 497,-756 459.06,-739.11 420.39,-710.95 395.21,-690.82"/>
<polygon fill="grey" stroke="grey" stroke-width="2" points="397.18,-687.91 387.21,-684.34 392.77,-693.35 397.18,-687.91"/>
</g>
<!-- 3&#45;&gt;2 -->
<g id="edge11" class="edge">
<title>3&#45;&gt;2</title>
<path fill="none" stroke="grey" stroke-width="2" d="M676.13,-791.88C653.84,-782.31 625.88,-770.3 602.24,-760.15"/>
<polygon fill="grey" stroke="grey" stroke-width="2" points="603.31,-756.8 592.74,-756.07 600.55,-763.23 603.31,-756.8"/>
</g>
<!-- 3&#45;&gt;9 -->
<g id="edge21" class="edge">
<title>3&#45;&gt;9</title>
<path fill="none" stroke="grey" stroke-width="2" d="M701.41,-791.85C669.33,-754.13 592.54,-663.83 555.16,-619.88"/>
<polygon fill="grey" stroke="grey" stroke-width="2" points="557.8,-617.58 548.66,-612.23 552.47,-622.12 557.8,-617.58"/>
</g>
<!-- 3&#45;&gt;10 -->
<g id="edge22" class="edge">
<title>3&#45;&gt;10</title>
<path fill="none" stroke="grey" stroke-width="2" d="M735.64,-791.93C746.12,-782.13 758.74,-769.18 768,-756 834.19,-661.79 885.15,-533.19 905.44,-477.98"/>
<polygon fill="grey" stroke="grey" stroke-width="2" points="908.85,-478.84 908.97,-468.25 902.27,-476.45 908.85,-478.84"/>
</g>
<!-- 3&#45;&gt;12 -->
<g id="edge27" class="edge">
<title>3&#45;&gt;12</title>
<path fill="none" stroke="grey" stroke-width="2" d="M655.76,-803.85C597.51,-797.45 507.51,-783.78 434,-756 375.46,-733.88 360.6,-724.62 313,-684 253.53,-633.26 232.86,-615.34 212,-540 206.41,-519.8 206.18,-496.02 207.2,-478.13"/>
<polygon fill="grey" stroke="grey" stroke-width="2" points="210.7,-478.32 207.94,-468.09 203.72,-477.81 210.7,-478.32"/>
</g>
<!-- 3&#45;&gt;14 -->
<g id="edge33" class="edge">
<title>3&#45;&gt;14</title>
<path fill="none" stroke="grey" stroke-width="2" d="M742.97,-791.93C758.28,-781.93 777.6,-768.79 794,-756 904.65,-669.71 1238,-447.32 1238,-307 1238,-307 1238,-307 1238,-233 1238,-155.41 1138.59,-117.43 1076.24,-101.25"/>
<polygon fill="grey" stroke="grey" stroke-width="2" points="1076.74,-97.76 1066.19,-98.74 1075.05,-104.56 1076.74,-97.76"/>
</g>
<!-- 18 -->
<g id="node19" class="node">
<title>18</title>
<path fill="none" stroke="#d88556" stroke-width="2" d="M849.5,-324C849.5,-324 794.5,-324 794.5,-324 788.5,-324 782.5,-318 782.5,-312 782.5,-312 782.5,-300 782.5,-300 782.5,-294 788.5,-288 794.5,-288 794.5,-288 849.5,-288 849.5,-288 855.5,-288 861.5,-294 861.5,-300 861.5,-300 861.5,-312 861.5,-312 861.5,-318 855.5,-324 849.5,-324"/>
<text text-anchor="middle" x="822" y="-303.5" font-family="sans" font-size="10.00">make_nblink</text>
</g>
<!-- 3&#45;&gt;18 -->
<g id="edge52" class="edge">
<title>3&#45;&gt;18</title>
<path fill="none" stroke="grey" stroke-width="2" d="M723.69,-791.91C734.79,-765.62 754,-713.45 754,-667 754,-667 754,-667 754,-449 754,-404.6 781.37,-359.38 801.38,-332.25"/>
<polygon fill="grey" stroke="grey" stroke-width="2" points="804.31,-334.18 807.58,-324.11 798.74,-329.95 804.31,-334.18"/>
</g>
<!-- 3&#45;&gt;20 -->
<g id="edge60" class="edge">
<title>3&#45;&gt;20</title>
<path fill="none" stroke="grey" stroke-width="2" d="M716,-791.95C716,-765.29 716,-712.11 716,-667 716,-667 716,-667 716,-593 716,-492.07 640,-479.93 640,-379 640,-379 640,-379 640,-305 640,-264.03 647.66,-253.57 664,-216 668,-206.8 673.42,-197.33 678.71,-188.98"/>
<polygon fill="grey" stroke="grey" stroke-width="2" points="681.76,-190.71 684.33,-180.43 675.91,-186.87 681.76,-190.71"/>
</g>
<!-- 4 -->
<g id="node5" class="node">
<title>4</title>
<path fill="none" stroke="#d86e56" stroke-width="2" d="M895,-900C895,-900 785,-900 785,-900 779,-900 773,-894 773,-888 773,-888 773,-876 773,-876 773,-870 779,-864 785,-864 785,-864 895,-864 895,-864 901,-864 907,-870 907,-876 907,-876 907,-888 907,-888 907,-894 901,-900 895,-900"/>
<text text-anchor="middle" x="840" y="-879.5" font-family="sans" font-size="10.00">build_pacbio_consensus</text>
</g>
<!-- 4&#45;&gt;3 -->
<g id="edge13" class="edge">
<title>4&#45;&gt;3</title>
<path fill="none" stroke="grey" stroke-width="2" d="M809.67,-863.88C793.3,-854.64 772.92,-843.13 755.35,-833.21"/>
<polygon fill="grey" stroke="grey" stroke-width="2" points="756.88,-830.06 746.45,-828.19 753.44,-836.15 756.88,-830.06"/>
</g>
<!-- 4&#45;&gt;14 -->
<g id="edge40" class="edge">
<title>4&#45;&gt;14</title>
<path fill="none" stroke="grey" stroke-width="2" d="M881.81,-863.96C990.93,-816.39 1276,-671.07 1276,-451 1276,-451 1276,-451 1276,-233 1276,-142.05 1149.09,-108.59 1076.48,-96.88"/>
<polygon fill="grey" stroke="grey" stroke-width="2" points="1076.59,-93.36 1066.18,-95.31 1075.54,-100.28 1076.59,-93.36"/>
</g>
<!-- 4&#45;&gt;18 -->
<g id="edge56" class="edge">
<title>4&#45;&gt;18</title>
<path fill="none" stroke="grey" stroke-width="2" d="M841.62,-863.83C842.52,-853.47 843.55,-839.99 844,-828 851.12,-639.16 832,-411.9 824.7,-334.41"/>
<polygon fill="grey" stroke="grey" stroke-width="2" points="828.15,-333.71 823.71,-324.09 821.18,-334.38 828.15,-333.71"/>
</g>
<!-- 4&#45;&gt;20 -->
<g id="edge67" class="edge">
<title>4&#45;&gt;20</title>
<path fill="none" stroke="grey" stroke-width="2" d="M836,-863.92C813.96,-769.71 708.08,-315.61 700,-252 697.39,-231.42 696.69,-207.97 696.62,-190.31"/>
<polygon fill="grey" stroke="grey" stroke-width="2" points="700.12,-190.15 696.64,-180.14 693.12,-190.13 700.12,-190.15"/>
</g>
<!-- 5 -->
<g id="node6" class="node">
<title>5</title>
<path fill="none" stroke="#78d856" stroke-width="2" d="M1192.5,-972C1192.5,-972 1103.5,-972 1103.5,-972 1097.5,-972 1091.5,-966 1091.5,-960 1091.5,-960 1091.5,-948 1091.5,-948 1091.5,-942 1097.5,-936 1103.5,-936 1103.5,-936 1192.5,-936 1192.5,-936 1198.5,-936 1204.5,-942 1204.5,-948 1204.5,-948 1204.5,-960 1204.5,-960 1204.5,-966 1198.5,-972 1192.5,-972"/>
<text text-anchor="middle" x="1148" y="-951.5" font-family="sans" font-size="10.00">analyze_pacbio_ccs</text>
</g>
<!-- 5&#45;&gt;4 -->
<g id="edge14" class="edge">
<title>5&#45;&gt;4</title>
<path fill="none" stroke="grey" stroke-width="2" d="M1091.15,-940.08C1042.22,-928.96 971.18,-912.81 917.13,-900.53"/>
<polygon fill="grey" stroke="grey" stroke-width="2" points="917.78,-897.09 907.25,-898.28 916.22,-903.91 917.78,-897.09"/>
</g>
<!-- 5&#45;&gt;14 -->
<g id="edge32" class="edge">
<title>5&#45;&gt;14</title>
<path fill="none" stroke="grey" stroke-width="2" d="M1204.55,-939.66C1264.93,-921.65 1352,-883.17 1352,-811 1352,-811 1352,-811 1352,-233 1352,-192.03 1358.23,-171.65 1328,-144 1318.74,-135.53 1158.91,-110.65 1076.01,-98.23"/>
<polygon fill="grey" stroke="grey" stroke-width="2" points="1076.47,-94.76 1066.06,-96.74 1075.43,-101.68 1076.47,-94.76"/>
</g>
<!-- 5&#45;&gt;18 -->
<g id="edge51" class="edge">
<title>5&#45;&gt;18</title>
<path fill="none" stroke="grey" stroke-width="2" d="M1147.48,-935.62C1144.54,-864.99 1124.94,-595.51 996,-432 976.03,-406.68 959.66,-414.14 933,-396 902.99,-375.58 870.86,-349.28 848.93,-330.57"/>
<polygon fill="grey" stroke="grey" stroke-width="2" points="851.2,-327.91 841.33,-324.05 846.64,-333.22 851.2,-327.91"/>
</g>
<!-- 5&#45;&gt;20 -->
<g id="edge59" class="edge">
<title>5&#45;&gt;20</title>
<path fill="none" stroke="grey" stroke-width="2" d="M1100.43,-935.84C1051.38,-914.73 982,-873.77 982,-811 982,-811 982,-811 982,-521 982,-480.55 988.55,-463.36 963,-432 937.86,-401.14 915.87,-415.19 881,-396 830.78,-368.37 811.46,-367.38 774,-324 772.8,-322.61 730.94,-234.55 709.46,-189.27"/>
<polygon fill="grey" stroke="grey" stroke-width="2" points="712.53,-187.58 705.08,-180.04 706.2,-190.58 712.53,-187.58"/>
</g>
<!-- 6 -->
<g id="node7" class="node">
<title>6</title>
<path fill="none" stroke="#56d87b" stroke-width="2" d="M1201.5,-1044C1201.5,-1044 1094.5,-1044 1094.5,-1044 1088.5,-1044 1082.5,-1038 1082.5,-1032 1082.5,-1032 1082.5,-1020 1082.5,-1020 1082.5,-1014 1088.5,-1008 1094.5,-1008 1094.5,-1008 1201.5,-1008 1201.5,-1008 1207.5,-1008 1213.5,-1014 1213.5,-1020 1213.5,-1020 1213.5,-1032 1213.5,-1032 1213.5,-1038 1207.5,-1044 1201.5,-1044"/>
<text text-anchor="middle" x="1148" y="-1023.5" font-family="sans" font-size="10.00">align_parse_PacBio_ccs</text>
</g>
<!-- 6&#45;&gt;5 -->
<g id="edge16" class="edge">
<title>6&#45;&gt;5</title>
<path fill="none" stroke="grey" stroke-width="2" d="M1148,-1007.7C1148,-999.98 1148,-990.71 1148,-982.11"/>
<polygon fill="grey" stroke="grey" stroke-width="2" points="1151.5,-982.1 1148,-972.1 1144.5,-982.1 1151.5,-982.1"/>
</g>
<!-- 7 -->
<g id="node8" class="node">
<title>7</title>
<path fill="none" stroke="#d8d356" stroke-width="2" d="M694,-972C694,-972 626,-972 626,-972 620,-972 614,-966 614,-960 614,-960 614,-948 614,-948 614,-942 620,-936 626,-936 626,-936 694,-936 694,-936 700,-936 706,-942 706,-948 706,-948 706,-960 706,-960 706,-966 700,-972 694,-972"/>
<text text-anchor="middle" x="660" y="-951.5" font-family="sans" font-size="10.00">gene_sequence</text>
</g>
<!-- 7&#45;&gt;1 -->
<g id="edge10" class="edge">
<title>7&#45;&gt;1</title>
<path fill="none" stroke="grey" stroke-width="2" d="M613.93,-948.27C553.58,-941.13 452.32,-925.66 426,-900 369.2,-844.62 364.22,-742.98 365.43,-694.35"/>
<polygon fill="grey" stroke="grey" stroke-width="2" points="368.93,-694.38 365.78,-684.26 361.93,-694.13 368.93,-694.38"/>
</g>
<!-- 7&#45;&gt;3 -->
<g id="edge12" class="edge">
<title>7&#45;&gt;3</title>
<path fill="none" stroke="grey" stroke-width="2" d="M666.75,-935.87C676.38,-911.46 694.14,-866.43 705.5,-837.64"/>
<polygon fill="grey" stroke="grey" stroke-width="2" points="708.81,-838.78 709.22,-828.19 702.3,-836.21 708.81,-838.78"/>
</g>
<!-- 7&#45;&gt;4 -->
<g id="edge15" class="edge">
<title>7&#45;&gt;4</title>
<path fill="none" stroke="grey" stroke-width="2" d="M704.03,-935.88C728.97,-926.18 760.34,-913.98 786.66,-903.74"/>
<polygon fill="grey" stroke="grey" stroke-width="2" points="788.06,-906.95 796.11,-900.07 785.52,-900.43 788.06,-906.95"/>
</g>
<!-- 7&#45;&gt;9 -->
<g id="edge20" class="edge">
<title>7&#45;&gt;9</title>
<path fill="none" stroke="grey" stroke-width="2" d="M613.88,-944.64C549.37,-929.99 440,-893.05 440,-811 440,-811 440,-811 440,-737 440,-689.17 477.54,-645.08 505.18,-619.11"/>
<polygon fill="grey" stroke="grey" stroke-width="2" points="507.64,-621.6 512.67,-612.27 502.92,-616.42 507.64,-621.6"/>
</g>
<!-- 7&#45;&gt;10 -->
<g id="edge24" class="edge">
<title>7&#45;&gt;10</title>
<path fill="none" stroke="grey" stroke-width="2" d="M706.01,-949.03C771.13,-942.51 885.66,-927.43 916,-900 946.76,-872.19 944,-852.47 944,-811 944,-811 944,-811 944,-593 944,-552.21 932.37,-506.15 923.84,-477.84"/>
<polygon fill="grey" stroke="grey" stroke-width="2" points="927.18,-476.77 920.87,-468.26 920.49,-478.84 927.18,-476.77"/>
</g>
<!-- 7&#45;&gt;12 -->
<g id="edge29" class="edge">
<title>7&#45;&gt;12</title>
<path fill="none" stroke="grey" stroke-width="2" d="M613.85,-952.93C463.9,-951.46 0,-936.78 0,-811 0,-811 0,-811 0,-593 0,-514.83 101.08,-476.78 162.99,-460.8"/>
<polygon fill="grey" stroke="grey" stroke-width="2" points="164.08,-464.14 172.94,-458.33 162.39,-457.34 164.08,-464.14"/>
</g>
<!-- 7&#45;&gt;14 -->
<g id="edge37" class="edge">
<title>7&#45;&gt;14</title>
<path fill="none" stroke="grey" stroke-width="2" d="M706.25,-953.85C855.39,-953.95 1314,-932.66 1314,-667 1314,-667 1314,-667 1314,-233 1314,-184.79 1291.87,-171.09 1252,-144 1223.74,-124.8 1133.53,-107.69 1076.28,-98.39"/>
<polygon fill="grey" stroke="grey" stroke-width="2" points="1076.78,-94.92 1066.35,-96.8 1075.67,-101.84 1076.78,-94.92"/>
</g>
<!-- 7&#45;&gt;20 -->
<g id="edge64" class="edge">
<title>7&#45;&gt;20</title>
<path fill="none" stroke="grey" stroke-width="2" d="M653.52,-935.79C644.17,-909.36 628,-856.99 628,-811 628,-811 628,-811 628,-665 628,-537.36 602,-506.64 602,-379 602,-379 602,-379 602,-305 602,-257.01 639.94,-212.96 667.87,-187.04"/>
<polygon fill="grey" stroke="grey" stroke-width="2" points="670.35,-189.52 675.44,-180.22 665.67,-184.31 670.35,-189.52"/>
</g>
<!-- 8 -->
<g id="node9" class="node">
<title>8</title>
<path fill="none" stroke="#56a2d8" stroke-width="2" d="M399.5,-540C399.5,-540 250.5,-540 250.5,-540 244.5,-540 238.5,-534 238.5,-528 238.5,-528 238.5,-516 238.5,-516 238.5,-510 244.5,-504 250.5,-504 250.5,-504 399.5,-504 399.5,-504 405.5,-504 411.5,-510 411.5,-516 411.5,-516 411.5,-528 411.5,-528 411.5,-534 405.5,-540 399.5,-540"/>
<text text-anchor="middle" x="325" y="-519.5" font-family="sans" font-size="10.00">check_adequate_variant_counts</text>
</g>
<!-- 8&#45;&gt;0 -->
<g id="edge3" class="edge">
<title>8&#45;&gt;0</title>
<path fill="none" stroke="grey" stroke-width="2" d="M242.44,-503.92C215.83,-495.87 187.24,-484.32 164,-468 89.65,-415.77 38,-397.86 38,-307 38,-307 38,-307 38,-161 38,-110 83.27,-66.88 116.76,-41.97"/>
<polygon fill="grey" stroke="grey" stroke-width="2" points="118.92,-44.73 124.98,-36.04 114.83,-39.05 118.92,-44.73"/>
</g>
<!-- 8&#45;&gt;10 -->
<g id="edge23" class="edge">
<title>8&#45;&gt;10</title>
<path fill="none" stroke="grey" stroke-width="2" d="M411.74,-510.71C537.34,-495.81 765.74,-468.71 865.81,-456.84"/>
<polygon fill="grey" stroke="grey" stroke-width="2" points="866.42,-460.29 875.94,-455.63 865.6,-453.34 866.42,-460.29"/>
</g>
<!-- 8&#45;&gt;12 -->
<g id="edge28" class="edge">
<title>8&#45;&gt;12</title>
<path fill="none" stroke="grey" stroke-width="2" d="M296.87,-503.88C281.83,-494.72 263.13,-483.34 246.94,-473.48"/>
<polygon fill="grey" stroke="grey" stroke-width="2" points="248.6,-470.4 238.24,-468.19 244.96,-476.38 248.6,-470.4"/>
</g>
<!-- 9&#45;&gt;8 -->
<g id="edge17" class="edge">
<title>9&#45;&gt;8</title>
<path fill="none" stroke="grey" stroke-width="2" d="M483.14,-575.97C453.81,-566.14 416.75,-553.73 385.88,-543.39"/>
<polygon fill="grey" stroke="grey" stroke-width="2" points="386.68,-539.97 376.09,-540.11 384.46,-546.61 386.68,-539.97"/>
</g>
<!-- 9&#45;&gt;14 -->
<g id="edge38" class="edge">
<title>9&#45;&gt;14</title>
<path fill="none" stroke="grey" stroke-width="2" d="M514.68,-575.86C480.11,-544.04 407.84,-472.12 371,-396 353.38,-359.59 352,-347.45 352,-307 352,-307 352,-307 352,-233 352,-105.11 821.89,-91.78 977.57,-90.87"/>
<polygon fill="grey" stroke="grey" stroke-width="2" points="977.81,-94.37 987.79,-90.83 977.78,-87.37 977.81,-94.37"/>
</g>
<!-- 9&#45;&gt;18 -->
<g id="edge54" class="edge">
<title>9&#45;&gt;18</title>
<path fill="none" stroke="grey" stroke-width="2" d="M548.86,-575.65C592.47,-524.81 718.41,-378.57 740,-360 753.09,-348.74 768.75,-338.05 782.85,-329.26"/>
<polygon fill="grey" stroke="grey" stroke-width="2" points="784.69,-332.24 791.4,-324.04 781.04,-326.27 784.69,-332.24"/>
</g>
<!-- 9&#45;&gt;20 -->
<g id="edge65" class="edge">
<title>9&#45;&gt;20</title>
<path fill="none" stroke="grey" stroke-width="2" d="M540.07,-575.76C548.84,-549.28 564,-496.86 564,-451 564,-451 564,-451 564,-305 564,-264.03 561.9,-247.58 588,-216 604.29,-196.29 629.68,-183.35 651.85,-175.2"/>
<polygon fill="grey" stroke="grey" stroke-width="2" points="653.14,-178.46 661.44,-171.88 650.85,-171.84 653.14,-178.46"/>
</g>
<!-- 10&#45;&gt;0 -->
<g id="edge1" class="edge">
<title>10&#45;&gt;0</title>
<path fill="none" stroke="grey" stroke-width="2" d="M954.4,-446.6C1074.53,-438.21 1428,-405.19 1428,-307 1428,-307 1428,-307 1428,-161 1428,-123.82 1591.86,-155.35 1243,-72 1036.58,-22.68 357.06,-19.09 189.56,-18.96"/>
<polygon fill="grey" stroke="grey" stroke-width="2" points="189.28,-15.46 179.28,-18.96 189.28,-22.46 189.28,-15.46"/>
</g>
<!-- 11 -->
<g id="node12" class="node">
<title>11</title>
<path fill="none" stroke="#c6d856" stroke-width="2" d="M1152,-396C1152,-396 1094,-396 1094,-396 1088,-396 1082,-390 1082,-384 1082,-384 1082,-372 1082,-372 1082,-366 1088,-360 1094,-360 1094,-360 1152,-360 1152,-360 1158,-360 1164,-366 1164,-372 1164,-372 1164,-384 1164,-384 1164,-390 1158,-396 1152,-396"/>
<text text-anchor="middle" x="1123" y="-375.5" font-family="sans" font-size="10.00">fit_polyclonal</text>
</g>
<!-- 10&#45;&gt;11 -->
<g id="edge26" class="edge">
<title>10&#45;&gt;11</title>
<path fill="none" stroke="grey" stroke-width="2" d="M954.3,-435.87C984.21,-425.86 1026.66,-411.63 1072.32,-396.22"/>
<polygon fill="grey" stroke="grey" stroke-width="2" points="1073.45,-399.54 1081.8,-393.02 1071.21,-392.9 1073.45,-399.54"/>
</g>
<!-- 10&#45;&gt;14 -->
<g id="edge34" class="edge">
<title>10&#45;&gt;14</title>
<path fill="none" stroke="grey" stroke-width="2" d="M954.13,-443.21C1022.25,-432.8 1156.93,-410.66 1173,-396 1203.54,-368.15 1200,-348.34 1200,-307 1200,-307 1200,-307 1200,-233 1200,-168.39 1127.01,-127.8 1075.85,-107.29"/>
<polygon fill="grey" stroke="grey" stroke-width="2" points="1076.85,-103.92 1066.26,-103.57 1074.32,-110.45 1076.85,-103.92"/>
</g>
<!-- 16 -->
<g id="node17" class="node">
<title>16</title>
<path fill="none" stroke="#afd856" stroke-width="2" d="M1052,-396C1052,-396 954,-396 954,-396 948,-396 942,-390 942,-384 942,-384 942,-372 942,-372 942,-366 948,-360 954,-360 954,-360 1052,-360 1052,-360 1058,-360 1064,-366 1064,-372 1064,-372 1064,-384 1064,-384 1064,-390 1058,-396 1052,-396"/>
<text text-anchor="middle" x="1003" y="-375.5" font-family="sans" font-size="10.00">analyze_prob_escape</text>
</g>
<!-- 10&#45;&gt;16 -->
<g id="edge49" class="edge">
<title>10&#45;&gt;16</title>
<path fill="none" stroke="grey" stroke-width="2" d="M936.75,-431.7C947.84,-422.88 961.47,-412.03 973.49,-402.47"/>
<polygon fill="grey" stroke="grey" stroke-width="2" points="975.85,-405.07 981.5,-396.1 971.49,-399.59 975.85,-405.07"/>
</g>
<!-- 10&#45;&gt;20 -->
<g id="edge61" class="edge">
<title>10&#45;&gt;20</title>
<path fill="none" stroke="grey" stroke-width="2" d="M875.95,-432.74C834.71,-413.34 771.4,-376.78 740,-324 714.64,-281.37 703.96,-223.63 699.67,-190.14"/>
<polygon fill="grey" stroke="grey" stroke-width="2" points="703.15,-189.69 698.5,-180.17 696.19,-190.51 703.15,-189.69"/>
</g>
<!-- 11&#45;&gt;0 -->
<g id="edge4" class="edge">
<title>11&#45;&gt;0</title>
<path fill="none" stroke="grey" stroke-width="2" d="M1164.13,-373.78C1239.03,-365.43 1390,-336.07 1390,-235 1390,-235 1390,-235 1390,-161 1390,-36.87 394.96,-21.18 189.03,-19.26"/>
<polygon fill="grey" stroke="grey" stroke-width="2" points="189.04,-15.76 179.01,-19.17 188.98,-22.76 189.04,-15.76"/>
</g>
<!-- 11&#45;&gt;14 -->
<g id="edge39" class="edge">
<title>11&#45;&gt;14</title>
<path fill="none" stroke="grey" stroke-width="2" d="M1125.57,-359.8C1130.74,-319.19 1138.71,-215.39 1098,-144 1091.14,-131.97 1080.32,-121.84 1069.18,-113.77"/>
<polygon fill="grey" stroke="grey" stroke-width="2" points="1070.9,-110.71 1060.65,-108 1066.97,-116.51 1070.9,-110.71"/>
</g>
<!-- 11&#45;&gt;18 -->
<g id="edge55" class="edge">
<title>11&#45;&gt;18</title>
<path fill="none" stroke="grey" stroke-width="2" d="M1081.92,-362.6C1078.91,-361.68 1075.92,-360.8 1073,-360 1035.67,-349.75 933.32,-328.99 871.45,-316.71"/>
<polygon fill="grey" stroke="grey" stroke-width="2" points="872,-313.25 861.51,-314.74 870.64,-320.12 872,-313.25"/>
</g>
<!-- 11&#45;&gt;20 -->
<g id="edge66" class="edge">
<title>11&#45;&gt;20</title>
<path fill="none" stroke="grey" stroke-width="2" d="M1088.95,-359.99C1042.67,-336.65 957.6,-292.91 887,-252 861.08,-236.98 856.7,-229.6 830,-216 801.62,-201.54 768.33,-188.28 742.16,-178.64"/>
<polygon fill="grey" stroke="grey" stroke-width="2" points="743.09,-175.25 732.5,-175.12 740.7,-181.83 743.09,-175.25"/>
</g>
<!-- 12&#45;&gt;0 -->
<g id="edge5" class="edge">
<title>12&#45;&gt;0</title>
<path fill="none" stroke="grey" stroke-width="2" d="M188.22,-431.83C159.89,-407.39 114,-359.67 114,-307 114,-307 114,-307 114,-161 114,-119.63 129.23,-73.72 140.41,-45.61"/>
<polygon fill="grey" stroke="grey" stroke-width="2" points="143.76,-46.67 144.31,-36.09 137.28,-44.02 143.76,-46.67"/>
</g>
<!-- 13 -->
<g id="node14" class="node">
<title>13</title>
<path fill="none" stroke="#d8a456" stroke-width="2" d="M273.5,-396C273.5,-396 192.5,-396 192.5,-396 186.5,-396 180.5,-390 180.5,-384 180.5,-384 180.5,-372 180.5,-372 180.5,-366 186.5,-360 192.5,-360 192.5,-360 273.5,-360 273.5,-360 279.5,-360 285.5,-366 285.5,-372 285.5,-372 285.5,-384 285.5,-384 285.5,-390 279.5,-396 273.5,-396"/>
<text text-anchor="middle" x="233" y="-375.5" font-family="sans" font-size="10.00">fit_globalepistasis</text>
</g>
<!-- 12&#45;&gt;13 -->
<g id="edge31" class="edge">
<title>12&#45;&gt;13</title>
<path fill="none" stroke="grey" stroke-width="2" d="M215.69,-431.7C218.25,-423.9 221.33,-414.51 224.18,-405.83"/>
<polygon fill="grey" stroke="grey" stroke-width="2" points="227.58,-406.7 227.38,-396.1 220.93,-404.51 227.58,-406.7"/>
</g>
<!-- 12&#45;&gt;14 -->
<g id="edge41" class="edge">
<title>12&#45;&gt;14</title>
<path fill="none" stroke="grey" stroke-width="2" d="M193.11,-431.99C184.71,-422.31 175.42,-409.46 171,-396 166.01,-380.8 166.77,-375.43 171,-360 185.75,-306.19 251.56,-173.37 299,-144 356.41,-108.47 822.71,-95.37 977.36,-91.97"/>
<polygon fill="grey" stroke="grey" stroke-width="2" points="977.6,-95.47 987.52,-91.75 977.45,-88.47 977.6,-95.47"/>
</g>
<!-- 15 -->
<g id="node16" class="node">
<title>15</title>
<path fill="none" stroke="#d85656" stroke-width="2" d="M486,-396C486,-396 392,-396 392,-396 386,-396 380,-390 380,-384 380,-384 380,-372 380,-372 380,-366 386,-360 392,-360 392,-360 486,-360 486,-360 492,-360 498,-366 498,-372 498,-372 498,-384 498,-384 498,-390 492,-396 486,-396"/>
<text text-anchor="middle" x="439" y="-375.5" font-family="sans" font-size="10.00">analyze_func_scores</text>
</g>
<!-- 12&#45;&gt;15 -->
<g id="edge48" class="edge">
<title>12&#45;&gt;15</title>
<path fill="none" stroke="grey" stroke-width="2" d="M247.05,-437.68C281.15,-427.25 332.51,-411.55 373.52,-399.01"/>
<polygon fill="grey" stroke="grey" stroke-width="2" points="374.63,-402.34 383.17,-396.06 372.59,-395.64 374.63,-402.34"/>
</g>
<!-- 12&#45;&gt;20 -->
<g id="edge68" class="edge">
<title>12&#45;&gt;20</title>
<path fill="none" stroke="grey" stroke-width="2" d="M240.56,-431.79C256.95,-422.06 277.19,-409.21 294,-396 384.46,-324.93 379.28,-271.58 480,-216 534.34,-186.01 605.54,-172.81 651.29,-167.12"/>
<polygon fill="grey" stroke="grey" stroke-width="2" points="651.97,-170.56 661.49,-165.92 651.16,-163.61 651.97,-170.56"/>
</g>
<!-- 13&#45;&gt;0 -->
<g id="edge7" class="edge">
<title>13&#45;&gt;0</title>
<path fill="none" stroke="grey" stroke-width="2" d="M215.42,-359.98C191.6,-334.99 152,-285.8 152,-235 152,-235 152,-235 152,-161 152,-121 152,-74.65 152,-46.08"/>
<polygon fill="grey" stroke="grey" stroke-width="2" points="155.5,-46.05 152,-36.05 148.5,-46.05 155.5,-46.05"/>
</g>
<!-- 13&#45;&gt;14 -->
<g id="edge47" class="edge">
<title>13&#45;&gt;14</title>
<path fill="none" stroke="grey" stroke-width="2" d="M234.89,-359.82C240.79,-315.39 263.19,-196.52 338,-144 390.02,-107.48 828.04,-95.1 977.37,-91.92"/>
<polygon fill="grey" stroke="grey" stroke-width="2" points="977.68,-95.42 987.61,-91.71 977.54,-88.42 977.68,-95.42"/>
</g>
<!-- 13&#45;&gt;18 -->
<g id="edge58" class="edge">
<title>13&#45;&gt;18</title>
<path fill="none" stroke="grey" stroke-width="2" d="M285.74,-370.43C311.46,-367.25 342.84,-363.39 371,-360 516.81,-342.45 689.22,-322.38 772.31,-312.75"/>
<polygon fill="grey" stroke="grey" stroke-width="2" points="772.95,-316.2 782.48,-311.57 772.14,-309.24 772.95,-316.2"/>
</g>
<!-- 13&#45;&gt;20 -->
<g id="edge73" class="edge">
<title>13&#45;&gt;20</title>
<path fill="none" stroke="grey" stroke-width="2" d="M248.78,-359.98C280.71,-326.67 356.67,-252.9 436,-216 506.55,-183.18 597.13,-170.61 650.92,-165.84"/>
<polygon fill="grey" stroke="grey" stroke-width="2" points="651.49,-169.31 661.17,-164.99 650.91,-162.33 651.49,-169.31"/>
</g>
<!-- 14&#45;&gt;0 -->
<g id="edge2" class="edge">
<title>14&#45;&gt;0</title>
<path fill="none" stroke="grey" stroke-width="2" d="M987.99,-85.88C842.39,-74.23 331.85,-33.39 189.24,-21.98"/>
<polygon fill="grey" stroke="grey" stroke-width="2" points="189.49,-18.49 179.24,-21.18 188.93,-25.47 189.49,-18.49"/>
</g>
<!-- 15&#45;&gt;14 -->
<g id="edge35" class="edge">
<title>15&#45;&gt;14</title>
<path fill="none" stroke="grey" stroke-width="2" d="M438,-359.88C437.1,-327.04 440.11,-255.03 480,-216 539.23,-158.04 572.1,-165.98 652,-144 766.05,-112.63 905,-99.18 977.53,-93.95"/>
<polygon fill="grey" stroke="grey" stroke-width="2" points="978,-97.42 987.73,-93.24 977.51,-90.44 978,-97.42"/>
</g>
<!-- 15&#45;&gt;18 -->
<g id="edge53" class="edge">
<title>15&#45;&gt;18</title>
<path fill="none" stroke="grey" stroke-width="2" d="M498,-366.22C573.2,-352.47 701.87,-328.96 772.31,-316.08"/>
<polygon fill="grey" stroke="grey" stroke-width="2" points="773.06,-319.5 782.26,-314.26 771.8,-312.62 773.06,-319.5"/>
</g>
<!-- 15&#45;&gt;20 -->
<g id="edge62" class="edge">
<title>15&#45;&gt;20</title>
<path fill="none" stroke="grey" stroke-width="2" d="M441.89,-359.84C448.34,-326.93 467.04,-254.8 512,-216 551.05,-182.29 610.3,-169.96 651.18,-165.49"/>
<polygon fill="grey" stroke="grey" stroke-width="2" points="651.54,-168.97 661.15,-164.51 650.85,-162 651.54,-168.97"/>
</g>
<!-- 16&#45;&gt;14 -->
<g id="edge42" class="edge">
<title>16&#45;&gt;14</title>
<path fill="none" stroke="grey" stroke-width="2" d="M1019.61,-359.75C1040.09,-337.14 1073.81,-295.27 1087,-252 1093,-232.32 1086.25,-153.11 1082,-144 1076.84,-132.94 1068.28,-122.98 1059.43,-114.76"/>
<polygon fill="grey" stroke="grey" stroke-width="2" points="1061.5,-111.93 1051.66,-108 1056.91,-117.21 1061.5,-111.93"/>
</g>
<!-- 16&#45;&gt;18 -->
<g id="edge57" class="edge">
<title>16&#45;&gt;18</title>
<path fill="none" stroke="grey" stroke-width="2" d="M958.72,-359.88C932.13,-349.59 898.27,-336.5 870.9,-325.91"/>
<polygon fill="grey" stroke="grey" stroke-width="2" points="872.1,-322.62 861.51,-322.28 869.57,-329.15 872.1,-322.62"/>
</g>
<!-- 16&#45;&gt;20 -->
<g id="edge69" class="edge">
<title>16&#45;&gt;20</title>
<path fill="none" stroke="grey" stroke-width="2" d="M970.71,-359.84C953.37,-350.11 931.93,-337.26 914,-324 856.59,-281.52 853.28,-257.29 795,-216 778.49,-204.3 759.1,-193.31 741.95,-184.41"/>
<polygon fill="grey" stroke="grey" stroke-width="2" points="743.18,-181.11 732.69,-179.68 740.01,-187.34 743.18,-181.11"/>
</g>
<!-- 17 -->
<g id="node18" class="node">
<title>17</title>
<path fill="none" stroke="#d8bc56" stroke-width="2" d="M1045.5,-252C1045.5,-252 1008.5,-252 1008.5,-252 1002.5,-252 996.5,-246 996.5,-240 996.5,-240 996.5,-228 996.5,-228 996.5,-222 1002.5,-216 1008.5,-216 1008.5,-216 1045.5,-216 1045.5,-216 1051.5,-216 1057.5,-222 1057.5,-228 1057.5,-228 1057.5,-240 1057.5,-240 1057.5,-246 1051.5,-252 1045.5,-252"/>
<text text-anchor="middle" x="1027" y="-231.5" font-family="sans" font-size="10.00">subindex</text>
</g>
<!-- 17&#45;&gt;14 -->
<g id="edge36" class="edge">
<title>17&#45;&gt;14</title>
<path fill="none" stroke="grey" stroke-width="2" d="M1027,-215.87C1027,-191.67 1027,-147.21 1027,-118.39"/>
<polygon fill="grey" stroke="grey" stroke-width="2" points="1030.5,-118.19 1027,-108.19 1023.5,-118.19 1030.5,-118.19"/>
</g>
<!-- 17&#45;&gt;20 -->
<g id="edge63" class="edge">
<title>17&#45;&gt;20</title>
<path fill="none" stroke="grey" stroke-width="2" d="M996.24,-219.13C993.15,-217.98 990.04,-216.91 987,-216 902.77,-190.74 800.98,-175.52 743.14,-168.23"/>
<polygon fill="grey" stroke="grey" stroke-width="2" points="743.22,-164.72 732.86,-166.96 742.36,-171.66 743.22,-164.72"/>
</g>
<!-- 18&#45;&gt;14 -->
<g id="edge46" class="edge">
<title>18&#45;&gt;14</title>
<path fill="none" stroke="grey" stroke-width="2" d="M861.74,-302.3C924.4,-297.13 1041.65,-283.41 1067,-252 1098.87,-212.49 1067.9,-151.07 1045.51,-116.64"/>
<polygon fill="grey" stroke="grey" stroke-width="2" points="1048.24,-114.43 1039.76,-108.09 1042.43,-118.34 1048.24,-114.43"/>
</g>
<!-- 18&#45;&gt;17 -->
<g id="edge50" class="edge">
<title>18&#45;&gt;17</title>
<path fill="none" stroke="grey" stroke-width="2" d="M861.69,-293.36C893.22,-283.87 938.59,-269.66 986.49,-252.03"/>
<polygon fill="grey" stroke="grey" stroke-width="2" points="987.95,-255.22 996.1,-248.46 985.51,-248.66 987.95,-255.22"/>
</g>
<!-- 18&#45;&gt;20 -->
<g id="edge72" class="edge">
<title>18&#45;&gt;20</title>
<path fill="none" stroke="grey" stroke-width="2" d="M814.15,-287.97C804.89,-269.04 788.17,-238.21 768,-216 757.93,-204.91 745.25,-194.59 733.4,-186.06"/>
<polygon fill="grey" stroke="grey" stroke-width="2" points="735.17,-183.03 724.97,-180.18 731.17,-188.77 735.17,-183.03"/>
</g>
<!-- 19 -->
<g id="node20" class="node">
<title>19</title>
<path fill="none" stroke="#56d892" stroke-width="2" d="M966,-252C966,-252 908,-252 908,-252 902,-252 896,-246 896,-240 896,-240 896,-228 896,-228 896,-222 902,-216 908,-216 908,-216 966,-216 966,-216 972,-216 978,-222 978,-228 978,-228 978,-240 978,-240 978,-246 972,-252 966,-252"/>
<text text-anchor="middle" x="937" y="-231.5" font-family="sans" font-size="10.00">make_graphs</text>
</g>
<!-- 19&#45;&gt;14 -->
<g id="edge43" class="edge">
<title>19&#45;&gt;14</title>
<path fill="none" stroke="grey" stroke-width="2" d="M947.86,-215.87C963.47,-191.24 992.37,-145.64 1010.59,-116.88"/>
<polygon fill="grey" stroke="grey" stroke-width="2" points="1013.71,-118.51 1016.11,-108.19 1007.8,-114.76 1013.71,-118.51"/>
</g>
<!-- 19&#45;&gt;20 -->
<g id="edge70" class="edge">
<title>19&#45;&gt;20</title>
<path fill="none" stroke="grey" stroke-width="2" d="M895.88,-220.19C891.2,-218.76 886.5,-217.34 882,-216 834.58,-201.88 780.12,-186.36 742.63,-175.79"/>
<polygon fill="grey" stroke="grey" stroke-width="2" points="743.1,-172.28 732.53,-172.94 741.21,-179.02 743.1,-172.28"/>
</g>
<!-- 20&#45;&gt;14 -->
<g id="edge44" class="edge">
<title>20&#45;&gt;14</title>
<path fill="none" stroke="grey" stroke-width="2" d="M732.63,-153.44C791.92,-140.87 910.93,-115.62 978.05,-101.38"/>
<polygon fill="grey" stroke="grey" stroke-width="2" points="978.9,-104.78 987.96,-99.28 977.45,-97.93 978.9,-104.78"/>
</g>
</g>
</svg>
