<?xml version="1.0" encoding="UTF-8" standalone="no"?>
<!DOCTYPE svg PUBLIC "-//W3C//DTD SVG 1.1//EN"
 "http://www.w3.org/Graphics/SVG/1.1/DTD/svg11.dtd">
<!-- Generated by graphviz version 6.0.2 (20221126.1951)
 -->
<!-- Title: snakemake_dag Pages: 1 -->
<svg width="1620pt" height="1196pt"
 viewBox="0.00 0.00 1619.70 1196.00" xmlns="http://www.w3.org/2000/svg" xmlns:xlink="http://www.w3.org/1999/xlink">
<g id="graph0" class="graph" transform="scale(1 1) rotate(0) translate(4 1192)">
<title>snakemake_dag</title>
<polygon fill="white" stroke="none" points="-4,4 -4,-1192 1615.7,-1192 1615.7,4 -4,4"/>
<!-- 0 -->
<g id="node1" class="node">
<title>0</title>
<path fill="none" stroke="#b6d856" stroke-width="2" d="M129.7,-36C129.7,-36 99.7,-36 99.7,-36 93.7,-36 87.7,-30 87.7,-24 87.7,-24 87.7,-12 87.7,-12 87.7,-6 93.7,0 99.7,0 99.7,0 129.7,0 129.7,0 135.7,0 141.7,-6 141.7,-12 141.7,-12 141.7,-24 141.7,-24 141.7,-30 135.7,-36 129.7,-36"/>
<text text-anchor="middle" x="114.7" y="-15.5" font-family="sans" font-size="10.00">all</text>
</g>
<!-- 1 -->
<g id="node2" class="node">
<title>1</title>
<path fill="none" stroke="#d8a456" stroke-width="2" d="M1051.7,-828C1051.7,-828 991.7,-828 991.7,-828 985.7,-828 979.7,-822 979.7,-816 979.7,-816 979.7,-804 979.7,-804 979.7,-798 985.7,-792 991.7,-792 991.7,-792 1051.7,-792 1051.7,-792 1057.7,-792 1063.7,-798 1063.7,-804 1063.7,-804 1063.7,-816 1063.7,-816 1063.7,-822 1057.7,-828 1051.7,-828"/>
<text text-anchor="middle" x="1021.7" y="-807.5" font-family="sans" font-size="10.00">variant_counts</text>
</g>
<!-- 1&#45;&gt;0 -->
<g id="edge4" class="edge">
<title>1&#45;&gt;0</title>
<path fill="none" stroke="grey" stroke-width="2" d="M1054.8,-792C1070.76,-782.76 1089.48,-770.3 1103.7,-756 1130.48,-729.08 1129.74,-716.3 1149.7,-684 1282.75,-468.66 1543.3,-281.39 1330.7,-144 1229.19,-78.39 345.34,-30.56 151.98,-20.83"/>
<polygon fill="grey" stroke="grey" stroke-width="2" points="151.92,-17.32 141.76,-20.31 151.57,-24.31 151.92,-17.32"/>
</g>
<!-- 9 -->
<g id="node10" class="node">
<title>9</title>
<path fill="none" stroke="#56d86b" stroke-width="2" d="M934.2,-756C934.2,-756 835.2,-756 835.2,-756 829.2,-756 823.2,-750 823.2,-744 823.2,-744 823.2,-732 823.2,-732 823.2,-726 829.2,-720 835.2,-720 835.2,-720 934.2,-720 934.2,-720 940.2,-720 946.2,-726 946.2,-732 946.2,-732 946.2,-744 946.2,-744 946.2,-750 940.2,-756 934.2,-756"/>
<text text-anchor="middle" x="884.7" y="-735.5" font-family="sans" font-size="10.00">analyze_variant_counts</text>
</g>
<!-- 1&#45;&gt;9 -->
<g id="edge18" class="edge">
<title>1&#45;&gt;9</title>
<path fill="none" stroke="grey" stroke-width="2" d="M988.19,-791.88C969.86,-782.51 946.97,-770.81 927.37,-760.8"/>
<polygon fill="grey" stroke="grey" stroke-width="2" points="928.84,-757.62 918.35,-756.19 925.66,-763.86 928.84,-757.62"/>
</g>
<!-- 13 -->
<g id="node14" class="node">
<title>13</title>
<path fill="none" stroke="#d87d56" stroke-width="2" d="M474.2,-612C474.2,-612 427.2,-612 427.2,-612 421.2,-612 415.2,-606 415.2,-600 415.2,-600 415.2,-588 415.2,-588 415.2,-582 421.2,-576 427.2,-576 427.2,-576 474.2,-576 474.2,-576 480.2,-576 486.2,-582 486.2,-588 486.2,-588 486.2,-600 486.2,-600 486.2,-606 480.2,-612 474.2,-612"/>
<text text-anchor="middle" x="450.7" y="-591.5" font-family="sans" font-size="10.00">func_scores</text>
</g>
<!-- 1&#45;&gt;13 -->
<g id="edge26" class="edge">
<title>1&#45;&gt;13</title>
<path fill="none" stroke="grey" stroke-width="2" d="M1012.68,-791.76C1001.6,-772.05 981.12,-739.96 955.7,-720 815.85,-610.19 592.44,-595.35 496.7,-594.35"/>
<polygon fill="grey" stroke="grey" stroke-width="2" points="496.5,-590.85 486.48,-594.29 496.46,-597.85 496.5,-590.85"/>
</g>
<!-- 15 -->
<g id="node16" class="node">
<title>15</title>
<path fill="none" stroke="#a7d856" stroke-width="2" d="M1080.2,-612C1080.2,-612 1029.2,-612 1029.2,-612 1023.2,-612 1017.2,-606 1017.2,-600 1017.2,-600 1017.2,-588 1017.2,-588 1017.2,-582 1023.2,-576 1029.2,-576 1029.2,-576 1080.2,-576 1080.2,-576 1086.2,-576 1092.2,-582 1092.2,-588 1092.2,-588 1092.2,-600 1092.2,-600 1092.2,-606 1086.2,-612 1080.2,-612"/>
<text text-anchor="middle" x="1054.7" y="-591.5" font-family="sans" font-size="10.00">prob_escape</text>
</g>
<!-- 1&#45;&gt;15 -->
<g id="edge32" class="edge">
<title>1&#45;&gt;15</title>
<path fill="none" stroke="grey" stroke-width="2" d="M1024.18,-791.59C1028.41,-762.04 1037.38,-700.19 1045.7,-648 1047.05,-639.58 1048.58,-630.41 1049.99,-622.11"/>
<polygon fill="grey" stroke="grey" stroke-width="2" points="1053.45,-622.62 1051.7,-612.17 1046.56,-621.44 1053.45,-622.62"/>
</g>
<!-- 17 -->
<g id="node18" class="node">
<title>17</title>
<path fill="none" stroke="#5692d8" stroke-width="2" d="M780.7,-108C780.7,-108 730.7,-108 730.7,-108 724.7,-108 718.7,-102 718.7,-96 718.7,-96 718.7,-84 718.7,-84 718.7,-78 724.7,-72 730.7,-72 730.7,-72 780.7,-72 780.7,-72 786.7,-72 792.7,-78 792.7,-84 792.7,-84 792.7,-96 792.7,-96 792.7,-102 786.7,-108 780.7,-108"/>
<text text-anchor="middle" x="755.7" y="-87.5" font-family="sans" font-size="10.00">sphinx_build</text>
</g>
<!-- 1&#45;&gt;17 -->
<g id="edge45" class="edge">
<title>1&#45;&gt;17</title>
<path fill="none" stroke="grey" stroke-width="2" d="M1043.28,-791.77C1054.65,-782.02 1068.35,-769.18 1078.7,-756 1118.35,-705.54 1344.51,-314.09 1360.7,-252 1364.74,-236.52 1366.67,-230.85 1360.7,-216 1344.18,-174.87 1331.56,-163.38 1291.7,-144 1206.08,-102.36 917.5,-93.43 803.05,-91.52"/>
<polygon fill="grey" stroke="grey" stroke-width="2" points="802.9,-88.02 792.85,-91.36 802.79,-95.02 802.9,-88.02"/>
</g>
<!-- 25 -->
<g id="node26" class="node">
<title>25</title>
<path fill="none" stroke="#d89556" stroke-width="2" d="M948.2,-180C948.2,-180 905.2,-180 905.2,-180 899.2,-180 893.2,-174 893.2,-168 893.2,-168 893.2,-156 893.2,-156 893.2,-150 899.2,-144 905.2,-144 905.2,-144 948.2,-144 948.2,-144 954.2,-144 960.2,-150 960.2,-156 960.2,-156 960.2,-168 960.2,-168 960.2,-174 954.2,-180 948.2,-180"/>
<text text-anchor="middle" x="926.7" y="-159.5" font-family="sans" font-size="10.00">docs_index</text>
</g>
<!-- 1&#45;&gt;25 -->
<g id="edge78" class="edge">
<title>1&#45;&gt;25</title>
<path fill="none" stroke="grey" stroke-width="2" d="M1033.03,-791.97C1071.53,-731.85 1191.89,-524.36 1134.7,-360 1121.29,-321.45 1051.73,-242.52 1020.7,-216 1005.44,-202.96 986.49,-191.55 969.61,-182.69"/>
<polygon fill="grey" stroke="grey" stroke-width="2" points="970.98,-179.46 960.48,-178.03 967.8,-185.69 970.98,-179.46"/>
</g>
<!-- 2 -->
<g id="node3" class="node">
<title>2</title>
<path fill="none" stroke="#d8bc56" stroke-width="2" d="M981.2,-900C981.2,-900 916.2,-900 916.2,-900 910.2,-900 904.2,-894 904.2,-888 904.2,-888 904.2,-876 904.2,-876 904.2,-870 910.2,-864 916.2,-864 916.2,-864 981.2,-864 981.2,-864 987.2,-864 993.2,-870 993.2,-876 993.2,-876 993.2,-888 993.2,-888 993.2,-894 987.2,-900 981.2,-900"/>
<text text-anchor="middle" x="948.7" y="-879.5" font-family="sans" font-size="10.00">count_barcodes</text>
</g>
<!-- 2&#45;&gt;1 -->
<g id="edge9" class="edge">
<title>2&#45;&gt;1</title>
<path fill="none" stroke="grey" stroke-width="2" d="M966.75,-863.7C975.76,-855.05 986.82,-844.45 996.65,-835.03"/>
<polygon fill="grey" stroke="grey" stroke-width="2" points="999.07,-837.55 1003.87,-828.1 994.23,-832.5 999.07,-837.55"/>
</g>
<!-- 2&#45;&gt;9 -->
<g id="edge20" class="edge">
<title>2&#45;&gt;9</title>
<path fill="none" stroke="grey" stroke-width="2" d="M940.98,-863.87C929.98,-839.46 909.68,-794.43 896.71,-765.64"/>
<polygon fill="grey" stroke="grey" stroke-width="2" points="899.75,-763.87 892.45,-756.19 893.37,-766.74 899.75,-763.87"/>
</g>
<!-- 3 -->
<g id="node4" class="node">
<title>3</title>
<path fill="none" stroke="#56d8a9" stroke-width="2" d="M1151.2,-972C1151.2,-972 1062.2,-972 1062.2,-972 1056.2,-972 1050.2,-966 1050.2,-960 1050.2,-960 1050.2,-948 1050.2,-948 1050.2,-942 1056.2,-936 1062.2,-936 1062.2,-936 1151.2,-936 1151.2,-936 1157.2,-936 1163.2,-942 1163.2,-948 1163.2,-948 1163.2,-960 1163.2,-960 1163.2,-966 1157.2,-972 1151.2,-972"/>
<text text-anchor="middle" x="1106.7" y="-951.5" font-family="sans" font-size="10.00">build_codon_variants</text>
</g>
<!-- 3&#45;&gt;1 -->
<g id="edge8" class="edge">
<title>3&#45;&gt;1</title>
<path fill="none" stroke="grey" stroke-width="2" d="M1096.45,-935.87C1081.71,-911.24 1054.41,-865.64 1037.2,-836.88"/>
<polygon fill="grey" stroke="grey" stroke-width="2" points="1040.13,-834.97 1031.99,-828.19 1034.13,-838.57 1040.13,-834.97"/>
</g>
<!-- 3&#45;&gt;2 -->
<g id="edge10" class="edge">
<title>3&#45;&gt;2</title>
<path fill="none" stroke="grey" stroke-width="2" d="M1068.05,-935.88C1046.45,-926.31 1019.35,-914.3 996.44,-904.15"/>
<polygon fill="grey" stroke="grey" stroke-width="2" points="997.79,-900.92 987.23,-900.07 994.95,-907.32 997.79,-900.92"/>
</g>
<!-- 3&#45;&gt;9 -->
<g id="edge19" class="edge">
<title>3&#45;&gt;9</title>
<path fill="none" stroke="grey" stroke-width="2" d="M1050.19,-946.3C994.61,-938.46 915.33,-923.47 895.7,-900 864.43,-862.6 870.59,-801.67 877.74,-766.46"/>
<polygon fill="grey" stroke="grey" stroke-width="2" points="881.22,-766.94 879.95,-756.42 874.38,-765.43 881.22,-766.94"/>
</g>
<!-- 3&#45;&gt;13 -->
<g id="edge28" class="edge">
<title>3&#45;&gt;13</title>
<path fill="none" stroke="grey" stroke-width="2" d="M1050.1,-951.55C983.35,-948.12 870.19,-936.81 780.7,-900 678.74,-858.06 658.68,-831.89 578.7,-756 533.53,-713.13 490.49,-653.94 467.65,-620.57"/>
<polygon fill="grey" stroke="grey" stroke-width="2" points="470.53,-618.59 462.03,-612.27 464.74,-622.51 470.53,-618.59"/>
</g>
<!-- 3&#45;&gt;15 -->
<g id="edge34" class="edge">
<title>3&#45;&gt;15</title>
<path fill="none" stroke="grey" stroke-width="2" d="M1104.19,-935.73C1095.84,-878.19 1068.89,-692.66 1058.68,-622.35"/>
<polygon fill="grey" stroke="grey" stroke-width="2" points="1062.09,-621.49 1057.19,-612.09 1055.16,-622.49 1062.09,-621.49"/>
</g>
<!-- 3&#45;&gt;17 -->
<g id="edge40" class="edge">
<title>3&#45;&gt;17</title>
<path fill="none" stroke="grey" stroke-width="2" d="M1125.35,-935.77C1135.86,-925.72 1148.99,-912.58 1159.7,-900 1185.3,-869.95 1189.3,-860.5 1211.7,-828 1325.55,-662.89 1459.7,-651.56 1459.7,-451 1459.7,-451 1459.7,-451 1459.7,-233 1459.7,-163.35 1396.3,-167.42 1330.7,-144 1146.76,-78.32 1087,-128.03 892.7,-108 862.82,-104.92 829.35,-100.78 802.97,-97.36"/>
<polygon fill="grey" stroke="grey" stroke-width="2" points="803.24,-93.86 792.87,-96.03 802.33,-100.8 803.24,-93.86"/>
</g>
<!-- 21 -->
<g id="node22" class="node">
<title>21</title>
<path fill="none" stroke="#d86e56" stroke-width="2" d="M608.7,-324C608.7,-324 558.7,-324 558.7,-324 552.7,-324 546.7,-318 546.7,-312 546.7,-312 546.7,-300 546.7,-300 546.7,-294 552.7,-288 558.7,-288 558.7,-288 608.7,-288 608.7,-288 614.7,-288 620.7,-294 620.7,-300 620.7,-300 620.7,-312 620.7,-312 620.7,-318 614.7,-324 608.7,-324"/>
<text text-anchor="middle" x="583.7" y="-303.5" font-family="sans" font-size="10.00">make_nblink</text>
</g>
<!-- 3&#45;&gt;21 -->
<g id="edge57" class="edge">
<title>3&#45;&gt;21</title>
<path fill="none" stroke="grey" stroke-width="2" d="M1050.03,-946.17C989.87,-937.89 899.94,-922.22 873.7,-900 783.07,-823.23 837.89,-754.21 784.7,-648 739.44,-557.62 700.38,-553.01 645.7,-468 626.13,-437.57 620.94,-429.68 607.7,-396 599.73,-375.71 593.44,-351.8 589.31,-333.88"/>
<polygon fill="grey" stroke="grey" stroke-width="2" points="592.72,-333.09 587.13,-324.09 585.89,-334.61 592.72,-333.09"/>
</g>
<!-- 3&#45;&gt;25 -->
<g id="edge73" class="edge">
<title>3&#45;&gt;25</title>
<path fill="none" stroke="grey" stroke-width="2" d="M1116.81,-935.9C1127.43,-917.96 1144.65,-888.95 1159.7,-864 1188.76,-815.83 1210.47,-810.15 1225.7,-756 1240.67,-702.8 1255.18,-647.1 1152.7,-360 1126.42,-286.38 1115.13,-261.69 1051.7,-216 1020.71,-193.67 1006.16,-195.75 969.99,-181.64"/>
<polygon fill="grey" stroke="grey" stroke-width="2" points="970.88,-178.23 960.3,-177.68 968.23,-184.71 970.88,-178.23"/>
</g>
<!-- 4 -->
<g id="node5" class="node">
<title>4</title>
<path fill="none" stroke="#567bd8" stroke-width="2" d="M1429.7,-1044C1429.7,-1044 1327.7,-1044 1327.7,-1044 1321.7,-1044 1315.7,-1038 1315.7,-1032 1315.7,-1032 1315.7,-1020 1315.7,-1020 1315.7,-1014 1321.7,-1008 1327.7,-1008 1327.7,-1008 1429.7,-1008 1429.7,-1008 1435.7,-1008 1441.7,-1014 1441.7,-1020 1441.7,-1020 1441.7,-1032 1441.7,-1032 1441.7,-1038 1435.7,-1044 1429.7,-1044"/>
<text text-anchor="middle" x="1378.7" y="-1023.5" font-family="sans" font-size="10.00">build_pacbio_consensus</text>
</g>
<!-- 4&#45;&gt;3 -->
<g id="edge11" class="edge">
<title>4&#45;&gt;3</title>
<path fill="none" stroke="grey" stroke-width="2" d="M1315.62,-1008.76C1272.96,-997.79 1216.71,-983.31 1173.32,-972.15"/>
<polygon fill="grey" stroke="grey" stroke-width="2" points="1173.99,-968.7 1163.43,-969.6 1172.25,-975.48 1173.99,-968.7"/>
</g>
<!-- 4&#45;&gt;17 -->
<g id="edge41" class="edge">
<title>4&#45;&gt;17</title>
<path fill="none" stroke="grey" stroke-width="2" d="M1407.51,-1007.85C1442.73,-984.45 1497.7,-938.97 1497.7,-883 1497.7,-883 1497.7,-883 1497.7,-233 1497.7,-173.17 1451.88,-167.12 1396.7,-144 1293.14,-100.6 1004.46,-118.92 892.7,-108 862.8,-105.08 829.33,-100.94 802.96,-97.48"/>
<polygon fill="grey" stroke="grey" stroke-width="2" points="803.23,-93.99 792.86,-96.14 802.31,-100.93 803.23,-93.99"/>
</g>
<!-- 4&#45;&gt;21 -->
<g id="edge58" class="edge">
<title>4&#45;&gt;21</title>
<path fill="none" stroke="grey" stroke-width="2" d="M1315.33,-1010.59C1310.73,-1009.67 1306.15,-1008.8 1301.7,-1008 1092.44,-970.47 1017.84,-1009.65 835.7,-900 714.73,-827.17 659.2,-813.41 602.7,-684 557.24,-579.87 671.63,-542.62 645.7,-432 637.12,-395.4 616.17,-357.24 600.99,-332.86"/>
<polygon fill="grey" stroke="grey" stroke-width="2" points="603.81,-330.78 595.49,-324.23 597.91,-334.54 603.81,-330.78"/>
</g>
<!-- 4&#45;&gt;25 -->
<g id="edge74" class="edge">
<title>4&#45;&gt;25</title>
<path fill="none" stroke="grey" stroke-width="2" d="M1375.67,-1007.57C1371.28,-980.86 1363.7,-928.12 1363.7,-883 1363.7,-883 1363.7,-883 1363.7,-665 1363.7,-557.37 1343.39,-529.45 1297.7,-432 1248.31,-326.63 1246.94,-279.94 1149.7,-216 1082.8,-172.01 1048.03,-202.22 970.27,-181.12"/>
<polygon fill="grey" stroke="grey" stroke-width="2" points="971.15,-177.73 960.57,-178.28 969.19,-184.45 971.15,-177.73"/>
</g>
<!-- 5 -->
<g id="node6" class="node">
<title>5</title>
<path fill="none" stroke="#56d8b9" stroke-width="2" d="M1515.7,-1116C1515.7,-1116 1435.7,-1116 1435.7,-1116 1429.7,-1116 1423.7,-1110 1423.7,-1104 1423.7,-1104 1423.7,-1092 1423.7,-1092 1423.7,-1086 1429.7,-1080 1435.7,-1080 1435.7,-1080 1515.7,-1080 1515.7,-1080 1521.7,-1080 1527.7,-1086 1527.7,-1092 1527.7,-1092 1527.7,-1104 1527.7,-1104 1527.7,-1110 1521.7,-1116 1515.7,-1116"/>
<text text-anchor="middle" x="1475.7" y="-1095.5" font-family="sans" font-size="10.00">analyze_pacbio_ccs</text>
</g>
<!-- 5&#45;&gt;4 -->
<g id="edge14" class="edge">
<title>5&#45;&gt;4</title>
<path fill="none" stroke="grey" stroke-width="2" d="M1451.73,-1079.7C1439.39,-1070.8 1424.19,-1059.82 1410.85,-1050.2"/>
<polygon fill="grey" stroke="grey" stroke-width="2" points="1412.56,-1047.12 1402.4,-1044.1 1408.47,-1052.79 1412.56,-1047.12"/>
</g>
<!-- 5&#45;&gt;17 -->
<g id="edge43" class="edge">
<title>5&#45;&gt;17</title>
<path fill="none" stroke="grey" stroke-width="2" d="M1520.94,-1079.9C1538.89,-1071.32 1558.57,-1059.42 1572.7,-1044 1601.88,-1012.16 1611.7,-998.19 1611.7,-955 1611.7,-955 1611.7,-955 1611.7,-233 1611.7,-173.5 1566.54,-167.09 1511.7,-144 1383.06,-89.82 948.28,-89.04 803.24,-90.36"/>
<polygon fill="grey" stroke="grey" stroke-width="2" points="802.87,-86.87 792.91,-90.47 802.94,-93.87 802.87,-86.87"/>
</g>
<!-- 5&#45;&gt;21 -->
<g id="edge59" class="edge">
<title>5&#45;&gt;21</title>
<path fill="none" stroke="grey" stroke-width="2" d="M1423.37,-1092.43C1227.08,-1073.86 545.7,-996.07 545.7,-811 545.7,-811 545.7,-811 545.7,-449 545.7,-407.63 560.94,-361.72 572.11,-333.61"/>
<polygon fill="grey" stroke="grey" stroke-width="2" points="575.46,-334.67 576.01,-324.09 568.98,-332.02 575.46,-334.67"/>
</g>
<!-- 5&#45;&gt;25 -->
<g id="edge76" class="edge">
<title>5&#45;&gt;25</title>
<path fill="none" stroke="grey" stroke-width="2" d="M1509.27,-1079.83C1523.64,-1070.93 1539.44,-1058.8 1549.7,-1044 1573.05,-1010.33 1573.7,-995.97 1573.7,-955 1573.7,-955 1573.7,-955 1573.7,-881 1573.7,-581.31 1426.6,-532.08 1252.7,-288 1227.51,-252.65 1224.9,-236.63 1186.7,-216 1102.05,-170.28 1063.75,-205.58 970.37,-181.09"/>
<polygon fill="grey" stroke="grey" stroke-width="2" points="971.12,-177.66 960.55,-178.35 969.24,-184.41 971.12,-177.66"/>
</g>
<!-- 6 -->
<g id="node7" class="node">
<title>6</title>
<path fill="none" stroke="#8fd856" stroke-width="2" d="M1524.7,-1188C1524.7,-1188 1426.7,-1188 1426.7,-1188 1420.7,-1188 1414.7,-1182 1414.7,-1176 1414.7,-1176 1414.7,-1164 1414.7,-1164 1414.7,-1158 1420.7,-1152 1426.7,-1152 1426.7,-1152 1524.7,-1152 1524.7,-1152 1530.7,-1152 1536.7,-1158 1536.7,-1164 1536.7,-1164 1536.7,-1176 1536.7,-1176 1536.7,-1182 1530.7,-1188 1524.7,-1188"/>
<text text-anchor="middle" x="1475.7" y="-1167.5" font-family="sans" font-size="10.00">align_parse_PacBio_ccs</text>
</g>
<!-- 6&#45;&gt;5 -->
<g id="edge15" class="edge">
<title>6&#45;&gt;5</title>
<path fill="none" stroke="grey" stroke-width="2" d="M1475.7,-1151.7C1475.7,-1143.98 1475.7,-1134.71 1475.7,-1126.11"/>
<polygon fill="grey" stroke="grey" stroke-width="2" points="1479.2,-1126.1 1475.7,-1116.1 1472.2,-1126.1 1479.2,-1126.1"/>
</g>
<!-- 7 -->
<g id="node8" class="node">
<title>7</title>
<path fill="none" stroke="#80d856" stroke-width="2" d="M1225.7,-1116C1225.7,-1116 1159.7,-1116 1159.7,-1116 1153.7,-1116 1147.7,-1110 1147.7,-1104 1147.7,-1104 1147.7,-1092 1147.7,-1092 1147.7,-1086 1153.7,-1080 1159.7,-1080 1159.7,-1080 1225.7,-1080 1225.7,-1080 1231.7,-1080 1237.7,-1086 1237.7,-1092 1237.7,-1092 1237.7,-1104 1237.7,-1104 1237.7,-1110 1231.7,-1116 1225.7,-1116"/>
<text text-anchor="middle" x="1192.7" y="-1095.5" font-family="sans" font-size="10.00">gene_sequence</text>
</g>
<!-- 7&#45;&gt;1 -->
<g id="edge7" class="edge">
<title>7&#45;&gt;1</title>
<path fill="none" stroke="grey" stroke-width="2" d="M1159.91,-1079.88C1124.29,-1059.39 1068.86,-1021.54 1041.7,-972 1018.49,-929.66 1017.4,-871.82 1019.21,-838.23"/>
<polygon fill="grey" stroke="grey" stroke-width="2" points="1022.7,-838.44 1019.88,-828.23 1015.72,-837.97 1022.7,-838.44"/>
</g>
<!-- 7&#45;&gt;3 -->
<g id="edge12" class="edge">
<title>7&#45;&gt;3</title>
<path fill="none" stroke="grey" stroke-width="2" d="M1182.33,-1079.87C1167.41,-1055.24 1139.79,-1009.64 1122.38,-980.88"/>
<polygon fill="grey" stroke="grey" stroke-width="2" points="1125.29,-978.93 1117.11,-972.19 1119.3,-982.56 1125.29,-978.93"/>
</g>
<!-- 7&#45;&gt;4 -->
<g id="edge13" class="edge">
<title>7&#45;&gt;4</title>
<path fill="none" stroke="grey" stroke-width="2" d="M1237.73,-1080.05C1263.7,-1070.28 1296.53,-1057.92 1323.98,-1047.59"/>
<polygon fill="grey" stroke="grey" stroke-width="2" points="1325.32,-1050.83 1333.45,-1044.03 1322.86,-1044.28 1325.32,-1050.83"/>
</g>
<!-- 7&#45;&gt;9 -->
<g id="edge17" class="edge">
<title>7&#45;&gt;9</title>
<path fill="none" stroke="grey" stroke-width="2" d="M1147.49,-1097.29C994.8,-1097.07 507.7,-1086.09 507.7,-955 507.7,-955 507.7,-955 507.7,-881 507.7,-816.48 703.5,-771.21 812.89,-750.95"/>
<polygon fill="grey" stroke="grey" stroke-width="2" points="813.66,-754.36 822.87,-749.12 812.4,-747.48 813.66,-754.36"/>
</g>
<!-- 7&#45;&gt;13 -->
<g id="edge25" class="edge">
<title>7&#45;&gt;13</title>
<path fill="none" stroke="grey" stroke-width="2" d="M1147.37,-1096.79C1018.32,-1095.66 651.18,-1088.5 540.7,-1044 482.69,-1020.63 431.7,-1017.54 431.7,-955 431.7,-955 431.7,-955 431.7,-737 431.7,-696.86 439.25,-650.9 444.83,-622.4"/>
<polygon fill="grey" stroke="grey" stroke-width="2" points="448.31,-622.88 446.86,-612.39 441.45,-621.5 448.31,-622.88"/>
</g>
<!-- 7&#45;&gt;15 -->
<g id="edge31" class="edge">
<title>7&#45;&gt;15</title>
<path fill="none" stroke="grey" stroke-width="2" d="M1191.66,-1079.9C1189.62,-1050.28 1184.23,-987.68 1172.7,-936 1143.38,-804.59 1127.44,-773.52 1078.7,-648 1075.34,-639.34 1071.29,-630.06 1067.49,-621.72"/>
<polygon fill="grey" stroke="grey" stroke-width="2" points="1070.58,-620.06 1063.19,-612.46 1064.23,-623 1070.58,-620.06"/>
</g>
<!-- 7&#45;&gt;17 -->
<g id="edge48" class="edge">
<title>7&#45;&gt;17</title>
<path fill="none" stroke="grey" stroke-width="2" d="M1237.94,-1095.79C1291.77,-1092.6 1382.89,-1081.53 1450.7,-1044 1498.56,-1017.51 1535.7,-1009.7 1535.7,-955 1535.7,-955 1535.7,-955 1535.7,-881 1535.7,-784.4 1573.7,-763.6 1573.7,-667 1573.7,-667 1573.7,-667 1573.7,-233 1573.7,-164.8 1512.82,-167.23 1448.7,-144 1329.56,-100.84 939.46,-92.83 803.19,-91.34"/>
<polygon fill="grey" stroke="grey" stroke-width="2" points="803.11,-87.84 793.07,-91.23 803.03,-94.84 803.11,-87.84"/>
</g>
<!-- 7&#45;&gt;25 -->
<g id="edge81" class="edge">
<title>7&#45;&gt;25</title>
<path fill="none" stroke="grey" stroke-width="2" d="M1196.1,-1079.76C1204.36,-1037.2 1225.74,-923.61 1237.7,-828 1255.6,-684.89 1259.16,-642.72 1219.7,-504 1181.13,-368.39 1203.78,-294.55 1086.7,-216 1042.75,-186.51 1020.94,-197.75 969.76,-181.21"/>
<polygon fill="grey" stroke="grey" stroke-width="2" points="970.8,-177.87 960.21,-177.91 968.52,-184.48 970.8,-177.87"/>
</g>
<!-- 8 -->
<g id="node9" class="node">
<title>8</title>
<path fill="none" stroke="#566bd8" stroke-width="2" d="M763.7,-684C763.7,-684 623.7,-684 623.7,-684 617.7,-684 611.7,-678 611.7,-672 611.7,-672 611.7,-660 611.7,-660 611.7,-654 617.7,-648 623.7,-648 623.7,-648 763.7,-648 763.7,-648 769.7,-648 775.7,-654 775.7,-660 775.7,-660 775.7,-672 775.7,-672 775.7,-678 769.7,-684 763.7,-684"/>
<text text-anchor="middle" x="693.7" y="-663.5" font-family="sans" font-size="10.00">check_adequate_variant_counts</text>
</g>
<!-- 8&#45;&gt;0 -->
<g id="edge3" class="edge">
<title>8&#45;&gt;0</title>
<path fill="none" stroke="grey" stroke-width="2" d="M611.41,-664.25C435.49,-660.42 38.7,-638.92 38.7,-523 38.7,-523 38.7,-523 38.7,-377 38.7,-250.83 84.43,-104.99 104.95,-45.91"/>
<polygon fill="grey" stroke="grey" stroke-width="2" points="108.34,-46.83 108.35,-36.23 101.73,-44.5 108.34,-46.83"/>
</g>
<!-- 8&#45;&gt;13 -->
<g id="edge27" class="edge">
<title>8&#45;&gt;13</title>
<path fill="none" stroke="grey" stroke-width="2" d="M634.57,-647.97C591.92,-635.68 535.21,-619.34 496.1,-608.08"/>
<polygon fill="grey" stroke="grey" stroke-width="2" points="496.89,-604.66 486.31,-605.26 494.95,-611.39 496.89,-604.66"/>
</g>
<!-- 8&#45;&gt;15 -->
<g id="edge33" class="edge">
<title>8&#45;&gt;15</title>
<path fill="none" stroke="grey" stroke-width="2" d="M776.07,-649.03C847.33,-635.21 947.91,-615.71 1006.71,-604.31"/>
<polygon fill="grey" stroke="grey" stroke-width="2" points="1007.69,-607.68 1016.84,-602.34 1006.35,-600.81 1007.69,-607.68"/>
</g>
<!-- 9&#45;&gt;8 -->
<g id="edge16" class="edge">
<title>9&#45;&gt;8</title>
<path fill="none" stroke="grey" stroke-width="2" d="M837.98,-719.88C811.4,-710.14 777.94,-697.87 749.93,-687.61"/>
<polygon fill="grey" stroke="grey" stroke-width="2" points="750.87,-684.22 740.27,-684.07 748.46,-690.8 750.87,-684.22"/>
</g>
<!-- 9&#45;&gt;17 -->
<g id="edge50" class="edge">
<title>9&#45;&gt;17</title>
<path fill="none" stroke="grey" stroke-width="2" d="M823.17,-736.53C646.59,-733.92 143.26,-717.22 24.7,-612 -5.94,-584.81 0.7,-563.97 0.7,-523 0.7,-523 0.7,-523 0.7,-377 0.7,-230.55 101.41,-206.81 233.7,-144 317.19,-104.36 596.29,-94.26 708.44,-91.78"/>
<polygon fill="grey" stroke="grey" stroke-width="2" points="708.53,-95.28 718.45,-91.57 708.38,-88.28 708.53,-95.28"/>
</g>
<!-- 9&#45;&gt;21 -->
<g id="edge64" class="edge">
<title>9&#45;&gt;21</title>
<path fill="none" stroke="grey" stroke-width="2" d="M874.88,-719.66C843.36,-664.64 740.73,-489.93 635.7,-360 627.81,-350.23 618.39,-340.22 609.75,-331.56"/>
<polygon fill="grey" stroke="grey" stroke-width="2" points="612,-328.87 602.41,-324.35 607.09,-333.86 612,-328.87"/>
</g>
<!-- 9&#45;&gt;25 -->
<g id="edge83" class="edge">
<title>9&#45;&gt;25</title>
<path fill="none" stroke="grey" stroke-width="2" d="M907.17,-719.97C936.38,-695.71 983.7,-648.19 983.7,-595 983.7,-595 983.7,-595 983.7,-305 983.7,-261.8 960.7,-216.19 943.92,-188.66"/>
<polygon fill="grey" stroke="grey" stroke-width="2" points="946.8,-186.65 938.51,-180.04 940.87,-190.37 946.8,-186.65"/>
</g>
<!-- 10 -->
<g id="node11" class="node">
<title>10</title>
<path fill="none" stroke="#59d856" stroke-width="2" d="M829.2,-396C829.2,-396 738.2,-396 738.2,-396 732.2,-396 726.2,-390 726.2,-384 726.2,-384 726.2,-372 726.2,-372 726.2,-366 732.2,-360 738.2,-360 738.2,-360 829.2,-360 829.2,-360 835.2,-360 841.2,-366 841.2,-372 841.2,-372 841.2,-384 841.2,-384 841.2,-390 835.2,-396 829.2,-396"/>
<text text-anchor="middle" x="783.7" y="-375.5" font-family="sans" font-size="10.00">avg_antibody_escape</text>
</g>
<!-- 10&#45;&gt;0 -->
<g id="edge6" class="edge">
<title>10&#45;&gt;0</title>
<path fill="none" stroke="grey" stroke-width="2" d="M742.5,-359.95C721.3,-350.48 695.42,-337.84 673.7,-324 652.39,-310.42 652.99,-297.79 629.7,-288 495.74,-231.67 432.34,-321.48 304.7,-252 216.17,-203.8 153.08,-95.72 127.43,-45.54"/>
<polygon fill="grey" stroke="grey" stroke-width="2" points="130.42,-43.68 122.81,-36.31 124.16,-46.82 130.42,-43.68"/>
</g>
<!-- 10&#45;&gt;17 -->
<g id="edge51" class="edge">
<title>10&#45;&gt;17</title>
<path fill="none" stroke="grey" stroke-width="2" d="M782.04,-359.97C777.36,-312.19 764.09,-176.62 758.37,-118.27"/>
<polygon fill="grey" stroke="grey" stroke-width="2" points="761.85,-117.92 757.4,-108.31 754.89,-118.6 761.85,-117.92"/>
</g>
<!-- 10&#45;&gt;21 -->
<g id="edge65" class="edge">
<title>10&#45;&gt;21</title>
<path fill="none" stroke="grey" stroke-width="2" d="M735.03,-359.97C703.32,-348.86 662.15,-334.45 630.76,-323.47"/>
<polygon fill="grey" stroke="grey" stroke-width="2" points="631.53,-320.03 620.93,-320.03 629.22,-326.64 631.53,-320.03"/>
</g>
<!-- 24 -->
<g id="node25" class="node">
<title>24</title>
<path fill="none" stroke="#56a9d8" stroke-width="2" d="M677.2,-252C677.2,-252 548.2,-252 548.2,-252 542.2,-252 536.2,-246 536.2,-240 536.2,-240 536.2,-228 536.2,-228 536.2,-222 542.2,-216 548.2,-216 548.2,-216 677.2,-216 677.2,-216 683.2,-216 689.2,-222 689.2,-228 689.2,-228 689.2,-240 689.2,-240 689.2,-246 683.2,-252 677.2,-252"/>
<text text-anchor="middle" x="612.7" y="-231.5" font-family="sans" font-size="10.00">format_antibody_escape_plot</text>
</g>
<!-- 10&#45;&gt;24 -->
<g id="edge67" class="edge">
<title>10&#45;&gt;24</title>
<path fill="none" stroke="grey" stroke-width="2" d="M763.08,-359.87C732.65,-334.6 675.63,-287.25 641.22,-258.68"/>
<polygon fill="grey" stroke="grey" stroke-width="2" points="643.33,-255.89 633.4,-252.19 638.86,-261.27 643.33,-255.89"/>
</g>
<!-- 10&#45;&gt;25 -->
<g id="edge84" class="edge">
<title>10&#45;&gt;25</title>
<path fill="none" stroke="grey" stroke-width="2" d="M788.2,-359.96C797.06,-328.81 819.16,-261.66 855.7,-216 864.91,-204.5 877.16,-194.19 888.89,-185.78"/>
<polygon fill="grey" stroke="grey" stroke-width="2" points="891.03,-188.56 897.29,-180.01 887.07,-182.79 891.03,-188.56"/>
</g>
<!-- 11 -->
<g id="node12" class="node">
<title>11</title>
<path fill="none" stroke="#d8cb56" stroke-width="2" d="M389.2,-468C389.2,-468 324.2,-468 324.2,-468 318.2,-468 312.2,-462 312.2,-456 312.2,-456 312.2,-444 312.2,-444 312.2,-438 318.2,-432 324.2,-432 324.2,-432 389.2,-432 389.2,-432 395.2,-432 401.2,-438 401.2,-444 401.2,-444 401.2,-456 401.2,-456 401.2,-462 395.2,-468 389.2,-468"/>
<text text-anchor="middle" x="356.7" y="-447.5" font-family="sans" font-size="10.00">avg_muteffects</text>
</g>
<!-- 11&#45;&gt;0 -->
<g id="edge5" class="edge">
<title>11&#45;&gt;0</title>
<path fill="none" stroke="grey" stroke-width="2" d="M333.88,-431.99C321.88,-422.32 307.47,-409.46 296.7,-396 205.52,-281.98 193.21,-243.44 138.7,-108 130.56,-87.77 124.29,-63.86 120.2,-45.92"/>
<polygon fill="grey" stroke="grey" stroke-width="2" points="123.61,-45.14 118.05,-36.12 116.77,-46.64 123.61,-45.14"/>
</g>
<!-- 11&#45;&gt;10 -->
<g id="edge21" class="edge">
<title>11&#45;&gt;10</title>
<path fill="none" stroke="grey" stroke-width="2" d="M401.59,-441.64C476.64,-429.34 628,-404.52 716.03,-390.09"/>
<polygon fill="grey" stroke="grey" stroke-width="2" points="716.61,-393.55 725.91,-388.47 715.48,-386.64 716.61,-393.55"/>
</g>
<!-- 11&#45;&gt;17 -->
<g id="edge47" class="edge">
<title>11&#45;&gt;17</title>
<path fill="none" stroke="grey" stroke-width="2" d="M340.55,-431.61C332.27,-421.82 322.7,-408.98 316.7,-396 269.66,-294.11 217.38,-219.18 300.7,-144 330.59,-117.03 597.81,-99.57 708.26,-93.45"/>
<polygon fill="grey" stroke="grey" stroke-width="2" points="708.65,-96.93 718.44,-92.89 708.27,-89.94 708.65,-96.93"/>
</g>
<!-- 11&#45;&gt;21 -->
<g id="edge62" class="edge">
<title>11&#45;&gt;21</title>
<path fill="none" stroke="grey" stroke-width="2" d="M390.67,-431.8C408.95,-422.06 431.6,-409.22 450.7,-396 471.2,-381.82 473.34,-374.37 493.7,-360 509.18,-349.07 527.02,-338.24 542.71,-329.24"/>
<polygon fill="grey" stroke="grey" stroke-width="2" points="544.69,-332.14 551.67,-324.16 541.24,-326.05 544.69,-332.14"/>
</g>
<!-- 22 -->
<g id="node23" class="node">
<title>22</title>
<path fill="none" stroke="#68d856" stroke-width="2" d="M429.2,-252C429.2,-252 326.2,-252 326.2,-252 320.2,-252 314.2,-246 314.2,-240 314.2,-240 314.2,-228 314.2,-228 314.2,-222 320.2,-216 326.2,-216 326.2,-216 429.2,-216 429.2,-216 435.2,-216 441.2,-222 441.2,-228 441.2,-228 441.2,-240 441.2,-240 441.2,-246 435.2,-252 429.2,-252"/>
<text text-anchor="middle" x="377.7" y="-231.5" font-family="sans" font-size="10.00">format_muteffects_plot</text>
</g>
<!-- 11&#45;&gt;22 -->
<g id="edge66" class="edge">
<title>11&#45;&gt;22</title>
<path fill="none" stroke="grey" stroke-width="2" d="M341.95,-431.63C334.61,-421.85 326.52,-409.01 322.7,-396 318.2,-380.65 319.41,-375.66 322.7,-360 330.28,-323.95 348.92,-285.61 362.4,-261.05"/>
<polygon fill="grey" stroke="grey" stroke-width="2" points="365.62,-262.46 367.46,-252.03 359.52,-259.04 365.62,-262.46"/>
</g>
<!-- 11&#45;&gt;25 -->
<g id="edge80" class="edge">
<title>11&#45;&gt;25</title>
<path fill="none" stroke="grey" stroke-width="2" d="M401.37,-445.61C519.79,-436.42 833.91,-410.78 850.7,-396 912.45,-341.67 862,-291.9 893.7,-216 897.57,-206.75 902.95,-197.26 908.25,-188.91"/>
<polygon fill="grey" stroke="grey" stroke-width="2" points="911.3,-190.65 913.89,-180.37 905.46,-186.79 911.3,-190.65"/>
</g>
<!-- 12 -->
<g id="node13" class="node">
<title>12</title>
<path fill="none" stroke="#56b9d8" stroke-width="2" d="M393.7,-540C393.7,-540 319.7,-540 319.7,-540 313.7,-540 307.7,-534 307.7,-528 307.7,-528 307.7,-516 307.7,-516 307.7,-510 313.7,-504 319.7,-504 319.7,-504 393.7,-504 393.7,-504 399.7,-504 405.7,-510 405.7,-516 405.7,-516 405.7,-528 405.7,-528 405.7,-534 399.7,-540 393.7,-540"/>
<text text-anchor="middle" x="356.7" y="-519.5" font-family="sans" font-size="10.00">fit_globalepistasis</text>
</g>
<!-- 12&#45;&gt;11 -->
<g id="edge23" class="edge">
<title>12&#45;&gt;11</title>
<path fill="none" stroke="grey" stroke-width="2" d="M356.7,-503.7C356.7,-495.98 356.7,-486.71 356.7,-478.11"/>
<polygon fill="grey" stroke="grey" stroke-width="2" points="360.2,-478.1 356.7,-468.1 353.2,-478.1 360.2,-478.1"/>
</g>
<!-- 12&#45;&gt;17 -->
<g id="edge49" class="edge">
<title>12&#45;&gt;17</title>
<path fill="none" stroke="grey" stroke-width="2" d="M334.15,-503.79C323.19,-494.34 310.69,-481.74 302.7,-468 229.94,-342.77 161.08,-242.03 267.7,-144 299.79,-114.5 592.23,-98.3 708.42,-92.99"/>
<polygon fill="grey" stroke="grey" stroke-width="2" points="708.62,-96.48 718.45,-92.53 708.3,-89.49 708.62,-96.48"/>
</g>
<!-- 12&#45;&gt;21 -->
<g id="edge63" class="edge">
<title>12&#45;&gt;21</title>
<path fill="none" stroke="grey" stroke-width="2" d="M374.9,-503.85C415.07,-465.97 511.49,-375.08 557.89,-331.33"/>
<polygon fill="grey" stroke="grey" stroke-width="2" points="560.55,-333.64 565.42,-324.23 555.75,-328.55 560.55,-333.64"/>
</g>
<!-- 12&#45;&gt;25 -->
<g id="edge82" class="edge">
<title>12&#45;&gt;25</title>
<path fill="none" stroke="grey" stroke-width="2" d="M406.01,-506.34C408.95,-505.53 411.86,-504.75 414.7,-504 465.79,-490.57 840.55,-433.55 877.7,-396 932.98,-340.14 933.18,-238.74 929.62,-190.25"/>
<polygon fill="grey" stroke="grey" stroke-width="2" points="933.1,-189.87 928.77,-180.2 926.13,-190.46 933.1,-189.87"/>
</g>
<!-- 13&#45;&gt;12 -->
<g id="edge24" class="edge">
<title>13&#45;&gt;12</title>
<path fill="none" stroke="grey" stroke-width="2" d="M427.47,-575.7C415.51,-566.8 400.78,-555.82 387.86,-546.2"/>
<polygon fill="grey" stroke="grey" stroke-width="2" points="389.78,-543.27 379.67,-540.1 385.6,-548.88 389.78,-543.27"/>
</g>
<!-- 18 -->
<g id="node19" class="node">
<title>18</title>
<path fill="none" stroke="#56d0d8" stroke-width="2" d="M429.7,-396C429.7,-396 343.7,-396 343.7,-396 337.7,-396 331.7,-390 331.7,-384 331.7,-384 331.7,-372 331.7,-372 331.7,-366 337.7,-360 343.7,-360 343.7,-360 429.7,-360 429.7,-360 435.7,-360 441.7,-366 441.7,-372 441.7,-372 441.7,-384 441.7,-384 441.7,-390 435.7,-396 429.7,-396"/>
<text text-anchor="middle" x="386.7" y="-375.5" font-family="sans" font-size="10.00">analyze_func_scores</text>
</g>
<!-- 13&#45;&gt;18 -->
<g id="edge53" class="edge">
<title>13&#45;&gt;18</title>
<path fill="none" stroke="grey" stroke-width="2" d="M414.88,-591.74C378.83,-588.33 324.92,-576.91 298.7,-540 289.23,-526.67 289.96,-453.67 302.7,-432 310.23,-419.2 322.2,-409.01 334.77,-401.13"/>
<polygon fill="grey" stroke="grey" stroke-width="2" points="336.64,-404.09 343.53,-396.04 333.12,-398.04 336.64,-404.09"/>
</g>
<!-- 14 -->
<g id="node15" class="node">
<title>14</title>
<path fill="none" stroke="#56d892" stroke-width="2" d="M850.2,-468C850.2,-468 797.2,-468 797.2,-468 791.2,-468 785.2,-462 785.2,-456 785.2,-456 785.2,-444 785.2,-444 785.2,-438 791.2,-432 797.2,-432 797.2,-432 850.2,-432 850.2,-432 856.2,-432 862.2,-438 862.2,-444 862.2,-444 862.2,-456 862.2,-456 862.2,-462 856.2,-468 850.2,-468"/>
<text text-anchor="middle" x="823.7" y="-447.5" font-family="sans" font-size="10.00">fit_polyclonal</text>
</g>
<!-- 14&#45;&gt;10 -->
<g id="edge22" class="edge">
<title>14&#45;&gt;10</title>
<path fill="none" stroke="grey" stroke-width="2" d="M813.82,-431.7C809.21,-423.64 803.64,-413.89 798.55,-404.98"/>
<polygon fill="grey" stroke="grey" stroke-width="2" points="801.48,-403.05 793.48,-396.1 795.4,-406.52 801.48,-403.05"/>
</g>
<!-- 14&#45;&gt;17 -->
<g id="edge38" class="edge">
<title>14&#45;&gt;17</title>
<path fill="none" stroke="grey" stroke-width="2" d="M862.62,-446.74C922.61,-442.29 1040.6,-429.71 1134.7,-396 1195.42,-374.25 1208.09,-361.31 1260.7,-324 1310.08,-288.98 1371.8,-269.62 1343.7,-216 1317.61,-166.2 1292.37,-163.66 1239.7,-144 1160.29,-114.35 908.21,-98.63 802.78,-93.21"/>
<polygon fill="grey" stroke="grey" stroke-width="2" points="802.91,-89.71 792.75,-92.7 802.56,-96.7 802.91,-89.71"/>
</g>
<!-- 14&#45;&gt;21 -->
<g id="edge56" class="edge">
<title>14&#45;&gt;21</title>
<path fill="none" stroke="grey" stroke-width="2" d="M785.05,-432.2C764.45,-422.63 739.03,-409.81 717.7,-396 696.49,-382.27 694.43,-374.45 673.7,-360 658.04,-349.07 640.03,-338.17 624.25,-329.11"/>
<polygon fill="grey" stroke="grey" stroke-width="2" points="625.68,-325.9 615.26,-324.01 622.23,-331.99 625.68,-325.9"/>
</g>
<!-- 14&#45;&gt;25 -->
<g id="edge71" class="edge">
<title>14&#45;&gt;25</title>
<path fill="none" stroke="grey" stroke-width="2" d="M862.53,-438.53C883.92,-430.59 908.7,-417.3 921.7,-396 961.32,-331.13 945.48,-235.99 934.25,-189.94"/>
<polygon fill="grey" stroke="grey" stroke-width="2" points="937.6,-188.93 931.73,-180.11 930.82,-190.67 937.6,-188.93"/>
</g>
<!-- 15&#45;&gt;14 -->
<g id="edge30" class="edge">
<title>15&#45;&gt;14</title>
<path fill="none" stroke="grey" stroke-width="2" d="M1026.84,-575.87C985.21,-550.28 906.75,-502.05 860.47,-473.6"/>
<polygon fill="grey" stroke="grey" stroke-width="2" points="862.02,-470.44 851.67,-468.19 858.35,-476.41 862.02,-470.44"/>
</g>
<!-- 19 -->
<g id="node20" class="node">
<title>19</title>
<path fill="none" stroke="#56d8d0" stroke-width="2" d="M1113.7,-396C1113.7,-396 1023.7,-396 1023.7,-396 1017.7,-396 1011.7,-390 1011.7,-384 1011.7,-384 1011.7,-372 1011.7,-372 1011.7,-366 1017.7,-360 1023.7,-360 1023.7,-360 1113.7,-360 1113.7,-360 1119.7,-360 1125.7,-366 1125.7,-372 1125.7,-372 1125.7,-384 1125.7,-384 1125.7,-390 1119.7,-396 1113.7,-396"/>
<text text-anchor="middle" x="1068.7" y="-375.5" font-family="sans" font-size="10.00">analyze_prob_escape</text>
</g>
<!-- 15&#45;&gt;19 -->
<g id="edge54" class="edge">
<title>15&#45;&gt;19</title>
<path fill="none" stroke="grey" stroke-width="2" d="M1055.82,-575.85C1058.25,-538.83 1063.98,-451.18 1066.91,-406.39"/>
<polygon fill="grey" stroke="grey" stroke-width="2" points="1070.42,-406.44 1067.58,-396.23 1063.43,-405.98 1070.42,-406.44"/>
</g>
<!-- 16 -->
<g id="node17" class="node">
<title>16</title>
<path fill="none" stroke="#d85656" stroke-width="2" d="M505.2,-540C505.2,-540 436.2,-540 436.2,-540 430.2,-540 424.2,-534 424.2,-528 424.2,-528 424.2,-516 424.2,-516 424.2,-510 430.2,-504 436.2,-504 436.2,-504 505.2,-504 505.2,-504 511.2,-504 517.2,-510 517.2,-516 517.2,-516 517.2,-528 517.2,-528 517.2,-534 511.2,-540 505.2,-540"/>
<text text-anchor="middle" x="470.7" y="-519.5" font-family="sans" font-size="10.00">spatial_distances</text>
</g>
<!-- 16&#45;&gt;0 -->
<g id="edge1" class="edge">
<title>16&#45;&gt;0</title>
<path fill="none" stroke="grey" stroke-width="2" d="M423.94,-506.67C375.11,-491.65 305.21,-469.94 302.7,-468 161.42,-358.6 164.4,-281.99 123.7,-108 118.96,-87.71 116.71,-64.25 115.65,-46.51"/>
<polygon fill="grey" stroke="grey" stroke-width="2" points="119.14,-46.09 115.13,-36.28 112.15,-46.44 119.14,-46.09"/>
</g>
<!-- 16&#45;&gt;14 -->
<g id="edge29" class="edge">
<title>16&#45;&gt;14</title>
<path fill="none" stroke="grey" stroke-width="2" d="M517.21,-511.78C584.08,-498.52 706.8,-474.18 774.91,-460.67"/>
<polygon fill="grey" stroke="grey" stroke-width="2" points="775.83,-464.06 784.96,-458.68 774.47,-457.2 775.83,-464.06"/>
</g>
<!-- 17&#45;&gt;0 -->
<g id="edge2" class="edge">
<title>17&#45;&gt;0</title>
<path fill="none" stroke="grey" stroke-width="2" d="M718.47,-84.93C605.22,-72.57 265.74,-35.49 152.18,-23.09"/>
<polygon fill="grey" stroke="grey" stroke-width="2" points="152.23,-19.58 141.91,-21.97 151.47,-26.54 152.23,-19.58"/>
</g>
<!-- 18&#45;&gt;17 -->
<g id="edge46" class="edge">
<title>18&#45;&gt;17</title>
<path fill="none" stroke="grey" stroke-width="2" d="M367.96,-359.72C345.28,-337.41 308.33,-296.16 293.7,-252 276.64,-200.48 303.48,-170.76 350.7,-144 410.98,-109.83 615.24,-96.95 708.53,-92.76"/>
<polygon fill="grey" stroke="grey" stroke-width="2" points="708.7,-96.26 718.54,-92.32 708.4,-89.26 708.7,-96.26"/>
</g>
<!-- 18&#45;&gt;21 -->
<g id="edge61" class="edge">
<title>18&#45;&gt;21</title>
<path fill="none" stroke="grey" stroke-width="2" d="M434.64,-359.97C465.68,-348.94 505.9,-334.64 536.74,-323.69"/>
<polygon fill="grey" stroke="grey" stroke-width="2" points="538.15,-326.9 546.4,-320.25 535.81,-320.3 538.15,-326.9"/>
</g>
<!-- 18&#45;&gt;25 -->
<g id="edge79" class="edge">
<title>18&#45;&gt;25</title>
<path fill="none" stroke="grey" stroke-width="2" d="M410.34,-359.88C439.09,-339.83 489.73,-306.95 537.7,-288 605.9,-261.06 635.23,-288.71 698.7,-252 717.49,-241.13 713.17,-227.29 731.7,-216 778.8,-187.31 841.57,-173.87 883.02,-167.77"/>
<polygon fill="grey" stroke="grey" stroke-width="2" points="883.65,-171.22 893.07,-166.37 882.69,-164.28 883.65,-171.22"/>
</g>
<!-- 19&#45;&gt;17 -->
<g id="edge44" class="edge">
<title>19&#45;&gt;17</title>
<path fill="none" stroke="grey" stroke-width="2" d="M1118.84,-359.92C1186.99,-335.56 1303.11,-289.64 1326.7,-252 1335.2,-238.44 1336.49,-228.66 1326.7,-216 1262.4,-132.84 928.21,-102.41 803.07,-93.83"/>
<polygon fill="grey" stroke="grey" stroke-width="2" points="803.24,-90.33 793.02,-93.16 802.77,-97.32 803.24,-90.33"/>
</g>
<!-- 19&#45;&gt;21 -->
<g id="edge60" class="edge">
<title>19&#45;&gt;21</title>
<path fill="none" stroke="grey" stroke-width="2" d="M1011.64,-368.76C914.93,-354.81 720.63,-326.76 630.99,-313.83"/>
<polygon fill="grey" stroke="grey" stroke-width="2" points="631.25,-310.33 620.85,-312.36 630.25,-317.25 631.25,-310.33"/>
</g>
<!-- 19&#45;&gt;25 -->
<g id="edge77" class="edge">
<title>19&#45;&gt;25</title>
<path fill="none" stroke="grey" stroke-width="2" d="M1062.42,-359.87C1048.87,-323.45 1016.59,-239.72 997.7,-216 988.6,-204.57 976.49,-194.33 964.84,-185.97"/>
<polygon fill="grey" stroke="grey" stroke-width="2" points="966.72,-183.01 956.5,-180.22 962.75,-188.78 966.72,-183.01"/>
</g>
<!-- 20 -->
<g id="node21" class="node">
<title>20</title>
<path fill="none" stroke="#ced856" stroke-width="2" d="M505.7,-252C505.7,-252 471.7,-252 471.7,-252 465.7,-252 459.7,-246 459.7,-240 459.7,-240 459.7,-228 459.7,-228 459.7,-222 465.7,-216 471.7,-216 471.7,-216 505.7,-216 505.7,-216 511.7,-216 517.7,-222 517.7,-228 517.7,-228 517.7,-240 517.7,-240 517.7,-246 511.7,-252 505.7,-252"/>
<text text-anchor="middle" x="488.7" y="-231.5" font-family="sans" font-size="10.00">subindex</text>
</g>
<!-- 20&#45;&gt;17 -->
<g id="edge35" class="edge">
<title>20&#45;&gt;17</title>
<path fill="none" stroke="grey" stroke-width="2" d="M517.78,-217.53C565.31,-192.26 659.79,-142.01 714.3,-113.02"/>
<polygon fill="grey" stroke="grey" stroke-width="2" points="716.16,-116 723.34,-108.21 712.87,-109.82 716.16,-116"/>
</g>
<!-- 20&#45;&gt;25 -->
<g id="edge68" class="edge">
<title>20&#45;&gt;25</title>
<path fill="none" stroke="grey" stroke-width="2" d="M517.85,-218.96C520.8,-217.84 523.78,-216.83 526.7,-216 652.77,-180.27 808.16,-168.46 882.72,-164.69"/>
<polygon fill="grey" stroke="grey" stroke-width="2" points="883.3,-168.16 893.12,-164.19 882.96,-161.17 883.3,-168.16"/>
</g>
<!-- 21&#45;&gt;17 -->
<g id="edge36" class="edge">
<title>21&#45;&gt;17</title>
<path fill="none" stroke="grey" stroke-width="2" d="M546.57,-303.6C477.84,-300.13 335,-288.6 304.7,-252 294.5,-239.68 295.59,-229.15 304.7,-216 351.17,-148.95 602.25,-110.17 708.34,-96.57"/>
<polygon fill="grey" stroke="grey" stroke-width="2" points="708.96,-100.02 718.44,-95.3 708.08,-93.08 708.96,-100.02"/>
</g>
<!-- 21&#45;&gt;20 -->
<g id="edge55" class="edge">
<title>21&#45;&gt;20</title>
<path fill="none" stroke="grey" stroke-width="2" d="M560.22,-287.7C548.14,-278.8 533.25,-267.82 520.19,-258.2"/>
<polygon fill="grey" stroke="grey" stroke-width="2" points="522.04,-255.22 511.92,-252.1 517.89,-260.85 522.04,-255.22"/>
</g>
<!-- 21&#45;&gt;25 -->
<g id="edge69" class="edge">
<title>21&#45;&gt;25</title>
<path fill="none" stroke="grey" stroke-width="2" d="M620.83,-292.68C650.96,-282.44 694.41,-267.16 731.7,-252 784.84,-230.4 844.69,-202.55 883.9,-183.8"/>
<polygon fill="grey" stroke="grey" stroke-width="2" points="885.41,-186.95 892.91,-179.47 882.38,-180.64 885.41,-186.95"/>
</g>
<!-- 22&#45;&gt;17 -->
<g id="edge37" class="edge">
<title>22&#45;&gt;17</title>
<path fill="none" stroke="grey" stroke-width="2" d="M414.63,-215.96C456.05,-197.16 525.46,-166.58 586.7,-144 627.4,-128.99 674.57,-114.43 708.71,-104.38"/>
<polygon fill="grey" stroke="grey" stroke-width="2" points="709.81,-107.71 718.42,-101.54 707.84,-100.99 709.81,-107.71"/>
</g>
<!-- 22&#45;&gt;25 -->
<g id="edge70" class="edge">
<title>22&#45;&gt;25</title>
<path fill="none" stroke="grey" stroke-width="2" d="M441.31,-217.72C444.48,-217.11 447.62,-216.53 450.7,-216 608.67,-188.91 798.62,-172.57 882.83,-166.15"/>
<polygon fill="grey" stroke="grey" stroke-width="2" points="883.33,-169.62 893.04,-165.38 882.81,-162.64 883.33,-169.62"/>
</g>
<!-- 23 -->
<g id="node24" class="node">
<title>23</title>
<path fill="none" stroke="#56d87b" stroke-width="2" d="M1305.7,-252C1305.7,-252 1251.7,-252 1251.7,-252 1245.7,-252 1239.7,-246 1239.7,-240 1239.7,-240 1239.7,-228 1239.7,-228 1239.7,-222 1245.7,-216 1251.7,-216 1251.7,-216 1305.7,-216 1305.7,-216 1311.7,-216 1317.7,-222 1317.7,-228 1317.7,-228 1317.7,-240 1317.7,-240 1317.7,-246 1311.7,-252 1305.7,-252"/>
<text text-anchor="middle" x="1278.7" y="-231.5" font-family="sans" font-size="10.00">make_graphs</text>
</g>
<!-- 23&#45;&gt;17 -->
<g id="edge42" class="edge">
<title>23&#45;&gt;17</title>
<path fill="none" stroke="grey" stroke-width="2" d="M1239.68,-220.31C1234.98,-218.83 1230.24,-217.36 1225.7,-216 1112.52,-181.94 1083.97,-174.21 969.7,-144 912.49,-128.87 846.33,-112.69 802.9,-102.24"/>
<polygon fill="grey" stroke="grey" stroke-width="2" points="803.45,-98.77 792.91,-99.84 801.81,-105.58 803.45,-98.77"/>
</g>
<!-- 23&#45;&gt;25 -->
<g id="edge75" class="edge">
<title>23&#45;&gt;25</title>
<path fill="none" stroke="grey" stroke-width="2" d="M1239.51,-219.78C1234.88,-218.41 1230.2,-217.12 1225.7,-216 1136.16,-193.81 1029.32,-177.19 970.67,-168.9"/>
<polygon fill="grey" stroke="grey" stroke-width="2" points="971.03,-165.41 960.64,-167.49 970.06,-172.35 971.03,-165.41"/>
</g>
<!-- 24&#45;&gt;17 -->
<g id="edge39" class="edge">
<title>24&#45;&gt;17</title>
<path fill="none" stroke="grey" stroke-width="2" d="M629.95,-215.87C655.18,-190.82 702.28,-144.05 731.12,-115.41"/>
<polygon fill="grey" stroke="grey" stroke-width="2" points="733.76,-117.72 738.39,-108.19 728.83,-112.75 733.76,-117.72"/>
</g>
<!-- 24&#45;&gt;25 -->
<g id="edge72" class="edge">
<title>24&#45;&gt;25</title>
<path fill="none" stroke="grey" stroke-width="2" d="M689.11,-215.97C750.08,-202.37 833.3,-183.82 883.34,-172.67"/>
<polygon fill="grey" stroke="grey" stroke-width="2" points="884.19,-176.06 893.19,-170.47 882.67,-169.23 884.19,-176.06"/>
</g>
<!-- 25&#45;&gt;17 -->
<g id="edge52" class="edge">
<title>25&#45;&gt;17</title>
<path fill="none" stroke="grey" stroke-width="2" d="M892.92,-147.17C867.03,-136.57 831.02,-121.83 802.38,-110.11"/>
<polygon fill="grey" stroke="grey" stroke-width="2" points="803.56,-106.81 792.98,-106.26 800.91,-113.29 803.56,-106.81"/>
</g>
</g>
</svg>
