<?xml version="1.0" encoding="UTF-8" standalone="no"?>
<!DOCTYPE svg PUBLIC "-//W3C//DTD SVG 1.1//EN"
 "http://www.w3.org/Graphics/SVG/1.1/DTD/svg11.dtd">
<!-- Generated by graphviz version 6.0.2 (20221126.1951)
 -->
<!-- Title: snakemake_dag Pages: 1 -->
<svg width="1618pt" height="1196pt"
 viewBox="0.00 0.00 1618.25 1196.00" xmlns="http://www.w3.org/2000/svg" xmlns:xlink="http://www.w3.org/1999/xlink">
<g id="graph0" class="graph" transform="scale(1 1) rotate(0) translate(4 1192)">
<title>snakemake_dag</title>
<polygon fill="white" stroke="none" points="-4,4 -4,-1192 1614.25,-1192 1614.25,4 -4,4"/>
<!-- 0 -->
<g id="node1" class="node">
<title>0</title>
<path fill="none" stroke="#d8cb56" stroke-width="2" d="M1549,-36C1549,-36 1519,-36 1519,-36 1513,-36 1507,-30 1507,-24 1507,-24 1507,-12 1507,-12 1507,-6 1513,0 1519,0 1519,0 1549,0 1549,0 1555,0 1561,-6 1561,-12 1561,-12 1561,-24 1561,-24 1561,-30 1555,-36 1549,-36"/>
<text text-anchor="middle" x="1534" y="-15.5" font-family="sans" font-size="10.00">all</text>
</g>
<!-- 1 -->
<g id="node2" class="node">
<title>1</title>
<path fill="none" stroke="#d8bc56" stroke-width="2" d="M952,-828C952,-828 892,-828 892,-828 886,-828 880,-822 880,-816 880,-816 880,-804 880,-804 880,-798 886,-792 892,-792 892,-792 952,-792 952,-792 958,-792 964,-798 964,-804 964,-804 964,-816 964,-816 964,-822 958,-828 952,-828"/>
<text text-anchor="middle" x="922" y="-807.5" font-family="sans" font-size="10.00">variant_counts</text>
</g>
<!-- 1&#45;&gt;0 -->
<g id="edge4" class="edge">
<title>1&#45;&gt;0</title>
<path fill="none" stroke="grey" stroke-width="2" d="M964.21,-809.04C1058.4,-807.1 1289.3,-790.95 1440,-684 1614.01,-560.5 1610,-448.38 1610,-235 1610,-235 1610,-235 1610,-161 1610,-115.64 1579.48,-70.75 1557.12,-43.95"/>
<polygon fill="grey" stroke="grey" stroke-width="2" points="1559.66,-41.53 1550.49,-36.23 1554.36,-46.09 1559.66,-41.53"/>
</g>
<!-- 9 -->
<g id="node10" class="node">
<title>9</title>
<path fill="none" stroke="#d86e56" stroke-width="2" d="M1191.5,-756C1191.5,-756 1092.5,-756 1092.5,-756 1086.5,-756 1080.5,-750 1080.5,-744 1080.5,-744 1080.5,-732 1080.5,-732 1080.5,-726 1086.5,-720 1092.5,-720 1092.5,-720 1191.5,-720 1191.5,-720 1197.5,-720 1203.5,-726 1203.5,-732 1203.5,-732 1203.5,-744 1203.5,-744 1203.5,-750 1197.5,-756 1191.5,-756"/>
<text text-anchor="middle" x="1142" y="-735.5" font-family="sans" font-size="10.00">analyze_variant_counts</text>
</g>
<!-- 1&#45;&gt;9 -->
<g id="edge16" class="edge">
<title>1&#45;&gt;9</title>
<path fill="none" stroke="grey" stroke-width="2" d="M964.16,-795.59C996.57,-785.27 1041.88,-770.86 1078.65,-759.16"/>
<polygon fill="grey" stroke="grey" stroke-width="2" points="1079.82,-762.46 1088.28,-756.09 1077.69,-755.79 1079.82,-762.46"/>
</g>
<!-- 13 -->
<g id="node14" class="node">
<title>13</title>
<path fill="none" stroke="#a7d856" stroke-width="2" d="M909.5,-612C909.5,-612 862.5,-612 862.5,-612 856.5,-612 850.5,-606 850.5,-600 850.5,-600 850.5,-588 850.5,-588 850.5,-582 856.5,-576 862.5,-576 862.5,-576 909.5,-576 909.5,-576 915.5,-576 921.5,-582 921.5,-588 921.5,-588 921.5,-600 921.5,-600 921.5,-606 915.5,-612 909.5,-612"/>
<text text-anchor="middle" x="886" y="-591.5" font-family="sans" font-size="10.00">func_scores</text>
</g>
<!-- 1&#45;&gt;13 -->
<g id="edge24" class="edge">
<title>1&#45;&gt;13</title>
<path fill="none" stroke="grey" stroke-width="2" d="M919.11,-791.85C912.87,-754.75 898.08,-666.81 890.56,-622.1"/>
<polygon fill="grey" stroke="grey" stroke-width="2" points="894.01,-621.51 888.9,-612.23 887.11,-622.67 894.01,-621.51"/>
</g>
<!-- 16 -->
<g id="node17" class="node">
<title>16</title>
<path fill="none" stroke="#566bd8" stroke-width="2" d="M593.5,-612C593.5,-612 542.5,-612 542.5,-612 536.5,-612 530.5,-606 530.5,-600 530.5,-600 530.5,-588 530.5,-588 530.5,-582 536.5,-576 542.5,-576 542.5,-576 593.5,-576 593.5,-576 599.5,-576 605.5,-582 605.5,-588 605.5,-588 605.5,-600 605.5,-600 605.5,-606 599.5,-612 593.5,-612"/>
<text text-anchor="middle" x="568" y="-591.5" font-family="sans" font-size="10.00">prob_escape</text>
</g>
<!-- 1&#45;&gt;16 -->
<g id="edge30" class="edge">
<title>1&#45;&gt;16</title>
<path fill="none" stroke="grey" stroke-width="2" d="M879.93,-799.93C846.12,-791.56 798.16,-777.19 760,-756 691.76,-718.1 624.86,-654.24 590.94,-619.42"/>
<polygon fill="grey" stroke="grey" stroke-width="2" points="593.29,-616.81 583.83,-612.05 588.25,-621.67 593.29,-616.81"/>
</g>
<!-- 17 -->
<g id="node18" class="node">
<title>17</title>
<path fill="none" stroke="#56d892" stroke-width="2" d="M823,-108C823,-108 773,-108 773,-108 767,-108 761,-102 761,-96 761,-96 761,-84 761,-84 761,-78 767,-72 773,-72 773,-72 823,-72 823,-72 829,-72 835,-78 835,-84 835,-84 835,-96 835,-96 835,-102 829,-108 823,-108"/>
<text text-anchor="middle" x="798" y="-87.5" font-family="sans" font-size="10.00">sphinx_build</text>
</g>
<!-- 1&#45;&gt;17 -->
<g id="edge44" class="edge">
<title>1&#45;&gt;17</title>
<path fill="none" stroke="grey" stroke-width="2" d="M953.6,-791.87C1071.78,-725.38 1475.47,-475.19 1365,-216 1346.88,-173.49 1331.88,-163.52 1290,-144 1211.72,-107.52 952.93,-95.65 845.45,-92.23"/>
<polygon fill="grey" stroke="grey" stroke-width="2" points="845.33,-88.73 835.22,-91.92 845.11,-95.73 845.33,-88.73"/>
</g>
<!-- 25 -->
<g id="node26" class="node">
<title>25</title>
<path fill="none" stroke="#b6d856" stroke-width="2" d="M819.5,-180C819.5,-180 776.5,-180 776.5,-180 770.5,-180 764.5,-174 764.5,-168 764.5,-168 764.5,-156 764.5,-156 764.5,-150 770.5,-144 776.5,-144 776.5,-144 819.5,-144 819.5,-144 825.5,-144 831.5,-150 831.5,-156 831.5,-156 831.5,-168 831.5,-168 831.5,-174 825.5,-180 819.5,-180"/>
<text text-anchor="middle" x="798" y="-159.5" font-family="sans" font-size="10.00">docs_index</text>
</g>
<!-- 1&#45;&gt;25 -->
<g id="edge76" class="edge">
<title>1&#45;&gt;25</title>
<path fill="none" stroke="grey" stroke-width="2" d="M913.19,-791.88C896.35,-758.34 859.71,-681.2 842,-612 802.1,-456.06 797.91,-261.14 797.8,-190.31"/>
<polygon fill="grey" stroke="grey" stroke-width="2" points="801.3,-190.04 797.82,-180.04 794.3,-190.03 801.3,-190.04"/>
</g>
<!-- 2 -->
<g id="node3" class="node">
<title>2</title>
<path fill="none" stroke="#567bd8" stroke-width="2" d="M1027.5,-900C1027.5,-900 962.5,-900 962.5,-900 956.5,-900 950.5,-894 950.5,-888 950.5,-888 950.5,-876 950.5,-876 950.5,-870 956.5,-864 962.5,-864 962.5,-864 1027.5,-864 1027.5,-864 1033.5,-864 1039.5,-870 1039.5,-876 1039.5,-876 1039.5,-888 1039.5,-888 1039.5,-894 1033.5,-900 1027.5,-900"/>
<text text-anchor="middle" x="995" y="-879.5" font-family="sans" font-size="10.00">count_barcodes</text>
</g>
<!-- 2&#45;&gt;1 -->
<g id="edge8" class="edge">
<title>2&#45;&gt;1</title>
<path fill="none" stroke="grey" stroke-width="2" d="M976.96,-863.7C967.94,-855.05 956.88,-844.45 947.06,-835.03"/>
<polygon fill="grey" stroke="grey" stroke-width="2" points="949.48,-832.5 939.84,-828.1 944.63,-837.55 949.48,-832.5"/>
</g>
<!-- 2&#45;&gt;9 -->
<g id="edge19" class="edge">
<title>2&#45;&gt;9</title>
<path fill="none" stroke="grey" stroke-width="2" d="M1005.58,-863.93C1017.87,-844.97 1039.48,-814.11 1063,-792 1075.04,-780.68 1089.74,-770.11 1103.18,-761.43"/>
<polygon fill="grey" stroke="grey" stroke-width="2" points="1105.19,-764.3 1111.79,-756.02 1101.46,-758.38 1105.19,-764.3"/>
</g>
<!-- 3 -->
<g id="node4" class="node">
<title>3</title>
<path fill="none" stroke="#56d8b9" stroke-width="2" d="M843.5,-972C843.5,-972 754.5,-972 754.5,-972 748.5,-972 742.5,-966 742.5,-960 742.5,-960 742.5,-948 742.5,-948 742.5,-942 748.5,-936 754.5,-936 754.5,-936 843.5,-936 843.5,-936 849.5,-936 855.5,-942 855.5,-948 855.5,-948 855.5,-960 855.5,-960 855.5,-966 849.5,-972 843.5,-972"/>
<text text-anchor="middle" x="799" y="-951.5" font-family="sans" font-size="10.00">build_codon_variants</text>
</g>
<!-- 3&#45;&gt;1 -->
<g id="edge7" class="edge">
<title>3&#45;&gt;1</title>
<path fill="none" stroke="grey" stroke-width="2" d="M813.84,-935.87C835.45,-910.92 875.7,-864.45 900.54,-835.77"/>
<polygon fill="grey" stroke="grey" stroke-width="2" points="903.21,-838.04 907.11,-828.19 897.92,-833.46 903.21,-838.04"/>
</g>
<!-- 3&#45;&gt;2 -->
<g id="edge9" class="edge">
<title>3&#45;&gt;2</title>
<path fill="none" stroke="grey" stroke-width="2" d="M846.7,-935.97C875.1,-925.82 911.24,-912.91 940.73,-902.38"/>
<polygon fill="grey" stroke="grey" stroke-width="2" points="942.22,-905.57 950.46,-898.91 939.86,-898.98 942.22,-905.57"/>
</g>
<!-- 3&#45;&gt;9 -->
<g id="edge17" class="edge">
<title>3&#45;&gt;9</title>
<path fill="none" stroke="grey" stroke-width="2" d="M855.52,-946.48C919.5,-938.17 1018.77,-922.17 1049,-900 1093.45,-867.4 1082.19,-839.6 1110,-792 1115.23,-783.05 1121.06,-773.31 1126.3,-764.66"/>
<polygon fill="grey" stroke="grey" stroke-width="2" points="1129.3,-766.47 1131.5,-756.11 1123.31,-762.84 1129.3,-766.47"/>
</g>
<!-- 3&#45;&gt;13 -->
<g id="edge25" class="edge">
<title>3&#45;&gt;13</title>
<path fill="none" stroke="grey" stroke-width="2" d="M797.47,-935.8C793.93,-887.68 788.78,-748.69 836,-648 840.98,-637.39 848.9,-627.52 856.98,-619.24"/>
<polygon fill="grey" stroke="grey" stroke-width="2" points="859.61,-621.57 864.37,-612.11 854.75,-616.53 859.61,-621.57"/>
</g>
<!-- 3&#45;&gt;16 -->
<g id="edge31" class="edge">
<title>3&#45;&gt;16</title>
<path fill="none" stroke="grey" stroke-width="2" d="M742.47,-940.96C679.66,-923.88 587,-885.98 587,-811 587,-811 587,-811 587,-737 587,-696.86 579.45,-650.9 573.87,-622.4"/>
<polygon fill="grey" stroke="grey" stroke-width="2" points="577.26,-621.5 571.84,-612.39 570.39,-622.88 577.26,-621.5"/>
</g>
<!-- 3&#45;&gt;17 -->
<g id="edge42" class="edge">
<title>3&#45;&gt;17</title>
<path fill="none" stroke="grey" stroke-width="2" d="M742.34,-947.52C689.78,-940.97 610.23,-927.28 546,-900 340.35,-812.67 76,-478.01 76,-451 76,-451 76,-451 76,-233 76,-94.95 590.62,-88.79 750.92,-90.21"/>
<polygon fill="grey" stroke="grey" stroke-width="2" points="750.92,-93.71 760.95,-90.32 750.99,-86.71 750.92,-93.71"/>
</g>
<!-- 21 -->
<g id="node22" class="node">
<title>21</title>
<path fill="none" stroke="#56d8a9" stroke-width="2" d="M375,-324C375,-324 325,-324 325,-324 319,-324 313,-318 313,-312 313,-312 313,-300 313,-300 313,-294 319,-288 325,-288 325,-288 375,-288 375,-288 381,-288 387,-294 387,-300 387,-300 387,-312 387,-312 387,-318 381,-324 375,-324"/>
<text text-anchor="middle" x="350" y="-303.5" font-family="sans" font-size="10.00">make_nblink</text>
</g>
<!-- 3&#45;&gt;21 -->
<g id="edge58" class="edge">
<title>3&#45;&gt;21</title>
<path fill="none" stroke="grey" stroke-width="2" d="M742.47,-947.4C700.83,-941.09 644.32,-927.82 602,-900 457.39,-804.96 360,-768.04 360,-595 360,-595 360,-595 360,-449 360,-408.9 355.98,-362.58 353.04,-334.04"/>
<polygon fill="grey" stroke="grey" stroke-width="2" points="356.51,-333.6 351.98,-324.02 349.55,-334.34 356.51,-333.6"/>
</g>
<!-- 3&#45;&gt;25 -->
<g id="edge74" class="edge">
<title>3&#45;&gt;25</title>
<path fill="none" stroke="grey" stroke-width="2" d="M855.61,-946.5C972.98,-931.43 1232,-889.32 1232,-811 1232,-811 1232,-811 1232,-449 1232,-374.83 1057.4,-252.79 993,-216 945.26,-188.73 882.89,-174.98 841.7,-168.43"/>
<polygon fill="grey" stroke="grey" stroke-width="2" points="842.11,-164.95 831.7,-166.91 841.06,-171.87 842.11,-164.95"/>
</g>
<!-- 4 -->
<g id="node5" class="node">
<title>4</title>
<path fill="none" stroke="#5692d8" stroke-width="2" d="M430,-1044C430,-1044 328,-1044 328,-1044 322,-1044 316,-1038 316,-1032 316,-1032 316,-1020 316,-1020 316,-1014 322,-1008 328,-1008 328,-1008 430,-1008 430,-1008 436,-1008 442,-1014 442,-1020 442,-1020 442,-1032 442,-1032 442,-1038 436,-1044 430,-1044"/>
<text text-anchor="middle" x="379" y="-1023.5" font-family="sans" font-size="10.00">build_pacbio_consensus</text>
</g>
<!-- 4&#45;&gt;3 -->
<g id="edge10" class="edge">
<title>4&#45;&gt;3</title>
<path fill="none" stroke="grey" stroke-width="2" d="M442.33,-1014.44C520.46,-1001.42 652.68,-979.39 732.31,-966.11"/>
<polygon fill="grey" stroke="grey" stroke-width="2" points="732.95,-969.56 742.24,-964.46 731.8,-962.65 732.95,-969.56"/>
</g>
<!-- 4&#45;&gt;17 -->
<g id="edge41" class="edge">
<title>4&#45;&gt;17</title>
<path fill="none" stroke="grey" stroke-width="2" d="M360.17,-1007.8C310.02,-960.92 172.12,-824.96 100,-684 51.19,-588.6 38,-558.16 38,-451 38,-451 38,-451 38,-233 38,-181.84 65.63,-167.64 111,-144 167.4,-114.61 604.25,-97.47 750.48,-92.51"/>
<polygon fill="grey" stroke="grey" stroke-width="2" points="751.03,-96 760.9,-92.17 750.79,-89 751.03,-96"/>
</g>
<!-- 4&#45;&gt;21 -->
<g id="edge57" class="edge">
<title>4&#45;&gt;21</title>
<path fill="none" stroke="grey" stroke-width="2" d="M372.55,-1007.84C345.62,-935.14 242.05,-644.94 209,-396 206.89,-380.14 199.89,-373.15 209,-360 229.96,-329.73 270.5,-316.73 302.75,-311.15"/>
<polygon fill="grey" stroke="grey" stroke-width="2" points="303.54,-314.57 312.9,-309.59 302.48,-307.65 303.54,-314.57"/>
</g>
<!-- 4&#45;&gt;25 -->
<g id="edge73" class="edge">
<title>4&#45;&gt;25</title>
<path fill="none" stroke="grey" stroke-width="2" d="M382.97,-1007.99C393.93,-961.49 426.07,-828.5 460,-720 480.74,-653.66 471.24,-624.53 521,-576 548.62,-549.06 568.61,-562.44 600,-540 671.61,-488.8 693.14,-472.9 736,-396 773.93,-327.94 789.48,-235.66 795.14,-190.37"/>
<polygon fill="grey" stroke="grey" stroke-width="2" points="798.65,-190.51 796.35,-180.17 791.7,-189.69 798.65,-190.51"/>
</g>
<!-- 5 -->
<g id="node6" class="node">
<title>5</title>
<path fill="none" stroke="#d8a456" stroke-width="2" d="M232,-1116C232,-1116 152,-1116 152,-1116 146,-1116 140,-1110 140,-1104 140,-1104 140,-1092 140,-1092 140,-1086 146,-1080 152,-1080 152,-1080 232,-1080 232,-1080 238,-1080 244,-1086 244,-1092 244,-1092 244,-1104 244,-1104 244,-1110 238,-1116 232,-1116"/>
<text text-anchor="middle" x="192" y="-1095.5" font-family="sans" font-size="10.00">analyze_pacbio_ccs</text>
</g>
<!-- 5&#45;&gt;4 -->
<g id="edge13" class="edge">
<title>5&#45;&gt;4</title>
<path fill="none" stroke="grey" stroke-width="2" d="M237.75,-1079.88C263.76,-1070.14 296.53,-1057.87 323.95,-1047.61"/>
<polygon fill="grey" stroke="grey" stroke-width="2" points="325.26,-1050.85 333.4,-1044.07 322.81,-1044.3 325.26,-1050.85"/>
</g>
<!-- 5&#45;&gt;17 -->
<g id="edge43" class="edge">
<title>5&#45;&gt;17</title>
<path fill="none" stroke="grey" stroke-width="2" d="M139.79,-1082.97C82.93,-1064.16 0,-1024.76 0,-955 0,-955 0,-955 0,-233 0,-186.96 13.81,-168.16 53,-144 112.21,-107.5 595.54,-94.95 750.43,-91.85"/>
<polygon fill="grey" stroke="grey" stroke-width="2" points="750.65,-95.34 760.58,-91.65 750.51,-88.35 750.65,-95.34"/>
</g>
<!-- 5&#45;&gt;21 -->
<g id="edge59" class="edge">
<title>5&#45;&gt;21</title>
<path fill="none" stroke="grey" stroke-width="2" d="M175.08,-1079.85C152.13,-1054.71 114,-1005.35 114,-955 114,-955 114,-955 114,-449 114,-361.79 233.79,-326.77 302.68,-313.84"/>
<polygon fill="grey" stroke="grey" stroke-width="2" points="303.64,-317.22 312.87,-312.02 302.41,-310.33 303.64,-317.22"/>
</g>
<!-- 5&#45;&gt;25 -->
<g id="edge75" class="edge">
<title>5&#45;&gt;25</title>
<path fill="none" stroke="grey" stroke-width="2" d="M199.44,-1079.57C229.25,-1010.94 345.32,-754.39 489,-576 498.38,-564.36 680.1,-408.01 689,-396 738.83,-328.76 774.12,-235.1 789.45,-189.74"/>
<polygon fill="grey" stroke="grey" stroke-width="2" points="792.84,-190.65 792.67,-180.05 786.19,-188.44 792.84,-190.65"/>
</g>
<!-- 6 -->
<g id="node7" class="node">
<title>6</title>
<path fill="none" stroke="#8fd856" stroke-width="2" d="M241,-1188C241,-1188 143,-1188 143,-1188 137,-1188 131,-1182 131,-1176 131,-1176 131,-1164 131,-1164 131,-1158 137,-1152 143,-1152 143,-1152 241,-1152 241,-1152 247,-1152 253,-1158 253,-1164 253,-1164 253,-1176 253,-1176 253,-1182 247,-1188 241,-1188"/>
<text text-anchor="middle" x="192" y="-1167.5" font-family="sans" font-size="10.00">align_parse_PacBio_ccs</text>
</g>
<!-- 6&#45;&gt;5 -->
<g id="edge14" class="edge">
<title>6&#45;&gt;5</title>
<path fill="none" stroke="grey" stroke-width="2" d="M192,-1151.7C192,-1143.98 192,-1134.71 192,-1126.11"/>
<polygon fill="grey" stroke="grey" stroke-width="2" points="195.5,-1126.1 192,-1116.1 188.5,-1126.1 195.5,-1126.1"/>
</g>
<!-- 7 -->
<g id="node8" class="node">
<title>7</title>
<path fill="none" stroke="#d89556" stroke-width="2" d="M936,-1116C936,-1116 870,-1116 870,-1116 864,-1116 858,-1110 858,-1104 858,-1104 858,-1092 858,-1092 858,-1086 864,-1080 870,-1080 870,-1080 936,-1080 936,-1080 942,-1080 948,-1086 948,-1092 948,-1092 948,-1104 948,-1104 948,-1110 942,-1116 936,-1116"/>
<text text-anchor="middle" x="903" y="-1095.5" font-family="sans" font-size="10.00">gene_sequence</text>
</g>
<!-- 7&#45;&gt;1 -->
<g id="edge6" class="edge">
<title>7&#45;&gt;1</title>
<path fill="none" stroke="grey" stroke-width="2" d="M904.13,-1079.97C907.3,-1032.29 916.27,-897.18 920.16,-838.63"/>
<polygon fill="grey" stroke="grey" stroke-width="2" points="923.68,-838.52 920.85,-828.31 916.7,-838.05 923.68,-838.52"/>
</g>
<!-- 7&#45;&gt;3 -->
<g id="edge11" class="edge">
<title>7&#45;&gt;3</title>
<path fill="none" stroke="grey" stroke-width="2" d="M890.46,-1079.87C872.34,-1055.14 838.73,-1009.24 817.68,-980.51"/>
<polygon fill="grey" stroke="grey" stroke-width="2" points="820.32,-978.19 811.59,-972.19 814.67,-982.33 820.32,-978.19"/>
</g>
<!-- 7&#45;&gt;4 -->
<g id="edge12" class="edge">
<title>7&#45;&gt;4</title>
<path fill="none" stroke="grey" stroke-width="2" d="M857.85,-1092.92C777.53,-1085.37 604.65,-1067.78 460,-1044 457.37,-1043.57 454.69,-1043.11 451.99,-1042.63"/>
<polygon fill="grey" stroke="grey" stroke-width="2" points="452.6,-1039.18 442.13,-1040.81 451.33,-1046.07 452.6,-1039.18"/>
</g>
<!-- 7&#45;&gt;9 -->
<g id="edge18" class="edge">
<title>7&#45;&gt;9</title>
<path fill="none" stroke="grey" stroke-width="2" d="M948.26,-1088.95C1012.91,-1074.55 1124,-1037.77 1124,-955 1124,-955 1124,-955 1124,-881 1124,-840.9 1131.15,-794.92 1136.44,-766.42"/>
<polygon fill="grey" stroke="grey" stroke-width="2" points="1139.92,-766.88 1138.36,-756.4 1133.04,-765.56 1139.92,-766.88"/>
</g>
<!-- 7&#45;&gt;13 -->
<g id="edge26" class="edge">
<title>7&#45;&gt;13</title>
<path fill="none" stroke="grey" stroke-width="2" d="M899.47,-1079.86C890.32,-1033.58 866.81,-902.13 871,-792 873.31,-731.32 879.6,-660.36 883.26,-622.35"/>
<polygon fill="grey" stroke="grey" stroke-width="2" points="886.77,-622.4 884.26,-612.1 879.8,-621.72 886.77,-622.4"/>
</g>
<!-- 7&#45;&gt;16 -->
<g id="edge32" class="edge">
<title>7&#45;&gt;16</title>
<path fill="none" stroke="grey" stroke-width="2" d="M857.9,-1091.81C747.76,-1077.89 474,-1035.22 474,-955 474,-955 474,-955 474,-737 474,-689.17 511.54,-645.08 539.18,-619.11"/>
<polygon fill="grey" stroke="grey" stroke-width="2" points="541.64,-621.6 546.67,-612.27 536.92,-616.42 541.64,-621.6"/>
</g>
<!-- 7&#45;&gt;17 -->
<g id="edge37" class="edge">
<title>7&#45;&gt;17</title>
<path fill="none" stroke="grey" stroke-width="2" d="M948.13,-1096.49C1092.55,-1093.67 1534,-1075.22 1534,-955 1534,-955 1534,-955 1534,-305 1534,-226.06 1523.82,-189.05 1459,-144 1408.91,-109.18 988.68,-95.69 845.54,-92.08"/>
<polygon fill="grey" stroke="grey" stroke-width="2" points="845.4,-88.57 835.32,-91.82 845.23,-95.57 845.4,-88.57"/>
</g>
<!-- 7&#45;&gt;25 -->
<g id="edge70" class="edge">
<title>7&#45;&gt;25</title>
<path fill="none" stroke="grey" stroke-width="2" d="M948.28,-1090.93C1053.96,-1075.49 1308,-1030.53 1308,-955 1308,-955 1308,-955 1308,-449 1308,-316.42 1191.22,-329.98 1084,-252 1062.15,-236.1 1059.6,-227.19 1035,-216 971.35,-187.06 890.72,-173.37 841.81,-167.32"/>
<polygon fill="grey" stroke="grey" stroke-width="2" points="841.91,-163.81 831.57,-166.11 841.09,-170.76 841.91,-163.81"/>
</g>
<!-- 8 -->
<g id="node9" class="node">
<title>8</title>
<path fill="none" stroke="#56d8d0" stroke-width="2" d="M1068,-684C1068,-684 928,-684 928,-684 922,-684 916,-678 916,-672 916,-672 916,-660 916,-660 916,-654 922,-648 928,-648 928,-648 1068,-648 1068,-648 1074,-648 1080,-654 1080,-660 1080,-660 1080,-672 1080,-672 1080,-678 1074,-684 1068,-684"/>
<text text-anchor="middle" x="998" y="-663.5" font-family="sans" font-size="10.00">check_adequate_variant_counts</text>
</g>
<!-- 8&#45;&gt;0 -->
<g id="edge3" class="edge">
<title>8&#45;&gt;0</title>
<path fill="none" stroke="grey" stroke-width="2" d="M1068.67,-647.94C1222.1,-606.25 1572,-483.87 1572,-235 1572,-235 1572,-235 1572,-161 1572,-119.63 1556.77,-73.72 1545.59,-45.61"/>
<polygon fill="grey" stroke="grey" stroke-width="2" points="1548.72,-44.02 1541.69,-36.09 1542.24,-46.67 1548.72,-44.02"/>
</g>
<!-- 8&#45;&gt;13 -->
<g id="edge27" class="edge">
<title>8&#45;&gt;13</title>
<path fill="none" stroke="grey" stroke-width="2" d="M970.6,-647.88C956.09,-638.81 938.08,-627.55 922.41,-617.76"/>
<polygon fill="grey" stroke="grey" stroke-width="2" points="923.84,-614.52 913.5,-612.19 920.13,-620.46 923.84,-614.52"/>
</g>
<!-- 8&#45;&gt;16 -->
<g id="edge33" class="edge">
<title>8&#45;&gt;16</title>
<path fill="none" stroke="grey" stroke-width="2" d="M915.85,-651.63C826.98,-637.16 688.31,-614.58 615.81,-602.78"/>
<polygon fill="grey" stroke="grey" stroke-width="2" points="616.04,-599.27 605.61,-601.12 614.92,-606.18 616.04,-599.27"/>
</g>
<!-- 9&#45;&gt;8 -->
<g id="edge15" class="edge">
<title>9&#45;&gt;8</title>
<path fill="none" stroke="grey" stroke-width="2" d="M1106.77,-719.88C1087.42,-710.47 1063.23,-698.71 1042.57,-688.67"/>
<polygon fill="grey" stroke="grey" stroke-width="2" points="1043.89,-685.41 1033.36,-684.19 1040.83,-691.71 1043.89,-685.41"/>
</g>
<!-- 9&#45;&gt;17 -->
<g id="edge35" class="edge">
<title>9&#45;&gt;17</title>
<path fill="none" stroke="grey" stroke-width="2" d="M1203.68,-735.84C1295.64,-730.47 1458,-705.37 1458,-595 1458,-595 1458,-595 1458,-233 1458,-192.03 1465.46,-170.24 1434,-144 1389.07,-106.52 985.22,-94.81 845.4,-91.86"/>
<polygon fill="grey" stroke="grey" stroke-width="2" points="845.09,-88.35 835.02,-91.64 844.94,-95.35 845.09,-88.35"/>
</g>
<!-- 9&#45;&gt;21 -->
<g id="edge55" class="edge">
<title>9&#45;&gt;21</title>
<path fill="none" stroke="grey" stroke-width="2" d="M1135.49,-719.83C1127.29,-700.19 1111.5,-668.16 1089,-648 1031.53,-596.5 1002.36,-605.37 931,-576 802.65,-523.19 767.92,-516.82 638,-468 635.38,-467.02 452.26,-397.65 450,-396 433.39,-383.91 435.79,-374.26 421,-360 409.95,-349.35 396.73,-338.95 384.7,-330.22"/>
<polygon fill="grey" stroke="grey" stroke-width="2" points="386.39,-327.13 376.21,-324.18 382.33,-332.83 386.39,-327.13"/>
</g>
<!-- 9&#45;&gt;25 -->
<g id="edge68" class="edge">
<title>9&#45;&gt;25</title>
<path fill="none" stroke="grey" stroke-width="2" d="M1138.34,-719.92C1134.18,-701.73 1126.7,-672.3 1117,-648 1083.47,-563.99 1063.52,-548.37 1022,-468 980.86,-388.36 977.61,-364.57 931,-288 910.48,-254.28 907.55,-243.26 879,-216 867.04,-204.58 852.3,-194.1 838.68,-185.53"/>
<polygon fill="grey" stroke="grey" stroke-width="2" points="840.3,-182.42 829.94,-180.19 836.65,-188.39 840.3,-182.42"/>
</g>
<!-- 10 -->
<g id="node11" class="node">
<title>10</title>
<path fill="none" stroke="#56d87b" stroke-width="2" d="M643.5,-396C643.5,-396 552.5,-396 552.5,-396 546.5,-396 540.5,-390 540.5,-384 540.5,-384 540.5,-372 540.5,-372 540.5,-366 546.5,-360 552.5,-360 552.5,-360 643.5,-360 643.5,-360 649.5,-360 655.5,-366 655.5,-372 655.5,-372 655.5,-384 655.5,-384 655.5,-390 649.5,-396 643.5,-396"/>
<text text-anchor="middle" x="598" y="-375.5" font-family="sans" font-size="10.00">avg_antibody_escape</text>
</g>
<!-- 10&#45;&gt;0 -->
<g id="edge1" class="edge">
<title>10&#45;&gt;0</title>
<path fill="none" stroke="grey" stroke-width="2" d="M549.14,-359.94C522.68,-350.25 489.65,-337.4 461,-324 431.09,-310.01 426.58,-300.46 396,-288 340.08,-265.21 301.6,-300.02 265,-252 255.3,-239.28 257.92,-230.35 265,-216 288.3,-168.81 310.89,-165.33 359,-144 570.34,-50.27 1320.38,-24.69 1496.7,-19.91"/>
<polygon fill="grey" stroke="grey" stroke-width="2" points="1496.87,-23.41 1506.78,-19.65 1496.69,-16.41 1496.87,-23.41"/>
</g>
<!-- 10&#45;&gt;17 -->
<g id="edge38" class="edge">
<title>10&#45;&gt;17</title>
<path fill="none" stroke="grey" stroke-width="2" d="M562.16,-359.93C508.17,-331.85 416.23,-273.27 455,-216 521.26,-118.13 672.99,-96.52 750.51,-92"/>
<polygon fill="grey" stroke="grey" stroke-width="2" points="751.13,-95.47 760.94,-91.46 750.78,-88.48 751.13,-95.47"/>
</g>
<!-- 10&#45;&gt;21 -->
<g id="edge56" class="edge">
<title>10&#45;&gt;21</title>
<path fill="none" stroke="grey" stroke-width="2" d="M540.42,-362.46C501,-352.28 447.63,-338.03 401,-324 399.74,-323.62 398.47,-323.23 397.19,-322.84"/>
<polygon fill="grey" stroke="grey" stroke-width="2" points="397.83,-319.37 387.24,-319.7 395.72,-326.05 397.83,-319.37"/>
</g>
<!-- 24 -->
<g id="node25" class="node">
<title>24</title>
<path fill="none" stroke="#56a9d8" stroke-width="2" d="M605.5,-252C605.5,-252 476.5,-252 476.5,-252 470.5,-252 464.5,-246 464.5,-240 464.5,-240 464.5,-228 464.5,-228 464.5,-222 470.5,-216 476.5,-216 476.5,-216 605.5,-216 605.5,-216 611.5,-216 617.5,-222 617.5,-228 617.5,-228 617.5,-240 617.5,-240 617.5,-246 611.5,-252 605.5,-252"/>
<text text-anchor="middle" x="541" y="-231.5" font-family="sans" font-size="10.00">format_antibody_escape_plot</text>
</g>
<!-- 10&#45;&gt;24 -->
<g id="edge66" class="edge">
<title>10&#45;&gt;24</title>
<path fill="none" stroke="grey" stroke-width="2" d="M591.12,-359.87C581.32,-335.46 563.25,-290.43 551.69,-261.64"/>
<polygon fill="grey" stroke="grey" stroke-width="2" points="554.87,-260.17 547.9,-252.19 548.38,-262.77 554.87,-260.17"/>
</g>
<!-- 10&#45;&gt;25 -->
<g id="edge71" class="edge">
<title>10&#45;&gt;25</title>
<path fill="none" stroke="grey" stroke-width="2" d="M601.35,-359.53C608.43,-327.05 627.85,-256.98 670,-216 693.27,-193.38 727.57,-179.88 754.8,-172.17"/>
<polygon fill="grey" stroke="grey" stroke-width="2" points="755.73,-175.55 764.49,-169.59 753.92,-168.78 755.73,-175.55"/>
</g>
<!-- 11 -->
<g id="node12" class="node">
<title>11</title>
<path fill="none" stroke="#56b9d8" stroke-width="2" d="M1107.5,-468C1107.5,-468 1042.5,-468 1042.5,-468 1036.5,-468 1030.5,-462 1030.5,-456 1030.5,-456 1030.5,-444 1030.5,-444 1030.5,-438 1036.5,-432 1042.5,-432 1042.5,-432 1107.5,-432 1107.5,-432 1113.5,-432 1119.5,-438 1119.5,-444 1119.5,-444 1119.5,-456 1119.5,-456 1119.5,-462 1113.5,-468 1107.5,-468"/>
<text text-anchor="middle" x="1075" y="-447.5" font-family="sans" font-size="10.00">avg_muteffects</text>
</g>
<!-- 11&#45;&gt;0 -->
<g id="edge5" class="edge">
<title>11&#45;&gt;0</title>
<path fill="none" stroke="grey" stroke-width="2" d="M1117.33,-431.91C1198.47,-396.97 1376.33,-309.62 1472,-180 1502.5,-138.68 1519.95,-80.5 1528.16,-46.57"/>
<polygon fill="grey" stroke="grey" stroke-width="2" points="1531.65,-46.99 1530.5,-36.46 1524.83,-45.41 1531.65,-46.99"/>
</g>
<!-- 11&#45;&gt;10 -->
<g id="edge20" class="edge">
<title>11&#45;&gt;10</title>
<path fill="none" stroke="grey" stroke-width="2" d="M1030.12,-442.41C946.13,-430.09 764.73,-403.47 665.77,-388.95"/>
<polygon fill="grey" stroke="grey" stroke-width="2" points="665.98,-385.44 655.58,-387.45 664.97,-392.36 665.98,-385.44"/>
</g>
<!-- 11&#45;&gt;17 -->
<g id="edge50" class="edge">
<title>11&#45;&gt;17</title>
<path fill="none" stroke="grey" stroke-width="2" d="M1094.43,-431.89C1115.28,-413.69 1149.51,-384.24 1180,-360 1251.1,-303.48 1379.92,-288.34 1325,-216 1266.71,-139.21 963.66,-105.24 845.37,-94.76"/>
<polygon fill="grey" stroke="grey" stroke-width="2" points="845.44,-91.25 835.18,-93.87 844.83,-98.22 845.44,-91.25"/>
</g>
<!-- 11&#45;&gt;21 -->
<g id="edge64" class="edge">
<title>11&#45;&gt;21</title>
<path fill="none" stroke="grey" stroke-width="2" d="M1030.34,-448.03C917.02,-445.03 620.92,-433.71 531,-396 508.01,-386.36 509.48,-372.64 488,-360 472.05,-350.61 430.25,-334.97 396.8,-323.11"/>
<polygon fill="grey" stroke="grey" stroke-width="2" points="397.77,-319.74 387.18,-319.72 395.44,-326.34 397.77,-319.74"/>
</g>
<!-- 22 -->
<g id="node23" class="node">
<title>22</title>
<path fill="none" stroke="#56d86b" stroke-width="2" d="M1207.5,-252C1207.5,-252 1104.5,-252 1104.5,-252 1098.5,-252 1092.5,-246 1092.5,-240 1092.5,-240 1092.5,-228 1092.5,-228 1092.5,-222 1098.5,-216 1104.5,-216 1104.5,-216 1207.5,-216 1207.5,-216 1213.5,-216 1219.5,-222 1219.5,-228 1219.5,-228 1219.5,-240 1219.5,-240 1219.5,-246 1213.5,-252 1207.5,-252"/>
<text text-anchor="middle" x="1156" y="-231.5" font-family="sans" font-size="10.00">format_muteffects_plot</text>
</g>
<!-- 11&#45;&gt;22 -->
<g id="edge65" class="edge">
<title>11&#45;&gt;22</title>
<path fill="none" stroke="grey" stroke-width="2" d="M1081.49,-431.85C1095.56,-394.68 1128.96,-306.44 1145.85,-261.82"/>
<polygon fill="grey" stroke="grey" stroke-width="2" points="1149.21,-262.82 1149.48,-252.23 1142.66,-260.35 1149.21,-262.82"/>
</g>
<!-- 11&#45;&gt;25 -->
<g id="edge82" class="edge">
<title>11&#45;&gt;25</title>
<path fill="none" stroke="grey" stroke-width="2" d="M1071.71,-431.82C1062.61,-388.93 1033.03,-276.26 964,-216 929.77,-186.12 878.58,-173.06 842.1,-167.37"/>
<polygon fill="grey" stroke="grey" stroke-width="2" points="842.15,-163.84 831.76,-165.89 841.16,-170.77 842.15,-163.84"/>
</g>
<!-- 12 -->
<g id="node13" class="node">
<title>12</title>
<path fill="none" stroke="#80d856" stroke-width="2" d="M1001,-540C1001,-540 927,-540 927,-540 921,-540 915,-534 915,-528 915,-528 915,-516 915,-516 915,-510 921,-504 927,-504 927,-504 1001,-504 1001,-504 1007,-504 1013,-510 1013,-516 1013,-516 1013,-528 1013,-528 1013,-534 1007,-540 1001,-540"/>
<text text-anchor="middle" x="964" y="-519.5" font-family="sans" font-size="10.00">fit_globalepistasis</text>
</g>
<!-- 12&#45;&gt;11 -->
<g id="edge22" class="edge">
<title>12&#45;&gt;11</title>
<path fill="none" stroke="grey" stroke-width="2" d="M991.15,-503.88C1005.53,-494.81 1023.38,-483.55 1038.91,-473.76"/>
<polygon fill="grey" stroke="grey" stroke-width="2" points="1041.15,-476.48 1047.74,-468.19 1037.42,-470.56 1041.15,-476.48"/>
</g>
<!-- 12&#45;&gt;17 -->
<g id="edge45" class="edge">
<title>12&#45;&gt;17</title>
<path fill="none" stroke="grey" stroke-width="2" d="M1013.14,-507.72C1133.47,-472.53 1427.28,-368.97 1345,-216 1317.5,-164.87 1290.5,-164.02 1236,-144 1165.07,-117.94 943.28,-100.57 845.32,-93.97"/>
<polygon fill="grey" stroke="grey" stroke-width="2" points="845.33,-90.46 835.12,-93.29 844.87,-97.45 845.33,-90.46"/>
</g>
<!-- 12&#45;&gt;21 -->
<g id="edge60" class="edge">
<title>12&#45;&gt;21</title>
<path fill="none" stroke="grey" stroke-width="2" d="M914.97,-507.11C851.29,-489.18 736.6,-457.28 638,-432 571.59,-414.97 548.27,-428.69 488,-396 467.55,-384.91 468.9,-373.57 450,-360 433.44,-348.1 413.87,-337.14 396.45,-328.31"/>
<polygon fill="grey" stroke="grey" stroke-width="2" points="397.55,-324.95 387.03,-323.64 394.43,-331.22 397.55,-324.95"/>
</g>
<!-- 12&#45;&gt;25 -->
<g id="edge77" class="edge">
<title>12&#45;&gt;25</title>
<path fill="none" stroke="grey" stroke-width="2" d="M964.79,-503.86C965.58,-473.65 964.53,-409.48 945,-360 917.25,-289.7 857.54,-222.38 823.37,-187.57"/>
<polygon fill="grey" stroke="grey" stroke-width="2" points="825.62,-184.86 816.08,-180.24 820.65,-189.8 825.62,-184.86"/>
</g>
<!-- 13&#45;&gt;12 -->
<g id="edge23" class="edge">
<title>13&#45;&gt;12</title>
<path fill="none" stroke="grey" stroke-width="2" d="M905.28,-575.7C914.92,-567.05 926.73,-556.45 937.23,-547.03"/>
<polygon fill="grey" stroke="grey" stroke-width="2" points="939.84,-549.39 944.94,-540.1 935.16,-544.18 939.84,-549.39"/>
</g>
<!-- 18 -->
<g id="node19" class="node">
<title>18</title>
<path fill="none" stroke="#68d856" stroke-width="2" d="M924,-396C924,-396 838,-396 838,-396 832,-396 826,-390 826,-384 826,-384 826,-372 826,-372 826,-366 832,-360 838,-360 838,-360 924,-360 924,-360 930,-360 936,-366 936,-372 936,-372 936,-384 936,-384 936,-390 930,-396 924,-396"/>
<text text-anchor="middle" x="881" y="-375.5" font-family="sans" font-size="10.00">analyze_func_scores</text>
</g>
<!-- 13&#45;&gt;18 -->
<g id="edge52" class="edge">
<title>13&#45;&gt;18</title>
<path fill="none" stroke="grey" stroke-width="2" d="M885.6,-575.85C884.73,-538.83 882.69,-451.18 881.64,-406.39"/>
<polygon fill="grey" stroke="grey" stroke-width="2" points="885.14,-406.15 881.4,-396.23 878.14,-406.31 885.14,-406.15"/>
</g>
<!-- 14 -->
<g id="node15" class="node">
<title>14</title>
<path fill="none" stroke="#59d856" stroke-width="2" d="M522.5,-468C522.5,-468 469.5,-468 469.5,-468 463.5,-468 457.5,-462 457.5,-456 457.5,-456 457.5,-444 457.5,-444 457.5,-438 463.5,-432 469.5,-432 469.5,-432 522.5,-432 522.5,-432 528.5,-432 534.5,-438 534.5,-444 534.5,-444 534.5,-456 534.5,-456 534.5,-462 528.5,-468 522.5,-468"/>
<text text-anchor="middle" x="496" y="-447.5" font-family="sans" font-size="10.00">fit_polyclonal</text>
</g>
<!-- 14&#45;&gt;10 -->
<g id="edge21" class="edge">
<title>14&#45;&gt;10</title>
<path fill="none" stroke="grey" stroke-width="2" d="M520.95,-431.88C534.04,-422.89 550.26,-411.76 564.44,-402.03"/>
<polygon fill="grey" stroke="grey" stroke-width="2" points="566.69,-404.73 572.95,-396.19 562.73,-398.96 566.69,-404.73"/>
</g>
<!-- 14&#45;&gt;17 -->
<g id="edge47" class="edge">
<title>14&#45;&gt;17</title>
<path fill="none" stroke="grey" stroke-width="2" d="M457.27,-447.74C386.38,-444.54 240.16,-433.44 209,-396 159.07,-336 6.98,-365.73 252,-144 288.66,-110.82 625.12,-96.6 750.87,-92.41"/>
<polygon fill="grey" stroke="grey" stroke-width="2" points="751.09,-95.9 760.97,-92.08 750.86,-88.91 751.09,-95.9"/>
</g>
<!-- 14&#45;&gt;21 -->
<g id="edge62" class="edge">
<title>14&#45;&gt;21</title>
<path fill="none" stroke="grey" stroke-width="2" d="M468.64,-431.98C454.06,-422.3 436.26,-409.44 422,-396 401.4,-376.58 381.44,-351.22 367.78,-332.54"/>
<polygon fill="grey" stroke="grey" stroke-width="2" points="370.47,-330.28 361.78,-324.21 364.79,-334.37 370.47,-330.28"/>
</g>
<!-- 14&#45;&gt;25 -->
<g id="edge79" class="edge">
<title>14&#45;&gt;25</title>
<path fill="none" stroke="grey" stroke-width="2" d="M534.68,-438.94C581.42,-426.47 654.96,-405.66 664,-396 720.29,-335.88 658.87,-282.1 708,-216 719.86,-200.04 738.08,-188.02 755.04,-179.5"/>
<polygon fill="grey" stroke="grey" stroke-width="2" points="756.73,-182.57 764.27,-175.13 753.74,-176.25 756.73,-182.57"/>
</g>
<!-- 15 -->
<g id="node16" class="node">
<title>15</title>
<path fill="none" stroke="#d87d56" stroke-width="2" d="M507.5,-540C507.5,-540 438.5,-540 438.5,-540 432.5,-540 426.5,-534 426.5,-528 426.5,-528 426.5,-516 426.5,-516 426.5,-510 432.5,-504 438.5,-504 438.5,-504 507.5,-504 507.5,-504 513.5,-504 519.5,-510 519.5,-516 519.5,-516 519.5,-528 519.5,-528 519.5,-534 513.5,-540 507.5,-540"/>
<text text-anchor="middle" x="473" y="-519.5" font-family="sans" font-size="10.00">spatial_distances</text>
</g>
<!-- 15&#45;&gt;14 -->
<g id="edge28" class="edge">
<title>15&#45;&gt;14</title>
<path fill="none" stroke="grey" stroke-width="2" d="M478.69,-503.7C481.25,-495.9 484.33,-486.51 487.18,-477.83"/>
<polygon fill="grey" stroke="grey" stroke-width="2" points="490.58,-478.7 490.38,-468.1 483.93,-476.51 490.58,-478.7"/>
</g>
<!-- 16&#45;&gt;14 -->
<g id="edge29" class="edge">
<title>16&#45;&gt;14</title>
<path fill="none" stroke="grey" stroke-width="2" d="M561.07,-575.98C553.53,-557.85 540.82,-528.46 528,-504 523.31,-495.05 517.75,-485.53 512.59,-477.06"/>
<polygon fill="grey" stroke="grey" stroke-width="2" points="515.45,-475.02 507.21,-468.36 509.49,-478.71 515.45,-475.02"/>
</g>
<!-- 19 -->
<g id="node20" class="node">
<title>19</title>
<path fill="none" stroke="#56d0d8" stroke-width="2" d="M320,-396C320,-396 230,-396 230,-396 224,-396 218,-390 218,-384 218,-384 218,-372 218,-372 218,-366 224,-360 230,-360 230,-360 320,-360 320,-360 326,-360 332,-366 332,-372 332,-372 332,-384 332,-384 332,-390 326,-396 320,-396"/>
<text text-anchor="middle" x="275" y="-375.5" font-family="sans" font-size="10.00">analyze_prob_escape</text>
</g>
<!-- 16&#45;&gt;19 -->
<g id="edge53" class="edge">
<title>16&#45;&gt;19</title>
<path fill="none" stroke="grey" stroke-width="2" d="M530.19,-585.39C498.08,-577.67 451.79,-563.44 417,-540 362.24,-503.11 315.26,-440.17 291.52,-404.9"/>
<polygon fill="grey" stroke="grey" stroke-width="2" points="294.17,-402.56 285.73,-396.15 288.33,-406.42 294.17,-402.56"/>
</g>
<!-- 17&#45;&gt;0 -->
<g id="edge2" class="edge">
<title>17&#45;&gt;0</title>
<path fill="none" stroke="grey" stroke-width="2" d="M835,-85.48C960.62,-73.53 1369.97,-34.6 1496.43,-22.57"/>
<polygon fill="grey" stroke="grey" stroke-width="2" points="1497.13,-26.02 1506.75,-21.59 1496.47,-19.05 1497.13,-26.02"/>
</g>
<!-- 18&#45;&gt;17 -->
<g id="edge46" class="edge">
<title>18&#45;&gt;17</title>
<path fill="none" stroke="grey" stroke-width="2" d="M881.02,-359.74C880.44,-319.86 875.4,-218.98 841,-144 836.36,-133.88 829.33,-124.05 822.29,-115.66"/>
<polygon fill="grey" stroke="grey" stroke-width="2" points="824.86,-113.28 815.62,-108.09 819.61,-117.91 824.86,-113.28"/>
</g>
<!-- 18&#45;&gt;21 -->
<g id="edge61" class="edge">
<title>18&#45;&gt;21</title>
<path fill="none" stroke="grey" stroke-width="2" d="M825.68,-369.71C720.88,-355.89 495.14,-326.13 397.07,-313.21"/>
<polygon fill="grey" stroke="grey" stroke-width="2" points="397.52,-309.73 387.15,-311.9 396.61,-316.67 397.52,-309.73"/>
</g>
<!-- 18&#45;&gt;25 -->
<g id="edge78" class="edge">
<title>18&#45;&gt;25</title>
<path fill="none" stroke="grey" stroke-width="2" d="M874.15,-359.83C870.02,-349.46 864.68,-335.98 860,-324 841.61,-276.92 820.53,-221.96 808.29,-189.96"/>
<polygon fill="grey" stroke="grey" stroke-width="2" points="811.48,-188.5 804.64,-180.41 804.94,-191 811.48,-188.5"/>
</g>
<!-- 19&#45;&gt;17 -->
<g id="edge48" class="edge">
<title>19&#45;&gt;17</title>
<path fill="none" stroke="grey" stroke-width="2" d="M268.36,-359.83C252.2,-314.9 216.92,-193.88 284,-144 321.03,-116.47 630.57,-98.95 750.65,-93.14"/>
<polygon fill="grey" stroke="grey" stroke-width="2" points="750.83,-96.64 760.65,-92.66 750.5,-89.64 750.83,-96.64"/>
</g>
<!-- 19&#45;&gt;21 -->
<g id="edge63" class="edge">
<title>19&#45;&gt;21</title>
<path fill="none" stroke="grey" stroke-width="2" d="M293.54,-359.7C302.8,-351.05 314.16,-340.45 324.26,-331.03"/>
<polygon fill="grey" stroke="grey" stroke-width="2" points="326.75,-333.49 331.67,-324.1 321.98,-328.37 326.75,-333.49"/>
</g>
<!-- 19&#45;&gt;25 -->
<g id="edge80" class="edge">
<title>19&#45;&gt;25</title>
<path fill="none" stroke="grey" stroke-width="2" d="M277.43,-359.88C280.81,-340.87 288.36,-309.98 304,-288 319.36,-266.42 374.5,-226.08 399,-216 462.64,-189.82 664.52,-172.55 754.27,-165.98"/>
<polygon fill="grey" stroke="grey" stroke-width="2" points="754.66,-169.46 764.38,-165.25 754.16,-162.48 754.66,-169.46"/>
</g>
<!-- 20 -->
<g id="node21" class="node">
<title>20</title>
<path fill="none" stroke="#ced856" stroke-width="2" d="M320,-252C320,-252 286,-252 286,-252 280,-252 274,-246 274,-240 274,-240 274,-228 274,-228 274,-222 280,-216 286,-216 286,-216 320,-216 320,-216 326,-216 332,-222 332,-228 332,-228 332,-240 332,-240 332,-246 326,-252 320,-252"/>
<text text-anchor="middle" x="303" y="-231.5" font-family="sans" font-size="10.00">subindex</text>
</g>
<!-- 20&#45;&gt;17 -->
<g id="edge49" class="edge">
<title>20&#45;&gt;17</title>
<path fill="none" stroke="grey" stroke-width="2" d="M320.16,-215.64C341.82,-194.88 381.22,-160.82 422,-144 533.38,-98.07 677.37,-90.71 750.64,-90.25"/>
<polygon fill="grey" stroke="grey" stroke-width="2" points="750.93,-93.75 760.92,-90.23 750.91,-86.75 750.93,-93.75"/>
</g>
<!-- 20&#45;&gt;25 -->
<g id="edge81" class="edge">
<title>20&#45;&gt;25</title>
<path fill="none" stroke="grey" stroke-width="2" d="M332.28,-220.26C336.81,-218.63 341.48,-217.14 346,-216 492.47,-179.13 672.24,-167.77 753.9,-164.38"/>
<polygon fill="grey" stroke="grey" stroke-width="2" points="754.44,-167.86 764.29,-163.97 754.16,-160.87 754.44,-167.86"/>
</g>
<!-- 21&#45;&gt;17 -->
<g id="edge39" class="edge">
<title>21&#45;&gt;17</title>
<path fill="none" stroke="grey" stroke-width="2" d="M312.98,-291.89C295.08,-283.46 275.29,-270.55 265,-252 234.12,-196.36 300.07,-168.01 359,-144 429.14,-115.42 651.95,-99.41 750.42,-93.57"/>
<polygon fill="grey" stroke="grey" stroke-width="2" points="750.9,-97.05 760.67,-92.98 750.49,-90.06 750.9,-97.05"/>
</g>
<!-- 21&#45;&gt;20 -->
<g id="edge54" class="edge">
<title>21&#45;&gt;20</title>
<path fill="none" stroke="grey" stroke-width="2" d="M338.38,-287.7C332.86,-279.47 326.15,-269.48 320.07,-260.42"/>
<polygon fill="grey" stroke="grey" stroke-width="2" points="322.96,-258.46 314.48,-252.1 317.15,-262.36 322.96,-258.46"/>
</g>
<!-- 21&#45;&gt;25 -->
<g id="edge72" class="edge">
<title>21&#45;&gt;25</title>
<path fill="none" stroke="grey" stroke-width="2" d="M364.75,-287.69C383.47,-266.98 417.83,-232.97 455,-216 554.9,-170.4 686.4,-162.87 753.87,-162.31"/>
<polygon fill="grey" stroke="grey" stroke-width="2" points="754.15,-165.81 764.14,-162.27 754.13,-158.81 754.15,-165.81"/>
</g>
<!-- 22&#45;&gt;17 -->
<g id="edge36" class="edge">
<title>22&#45;&gt;17</title>
<path fill="none" stroke="grey" stroke-width="2" d="M1112.82,-215.87C1045.06,-188.99 914.3,-137.13 844.53,-109.46"/>
<polygon fill="grey" stroke="grey" stroke-width="2" points="845.69,-106.15 835.1,-105.72 843.11,-112.66 845.69,-106.15"/>
</g>
<!-- 22&#45;&gt;25 -->
<g id="edge69" class="edge">
<title>22&#45;&gt;25</title>
<path fill="none" stroke="grey" stroke-width="2" d="M1092.18,-218.94C1087.38,-217.93 1082.62,-216.94 1078,-216 994.65,-199.03 896.97,-180.95 841.8,-170.91"/>
<polygon fill="grey" stroke="grey" stroke-width="2" points="842.14,-167.41 831.68,-169.07 840.89,-174.3 842.14,-167.41"/>
</g>
<!-- 23 -->
<g id="node24" class="node">
<title>23</title>
<path fill="none" stroke="#d85656" stroke-width="2" d="M1304,-252C1304,-252 1250,-252 1250,-252 1244,-252 1238,-246 1238,-240 1238,-240 1238,-228 1238,-228 1238,-222 1244,-216 1250,-216 1250,-216 1304,-216 1304,-216 1310,-216 1316,-222 1316,-228 1316,-228 1316,-240 1316,-240 1316,-246 1310,-252 1304,-252"/>
<text text-anchor="middle" x="1277" y="-231.5" font-family="sans" font-size="10.00">make_graphs</text>
</g>
<!-- 23&#45;&gt;17 -->
<g id="edge34" class="edge">
<title>23&#45;&gt;17</title>
<path fill="none" stroke="grey" stroke-width="2" d="M1237.76,-218.93C1234.8,-217.93 1231.86,-216.94 1229,-216 1090.57,-170.57 924.4,-124.81 844.88,-103.45"/>
<polygon fill="grey" stroke="grey" stroke-width="2" points="845.73,-100.05 835.16,-100.84 843.92,-106.81 845.73,-100.05"/>
</g>
<!-- 23&#45;&gt;25 -->
<g id="edge67" class="edge">
<title>23&#45;&gt;25</title>
<path fill="none" stroke="grey" stroke-width="2" d="M1237.92,-218.37C1234.92,-217.5 1231.93,-216.69 1229,-216 1089.77,-183.2 920.18,-169.91 841.7,-165.22"/>
<polygon fill="grey" stroke="grey" stroke-width="2" points="841.88,-161.73 831.69,-164.64 841.47,-168.71 841.88,-161.73"/>
</g>
<!-- 24&#45;&gt;17 -->
<g id="edge51" class="edge">
<title>24&#45;&gt;17</title>
<path fill="none" stroke="grey" stroke-width="2" d="M572,-215.87C618.6,-190.12 706.7,-141.45 758.05,-113.07"/>
<polygon fill="grey" stroke="grey" stroke-width="2" points="759.83,-116.09 766.89,-108.19 756.44,-109.96 759.83,-116.09"/>
</g>
<!-- 24&#45;&gt;25 -->
<g id="edge83" class="edge">
<title>24&#45;&gt;25</title>
<path fill="none" stroke="grey" stroke-width="2" d="M603.54,-215.97C650.35,-203.22 713.17,-186.1 754.58,-174.83"/>
<polygon fill="grey" stroke="grey" stroke-width="2" points="755.64,-178.16 764.37,-172.16 753.8,-171.41 755.64,-178.16"/>
</g>
<!-- 25&#45;&gt;17 -->
<g id="edge40" class="edge">
<title>25&#45;&gt;17</title>
<path fill="none" stroke="grey" stroke-width="2" d="M798,-143.7C798,-135.98 798,-126.71 798,-118.11"/>
<polygon fill="grey" stroke="grey" stroke-width="2" points="801.5,-118.1 798,-108.1 794.5,-118.1 801.5,-118.1"/>
</g>
</g>
</svg>
