<?xml version="1.0" encoding="UTF-8" standalone="no"?>
<!DOCTYPE svg PUBLIC "-//W3C//DTD SVG 1.1//EN"
 "http://www.w3.org/Graphics/SVG/1.1/DTD/svg11.dtd">
<!-- Generated by graphviz version 3.0.0 (20220315.2325)
 -->
<!-- Title: snakemake_dag Pages: 1 -->
<svg width="1454pt" height="1196pt"
 viewBox="0.00 0.00 1454.00 1196.00" xmlns="http://www.w3.org/2000/svg" xmlns:xlink="http://www.w3.org/1999/xlink">
<g id="graph0" class="graph" transform="scale(1 1) rotate(0) translate(4 1192)">
<title>snakemake_dag</title>
<polygon fill="white" stroke="transparent" points="-4,4 -4,-1192 1450,-1192 1450,4 -4,4"/>
<!-- 0 -->
<g id="node1" class="node">
<title>0</title>
<path fill="none" stroke="#56d8c1" stroke-width="2" d="M1271,-36C1271,-36 1241,-36 1241,-36 1235,-36 1229,-30 1229,-24 1229,-24 1229,-12 1229,-12 1229,-6 1235,0 1241,0 1241,0 1271,0 1271,0 1277,0 1283,-6 1283,-12 1283,-12 1283,-24 1283,-24 1283,-30 1277,-36 1271,-36"/>
<text text-anchor="middle" x="1256" y="-15.5" font-family="sans" font-size="10.00">all</text>
</g>
<!-- 1 -->
<g id="node2" class="node">
<title>1</title>
<path fill="none" stroke="#68d856" stroke-width="2" d="M880,-828C880,-828 820,-828 820,-828 814,-828 808,-822 808,-816 808,-816 808,-804 808,-804 808,-798 814,-792 820,-792 820,-792 880,-792 880,-792 886,-792 892,-798 892,-804 892,-804 892,-816 892,-816 892,-822 886,-828 880,-828"/>
<text text-anchor="middle" x="850" y="-807.5" font-family="sans" font-size="10.00">variant_counts</text>
</g>
<!-- 1&#45;&gt;0 -->
<g id="edge4" class="edge">
<title>1&#45;&gt;0</title>
<path fill="none" stroke="grey" stroke-width="2" d="M892.1,-809.41C957.8,-808.53 1087.42,-800.63 1186,-756 1242.35,-730.49 1293,-728.86 1293,-667 1293,-667 1293,-667 1293,-521 1293,-350.74 1388.27,-312.06 1361,-144 1355.6,-110.7 1357.59,-98.72 1337,-72 1325.25,-56.76 1307.8,-44.54 1292.11,-35.7"/>
<polygon fill="grey" stroke="grey" stroke-width="2" points="1293.59,-32.53 1283.13,-30.89 1290.29,-38.7 1293.59,-32.53"/>
</g>
<!-- 9 -->
<g id="node10" class="node">
<title>9</title>
<path fill="none" stroke="#80d856" stroke-width="2" d="M1164.5,-756C1164.5,-756 1065.5,-756 1065.5,-756 1059.5,-756 1053.5,-750 1053.5,-744 1053.5,-744 1053.5,-732 1053.5,-732 1053.5,-726 1059.5,-720 1065.5,-720 1065.5,-720 1164.5,-720 1164.5,-720 1170.5,-720 1176.5,-726 1176.5,-732 1176.5,-732 1176.5,-744 1176.5,-744 1176.5,-750 1170.5,-756 1164.5,-756"/>
<text text-anchor="middle" x="1115" y="-735.5" font-family="sans" font-size="10.00">analyze_variant_counts</text>
</g>
<!-- 1&#45;&gt;9 -->
<g id="edge18" class="edge">
<title>1&#45;&gt;9</title>
<path fill="none" stroke="grey" stroke-width="2" d="M892.28,-797.83C932.89,-787.11 995.01,-770.7 1043.34,-757.93"/>
<polygon fill="grey" stroke="grey" stroke-width="2" points="1044.35,-761.28 1053.12,-755.34 1042.56,-754.51 1044.35,-761.28"/>
</g>
<!-- 13 -->
<g id="node14" class="node">
<title>13</title>
<path fill="none" stroke="#d85656" stroke-width="2" d="M716.5,-612C716.5,-612 669.5,-612 669.5,-612 663.5,-612 657.5,-606 657.5,-600 657.5,-600 657.5,-588 657.5,-588 657.5,-582 663.5,-576 669.5,-576 669.5,-576 716.5,-576 716.5,-576 722.5,-576 728.5,-582 728.5,-588 728.5,-588 728.5,-600 728.5,-600 728.5,-606 722.5,-612 716.5,-612"/>
<text text-anchor="middle" x="693" y="-591.5" font-family="sans" font-size="10.00">func_scores</text>
</g>
<!-- 1&#45;&gt;13 -->
<g id="edge26" class="edge">
<title>1&#45;&gt;13</title>
<path fill="none" stroke="grey" stroke-width="2" d="M830.44,-791.82C819.68,-781.89 806.43,-768.85 796,-756 760.02,-711.69 725.89,-654.23 707.37,-621.3"/>
<polygon fill="grey" stroke="grey" stroke-width="2" points="710.28,-619.34 702.35,-612.31 704.16,-622.75 710.28,-619.34"/>
</g>
<!-- 15 -->
<g id="node16" class="node">
<title>15</title>
<path fill="none" stroke="#97d856" stroke-width="2" d="M903.5,-612C903.5,-612 852.5,-612 852.5,-612 846.5,-612 840.5,-606 840.5,-600 840.5,-600 840.5,-588 840.5,-588 840.5,-582 846.5,-576 852.5,-576 852.5,-576 903.5,-576 903.5,-576 909.5,-576 915.5,-582 915.5,-588 915.5,-588 915.5,-600 915.5,-600 915.5,-606 909.5,-612 903.5,-612"/>
<text text-anchor="middle" x="878" y="-591.5" font-family="sans" font-size="10.00">prob_escape</text>
</g>
<!-- 1&#45;&gt;15 -->
<g id="edge31" class="edge">
<title>1&#45;&gt;15</title>
<path fill="none" stroke="grey" stroke-width="2" d="M852.24,-791.85C857.09,-754.83 868.56,-667.18 874.42,-622.39"/>
<polygon fill="grey" stroke="grey" stroke-width="2" points="877.92,-622.6 875.75,-612.23 870.98,-621.69 877.92,-622.6"/>
</g>
<!-- 16 -->
<g id="node17" class="node">
<title>16</title>
<path fill="none" stroke="#569ad8" stroke-width="2" d="M862,-108C862,-108 812,-108 812,-108 806,-108 800,-102 800,-96 800,-96 800,-84 800,-84 800,-78 806,-72 812,-72 812,-72 862,-72 862,-72 868,-72 874,-78 874,-84 874,-84 874,-96 874,-96 874,-102 868,-108 862,-108"/>
<text text-anchor="middle" x="837" y="-87.5" font-family="sans" font-size="10.00">sphinx_build</text>
</g>
<!-- 1&#45;&gt;16 -->
<g id="edge47" class="edge">
<title>1&#45;&gt;16</title>
<path fill="none" stroke="grey" stroke-width="2" d="M890.13,-791.99C950.31,-765.84 1059.96,-715.5 1089,-684 1210.53,-552.18 1172.21,-467.19 1166,-288 1163.65,-220.29 1171.92,-182.25 1116,-144 1078.99,-118.68 953.7,-102.58 884.28,-95.39"/>
<polygon fill="grey" stroke="grey" stroke-width="2" points="884.35,-91.88 874.05,-94.35 883.64,-98.84 884.35,-91.88"/>
</g>
<!-- 23 -->
<g id="node24" class="node">
<title>23</title>
<path fill="none" stroke="#56d8a9" stroke-width="2" d="M649.5,-180C649.5,-180 606.5,-180 606.5,-180 600.5,-180 594.5,-174 594.5,-168 594.5,-168 594.5,-156 594.5,-156 594.5,-150 600.5,-144 606.5,-144 606.5,-144 649.5,-144 649.5,-144 655.5,-144 661.5,-150 661.5,-156 661.5,-156 661.5,-168 661.5,-168 661.5,-174 655.5,-180 649.5,-180"/>
<text text-anchor="middle" x="628" y="-159.5" font-family="sans" font-size="10.00">docs_index</text>
</g>
<!-- 1&#45;&gt;23 -->
<g id="edge77" class="edge">
<title>1&#45;&gt;23</title>
<path fill="none" stroke="grey" stroke-width="2" d="M839.43,-791.98C818.55,-756.67 774,-672.28 774,-595 774,-595 774,-595 774,-449 774,-351.99 732.18,-333.79 680,-252 666.72,-231.19 652.65,-206.96 642.5,-189.04"/>
<polygon fill="grey" stroke="grey" stroke-width="2" points="645.54,-187.3 637.58,-180.3 639.44,-190.73 645.54,-187.3"/>
</g>
<!-- 2 -->
<g id="node3" class="node">
<title>2</title>
<path fill="none" stroke="#d8c356" stroke-width="2" d="M944.5,-900C944.5,-900 879.5,-900 879.5,-900 873.5,-900 867.5,-894 867.5,-888 867.5,-888 867.5,-876 867.5,-876 867.5,-870 873.5,-864 879.5,-864 879.5,-864 944.5,-864 944.5,-864 950.5,-864 956.5,-870 956.5,-876 956.5,-876 956.5,-888 956.5,-888 956.5,-894 950.5,-900 944.5,-900"/>
<text text-anchor="middle" x="912" y="-879.5" font-family="sans" font-size="10.00">count_barcodes</text>
</g>
<!-- 2&#45;&gt;1 -->
<g id="edge6" class="edge">
<title>2&#45;&gt;1</title>
<path fill="none" stroke="grey" stroke-width="2" d="M896.67,-863.7C889.24,-855.3 880.18,-845.07 872.02,-835.86"/>
<polygon fill="grey" stroke="grey" stroke-width="2" points="874.4,-833.27 865.15,-828.1 869.16,-837.91 874.4,-833.27"/>
</g>
<!-- 2&#45;&gt;9 -->
<g id="edge16" class="edge">
<title>2&#45;&gt;9</title>
<path fill="none" stroke="grey" stroke-width="2" d="M936.49,-863.87C972.91,-838.39 1041.44,-790.45 1082.18,-761.96"/>
<polygon fill="grey" stroke="grey" stroke-width="2" points="1084.24,-764.79 1090.43,-756.19 1080.23,-759.05 1084.24,-764.79"/>
</g>
<!-- 3 -->
<g id="node4" class="node">
<title>3</title>
<path fill="none" stroke="#afd856" stroke-width="2" d="M924.5,-972C924.5,-972 835.5,-972 835.5,-972 829.5,-972 823.5,-966 823.5,-960 823.5,-960 823.5,-948 823.5,-948 823.5,-942 829.5,-936 835.5,-936 835.5,-936 924.5,-936 924.5,-936 930.5,-936 936.5,-942 936.5,-948 936.5,-948 936.5,-960 936.5,-960 936.5,-966 930.5,-972 924.5,-972"/>
<text text-anchor="middle" x="880" y="-951.5" font-family="sans" font-size="10.00">build_codon_variants</text>
</g>
<!-- 3&#45;&gt;1 -->
<g id="edge8" class="edge">
<title>3&#45;&gt;1</title>
<path fill="none" stroke="grey" stroke-width="2" d="M871.75,-935.73C867.25,-925.56 862,-912.31 859,-900 854.07,-879.76 851.83,-856.29 850.82,-838.54"/>
<polygon fill="grey" stroke="grey" stroke-width="2" points="854.31,-838.12 850.34,-828.3 847.32,-838.45 854.31,-838.12"/>
</g>
<!-- 3&#45;&gt;2 -->
<g id="edge9" class="edge">
<title>3&#45;&gt;2</title>
<path fill="none" stroke="grey" stroke-width="2" d="M887.91,-935.7C891.55,-927.73 895.95,-918.1 899.99,-909.26"/>
<polygon fill="grey" stroke="grey" stroke-width="2" points="903.21,-910.65 904.18,-900.1 896.84,-907.74 903.21,-910.65"/>
</g>
<!-- 3&#45;&gt;9 -->
<g id="edge17" class="edge">
<title>3&#45;&gt;9</title>
<path fill="none" stroke="grey" stroke-width="2" d="M934.03,-935.91C955.69,-927.36 979.96,-915.48 999,-900 1045.91,-861.85 1083.02,-800.34 1101.72,-765.43"/>
<polygon fill="grey" stroke="grey" stroke-width="2" points="1104.95,-766.81 1106.5,-756.33 1098.75,-763.56 1104.95,-766.81"/>
</g>
<!-- 3&#45;&gt;13 -->
<g id="edge27" class="edge">
<title>3&#45;&gt;13</title>
<path fill="none" stroke="grey" stroke-width="2" d="M867.05,-935.72C836.66,-894.4 760.18,-785.72 718,-684 709.62,-663.8 703.08,-639.89 698.79,-621.94"/>
<polygon fill="grey" stroke="grey" stroke-width="2" points="702.19,-621.09 696.53,-612.14 695.37,-622.67 702.19,-621.09"/>
</g>
<!-- 3&#45;&gt;15 -->
<g id="edge32" class="edge">
<title>3&#45;&gt;15</title>
<path fill="none" stroke="grey" stroke-width="2" d="M925.55,-935.98C941.25,-927.66 957.11,-915.93 966,-900 973.8,-886.03 968.52,-879.8 966,-864 952.72,-780.87 933.15,-764.02 907,-684 900.16,-663.08 892.44,-639.39 886.69,-621.71"/>
<polygon fill="grey" stroke="grey" stroke-width="2" points="889.97,-620.49 883.55,-612.06 883.32,-622.66 889.97,-620.49"/>
</g>
<!-- 3&#45;&gt;16 -->
<g id="edge43" class="edge">
<title>3&#45;&gt;16</title>
<path fill="none" stroke="grey" stroke-width="2" d="M936.57,-953.43C1065.29,-951.15 1369,-925.96 1369,-739 1369,-739 1369,-739 1369,-521 1369,-346.58 1402.92,-243.97 1260,-144 1200.24,-102.2 981.82,-93.35 884.43,-91.49"/>
<polygon fill="grey" stroke="grey" stroke-width="2" points="884.33,-87.99 874.28,-91.31 884.21,-94.98 884.33,-87.99"/>
</g>
<!-- 20 -->
<g id="node21" class="node">
<title>20</title>
<path fill="none" stroke="#d86e56" stroke-width="2" d="M557,-324C557,-324 507,-324 507,-324 501,-324 495,-318 495,-312 495,-312 495,-300 495,-300 495,-294 501,-288 507,-288 507,-288 557,-288 557,-288 563,-288 569,-294 569,-300 569,-300 569,-312 569,-312 569,-318 563,-324 557,-324"/>
<text text-anchor="middle" x="532" y="-303.5" font-family="sans" font-size="10.00">make_nblink</text>
</g>
<!-- 3&#45;&gt;20 -->
<g id="edge59" class="edge">
<title>3&#45;&gt;20</title>
<path fill="none" stroke="grey" stroke-width="2" d="M854.39,-935.95C841.11,-926.36 825.17,-913.59 813,-900 787.83,-871.88 787.17,-860.5 768,-828 659.05,-643.27 621.08,-599.37 553,-396 546.21,-375.71 540.75,-352.11 537.1,-334.32"/>
<polygon fill="grey" stroke="grey" stroke-width="2" points="540.49,-333.45 535.11,-324.32 533.63,-334.81 540.49,-333.45"/>
</g>
<!-- 3&#45;&gt;23 -->
<g id="edge74" class="edge">
<title>3&#45;&gt;23</title>
<path fill="none" stroke="grey" stroke-width="2" d="M934.16,-935.9C962.99,-926.29 998.84,-913.53 1030,-900 1185.19,-832.64 1331,-836.18 1331,-667 1331,-667 1331,-667 1331,-521 1331,-352.88 1180.07,-369.46 1033,-288 1014.7,-277.86 878.93,-222.36 859,-216 795.04,-195.59 718.78,-179.67 671.87,-170.8"/>
<polygon fill="grey" stroke="grey" stroke-width="2" points="672.22,-167.31 661.75,-168.91 670.94,-174.19 672.22,-167.31"/>
</g>
<!-- 4 -->
<g id="node5" class="node">
<title>4</title>
<path fill="none" stroke="#56d8d8" stroke-width="2" d="M276,-1044C276,-1044 174,-1044 174,-1044 168,-1044 162,-1038 162,-1032 162,-1032 162,-1020 162,-1020 162,-1014 168,-1008 174,-1008 174,-1008 276,-1008 276,-1008 282,-1008 288,-1014 288,-1020 288,-1020 288,-1032 288,-1032 288,-1038 282,-1044 276,-1044"/>
<text text-anchor="middle" x="225" y="-1023.5" font-family="sans" font-size="10.00">build_pacbio_consensus</text>
</g>
<!-- 4&#45;&gt;3 -->
<g id="edge11" class="edge">
<title>4&#45;&gt;3</title>
<path fill="none" stroke="grey" stroke-width="2" d="M288.1,-1018.26C412.03,-1005.01 686.19,-975.71 813.11,-962.15"/>
<polygon fill="grey" stroke="grey" stroke-width="2" points="813.52,-965.62 823.1,-961.08 812.78,-958.66 813.52,-965.62"/>
</g>
<!-- 4&#45;&gt;16 -->
<g id="edge33" class="edge">
<title>4&#45;&gt;16</title>
<path fill="none" stroke="grey" stroke-width="2" d="M209.16,-1007.65C187.69,-982.27 152,-932.62 152,-883 152,-883 152,-883 152,-809 152,-642.02 38,-617.98 38,-451 38,-451 38,-451 38,-233 38,-162.61 102.59,-167.34 169,-144 283.74,-103.67 656.66,-93.87 789.48,-91.62"/>
<polygon fill="grey" stroke="grey" stroke-width="2" points="789.8,-95.12 799.74,-91.46 789.68,-88.12 789.8,-95.12"/>
</g>
<!-- 4&#45;&gt;20 -->
<g id="edge61" class="edge">
<title>4&#45;&gt;20</title>
<path fill="none" stroke="grey" stroke-width="2" d="M235.25,-1007.98C271.76,-946.77 397.14,-731.3 470,-540 497.6,-467.54 517.72,-377.96 526.73,-333.96"/>
<polygon fill="grey" stroke="grey" stroke-width="2" points="530.19,-334.54 528.73,-324.05 523.32,-333.16 530.19,-334.54"/>
</g>
<!-- 4&#45;&gt;23 -->
<g id="edge64" class="edge">
<title>4&#45;&gt;23</title>
<path fill="none" stroke="grey" stroke-width="2" d="M217.92,-1007.85C207.69,-981.49 190,-929.21 190,-883 190,-883 190,-883 190,-809 190,-641.41 121.05,-588.12 182,-432 193.87,-401.6 352.66,-232.18 381,-216 445.31,-179.27 532.25,-167.94 583.99,-164.48"/>
<polygon fill="grey" stroke="grey" stroke-width="2" points="584.39,-167.96 594.16,-163.87 583.97,-160.97 584.39,-167.96"/>
</g>
<!-- 5 -->
<g id="node6" class="node">
<title>5</title>
<path fill="none" stroke="#56d89a" stroke-width="2" d="M135,-1116C135,-1116 55,-1116 55,-1116 49,-1116 43,-1110 43,-1104 43,-1104 43,-1092 43,-1092 43,-1086 49,-1080 55,-1080 55,-1080 135,-1080 135,-1080 141,-1080 147,-1086 147,-1092 147,-1092 147,-1104 147,-1104 147,-1110 141,-1116 135,-1116"/>
<text text-anchor="middle" x="95" y="-1095.5" font-family="sans" font-size="10.00">analyze_pacbio_ccs</text>
</g>
<!-- 5&#45;&gt;4 -->
<g id="edge13" class="edge">
<title>5&#45;&gt;4</title>
<path fill="none" stroke="grey" stroke-width="2" d="M126.8,-1079.88C144.11,-1070.55 165.72,-1058.92 184.26,-1048.94"/>
<polygon fill="grey" stroke="grey" stroke-width="2" points="185.93,-1052.01 193.08,-1044.19 182.61,-1045.85 185.93,-1052.01"/>
</g>
<!-- 5&#45;&gt;16 -->
<g id="edge44" class="edge">
<title>5&#45;&gt;16</title>
<path fill="none" stroke="grey" stroke-width="2" d="M73.44,-1079.78C45.41,-1055.28 0,-1007.5 0,-955 0,-955 0,-955 0,-233 0,-185.54 17.97,-167.86 59,-144 122.07,-107.33 630.48,-94.84 789.58,-91.8"/>
<polygon fill="grey" stroke="grey" stroke-width="2" points="790.06,-95.3 799.99,-91.61 789.92,-88.3 790.06,-95.3"/>
</g>
<!-- 5&#45;&gt;20 -->
<g id="edge60" class="edge">
<title>5&#45;&gt;20</title>
<path fill="none" stroke="grey" stroke-width="2" d="M98.84,-1079.61C104.4,-1052.94 114,-1000.27 114,-955 114,-955 114,-955 114,-809 114,-622.18 326.81,-690.86 437,-540 487.92,-470.29 477.23,-439.87 510,-360 513.53,-351.39 517.42,-342 520.93,-333.55"/>
<polygon fill="grey" stroke="grey" stroke-width="2" points="524.22,-334.75 524.83,-324.17 517.76,-332.06 524.22,-334.75"/>
</g>
<!-- 5&#45;&gt;23 -->
<g id="edge75" class="edge">
<title>5&#45;&gt;23</title>
<path fill="none" stroke="grey" stroke-width="2" d="M91.16,-1079.61C85.6,-1052.94 76,-1000.27 76,-955 76,-955 76,-955 76,-377 76,-261.05 213.7,-323.48 305,-252 322.09,-238.62 319,-226.5 338,-216 379.65,-192.99 513.81,-175.44 584.1,-167.56"/>
<polygon fill="grey" stroke="grey" stroke-width="2" points="584.85,-171 594.4,-166.43 584.08,-164.04 584.85,-171"/>
</g>
<!-- 6 -->
<g id="node7" class="node">
<title>6</title>
<path fill="none" stroke="#d8ac56" stroke-width="2" d="M144,-1188C144,-1188 46,-1188 46,-1188 40,-1188 34,-1182 34,-1176 34,-1176 34,-1164 34,-1164 34,-1158 40,-1152 46,-1152 46,-1152 144,-1152 144,-1152 150,-1152 156,-1158 156,-1164 156,-1164 156,-1176 156,-1176 156,-1182 150,-1188 144,-1188"/>
<text text-anchor="middle" x="95" y="-1167.5" font-family="sans" font-size="10.00">align_parse_PacBio_ccs</text>
</g>
<!-- 6&#45;&gt;5 -->
<g id="edge14" class="edge">
<title>6&#45;&gt;5</title>
<path fill="none" stroke="grey" stroke-width="2" d="M95,-1151.7C95,-1143.98 95,-1134.71 95,-1126.11"/>
<polygon fill="grey" stroke="grey" stroke-width="2" points="98.5,-1126.1 95,-1116.1 91.5,-1126.1 98.5,-1126.1"/>
</g>
<!-- 7 -->
<g id="node8" class="node">
<title>7</title>
<path fill="none" stroke="#5682d8" stroke-width="2" d="M758,-1116C758,-1116 692,-1116 692,-1116 686,-1116 680,-1110 680,-1104 680,-1104 680,-1092 680,-1092 680,-1086 686,-1080 692,-1080 692,-1080 758,-1080 758,-1080 764,-1080 770,-1086 770,-1092 770,-1092 770,-1104 770,-1104 770,-1110 764,-1116 758,-1116"/>
<text text-anchor="middle" x="725" y="-1095.5" font-family="sans" font-size="10.00">gene_sequence</text>
</g>
<!-- 7&#45;&gt;1 -->
<g id="edge7" class="edge">
<title>7&#45;&gt;1</title>
<path fill="none" stroke="grey" stroke-width="2" d="M732.44,-1079.97C753.41,-1031.99 813.07,-895.5 838.4,-837.54"/>
<polygon fill="grey" stroke="grey" stroke-width="2" points="841.64,-838.87 842.44,-828.31 835.22,-836.07 841.64,-838.87"/>
</g>
<!-- 7&#45;&gt;3 -->
<g id="edge10" class="edge">
<title>7&#45;&gt;3</title>
<path fill="none" stroke="grey" stroke-width="2" d="M743.7,-1079.87C771.16,-1054.71 822.53,-1007.65 853.76,-979.04"/>
<polygon fill="grey" stroke="grey" stroke-width="2" points="856.23,-981.53 861.24,-972.19 851.5,-976.36 856.23,-981.53"/>
</g>
<!-- 7&#45;&gt;4 -->
<g id="edge12" class="edge">
<title>7&#45;&gt;4</title>
<path fill="none" stroke="grey" stroke-width="2" d="M679.94,-1092.19C603.88,-1083.86 445.27,-1065.55 312,-1044 307.52,-1043.28 302.92,-1042.49 298.28,-1041.67"/>
<polygon fill="grey" stroke="grey" stroke-width="2" points="298.57,-1038.17 288.11,-1039.83 297.33,-1045.06 298.57,-1038.17"/>
</g>
<!-- 7&#45;&gt;9 -->
<g id="edge19" class="edge">
<title>7&#45;&gt;9</title>
<path fill="none" stroke="grey" stroke-width="2" d="M759.94,-1079.91C804.59,-1057.48 883.57,-1015.79 946,-972 986.26,-943.76 995.62,-935.15 1030,-900 1058.93,-870.42 1069.7,-864.59 1089,-828 1099.3,-808.48 1106.02,-784.34 1110.05,-766.13"/>
<polygon fill="grey" stroke="grey" stroke-width="2" points="1113.51,-766.68 1112.11,-756.17 1106.65,-765.26 1113.51,-766.68"/>
</g>
<!-- 7&#45;&gt;13 -->
<g id="edge25" class="edge">
<title>7&#45;&gt;13</title>
<path fill="none" stroke="grey" stroke-width="2" d="M703.59,-1079.86C692.99,-1070.33 680.81,-1057.65 673,-1044 652.66,-1008.44 649,-995.97 649,-955 649,-955 649,-955 649,-737 649,-695.21 666.6,-649.48 679.54,-621.51"/>
<polygon fill="grey" stroke="grey" stroke-width="2" points="682.74,-622.93 683.88,-612.39 676.42,-619.92 682.74,-622.93"/>
</g>
<!-- 7&#45;&gt;15 -->
<g id="edge30" class="edge">
<title>7&#45;&gt;15</title>
<path fill="none" stroke="grey" stroke-width="2" d="M717.31,-1079.91C706.21,-1053.62 687,-1001.45 687,-955 687,-955 687,-955 687,-881 687,-766.56 794.06,-663.17 847.87,-618.43"/>
<polygon fill="grey" stroke="grey" stroke-width="2" points="850.19,-621.05 855.72,-612.01 845.76,-615.63 850.19,-621.05"/>
</g>
<!-- 7&#45;&gt;16 -->
<g id="edge40" class="edge">
<title>7&#45;&gt;16</title>
<path fill="none" stroke="grey" stroke-width="2" d="M770.1,-1097.76C927.95,-1099.21 1446,-1093.42 1446,-955 1446,-955 1446,-955 1446,-305 1446,-206.9 1382.63,-188.11 1295,-144 1223.8,-108.16 986.19,-96.01 884.18,-92.38"/>
<polygon fill="grey" stroke="grey" stroke-width="2" points="884.28,-88.88 874.16,-92.03 884.04,-95.88 884.28,-88.88"/>
</g>
<!-- 7&#45;&gt;23 -->
<g id="edge71" class="edge">
<title>7&#45;&gt;23</title>
<path fill="none" stroke="grey" stroke-width="2" d="M696.92,-1079.87C682.57,-1070.34 665.36,-1057.66 652,-1044 434.25,-821.37 345.9,-765.24 253,-468 236.87,-416.39 273.65,-400.91 309,-360 337.98,-326.46 341.85,-313.65 378,-288 409.47,-265.67 425.78,-274.68 457,-252 474.56,-239.24 472.06,-228.22 490,-216 518.94,-196.3 556.22,-182.54 584.74,-173.99"/>
<polygon fill="grey" stroke="grey" stroke-width="2" points="585.8,-177.33 594.43,-171.18 583.85,-170.6 585.8,-177.33"/>
</g>
<!-- 8 -->
<g id="node9" class="node">
<title>8</title>
<path fill="none" stroke="#59d856" stroke-width="2" d="M1068,-684C1068,-684 928,-684 928,-684 922,-684 916,-678 916,-672 916,-672 916,-660 916,-660 916,-654 922,-648 928,-648 928,-648 1068,-648 1068,-648 1074,-648 1080,-654 1080,-660 1080,-660 1080,-672 1080,-672 1080,-678 1074,-684 1068,-684"/>
<text text-anchor="middle" x="998" y="-663.5" font-family="sans" font-size="10.00">check_adequate_variant_counts</text>
</g>
<!-- 8&#45;&gt;0 -->
<g id="edge1" class="edge">
<title>8&#45;&gt;0</title>
<path fill="none" stroke="grey" stroke-width="2" d="M1016.67,-647.99C1078.69,-590.03 1277.78,-392.11 1346,-180 1362.84,-127.65 1316.58,-73.08 1284.31,-42.83"/>
<polygon fill="grey" stroke="grey" stroke-width="2" points="1286.6,-40.19 1276.86,-36.04 1281.89,-45.36 1286.6,-40.19"/>
</g>
<!-- 8&#45;&gt;13 -->
<g id="edge24" class="edge">
<title>8&#45;&gt;13</title>
<path fill="none" stroke="grey" stroke-width="2" d="M923.78,-647.97C866,-634.7 787.64,-616.72 738.72,-605.49"/>
<polygon fill="grey" stroke="grey" stroke-width="2" points="739.28,-602.03 728.75,-603.2 737.71,-608.85 739.28,-602.03"/>
</g>
<!-- 8&#45;&gt;15 -->
<g id="edge29" class="edge">
<title>8&#45;&gt;15</title>
<path fill="none" stroke="grey" stroke-width="2" d="M968.64,-647.88C952.95,-638.72 933.44,-627.34 916.55,-617.48"/>
<polygon fill="grey" stroke="grey" stroke-width="2" points="917.87,-614.21 907.47,-612.19 914.34,-620.25 917.87,-614.21"/>
</g>
<!-- 9&#45;&gt;8 -->
<g id="edge15" class="edge">
<title>9&#45;&gt;8</title>
<path fill="none" stroke="grey" stroke-width="2" d="M1086.38,-719.88C1071.08,-710.72 1052.06,-699.34 1035.58,-689.48"/>
<polygon fill="grey" stroke="grey" stroke-width="2" points="1037.11,-686.32 1026.73,-684.19 1033.52,-692.33 1037.11,-686.32"/>
</g>
<!-- 9&#45;&gt;16 -->
<g id="edge48" class="edge">
<title>9&#45;&gt;16</title>
<path fill="none" stroke="grey" stroke-width="2" d="M1151.42,-719.81C1192.9,-697.42 1255,-654.03 1255,-595 1255,-595 1255,-595 1255,-521 1255,-353.13 1346.32,-266.92 1232,-144 1185.84,-94.37 979.01,-89.66 884.45,-90.19"/>
<polygon fill="grey" stroke="grey" stroke-width="2" points="884.27,-86.69 874.3,-90.27 884.33,-93.69 884.27,-86.69"/>
</g>
<!-- 9&#45;&gt;20 -->
<g id="edge62" class="edge">
<title>9&#45;&gt;20</title>
<path fill="none" stroke="grey" stroke-width="2" d="M1114.01,-719.69C1112.05,-700.22 1106.24,-668.63 1089,-648 928.16,-455.52 767.12,-567.43 584,-396 565.31,-378.5 551.27,-352.77 542.52,-333.47"/>
<polygon fill="grey" stroke="grey" stroke-width="2" points="545.62,-331.82 538.43,-324.04 539.2,-334.6 545.62,-331.82"/>
</g>
<!-- 9&#45;&gt;23 -->
<g id="edge78" class="edge">
<title>9&#45;&gt;23</title>
<path fill="none" stroke="grey" stroke-width="2" d="M1138.4,-719.92C1168.51,-695.77 1217,-648.57 1217,-595 1217,-595 1217,-595 1217,-521 1217,-431.76 1165.93,-416.69 1097,-360 982.46,-265.8 933.94,-270.44 796,-216 754.44,-199.6 705.61,-184.66 671.34,-174.85"/>
<polygon fill="grey" stroke="grey" stroke-width="2" points="672.21,-171.46 661.63,-172.1 670.3,-178.2 672.21,-171.46"/>
</g>
<!-- 10 -->
<g id="node11" class="node">
<title>10</title>
<path fill="none" stroke="#d6d856" stroke-width="2" d="M1075.5,-396C1075.5,-396 984.5,-396 984.5,-396 978.5,-396 972.5,-390 972.5,-384 972.5,-384 972.5,-372 972.5,-372 972.5,-366 978.5,-360 984.5,-360 984.5,-360 1075.5,-360 1075.5,-360 1081.5,-360 1087.5,-366 1087.5,-372 1087.5,-372 1087.5,-384 1087.5,-384 1087.5,-390 1081.5,-396 1075.5,-396"/>
<text text-anchor="middle" x="1030" y="-375.5" font-family="sans" font-size="10.00">avg_antibody_escape</text>
</g>
<!-- 10&#45;&gt;0 -->
<g id="edge2" class="edge">
<title>10&#45;&gt;0</title>
<path fill="none" stroke="grey" stroke-width="2" d="M1048.39,-359.68C1072.11,-336.68 1113.67,-294.05 1142,-252 1188.92,-182.35 1227.97,-90.54 1245.72,-45.81"/>
<polygon fill="grey" stroke="grey" stroke-width="2" points="1249.08,-46.83 1249.48,-36.25 1242.57,-44.28 1249.08,-46.83"/>
</g>
<!-- 10&#45;&gt;16 -->
<g id="edge35" class="edge">
<title>10&#45;&gt;16</title>
<path fill="none" stroke="grey" stroke-width="2" d="M1018.5,-359.97C986,-311.8 893.26,-174.37 854.43,-116.83"/>
<polygon fill="grey" stroke="grey" stroke-width="2" points="857.17,-114.64 848.68,-108.31 851.37,-118.55 857.17,-114.64"/>
</g>
<!-- 10&#45;&gt;20 -->
<g id="edge54" class="edge">
<title>10&#45;&gt;20</title>
<path fill="none" stroke="grey" stroke-width="2" d="M972.28,-367.37C956.92,-364.89 940.34,-362.28 925,-360 800.54,-341.54 653.48,-322.42 579.53,-313"/>
<polygon fill="grey" stroke="grey" stroke-width="2" points="579.52,-309.47 569.16,-311.68 578.64,-316.41 579.52,-309.47"/>
</g>
<!-- 22 -->
<g id="node23" class="node">
<title>22</title>
<path fill="none" stroke="#566bd8" stroke-width="2" d="M1101.5,-252C1101.5,-252 972.5,-252 972.5,-252 966.5,-252 960.5,-246 960.5,-240 960.5,-240 960.5,-228 960.5,-228 960.5,-222 966.5,-216 972.5,-216 972.5,-216 1101.5,-216 1101.5,-216 1107.5,-216 1113.5,-222 1113.5,-228 1113.5,-228 1113.5,-240 1113.5,-240 1113.5,-246 1107.5,-252 1101.5,-252"/>
<text text-anchor="middle" x="1037" y="-231.5" font-family="sans" font-size="10.00">format_antibody_escape_plot</text>
</g>
<!-- 10&#45;&gt;22 -->
<g id="edge63" class="edge">
<title>10&#45;&gt;22</title>
<path fill="none" stroke="grey" stroke-width="2" d="M1030.84,-359.87C1032.04,-335.67 1034.23,-291.21 1035.65,-262.39"/>
<polygon fill="grey" stroke="grey" stroke-width="2" points="1039.16,-262.35 1036.15,-252.19 1032.16,-262 1039.16,-262.35"/>
</g>
<!-- 10&#45;&gt;23 -->
<g id="edge66" class="edge">
<title>10&#45;&gt;23</title>
<path fill="none" stroke="grey" stroke-width="2" d="M982.8,-359.91C958.88,-350.53 929.73,-337.97 905,-324 833.78,-283.78 827.39,-255.92 756,-216 728.94,-200.87 696.68,-187.54 671.32,-178.03"/>
<polygon fill="grey" stroke="grey" stroke-width="2" points="672.21,-174.63 661.61,-174.45 669.78,-181.2 672.21,-174.63"/>
</g>
<!-- 11 -->
<g id="node12" class="node">
<title>11</title>
<path fill="none" stroke="#c6d856" stroke-width="2" d="M339.5,-468C339.5,-468 274.5,-468 274.5,-468 268.5,-468 262.5,-462 262.5,-456 262.5,-456 262.5,-444 262.5,-444 262.5,-438 268.5,-432 274.5,-432 274.5,-432 339.5,-432 339.5,-432 345.5,-432 351.5,-438 351.5,-444 351.5,-444 351.5,-456 351.5,-456 351.5,-462 345.5,-468 339.5,-468"/>
<text text-anchor="middle" x="307" y="-447.5" font-family="sans" font-size="10.00">avg_muteffects</text>
</g>
<!-- 11&#45;&gt;0 -->
<g id="edge3" class="edge">
<title>11&#45;&gt;0</title>
<path fill="none" stroke="grey" stroke-width="2" d="M282.74,-431.85C269.87,-422.13 254.23,-409.28 242,-396 189.37,-338.88 166.04,-326.17 143,-252 128.36,-204.85 130.29,-174.65 169,-144 253.23,-77.3 1037.57,-30.86 1218.77,-20.97"/>
<polygon fill="grey" stroke="grey" stroke-width="2" points="1219.07,-24.46 1228.87,-20.42 1218.69,-17.47 1219.07,-24.46"/>
</g>
<!-- 11&#45;&gt;10 -->
<g id="edge21" class="edge">
<title>11&#45;&gt;10</title>
<path fill="none" stroke="grey" stroke-width="2" d="M351.71,-446.32C453.65,-439.96 710.99,-422.46 925,-396 937.03,-394.51 949.79,-392.67 962.12,-390.75"/>
<polygon fill="grey" stroke="grey" stroke-width="2" points="963.02,-394.16 972.34,-389.13 961.92,-387.24 963.02,-394.16"/>
</g>
<!-- 11&#45;&gt;16 -->
<g id="edge41" class="edge">
<title>11&#45;&gt;16</title>
<path fill="none" stroke="grey" stroke-width="2" d="M293.49,-431.84C268.69,-399.14 216.76,-324.66 198,-252 184.68,-200.42 203.71,-170.36 250,-144 341.69,-91.78 666.62,-89.3 789.48,-90.31"/>
<polygon fill="grey" stroke="grey" stroke-width="2" points="789.66,-93.81 799.7,-90.41 789.73,-86.81 789.66,-93.81"/>
</g>
<!-- 11&#45;&gt;20 -->
<g id="edge58" class="edge">
<title>11&#45;&gt;20</title>
<path fill="none" stroke="grey" stroke-width="2" d="M322.03,-432C339.97,-412.52 371.62,-380.64 404,-360 429.16,-343.96 459.98,-331.03 485.08,-321.95"/>
<polygon fill="grey" stroke="grey" stroke-width="2" points="486.48,-325.17 494.75,-318.54 484.15,-318.56 486.48,-325.17"/>
</g>
<!-- 11&#45;&gt;23 -->
<g id="edge72" class="edge">
<title>11&#45;&gt;23</title>
<path fill="none" stroke="grey" stroke-width="2" d="M307.39,-431.76C308.6,-412.64 312.96,-381.64 328,-360 334.17,-351.12 481.17,-258.25 490,-252 511.77,-236.6 515.81,-230.79 538,-216 554.02,-205.32 572.23,-194.39 588.06,-185.24"/>
<polygon fill="grey" stroke="grey" stroke-width="2" points="590.13,-188.09 597.07,-180.08 586.65,-182.02 590.13,-188.09"/>
</g>
<!-- 12 -->
<g id="node13" class="node">
<title>12</title>
<path fill="none" stroke="#d88556" stroke-width="2" d="M416,-540C416,-540 342,-540 342,-540 336,-540 330,-534 330,-528 330,-528 330,-516 330,-516 330,-510 336,-504 342,-504 342,-504 416,-504 416,-504 422,-504 428,-510 428,-516 428,-516 428,-528 428,-528 428,-534 422,-540 416,-540"/>
<text text-anchor="middle" x="379" y="-519.5" font-family="sans" font-size="10.00">fit_globalepistasis</text>
</g>
<!-- 12&#45;&gt;11 -->
<g id="edge22" class="edge">
<title>12&#45;&gt;11</title>
<path fill="none" stroke="grey" stroke-width="2" d="M361.2,-503.7C352.4,-495.14 341.62,-484.66 332,-475.3"/>
<polygon fill="grey" stroke="grey" stroke-width="2" points="334.2,-472.57 324.59,-468.1 329.32,-477.58 334.2,-472.57"/>
</g>
<!-- 12&#45;&gt;16 -->
<g id="edge39" class="edge">
<title>12&#45;&gt;16</title>
<path fill="none" stroke="grey" stroke-width="2" d="M329.83,-510.86C303.78,-503.14 273.1,-489.98 253,-468 154.7,-360.54 95.59,-241.24 204,-144 247.31,-105.16 649.26,-94.34 789.22,-91.74"/>
<polygon fill="grey" stroke="grey" stroke-width="2" points="789.68,-95.23 799.61,-91.55 789.55,-88.23 789.68,-95.23"/>
</g>
<!-- 12&#45;&gt;20 -->
<g id="edge56" class="edge">
<title>12&#45;&gt;20</title>
<path fill="none" stroke="grey" stroke-width="2" d="M384.1,-503.99C395.31,-467.41 422.63,-382.73 442,-360 453.8,-346.16 470.17,-335.02 485.72,-326.6"/>
<polygon fill="grey" stroke="grey" stroke-width="2" points="487.45,-329.65 494.74,-321.96 484.24,-323.43 487.45,-329.65"/>
</g>
<!-- 12&#45;&gt;23 -->
<g id="edge70" class="edge">
<title>12&#45;&gt;23</title>
<path fill="none" stroke="grey" stroke-width="2" d="M380.11,-503.76C382.78,-472.86 391.62,-406.88 420,-360 455.15,-301.93 477.57,-297.45 528,-252 545.28,-236.43 548.71,-231.56 566,-216 576.82,-206.26 588.95,-195.8 599.59,-186.76"/>
<polygon fill="grey" stroke="grey" stroke-width="2" points="602.01,-189.3 607.39,-180.17 597.49,-183.95 602.01,-189.3"/>
</g>
<!-- 13&#45;&gt;12 -->
<g id="edge23" class="edge">
<title>13&#45;&gt;12</title>
<path fill="none" stroke="grey" stroke-width="2" d="M657.29,-585.04C603.88,-573.13 502.61,-550.56 438.08,-536.17"/>
<polygon fill="grey" stroke="grey" stroke-width="2" points="438.58,-532.7 428.05,-533.94 437.05,-539.53 438.58,-532.7"/>
</g>
<!-- 17 -->
<g id="node18" class="node">
<title>17</title>
<path fill="none" stroke="#d89556" stroke-width="2" d="M734,-396C734,-396 648,-396 648,-396 642,-396 636,-390 636,-384 636,-384 636,-372 636,-372 636,-366 642,-360 648,-360 648,-360 734,-360 734,-360 740,-360 746,-366 746,-372 746,-372 746,-384 746,-384 746,-390 740,-396 734,-396"/>
<text text-anchor="middle" x="691" y="-375.5" font-family="sans" font-size="10.00">analyze_func_scores</text>
</g>
<!-- 13&#45;&gt;17 -->
<g id="edge50" class="edge">
<title>13&#45;&gt;17</title>
<path fill="none" stroke="grey" stroke-width="2" d="M692.84,-575.85C692.49,-538.83 691.67,-451.18 691.26,-406.39"/>
<polygon fill="grey" stroke="grey" stroke-width="2" points="694.75,-406.2 691.16,-396.23 687.75,-406.26 694.75,-406.2"/>
</g>
<!-- 14 -->
<g id="node15" class="node">
<title>14</title>
<path fill="none" stroke="#56a9d8" stroke-width="2" d="M970.5,-468C970.5,-468 917.5,-468 917.5,-468 911.5,-468 905.5,-462 905.5,-456 905.5,-456 905.5,-444 905.5,-444 905.5,-438 911.5,-432 917.5,-432 917.5,-432 970.5,-432 970.5,-432 976.5,-432 982.5,-438 982.5,-444 982.5,-444 982.5,-456 982.5,-456 982.5,-462 976.5,-468 970.5,-468"/>
<text text-anchor="middle" x="944" y="-447.5" font-family="sans" font-size="10.00">fit_polyclonal</text>
</g>
<!-- 14&#45;&gt;10 -->
<g id="edge20" class="edge">
<title>14&#45;&gt;10</title>
<path fill="none" stroke="grey" stroke-width="2" d="M965.26,-431.7C976.09,-422.88 989.42,-412.03 1001.16,-402.47"/>
<polygon fill="grey" stroke="grey" stroke-width="2" points="1003.44,-405.13 1008.99,-396.1 999.02,-399.7 1003.44,-405.13"/>
</g>
<!-- 14&#45;&gt;16 -->
<g id="edge34" class="edge">
<title>14&#45;&gt;16</title>
<path fill="none" stroke="grey" stroke-width="2" d="M982.82,-445.31C1017.3,-440.03 1066.76,-427.18 1097,-396 1154.41,-336.81 1171.31,-293.08 1142,-216 1104.17,-116.51 960.3,-95.6 884.46,-91.61"/>
<polygon fill="grey" stroke="grey" stroke-width="2" points="884.37,-88.1 874.22,-91.15 884.06,-95.1 884.37,-88.1"/>
</g>
<!-- 14&#45;&gt;20 -->
<g id="edge53" class="edge">
<title>14&#45;&gt;20</title>
<path fill="none" stroke="grey" stroke-width="2" d="M905.48,-445.37C832.14,-438.01 675.45,-419.96 627,-396 618.69,-391.89 582.03,-356.51 556.76,-331.62"/>
<polygon fill="grey" stroke="grey" stroke-width="2" points="558.9,-328.81 549.32,-324.27 553.98,-333.79 558.9,-328.81"/>
</g>
<!-- 14&#45;&gt;23 -->
<g id="edge65" class="edge">
<title>14&#45;&gt;23</title>
<path fill="none" stroke="grey" stroke-width="2" d="M944.64,-431.71C944.47,-412.26 941.37,-380.69 925,-360 901.81,-330.69 880.85,-343.55 849,-324 804.45,-296.65 796.9,-284.55 756,-252 736.23,-236.26 732.5,-230.77 712,-216 697.29,-205.4 680.48,-194.56 665.79,-185.47"/>
<polygon fill="grey" stroke="grey" stroke-width="2" points="667.31,-182.3 656.96,-180.06 663.65,-188.27 667.31,-182.3"/>
</g>
<!-- 15&#45;&gt;14 -->
<g id="edge28" class="edge">
<title>15&#45;&gt;14</title>
<path fill="none" stroke="grey" stroke-width="2" d="M885.96,-575.87C897.36,-551.35 918.42,-506.03 931.8,-477.26"/>
<polygon fill="grey" stroke="grey" stroke-width="2" points="934.97,-478.73 936.01,-468.19 928.62,-475.78 934.97,-478.73"/>
</g>
<!-- 18 -->
<g id="node19" class="node">
<title>18</title>
<path fill="none" stroke="#56d86b" stroke-width="2" d="M904,-396C904,-396 814,-396 814,-396 808,-396 802,-390 802,-384 802,-384 802,-372 802,-372 802,-366 808,-360 814,-360 814,-360 904,-360 904,-360 910,-360 916,-366 916,-372 916,-372 916,-384 916,-384 916,-390 910,-396 904,-396"/>
<text text-anchor="middle" x="859" y="-375.5" font-family="sans" font-size="10.00">analyze_prob_escape</text>
</g>
<!-- 15&#45;&gt;18 -->
<g id="edge51" class="edge">
<title>15&#45;&gt;18</title>
<path fill="none" stroke="grey" stroke-width="2" d="M876.48,-575.85C873.19,-538.83 865.41,-451.18 861.43,-406.39"/>
<polygon fill="grey" stroke="grey" stroke-width="2" points="864.9,-405.88 860.53,-396.23 857.93,-406.5 864.9,-405.88"/>
</g>
<!-- 16&#45;&gt;0 -->
<g id="edge5" class="edge">
<title>16&#45;&gt;0</title>
<path fill="none" stroke="grey" stroke-width="2" d="M874.18,-82.79C953.63,-69.51 1139.17,-38.52 1218.71,-25.23"/>
<polygon fill="grey" stroke="grey" stroke-width="2" points="1219.48,-28.65 1228.77,-23.55 1218.33,-21.75 1219.48,-28.65"/>
</g>
<!-- 17&#45;&gt;16 -->
<g id="edge42" class="edge">
<title>17&#45;&gt;16</title>
<path fill="none" stroke="grey" stroke-width="2" d="M699.7,-359.97C724.19,-311.99 793.87,-175.5 823.45,-117.54"/>
<polygon fill="grey" stroke="grey" stroke-width="2" points="826.74,-118.8 828.17,-108.31 820.5,-115.62 826.74,-118.8"/>
</g>
<!-- 17&#45;&gt;20 -->
<g id="edge57" class="edge">
<title>17&#45;&gt;20</title>
<path fill="none" stroke="grey" stroke-width="2" d="M652.1,-359.88C629.88,-350.09 601.88,-337.76 578.5,-327.47"/>
<polygon fill="grey" stroke="grey" stroke-width="2" points="579.69,-324.17 569.13,-323.35 576.87,-330.58 579.69,-324.17"/>
</g>
<!-- 17&#45;&gt;23 -->
<g id="edge73" class="edge">
<title>17&#45;&gt;23</title>
<path fill="none" stroke="grey" stroke-width="2" d="M685.36,-359.67C677.58,-335.6 663.23,-290.64 652,-252 646.01,-231.38 639.7,-207.93 635.06,-190.28"/>
<polygon fill="grey" stroke="grey" stroke-width="2" points="638.32,-188.91 632.4,-180.12 631.55,-190.68 638.32,-188.91"/>
</g>
<!-- 18&#45;&gt;16 -->
<g id="edge36" class="edge">
<title>18&#45;&gt;16</title>
<path fill="none" stroke="grey" stroke-width="2" d="M916.31,-366.91C1009.53,-347.82 1178.33,-300.57 1123,-216 1069.85,-134.76 951.01,-106.01 884.46,-96.07"/>
<polygon fill="grey" stroke="grey" stroke-width="2" points="884.64,-92.56 874.25,-94.63 883.66,-99.49 884.64,-92.56"/>
</g>
<!-- 18&#45;&gt;20 -->
<g id="edge55" class="edge">
<title>18&#45;&gt;20</title>
<path fill="none" stroke="grey" stroke-width="2" d="M801.67,-364.73C738.6,-351.23 638.39,-329.78 579.53,-317.17"/>
<polygon fill="grey" stroke="grey" stroke-width="2" points="579.9,-313.67 569.39,-315 578.44,-320.52 579.9,-313.67"/>
</g>
<!-- 18&#45;&gt;23 -->
<g id="edge67" class="edge">
<title>18&#45;&gt;23</title>
<path fill="none" stroke="grey" stroke-width="2" d="M835.8,-359.98C822.4,-349.89 805.4,-336.64 791,-324 763.26,-299.64 690.05,-225.96 651.89,-187.29"/>
<polygon fill="grey" stroke="grey" stroke-width="2" points="654.27,-184.71 644.75,-180.05 649.28,-189.62 654.27,-184.71"/>
</g>
<!-- 19 -->
<g id="node20" class="node">
<title>19</title>
<path fill="none" stroke="#56c1d8" stroke-width="2" d="M436,-252C436,-252 402,-252 402,-252 396,-252 390,-246 390,-240 390,-240 390,-228 390,-228 390,-222 396,-216 402,-216 402,-216 436,-216 436,-216 442,-216 448,-222 448,-228 448,-228 448,-240 448,-240 448,-246 442,-252 436,-252"/>
<text text-anchor="middle" x="419" y="-231.5" font-family="sans" font-size="10.00">subindex</text>
</g>
<!-- 19&#45;&gt;16 -->
<g id="edge49" class="edge">
<title>19&#45;&gt;16</title>
<path fill="none" stroke="grey" stroke-width="2" d="M445.21,-215.89C477.04,-195.85 532.93,-162.99 585,-144 653.96,-118.85 738.12,-104.16 789.62,-96.86"/>
<polygon fill="grey" stroke="grey" stroke-width="2" points="790.36,-100.29 799.78,-95.45 789.4,-93.35 790.36,-100.29"/>
</g>
<!-- 19&#45;&gt;23 -->
<g id="edge79" class="edge">
<title>19&#45;&gt;23</title>
<path fill="none" stroke="grey" stroke-width="2" d="M448.04,-221.21C452.69,-219.41 457.46,-217.62 462,-216 503.19,-201.3 550.78,-186.31 584.42,-176.03"/>
<polygon fill="grey" stroke="grey" stroke-width="2" points="585.84,-179.26 594.39,-173 583.81,-172.56 585.84,-179.26"/>
</g>
<!-- 20&#45;&gt;16 -->
<g id="edge37" class="edge">
<title>20&#45;&gt;16</title>
<path fill="none" stroke="grey" stroke-width="2" d="M494.8,-304.66C417.85,-303.09 245.33,-294.77 209,-252 198.64,-239.8 199.99,-229.22 209,-216 274.72,-119.52 655.31,-97.21 789.88,-92.31"/>
<polygon fill="grey" stroke="grey" stroke-width="2" points="790.01,-95.81 799.88,-91.96 789.77,-88.81 790.01,-95.81"/>
</g>
<!-- 20&#45;&gt;19 -->
<g id="edge52" class="edge">
<title>20&#45;&gt;19</title>
<path fill="none" stroke="grey" stroke-width="2" d="M504.36,-287.88C489.58,-278.72 471.21,-267.34 455.3,-257.48"/>
<polygon fill="grey" stroke="grey" stroke-width="2" points="457.09,-254.48 446.75,-252.19 453.41,-260.43 457.09,-254.48"/>
</g>
<!-- 20&#45;&gt;23 -->
<g id="edge68" class="edge">
<title>20&#45;&gt;23</title>
<path fill="none" stroke="grey" stroke-width="2" d="M543.58,-287.87C560.3,-263.14 591.33,-217.24 610.75,-188.51"/>
<polygon fill="grey" stroke="grey" stroke-width="2" points="613.68,-190.43 616.38,-180.19 607.88,-186.51 613.68,-190.43"/>
</g>
<!-- 21 -->
<g id="node22" class="node">
<title>21</title>
<path fill="none" stroke="#56d882" stroke-width="2" d="M284,-252C284,-252 230,-252 230,-252 224,-252 218,-246 218,-240 218,-240 218,-228 218,-228 218,-222 224,-216 230,-216 230,-216 284,-216 284,-216 290,-216 296,-222 296,-228 296,-228 296,-240 296,-240 296,-246 290,-252 284,-252"/>
<text text-anchor="middle" x="257" y="-231.5" font-family="sans" font-size="10.00">make_graphs</text>
</g>
<!-- 21&#45;&gt;16 -->
<g id="edge38" class="edge">
<title>21&#45;&gt;16</title>
<path fill="none" stroke="grey" stroke-width="2" d="M296.4,-216.35C344.9,-196.47 430.18,-163.44 506,-144 605.32,-118.53 724.72,-103.01 789.51,-95.82"/>
<polygon fill="grey" stroke="grey" stroke-width="2" points="790.25,-99.26 799.81,-94.69 789.49,-92.3 790.25,-99.26"/>
</g>
<!-- 21&#45;&gt;23 -->
<g id="edge69" class="edge">
<title>21&#45;&gt;23</title>
<path fill="none" stroke="grey" stroke-width="2" d="M296.18,-219.73C300.81,-218.37 305.49,-217.09 310,-216 406.67,-192.57 522.38,-176.13 584.1,-168.26"/>
<polygon fill="grey" stroke="grey" stroke-width="2" points="584.77,-171.71 594.25,-166.99 583.9,-164.76 584.77,-171.71"/>
</g>
<!-- 22&#45;&gt;16 -->
<g id="edge46" class="edge">
<title>22&#45;&gt;16</title>
<path fill="none" stroke="grey" stroke-width="2" d="M1012.88,-215.87C977.06,-190.44 909.75,-142.65 869.59,-114.14"/>
<polygon fill="grey" stroke="grey" stroke-width="2" points="871.39,-111.12 861.21,-108.19 867.34,-116.83 871.39,-111.12"/>
</g>
<!-- 22&#45;&gt;23 -->
<g id="edge76" class="edge">
<title>22&#45;&gt;23</title>
<path fill="none" stroke="grey" stroke-width="2" d="M960.07,-218.52C955.31,-217.66 950.59,-216.81 946,-216 848.31,-198.74 733.45,-179.97 672.03,-170.06"/>
<polygon fill="grey" stroke="grey" stroke-width="2" points="672.35,-166.57 661.92,-168.43 671.24,-173.48 672.35,-166.57"/>
</g>
<!-- 23&#45;&gt;16 -->
<g id="edge45" class="edge">
<title>23&#45;&gt;16</title>
<path fill="none" stroke="grey" stroke-width="2" d="M661.58,-149.75C696.47,-138.07 751.33,-119.69 790.41,-106.6"/>
<polygon fill="grey" stroke="grey" stroke-width="2" points="791.61,-109.89 799.98,-103.4 789.39,-103.26 791.61,-109.89"/>
</g>
</g>
</svg>
