<?xml version="1.0" encoding="UTF-8" standalone="no"?>
<!DOCTYPE svg PUBLIC "-//W3C//DTD SVG 1.1//EN"
 "http://www.w3.org/Graphics/SVG/1.1/DTD/svg11.dtd">
<!-- Generated by graphviz version 3.0.0 (20220315.2325)
 -->
<!-- Title: snakemake_dag Pages: 1 -->
<svg width="1256pt" height="1052pt"
 viewBox="0.00 0.00 1256.00 1052.00" xmlns="http://www.w3.org/2000/svg" xmlns:xlink="http://www.w3.org/1999/xlink">
<g id="graph0" class="graph" transform="scale(1 1) rotate(0) translate(4 1048)">
<title>snakemake_dag</title>
<polygon fill="white" stroke="transparent" points="-4,4 -4,-1048 1252,-1048 1252,4 -4,4"/>
<!-- 0 -->
<g id="node1" class="node">
<title>0</title>
<path fill="none" stroke="#d86e56" stroke-width="2" d="M1054,-36C1054,-36 1024,-36 1024,-36 1018,-36 1012,-30 1012,-24 1012,-24 1012,-12 1012,-12 1012,-6 1018,0 1024,0 1024,0 1054,0 1054,0 1060,0 1066,-6 1066,-12 1066,-12 1066,-24 1066,-24 1066,-30 1060,-36 1054,-36"/>
<text text-anchor="middle" x="1039" y="-15.5" font-family="sans" font-size="10.00">all</text>
</g>
<!-- 1 -->
<g id="node2" class="node">
<title>1</title>
<path fill="none" stroke="#d85656" stroke-width="2" d="M784,-684C784,-684 724,-684 724,-684 718,-684 712,-678 712,-672 712,-672 712,-660 712,-660 712,-654 718,-648 724,-648 724,-648 784,-648 784,-648 790,-648 796,-654 796,-660 796,-660 796,-672 796,-672 796,-678 790,-684 784,-684"/>
<text text-anchor="middle" x="754" y="-663.5" font-family="sans" font-size="10.00">variant_counts</text>
</g>
<!-- 1&#45;&gt;0 -->
<g id="edge1" class="edge">
<title>1&#45;&gt;0</title>
<path fill="none" stroke="grey" stroke-width="2" d="M796.01,-661.21C869.19,-652.5 1020.91,-624.76 1112,-540 1161.1,-494.32 1248,-373.29 1248,-235 1248,-235 1248,-235 1248,-161 1248,-78.89 1136.28,-40.94 1076.2,-26.47"/>
<polygon fill="grey" stroke="grey" stroke-width="2" points="1076.85,-23.03 1066.32,-24.19 1075.28,-29.85 1076.85,-23.03"/>
</g>
<!-- 9 -->
<g id="node10" class="node">
<title>9</title>
<path fill="none" stroke="#d6d856" stroke-width="2" d="M910.5,-612C910.5,-612 811.5,-612 811.5,-612 805.5,-612 799.5,-606 799.5,-600 799.5,-600 799.5,-588 799.5,-588 799.5,-582 805.5,-576 811.5,-576 811.5,-576 910.5,-576 910.5,-576 916.5,-576 922.5,-582 922.5,-588 922.5,-588 922.5,-600 922.5,-600 922.5,-606 916.5,-612 910.5,-612"/>
<text text-anchor="middle" x="861" y="-591.5" font-family="sans" font-size="10.00">analyze_variant_counts</text>
</g>
<!-- 1&#45;&gt;9 -->
<g id="edge17" class="edge">
<title>1&#45;&gt;9</title>
<path fill="none" stroke="grey" stroke-width="2" d="M780.18,-647.88C794.04,-638.81 811.24,-627.55 826.21,-617.76"/>
<polygon fill="grey" stroke="grey" stroke-width="2" points="828.27,-620.59 834.72,-612.19 824.44,-614.74 828.27,-620.59"/>
</g>
<!-- 10 -->
<g id="node11" class="node">
<title>10</title>
<path fill="none" stroke="#d8bc56" stroke-width="2" d="M344.5,-468C344.5,-468 293.5,-468 293.5,-468 287.5,-468 281.5,-462 281.5,-456 281.5,-456 281.5,-444 281.5,-444 281.5,-438 287.5,-432 293.5,-432 293.5,-432 344.5,-432 344.5,-432 350.5,-432 356.5,-438 356.5,-444 356.5,-444 356.5,-456 356.5,-456 356.5,-462 350.5,-468 344.5,-468"/>
<text text-anchor="middle" x="319" y="-447.5" font-family="sans" font-size="10.00">prob_escape</text>
</g>
<!-- 1&#45;&gt;10 -->
<g id="edge24" class="edge">
<title>1&#45;&gt;10</title>
<path fill="none" stroke="grey" stroke-width="2" d="M719.14,-647.85C640.45,-609.14 449.23,-515.07 362.75,-472.52"/>
<polygon fill="grey" stroke="grey" stroke-width="2" points="364.24,-469.36 353.73,-468.08 361.15,-475.64 364.24,-469.36"/>
</g>
<!-- 12 -->
<g id="node13" class="node">
<title>12</title>
<path fill="none" stroke="#56d88a" stroke-width="2" d="M1007.5,-468C1007.5,-468 960.5,-468 960.5,-468 954.5,-468 948.5,-462 948.5,-456 948.5,-456 948.5,-444 948.5,-444 948.5,-438 954.5,-432 960.5,-432 960.5,-432 1007.5,-432 1007.5,-432 1013.5,-432 1019.5,-438 1019.5,-444 1019.5,-444 1019.5,-456 1019.5,-456 1019.5,-462 1013.5,-468 1007.5,-468"/>
<text text-anchor="middle" x="984" y="-447.5" font-family="sans" font-size="10.00">func_scores</text>
</g>
<!-- 1&#45;&gt;12 -->
<g id="edge29" class="edge">
<title>1&#45;&gt;12</title>
<path fill="none" stroke="grey" stroke-width="2" d="M759.18,-647.74C765.2,-629.15 776.24,-599.13 791,-576 814.35,-539.41 821.47,-528.94 857,-504 881.77,-486.61 913.13,-473.45 938.48,-464.6"/>
<polygon fill="grey" stroke="grey" stroke-width="2" points="939.88,-467.82 948.23,-461.3 937.64,-461.19 939.88,-467.82"/>
</g>
<!-- 13 -->
<g id="node14" class="node">
<title>13</title>
<path fill="none" stroke="#568ad8" stroke-width="2" d="M912,-108C912,-108 862,-108 862,-108 856,-108 850,-102 850,-96 850,-96 850,-84 850,-84 850,-78 856,-72 862,-72 862,-72 912,-72 912,-72 918,-72 924,-78 924,-84 924,-84 924,-96 924,-96 924,-102 918,-108 912,-108"/>
<text text-anchor="middle" x="887" y="-87.5" font-family="sans" font-size="10.00">sphinx_build</text>
</g>
<!-- 1&#45;&gt;13 -->
<g id="edge30" class="edge">
<title>1&#45;&gt;13</title>
<path fill="none" stroke="grey" stroke-width="2" d="M754.72,-647.77C755.93,-629.47 759.2,-599.93 768,-576 780.94,-540.8 786.46,-531.46 812,-504 868.2,-443.59 917.77,-465.01 963,-396 985.17,-362.17 982,-347.45 982,-307 982,-307 982,-307 982,-233 982,-185.01 944.06,-140.96 916.13,-115.04"/>
<polygon fill="grey" stroke="grey" stroke-width="2" points="918.33,-112.31 908.56,-108.22 913.65,-117.52 918.33,-112.31"/>
</g>
<!-- 19 -->
<g id="node20" class="node">
<title>19</title>
<path fill="none" stroke="#59d856" stroke-width="2" d="M527.5,-180C527.5,-180 484.5,-180 484.5,-180 478.5,-180 472.5,-174 472.5,-168 472.5,-168 472.5,-156 472.5,-156 472.5,-150 478.5,-144 484.5,-144 484.5,-144 527.5,-144 527.5,-144 533.5,-144 539.5,-150 539.5,-156 539.5,-156 539.5,-168 539.5,-168 539.5,-174 533.5,-180 527.5,-180"/>
<text text-anchor="middle" x="506" y="-159.5" font-family="sans" font-size="10.00">docs_index</text>
</g>
<!-- 1&#45;&gt;19 -->
<g id="edge55" class="edge">
<title>1&#45;&gt;19</title>
<path fill="none" stroke="grey" stroke-width="2" d="M734.65,-647.95C673.72,-594.07 489.05,-429.05 475,-396 445.18,-325.82 475.41,-233.95 493.91,-189.44"/>
<polygon fill="grey" stroke="grey" stroke-width="2" points="497.16,-190.76 497.88,-180.19 490.72,-188 497.16,-190.76"/>
</g>
<!-- 2 -->
<g id="node3" class="node">
<title>2</title>
<path fill="none" stroke="#70d856" stroke-width="2" d="M786.5,-756C786.5,-756 721.5,-756 721.5,-756 715.5,-756 709.5,-750 709.5,-744 709.5,-744 709.5,-732 709.5,-732 709.5,-726 715.5,-720 721.5,-720 721.5,-720 786.5,-720 786.5,-720 792.5,-720 798.5,-726 798.5,-732 798.5,-732 798.5,-744 798.5,-744 798.5,-750 792.5,-756 786.5,-756"/>
<text text-anchor="middle" x="754" y="-735.5" font-family="sans" font-size="10.00">count_barcodes</text>
</g>
<!-- 2&#45;&gt;1 -->
<g id="edge9" class="edge">
<title>2&#45;&gt;1</title>
<path fill="none" stroke="grey" stroke-width="2" d="M754,-719.7C754,-711.98 754,-702.71 754,-694.11"/>
<polygon fill="grey" stroke="grey" stroke-width="2" points="757.5,-694.1 754,-684.1 750.5,-694.1 757.5,-694.1"/>
</g>
<!-- 2&#45;&gt;9 -->
<g id="edge20" class="edge">
<title>2&#45;&gt;9</title>
<path fill="none" stroke="grey" stroke-width="2" d="M772.43,-719.68C782.58,-709.71 795.09,-696.67 805,-684 820.71,-663.92 835.95,-639.26 846.55,-621"/>
<polygon fill="grey" stroke="grey" stroke-width="2" points="849.72,-622.5 851.65,-612.09 843.64,-619.03 849.72,-622.5"/>
</g>
<!-- 3 -->
<g id="node4" class="node">
<title>3</title>
<path fill="none" stroke="#56d873" stroke-width="2" d="M755.5,-828C755.5,-828 666.5,-828 666.5,-828 660.5,-828 654.5,-822 654.5,-816 654.5,-816 654.5,-804 654.5,-804 654.5,-798 660.5,-792 666.5,-792 666.5,-792 755.5,-792 755.5,-792 761.5,-792 767.5,-798 767.5,-804 767.5,-804 767.5,-816 767.5,-816 767.5,-822 761.5,-828 755.5,-828"/>
<text text-anchor="middle" x="711" y="-807.5" font-family="sans" font-size="10.00">build_codon_variants</text>
</g>
<!-- 3&#45;&gt;1 -->
<g id="edge8" class="edge">
<title>3&#45;&gt;1</title>
<path fill="none" stroke="grey" stroke-width="2" d="M704.27,-791.91C698.09,-773.46 691.24,-743.56 701,-720 705.54,-709.03 713.59,-699.14 722.05,-690.96"/>
<polygon fill="grey" stroke="grey" stroke-width="2" points="724.44,-693.53 729.52,-684.23 719.75,-688.33 724.44,-693.53"/>
</g>
<!-- 3&#45;&gt;2 -->
<g id="edge10" class="edge">
<title>3&#45;&gt;2</title>
<path fill="none" stroke="grey" stroke-width="2" d="M721.63,-791.7C726.63,-783.56 732.69,-773.69 738.21,-764.7"/>
<polygon fill="grey" stroke="grey" stroke-width="2" points="741.24,-766.46 743.49,-756.1 735.28,-762.79 741.24,-766.46"/>
</g>
<!-- 3&#45;&gt;9 -->
<g id="edge19" class="edge">
<title>3&#45;&gt;9</title>
<path fill="none" stroke="grey" stroke-width="2" d="M758.47,-791.84C776.12,-783.4 794.98,-771.63 808,-756 840.62,-716.82 853.36,-656.93 858.19,-622.31"/>
<polygon fill="grey" stroke="grey" stroke-width="2" points="861.71,-622.38 859.5,-612.02 854.77,-621.5 861.71,-622.38"/>
</g>
<!-- 3&#45;&gt;10 -->
<g id="edge23" class="edge">
<title>3&#45;&gt;10</title>
<path fill="none" stroke="grey" stroke-width="2" d="M654.39,-807.15C607.51,-802.99 541.32,-790.78 495,-756 397.23,-682.59 344.8,-537.74 326.55,-477.87"/>
<polygon fill="grey" stroke="grey" stroke-width="2" points="329.83,-476.62 323.63,-468.04 323.12,-478.62 329.83,-476.62"/>
</g>
<!-- 3&#45;&gt;12 -->
<g id="edge28" class="edge">
<title>3&#45;&gt;12</title>
<path fill="none" stroke="grey" stroke-width="2" d="M762.34,-791.96C785.09,-783.12 811.51,-771 833,-756 941.77,-680.06 989.69,-663.15 1039,-540 1044.95,-525.15 1045.26,-518.72 1039,-504 1034.27,-492.86 1025.92,-482.93 1017.13,-474.76"/>
<polygon fill="grey" stroke="grey" stroke-width="2" points="1019.23,-471.95 1009.38,-468.05 1014.65,-477.24 1019.23,-471.95"/>
</g>
<!-- 3&#45;&gt;13 -->
<g id="edge43" class="edge">
<title>3&#45;&gt;13</title>
<path fill="none" stroke="grey" stroke-width="2" d="M767.51,-795.12C799.21,-786.19 838.91,-773.05 872,-756 1029.32,-674.93 1106.1,-640.19 1147,-468 1173.1,-358.1 1172.55,-312.6 1114,-216 1091.96,-179.64 1086.51,-167.38 1051,-144 1015.29,-120.49 968.35,-106.71 933.84,-99.13"/>
<polygon fill="grey" stroke="grey" stroke-width="2" points="934.51,-95.69 924.01,-97.06 933.07,-102.54 934.51,-95.69"/>
</g>
<!-- 17 -->
<g id="node18" class="node">
<title>17</title>
<path fill="none" stroke="#d8a456" stroke-width="2" d="M668,-324C668,-324 618,-324 618,-324 612,-324 606,-318 606,-312 606,-312 606,-300 606,-300 606,-294 612,-288 618,-288 618,-288 668,-288 668,-288 674,-288 680,-294 680,-300 680,-300 680,-312 680,-312 680,-318 674,-324 668,-324"/>
<text text-anchor="middle" x="643" y="-303.5" font-family="sans" font-size="10.00">make_nblink</text>
</g>
<!-- 3&#45;&gt;17 -->
<g id="edge53" class="edge">
<title>3&#45;&gt;17</title>
<path fill="none" stroke="grey" stroke-width="2" d="M703.27,-791.72C699.11,-781.54 694.36,-768.29 692,-756 658.78,-583.05 731.64,-527.74 678,-360 674.91,-350.33 669.52,-340.77 663.88,-332.48"/>
<polygon fill="grey" stroke="grey" stroke-width="2" points="666.7,-330.4 658,-324.35 661.03,-334.51 666.7,-330.4"/>
</g>
<!-- 3&#45;&gt;19 -->
<g id="edge67" class="edge">
<title>3&#45;&gt;19</title>
<path fill="none" stroke="grey" stroke-width="2" d="M654.46,-795.32C594.7,-777.09 509,-738.48 509,-667 509,-667 509,-667 509,-593 509,-502.88 473.6,-485.23 461,-396 454.28,-348.45 454.36,-335.88 458,-288 460.45,-255.72 456.98,-246.06 469,-216 472.84,-206.41 478.7,-196.87 484.63,-188.57"/>
<polygon fill="grey" stroke="grey" stroke-width="2" points="487.54,-190.53 490.76,-180.44 481.94,-186.32 487.54,-190.53"/>
</g>
<!-- 4 -->
<g id="node5" class="node">
<title>4</title>
<path fill="none" stroke="#56d8c1" stroke-width="2" d="M393,-900C393,-900 291,-900 291,-900 285,-900 279,-894 279,-888 279,-888 279,-876 279,-876 279,-870 285,-864 291,-864 291,-864 393,-864 393,-864 399,-864 405,-870 405,-876 405,-876 405,-888 405,-888 405,-894 399,-900 393,-900"/>
<text text-anchor="middle" x="342" y="-879.5" font-family="sans" font-size="10.00">build_pacbio_consensus</text>
</g>
<!-- 4&#45;&gt;3 -->
<g id="edge11" class="edge">
<title>4&#45;&gt;3</title>
<path fill="none" stroke="grey" stroke-width="2" d="M405.01,-869.05C471.58,-856.42 576.13,-836.58 644.13,-823.69"/>
<polygon fill="grey" stroke="grey" stroke-width="2" points="645.13,-827.06 654.3,-821.76 643.82,-820.18 645.13,-827.06"/>
</g>
<!-- 4&#45;&gt;13 -->
<g id="edge33" class="edge">
<title>4&#45;&gt;13</title>
<path fill="none" stroke="grey" stroke-width="2" d="M317.22,-863.72C264.93,-825.55 144.5,-728.15 100,-612 24.78,-415.67 -2.24,-265.98 169,-144 223.43,-105.23 688.03,-94.25 839.48,-91.68"/>
<polygon fill="grey" stroke="grey" stroke-width="2" points="839.89,-95.18 849.83,-91.51 839.78,-88.18 839.89,-95.18"/>
</g>
<!-- 4&#45;&gt;17 -->
<g id="edge49" class="edge">
<title>4&#45;&gt;17</title>
<path fill="none" stroke="grey" stroke-width="2" d="M349.26,-863.64C362.03,-833.65 389.94,-770.48 419,-720 505.97,-568.94 585.81,-561.67 640,-396 646.52,-376.07 646.97,-352.28 645.96,-334.31"/>
<polygon fill="grey" stroke="grey" stroke-width="2" points="649.44,-333.93 645.2,-324.22 642.46,-334.45 649.44,-333.93"/>
</g>
<!-- 4&#45;&gt;19 -->
<g id="edge58" class="edge">
<title>4&#45;&gt;19</title>
<path fill="none" stroke="grey" stroke-width="2" d="M332.4,-863.83C296.91,-798.16 177.69,-556.77 227,-360 244.64,-289.6 247.03,-260.96 304,-216 349.84,-179.82 417.98,-168.18 462.19,-164.53"/>
<polygon fill="grey" stroke="grey" stroke-width="2" points="462.62,-168.01 472.34,-163.8 462.12,-161.03 462.62,-168.01"/>
</g>
<!-- 5 -->
<g id="node6" class="node">
<title>5</title>
<path fill="none" stroke="#56c1d8" stroke-width="2" d="M223,-972C223,-972 143,-972 143,-972 137,-972 131,-966 131,-960 131,-960 131,-948 131,-948 131,-942 137,-936 143,-936 143,-936 223,-936 223,-936 229,-936 235,-942 235,-948 235,-948 235,-960 235,-960 235,-966 229,-972 223,-972"/>
<text text-anchor="middle" x="183" y="-951.5" font-family="sans" font-size="10.00">analyze_pacbio_ccs</text>
</g>
<!-- 5&#45;&gt;4 -->
<g id="edge14" class="edge">
<title>5&#45;&gt;4</title>
<path fill="none" stroke="grey" stroke-width="2" d="M221.9,-935.88C243.63,-926.31 270.9,-914.3 293.96,-904.15"/>
<polygon fill="grey" stroke="grey" stroke-width="2" points="295.49,-907.3 303.23,-900.07 292.67,-900.89 295.49,-907.3"/>
</g>
<!-- 5&#45;&gt;13 -->
<g id="edge39" class="edge">
<title>5&#45;&gt;13</title>
<path fill="none" stroke="grey" stroke-width="2" d="M130.56,-937.26C76.48,-917.4 0,-877.55 0,-811 0,-811 0,-811 0,-233 0,-165.88 58.95,-167 122,-144 254.85,-95.55 694,-91.01 839.62,-90.87"/>
<polygon fill="grey" stroke="grey" stroke-width="2" points="839.99,-94.37 849.99,-90.87 839.99,-87.37 839.99,-94.37"/>
</g>
<!-- 5&#45;&gt;17 -->
<g id="edge51" class="edge">
<title>5&#45;&gt;17</title>
<path fill="none" stroke="grey" stroke-width="2" d="M196.95,-935.97C262.47,-855.8 539.29,-514.95 607,-396 618.36,-376.05 627.91,-351.8 634.32,-333.66"/>
<polygon fill="grey" stroke="grey" stroke-width="2" points="637.69,-334.61 637.63,-324.02 631.07,-332.34 637.69,-334.61"/>
</g>
<!-- 5&#45;&gt;19 -->
<g id="edge63" class="edge">
<title>5&#45;&gt;19</title>
<path fill="none" stroke="grey" stroke-width="2" d="M168.37,-935.93C148.11,-910.5 114,-860.34 114,-811 114,-811 114,-811 114,-449 114,-326.08 162.13,-286.24 263,-216 323,-174.22 409.95,-164.52 461.94,-162.74"/>
<polygon fill="grey" stroke="grey" stroke-width="2" points="462.26,-166.24 472.16,-162.48 462.08,-159.24 462.26,-166.24"/>
</g>
<!-- 6 -->
<g id="node7" class="node">
<title>6</title>
<path fill="none" stroke="#88d856" stroke-width="2" d="M232,-1044C232,-1044 134,-1044 134,-1044 128,-1044 122,-1038 122,-1032 122,-1032 122,-1020 122,-1020 122,-1014 128,-1008 134,-1008 134,-1008 232,-1008 232,-1008 238,-1008 244,-1014 244,-1020 244,-1020 244,-1032 244,-1032 244,-1038 238,-1044 232,-1044"/>
<text text-anchor="middle" x="183" y="-1023.5" font-family="sans" font-size="10.00">align_parse_PacBio_ccs</text>
</g>
<!-- 6&#45;&gt;5 -->
<g id="edge15" class="edge">
<title>6&#45;&gt;5</title>
<path fill="none" stroke="grey" stroke-width="2" d="M183,-1007.7C183,-999.98 183,-990.71 183,-982.11"/>
<polygon fill="grey" stroke="grey" stroke-width="2" points="186.5,-982.1 183,-972.1 179.5,-982.1 186.5,-982.1"/>
</g>
<!-- 7 -->
<g id="node8" class="node">
<title>7</title>
<path fill="none" stroke="#56d8d8" stroke-width="2" d="M831,-972C831,-972 765,-972 765,-972 759,-972 753,-966 753,-960 753,-960 753,-948 753,-948 753,-942 759,-936 765,-936 765,-936 831,-936 831,-936 837,-936 843,-942 843,-948 843,-948 843,-960 843,-960 843,-966 837,-972 831,-972"/>
<text text-anchor="middle" x="798" y="-951.5" font-family="sans" font-size="10.00">gene_sequence</text>
</g>
<!-- 7&#45;&gt;1 -->
<g id="edge7" class="edge">
<title>7&#45;&gt;1</title>
<path fill="none" stroke="grey" stroke-width="2" d="M803.55,-935.75C815.37,-895.88 839.49,-795.04 808,-720 803.36,-708.95 795.17,-699.04 786.54,-690.86"/>
<polygon fill="grey" stroke="grey" stroke-width="2" points="788.74,-688.14 778.93,-684.14 784.11,-693.38 788.74,-688.14"/>
</g>
<!-- 7&#45;&gt;3 -->
<g id="edge12" class="edge">
<title>7&#45;&gt;3</title>
<path fill="none" stroke="grey" stroke-width="2" d="M787.51,-935.87C772.42,-911.24 744.48,-865.64 726.86,-836.88"/>
<polygon fill="grey" stroke="grey" stroke-width="2" points="729.74,-834.89 721.53,-828.19 723.77,-838.54 729.74,-834.89"/>
</g>
<!-- 7&#45;&gt;4 -->
<g id="edge13" class="edge">
<title>7&#45;&gt;4</title>
<path fill="none" stroke="grey" stroke-width="2" d="M752.9,-947.85C681.69,-939.47 538.99,-921.6 419,-900 417.75,-899.77 416.49,-899.54 415.22,-899.31"/>
<polygon fill="grey" stroke="grey" stroke-width="2" points="415.85,-895.86 405.37,-897.4 414.52,-902.74 415.85,-895.86"/>
</g>
<!-- 7&#45;&gt;9 -->
<g id="edge18" class="edge">
<title>7&#45;&gt;9</title>
<path fill="none" stroke="grey" stroke-width="2" d="M843.19,-945.08C908.1,-930.81 1020,-894.15 1020,-811 1020,-811 1020,-811 1020,-737 1020,-679.18 960.78,-639.04 914.62,-616.54"/>
<polygon fill="grey" stroke="grey" stroke-width="2" points="915.83,-613.24 905.29,-612.14 912.84,-619.57 915.83,-613.24"/>
</g>
<!-- 7&#45;&gt;10 -->
<g id="edge22" class="edge">
<title>7&#45;&gt;10</title>
<path fill="none" stroke="grey" stroke-width="2" d="M752.65,-953.41C639.94,-953.66 350.38,-949.35 270,-900 229.97,-875.42 213,-857.97 213,-811 213,-811 213,-811 213,-593 213,-543.3 255.22,-499.77 286.37,-474.42"/>
<polygon fill="grey" stroke="grey" stroke-width="2" points="288.73,-477.01 294.42,-468.07 284.4,-471.52 288.73,-477.01"/>
</g>
<!-- 7&#45;&gt;12 -->
<g id="edge27" class="edge">
<title>7&#45;&gt;12</title>
<path fill="none" stroke="grey" stroke-width="2" d="M843.31,-953.73C935.03,-952.59 1134,-935.76 1134,-811 1134,-811 1134,-811 1134,-665 1134,-585.29 1105.91,-565.33 1055,-504 1045.59,-492.67 1033.29,-482.4 1021.57,-473.98"/>
<polygon fill="grey" stroke="grey" stroke-width="2" points="1023.41,-471 1013.19,-468.19 1019.43,-476.75 1023.41,-471"/>
</g>
<!-- 7&#45;&gt;13 -->
<g id="edge38" class="edge">
<title>7&#45;&gt;13</title>
<path fill="none" stroke="grey" stroke-width="2" d="M843.01,-951.34C905.76,-947.73 1022.17,-936.28 1114,-900 1180.49,-873.73 1248,-882.49 1248,-811 1248,-811 1248,-811 1248,-449 1248,-295.3 1211.56,-231.22 1085,-144 1039.66,-112.75 976.79,-99.92 934.15,-94.65"/>
<polygon fill="grey" stroke="grey" stroke-width="2" points="934.36,-91.15 924.03,-93.5 933.57,-98.11 934.36,-91.15"/>
</g>
<!-- 7&#45;&gt;19 -->
<g id="edge62" class="edge">
<title>7&#45;&gt;19</title>
<path fill="none" stroke="grey" stroke-width="2" d="M752.88,-945.28C655.22,-927.3 433,-878.91 433,-811 433,-811 433,-811 433,-593 433,-425.16 387.75,-369.78 455,-216 459.7,-205.25 467.6,-195.39 475.79,-187.17"/>
<polygon fill="grey" stroke="grey" stroke-width="2" points="478.42,-189.49 483.31,-180.09 473.63,-184.39 478.42,-189.49"/>
</g>
<!-- 8 -->
<g id="node9" class="node">
<title>8</title>
<path fill="none" stroke="#bed856" stroke-width="2" d="M1018,-540C1018,-540 878,-540 878,-540 872,-540 866,-534 866,-528 866,-528 866,-516 866,-516 866,-510 872,-504 878,-504 878,-504 1018,-504 1018,-504 1024,-504 1030,-510 1030,-516 1030,-516 1030,-528 1030,-528 1030,-534 1024,-540 1018,-540"/>
<text text-anchor="middle" x="948" y="-519.5" font-family="sans" font-size="10.00">check_adequate_variant_counts</text>
</g>
<!-- 8&#45;&gt;0 -->
<g id="edge4" class="edge">
<title>8&#45;&gt;0</title>
<path fill="none" stroke="grey" stroke-width="2" d="M987.65,-503.88C1002.94,-495.3 1019.09,-483.41 1029,-468 1116.63,-331.74 1068.6,-120.88 1047.4,-46.28"/>
<polygon fill="grey" stroke="grey" stroke-width="2" points="1050.64,-44.91 1044.48,-36.29 1043.92,-46.87 1050.64,-44.91"/>
</g>
<!-- 8&#45;&gt;10 -->
<g id="edge21" class="edge">
<title>8&#45;&gt;10</title>
<path fill="none" stroke="grey" stroke-width="2" d="M865.77,-511.85C732.51,-497.02 473.55,-468.2 366.78,-456.32"/>
<polygon fill="grey" stroke="grey" stroke-width="2" points="366.96,-452.82 356.63,-455.19 366.19,-459.77 366.96,-452.82"/>
</g>
<!-- 8&#45;&gt;12 -->
<g id="edge26" class="edge">
<title>8&#45;&gt;12</title>
<path fill="none" stroke="grey" stroke-width="2" d="M956.9,-503.7C961,-495.73 965.95,-486.1 970.49,-477.26"/>
<polygon fill="grey" stroke="grey" stroke-width="2" points="973.74,-478.6 975.2,-468.1 967.52,-475.4 973.74,-478.6"/>
</g>
<!-- 9&#45;&gt;8 -->
<g id="edge16" class="edge">
<title>9&#45;&gt;8</title>
<path fill="none" stroke="grey" stroke-width="2" d="M882.51,-575.7C893.46,-566.88 906.95,-556.03 918.82,-546.47"/>
<polygon fill="grey" stroke="grey" stroke-width="2" points="921.14,-549.1 926.74,-540.1 916.76,-543.65 921.14,-549.1"/>
</g>
<!-- 9&#45;&gt;13 -->
<g id="edge36" class="edge">
<title>9&#45;&gt;13</title>
<path fill="none" stroke="grey" stroke-width="2" d="M922.61,-587.84C1003.13,-577.33 1134,-545.69 1134,-451 1134,-451 1134,-451 1134,-377 1134,-261.71 1104.55,-222.37 1020,-144 996.13,-121.88 961.89,-108.52 934.13,-100.75"/>
<polygon fill="grey" stroke="grey" stroke-width="2" points="934.79,-97.3 924.23,-98.13 933,-104.07 934.79,-97.3"/>
</g>
<!-- 9&#45;&gt;17 -->
<g id="edge50" class="edge">
<title>9&#45;&gt;17</title>
<path fill="none" stroke="grey" stroke-width="2" d="M853.26,-575.98C834.21,-535.3 781.75,-430.61 716,-360 705.51,-348.73 692.31,-338.3 680.03,-329.73"/>
<polygon fill="grey" stroke="grey" stroke-width="2" points="681.96,-326.81 671.72,-324.1 678.04,-332.61 681.96,-326.81"/>
</g>
<!-- 9&#45;&gt;19 -->
<g id="edge60" class="edge">
<title>9&#45;&gt;19</title>
<path fill="none" stroke="grey" stroke-width="2" d="M855.84,-575.91C839.66,-525.03 785.19,-372.85 689,-288 657.31,-260.05 635.85,-275.9 601,-252 582.85,-239.55 582.88,-231.24 567,-216 556.67,-206.09 544.89,-195.67 534.45,-186.71"/>
<polygon fill="grey" stroke="grey" stroke-width="2" points="536.66,-183.99 526.78,-180.18 532.13,-189.32 536.66,-183.99"/>
</g>
<!-- 10&#45;&gt;0 -->
<g id="edge3" class="edge">
<title>10&#45;&gt;0</title>
<path fill="none" stroke="grey" stroke-width="2" d="M281.25,-446.51C246.45,-442.06 196.19,-429.78 169,-396 98.55,-308.48 95.99,-243.06 149,-144 176.22,-93.14 202.38,-90.58 257,-72 397.33,-24.27 865.12,-19.39 1001.43,-19"/>
<polygon fill="grey" stroke="grey" stroke-width="2" points="1001.77,-22.5 1011.76,-18.98 1001.75,-15.5 1001.77,-22.5"/>
</g>
<!-- 11 -->
<g id="node12" class="node">
<title>11</title>
<path fill="none" stroke="#56d8a2" stroke-width="2" d="M301.5,-396C301.5,-396 248.5,-396 248.5,-396 242.5,-396 236.5,-390 236.5,-384 236.5,-384 236.5,-372 236.5,-372 236.5,-366 242.5,-360 248.5,-360 248.5,-360 301.5,-360 301.5,-360 307.5,-360 313.5,-366 313.5,-372 313.5,-372 313.5,-384 313.5,-384 313.5,-390 307.5,-396 301.5,-396"/>
<text text-anchor="middle" x="275" y="-375.5" font-family="sans" font-size="10.00">fit_polyclonal</text>
</g>
<!-- 10&#45;&gt;11 -->
<g id="edge25" class="edge">
<title>10&#45;&gt;11</title>
<path fill="none" stroke="grey" stroke-width="2" d="M308.12,-431.7C303.01,-423.56 296.8,-413.69 291.16,-404.7"/>
<polygon fill="grey" stroke="grey" stroke-width="2" points="294.04,-402.71 285.75,-396.1 288.11,-406.43 294.04,-402.71"/>
</g>
<!-- 10&#45;&gt;13 -->
<g id="edge34" class="edge">
<title>10&#45;&gt;13</title>
<path fill="none" stroke="grey" stroke-width="2" d="M281.11,-436.02C231.83,-416.46 152,-374.36 152,-307 152,-307 152,-307 152,-233 152,-140.15 251.48,-168.62 341,-144 520.23,-94.7 743.55,-89.77 839.54,-90.21"/>
<polygon fill="grey" stroke="grey" stroke-width="2" points="839.77,-93.71 849.79,-90.28 839.82,-86.71 839.77,-93.71"/>
</g>
<!-- 15 -->
<g id="node16" class="node">
<title>15</title>
<path fill="none" stroke="#d88d56" stroke-width="2" d="M586,-396C586,-396 496,-396 496,-396 490,-396 484,-390 484,-384 484,-384 484,-372 484,-372 484,-366 490,-360 496,-360 496,-360 586,-360 586,-360 592,-360 598,-366 598,-372 598,-372 598,-384 598,-384 598,-390 592,-396 586,-396"/>
<text text-anchor="middle" x="541" y="-375.5" font-family="sans" font-size="10.00">analyze_prob_escape</text>
</g>
<!-- 10&#45;&gt;15 -->
<g id="edge46" class="edge">
<title>10&#45;&gt;15</title>
<path fill="none" stroke="grey" stroke-width="2" d="M356.66,-437.13C389.62,-426.73 438.19,-411.42 477.2,-399.12"/>
<polygon fill="grey" stroke="grey" stroke-width="2" points="478.41,-402.4 486.9,-396.06 476.31,-395.73 478.41,-402.4"/>
</g>
<!-- 10&#45;&gt;19 -->
<g id="edge59" class="edge">
<title>10&#45;&gt;19</title>
<path fill="none" stroke="grey" stroke-width="2" d="M320.32,-431.99C324.36,-384.01 338.02,-248.95 366,-216 390.03,-187.7 430.83,-174.48 462.21,-168.32"/>
<polygon fill="grey" stroke="grey" stroke-width="2" points="463.22,-171.7 472.45,-166.49 461.99,-164.81 463.22,-171.7"/>
</g>
<!-- 11&#45;&gt;0 -->
<g id="edge2" class="edge">
<title>11&#45;&gt;0</title>
<path fill="none" stroke="grey" stroke-width="2" d="M255.65,-359.94C211.19,-318.74 109.92,-212.18 169,-144 224.62,-79.82 841.5,-32.73 1001.35,-21.55"/>
<polygon fill="grey" stroke="grey" stroke-width="2" points="1001.9,-25.02 1011.63,-20.83 1001.42,-18.03 1001.9,-25.02"/>
</g>
<!-- 11&#45;&gt;13 -->
<g id="edge32" class="edge">
<title>11&#45;&gt;13</title>
<path fill="none" stroke="grey" stroke-width="2" d="M272.87,-359.6C269.93,-327.25 268.48,-257.37 304,-216 354.8,-156.84 388.92,-165.08 464,-144 596.81,-106.71 760.45,-95.62 839.63,-92.35"/>
<polygon fill="grey" stroke="grey" stroke-width="2" points="839.92,-95.84 849.78,-91.96 839.65,-88.85 839.92,-95.84"/>
</g>
<!-- 11&#45;&gt;17 -->
<g id="edge48" class="edge">
<title>11&#45;&gt;17</title>
<path fill="none" stroke="grey" stroke-width="2" d="M313.69,-369.64C381.72,-356.7 522.51,-329.92 596.02,-315.94"/>
<polygon fill="grey" stroke="grey" stroke-width="2" points="596.76,-319.36 605.93,-314.05 595.45,-312.48 596.76,-319.36"/>
</g>
<!-- 11&#45;&gt;19 -->
<g id="edge57" class="edge">
<title>11&#45;&gt;19</title>
<path fill="none" stroke="grey" stroke-width="2" d="M278.53,-359.92C286.52,-322.81 306.95,-236.46 328,-216 364.06,-180.96 422.23,-168.94 462.19,-164.9"/>
<polygon fill="grey" stroke="grey" stroke-width="2" points="462.54,-168.39 472.19,-164.02 461.92,-161.41 462.54,-168.39"/>
</g>
<!-- 12&#45;&gt;0 -->
<g id="edge6" class="edge">
<title>12&#45;&gt;0</title>
<path fill="none" stroke="grey" stroke-width="2" d="M999.67,-431.63C1007.62,-421.84 1016.7,-409 1022,-396 1034.21,-366.02 1030.23,-356.25 1033,-324 1041.77,-221.81 1040.71,-99.69 1039.67,-46.27"/>
<polygon fill="grey" stroke="grey" stroke-width="2" points="1043.17,-46.16 1039.46,-36.24 1036.17,-46.31 1043.17,-46.16"/>
</g>
<!-- 12&#45;&gt;13 -->
<g id="edge44" class="edge">
<title>12&#45;&gt;13</title>
<path fill="none" stroke="grey" stroke-width="2" d="M991.29,-431.87C1001.8,-405.53 1020,-353.29 1020,-307 1020,-307 1020,-307 1020,-233 1020,-192.03 1022.1,-175.58 996,-144 980.06,-124.72 955.41,-111.91 933.58,-103.73"/>
<polygon fill="grey" stroke="grey" stroke-width="2" points="934.71,-100.42 924.12,-100.39 932.38,-107.02 934.71,-100.42"/>
</g>
<!-- 14 -->
<g id="node15" class="node">
<title>14</title>
<path fill="none" stroke="#5673d8" stroke-width="2" d="M942,-396C942,-396 856,-396 856,-396 850,-396 844,-390 844,-384 844,-384 844,-372 844,-372 844,-366 850,-360 856,-360 856,-360 942,-360 942,-360 948,-360 954,-366 954,-372 954,-372 954,-384 954,-384 954,-390 948,-396 942,-396"/>
<text text-anchor="middle" x="899" y="-375.5" font-family="sans" font-size="10.00">analyze_func_scores</text>
</g>
<!-- 12&#45;&gt;14 -->
<g id="edge45" class="edge">
<title>12&#45;&gt;14</title>
<path fill="none" stroke="grey" stroke-width="2" d="M962.99,-431.7C952.28,-422.88 939.11,-412.03 927.5,-402.47"/>
<polygon fill="grey" stroke="grey" stroke-width="2" points="929.71,-399.76 919.77,-396.1 925.26,-405.16 929.71,-399.76"/>
</g>
<!-- 12&#45;&gt;19 -->
<g id="edge68" class="edge">
<title>12&#45;&gt;19</title>
<path fill="none" stroke="grey" stroke-width="2" d="M948.24,-441.69C916.5,-434 869.88,-419.66 835,-396 823.99,-388.53 688.16,-223.24 677,-216 638.08,-190.75 586.41,-176.93 550.09,-169.79"/>
<polygon fill="grey" stroke="grey" stroke-width="2" points="550.29,-166.27 539.81,-167.87 549,-173.15 550.29,-166.27"/>
</g>
<!-- 13&#45;&gt;0 -->
<g id="edge5" class="edge">
<title>13&#45;&gt;0</title>
<path fill="none" stroke="grey" stroke-width="2" d="M924.18,-71.88C947.98,-60.92 978.7,-46.77 1002.39,-35.86"/>
<polygon fill="grey" stroke="grey" stroke-width="2" points="1004.12,-38.92 1011.73,-31.56 1001.19,-32.56 1004.12,-38.92"/>
</g>
<!-- 14&#45;&gt;13 -->
<g id="edge42" class="edge">
<title>14&#45;&gt;13</title>
<path fill="none" stroke="grey" stroke-width="2" d="M904.69,-359.93C916.82,-320.87 942.38,-222.3 920,-144 917.29,-134.51 912.33,-125.06 907.07,-116.83"/>
<polygon fill="grey" stroke="grey" stroke-width="2" points="909.86,-114.72 901.33,-108.43 904.08,-118.67 909.86,-114.72"/>
</g>
<!-- 14&#45;&gt;17 -->
<g id="edge52" class="edge">
<title>14&#45;&gt;17</title>
<path fill="none" stroke="grey" stroke-width="2" d="M843.77,-361.9C797.95,-349.37 733.5,-331.75 690.1,-319.88"/>
<polygon fill="grey" stroke="grey" stroke-width="2" points="690.92,-316.48 680.35,-317.21 689.08,-323.23 690.92,-316.48"/>
</g>
<!-- 14&#45;&gt;19 -->
<g id="edge66" class="edge">
<title>14&#45;&gt;19</title>
<path fill="none" stroke="grey" stroke-width="2" d="M884.41,-359.67C867.97,-340.76 839.89,-310.2 812,-288 787.97,-268.87 777.96,-269.91 753,-252 732.75,-237.47 732.16,-227.41 710,-216 658.46,-189.45 592.58,-175.47 549.85,-168.66"/>
<polygon fill="grey" stroke="grey" stroke-width="2" points="550.18,-165.17 539.77,-167.12 549.13,-172.09 550.18,-165.17"/>
</g>
<!-- 15&#45;&gt;13 -->
<g id="edge37" class="edge">
<title>15&#45;&gt;13</title>
<path fill="none" stroke="grey" stroke-width="2" d="M598.14,-371.77C672.81,-361.8 802.45,-333.19 874,-252 906.43,-215.2 900.61,-153.53 893.67,-118.15"/>
<polygon fill="grey" stroke="grey" stroke-width="2" points="897.03,-117.13 891.53,-108.07 890.19,-118.58 897.03,-117.13"/>
</g>
<!-- 15&#45;&gt;17 -->
<g id="edge54" class="edge">
<title>15&#45;&gt;17</title>
<path fill="none" stroke="grey" stroke-width="2" d="M565.95,-359.88C579.04,-350.89 595.26,-339.76 609.44,-330.03"/>
<polygon fill="grey" stroke="grey" stroke-width="2" points="611.69,-332.73 617.95,-324.19 607.73,-326.96 611.69,-332.73"/>
</g>
<!-- 15&#45;&gt;19 -->
<g id="edge61" class="edge">
<title>15&#45;&gt;19</title>
<path fill="none" stroke="grey" stroke-width="2" d="M538.19,-359.85C532.13,-322.75 517.74,-234.81 510.43,-190.1"/>
<polygon fill="grey" stroke="grey" stroke-width="2" points="513.89,-189.54 508.82,-180.23 506.98,-190.67 513.89,-189.54"/>
</g>
<!-- 16 -->
<g id="node17" class="node">
<title>16</title>
<path fill="none" stroke="#56a2d8" stroke-width="2" d="M656,-252C656,-252 622,-252 622,-252 616,-252 610,-246 610,-240 610,-240 610,-228 610,-228 610,-222 616,-216 622,-216 622,-216 656,-216 656,-216 662,-216 668,-222 668,-228 668,-228 668,-240 668,-240 668,-246 662,-252 656,-252"/>
<text text-anchor="middle" x="639" y="-231.5" font-family="sans" font-size="10.00">subindex</text>
</g>
<!-- 16&#45;&gt;13 -->
<g id="edge40" class="edge">
<title>16&#45;&gt;13</title>
<path fill="none" stroke="grey" stroke-width="2" d="M668.42,-216.15C713.24,-190.49 798.62,-141.6 848.37,-113.12"/>
<polygon fill="grey" stroke="grey" stroke-width="2" points="850.29,-116.05 857.23,-108.05 846.81,-109.98 850.29,-116.05"/>
</g>
<!-- 16&#45;&gt;19 -->
<g id="edge64" class="edge">
<title>16&#45;&gt;19</title>
<path fill="none" stroke="grey" stroke-width="2" d="M609.81,-217.64C591.51,-208.01 567.63,-195.44 547.39,-184.79"/>
<polygon fill="grey" stroke="grey" stroke-width="2" points="548.86,-181.6 538.38,-180.04 545.6,-187.8 548.86,-181.6"/>
</g>
<!-- 17&#45;&gt;13 -->
<g id="edge31" class="edge">
<title>17&#45;&gt;13</title>
<path fill="none" stroke="grey" stroke-width="2" d="M680.35,-297.57C736.44,-286.08 837.14,-264.1 849,-252 884.25,-216.03 889.04,-153.8 888.56,-118.16"/>
<polygon fill="grey" stroke="grey" stroke-width="2" points="892.05,-117.9 888.27,-108.01 885.05,-118.1 892.05,-117.9"/>
</g>
<!-- 17&#45;&gt;16 -->
<g id="edge47" class="edge">
<title>17&#45;&gt;16</title>
<path fill="none" stroke="grey" stroke-width="2" d="M642.01,-287.7C641.57,-279.98 641.04,-270.71 640.55,-262.11"/>
<polygon fill="grey" stroke="grey" stroke-width="2" points="644.04,-261.89 639.98,-252.1 637.05,-262.29 644.04,-261.89"/>
</g>
<!-- 17&#45;&gt;19 -->
<g id="edge56" class="edge">
<title>17&#45;&gt;19</title>
<path fill="none" stroke="grey" stroke-width="2" d="M614.13,-287.98C599.38,-278.48 581.71,-265.8 568,-252 549.07,-232.94 531.98,-207.49 520.57,-188.68"/>
<polygon fill="grey" stroke="grey" stroke-width="2" points="523.55,-186.85 515.43,-180.04 517.53,-190.43 523.55,-186.85"/>
</g>
<!-- 18 -->
<g id="node19" class="node">
<title>18</title>
<path fill="none" stroke="#a7d856" stroke-width="2" d="M828,-252C828,-252 774,-252 774,-252 768,-252 762,-246 762,-240 762,-240 762,-228 762,-228 762,-222 768,-216 774,-216 774,-216 828,-216 828,-216 834,-216 840,-222 840,-228 840,-228 840,-240 840,-240 840,-246 834,-252 828,-252"/>
<text text-anchor="middle" x="801" y="-231.5" font-family="sans" font-size="10.00">make_graphs</text>
</g>
<!-- 18&#45;&gt;13 -->
<g id="edge41" class="edge">
<title>18&#45;&gt;13</title>
<path fill="none" stroke="grey" stroke-width="2" d="M811.06,-215.88C821.65,-197.91 838.85,-168.88 854,-144 859.44,-135.07 865.47,-125.34 870.87,-116.69"/>
<polygon fill="grey" stroke="grey" stroke-width="2" points="873.88,-118.47 876.21,-108.13 867.94,-114.76 873.88,-118.47"/>
</g>
<!-- 18&#45;&gt;19 -->
<g id="edge65" class="edge">
<title>18&#45;&gt;19</title>
<path fill="none" stroke="grey" stroke-width="2" d="M761.76,-219.96C757.14,-218.56 752.48,-217.21 748,-216 679.18,-197.47 598.05,-180.72 549.39,-171.21"/>
<polygon fill="grey" stroke="grey" stroke-width="2" points="550,-167.77 539.51,-169.3 548.66,-174.64 550,-167.77"/>
</g>
<!-- 19&#45;&gt;13 -->
<g id="edge35" class="edge">
<title>19&#45;&gt;13</title>
<path fill="none" stroke="grey" stroke-width="2" d="M539.81,-154.79C607.96,-142.27 761.95,-113.98 839.9,-99.65"/>
<polygon fill="grey" stroke="grey" stroke-width="2" points="840.72,-103.06 849.92,-97.81 839.46,-96.18 840.72,-103.06"/>
</g>
</g>
</svg>
