<?xml version="1.0" encoding="UTF-8" standalone="no"?>
<!DOCTYPE svg PUBLIC "-//W3C//DTD SVG 1.1//EN"
 "http://www.w3.org/Graphics/SVG/1.1/DTD/svg11.dtd">
<!-- Generated by graphviz version 3.0.0 (20220315.2325)
 -->
<!-- Title: snakemake_dag Pages: 1 -->
<svg width="1449pt" height="1052pt"
 viewBox="0.00 0.00 1448.60 1052.00" xmlns="http://www.w3.org/2000/svg" xmlns:xlink="http://www.w3.org/1999/xlink">
<g id="graph0" class="graph" transform="scale(1 1) rotate(0) translate(4 1048)">
<title>snakemake_dag</title>
<polygon fill="white" stroke="transparent" points="-4,4 -4,-1048 1444.6,-1048 1444.6,4 -4,4"/>
<!-- 0 -->
<g id="node1" class="node">
<title>0</title>
<path fill="none" stroke="#61d856" stroke-width="2" d="M167,-36C167,-36 137,-36 137,-36 131,-36 125,-30 125,-24 125,-24 125,-12 125,-12 125,-6 131,0 137,0 137,0 167,0 167,0 173,0 179,-6 179,-12 179,-12 179,-24 179,-24 179,-30 173,-36 167,-36"/>
<text text-anchor="middle" x="152" y="-15.5" font-family="sans" font-size="10.00">all</text>
</g>
<!-- 1 -->
<g id="node2" class="node">
<title>1</title>
<path fill="none" stroke="#d88556" stroke-width="2" d="M391,-684C391,-684 331,-684 331,-684 325,-684 319,-678 319,-672 319,-672 319,-660 319,-660 319,-654 325,-648 331,-648 331,-648 391,-648 391,-648 397,-648 403,-654 403,-660 403,-660 403,-672 403,-672 403,-678 397,-684 391,-684"/>
<text text-anchor="middle" x="361" y="-663.5" font-family="sans" font-size="10.00">variant_counts</text>
</g>
<!-- 1&#45;&gt;0 -->
<g id="edge3" class="edge">
<title>1&#45;&gt;0</title>
<path fill="none" stroke="grey" stroke-width="2" d="M318.9,-658.61C257,-646.85 142.47,-615.67 84,-540 16.69,-452.89 0,-417.08 0,-307 0,-307 0,-307 0,-161 0,-115.41 18.17,-103.63 51,-72 69.34,-54.33 94.75,-41.03 115.49,-32.18"/>
<polygon fill="grey" stroke="grey" stroke-width="2" points="117.02,-35.34 124.95,-28.31 114.37,-28.86 117.02,-35.34"/>
</g>
<!-- 9 -->
<g id="node10" class="node">
<title>9</title>
<path fill="none" stroke="#56d892" stroke-width="2" d="M574.5,-612C574.5,-612 475.5,-612 475.5,-612 469.5,-612 463.5,-606 463.5,-600 463.5,-600 463.5,-588 463.5,-588 463.5,-582 469.5,-576 475.5,-576 475.5,-576 574.5,-576 574.5,-576 580.5,-576 586.5,-582 586.5,-588 586.5,-588 586.5,-600 586.5,-600 586.5,-606 580.5,-612 574.5,-612"/>
<text text-anchor="middle" x="525" y="-591.5" font-family="sans" font-size="10.00">analyze_variant_counts</text>
</g>
<!-- 1&#45;&gt;9 -->
<g id="edge20" class="edge">
<title>1&#45;&gt;9</title>
<path fill="none" stroke="grey" stroke-width="2" d="M401.12,-647.88C423.64,-638.26 451.92,-626.19 475.77,-616.01"/>
<polygon fill="grey" stroke="grey" stroke-width="2" points="477.19,-619.21 485.01,-612.07 474.44,-612.77 477.19,-619.21"/>
</g>
<!-- 10 -->
<g id="node11" class="node">
<title>10</title>
<path fill="none" stroke="#78d856" stroke-width="2" d="M925.5,-468C925.5,-468 874.5,-468 874.5,-468 868.5,-468 862.5,-462 862.5,-456 862.5,-456 862.5,-444 862.5,-444 862.5,-438 868.5,-432 874.5,-432 874.5,-432 925.5,-432 925.5,-432 931.5,-432 937.5,-438 937.5,-444 937.5,-444 937.5,-456 937.5,-456 937.5,-462 931.5,-468 925.5,-468"/>
<text text-anchor="middle" x="900" y="-447.5" font-family="sans" font-size="10.00">prob_escape</text>
</g>
<!-- 1&#45;&gt;10 -->
<g id="edge25" class="edge">
<title>1&#45;&gt;10</title>
<path fill="none" stroke="grey" stroke-width="2" d="M403.38,-658.85C451.01,-651.15 530.15,-635.98 595,-612 697.67,-574.03 809.25,-508.18 864.65,-473.64"/>
<polygon fill="grey" stroke="grey" stroke-width="2" points="866.76,-476.45 873.37,-468.17 863.04,-470.52 866.76,-476.45"/>
</g>
<!-- 12 -->
<g id="node13" class="node">
<title>12</title>
<path fill="none" stroke="#d8bc56" stroke-width="2" d="M238.5,-468C238.5,-468 191.5,-468 191.5,-468 185.5,-468 179.5,-462 179.5,-456 179.5,-456 179.5,-444 179.5,-444 179.5,-438 185.5,-432 191.5,-432 191.5,-432 238.5,-432 238.5,-432 244.5,-432 250.5,-438 250.5,-444 250.5,-444 250.5,-456 250.5,-456 250.5,-462 244.5,-468 238.5,-468"/>
<text text-anchor="middle" x="215" y="-447.5" font-family="sans" font-size="10.00">func_scores</text>
</g>
<!-- 1&#45;&gt;12 -->
<g id="edge30" class="edge">
<title>1&#45;&gt;12</title>
<path fill="none" stroke="grey" stroke-width="2" d="M336.45,-647.96C307.28,-626.34 259.37,-586.24 234,-540 223.52,-520.89 218.81,-496.54 216.71,-478.14"/>
<polygon fill="grey" stroke="grey" stroke-width="2" points="220.18,-477.7 215.74,-468.08 213.21,-478.37 220.18,-477.7"/>
</g>
<!-- 14 -->
<g id="node15" class="node">
<title>14</title>
<path fill="none" stroke="#d8d356" stroke-width="2" d="M1030,-108C1030,-108 980,-108 980,-108 974,-108 968,-102 968,-96 968,-96 968,-84 968,-84 968,-78 974,-72 980,-72 980,-72 1030,-72 1030,-72 1036,-72 1042,-78 1042,-84 1042,-84 1042,-96 1042,-96 1042,-102 1036,-108 1030,-108"/>
<text text-anchor="middle" x="1005" y="-87.5" font-family="sans" font-size="10.00">sphinx_build</text>
</g>
<!-- 1&#45;&gt;14 -->
<g id="edge37" class="edge">
<title>1&#45;&gt;14</title>
<path fill="none" stroke="grey" stroke-width="2" d="M321.23,-647.94C300.99,-638.52 276.41,-625.92 256,-612 167.33,-551.52 76,-558.33 76,-451 76,-451 76,-451 76,-377 76,-246.68 139.29,-205.84 254,-144 315.79,-110.69 802.67,-95.96 957.74,-92.09"/>
<polygon fill="grey" stroke="grey" stroke-width="2" points="957.98,-95.58 967.89,-91.84 957.81,-88.58 957.98,-95.58"/>
</g>
<!-- 20 -->
<g id="node21" class="node">
<title>20</title>
<path fill="none" stroke="#56d0d8" stroke-width="2" d="M702.5,-180C702.5,-180 659.5,-180 659.5,-180 653.5,-180 647.5,-174 647.5,-168 647.5,-168 647.5,-156 647.5,-156 647.5,-150 653.5,-144 659.5,-144 659.5,-144 702.5,-144 702.5,-144 708.5,-144 714.5,-150 714.5,-156 714.5,-156 714.5,-168 714.5,-168 714.5,-174 708.5,-180 702.5,-180"/>
<text text-anchor="middle" x="681" y="-159.5" font-family="sans" font-size="10.00">docs_index</text>
</g>
<!-- 1&#45;&gt;20 -->
<g id="edge64" class="edge">
<title>1&#45;&gt;20</title>
<path fill="none" stroke="grey" stroke-width="2" d="M370.41,-647.77C393.15,-605.66 452.1,-493.84 491,-396 522,-318.02 490.85,-277.45 548,-216 571.47,-190.76 608.53,-177.32 637.58,-170.29"/>
<polygon fill="grey" stroke="grey" stroke-width="2" points="638.49,-173.67 647.48,-168.07 636.96,-166.84 638.49,-173.67"/>
</g>
<!-- 2 -->
<g id="node3" class="node">
<title>2</title>
<path fill="none" stroke="#97d856" stroke-width="2" d="M574.5,-756C574.5,-756 509.5,-756 509.5,-756 503.5,-756 497.5,-750 497.5,-744 497.5,-744 497.5,-732 497.5,-732 497.5,-726 503.5,-720 509.5,-720 509.5,-720 574.5,-720 574.5,-720 580.5,-720 586.5,-726 586.5,-732 586.5,-732 586.5,-744 586.5,-744 586.5,-750 580.5,-756 574.5,-756"/>
<text text-anchor="middle" x="542" y="-735.5" font-family="sans" font-size="10.00">count_barcodes</text>
</g>
<!-- 2&#45;&gt;1 -->
<g id="edge9" class="edge">
<title>2&#45;&gt;1</title>
<path fill="none" stroke="grey" stroke-width="2" d="M497.72,-719.88C472.09,-709.96 439.69,-697.43 412.87,-687.06"/>
<polygon fill="grey" stroke="grey" stroke-width="2" points="413.85,-683.69 403.26,-683.35 411.33,-690.22 413.85,-683.69"/>
</g>
<!-- 2&#45;&gt;9 -->
<g id="edge19" class="edge">
<title>2&#45;&gt;9</title>
<path fill="none" stroke="grey" stroke-width="2" d="M539.95,-719.87C537.05,-695.67 531.73,-651.21 528.28,-622.39"/>
<polygon fill="grey" stroke="grey" stroke-width="2" points="531.72,-621.7 527.06,-612.19 524.77,-622.53 531.72,-621.7"/>
</g>
<!-- 3 -->
<g id="node4" class="node">
<title>3</title>
<path fill="none" stroke="#56d863" stroke-width="2" d="M744.5,-828C744.5,-828 655.5,-828 655.5,-828 649.5,-828 643.5,-822 643.5,-816 643.5,-816 643.5,-804 643.5,-804 643.5,-798 649.5,-792 655.5,-792 655.5,-792 744.5,-792 744.5,-792 750.5,-792 756.5,-798 756.5,-804 756.5,-804 756.5,-816 756.5,-816 756.5,-822 750.5,-828 744.5,-828"/>
<text text-anchor="middle" x="700" y="-807.5" font-family="sans" font-size="10.00">build_codon_variants</text>
</g>
<!-- 3&#45;&gt;1 -->
<g id="edge10" class="edge">
<title>3&#45;&gt;1</title>
<path fill="none" stroke="grey" stroke-width="2" d="M643.22,-800.63C599.41,-792.81 538.05,-778.84 488,-756 450.81,-739.03 413.06,-710.88 388.5,-690.78"/>
<polygon fill="grey" stroke="grey" stroke-width="2" points="390.62,-688 380.69,-684.31 386.15,-693.39 390.62,-688"/>
</g>
<!-- 3&#45;&gt;2 -->
<g id="edge11" class="edge">
<title>3&#45;&gt;2</title>
<path fill="none" stroke="grey" stroke-width="2" d="M661.35,-791.88C639.75,-782.31 612.65,-770.3 589.73,-760.15"/>
<polygon fill="grey" stroke="grey" stroke-width="2" points="591.09,-756.92 580.53,-756.07 588.25,-763.32 591.09,-756.92"/>
</g>
<!-- 3&#45;&gt;9 -->
<g id="edge21" class="edge">
<title>3&#45;&gt;9</title>
<path fill="none" stroke="grey" stroke-width="2" d="M685.97,-791.85C655.19,-754.21 581.59,-664.2 545.57,-620.15"/>
<polygon fill="grey" stroke="grey" stroke-width="2" points="548.13,-617.76 539.09,-612.23 542.71,-622.19 548.13,-617.76"/>
</g>
<!-- 3&#45;&gt;10 -->
<g id="edge24" class="edge">
<title>3&#45;&gt;10</title>
<path fill="none" stroke="grey" stroke-width="2" d="M719.62,-791.92C730.1,-782.12 742.72,-769.17 752,-756 818.4,-661.76 869.84,-533.17 890.33,-477.97"/>
<polygon fill="grey" stroke="grey" stroke-width="2" points="893.74,-478.84 893.91,-468.24 887.17,-476.42 893.74,-478.84"/>
</g>
<!-- 3&#45;&gt;12 -->
<g id="edge29" class="edge">
<title>3&#45;&gt;12</title>
<path fill="none" stroke="grey" stroke-width="2" d="M643.49,-804.13C586.89,-797.86 498.07,-784.23 426,-756 369.5,-733.87 354.75,-724.98 310,-684 253.99,-632.71 237.5,-613.4 218,-540 212.62,-519.74 212.1,-495.96 212.8,-478.09"/>
<polygon fill="grey" stroke="grey" stroke-width="2" points="216.29,-478.23 213.34,-468.06 209.3,-477.86 216.29,-478.23"/>
</g>
<!-- 3&#45;&gt;14 -->
<g id="edge42" class="edge">
<title>3&#45;&gt;14</title>
<path fill="none" stroke="grey" stroke-width="2" d="M727.02,-792C742.35,-782.02 761.68,-768.88 778,-756 887.19,-669.86 1214,-446.08 1214,-307 1214,-307 1214,-307 1214,-233 1214,-155.29 1113.93,-117.14 1052.28,-101"/>
<polygon fill="grey" stroke="grey" stroke-width="2" points="1052.92,-97.55 1042.37,-98.51 1051.21,-104.34 1052.92,-97.55"/>
</g>
<!-- 18 -->
<g id="node19" class="node">
<title>18</title>
<path fill="none" stroke="#56d8c9" stroke-width="2" d="M828,-324C828,-324 778,-324 778,-324 772,-324 766,-318 766,-312 766,-312 766,-300 766,-300 766,-294 772,-288 778,-288 778,-288 828,-288 828,-288 834,-288 840,-294 840,-300 840,-300 840,-312 840,-312 840,-318 834,-324 828,-324"/>
<text text-anchor="middle" x="803" y="-303.5" font-family="sans" font-size="10.00">make_nblink</text>
</g>
<!-- 3&#45;&gt;18 -->
<g id="edge55" class="edge">
<title>3&#45;&gt;18</title>
<path fill="none" stroke="grey" stroke-width="2" d="M707.69,-791.91C718.79,-765.62 738,-713.45 738,-667 738,-667 738,-667 738,-449 738,-404.96 764.17,-359.64 783.29,-332.4"/>
<polygon fill="grey" stroke="grey" stroke-width="2" points="786.19,-334.36 789.22,-324.21 780.52,-330.26 786.19,-334.36"/>
</g>
<!-- 3&#45;&gt;20 -->
<g id="edge68" class="edge">
<title>3&#45;&gt;20</title>
<path fill="none" stroke="grey" stroke-width="2" d="M700,-791.95C700,-765.29 700,-712.11 700,-667 700,-667 700,-667 700,-593 700,-492.07 624,-479.93 624,-379 624,-379 624,-379 624,-305 624,-264.03 631.66,-253.57 648,-216 652,-206.8 657.42,-197.33 662.71,-188.98"/>
<polygon fill="grey" stroke="grey" stroke-width="2" points="665.76,-190.71 668.33,-180.43 659.91,-186.87 665.76,-190.71"/>
</g>
<!-- 4 -->
<g id="node5" class="node">
<title>4</title>
<path fill="none" stroke="#d85656" stroke-width="2" d="M877,-900C877,-900 775,-900 775,-900 769,-900 763,-894 763,-888 763,-888 763,-876 763,-876 763,-870 769,-864 775,-864 775,-864 877,-864 877,-864 883,-864 889,-870 889,-876 889,-876 889,-888 889,-888 889,-894 883,-900 877,-900"/>
<text text-anchor="middle" x="826" y="-879.5" font-family="sans" font-size="10.00">build_pacbio_consensus</text>
</g>
<!-- 4&#45;&gt;3 -->
<g id="edge12" class="edge">
<title>4&#45;&gt;3</title>
<path fill="none" stroke="grey" stroke-width="2" d="M795.18,-863.88C778.55,-854.64 757.84,-843.13 739.98,-833.21"/>
<polygon fill="grey" stroke="grey" stroke-width="2" points="741.38,-829.99 730.94,-828.19 737.98,-836.11 741.38,-829.99"/>
</g>
<!-- 4&#45;&gt;14 -->
<g id="edge32" class="edge">
<title>4&#45;&gt;14</title>
<path fill="none" stroke="grey" stroke-width="2" d="M852.65,-863.84C945.91,-801.48 1252,-576.29 1252,-307 1252,-307 1252,-307 1252,-233 1252,-141.89 1124.13,-108.38 1052.4,-96.74"/>
<polygon fill="grey" stroke="grey" stroke-width="2" points="1052.66,-93.24 1042.25,-95.18 1051.6,-100.16 1052.66,-93.24"/>
</g>
<!-- 4&#45;&gt;18 -->
<g id="edge51" class="edge">
<title>4&#45;&gt;18</title>
<path fill="none" stroke="grey" stroke-width="2" d="M826.81,-863.82C827.26,-853.45 827.77,-839.97 828,-828 829.51,-748.01 830.93,-727.95 828,-648 823.72,-530.97 811.19,-391.8 805.67,-334.12"/>
<polygon fill="grey" stroke="grey" stroke-width="2" points="809.13,-333.62 804.69,-324.01 802.17,-334.3 809.13,-333.62"/>
</g>
<!-- 4&#45;&gt;20 -->
<g id="edge59" class="edge">
<title>4&#45;&gt;20</title>
<path fill="none" stroke="grey" stroke-width="2" d="M821.94,-863.92C799.58,-769.72 692.18,-315.64 684,-252 681.36,-231.43 680.66,-207.98 680.59,-190.31"/>
<polygon fill="grey" stroke="grey" stroke-width="2" points="684.09,-190.15 680.62,-180.14 677.09,-190.13 684.09,-190.15"/>
</g>
<!-- 5 -->
<g id="node6" class="node">
<title>5</title>
<path fill="none" stroke="#568ad8" stroke-width="2" d="M1168,-972C1168,-972 1088,-972 1088,-972 1082,-972 1076,-966 1076,-960 1076,-960 1076,-948 1076,-948 1076,-942 1082,-936 1088,-936 1088,-936 1168,-936 1168,-936 1174,-936 1180,-942 1180,-948 1180,-948 1180,-960 1180,-960 1180,-966 1174,-972 1168,-972"/>
<text text-anchor="middle" x="1128" y="-951.5" font-family="sans" font-size="10.00">analyze_pacbio_ccs</text>
</g>
<!-- 5&#45;&gt;4 -->
<g id="edge14" class="edge">
<title>5&#45;&gt;4</title>
<path fill="none" stroke="grey" stroke-width="2" d="M1075.74,-940.89C1026.95,-929.58 953.67,-912.59 899.09,-899.94"/>
<polygon fill="grey" stroke="grey" stroke-width="2" points="899.66,-896.48 889.12,-897.63 898.07,-903.3 899.66,-896.48"/>
</g>
<!-- 5&#45;&gt;14 -->
<g id="edge40" class="edge">
<title>5&#45;&gt;14</title>
<path fill="none" stroke="grey" stroke-width="2" d="M1180.03,-940.36C1239.28,-922.49 1328,-883.61 1328,-811 1328,-811 1328,-811 1328,-233 1328,-192.03 1334.21,-171.67 1304,-144 1294.75,-135.53 1133.93,-110.35 1052.07,-98"/>
<polygon fill="grey" stroke="grey" stroke-width="2" points="1052.43,-94.51 1042.02,-96.48 1051.38,-101.43 1052.43,-94.51"/>
</g>
<!-- 5&#45;&gt;18 -->
<g id="edge54" class="edge">
<title>5&#45;&gt;18</title>
<path fill="none" stroke="grey" stroke-width="2" d="M1127.58,-935.67C1125.01,-865.26 1106.95,-596.52 980,-432 960.77,-407.08 945.09,-413.61 919,-396 888.27,-375.26 854.85,-349.21 831.8,-330.67"/>
<polygon fill="grey" stroke="grey" stroke-width="2" points="833.78,-327.77 823.81,-324.2 829.38,-333.21 833.78,-327.77"/>
</g>
<!-- 5&#45;&gt;20 -->
<g id="edge67" class="edge">
<title>5&#45;&gt;20</title>
<path fill="none" stroke="grey" stroke-width="2" d="M1082.44,-935.9C1034.53,-914.61 966,-873.27 966,-811 966,-811 966,-811 966,-521 966,-480.55 972.55,-463.36 947,-432 921.86,-401.14 899.91,-415.11 865,-396 814.4,-368.3 794.69,-367.68 757,-324 756.85,-323.83 715.03,-235.17 693.5,-189.51"/>
<polygon fill="grey" stroke="grey" stroke-width="2" points="696.54,-187.76 689.11,-180.21 690.21,-190.74 696.54,-187.76"/>
</g>
<!-- 6 -->
<g id="node7" class="node">
<title>6</title>
<path fill="none" stroke="#56b9d8" stroke-width="2" d="M1177,-1044C1177,-1044 1079,-1044 1079,-1044 1073,-1044 1067,-1038 1067,-1032 1067,-1032 1067,-1020 1067,-1020 1067,-1014 1073,-1008 1079,-1008 1079,-1008 1177,-1008 1177,-1008 1183,-1008 1189,-1014 1189,-1020 1189,-1020 1189,-1032 1189,-1032 1189,-1038 1183,-1044 1177,-1044"/>
<text text-anchor="middle" x="1128" y="-1023.5" font-family="sans" font-size="10.00">align_parse_PacBio_ccs</text>
</g>
<!-- 6&#45;&gt;5 -->
<g id="edge16" class="edge">
<title>6&#45;&gt;5</title>
<path fill="none" stroke="grey" stroke-width="2" d="M1128,-1007.7C1128,-999.98 1128,-990.71 1128,-982.11"/>
<polygon fill="grey" stroke="grey" stroke-width="2" points="1131.5,-982.1 1128,-972.1 1124.5,-982.1 1131.5,-982.1"/>
</g>
<!-- 7 -->
<g id="node8" class="node">
<title>7</title>
<path fill="none" stroke="#5673d8" stroke-width="2" d="M679,-972C679,-972 613,-972 613,-972 607,-972 601,-966 601,-960 601,-960 601,-948 601,-948 601,-942 607,-936 613,-936 613,-936 679,-936 679,-936 685,-936 691,-942 691,-948 691,-948 691,-960 691,-960 691,-966 685,-972 679,-972"/>
<text text-anchor="middle" x="646" y="-951.5" font-family="sans" font-size="10.00">gene_sequence</text>
</g>
<!-- 7&#45;&gt;1 -->
<g id="edge8" class="edge">
<title>7&#45;&gt;1</title>
<path fill="none" stroke="grey" stroke-width="2" d="M600.86,-948.18C541.74,-940.94 442.57,-925.36 417,-900 360.83,-844.31 357.21,-742.83 359.06,-694.28"/>
<polygon fill="grey" stroke="grey" stroke-width="2" points="362.56,-694.38 359.55,-684.22 355.57,-694.04 362.56,-694.38"/>
</g>
<!-- 7&#45;&gt;3 -->
<g id="edge13" class="edge">
<title>7&#45;&gt;3</title>
<path fill="none" stroke="grey" stroke-width="2" d="M652.51,-935.87C661.8,-911.46 678.92,-866.43 689.87,-837.64"/>
<polygon fill="grey" stroke="grey" stroke-width="2" points="693.18,-838.78 693.46,-828.19 686.64,-836.29 693.18,-838.78"/>
</g>
<!-- 7&#45;&gt;4 -->
<g id="edge15" class="edge">
<title>7&#45;&gt;4</title>
<path fill="none" stroke="grey" stroke-width="2" d="M690.03,-935.88C714.97,-926.18 746.34,-913.98 772.66,-903.74"/>
<polygon fill="grey" stroke="grey" stroke-width="2" points="774.06,-906.95 782.11,-900.07 771.52,-900.43 774.06,-906.95"/>
</g>
<!-- 7&#45;&gt;9 -->
<g id="edge18" class="edge">
<title>7&#45;&gt;9</title>
<path fill="none" stroke="grey" stroke-width="2" d="M600.93,-944.3C537.88,-929.22 431,-891.74 431,-811 431,-811 431,-811 431,-737 431,-689.17 468.54,-645.08 496.18,-619.11"/>
<polygon fill="grey" stroke="grey" stroke-width="2" points="498.64,-621.6 503.67,-612.27 493.92,-616.42 498.64,-621.6"/>
</g>
<!-- 7&#45;&gt;10 -->
<g id="edge23" class="edge">
<title>7&#45;&gt;10</title>
<path fill="none" stroke="grey" stroke-width="2" d="M691.22,-948.85C755.24,-942.11 867.88,-926.76 898,-900 929.2,-872.27 928,-852.74 928,-811 928,-811 928,-811 928,-593 928,-552.27 916.77,-506.19 908.54,-477.86"/>
<polygon fill="grey" stroke="grey" stroke-width="2" points="911.89,-476.85 905.67,-468.27 905.18,-478.86 911.89,-476.85"/>
</g>
<!-- 7&#45;&gt;12 -->
<g id="edge28" class="edge">
<title>7&#45;&gt;12</title>
<path fill="none" stroke="grey" stroke-width="2" d="M600.83,-952.73C454.06,-950.64 0,-934.23 0,-811 0,-811 0,-811 0,-593 0,-512.49 106.27,-475 169.38,-459.83"/>
<polygon fill="grey" stroke="grey" stroke-width="2" points="170.54,-463.16 179.5,-457.5 168.97,-456.33 170.54,-463.16"/>
</g>
<!-- 7&#45;&gt;14 -->
<g id="edge45" class="edge">
<title>7&#45;&gt;14</title>
<path fill="none" stroke="grey" stroke-width="2" d="M691.03,-953.58C837.35,-952.89 1290,-929.56 1290,-667 1290,-667 1290,-667 1290,-233 1290,-184.79 1267.85,-171.13 1228,-144 1199.74,-124.76 1108.98,-107.47 1052.33,-98.18"/>
<polygon fill="grey" stroke="grey" stroke-width="2" points="1052.6,-94.68 1042.17,-96.54 1051.48,-101.59 1052.6,-94.68"/>
</g>
<!-- 7&#45;&gt;20 -->
<g id="edge71" class="edge">
<title>7&#45;&gt;20</title>
<path fill="none" stroke="grey" stroke-width="2" d="M639.73,-935.78C630.67,-909.32 615,-856.92 615,-811 615,-811 615,-811 615,-665 615,-537.24 586,-506.76 586,-379 586,-379 586,-379 586,-305 586,-257.01 623.94,-212.96 651.87,-187.04"/>
<polygon fill="grey" stroke="grey" stroke-width="2" points="654.35,-189.52 659.44,-180.22 649.67,-184.31 654.35,-189.52"/>
</g>
<!-- 8 -->
<g id="node9" class="node">
<title>8</title>
<path fill="none" stroke="#c6d856" stroke-width="2" d="M395,-540C395,-540 255,-540 255,-540 249,-540 243,-534 243,-528 243,-528 243,-516 243,-516 243,-510 249,-504 255,-504 255,-504 395,-504 395,-504 401,-504 407,-510 407,-516 407,-516 407,-528 407,-528 407,-534 401,-540 395,-540"/>
<text text-anchor="middle" x="325" y="-519.5" font-family="sans" font-size="10.00">check_adequate_variant_counts</text>
</g>
<!-- 8&#45;&gt;0 -->
<g id="edge1" class="edge">
<title>8&#45;&gt;0</title>
<path fill="none" stroke="grey" stroke-width="2" d="M260.23,-503.98C175.59,-477.37 38,-417.17 38,-307 38,-307 38,-307 38,-161 38,-110 83.27,-66.88 116.76,-41.97"/>
<polygon fill="grey" stroke="grey" stroke-width="2" points="118.92,-44.73 124.98,-36.04 114.83,-39.05 118.92,-44.73"/>
</g>
<!-- 8&#45;&gt;10 -->
<g id="edge22" class="edge">
<title>8&#45;&gt;10</title>
<path fill="none" stroke="grey" stroke-width="2" d="M407.08,-511.01C528.93,-496.17 753.83,-468.79 852.03,-456.84"/>
<polygon fill="grey" stroke="grey" stroke-width="2" points="852.74,-460.28 862.24,-455.6 851.89,-453.33 852.74,-460.28"/>
</g>
<!-- 8&#45;&gt;12 -->
<g id="edge27" class="edge">
<title>8&#45;&gt;12</title>
<path fill="none" stroke="grey" stroke-width="2" d="M298.09,-503.88C283.84,-494.81 266.15,-483.55 250.76,-473.76"/>
<polygon fill="grey" stroke="grey" stroke-width="2" points="252.33,-470.61 242.01,-468.19 248.57,-476.51 252.33,-470.61"/>
</g>
<!-- 9&#45;&gt;8 -->
<g id="edge17" class="edge">
<title>9&#45;&gt;8</title>
<path fill="none" stroke="grey" stroke-width="2" d="M476.33,-575.97C448.39,-566.19 413.1,-553.84 383.64,-543.52"/>
<polygon fill="grey" stroke="grey" stroke-width="2" points="384.48,-540.11 373.89,-540.11 382.17,-546.72 384.48,-540.11"/>
</g>
<!-- 9&#45;&gt;14 -->
<g id="edge47" class="edge">
<title>9&#45;&gt;14</title>
<path fill="none" stroke="grey" stroke-width="2" d="M505.81,-575.83C471.45,-543.97 399.64,-471.98 363,-396 345.43,-359.57 344,-347.45 344,-307 344,-307 344,-307 344,-233 344,-107.49 805.33,-92.58 957.18,-91.07"/>
<polygon fill="grey" stroke="grey" stroke-width="2" points="957.6,-94.57 967.57,-90.99 957.54,-87.57 957.6,-94.57"/>
</g>
<!-- 9&#45;&gt;18 -->
<g id="edge58" class="edge">
<title>9&#45;&gt;18</title>
<path fill="none" stroke="grey" stroke-width="2" d="M537.11,-575.81C566.24,-535.22 643.74,-431.45 724,-360 736.45,-348.92 751.35,-338.34 764.85,-329.59"/>
<polygon fill="grey" stroke="grey" stroke-width="2" points="766.91,-332.43 773.47,-324.11 763.15,-326.52 766.91,-332.43"/>
</g>
<!-- 9&#45;&gt;20 -->
<g id="edge73" class="edge">
<title>9&#45;&gt;20</title>
<path fill="none" stroke="grey" stroke-width="2" d="M529.65,-575.66C536.38,-549.05 548,-496.45 548,-451 548,-451 548,-451 548,-305 548,-264.03 545.9,-247.58 572,-216 588.76,-195.73 615.14,-182.62 637.75,-174.51"/>
<polygon fill="grey" stroke="grey" stroke-width="2" points="639.14,-177.73 647.5,-171.23 636.9,-171.1 639.14,-177.73"/>
</g>
<!-- 10&#45;&gt;0 -->
<g id="edge4" class="edge">
<title>10&#45;&gt;0</title>
<path fill="none" stroke="grey" stroke-width="2" d="M937.88,-446.52C1055.09,-437.83 1404,-403.82 1404,-307 1404,-307 1404,-307 1404,-161 1404,-124.83 1560.12,-154.22 1222,-72 1019.96,-22.87 354.61,-19.13 189.39,-18.97"/>
<polygon fill="grey" stroke="grey" stroke-width="2" points="189.24,-15.47 179.24,-18.97 189.24,-22.47 189.24,-15.47"/>
</g>
<!-- 11 -->
<g id="node12" class="node">
<title>11</title>
<path fill="none" stroke="#56d87b" stroke-width="2" d="M1125.5,-396C1125.5,-396 1072.5,-396 1072.5,-396 1066.5,-396 1060.5,-390 1060.5,-384 1060.5,-384 1060.5,-372 1060.5,-372 1060.5,-366 1066.5,-360 1072.5,-360 1072.5,-360 1125.5,-360 1125.5,-360 1131.5,-360 1137.5,-366 1137.5,-372 1137.5,-372 1137.5,-384 1137.5,-384 1137.5,-390 1131.5,-396 1125.5,-396"/>
<text text-anchor="middle" x="1099" y="-375.5" font-family="sans" font-size="10.00">fit_polyclonal</text>
</g>
<!-- 10&#45;&gt;11 -->
<g id="edge26" class="edge">
<title>10&#45;&gt;11</title>
<path fill="none" stroke="grey" stroke-width="2" d="M937.55,-435.85C968.11,-425.15 1012.35,-409.63 1051,-396 1051.1,-395.97 1051.19,-395.93 1051.29,-395.9"/>
<polygon fill="grey" stroke="grey" stroke-width="2" points="1052.23,-399.28 1060.49,-392.65 1049.9,-392.68 1052.23,-399.28"/>
</g>
<!-- 10&#45;&gt;14 -->
<g id="edge39" class="edge">
<title>10&#45;&gt;14</title>
<path fill="none" stroke="grey" stroke-width="2" d="M937.7,-443.03C1002.96,-432.39 1131.53,-409.95 1147,-396 1177.9,-368.15 1176,-348.6 1176,-307 1176,-307 1176,-307 1176,-233 1176,-168.11 1102.21,-127.2 1051.58,-106.76"/>
<polygon fill="grey" stroke="grey" stroke-width="2" points="1052.69,-103.44 1042.1,-103.06 1050.15,-109.96 1052.69,-103.44"/>
</g>
<!-- 16 -->
<g id="node17" class="node">
<title>16</title>
<path fill="none" stroke="#56a2d8" stroke-width="2" d="M1030,-396C1030,-396 940,-396 940,-396 934,-396 928,-390 928,-384 928,-384 928,-372 928,-372 928,-366 934,-360 940,-360 940,-360 1030,-360 1030,-360 1036,-360 1042,-366 1042,-372 1042,-372 1042,-384 1042,-384 1042,-390 1036,-396 1030,-396"/>
<text text-anchor="middle" x="985" y="-375.5" font-family="sans" font-size="10.00">analyze_prob_escape</text>
</g>
<!-- 10&#45;&gt;16 -->
<g id="edge49" class="edge">
<title>10&#45;&gt;16</title>
<path fill="none" stroke="grey" stroke-width="2" d="M921.01,-431.7C931.72,-422.88 944.89,-412.03 956.5,-402.47"/>
<polygon fill="grey" stroke="grey" stroke-width="2" points="958.74,-405.16 964.23,-396.1 954.29,-399.76 958.74,-405.16"/>
</g>
<!-- 10&#45;&gt;20 -->
<g id="edge66" class="edge">
<title>10&#45;&gt;20</title>
<path fill="none" stroke="grey" stroke-width="2" d="M862.21,-433.51C820.76,-414.37 755.91,-377.63 724,-324 698.64,-281.37 687.96,-223.63 683.67,-190.14"/>
<polygon fill="grey" stroke="grey" stroke-width="2" points="687.15,-189.69 682.5,-180.17 680.19,-190.51 687.15,-189.69"/>
</g>
<!-- 11&#45;&gt;0 -->
<g id="edge6" class="edge">
<title>11&#45;&gt;0</title>
<path fill="none" stroke="grey" stroke-width="2" d="M1137.54,-374.06C1211.48,-366.11 1366,-337.25 1366,-235 1366,-235 1366,-235 1366,-161 1366,-39.44 393.3,-21.72 189.26,-19.35"/>
<polygon fill="grey" stroke="grey" stroke-width="2" points="189.1,-15.84 179.06,-19.23 189.02,-22.84 189.1,-15.84"/>
</g>
<!-- 11&#45;&gt;14 -->
<g id="edge44" class="edge">
<title>11&#45;&gt;14</title>
<path fill="none" stroke="grey" stroke-width="2" d="M1101.63,-359.83C1106.94,-319.27 1115.29,-215.58 1075,-144 1068.27,-132.04 1057.61,-121.93 1046.62,-113.86"/>
<polygon fill="grey" stroke="grey" stroke-width="2" points="1048.44,-110.86 1038.22,-108.09 1044.48,-116.63 1048.44,-110.86"/>
</g>
<!-- 11&#45;&gt;18 -->
<g id="edge56" class="edge">
<title>11&#45;&gt;18</title>
<path fill="none" stroke="grey" stroke-width="2" d="M1060.37,-362.83C1057.21,-361.82 1054.06,-360.87 1051,-360 1013.85,-349.5 911.23,-328.52 850.27,-316.34"/>
<polygon fill="grey" stroke="grey" stroke-width="2" points="850.62,-312.84 840.13,-314.32 849.25,-319.7 850.62,-312.84"/>
</g>
<!-- 11&#45;&gt;20 -->
<g id="edge70" class="edge">
<title>11&#45;&gt;20</title>
<path fill="none" stroke="grey" stroke-width="2" d="M1066.17,-359.82C1021.55,-336.29 939.45,-292.33 871,-252 845.18,-236.79 840.7,-229.6 814,-216 784.94,-201.19 750.72,-187.64 724.27,-177.94"/>
<polygon fill="grey" stroke="grey" stroke-width="2" points="725.13,-174.53 714.54,-174.42 722.75,-181.12 725.13,-174.53"/>
</g>
<!-- 12&#45;&gt;0 -->
<g id="edge5" class="edge">
<title>12&#45;&gt;0</title>
<path fill="none" stroke="grey" stroke-width="2" d="M191.83,-431.87C162.01,-407.66 114,-360.4 114,-307 114,-307 114,-307 114,-161 114,-119.63 129.23,-73.72 140.41,-45.61"/>
<polygon fill="grey" stroke="grey" stroke-width="2" points="143.76,-46.67 144.31,-36.09 137.28,-44.02 143.76,-46.67"/>
</g>
<!-- 13 -->
<g id="node14" class="node">
<title>13</title>
<path fill="none" stroke="#afd856" stroke-width="2" d="M266,-396C266,-396 192,-396 192,-396 186,-396 180,-390 180,-384 180,-384 180,-372 180,-372 180,-366 186,-360 192,-360 192,-360 266,-360 266,-360 272,-360 278,-366 278,-372 278,-372 278,-384 278,-384 278,-390 272,-396 266,-396"/>
<text text-anchor="middle" x="229" y="-375.5" font-family="sans" font-size="10.00">fit_globalepistasis</text>
</g>
<!-- 12&#45;&gt;13 -->
<g id="edge31" class="edge">
<title>12&#45;&gt;13</title>
<path fill="none" stroke="grey" stroke-width="2" d="M218.46,-431.7C220,-423.98 221.86,-414.71 223.58,-406.11"/>
<polygon fill="grey" stroke="grey" stroke-width="2" points="227.05,-406.6 225.58,-396.1 220.19,-405.22 227.05,-406.6"/>
</g>
<!-- 12&#45;&gt;14 -->
<g id="edge43" class="edge">
<title>12&#45;&gt;14</title>
<path fill="none" stroke="grey" stroke-width="2" d="M195.53,-431.92C186.18,-422.4 175.95,-409.72 171,-396 165.57,-380.95 166.96,-375.48 171,-360 184.89,-306.77 245.6,-173.56 292,-144 347.91,-108.38 806.99,-95.3 957.45,-91.95"/>
<polygon fill="grey" stroke="grey" stroke-width="2" points="957.82,-95.44 967.74,-91.72 957.67,-88.44 957.82,-95.44"/>
</g>
<!-- 15 -->
<g id="node16" class="node">
<title>15</title>
<path fill="none" stroke="#d8a456" stroke-width="2" d="M470,-396C470,-396 384,-396 384,-396 378,-396 372,-390 372,-384 372,-384 372,-372 372,-372 372,-366 378,-360 384,-360 384,-360 470,-360 470,-360 476,-360 482,-366 482,-372 482,-372 482,-384 482,-384 482,-390 476,-396 470,-396"/>
<text text-anchor="middle" x="427" y="-375.5" font-family="sans" font-size="10.00">analyze_func_scores</text>
</g>
<!-- 12&#45;&gt;15 -->
<g id="edge48" class="edge">
<title>12&#45;&gt;15</title>
<path fill="none" stroke="grey" stroke-width="2" d="M250.96,-437.13C282.3,-426.78 328.43,-411.55 365.6,-399.27"/>
<polygon fill="grey" stroke="grey" stroke-width="2" points="366.94,-402.52 375.34,-396.06 364.74,-395.87 366.94,-402.52"/>
</g>
<!-- 12&#45;&gt;20 -->
<g id="edge69" class="edge">
<title>12&#45;&gt;20</title>
<path fill="none" stroke="grey" stroke-width="2" d="M240.4,-431.77C254.53,-421.83 272.2,-408.79 287,-396 372.12,-322.43 367.13,-271.49 465,-216 519.53,-185.08 591.77,-172.06 637.33,-166.68"/>
<polygon fill="grey" stroke="grey" stroke-width="2" points="637.91,-170.13 647.47,-165.55 637.14,-163.17 637.91,-170.13"/>
</g>
<!-- 13&#45;&gt;0 -->
<g id="edge2" class="edge">
<title>13&#45;&gt;0</title>
<path fill="none" stroke="grey" stroke-width="2" d="M212.29,-359.81C189.65,-334.62 152,-285.2 152,-235 152,-235 152,-235 152,-161 152,-121 152,-74.65 152,-46.08"/>
<polygon fill="grey" stroke="grey" stroke-width="2" points="155.5,-46.05 152,-36.05 148.5,-46.05 155.5,-46.05"/>
</g>
<!-- 13&#45;&gt;14 -->
<g id="edge36" class="edge">
<title>13&#45;&gt;14</title>
<path fill="none" stroke="grey" stroke-width="2" d="M230.59,-359.85C235.73,-315.49 256.09,-196.78 330,-144 380.81,-107.72 812.1,-95.16 957.42,-91.93"/>
<polygon fill="grey" stroke="grey" stroke-width="2" points="957.86,-95.42 967.78,-91.71 957.71,-88.42 957.86,-95.42"/>
</g>
<!-- 13&#45;&gt;18 -->
<g id="edge52" class="edge">
<title>13&#45;&gt;18</title>
<path fill="none" stroke="grey" stroke-width="2" d="M278.31,-370.67C303.62,-367.44 334.96,-363.47 363,-360 505.87,-342.33 674.93,-322.18 755.59,-312.61"/>
<polygon fill="grey" stroke="grey" stroke-width="2" points="756.39,-316.04 765.9,-311.39 755.56,-309.09 756.39,-316.04"/>
</g>
<!-- 13&#45;&gt;20 -->
<g id="edge63" class="edge">
<title>13&#45;&gt;20</title>
<path fill="none" stroke="grey" stroke-width="2" d="M246.82,-359.97C286.34,-322.53 380.96,-234.88 420,-216 491.03,-181.66 583.32,-169.55 636.98,-165.29"/>
<polygon fill="grey" stroke="grey" stroke-width="2" points="637.46,-168.77 647.17,-164.54 636.94,-161.79 637.46,-168.77"/>
</g>
<!-- 14&#45;&gt;0 -->
<g id="edge7" class="edge">
<title>14&#45;&gt;0</title>
<path fill="none" stroke="grey" stroke-width="2" d="M967.8,-85.95C827.32,-74.42 329.98,-33.61 189.31,-22.06"/>
<polygon fill="grey" stroke="grey" stroke-width="2" points="189.31,-18.55 179.06,-21.22 188.74,-25.53 189.31,-18.55"/>
</g>
<!-- 15&#45;&gt;14 -->
<g id="edge38" class="edge">
<title>15&#45;&gt;14</title>
<path fill="none" stroke="grey" stroke-width="2" d="M425.62,-359.88C423.99,-327.05 425.47,-255.06 465,-216 524.25,-157.47 557.71,-166.13 638,-144 750.16,-113.09 886.86,-99.41 957.56,-94.04"/>
<polygon fill="grey" stroke="grey" stroke-width="2" points="958.2,-97.5 967.91,-93.27 957.68,-90.52 958.2,-97.5"/>
</g>
<!-- 15&#45;&gt;18 -->
<g id="edge53" class="edge">
<title>15&#45;&gt;18</title>
<path fill="none" stroke="grey" stroke-width="2" d="M482.08,-366.75C556,-352.98 686.05,-328.77 755.75,-315.8"/>
<polygon fill="grey" stroke="grey" stroke-width="2" points="756.8,-319.16 765.99,-313.89 755.51,-312.28 756.8,-319.16"/>
</g>
<!-- 15&#45;&gt;20 -->
<g id="edge65" class="edge">
<title>15&#45;&gt;20</title>
<path fill="none" stroke="grey" stroke-width="2" d="M429.44,-359.85C435.02,-326.98 451.86,-254.91 496,-216 535.39,-181.28 596.15,-169.21 637.19,-165.07"/>
<polygon fill="grey" stroke="grey" stroke-width="2" points="637.53,-168.56 647.18,-164.18 636.91,-161.58 637.53,-168.56"/>
</g>
<!-- 16&#45;&gt;14 -->
<g id="edge46" class="edge">
<title>16&#45;&gt;14</title>
<path fill="none" stroke="grey" stroke-width="2" d="M1000.11,-359.91C1019.12,-337.16 1050.75,-294.79 1063,-252 1068.44,-233.01 1063.68,-154.33 1059,-144 1054.01,-132.99 1045.63,-123.04 1036.94,-114.82"/>
<polygon fill="grey" stroke="grey" stroke-width="2" points="1039.11,-112.06 1029.3,-108.06 1034.47,-117.31 1039.11,-112.06"/>
</g>
<!-- 16&#45;&gt;18 -->
<g id="edge57" class="edge">
<title>16&#45;&gt;18</title>
<path fill="none" stroke="grey" stroke-width="2" d="M940.48,-359.88C912.9,-349.27 877.53,-335.66 849.57,-324.91"/>
<polygon fill="grey" stroke="grey" stroke-width="2" points="850.61,-321.56 840.02,-321.24 848.09,-328.09 850.61,-321.56"/>
</g>
<!-- 16&#45;&gt;20 -->
<g id="edge72" class="edge">
<title>16&#45;&gt;20</title>
<path fill="none" stroke="grey" stroke-width="2" d="M950.18,-359.77C932.15,-350.22 910.18,-337.55 892,-324 836.29,-282.49 835.16,-256.89 779,-216 761.82,-203.49 741.34,-191.96 723.56,-182.87"/>
<polygon fill="grey" stroke="grey" stroke-width="2" points="725.04,-179.7 714.53,-178.35 721.9,-185.96 725.04,-179.7"/>
</g>
<!-- 17 -->
<g id="node18" class="node">
<title>17</title>
<path fill="none" stroke="#d86e56" stroke-width="2" d="M1022,-252C1022,-252 988,-252 988,-252 982,-252 976,-246 976,-240 976,-240 976,-228 976,-228 976,-222 982,-216 988,-216 988,-216 1022,-216 1022,-216 1028,-216 1034,-222 1034,-228 1034,-228 1034,-240 1034,-240 1034,-246 1028,-252 1022,-252"/>
<text text-anchor="middle" x="1005" y="-231.5" font-family="sans" font-size="10.00">subindex</text>
</g>
<!-- 17&#45;&gt;14 -->
<g id="edge34" class="edge">
<title>17&#45;&gt;14</title>
<path fill="none" stroke="grey" stroke-width="2" d="M1005,-215.87C1005,-191.67 1005,-147.21 1005,-118.39"/>
<polygon fill="grey" stroke="grey" stroke-width="2" points="1008.5,-118.19 1005,-108.19 1001.5,-118.19 1008.5,-118.19"/>
</g>
<!-- 17&#45;&gt;20 -->
<g id="edge61" class="edge">
<title>17&#45;&gt;20</title>
<path fill="none" stroke="grey" stroke-width="2" d="M975.81,-219.11C972.87,-217.97 969.9,-216.9 967,-216 883.26,-189.92 781.5,-174.83 724.71,-167.82"/>
<polygon fill="grey" stroke="grey" stroke-width="2" points="725,-164.33 714.65,-166.61 724.16,-171.28 725,-164.33"/>
</g>
<!-- 18&#45;&gt;14 -->
<g id="edge35" class="edge">
<title>18&#45;&gt;14</title>
<path fill="none" stroke="grey" stroke-width="2" d="M840.46,-302.3C901.47,-297.05 1018.01,-283.1 1043,-252 1074.7,-212.54 1044.74,-151.1 1022.99,-116.65"/>
<polygon fill="grey" stroke="grey" stroke-width="2" points="1025.81,-114.56 1017.41,-108.1 1019.95,-118.38 1025.81,-114.56"/>
</g>
<!-- 18&#45;&gt;17 -->
<g id="edge50" class="edge">
<title>18&#45;&gt;17</title>
<path fill="none" stroke="grey" stroke-width="2" d="M840.2,-294.23C871.67,-284.84 918.08,-270.35 966.33,-252.08"/>
<polygon fill="grey" stroke="grey" stroke-width="2" points="967.59,-255.34 975.67,-248.5 965.08,-248.8 967.59,-255.34"/>
</g>
<!-- 18&#45;&gt;20 -->
<g id="edge62" class="edge">
<title>18&#45;&gt;20</title>
<path fill="none" stroke="grey" stroke-width="2" d="M795.79,-287.94C787.23,-268.98 771.6,-238.13 752,-216 742.07,-204.79 729.42,-194.44 717.56,-185.92"/>
<polygon fill="grey" stroke="grey" stroke-width="2" points="719.32,-182.88 709.11,-180.05 715.33,-188.63 719.32,-182.88"/>
</g>
<!-- 19 -->
<g id="node20" class="node">
<title>19</title>
<path fill="none" stroke="#56d8a9" stroke-width="2" d="M946,-252C946,-252 892,-252 892,-252 886,-252 880,-246 880,-240 880,-240 880,-228 880,-228 880,-222 886,-216 892,-216 892,-216 946,-216 946,-216 952,-216 958,-222 958,-228 958,-228 958,-240 958,-240 958,-246 952,-252 946,-252"/>
<text text-anchor="middle" x="919" y="-231.5" font-family="sans" font-size="10.00">make_graphs</text>
</g>
<!-- 19&#45;&gt;14 -->
<g id="edge33" class="edge">
<title>19&#45;&gt;14</title>
<path fill="none" stroke="grey" stroke-width="2" d="M929.37,-215.87C944.29,-191.24 971.91,-145.64 989.32,-116.88"/>
<polygon fill="grey" stroke="grey" stroke-width="2" points="992.4,-118.56 994.59,-108.19 986.42,-114.93 992.4,-118.56"/>
</g>
<!-- 19&#45;&gt;20 -->
<g id="edge60" class="edge">
<title>19&#45;&gt;20</title>
<path fill="none" stroke="grey" stroke-width="2" d="M879.97,-220.33C875.27,-218.85 870.53,-217.38 866,-216 817.78,-201.36 762.17,-185.58 724.61,-175.08"/>
<polygon fill="grey" stroke="grey" stroke-width="2" points="725.09,-171.58 714.51,-172.26 723.2,-178.32 725.09,-171.58"/>
</g>
<!-- 20&#45;&gt;14 -->
<g id="edge41" class="edge">
<title>20&#45;&gt;14</title>
<path fill="none" stroke="grey" stroke-width="2" d="M714.76,-153.71C772.76,-141.18 891.47,-115.53 957.69,-101.22"/>
<polygon fill="grey" stroke="grey" stroke-width="2" points="958.81,-104.56 967.85,-99.03 957.34,-97.72 958.81,-104.56"/>
</g>
</g>
</svg>
