<?xml version="1.0" encoding="UTF-8" standalone="no"?>
<!DOCTYPE svg PUBLIC "-//W3C//DTD SVG 1.1//EN"
 "http://www.w3.org/Graphics/SVG/1.1/DTD/svg11.dtd">
<!-- Generated by graphviz version 7.1.0 (20230122.1345)
 -->
<!-- Title: snakemake_dag Pages: 1 -->
<svg width="1639pt" height="1124pt"
 viewBox="0.00 0.00 1638.81 1124.00" xmlns="http://www.w3.org/2000/svg" xmlns:xlink="http://www.w3.org/1999/xlink">
<g id="graph0" class="graph" transform="scale(1 1) rotate(0) translate(4 1120)">
<title>snakemake_dag</title>
<polygon fill="white" stroke="none" points="-4,4 -4,-1120 1634.81,-1120 1634.81,4 -4,4"/>
<!-- 0 -->
<g id="node1" class="node">
<title>0</title>
<path fill="none" stroke="#d86e56" stroke-width="2" d="M129,-36C129,-36 99,-36 99,-36 93,-36 87,-30 87,-24 87,-24 87,-12 87,-12 87,-6 93,0 99,0 99,0 129,0 129,0 135,0 141,-6 141,-12 141,-12 141,-24 141,-24 141,-30 135,-36 129,-36"/>
<text text-anchor="middle" x="114" y="-15.5" font-family="sans" font-size="10.00">all</text>
</g>
<!-- 1 -->
<g id="node2" class="node">
<title>1</title>
<path fill="none" stroke="#56d892" stroke-width="2" d="M590,-756C590,-756 530,-756 530,-756 524,-756 518,-750 518,-744 518,-744 518,-732 518,-732 518,-726 524,-720 530,-720 530,-720 590,-720 590,-720 596,-720 602,-726 602,-732 602,-732 602,-744 602,-744 602,-750 596,-756 590,-756"/>
<text text-anchor="middle" x="560" y="-735.5" font-family="sans" font-size="10.00">variant_counts</text>
</g>
<!-- 1&#45;&gt;0 -->
<g id="edge1" class="edge">
<title>1&#45;&gt;0</title>
<path fill="none" stroke="grey" stroke-width="2" d="M517.45,-735.16C386.77,-727 0,-683.25 0,-451 0,-451 0,-451 0,-161 0,-111.51 42.64,-69.44 75.76,-44.23"/>
<polygon fill="grey" stroke="grey" stroke-width="2" points="77.67,-47.17 83.67,-38.44 73.53,-41.52 77.67,-47.17"/>
</g>
<!-- 9 -->
<g id="node10" class="node">
<title>9</title>
<path fill="none" stroke="#d8cb56" stroke-width="2" d="M497.5,-684C497.5,-684 398.5,-684 398.5,-684 392.5,-684 386.5,-678 386.5,-672 386.5,-672 386.5,-660 386.5,-660 386.5,-654 392.5,-648 398.5,-648 398.5,-648 497.5,-648 497.5,-648 503.5,-648 509.5,-654 509.5,-660 509.5,-660 509.5,-672 509.5,-672 509.5,-678 503.5,-684 497.5,-684"/>
<text text-anchor="middle" x="448" y="-663.5" font-family="sans" font-size="10.00">analyze_variant_counts</text>
</g>
<!-- 1&#45;&gt;9 -->
<g id="edge18" class="edge">
<title>1&#45;&gt;9</title>
<path fill="none" stroke="grey" stroke-width="2" d="M531.45,-719.15C518.02,-710.76 501.79,-700.62 487.24,-691.52"/>
<polygon fill="grey" stroke="grey" stroke-width="2" points="489.4,-688.75 479.07,-686.42 485.69,-694.68 489.4,-688.75"/>
</g>
<!-- 13 -->
<g id="node14" class="node">
<title>13</title>
<path fill="none" stroke="#56d86b" stroke-width="2" d="M843.5,-684C843.5,-684 796.5,-684 796.5,-684 790.5,-684 784.5,-678 784.5,-672 784.5,-672 784.5,-660 784.5,-660 784.5,-654 790.5,-648 796.5,-648 796.5,-648 843.5,-648 843.5,-648 849.5,-648 855.5,-654 855.5,-660 855.5,-660 855.5,-672 855.5,-672 855.5,-678 849.5,-684 843.5,-684"/>
<text text-anchor="middle" x="820" y="-663.5" font-family="sans" font-size="10.00">func_scores</text>
</g>
<!-- 1&#45;&gt;13 -->
<g id="edge25" class="edge">
<title>1&#45;&gt;13</title>
<path fill="none" stroke="grey" stroke-width="2" d="M602.93,-725.44C649.27,-712.96 722.93,-693.13 771.37,-680.09"/>
<polygon fill="grey" stroke="grey" stroke-width="2" points="772.05,-683.53 780.8,-677.55 770.23,-676.77 772.05,-683.53"/>
</g>
<!-- 16 -->
<g id="node17" class="node">
<title>16</title>
<path fill="none" stroke="#68d856" stroke-width="2" d="M634.5,-540C634.5,-540 583.5,-540 583.5,-540 577.5,-540 571.5,-534 571.5,-528 571.5,-528 571.5,-516 571.5,-516 571.5,-510 577.5,-504 583.5,-504 583.5,-504 634.5,-504 634.5,-504 640.5,-504 646.5,-510 646.5,-516 646.5,-516 646.5,-528 646.5,-528 646.5,-534 640.5,-540 634.5,-540"/>
<text text-anchor="middle" x="609" y="-519.5" font-family="sans" font-size="10.00">prob_escape</text>
</g>
<!-- 1&#45;&gt;16 -->
<g id="edge30" class="edge">
<title>1&#45;&gt;16</title>
<path fill="none" stroke="grey" stroke-width="2" d="M564.09,-719.12C572.47,-682.54 591.65,-598.77 602.03,-553.45"/>
<polygon fill="grey" stroke="grey" stroke-width="2" points="605.39,-554.46 604.21,-543.93 598.56,-552.89 605.39,-554.46"/>
</g>
<!-- 17 -->
<g id="node18" class="node">
<title>17</title>
<path fill="none" stroke="#d8a456" stroke-width="2" d="M1138,-108C1138,-108 1088,-108 1088,-108 1082,-108 1076,-102 1076,-96 1076,-96 1076,-84 1076,-84 1076,-78 1082,-72 1088,-72 1088,-72 1138,-72 1138,-72 1144,-72 1150,-78 1150,-84 1150,-84 1150,-96 1150,-96 1150,-102 1144,-108 1138,-108"/>
<text text-anchor="middle" x="1113" y="-87.5" font-family="sans" font-size="10.00">sphinx_build</text>
</g>
<!-- 1&#45;&gt;17 -->
<g id="edge44" class="edge">
<title>1&#45;&gt;17</title>
<path fill="none" stroke="grey" stroke-width="2" d="M562.91,-719.18C567.18,-686.44 571.09,-616.39 535,-576 494.48,-530.66 454.55,-572.26 403,-540 294.86,-472.34 258.87,-443.41 214,-324 182.27,-239.55 309.47,-148.72 318,-144 382.94,-108.02 898.07,-95.11 1062.64,-91.88"/>
<polygon fill="grey" stroke="grey" stroke-width="2" points="1062.27,-95.39 1072.2,-91.7 1062.13,-88.39 1062.27,-95.39"/>
</g>
<!-- 25 -->
<g id="node26" class="node">
<title>25</title>
<path fill="none" stroke="#56b9d8" stroke-width="2" d="M820.5,-180C820.5,-180 777.5,-180 777.5,-180 771.5,-180 765.5,-174 765.5,-168 765.5,-168 765.5,-156 765.5,-156 765.5,-150 771.5,-144 777.5,-144 777.5,-144 820.5,-144 820.5,-144 826.5,-144 832.5,-150 832.5,-156 832.5,-156 832.5,-168 832.5,-168 832.5,-174 826.5,-180 820.5,-180"/>
<text text-anchor="middle" x="799" y="-159.5" font-family="sans" font-size="10.00">docs_index</text>
</g>
<!-- 1&#45;&gt;25 -->
<g id="edge76" class="edge">
<title>1&#45;&gt;25</title>
<path fill="none" stroke="grey" stroke-width="2" d="M581.95,-719.14C630.36,-677.6 742,-569 742,-451 742,-451 742,-451 742,-305 742,-264.03 749.66,-253.57 766,-216 769.56,-207.81 774.24,-199.41 778.96,-191.78"/>
<polygon fill="grey" stroke="grey" stroke-width="2" points="781.85,-193.75 784.36,-183.45 775.98,-189.94 781.85,-193.75"/>
</g>
<!-- 2 -->
<g id="node3" class="node">
<title>2</title>
<path fill="none" stroke="#d85656" stroke-width="2" d="M589.5,-828C589.5,-828 524.5,-828 524.5,-828 518.5,-828 512.5,-822 512.5,-816 512.5,-816 512.5,-804 512.5,-804 512.5,-798 518.5,-792 524.5,-792 524.5,-792 589.5,-792 589.5,-792 595.5,-792 601.5,-798 601.5,-804 601.5,-804 601.5,-816 601.5,-816 601.5,-822 595.5,-828 589.5,-828"/>
<text text-anchor="middle" x="557" y="-807.5" font-family="sans" font-size="10.00">count_barcodes</text>
</g>
<!-- 2&#45;&gt;1 -->
<g id="edge6" class="edge">
<title>2&#45;&gt;1</title>
<path fill="none" stroke="grey" stroke-width="2" d="M557.76,-791.34C558.04,-784.75 558.37,-777.08 558.69,-769.67"/>
<polygon fill="grey" stroke="grey" stroke-width="2" points="562.17,-770.07 559.1,-759.93 555.18,-769.77 562.17,-770.07"/>
</g>
<!-- 2&#45;&gt;9 -->
<g id="edge16" class="edge">
<title>2&#45;&gt;9</title>
<path fill="none" stroke="grey" stroke-width="2" d="M539.94,-791.38C530.47,-781.31 518.69,-768.28 509,-756 493.67,-736.58 477.92,-713.51 466.27,-695.73"/>
<polygon fill="grey" stroke="grey" stroke-width="2" points="469.27,-693.92 460.89,-687.43 463.39,-697.73 469.27,-693.92"/>
</g>
<!-- 3 -->
<g id="node4" class="node">
<title>3</title>
<path fill="none" stroke="#8fd856" stroke-width="2" d="M759.5,-900C759.5,-900 670.5,-900 670.5,-900 664.5,-900 658.5,-894 658.5,-888 658.5,-888 658.5,-876 658.5,-876 658.5,-870 664.5,-864 670.5,-864 670.5,-864 759.5,-864 759.5,-864 765.5,-864 771.5,-870 771.5,-876 771.5,-876 771.5,-888 771.5,-888 771.5,-894 765.5,-900 759.5,-900"/>
<text text-anchor="middle" x="715" y="-879.5" font-family="sans" font-size="10.00">build_codon_variants</text>
</g>
<!-- 3&#45;&gt;1 -->
<g id="edge7" class="edge">
<title>3&#45;&gt;1</title>
<path fill="none" stroke="grey" stroke-width="2" d="M695.37,-863.02C668.47,-838.37 619.95,-793.92 588.89,-765.47"/>
<polygon fill="grey" stroke="grey" stroke-width="2" points="591.44,-763.06 581.7,-758.88 586.71,-768.22 591.44,-763.06"/>
</g>
<!-- 3&#45;&gt;2 -->
<g id="edge9" class="edge">
<title>3&#45;&gt;2</title>
<path fill="none" stroke="grey" stroke-width="2" d="M674.72,-863.15C654.83,-854.34 630.6,-843.61 609.3,-834.17"/>
<polygon fill="grey" stroke="grey" stroke-width="2" points="610.81,-831.01 600.25,-830.16 607.97,-837.41 610.81,-831.01"/>
</g>
<!-- 3&#45;&gt;9 -->
<g id="edge17" class="edge">
<title>3&#45;&gt;9</title>
<path fill="none" stroke="grey" stroke-width="2" d="M657.61,-881.07C610.48,-878.09 544.9,-866.51 503,-828 465.98,-793.97 453.87,-734 449.92,-697.64"/>
<polygon fill="grey" stroke="grey" stroke-width="2" points="453.43,-697.62 449.04,-687.98 446.46,-698.25 453.43,-697.62"/>
</g>
<!-- 3&#45;&gt;13 -->
<g id="edge26" class="edge">
<title>3&#45;&gt;13</title>
<path fill="none" stroke="grey" stroke-width="2" d="M731.64,-863.4C740.32,-853.55 750.64,-840.72 758,-828 782.79,-785.16 801.41,-730.55 811.49,-697.21"/>
<polygon fill="grey" stroke="grey" stroke-width="2" points="814.85,-698.21 814.32,-687.63 808.13,-696.23 814.85,-698.21"/>
</g>
<!-- 3&#45;&gt;16 -->
<g id="edge31" class="edge">
<title>3&#45;&gt;16</title>
<path fill="none" stroke="grey" stroke-width="2" d="M713.08,-863.12C707.44,-814.99 688.46,-679.38 644,-576 640.37,-567.56 635.4,-559 630.34,-551.29"/>
<polygon fill="grey" stroke="grey" stroke-width="2" points="633.31,-549.44 624.74,-543.21 627.56,-553.42 633.31,-549.44"/>
</g>
<!-- 3&#45;&gt;17 -->
<g id="edge39" class="edge">
<title>3&#45;&gt;17</title>
<path fill="none" stroke="grey" stroke-width="2" d="M737.23,-863.04C813.53,-801.44 1062.25,-601.12 1101,-576 1180.32,-524.58 1478,-473.53 1478,-379 1478,-379 1478,-379 1478,-233 1478,-186.03 1460.14,-169.97 1421,-144 1379.54,-116.49 1239.42,-101.2 1163.27,-94.73"/>
<polygon fill="grey" stroke="grey" stroke-width="2" points="1164,-91.28 1153.75,-93.95 1163.42,-98.26 1164,-91.28"/>
</g>
<!-- 21 -->
<g id="node22" class="node">
<title>21</title>
<path fill="none" stroke="#d89556" stroke-width="2" d="M957,-324C957,-324 907,-324 907,-324 901,-324 895,-318 895,-312 895,-312 895,-300 895,-300 895,-294 901,-288 907,-288 907,-288 957,-288 957,-288 963,-288 969,-294 969,-300 969,-300 969,-312 969,-312 969,-318 963,-324 957,-324"/>
<text text-anchor="middle" x="932" y="-303.5" font-family="sans" font-size="10.00">make_nblink</text>
</g>
<!-- 3&#45;&gt;21 -->
<g id="edge57" class="edge">
<title>3&#45;&gt;21</title>
<path fill="none" stroke="grey" stroke-width="2" d="M718.57,-863.15C726.69,-823.7 748.05,-726.38 776,-648 818.48,-528.89 886.31,-394.21 916.56,-336.16"/>
<polygon fill="grey" stroke="grey" stroke-width="2" points="919.64,-337.82 921.18,-327.34 913.44,-334.57 919.64,-337.82"/>
</g>
<!-- 3&#45;&gt;25 -->
<g id="edge71" class="edge">
<title>3&#45;&gt;25</title>
<path fill="none" stroke="grey" stroke-width="2" d="M657.7,-881.33C528.97,-878.75 228,-852.86 228,-667 228,-667 228,-667 228,-377 228,-230.91 411.6,-334.73 532,-252 550.14,-239.54 546.89,-226.91 566,-216 582.09,-206.81 689.24,-184.63 752.49,-172.07"/>
<polygon fill="grey" stroke="grey" stroke-width="2" points="752.79,-175.58 761.92,-170.2 751.43,-168.71 752.79,-175.58"/>
</g>
<!-- 4 -->
<g id="node5" class="node">
<title>4</title>
<path fill="none" stroke="#59d856" stroke-width="2" d="M973,-972C973,-972 871,-972 871,-972 865,-972 859,-966 859,-960 859,-960 859,-948 859,-948 859,-942 865,-936 871,-936 871,-936 973,-936 973,-936 979,-936 985,-942 985,-948 985,-948 985,-960 985,-960 985,-966 979,-972 973,-972"/>
<text text-anchor="middle" x="922" y="-951.5" font-family="sans" font-size="10.00">build_pacbio_consensus</text>
</g>
<!-- 4&#45;&gt;3 -->
<g id="edge11" class="edge">
<title>4&#45;&gt;3</title>
<path fill="none" stroke="grey" stroke-width="2" d="M868.96,-935.06C841.81,-925.88 808.54,-914.63 779.87,-904.94"/>
<polygon fill="grey" stroke="grey" stroke-width="2" points="781.36,-901.75 770.77,-901.86 779.12,-908.38 781.36,-901.75"/>
</g>
<!-- 4&#45;&gt;17 -->
<g id="edge43" class="edge">
<title>4&#45;&gt;17</title>
<path fill="none" stroke="grey" stroke-width="2" d="M929.22,-935.06C950.34,-884.43 1016.44,-738.26 1110,-648 1265.79,-497.72 1516,-595.46 1516,-379 1516,-379 1516,-379 1516,-233 1516,-185.3 1496.28,-169.56 1456,-144 1408.42,-113.81 1247.27,-99.44 1163.9,-93.89"/>
<polygon fill="grey" stroke="grey" stroke-width="2" points="1164.2,-90.4 1154,-93.26 1163.75,-97.39 1164.2,-90.4"/>
</g>
<!-- 4&#45;&gt;21 -->
<g id="edge63" class="edge">
<title>4&#45;&gt;21</title>
<path fill="none" stroke="grey" stroke-width="2" d="M924.49,-935.11C928,-908.22 934,-855.78 934,-811 934,-811 934,-811 934,-665 934,-543.91 932.84,-399.78 932.29,-337.82"/>
<polygon fill="grey" stroke="grey" stroke-width="2" points="935.79,-337.87 932.2,-327.91 928.79,-337.94 935.79,-337.87"/>
</g>
<!-- 4&#45;&gt;25 -->
<g id="edge75" class="edge">
<title>4&#45;&gt;25</title>
<path fill="none" stroke="grey" stroke-width="2" d="M916.61,-935.26C909,-908.56 896,-856.36 896,-811 896,-811 896,-811 896,-665 896,-508.37 830.79,-478.82 807,-324 800.08,-278.98 798.73,-226.13 798.66,-193.6"/>
<polygon fill="grey" stroke="grey" stroke-width="2" points="802.16,-194.03 798.69,-184.02 795.16,-194.01 802.16,-194.03"/>
</g>
<!-- 5 -->
<g id="node6" class="node">
<title>5</title>
<path fill="none" stroke="#a7d856" stroke-width="2" d="M1183,-1044C1183,-1044 1103,-1044 1103,-1044 1097,-1044 1091,-1038 1091,-1032 1091,-1032 1091,-1020 1091,-1020 1091,-1014 1097,-1008 1103,-1008 1103,-1008 1183,-1008 1183,-1008 1189,-1008 1195,-1014 1195,-1020 1195,-1020 1195,-1032 1195,-1032 1195,-1038 1189,-1044 1183,-1044"/>
<text text-anchor="middle" x="1143" y="-1023.5" font-family="sans" font-size="10.00">analyze_pacbio_ccs</text>
</g>
<!-- 5&#45;&gt;4 -->
<g id="edge13" class="edge">
<title>5&#45;&gt;4</title>
<path fill="none" stroke="grey" stroke-width="2" d="M1090.06,-1008.23C1060.42,-998.84 1023.1,-987.02 991.16,-976.91"/>
<polygon fill="grey" stroke="grey" stroke-width="2" points="992.23,-973.57 981.64,-973.89 990.12,-980.25 992.23,-973.57"/>
</g>
<!-- 5&#45;&gt;17 -->
<g id="edge38" class="edge">
<title>5&#45;&gt;17</title>
<path fill="none" stroke="grey" stroke-width="2" d="M1195.58,-1020.88C1321.51,-1009.57 1630,-972.72 1630,-883 1630,-883 1630,-883 1630,-233 1630,-192.03 1637.14,-170.62 1606,-144 1572.84,-115.66 1283.14,-98.97 1163.92,-93.25"/>
<polygon fill="grey" stroke="grey" stroke-width="2" points="1164.1,-89.76 1153.95,-92.78 1163.77,-96.75 1164.1,-89.76"/>
</g>
<!-- 5&#45;&gt;21 -->
<g id="edge56" class="edge">
<title>5&#45;&gt;21</title>
<path fill="none" stroke="grey" stroke-width="2" d="M1146.94,-1007.17C1152.5,-980.36 1162,-928.02 1162,-883 1162,-883 1162,-883 1162,-593 1162,-563.02 1047.35,-381.04 1026,-360 1013.24,-347.43 996.89,-336.85 981.43,-328.54"/>
<polygon fill="grey" stroke="grey" stroke-width="2" points="983.03,-325.43 972.54,-324 979.85,-331.66 983.03,-325.43"/>
</g>
<!-- 5&#45;&gt;25 -->
<g id="edge70" class="edge">
<title>5&#45;&gt;25</title>
<path fill="none" stroke="grey" stroke-width="2" d="M1135.58,-1007.1C1100.66,-922.65 949.33,-555.59 832,-252 824.43,-232.4 816.21,-210.25 809.87,-192.95"/>
<polygon fill="grey" stroke="grey" stroke-width="2" points="813.19,-191.82 806.47,-183.63 806.61,-194.22 813.19,-191.82"/>
</g>
<!-- 6 -->
<g id="node7" class="node">
<title>6</title>
<path fill="none" stroke="#567bd8" stroke-width="2" d="M1192,-1116C1192,-1116 1094,-1116 1094,-1116 1088,-1116 1082,-1110 1082,-1104 1082,-1104 1082,-1092 1082,-1092 1082,-1086 1088,-1080 1094,-1080 1094,-1080 1192,-1080 1192,-1080 1198,-1080 1204,-1086 1204,-1092 1204,-1092 1204,-1104 1204,-1104 1204,-1110 1198,-1116 1192,-1116"/>
<text text-anchor="middle" x="1143" y="-1095.5" font-family="sans" font-size="10.00">align_parse_PacBio_ccs</text>
</g>
<!-- 6&#45;&gt;5 -->
<g id="edge14" class="edge">
<title>6&#45;&gt;5</title>
<path fill="none" stroke="grey" stroke-width="2" d="M1143,-1079.34C1143,-1072.75 1143,-1065.08 1143,-1057.67"/>
<polygon fill="grey" stroke="grey" stroke-width="2" points="1146.5,-1057.93 1143,-1047.93 1139.5,-1057.93 1146.5,-1057.93"/>
</g>
<!-- 7 -->
<g id="node8" class="node">
<title>7</title>
<path fill="none" stroke="#56d87b" stroke-width="2" d="M685,-1044C685,-1044 619,-1044 619,-1044 613,-1044 607,-1038 607,-1032 607,-1032 607,-1020 607,-1020 607,-1014 613,-1008 619,-1008 619,-1008 685,-1008 685,-1008 691,-1008 697,-1014 697,-1020 697,-1020 697,-1032 697,-1032 697,-1038 691,-1044 685,-1044"/>
<text text-anchor="middle" x="652" y="-1023.5" font-family="sans" font-size="10.00">gene_sequence</text>
</g>
<!-- 7&#45;&gt;1 -->
<g id="edge8" class="edge">
<title>7&#45;&gt;1</title>
<path fill="none" stroke="grey" stroke-width="2" d="M631.75,-1007.12C597.35,-975.22 528.72,-904.63 503,-828 497.91,-812.83 496.61,-806.67 503,-792 507.42,-781.85 514.85,-772.77 522.91,-765.11"/>
<polygon fill="grey" stroke="grey" stroke-width="2" points="524.96,-767.97 530.23,-758.78 520.38,-762.67 524.96,-767.97"/>
</g>
<!-- 7&#45;&gt;3 -->
<g id="edge10" class="edge">
<title>7&#45;&gt;3</title>
<path fill="none" stroke="grey" stroke-width="2" d="M659.98,-1007.02C670.54,-983.22 689.28,-940.97 701.92,-912.48"/>
<polygon fill="grey" stroke="grey" stroke-width="2" points="705,-914.17 705.86,-903.61 698.6,-911.33 705,-914.17"/>
</g>
<!-- 7&#45;&gt;4 -->
<g id="edge12" class="edge">
<title>7&#45;&gt;4</title>
<path fill="none" stroke="grey" stroke-width="2" d="M697.8,-1013.13C738.27,-1002.63 798.09,-987.12 845.76,-974.77"/>
<polygon fill="grey" stroke="grey" stroke-width="2" points="846.5,-978.19 855.3,-972.29 844.74,-971.41 846.5,-978.19"/>
</g>
<!-- 7&#45;&gt;9 -->
<g id="edge19" class="edge">
<title>7&#45;&gt;9</title>
<path fill="none" stroke="grey" stroke-width="2" d="M606.2,-1018.09C503.96,-1001.37 266,-954.76 266,-883 266,-883 266,-883 266,-809 266,-749.6 327,-711.39 378.37,-689.73"/>
<polygon fill="grey" stroke="grey" stroke-width="2" points="379.39,-693.1 387.36,-686.11 376.77,-686.6 379.39,-693.1"/>
</g>
<!-- 7&#45;&gt;13 -->
<g id="edge24" class="edge">
<title>7&#45;&gt;13</title>
<path fill="none" stroke="grey" stroke-width="2" d="M697.91,-1008.94C747.65,-988.26 820,-947.16 820,-883 820,-883 820,-883 820,-809 820,-770.65 820,-726.48 820,-697.72"/>
<polygon fill="grey" stroke="grey" stroke-width="2" points="823.5,-697.96 820,-687.96 816.5,-697.96 823.5,-697.96"/>
</g>
<!-- 7&#45;&gt;16 -->
<g id="edge29" class="edge">
<title>7&#45;&gt;16</title>
<path fill="none" stroke="grey" stroke-width="2" d="M647.44,-1007.2C641,-980.44 630,-928.15 630,-883 630,-883 630,-883 630,-665 630,-626.06 622.18,-581.75 616.08,-553.14"/>
<polygon fill="grey" stroke="grey" stroke-width="2" points="619.58,-552.77 614.01,-543.76 612.75,-554.28 619.58,-552.77"/>
</g>
<!-- 7&#45;&gt;17 -->
<g id="edge42" class="edge">
<title>7&#45;&gt;17</title>
<path fill="none" stroke="grey" stroke-width="2" d="M697.69,-1024.94C816.14,-1022.15 1124,-997.02 1124,-811 1124,-811 1124,-811 1124,-737 1124,-577.12 1295.29,-633.47 1425,-540 1466.84,-509.85 1478.86,-503.78 1516,-468 1553.46,-431.91 1592,-431.02 1592,-379 1592,-379 1592,-379 1592,-233 1592,-173.17 1545.36,-168.99 1491,-144 1433.73,-117.68 1252.84,-101.21 1163.68,-94.48"/>
<polygon fill="grey" stroke="grey" stroke-width="2" points="1163.96,-91 1153.73,-93.75 1163.44,-97.98 1163.96,-91"/>
</g>
<!-- 7&#45;&gt;25 -->
<g id="edge74" class="edge">
<title>7&#45;&gt;25</title>
<path fill="none" stroke="grey" stroke-width="2" d="M606.35,-1024.2C464.06,-1020.5 38,-999.66 38,-883 38,-883 38,-883 38,-377 38,-227.84 586.63,-177.7 752.23,-165.96"/>
<polygon fill="grey" stroke="grey" stroke-width="2" points="752.07,-169.48 761.8,-165.3 751.59,-162.5 752.07,-169.48"/>
</g>
<!-- 8 -->
<g id="node9" class="node">
<title>8</title>
<path fill="none" stroke="#56d8a9" stroke-width="2" d="M514,-612C514,-612 374,-612 374,-612 368,-612 362,-606 362,-600 362,-600 362,-588 362,-588 362,-582 368,-576 374,-576 374,-576 514,-576 514,-576 520,-576 526,-582 526,-588 526,-588 526,-600 526,-600 526,-606 520,-612 514,-612"/>
<text text-anchor="middle" x="444" y="-591.5" font-family="sans" font-size="10.00">check_adequate_variant_counts</text>
</g>
<!-- 8&#45;&gt;0 -->
<g id="edge2" class="edge">
<title>8&#45;&gt;0</title>
<path fill="none" stroke="grey" stroke-width="2" d="M379.06,-575.11C273.41,-541.61 76,-458.72 76,-307 76,-307 76,-307 76,-161 76,-121.16 90.13,-77.11 101.15,-48.8"/>
<polygon fill="grey" stroke="grey" stroke-width="2" points="104.3,-50.36 104.81,-39.77 97.81,-47.73 104.3,-50.36"/>
</g>
<!-- 8&#45;&gt;16 -->
<g id="edge32" class="edge">
<title>8&#45;&gt;16</title>
<path fill="none" stroke="grey" stroke-width="2" d="M486.06,-575.15C508.26,-565.74 535.65,-554.12 558.93,-544.24"/>
<polygon fill="grey" stroke="grey" stroke-width="2" points="560.06,-547.56 567.9,-540.44 557.33,-541.12 560.06,-547.56"/>
</g>
<!-- 9&#45;&gt;8 -->
<g id="edge15" class="edge">
<title>9&#45;&gt;8</title>
<path fill="none" stroke="grey" stroke-width="2" d="M446.99,-647.34C446.61,-640.75 446.18,-633.08 445.75,-625.67"/>
<polygon fill="grey" stroke="grey" stroke-width="2" points="449.26,-625.71 445.2,-615.92 442.27,-626.11 449.26,-625.71"/>
</g>
<!-- 9&#45;&gt;17 -->
<g id="edge33" class="edge">
<title>9&#45;&gt;17</title>
<path fill="none" stroke="grey" stroke-width="2" d="M385.57,-651.83C288.9,-629.62 114,-581.36 114,-523 114,-523 114,-523 114,-305 114,-228.32 111.48,-185.43 176,-144 250.73,-96.01 877.91,-91.32 1062.24,-90.98"/>
<polygon fill="grey" stroke="grey" stroke-width="2" points="1062.21,-94.48 1072.21,-90.97 1062.2,-87.49 1062.21,-94.48"/>
</g>
<!-- 9&#45;&gt;21 -->
<g id="edge54" class="edge">
<title>9&#45;&gt;21</title>
<path fill="none" stroke="grey" stroke-width="2" d="M481.27,-647.03C523.03,-624.01 596.29,-582.03 655,-540 750.85,-471.39 854.95,-378.23 903.75,-333.33"/>
<polygon fill="grey" stroke="grey" stroke-width="2" points="905.84,-336.17 910.81,-326.82 901.09,-331.03 905.84,-336.17"/>
</g>
<!-- 9&#45;&gt;25 -->
<g id="edge66" class="edge">
<title>9&#45;&gt;25</title>
<path fill="none" stroke="grey" stroke-width="2" d="M393.82,-647.09C377.84,-639 362.18,-627.63 353,-612 344.9,-598.2 343,-588.49 353,-576 398.84,-518.78 462.32,-592.02 514,-540 571.69,-481.93 512.95,-431.39 553,-360 599.46,-277.19 695.98,-216.12 753.34,-185.37"/>
<polygon fill="grey" stroke="grey" stroke-width="2" points="754.7,-188.61 761.92,-180.86 751.44,-182.41 754.7,-188.61"/>
</g>
<!-- 10 -->
<g id="node11" class="node">
<title>10</title>
<path fill="none" stroke="#d8bc56" stroke-width="2" d="M455.5,-396C455.5,-396 364.5,-396 364.5,-396 358.5,-396 352.5,-390 352.5,-384 352.5,-384 352.5,-372 352.5,-372 352.5,-366 358.5,-360 364.5,-360 364.5,-360 455.5,-360 455.5,-360 461.5,-360 467.5,-366 467.5,-372 467.5,-372 467.5,-384 467.5,-384 467.5,-390 461.5,-396 455.5,-396"/>
<text text-anchor="middle" x="410" y="-375.5" font-family="sans" font-size="10.00">avg_antibody_escape</text>
</g>
<!-- 10&#45;&gt;0 -->
<g id="edge4" class="edge">
<title>10&#45;&gt;0</title>
<path fill="none" stroke="grey" stroke-width="2" d="M388.35,-359.12C376.47,-349.08 361.63,-336.16 349,-324 285.81,-263.15 267.4,-249.6 214,-180 180.46,-136.29 148.02,-80.88 129.58,-47.78"/>
<polygon fill="grey" stroke="grey" stroke-width="2" points="132.8,-46.37 124.91,-39.31 126.67,-49.75 132.8,-46.37"/>
</g>
<!-- 10&#45;&gt;17 -->
<g id="edge49" class="edge">
<title>10&#45;&gt;17</title>
<path fill="none" stroke="grey" stroke-width="2" d="M393.06,-359.03C384.59,-349.27 374.74,-336.64 368,-324 352.2,-294.35 350.17,-285.19 345,-252 336.61,-198.17 354.76,-169.33 403,-144 460.96,-113.56 909.24,-97.2 1062.12,-92.47"/>
<polygon fill="grey" stroke="grey" stroke-width="2" points="1062.22,-95.97 1072.11,-92.16 1062,-88.97 1062.22,-95.97"/>
</g>
<!-- 10&#45;&gt;21 -->
<g id="edge62" class="edge">
<title>10&#45;&gt;21</title>
<path fill="none" stroke="grey" stroke-width="2" d="M468.36,-369.17C571.5,-355.34 784.27,-326.81 881.51,-313.77"/>
<polygon fill="grey" stroke="grey" stroke-width="2" points="881.72,-317.27 891.17,-312.48 880.79,-310.34 881.72,-317.27"/>
</g>
<!-- 24 -->
<g id="node25" class="node">
<title>24</title>
<path fill="none" stroke="#ced856" stroke-width="2" d="M511.5,-252C511.5,-252 382.5,-252 382.5,-252 376.5,-252 370.5,-246 370.5,-240 370.5,-240 370.5,-228 370.5,-228 370.5,-222 376.5,-216 382.5,-216 382.5,-216 511.5,-216 511.5,-216 517.5,-216 523.5,-222 523.5,-228 523.5,-228 523.5,-240 523.5,-240 523.5,-246 517.5,-252 511.5,-252"/>
<text text-anchor="middle" x="447" y="-231.5" font-family="sans" font-size="10.00">format_antibody_escape_plot</text>
</g>
<!-- 10&#45;&gt;24 -->
<g id="edge65" class="edge">
<title>10&#45;&gt;24</title>
<path fill="none" stroke="grey" stroke-width="2" d="M414.69,-359.02C420.83,-335.44 431.7,-293.73 439.12,-265.25"/>
<polygon fill="grey" stroke="grey" stroke-width="2" points="442.45,-266.33 441.59,-255.77 435.68,-264.56 442.45,-266.33"/>
</g>
<!-- 10&#45;&gt;25 -->
<g id="edge81" class="edge">
<title>10&#45;&gt;25</title>
<path fill="none" stroke="grey" stroke-width="2" d="M432.05,-359.22C482.71,-318.43 603.86,-221.2 614,-216 658.25,-193.32 713.57,-179.1 752.14,-171.17"/>
<polygon fill="grey" stroke="grey" stroke-width="2" points="752.68,-174.63 761.81,-169.25 751.32,-167.76 752.68,-174.63"/>
</g>
<!-- 11 -->
<g id="node12" class="node">
<title>11</title>
<path fill="none" stroke="#566bd8" stroke-width="2" d="M1192.5,-468C1192.5,-468 1127.5,-468 1127.5,-468 1121.5,-468 1115.5,-462 1115.5,-456 1115.5,-456 1115.5,-444 1115.5,-444 1115.5,-438 1121.5,-432 1127.5,-432 1127.5,-432 1192.5,-432 1192.5,-432 1198.5,-432 1204.5,-438 1204.5,-444 1204.5,-444 1204.5,-456 1204.5,-456 1204.5,-462 1198.5,-468 1192.5,-468"/>
<text text-anchor="middle" x="1160" y="-447.5" font-family="sans" font-size="10.00">avg_muteffects</text>
</g>
<!-- 11&#45;&gt;0 -->
<g id="edge5" class="edge">
<title>11&#45;&gt;0</title>
<path fill="none" stroke="grey" stroke-width="2" d="M1205.2,-442.51C1308.69,-426.39 1554,-380.44 1554,-307 1554,-307 1554,-307 1554,-161 1554,-16.37 388.74,-17.04 154.66,-18.63"/>
<polygon fill="grey" stroke="grey" stroke-width="2" points="154.8,-15.13 144.83,-18.71 154.85,-22.13 154.8,-15.13"/>
</g>
<!-- 11&#45;&gt;10 -->
<g id="edge21" class="edge">
<title>11&#45;&gt;10</title>
<path fill="none" stroke="grey" stroke-width="2" d="M1114.65,-445.53C1013.67,-437.69 762.66,-417.61 553,-396 529.61,-393.59 504.1,-390.65 481.19,-387.91"/>
<polygon fill="grey" stroke="grey" stroke-width="2" points="481.75,-384.45 471.4,-386.72 480.91,-391.4 481.75,-384.45"/>
</g>
<!-- 11&#45;&gt;17 -->
<g id="edge50" class="edge">
<title>11&#45;&gt;17</title>
<path fill="none" stroke="grey" stroke-width="2" d="M1205.23,-443.13C1275.28,-431.24 1402,-397.24 1402,-307 1402,-307 1402,-307 1402,-233 1402,-128.04 1246.55,-100.66 1163.67,-93.52"/>
<polygon fill="grey" stroke="grey" stroke-width="2" points="1164.04,-90.04 1153.8,-92.75 1163.5,-97.01 1164.04,-90.04"/>
</g>
<!-- 11&#45;&gt;21 -->
<g id="edge58" class="edge">
<title>11&#45;&gt;21</title>
<path fill="none" stroke="grey" stroke-width="2" d="M1152.08,-431.34C1142.2,-411.24 1123.46,-378.78 1098,-360 1088.38,-352.9 1027.3,-334.35 982.01,-321.2"/>
<polygon fill="grey" stroke="grey" stroke-width="2" points="983.2,-317.9 972.62,-318.49 981.26,-324.63 983.2,-317.9"/>
</g>
<!-- 22 -->
<g id="node23" class="node">
<title>22</title>
<path fill="none" stroke="#80d856" stroke-width="2" d="M1323.5,-252C1323.5,-252 1220.5,-252 1220.5,-252 1214.5,-252 1208.5,-246 1208.5,-240 1208.5,-240 1208.5,-228 1208.5,-228 1208.5,-222 1214.5,-216 1220.5,-216 1220.5,-216 1323.5,-216 1323.5,-216 1329.5,-216 1335.5,-222 1335.5,-228 1335.5,-228 1335.5,-240 1335.5,-240 1335.5,-246 1329.5,-252 1323.5,-252"/>
<text text-anchor="middle" x="1272" y="-231.5" font-family="sans" font-size="10.00">format_muteffects_plot</text>
</g>
<!-- 11&#45;&gt;22 -->
<g id="edge64" class="edge">
<title>11&#45;&gt;22</title>
<path fill="none" stroke="grey" stroke-width="2" d="M1205.49,-446.01C1239.62,-441.09 1284.23,-428.41 1307,-396 1334.87,-356.32 1310.49,-298.6 1290.83,-264.13"/>
<polygon fill="grey" stroke="grey" stroke-width="2" points="1293.85,-262.36 1285.72,-255.57 1287.84,-265.95 1293.85,-262.36"/>
</g>
<!-- 11&#45;&gt;25 -->
<g id="edge82" class="edge">
<title>11&#45;&gt;25</title>
<path fill="none" stroke="grey" stroke-width="2" d="M1156.03,-431.27C1151.31,-412.55 1142.23,-382.67 1128,-360 1092.24,-303.04 1068.29,-300.8 1022,-252 1007.06,-236.25 1007.5,-227.35 989,-216 944.72,-188.82 886.19,-175.24 845.86,-168.69"/>
<polygon fill="grey" stroke="grey" stroke-width="2" points="846.59,-165.26 836.17,-167.22 845.53,-172.18 846.59,-165.26"/>
</g>
<!-- 12 -->
<g id="node13" class="node">
<title>12</title>
<path fill="none" stroke="#56d8d0" stroke-width="2" d="M1084,-540C1084,-540 1010,-540 1010,-540 1004,-540 998,-534 998,-528 998,-528 998,-516 998,-516 998,-510 1004,-504 1010,-504 1010,-504 1084,-504 1084,-504 1090,-504 1096,-510 1096,-516 1096,-516 1096,-528 1096,-528 1096,-534 1090,-540 1084,-540"/>
<text text-anchor="middle" x="1047" y="-519.5" font-family="sans" font-size="10.00">fit_globalepistasis</text>
</g>
<!-- 12&#45;&gt;11 -->
<g id="edge22" class="edge">
<title>12&#45;&gt;11</title>
<path fill="none" stroke="grey" stroke-width="2" d="M1075.81,-503.15C1089.35,-494.76 1105.72,-484.62 1120.41,-475.52"/>
<polygon fill="grey" stroke="grey" stroke-width="2" points="1122.01,-478.65 1128.67,-470.41 1118.33,-472.7 1122.01,-478.65"/>
</g>
<!-- 12&#45;&gt;17 -->
<g id="edge48" class="edge">
<title>12&#45;&gt;17</title>
<path fill="none" stroke="grey" stroke-width="2" d="M1096.77,-505.7C1202.52,-472.84 1440,-397.05 1440,-379 1440,-379 1440,-379 1440,-233 1440,-113.98 1255.5,-93.65 1163.67,-90.89"/>
<polygon fill="grey" stroke="grey" stroke-width="2" points="1163.93,-87.4 1153.86,-90.67 1163.78,-94.4 1163.93,-87.4"/>
</g>
<!-- 12&#45;&gt;21 -->
<g id="edge61" class="edge">
<title>12&#45;&gt;21</title>
<path fill="none" stroke="grey" stroke-width="2" d="M1045.92,-503.49C1043.22,-472.14 1034,-405.5 1003,-360 995.8,-349.43 985.79,-340.14 975.55,-332.41"/>
<polygon fill="grey" stroke="grey" stroke-width="2" points="977.58,-329.56 967.39,-326.67 973.56,-335.28 977.58,-329.56"/>
</g>
<!-- 12&#45;&gt;25 -->
<g id="edge80" class="edge">
<title>12&#45;&gt;25</title>
<path fill="none" stroke="grey" stroke-width="2" d="M1035.29,-503.15C1023.08,-484.84 1003.08,-455.77 984,-432 943.42,-381.46 922.61,-377.48 886,-324 855.69,-279.72 858.21,-262.83 832,-216 827.52,-207.99 822.39,-199.49 817.54,-191.68"/>
<polygon fill="grey" stroke="grey" stroke-width="2" points="820.64,-190.05 812.34,-183.46 814.72,-193.78 820.64,-190.05"/>
</g>
<!-- 13&#45;&gt;12 -->
<g id="edge23" class="edge">
<title>13&#45;&gt;12</title>
<path fill="none" stroke="grey" stroke-width="2" d="M848.75,-647.02C889,-621.84 962.3,-575.99 1007.61,-547.64"/>
<polygon fill="grey" stroke="grey" stroke-width="2" points="1009.3,-550.71 1015.92,-542.44 1005.58,-544.78 1009.3,-550.71"/>
</g>
<!-- 18 -->
<g id="node19" class="node">
<title>18</title>
<path fill="none" stroke="#56d8b9" stroke-width="2" d="M1286,-396C1286,-396 1200,-396 1200,-396 1194,-396 1188,-390 1188,-384 1188,-384 1188,-372 1188,-372 1188,-366 1194,-360 1200,-360 1200,-360 1286,-360 1286,-360 1292,-360 1298,-366 1298,-372 1298,-372 1298,-384 1298,-384 1298,-390 1292,-396 1286,-396"/>
<text text-anchor="middle" x="1243" y="-375.5" font-family="sans" font-size="10.00">analyze_func_scores</text>
</g>
<!-- 13&#45;&gt;18 -->
<g id="edge51" class="edge">
<title>13&#45;&gt;18</title>
<path fill="none" stroke="grey" stroke-width="2" d="M836.18,-647.27C865.08,-616.16 928.24,-550.63 989,-504 1037.74,-466.6 1051.94,-459.26 1107,-432 1129.81,-420.71 1155.66,-410.12 1178.65,-401.41"/>
<polygon fill="grey" stroke="grey" stroke-width="2" points="1179.75,-404.74 1187.9,-397.97 1177.3,-398.18 1179.75,-404.74"/>
</g>
<!-- 14 -->
<g id="node15" class="node">
<title>14</title>
<path fill="none" stroke="#5692d8" stroke-width="2" d="M489.5,-468C489.5,-468 436.5,-468 436.5,-468 430.5,-468 424.5,-462 424.5,-456 424.5,-456 424.5,-444 424.5,-444 424.5,-438 430.5,-432 436.5,-432 436.5,-432 489.5,-432 489.5,-432 495.5,-432 501.5,-438 501.5,-444 501.5,-444 501.5,-456 501.5,-456 501.5,-462 495.5,-468 489.5,-468"/>
<text text-anchor="middle" x="463" y="-447.5" font-family="sans" font-size="10.00">fit_polyclonal</text>
</g>
<!-- 14&#45;&gt;10 -->
<g id="edge20" class="edge">
<title>14&#45;&gt;10</title>
<path fill="none" stroke="grey" stroke-width="2" d="M449.63,-431.34C444.08,-424.01 437.51,-415.34 431.33,-407.18"/>
<polygon fill="grey" stroke="grey" stroke-width="2" points="434.21,-405.18 425.38,-399.32 428.63,-409.4 434.21,-405.18"/>
</g>
<!-- 14&#45;&gt;17 -->
<g id="edge45" class="edge">
<title>14&#45;&gt;17</title>
<path fill="none" stroke="grey" stroke-width="2" d="M423.77,-442.91C396.14,-436.37 361,-423.01 343,-396 280.83,-302.71 270.03,-218.28 354,-144 406.9,-97.21 901.12,-91.61 1062.38,-91.03"/>
<polygon fill="grey" stroke="grey" stroke-width="2" points="1062.16,-94.53 1072.15,-91 1062.14,-87.53 1062.16,-94.53"/>
</g>
<!-- 14&#45;&gt;21 -->
<g id="edge59" class="edge">
<title>14&#45;&gt;21</title>
<path fill="none" stroke="grey" stroke-width="2" d="M502.11,-441.93C546.94,-433.3 622.32,-417.21 685,-396 722.32,-383.37 729.18,-374.01 766,-360 804.36,-345.4 848.68,-331.39 881.88,-321.45"/>
<polygon fill="grey" stroke="grey" stroke-width="2" points="882.52,-324.9 891.11,-318.7 880.53,-318.19 882.52,-324.9"/>
</g>
<!-- 14&#45;&gt;25 -->
<g id="edge77" class="edge">
<title>14&#45;&gt;25</title>
<path fill="none" stroke="grey" stroke-width="2" d="M472.45,-431.03C496.38,-387.33 563.77,-274.75 652,-216 682.63,-195.61 722.06,-181.95 752.37,-173.61"/>
<polygon fill="grey" stroke="grey" stroke-width="2" points="753.04,-177.05 761.83,-171.13 751.27,-170.28 753.04,-177.05"/>
</g>
<!-- 15 -->
<g id="node16" class="node">
<title>15</title>
<path fill="none" stroke="#56d0d8" stroke-width="2" d="M493.5,-540C493.5,-540 424.5,-540 424.5,-540 418.5,-540 412.5,-534 412.5,-528 412.5,-528 412.5,-516 412.5,-516 412.5,-510 418.5,-504 424.5,-504 424.5,-504 493.5,-504 493.5,-504 499.5,-504 505.5,-510 505.5,-516 505.5,-516 505.5,-528 505.5,-528 505.5,-534 499.5,-540 493.5,-540"/>
<text text-anchor="middle" x="459" y="-519.5" font-family="sans" font-size="10.00">spatial_distances</text>
</g>
<!-- 15&#45;&gt;14 -->
<g id="edge27" class="edge">
<title>15&#45;&gt;14</title>
<path fill="none" stroke="grey" stroke-width="2" d="M460.01,-503.34C460.39,-496.75 460.82,-489.08 461.25,-481.67"/>
<polygon fill="grey" stroke="grey" stroke-width="2" points="464.73,-482.11 461.8,-471.92 457.74,-481.71 464.73,-482.11"/>
</g>
<!-- 16&#45;&gt;14 -->
<g id="edge28" class="edge">
<title>16&#45;&gt;14</title>
<path fill="none" stroke="grey" stroke-width="2" d="M571.78,-503.15C553.66,-494.47 531.63,-483.91 512.15,-474.56"/>
<polygon fill="grey" stroke="grey" stroke-width="2" points="513.67,-471.41 503.13,-470.24 510.64,-477.72 513.67,-471.41"/>
</g>
<!-- 19 -->
<g id="node20" class="node">
<title>19</title>
<path fill="none" stroke="#56a9d8" stroke-width="2" d="M664,-396C664,-396 574,-396 574,-396 568,-396 562,-390 562,-384 562,-384 562,-372 562,-372 562,-366 568,-360 574,-360 574,-360 664,-360 664,-360 670,-360 676,-366 676,-372 676,-372 676,-384 676,-384 676,-390 670,-396 664,-396"/>
<text text-anchor="middle" x="619" y="-375.5" font-family="sans" font-size="10.00">analyze_prob_escape</text>
</g>
<!-- 16&#45;&gt;19 -->
<g id="edge52" class="edge">
<title>16&#45;&gt;19</title>
<path fill="none" stroke="grey" stroke-width="2" d="M610.27,-503.02C611.92,-479.54 614.84,-438.11 616.84,-409.64"/>
<polygon fill="grey" stroke="grey" stroke-width="2" points="620.32,-410.08 617.53,-399.86 613.34,-409.59 620.32,-410.08"/>
</g>
<!-- 17&#45;&gt;0 -->
<g id="edge3" class="edge">
<title>17&#45;&gt;0</title>
<path fill="none" stroke="grey" stroke-width="2" d="M1075.06,-86.34C917.67,-75.31 316.88,-33.22 154.6,-21.84"/>
<polygon fill="grey" stroke="grey" stroke-width="2" points="155.22,-18.38 144.99,-21.17 154.73,-25.36 155.22,-18.38"/>
</g>
<!-- 18&#45;&gt;17 -->
<g id="edge47" class="edge">
<title>18&#45;&gt;17</title>
<path fill="none" stroke="grey" stroke-width="2" d="M1269.15,-359.01C1308.46,-329.63 1375.16,-269.27 1345,-216 1307.15,-149.15 1219.13,-116.21 1163.05,-101.47"/>
<polygon fill="grey" stroke="grey" stroke-width="2" points="1164.05,-98.11 1153.5,-99.08 1162.35,-104.9 1164.05,-98.11"/>
</g>
<!-- 18&#45;&gt;21 -->
<g id="edge60" class="edge">
<title>18&#45;&gt;21</title>
<path fill="none" stroke="grey" stroke-width="2" d="M1187.04,-364.4C1128.8,-351.29 1038.41,-330.95 982.34,-318.33"/>
<polygon fill="grey" stroke="grey" stroke-width="2" points="983.37,-314.98 972.85,-316.19 981.83,-321.8 983.37,-314.98"/>
</g>
<!-- 18&#45;&gt;25 -->
<g id="edge79" class="edge">
<title>18&#45;&gt;25</title>
<path fill="none" stroke="grey" stroke-width="2" d="M1215.95,-359.05C1180.62,-335.38 1117.12,-292.01 1065,-252 1045.23,-236.82 1044.28,-227.18 1022,-216 965.23,-187.51 892.56,-173.94 845.89,-167.76"/>
<polygon fill="grey" stroke="grey" stroke-width="2" points="846.51,-164.32 836.16,-166.55 845.65,-171.26 846.51,-164.32"/>
</g>
<!-- 19&#45;&gt;17 -->
<g id="edge35" class="edge">
<title>19&#45;&gt;17</title>
<path fill="none" stroke="grey" stroke-width="2" d="M561.01,-365.63C467.88,-344.74 301.18,-295.05 361,-216 445.88,-103.84 908.23,-91.76 1062.71,-90.89"/>
<polygon fill="grey" stroke="grey" stroke-width="2" points="1062.4,-94.39 1072.39,-90.85 1062.38,-87.39 1062.4,-94.39"/>
</g>
<!-- 19&#45;&gt;21 -->
<g id="edge55" class="edge">
<title>19&#45;&gt;21</title>
<path fill="none" stroke="grey" stroke-width="2" d="M676.71,-363.08C681.21,-362.03 685.68,-360.99 690,-360 756.19,-344.83 832.79,-328.21 881.78,-317.7"/>
<polygon fill="grey" stroke="grey" stroke-width="2" points="882.22,-321.19 891.26,-315.67 880.75,-314.34 882.22,-321.19"/>
</g>
<!-- 19&#45;&gt;25 -->
<g id="edge68" class="edge">
<title>19&#45;&gt;25</title>
<path fill="none" stroke="grey" stroke-width="2" d="M644.49,-359C656.43,-349.61 670.16,-337.31 680,-324 711.24,-281.77 695.22,-257.04 728,-216 736.28,-205.63 747.04,-196.24 757.67,-188.33"/>
<polygon fill="grey" stroke="grey" stroke-width="2" points="759.52,-191.31 765.68,-182.69 755.49,-185.58 759.52,-191.31"/>
</g>
<!-- 20 -->
<g id="node21" class="node">
<title>20</title>
<path fill="none" stroke="#d87d56" stroke-width="2" d="M968,-252C968,-252 934,-252 934,-252 928,-252 922,-246 922,-240 922,-240 922,-228 922,-228 922,-222 928,-216 934,-216 934,-216 968,-216 968,-216 974,-216 980,-222 980,-228 980,-228 980,-240 980,-240 980,-246 974,-252 968,-252"/>
<text text-anchor="middle" x="951" y="-231.5" font-family="sans" font-size="10.00">subindex</text>
</g>
<!-- 20&#45;&gt;17 -->
<g id="edge41" class="edge">
<title>20&#45;&gt;17</title>
<path fill="none" stroke="grey" stroke-width="2" d="M971.52,-215.02C999.76,-190.26 1050.79,-145.53 1083.22,-117.1"/>
<polygon fill="grey" stroke="grey" stroke-width="2" points="1085.16,-120.06 1090.37,-110.83 1080.55,-114.79 1085.16,-120.06"/>
</g>
<!-- 20&#45;&gt;25 -->
<g id="edge73" class="edge">
<title>20&#45;&gt;25</title>
<path fill="none" stroke="grey" stroke-width="2" d="M921.33,-219.34C899.65,-209.35 869.84,-195.62 845.07,-184.22"/>
<polygon fill="grey" stroke="grey" stroke-width="2" points="846.67,-181.1 836.12,-180.1 843.74,-187.46 846.67,-181.1"/>
</g>
<!-- 21&#45;&gt;17 -->
<g id="edge46" class="edge">
<title>21&#45;&gt;17</title>
<path fill="none" stroke="grey" stroke-width="2" d="M969.65,-301.85C1028.38,-296.07 1137.51,-281.55 1161,-252 1192.12,-212.86 1160.03,-153.93 1135.43,-119.28"/>
<polygon fill="grey" stroke="grey" stroke-width="2" points="1138.35,-117.34 1129.6,-111.37 1132.72,-121.5 1138.35,-117.34"/>
</g>
<!-- 21&#45;&gt;20 -->
<g id="edge53" class="edge">
<title>21&#45;&gt;20</title>
<path fill="none" stroke="grey" stroke-width="2" d="M936.79,-287.34C938.6,-280.67 940.72,-272.89 942.75,-265.39"/>
<polygon fill="grey" stroke="grey" stroke-width="2" points="946.11,-266.39 945.35,-255.82 939.35,-264.56 946.11,-266.39"/>
</g>
<!-- 21&#45;&gt;25 -->
<g id="edge78" class="edge">
<title>21&#45;&gt;25</title>
<path fill="none" stroke="grey" stroke-width="2" d="M921.85,-287.03C910.64,-268.11 891.35,-238.06 870,-216 860.35,-206.03 848.69,-196.51 837.63,-188.36"/>
<polygon fill="grey" stroke="grey" stroke-width="2" points="839.94,-185.7 829.77,-182.75 835.88,-191.4 839.94,-185.7"/>
</g>
<!-- 22&#45;&gt;17 -->
<g id="edge40" class="edge">
<title>22&#45;&gt;17</title>
<path fill="none" stroke="grey" stroke-width="2" d="M1258.87,-215.34C1244.29,-196.41 1219.44,-166.1 1194,-144 1182.23,-133.77 1168.34,-123.99 1155.43,-115.68"/>
<polygon fill="grey" stroke="grey" stroke-width="2" points="1157.3,-112.73 1146.97,-110.39 1153.59,-118.66 1157.3,-112.73"/>
</g>
<!-- 22&#45;&gt;25 -->
<g id="edge72" class="edge">
<title>22&#45;&gt;25</title>
<path fill="none" stroke="grey" stroke-width="2" d="M1207.74,-223.08C1192.43,-220.74 1176.14,-218.27 1161,-216 1047.99,-199.07 915.04,-179.76 845.98,-169.78"/>
<polygon fill="grey" stroke="grey" stroke-width="2" points="846.84,-166.37 836.45,-168.4 845.84,-173.29 846.84,-166.37"/>
</g>
<!-- 23 -->
<g id="node24" class="node">
<title>23</title>
<path fill="none" stroke="#b6d856" stroke-width="2" d="M1140,-252C1140,-252 1086,-252 1086,-252 1080,-252 1074,-246 1074,-240 1074,-240 1074,-228 1074,-228 1074,-222 1080,-216 1086,-216 1086,-216 1140,-216 1140,-216 1146,-216 1152,-222 1152,-228 1152,-228 1152,-240 1152,-240 1152,-246 1146,-252 1140,-252"/>
<text text-anchor="middle" x="1113" y="-231.5" font-family="sans" font-size="10.00">make_graphs</text>
</g>
<!-- 23&#45;&gt;17 -->
<g id="edge34" class="edge">
<title>23&#45;&gt;17</title>
<path fill="none" stroke="grey" stroke-width="2" d="M1113,-215.02C1113,-191.54 1113,-150.11 1113,-121.64"/>
<polygon fill="grey" stroke="grey" stroke-width="2" points="1116.5,-121.87 1113,-111.87 1109.5,-121.87 1116.5,-121.87"/>
</g>
<!-- 23&#45;&gt;25 -->
<g id="edge67" class="edge">
<title>23&#45;&gt;25</title>
<path fill="none" stroke="grey" stroke-width="2" d="M1073.2,-219.72C1068.77,-218.39 1064.3,-217.12 1060,-216 985.97,-196.67 898.59,-180.19 846.05,-170.94"/>
<polygon fill="grey" stroke="grey" stroke-width="2" points="846.91,-167.54 836.46,-169.27 845.71,-174.44 846.91,-167.54"/>
</g>
<!-- 24&#45;&gt;17 -->
<g id="edge36" class="edge">
<title>24&#45;&gt;17</title>
<path fill="none" stroke="grey" stroke-width="2" d="M501.32,-215.04C562.79,-195.28 666.16,-163.71 757,-144 864.71,-120.63 992.99,-104.3 1062.37,-96.41"/>
<polygon fill="grey" stroke="grey" stroke-width="2" points="1062.47,-99.92 1072.02,-95.33 1061.69,-92.96 1062.47,-99.92"/>
</g>
<!-- 24&#45;&gt;25 -->
<g id="edge69" class="edge">
<title>24&#45;&gt;25</title>
<path fill="none" stroke="grey" stroke-width="2" d="M524.25,-217.64C593.86,-203.79 693.95,-183.89 752.15,-172.32"/>
<polygon fill="grey" stroke="grey" stroke-width="2" points="752.51,-175.81 761.63,-170.43 751.14,-168.95 752.51,-175.81"/>
</g>
<!-- 25&#45;&gt;17 -->
<g id="edge37" class="edge">
<title>25&#45;&gt;17</title>
<path fill="none" stroke="grey" stroke-width="2" d="M833.2,-153.38C888.67,-141.01 998.5,-116.53 1062.83,-102.19"/>
<polygon fill="grey" stroke="grey" stroke-width="2" points="1063.49,-105.62 1072.49,-100.03 1061.96,-98.79 1063.49,-105.62"/>
</g>
</g>
</svg>
