<?xml version="1.0" encoding="UTF-8" standalone="no"?>
<!DOCTYPE svg PUBLIC "-//W3C//DTD SVG 1.1//EN"
 "http://www.w3.org/Graphics/SVG/1.1/DTD/svg11.dtd">
<!-- Generated by graphviz version 3.0.0 (20220315.2325)
 -->
<!-- Title: snakemake_dag Pages: 1 -->
<svg width="990pt" height="908pt"
 viewBox="0.00 0.00 990.00 908.00" xmlns="http://www.w3.org/2000/svg" xmlns:xlink="http://www.w3.org/1999/xlink">
<g id="graph0" class="graph" transform="scale(1 1) rotate(0) translate(4 904)">
<title>snakemake_dag</title>
<polygon fill="white" stroke="transparent" points="-4,4 -4,-904 986,-904 986,4 -4,4"/>
<!-- 0 -->
<g id="node1" class="node">
<title>0</title>
<path fill="none" stroke="#d8b456" stroke-width="2" d="M970,-36C970,-36 940,-36 940,-36 934,-36 928,-30 928,-24 928,-24 928,-12 928,-12 928,-6 934,0 940,0 940,0 970,0 970,0 976,0 982,-6 982,-12 982,-12 982,-24 982,-24 982,-30 976,-36 970,-36"/>
<text text-anchor="middle" x="955" y="-15.5" font-family="sans" font-size="10.00">all</text>
</g>
<!-- 1 -->
<g id="node2" class="node">
<title>1</title>
<path fill="none" stroke="#56d8c1" stroke-width="2" d="M658,-540C658,-540 598,-540 598,-540 592,-540 586,-534 586,-528 586,-528 586,-516 586,-516 586,-510 592,-504 598,-504 598,-504 658,-504 658,-504 664,-504 670,-510 670,-516 670,-516 670,-528 670,-528 670,-534 664,-540 658,-540"/>
<text text-anchor="middle" x="628" y="-519.5" font-family="sans" font-size="10.00">variant_counts</text>
</g>
<!-- 1&#45;&gt;0 -->
<g id="edge4" class="edge">
<title>1&#45;&gt;0</title>
<path fill="none" stroke="grey" stroke-width="2" d="M663.67,-503.85C680.64,-494.66 700.54,-482.28 716,-468 828.62,-363.92 835.99,-316.43 906,-180 922.16,-148.52 929.4,-141.77 940,-108 946.36,-87.72 950.19,-63.95 952.39,-46.08"/>
<polygon fill="grey" stroke="grey" stroke-width="2" points="955.88,-46.39 953.53,-36.05 948.92,-45.6 955.88,-46.39"/>
</g>
<!-- 8 -->
<g id="node9" class="node">
<title>8</title>
<path fill="none" stroke="#d87556" stroke-width="2" d="M668.5,-468C668.5,-468 617.5,-468 617.5,-468 611.5,-468 605.5,-462 605.5,-456 605.5,-456 605.5,-444 605.5,-444 605.5,-438 611.5,-432 617.5,-432 617.5,-432 668.5,-432 668.5,-432 674.5,-432 680.5,-438 680.5,-444 680.5,-444 680.5,-456 680.5,-456 680.5,-462 674.5,-468 668.5,-468"/>
<text text-anchor="middle" x="643" y="-447.5" font-family="sans" font-size="10.00">prob_escape</text>
</g>
<!-- 1&#45;&gt;8 -->
<g id="edge15" class="edge">
<title>1&#45;&gt;8</title>
<path fill="none" stroke="grey" stroke-width="2" d="M631.71,-503.7C633.36,-495.98 635.35,-486.71 637.19,-478.11"/>
<polygon fill="grey" stroke="grey" stroke-width="2" points="640.66,-478.62 639.33,-468.1 633.82,-477.15 640.66,-478.62"/>
</g>
<!-- 10 -->
<g id="node11" class="node">
<title>10</title>
<path fill="none" stroke="#56b1d8" stroke-width="2" d="M700,-108C700,-108 650,-108 650,-108 644,-108 638,-102 638,-96 638,-96 638,-84 638,-84 638,-78 644,-72 650,-72 650,-72 700,-72 700,-72 706,-72 712,-78 712,-84 712,-84 712,-96 712,-96 712,-102 706,-108 700,-108"/>
<text text-anchor="middle" x="675" y="-87.5" font-family="sans" font-size="10.00">sphinx_build</text>
</g>
<!-- 1&#45;&gt;10 -->
<g id="edge27" class="edge">
<title>1&#45;&gt;10</title>
<path fill="none" stroke="grey" stroke-width="2" d="M651.13,-503.99C663.32,-494.31 677.97,-481.45 689,-468 732.95,-414.38 736.29,-392.16 749,-324 763.69,-245.23 797.69,-214.16 759,-144 750.66,-128.87 735.97,-117.46 721.2,-109.18"/>
<polygon fill="grey" stroke="grey" stroke-width="2" points="722.52,-105.93 712.04,-104.43 719.3,-112.14 722.52,-105.93"/>
</g>
<!-- 11 -->
<g id="node12" class="node">
<title>11</title>
<path fill="none" stroke="#9fd856" stroke-width="2" d="M371.5,-468C371.5,-468 272.5,-468 272.5,-468 266.5,-468 260.5,-462 260.5,-456 260.5,-456 260.5,-444 260.5,-444 260.5,-438 266.5,-432 272.5,-432 272.5,-432 371.5,-432 371.5,-432 377.5,-432 383.5,-438 383.5,-444 383.5,-444 383.5,-456 383.5,-456 383.5,-462 377.5,-468 371.5,-468"/>
<text text-anchor="middle" x="322" y="-447.5" font-family="sans" font-size="10.00">analyze_variant_counts</text>
</g>
<!-- 1&#45;&gt;11 -->
<g id="edge33" class="edge">
<title>1&#45;&gt;11</title>
<path fill="none" stroke="grey" stroke-width="2" d="M585.77,-511.34C536.26,-500.01 453.37,-481.05 393.72,-467.41"/>
<polygon fill="grey" stroke="grey" stroke-width="2" points="394.14,-463.91 383.61,-465.09 392.58,-470.74 394.14,-463.91"/>
</g>
<!-- 16 -->
<g id="node17" class="node">
<title>16</title>
<path fill="none" stroke="#56d0d8" stroke-width="2" d="M443.5,-180C443.5,-180 400.5,-180 400.5,-180 394.5,-180 388.5,-174 388.5,-168 388.5,-168 388.5,-156 388.5,-156 388.5,-150 394.5,-144 400.5,-144 400.5,-144 443.5,-144 443.5,-144 449.5,-144 455.5,-150 455.5,-156 455.5,-156 455.5,-168 455.5,-168 455.5,-174 449.5,-180 443.5,-180"/>
<text text-anchor="middle" x="422" y="-159.5" font-family="sans" font-size="10.00">docs_index</text>
</g>
<!-- 1&#45;&gt;16 -->
<g id="edge52" class="edge">
<title>1&#45;&gt;16</title>
<path fill="none" stroke="grey" stroke-width="2" d="M585.89,-505.73C541.49,-487.2 473.56,-451.38 441,-396 402.54,-330.57 410.13,-236.4 417.01,-190.39"/>
<polygon fill="grey" stroke="grey" stroke-width="2" points="420.51,-190.72 418.63,-180.29 413.59,-189.61 420.51,-190.72"/>
</g>
<!-- 2 -->
<g id="node3" class="node">
<title>2</title>
<path fill="none" stroke="#d85656" stroke-width="2" d="M517.5,-612C517.5,-612 452.5,-612 452.5,-612 446.5,-612 440.5,-606 440.5,-600 440.5,-600 440.5,-588 440.5,-588 440.5,-582 446.5,-576 452.5,-576 452.5,-576 517.5,-576 517.5,-576 523.5,-576 529.5,-582 529.5,-588 529.5,-588 529.5,-600 529.5,-600 529.5,-606 523.5,-612 517.5,-612"/>
<text text-anchor="middle" x="485" y="-591.5" font-family="sans" font-size="10.00">count_barcodes</text>
</g>
<!-- 2&#45;&gt;1 -->
<g id="edge5" class="edge">
<title>2&#45;&gt;1</title>
<path fill="none" stroke="grey" stroke-width="2" d="M519.98,-575.88C539.2,-566.47 563.23,-554.71 583.74,-544.67"/>
<polygon fill="grey" stroke="grey" stroke-width="2" points="585.44,-547.73 592.88,-540.19 582.36,-541.44 585.44,-547.73"/>
</g>
<!-- 2&#45;&gt;11 -->
<g id="edge31" class="edge">
<title>2&#45;&gt;11</title>
<path fill="none" stroke="grey" stroke-width="2" d="M465.34,-575.87C436.46,-550.71 382.44,-503.65 349.6,-475.04"/>
<polygon fill="grey" stroke="grey" stroke-width="2" points="351.57,-472.12 341.73,-468.19 346.97,-477.4 351.57,-472.12"/>
</g>
<!-- 3 -->
<g id="node4" class="node">
<title>3</title>
<path fill="none" stroke="#56d8a2" stroke-width="2" d="M529.5,-684C529.5,-684 440.5,-684 440.5,-684 434.5,-684 428.5,-678 428.5,-672 428.5,-672 428.5,-660 428.5,-660 428.5,-654 434.5,-648 440.5,-648 440.5,-648 529.5,-648 529.5,-648 535.5,-648 541.5,-654 541.5,-660 541.5,-660 541.5,-672 541.5,-672 541.5,-678 535.5,-684 529.5,-684"/>
<text text-anchor="middle" x="485" y="-663.5" font-family="sans" font-size="10.00">build_codon_variants</text>
</g>
<!-- 3&#45;&gt;1 -->
<g id="edge6" class="edge">
<title>3&#45;&gt;1</title>
<path fill="none" stroke="grey" stroke-width="2" d="M521.06,-647.94C537.82,-638.84 557.26,-626.53 572,-612 590.57,-593.69 605.86,-568.1 615.74,-549.06"/>
<polygon fill="grey" stroke="grey" stroke-width="2" points="618.91,-550.54 620.27,-540.03 612.66,-547.4 618.91,-550.54"/>
</g>
<!-- 3&#45;&gt;2 -->
<g id="edge8" class="edge">
<title>3&#45;&gt;2</title>
<path fill="none" stroke="grey" stroke-width="2" d="M485,-647.7C485,-639.98 485,-630.71 485,-622.11"/>
<polygon fill="grey" stroke="grey" stroke-width="2" points="488.5,-622.1 485,-612.1 481.5,-622.1 488.5,-622.1"/>
</g>
<!-- 3&#45;&gt;8 -->
<g id="edge16" class="edge">
<title>3&#45;&gt;8</title>
<path fill="none" stroke="grey" stroke-width="2" d="M506.1,-647.89C516.85,-638.27 529.42,-625.51 538,-612 565.37,-568.92 547.33,-545.52 577,-504 585.1,-492.66 596.26,-482.45 607.09,-474.09"/>
<polygon fill="grey" stroke="grey" stroke-width="2" points="609.29,-476.82 615.26,-468.07 605.13,-471.18 609.29,-476.82"/>
</g>
<!-- 3&#45;&gt;10 -->
<g id="edge26" class="edge">
<title>3&#45;&gt;10</title>
<path fill="none" stroke="grey" stroke-width="2" d="M541.79,-658.39C658.82,-643.18 916,-600.9 916,-523 916,-523 916,-523 916,-449 916,-300.58 882.4,-251.44 780,-144 764.01,-127.22 741.55,-114.9 721.51,-106.38"/>
<polygon fill="grey" stroke="grey" stroke-width="2" points="722.79,-103.13 712.2,-102.62 720.16,-109.61 722.79,-103.13"/>
</g>
<!-- 3&#45;&gt;11 -->
<g id="edge34" class="edge">
<title>3&#45;&gt;11</title>
<path fill="none" stroke="grey" stroke-width="2" d="M446.4,-647.77C429.88,-638.93 411.36,-626.86 398,-612 379.09,-590.97 348.38,-517.74 332.4,-477.68"/>
<polygon fill="grey" stroke="grey" stroke-width="2" points="335.61,-476.28 328.68,-468.27 329.1,-478.85 335.61,-476.28"/>
</g>
<!-- 14 -->
<g id="node15" class="node">
<title>14</title>
<path fill="none" stroke="#5673d8" stroke-width="2" d="M200,-324C200,-324 150,-324 150,-324 144,-324 138,-318 138,-312 138,-312 138,-300 138,-300 138,-294 144,-288 150,-288 150,-288 200,-288 200,-288 206,-288 212,-294 212,-300 212,-300 212,-312 212,-312 212,-318 206,-324 200,-324"/>
<text text-anchor="middle" x="175" y="-303.5" font-family="sans" font-size="10.00">make_nblink</text>
</g>
<!-- 3&#45;&gt;14 -->
<g id="edge41" class="edge">
<title>3&#45;&gt;14</title>
<path fill="none" stroke="grey" stroke-width="2" d="M438.53,-647.97C417.65,-639.06 393.4,-626.89 374,-612 307.23,-560.75 296.7,-538.68 251,-468 222.25,-423.54 197.95,-366.5 185.02,-333.62"/>
<polygon fill="grey" stroke="grey" stroke-width="2" points="188.25,-332.29 181.37,-324.23 181.73,-334.82 188.25,-332.29"/>
</g>
<!-- 3&#45;&gt;16 -->
<g id="edge51" class="edge">
<title>3&#45;&gt;16</title>
<path fill="none" stroke="grey" stroke-width="2" d="M460.82,-647.89C449.73,-638.62 437.59,-626.17 431,-612 363.37,-466.64 409.11,-412.32 408,-252 407.89,-236 405.94,-231.87 408,-216 409.1,-207.51 411.16,-198.43 413.37,-190.24"/>
<polygon fill="grey" stroke="grey" stroke-width="2" points="416.78,-191.02 416.18,-180.44 410.05,-189.09 416.78,-191.02"/>
</g>
<!-- 4 -->
<g id="node5" class="node">
<title>4</title>
<path fill="none" stroke="#bed856" stroke-width="2" d="M255,-756C255,-756 153,-756 153,-756 147,-756 141,-750 141,-744 141,-744 141,-732 141,-732 141,-726 147,-720 153,-720 153,-720 255,-720 255,-720 261,-720 267,-726 267,-732 267,-732 267,-744 267,-744 267,-750 261,-756 255,-756"/>
<text text-anchor="middle" x="204" y="-735.5" font-family="sans" font-size="10.00">build_pacbio_consensus</text>
</g>
<!-- 4&#45;&gt;3 -->
<g id="edge9" class="edge">
<title>4&#45;&gt;3</title>
<path fill="none" stroke="grey" stroke-width="2" d="M267.06,-721.29C312.14,-710.06 372.68,-694.98 418.51,-683.56"/>
<polygon fill="grey" stroke="grey" stroke-width="2" points="419.49,-686.93 428.35,-681.11 417.8,-680.13 419.49,-686.93"/>
</g>
<!-- 4&#45;&gt;10 -->
<g id="edge21" class="edge">
<title>4&#45;&gt;10</title>
<path fill="none" stroke="grey" stroke-width="2" d="M192.35,-719.86C155.2,-663.5 42,-477.72 42,-307 42,-307 42,-307 42,-233 42,-179.21 75.83,-167.93 124,-144 212.03,-100.26 511.24,-92.58 627.89,-91.26"/>
<polygon fill="grey" stroke="grey" stroke-width="2" points="627.98,-94.76 637.94,-91.16 627.91,-87.76 627.98,-94.76"/>
</g>
<!-- 4&#45;&gt;14 -->
<g id="edge38" class="edge">
<title>4&#45;&gt;14</title>
<path fill="none" stroke="grey" stroke-width="2" d="M202.85,-719.88C198.4,-653.94 182.36,-416.06 176.86,-334.59"/>
<polygon fill="grey" stroke="grey" stroke-width="2" points="180.32,-333.91 176.16,-324.17 173.34,-334.38 180.32,-333.91"/>
</g>
<!-- 4&#45;&gt;16 -->
<g id="edge46" class="edge">
<title>4&#45;&gt;16</title>
<path fill="none" stroke="grey" stroke-width="2" d="M203.26,-719.8C201.89,-671.69 202.67,-532.71 251,-432 260.39,-412.43 272.72,-414.54 284,-396 328.3,-323.21 298.85,-284.15 350,-216 358.77,-204.31 370.83,-194.05 382.57,-185.75"/>
<polygon fill="grey" stroke="grey" stroke-width="2" points="384.68,-188.55 391.01,-180.06 380.76,-182.75 384.68,-188.55"/>
</g>
<!-- 5 -->
<g id="node6" class="node">
<title>5</title>
<path fill="none" stroke="#5692d8" stroke-width="2" d="M101,-828C101,-828 21,-828 21,-828 15,-828 9,-822 9,-816 9,-816 9,-804 9,-804 9,-798 15,-792 21,-792 21,-792 101,-792 101,-792 107,-792 113,-798 113,-804 113,-804 113,-816 113,-816 113,-822 107,-828 101,-828"/>
<text text-anchor="middle" x="61" y="-807.5" font-family="sans" font-size="10.00">analyze_pacbio_ccs</text>
</g>
<!-- 5&#45;&gt;4 -->
<g id="edge12" class="edge">
<title>5&#45;&gt;4</title>
<path fill="none" stroke="grey" stroke-width="2" d="M95.98,-791.88C115.2,-782.47 139.23,-770.71 159.74,-760.67"/>
<polygon fill="grey" stroke="grey" stroke-width="2" points="161.44,-763.73 168.88,-756.19 158.36,-757.44 161.44,-763.73"/>
</g>
<!-- 5&#45;&gt;10 -->
<g id="edge29" class="edge">
<title>5&#45;&gt;10</title>
<path fill="none" stroke="grey" stroke-width="2" d="M49.19,-791.96C32.49,-766.16 4,-715.08 4,-667 4,-667 4,-667 4,-233 4,-186.27 20.1,-168.33 60,-144 108.1,-114.67 492.1,-97.77 627.75,-92.66"/>
<polygon fill="grey" stroke="grey" stroke-width="2" points="627.97,-96.16 637.83,-92.29 627.71,-89.16 627.97,-96.16"/>
</g>
<!-- 5&#45;&gt;14 -->
<g id="edge42" class="edge">
<title>5&#45;&gt;14</title>
<path fill="none" stroke="grey" stroke-width="2" d="M57.16,-791.61C51.6,-764.94 42,-712.27 42,-667 42,-667 42,-667 42,-521 42,-441.85 108.44,-367.68 147.4,-330.99"/>
<polygon fill="grey" stroke="grey" stroke-width="2" points="149.83,-333.52 154.8,-324.16 145.08,-328.37 149.83,-333.52"/>
</g>
<!-- 5&#45;&gt;16 -->
<g id="edge53" class="edge">
<title>5&#45;&gt;16</title>
<path fill="none" stroke="grey" stroke-width="2" d="M64.84,-791.61C70.4,-764.94 80,-712.27 80,-667 80,-667 80,-667 80,-593 80,-493.09 251.71,-283.91 325,-216 340.7,-201.45 361.14,-189.52 379.2,-180.68"/>
<polygon fill="grey" stroke="grey" stroke-width="2" points="380.84,-183.78 388.39,-176.35 377.86,-177.45 380.84,-183.78"/>
</g>
<!-- 6 -->
<g id="node7" class="node">
<title>6</title>
<path fill="none" stroke="#88d856" stroke-width="2" d="M110,-900C110,-900 12,-900 12,-900 6,-900 0,-894 0,-888 0,-888 0,-876 0,-876 0,-870 6,-864 12,-864 12,-864 110,-864 110,-864 116,-864 122,-870 122,-876 122,-876 122,-888 122,-888 122,-894 116,-900 110,-900"/>
<text text-anchor="middle" x="61" y="-879.5" font-family="sans" font-size="10.00">align_parse_PacBio_ccs</text>
</g>
<!-- 6&#45;&gt;5 -->
<g id="edge13" class="edge">
<title>6&#45;&gt;5</title>
<path fill="none" stroke="grey" stroke-width="2" d="M61,-863.7C61,-855.98 61,-846.71 61,-838.11"/>
<polygon fill="grey" stroke="grey" stroke-width="2" points="64.5,-838.1 61,-828.1 57.5,-838.1 64.5,-838.1"/>
</g>
<!-- 7 -->
<g id="node8" class="node">
<title>7</title>
<path fill="none" stroke="#56d882" stroke-width="2" d="M667,-828C667,-828 601,-828 601,-828 595,-828 589,-822 589,-816 589,-816 589,-804 589,-804 589,-798 595,-792 601,-792 601,-792 667,-792 667,-792 673,-792 679,-798 679,-804 679,-804 679,-816 679,-816 679,-822 673,-828 667,-828"/>
<text text-anchor="middle" x="634" y="-807.5" font-family="sans" font-size="10.00">gene_sequence</text>
</g>
<!-- 7&#45;&gt;1 -->
<g id="edge7" class="edge">
<title>7&#45;&gt;1</title>
<path fill="none" stroke="grey" stroke-width="2" d="M633.64,-791.97C632.64,-744.29 629.81,-609.18 628.58,-550.63"/>
<polygon fill="grey" stroke="grey" stroke-width="2" points="632.07,-550.23 628.36,-540.31 625.07,-550.38 632.07,-550.23"/>
</g>
<!-- 7&#45;&gt;3 -->
<g id="edge10" class="edge">
<title>7&#45;&gt;3</title>
<path fill="none" stroke="grey" stroke-width="2" d="M616.03,-791.87C589.74,-766.82 540.67,-720.05 510.61,-691.41"/>
<polygon fill="grey" stroke="grey" stroke-width="2" points="512.69,-688.55 503.04,-684.19 507.86,-693.62 512.69,-688.55"/>
</g>
<!-- 7&#45;&gt;4 -->
<g id="edge11" class="edge">
<title>7&#45;&gt;4</title>
<path fill="none" stroke="grey" stroke-width="2" d="M588.8,-801.64C514.67,-789.57 366.63,-765.47 277.33,-750.94"/>
<polygon fill="grey" stroke="grey" stroke-width="2" points="277.71,-747.45 267.28,-749.3 276.59,-754.36 277.71,-747.45"/>
</g>
<!-- 7&#45;&gt;8 -->
<g id="edge14" class="edge">
<title>7&#45;&gt;8</title>
<path fill="none" stroke="grey" stroke-width="2" d="M647.57,-791.76C666.36,-766.1 698,-715.67 698,-667 698,-667 698,-667 698,-593 698,-552.55 694.88,-541.2 679,-504 674.92,-494.43 669.01,-484.78 663.16,-476.39"/>
<polygon fill="grey" stroke="grey" stroke-width="2" points="665.88,-474.17 657.16,-468.15 660.22,-478.29 665.88,-474.17"/>
</g>
<!-- 7&#45;&gt;10 -->
<g id="edge25" class="edge">
<title>7&#45;&gt;10</title>
<path fill="none" stroke="grey" stroke-width="2" d="M679.17,-808.87C767.38,-805.98 954,-785.82 954,-667 954,-667 954,-667 954,-449 954,-299.1 931.92,-231.22 810,-144 783.46,-125.01 749.2,-111.67 721.83,-103.12"/>
<polygon fill="grey" stroke="grey" stroke-width="2" points="722.67,-99.72 712.09,-100.18 720.66,-106.42 722.67,-99.72"/>
</g>
<!-- 7&#45;&gt;11 -->
<g id="edge32" class="edge">
<title>7&#45;&gt;11</title>
<path fill="none" stroke="grey" stroke-width="2" d="M588.74,-808.22C502.91,-804.08 325,-781.68 325,-667 325,-667 325,-667 325,-593 325,-552.99 323.79,-506.65 322.91,-478.08"/>
<polygon fill="grey" stroke="grey" stroke-width="2" points="326.41,-477.93 322.59,-468.05 319.41,-478.15 326.41,-477.93"/>
</g>
<!-- 7&#45;&gt;16 -->
<g id="edge50" class="edge">
<title>7&#45;&gt;16</title>
<path fill="none" stroke="grey" stroke-width="2" d="M679.04,-803.36C749.54,-791.73 878,-758.04 878,-667 878,-667 878,-667 878,-521 878,-495.95 567.11,-229.48 546,-216 520.74,-199.87 489.74,-186.62 465.05,-177.4"/>
<polygon fill="grey" stroke="grey" stroke-width="2" points="466.18,-174.09 455.58,-173.95 463.78,-180.66 466.18,-174.09"/>
</g>
<!-- 8&#45;&gt;0 -->
<g id="edge2" class="edge">
<title>8&#45;&gt;0</title>
<path fill="none" stroke="grey" stroke-width="2" d="M678.97,-431.85C695.71,-422.73 715.16,-410.42 730,-396 841.79,-287.37 918.56,-111.72 944.92,-45.44"/>
<polygon fill="grey" stroke="grey" stroke-width="2" points="948.18,-46.71 948.58,-36.12 941.67,-44.15 948.18,-46.71"/>
</g>
<!-- 9 -->
<g id="node10" class="node">
<title>9</title>
<path fill="none" stroke="#d89556" stroke-width="2" d="M685.5,-396C685.5,-396 632.5,-396 632.5,-396 626.5,-396 620.5,-390 620.5,-384 620.5,-384 620.5,-372 620.5,-372 620.5,-366 626.5,-360 632.5,-360 632.5,-360 685.5,-360 685.5,-360 691.5,-360 697.5,-366 697.5,-372 697.5,-372 697.5,-384 697.5,-384 697.5,-390 691.5,-396 685.5,-396"/>
<text text-anchor="middle" x="659" y="-375.5" font-family="sans" font-size="10.00">fit_polyclonal</text>
</g>
<!-- 8&#45;&gt;9 -->
<g id="edge17" class="edge">
<title>8&#45;&gt;9</title>
<path fill="none" stroke="grey" stroke-width="2" d="M646.96,-431.7C648.72,-423.98 650.84,-414.71 652.8,-406.11"/>
<polygon fill="grey" stroke="grey" stroke-width="2" points="656.27,-406.63 655.09,-396.1 649.45,-405.07 656.27,-406.63"/>
</g>
<!-- 8&#45;&gt;10 -->
<g id="edge18" class="edge">
<title>8&#45;&gt;10</title>
<path fill="none" stroke="grey" stroke-width="2" d="M670.48,-431.92C683.09,-422.75 697.16,-410.36 706,-396 740.46,-339.99 732.39,-317.32 740,-252 745.55,-204.32 760.59,-187.36 740,-144 734.43,-132.27 724.86,-122.28 714.74,-114.25"/>
<polygon fill="grey" stroke="grey" stroke-width="2" points="716.7,-111.35 706.58,-108.22 712.55,-116.98 716.7,-111.35"/>
</g>
<!-- 12 -->
<g id="node13" class="node">
<title>12</title>
<path fill="none" stroke="#68d856" stroke-width="2" d="M552,-396C552,-396 462,-396 462,-396 456,-396 450,-390 450,-384 450,-384 450,-372 450,-372 450,-366 456,-360 462,-360 462,-360 552,-360 552,-360 558,-360 564,-366 564,-372 564,-372 564,-384 564,-384 564,-390 558,-396 552,-396"/>
<text text-anchor="middle" x="507" y="-375.5" font-family="sans" font-size="10.00">analyze_prob_escape</text>
</g>
<!-- 8&#45;&gt;12 -->
<g id="edge35" class="edge">
<title>8&#45;&gt;12</title>
<path fill="none" stroke="grey" stroke-width="2" d="M609.73,-431.88C591.54,-422.51 568.81,-410.81 549.36,-400.8"/>
<polygon fill="grey" stroke="grey" stroke-width="2" points="550.89,-397.65 540.4,-396.19 547.69,-403.88 550.89,-397.65"/>
</g>
<!-- 8&#45;&gt;16 -->
<g id="edge43" class="edge">
<title>8&#45;&gt;16</title>
<path fill="none" stroke="grey" stroke-width="2" d="M629.68,-431.75C599.85,-393.11 525.37,-296.68 463,-216 455.99,-206.93 448.3,-197 441.5,-188.2"/>
<polygon fill="grey" stroke="grey" stroke-width="2" points="444.19,-185.95 435.3,-180.18 438.65,-190.23 444.19,-185.95"/>
</g>
<!-- 9&#45;&gt;0 -->
<g id="edge3" class="edge">
<title>9&#45;&gt;0</title>
<path fill="none" stroke="grey" stroke-width="2" d="M678.99,-359.81C690.27,-349.78 704.39,-336.64 716,-324 805.69,-226.41 898.89,-98.37 937.07,-44.56"/>
<polygon fill="grey" stroke="grey" stroke-width="2" points="940.01,-46.47 942.93,-36.28 934.3,-42.42 940.01,-46.47"/>
</g>
<!-- 9&#45;&gt;10 -->
<g id="edge19" class="edge">
<title>9&#45;&gt;10</title>
<path fill="none" stroke="grey" stroke-width="2" d="M670.98,-359.8C686.34,-336.6 712.16,-293.37 722,-252 733.1,-205.3 739.03,-188.88 722,-144 718.03,-133.54 710.95,-123.83 703.47,-115.65"/>
<polygon fill="grey" stroke="grey" stroke-width="2" points="705.77,-112.99 696.27,-108.3 700.77,-117.89 705.77,-112.99"/>
</g>
<!-- 9&#45;&gt;14 -->
<g id="edge37" class="edge">
<title>9&#45;&gt;14</title>
<path fill="none" stroke="grey" stroke-width="2" d="M620.14,-368.78C605.41,-365.81 588.47,-362.56 573,-360 446.72,-339.13 296.84,-320.93 222.18,-312.31"/>
<polygon fill="grey" stroke="grey" stroke-width="2" points="222.49,-308.82 212.15,-311.16 221.69,-315.78 222.49,-308.82"/>
</g>
<!-- 9&#45;&gt;16 -->
<g id="edge44" class="edge">
<title>9&#45;&gt;16</title>
<path fill="none" stroke="grey" stroke-width="2" d="M646.24,-359.94C622.34,-328.75 568.14,-261.54 512,-216 497.52,-204.25 480.15,-193.39 464.55,-184.6"/>
<polygon fill="grey" stroke="grey" stroke-width="2" points="466.06,-181.43 455.61,-179.67 462.68,-187.57 466.06,-181.43"/>
</g>
<!-- 10&#45;&gt;0 -->
<g id="edge1" class="edge">
<title>10&#45;&gt;0</title>
<path fill="none" stroke="grey" stroke-width="2" d="M712.18,-79.7C765.85,-66.29 864.43,-41.64 918,-28.25"/>
<polygon fill="grey" stroke="grey" stroke-width="2" points="918.92,-31.63 927.77,-25.81 917.22,-24.84 918.92,-31.63"/>
</g>
<!-- 11&#45;&gt;10 -->
<g id="edge22" class="edge">
<title>11&#45;&gt;10</title>
<path fill="none" stroke="grey" stroke-width="2" d="M269.77,-431.99C223.05,-413.62 157.64,-379.3 129,-324 91.43,-251.48 98.34,-189.74 166,-144 240.6,-93.57 516.21,-89.77 627.71,-90.38"/>
<polygon fill="grey" stroke="grey" stroke-width="2" points="627.96,-93.88 637.98,-90.45 628,-86.88 627.96,-93.88"/>
</g>
<!-- 11&#45;&gt;14 -->
<g id="edge39" class="edge">
<title>11&#45;&gt;14</title>
<path fill="none" stroke="grey" stroke-width="2" d="M304.27,-431.87C278.33,-406.82 229.92,-360.05 200.27,-331.41"/>
<polygon fill="grey" stroke="grey" stroke-width="2" points="202.42,-328.62 192.79,-324.19 197.56,-333.65 202.42,-328.62"/>
</g>
<!-- 11&#45;&gt;16 -->
<g id="edge47" class="edge">
<title>11&#45;&gt;16</title>
<path fill="none" stroke="grey" stroke-width="2" d="M322.28,-431.8C323.6,-391.63 330.87,-289.45 370,-216 375.67,-205.35 384.15,-195.41 392.62,-187.07"/>
<polygon fill="grey" stroke="grey" stroke-width="2" points="395.07,-189.57 399.99,-180.19 390.29,-184.46 395.07,-189.57"/>
</g>
<!-- 12&#45;&gt;10 -->
<g id="edge23" class="edge">
<title>12&#45;&gt;10</title>
<path fill="none" stroke="grey" stroke-width="2" d="M553.36,-359.99C597.28,-341.09 660.61,-305.93 689,-252 711.5,-209.25 697.4,-151.17 685.75,-117.72"/>
<polygon fill="grey" stroke="grey" stroke-width="2" points="688.99,-116.37 682.26,-108.18 682.41,-118.77 688.99,-116.37"/>
</g>
<!-- 12&#45;&gt;14 -->
<g id="edge40" class="edge">
<title>12&#45;&gt;14</title>
<path fill="none" stroke="grey" stroke-width="2" d="M449.93,-364.97C385.61,-351.41 282.22,-329.61 222.25,-316.96"/>
<polygon fill="grey" stroke="grey" stroke-width="2" points="222.8,-313.5 212.29,-314.86 221.35,-320.35 222.8,-313.5"/>
</g>
<!-- 12&#45;&gt;16 -->
<g id="edge48" class="edge">
<title>12&#45;&gt;16</title>
<path fill="none" stroke="grey" stroke-width="2" d="M499.36,-359.89C494.79,-349.55 488.94,-336.07 484,-324 464.75,-276.98 443.79,-221.58 431.84,-189.55"/>
<polygon fill="grey" stroke="grey" stroke-width="2" points="435.05,-188.16 428.28,-180.01 428.49,-190.61 435.05,-188.16"/>
</g>
<!-- 13 -->
<g id="node14" class="node">
<title>13</title>
<path fill="none" stroke="#d8d356" stroke-width="2" d="M192,-252C192,-252 158,-252 158,-252 152,-252 146,-246 146,-240 146,-240 146,-228 146,-228 146,-222 152,-216 158,-216 158,-216 192,-216 192,-216 198,-216 204,-222 204,-228 204,-228 204,-240 204,-240 204,-246 198,-252 192,-252"/>
<text text-anchor="middle" x="175" y="-231.5" font-family="sans" font-size="10.00">subindex</text>
</g>
<!-- 13&#45;&gt;10 -->
<g id="edge20" class="edge">
<title>13&#45;&gt;10</title>
<path fill="none" stroke="grey" stroke-width="2" d="M204.24,-217.61C243.11,-197.76 314.45,-163.49 379,-144 464.81,-118.09 568.66,-103.1 627.75,-96.03"/>
<polygon fill="grey" stroke="grey" stroke-width="2" points="628.38,-99.48 637.9,-94.84 627.56,-92.53 628.38,-99.48"/>
</g>
<!-- 13&#45;&gt;16 -->
<g id="edge45" class="edge">
<title>13&#45;&gt;16</title>
<path fill="none" stroke="grey" stroke-width="2" d="M204.43,-220.81C208.95,-219.11 213.57,-217.44 218,-216 272.64,-198.18 337.01,-182.28 378.62,-172.65"/>
<polygon fill="grey" stroke="grey" stroke-width="2" points="379.46,-176.04 388.42,-170.39 377.89,-169.22 379.46,-176.04"/>
</g>
<!-- 14&#45;&gt;10 -->
<g id="edge30" class="edge">
<title>14&#45;&gt;10</title>
<path fill="none" stroke="grey" stroke-width="2" d="M158.15,-287.84C142.11,-269.33 122.42,-239.38 137,-216 175.5,-154.27 214.4,-165.16 284,-144 404.34,-107.42 553.2,-96.05 627.76,-92.54"/>
<polygon fill="grey" stroke="grey" stroke-width="2" points="627.94,-96.04 637.78,-92.1 627.63,-89.04 627.94,-96.04"/>
</g>
<!-- 14&#45;&gt;13 -->
<g id="edge36" class="edge">
<title>14&#45;&gt;13</title>
<path fill="none" stroke="grey" stroke-width="2" d="M175,-287.7C175,-279.98 175,-270.71 175,-262.11"/>
<polygon fill="grey" stroke="grey" stroke-width="2" points="178.5,-262.1 175,-252.1 171.5,-262.1 178.5,-262.1"/>
</g>
<!-- 14&#45;&gt;16 -->
<g id="edge54" class="edge">
<title>14&#45;&gt;16</title>
<path fill="none" stroke="grey" stroke-width="2" d="M186.41,-287.76C200.5,-267.75 226.29,-235.08 256,-216 293.65,-191.83 343.21,-177.9 378.34,-170.44"/>
<polygon fill="grey" stroke="grey" stroke-width="2" points="379.2,-173.84 388.3,-168.42 377.8,-166.98 379.2,-173.84"/>
</g>
<!-- 15 -->
<g id="node16" class="node">
<title>15</title>
<path fill="none" stroke="#56d863" stroke-width="2" d="M668,-252C668,-252 614,-252 614,-252 608,-252 602,-246 602,-240 602,-240 602,-228 602,-228 602,-222 608,-216 614,-216 614,-216 668,-216 668,-216 674,-216 680,-222 680,-228 680,-228 680,-240 680,-240 680,-246 674,-252 668,-252"/>
<text text-anchor="middle" x="641" y="-231.5" font-family="sans" font-size="10.00">make_graphs</text>
</g>
<!-- 15&#45;&gt;10 -->
<g id="edge24" class="edge">
<title>15&#45;&gt;10</title>
<path fill="none" stroke="grey" stroke-width="2" d="M645.1,-215.87C650.92,-191.56 661.63,-146.82 668.53,-118.01"/>
<polygon fill="grey" stroke="grey" stroke-width="2" points="671.96,-118.73 670.88,-108.19 665.15,-117.1 671.96,-118.73"/>
</g>
<!-- 15&#45;&gt;16 -->
<g id="edge49" class="edge">
<title>15&#45;&gt;16</title>
<path fill="none" stroke="grey" stroke-width="2" d="M601.93,-220.46C597.23,-218.96 592.51,-217.44 588,-216 546.48,-202.71 499.11,-187.59 465.63,-176.91"/>
<polygon fill="grey" stroke="grey" stroke-width="2" points="466.3,-173.45 455.71,-173.75 464.17,-180.12 466.3,-173.45"/>
</g>
<!-- 16&#45;&gt;10 -->
<g id="edge28" class="edge">
<title>16&#45;&gt;10</title>
<path fill="none" stroke="grey" stroke-width="2" d="M455.6,-151.7C499.86,-139.46 577.95,-117.85 628.04,-103.99"/>
<polygon fill="grey" stroke="grey" stroke-width="2" points="629.27,-107.28 637.97,-101.24 627.4,-100.54 629.27,-107.28"/>
</g>
</g>
</svg>
